M48
; DRILL file {KiCad (6.0.0-rc1-dev-1561-g9cac0a38c)} date Mon 17 Jun 2019 06:09:22 PM CEST
; FORMAT={-:-/ absolute / inch / decimal}
; #@! TF.CreationDate,2019-06-17T18:09:22+02:00
; #@! TF.GenerationSoftware,Kicad,Pcbnew,(6.0.0-rc1-dev-1561-g9cac0a38c)
FMAT,2
INCH
T1C0.0157
T2C0.0197
T3C0.0276
T4C0.0315
T5C0.0354
T6C0.0394
T7C0.0400
T8C0.0433
T9C0.0709
T10C0.0787
T11C0.0984
T12C0.1260
T13C0.0433
%
G90
G05
T1
X1.4423Y-3.3993
X1.59Y-3.393
X1.6852Y-3.3443
X1.6884Y-3.4043
X1.7371Y-3.8817
X1.7436Y-3.5406
X1.7477Y-3.4428
X1.7577Y-3.5804
X1.7725Y-3.7994
X1.8046Y-3.9623
X1.8168Y-3.802
X1.8168Y-3.709
X1.849Y-4.463
X1.859Y-4.184
X1.873Y-4.393
X1.925Y-4.875
X1.93Y-3.46
X1.9452Y-3.8925
X1.952Y-4.391
X1.9929Y-3.6152
X2.023Y-4.087
X2.04Y-4.864
X2.05Y-3.664
X2.0539Y-4.5465
X2.0672Y-4.116
X2.0769Y-4.5784
X2.0772Y-4.6178
X2.091Y-3.768
X2.1006Y-3.5059
X2.109Y-4.815
X2.12Y-4.4075
X2.1228Y-4.1502
X2.1417Y-4.7495
X2.1746Y-4.118
X2.1767Y-3.3383
X2.183Y-4.858
X2.2604Y-3.9602
X2.2741Y-4.3977
X2.2759Y-4.2123
X2.2848Y-3.3274
X2.2962Y-3.8314
X2.334Y-3.9674
X2.342Y-3.2713
X2.3499Y-3.8137
X2.3558Y-3.673
X2.3638Y-4.7275
X2.3979Y-4.4814
X2.4005Y-4.5389
X2.4161Y-4.6373
X2.4182Y-3.3334
X2.4289Y-4.4534
X2.4507Y-3.8314
X2.475Y-4.6195
X2.5148Y-4.4917
X2.5407Y-3.6621
X2.5407Y-3.7438
X2.564Y-3.509
X2.5675Y-4.6467
X2.6097Y-4.4217
X2.619Y-4.5327
X2.623Y-4.281
X2.644Y-3.3521
X2.667Y-4.438
X2.681Y-3.917
X2.689Y-4.005
X2.696Y-3.301
X2.6982Y-4.1947
X2.7101Y-4.1489
X2.727Y-3.909
X2.762Y-3.608
X2.7721Y-3.5019
X2.7769Y-4.1739
X2.7806Y-4.2422
X2.7915Y-3.8338
X2.798Y-3.436
X2.801Y-3.5287
X2.8087Y-4.0361
X2.8156Y-3.3166
X2.8165Y-3.7797
X2.8259Y-3.8779
X2.833Y-4.543
X2.8377Y-4.2464
X2.8378Y-4.1576
X2.856Y-4.846
X2.8577Y-3.8271
X2.877Y-3.478
X2.894Y-4.6825
X2.9126Y-3.9453
X2.915Y-3.906
X2.9184Y-4.5252
X2.9319Y-4.488
X2.9362Y-4.6999
X2.9452Y-4.4309
X2.9529Y-3.7665
X2.9698Y-3.4318
X2.987Y-3.5756
X3.0026Y-4.5237
X3.008Y-3.799
X3.0274Y-4.0586
X3.0325Y-4.1819
X3.047Y-4.729
X3.0494Y-3.7537
X3.0543Y-4.5578
X3.0635Y-5.082
X3.0654Y-4.9636
X3.0692Y-3.7893
X3.0702Y-3.9596
X3.0705Y-4.1922
X3.0749Y-3.9205
X3.0904Y-4.5737
X3.0941Y-4.4829
X3.0944Y-4.4424
X3.098Y-3.844
X3.1096Y-3.7605
X3.1098Y-3.9556
X3.1269Y-3.8967
X3.129Y-4.1989
X3.1328Y-4.1504
X3.1339Y-4.6418
X3.1369Y-4.0236
X3.1424Y-3.7823
X3.1641Y-3.9095
X3.17Y-3.9484
X3.1703Y-4.2402
X3.1884Y-3.8173
X3.2219Y-4.348
X3.2236Y-5.0416
X3.252Y-4.9032
X3.255Y-3.592
X3.2773Y-4.6199
X3.3112Y-3.9835
X3.322Y-3.7383
X3.3271Y-4.6729
X3.3361Y-3.775
X3.357Y-4.081
X3.371Y-4.7485
X3.3727Y-4.0225
X3.3731Y-4.6729
X3.3752Y-3.7704
X3.3811Y-4.8194
X3.3873Y-4.8765
X3.398Y-5.1429
X3.4129Y-4.0292
X3.424Y-3.771
X3.426Y-5.066
X3.446Y-3.65
X3.4605Y-3.731
X3.4699Y-5.0028
X3.491Y-5.042
X3.5167Y-4.0756
X3.5175Y-3.7713
X3.5518Y-3.7477
X3.5571Y-5.0757
X3.5666Y-3.9999
X3.5781Y-4.9318
X3.579Y-4.54
X3.5801Y-4.8338
X3.5843Y-4.9807
X3.5995Y-4.7494
X3.6051Y-5.0991
X3.6125Y-3.856
X3.6126Y-3.6503
X3.615Y-3.801
X3.62Y-4.531
X3.6219Y-4.6062
X3.655Y-4.5128
X3.6555Y-3.7435
X3.6726Y-4.9869
X3.7011Y-5.0912
X3.7208Y-4.6254
X3.742Y-3.76
X3.7528Y-3.8958
X3.759Y-4.6105
X3.7611Y-5.0797
X3.7612Y-4.1345
X3.7926Y-3.3098
X3.807Y-4.001
X3.8165Y-4.7461
X3.8199Y-4.9807
X3.8291Y-4.3274
X3.836Y-4.606
X3.8446Y-4.4145
X3.848Y-4.208
X3.8596Y-5.0794
X3.861Y-3.297
X3.8615Y-3.9615
X3.872Y-4.06
X3.8889Y-4.2975
X3.899Y-5.04
X3.9078Y-4.6857
X3.921Y-5.106
X3.96Y-4.398
X3.975Y-4.73
X3.9974Y-4.9219
X3.9974Y-5.0597
X4.0048Y-4.4681
X4.0318Y-4.4058
X4.0477Y-4.6228
X4.078Y-4.58
X4.084Y-4.345
X4.149Y-3.289
X4.1605Y-4.8476
X4.234Y-4.796
X4.26Y-4.644
X4.416Y-4.895
T2
X1.4244Y-3.818
X1.446Y-3.7658
X1.446Y-3.8702
X1.4982Y-3.7442
X1.4982Y-3.8918
X1.5504Y-3.7658
X1.5504Y-3.8702
X1.572Y-3.818
X4.3277Y-3.3671
X4.3493Y-3.3149
X4.3493Y-3.4193
X4.4015Y-3.2933
X4.4015Y-3.4409
X4.4537Y-3.3149
X4.4537Y-3.4193
X4.4753Y-3.3671
X3.407Y-4.396
X3.407Y-4.4708
X4.3092Y-5.057
X4.3308Y-5.0048
X4.3308Y-5.1092
X4.383Y-4.9832
X4.383Y-5.1308
X4.4352Y-5.0048
X4.4352Y-5.1092
X4.4568Y-5.057
T3
X2.4816Y-3.9377
X3.4659Y-3.5827
T4
X3.3281Y-4.8235
X3.3281Y-5.0156
X2.1735Y-3.579
X2.1735Y-3.879
X1.5461Y-3.4055
X1.5461Y-3.563
X2.392Y-4.1317
X2.392Y-4.3238
T5
X4.444Y-3.587
X4.3458Y-3.9725
X4.4458Y-3.9725
X4.3458Y-4.1679
X4.4458Y-4.1679
X4.3458Y-3.7742
X4.4458Y-3.7742
X4.344Y-3.587
T6
X4.1578Y-3.9229
X2.849Y-4.747
X2.949Y-4.747
X2.595Y-4.748
X2.695Y-4.748
X2.763Y-3.357
X2.863Y-3.357
X2.963Y-3.357
X3.063Y-3.357
X3.163Y-3.357
X3.263Y-3.357
X3.363Y-3.357
X3.463Y-3.357
X1.6601Y-4.3943
X1.6601Y-4.5033
X1.6601Y-4.6124
X1.6601Y-4.7215
X1.7719Y-4.3398
X1.7719Y-4.4488
X1.7719Y-4.5579
X1.7719Y-4.6669
X1.7719Y-4.776
T7
X2.04Y-4.963
X2.04Y-5.063
X2.14Y-4.963
X2.14Y-5.063
X2.24Y-4.963
X2.24Y-5.063
X2.34Y-4.963
X2.34Y-5.063
X2.44Y-4.963
X2.44Y-5.063
X2.54Y-4.963
X2.54Y-5.063
X2.64Y-4.963
X2.64Y-5.063
X2.74Y-4.963
X2.74Y-5.063
X2.84Y-4.963
X2.84Y-5.063
X2.94Y-4.963
X2.94Y-5.063
T8
X4.385Y-4.612
X4.385Y-4.712
X4.385Y-4.35
X4.385Y-4.45
T9
X3.6828Y-3.5463
T10
X3.6828Y-4.4124
X4.1552Y-3.3967
X4.1552Y-4.4833
T11
X1.4982Y-3.818
X4.4015Y-3.3671
X4.383Y-5.057
T12
X1.716Y-4.0657
X1.716Y-5.05
T13
X4.485Y-4.612
X4.485Y-4.712
X4.485Y-4.35
X4.485Y-4.45
T3
G00X1.4604Y-3.3435
M15
G01X1.4506Y-3.3435
M16
G05
G00X1.4604Y-3.625
M15
G01X1.4506Y-3.625
M16
G05
G00X1.5963Y-3.3435
M15
G01X1.5864Y-3.3435
M16
G05
G00X1.5963Y-3.625
M15
G01X1.5864Y-3.625
M16
G05
T0
M30
