G04 #@! TF.GenerationSoftware,KiCad,Pcbnew,(6.0.0-rc1-dev-1561-g9cac0a38c)*
G04 #@! TF.CreationDate,2019-06-17T18:23:23+02:00
G04 #@! TF.ProjectId,canbox,63616e62-6f78-42e6-9b69-6361645f7063,rev?*
G04 #@! TF.SameCoordinates,Original*
G04 #@! TF.FileFunction,Legend,Bot*
G04 #@! TF.FilePolarity,Positive*
%FSLAX46Y46*%
G04 Gerber Fmt 4.6, Leading zero omitted, Abs format (unit mm)*
G04 Created by KiCad (PCBNEW (6.0.0-rc1-dev-1561-g9cac0a38c)) date Mon 17 Jun 2019 06:23:23 PM CEST*
%MOMM*%
%LPD*%
G04 APERTURE LIST*
%ADD10C,0.120000*%
%ADD11C,0.150000*%
G04 APERTURE END LIST*
D10*
X48050000Y-86900000D02*
X48050000Y-91300000D01*
X44950000Y-86900000D02*
X44950000Y-89400000D01*
X50661700Y-113697400D02*
X50661700Y-117047400D01*
X50661700Y-117047400D02*
X49011700Y-117047400D01*
X47661700Y-111647400D02*
X47661700Y-107997400D01*
X47661700Y-107997400D02*
X50661700Y-107997400D01*
X50661700Y-107997400D02*
X50661700Y-111747400D01*
X54730400Y-119933800D02*
X54730400Y-119998800D01*
X58260400Y-119933800D02*
X58260400Y-119998800D01*
X54730400Y-113528800D02*
X54730400Y-113593800D01*
X58260400Y-113528800D02*
X58260400Y-113593800D01*
X59585400Y-113593800D02*
X58260400Y-113593800D01*
X58260400Y-119998800D02*
X54730400Y-119998800D01*
X58260400Y-113528800D02*
X54730400Y-113528800D01*
X58509350Y-111683800D02*
G75*
G03X59035401Y-112953799I1796050J0D01*
G01*
X99667852Y-105764400D02*
X99145348Y-105764400D01*
X99667852Y-104344400D02*
X99145348Y-104344400D01*
D11*
X51852500Y-89726500D02*
X50452500Y-89726500D01*
X51852500Y-84626500D02*
X56002500Y-84626500D01*
X51852500Y-89776500D02*
X56002500Y-89776500D01*
X51852500Y-84626500D02*
X51852500Y-84771500D01*
X56002500Y-84626500D02*
X56002500Y-84771500D01*
X56002500Y-89776500D02*
X56002500Y-89631500D01*
X51852500Y-89776500D02*
X51852500Y-89726500D01*
D10*
X46216000Y-122405200D02*
X46216000Y-124945200D01*
X46216000Y-122405200D02*
X48756000Y-122405200D01*
X46466000Y-122655200D02*
X46466000Y-132005200D01*
X80026000Y-122655200D02*
X46466000Y-122655200D01*
X80026000Y-132005200D02*
X80026000Y-122655200D01*
X46466000Y-132005200D02*
X80026000Y-132005200D01*
X101023052Y-86257200D02*
X100500548Y-86257200D01*
X101023052Y-84837200D02*
X100500548Y-84837200D01*
X54684452Y-94537600D02*
X54161948Y-94537600D01*
X54684452Y-93117600D02*
X54161948Y-93117600D01*
X114779000Y-115344800D02*
X114779000Y-115844800D01*
X114039000Y-115344800D02*
X114779000Y-115344800D01*
X108219000Y-121244800D02*
X114539000Y-121244800D01*
X108219000Y-115584800D02*
X114539000Y-115584800D01*
X114539000Y-120474800D02*
X114539000Y-121244800D01*
X114539000Y-117934800D02*
X114539000Y-118894800D01*
X114539000Y-115584800D02*
X114539000Y-116354800D01*
X108219000Y-115584800D02*
X108219000Y-121244800D01*
X108679000Y-115584800D02*
X108679000Y-121244800D01*
X113979000Y-120474800D02*
X113979000Y-121244800D01*
X113979000Y-117934800D02*
X113979000Y-118894800D01*
X113979000Y-115584800D02*
X113979000Y-116354800D01*
X114779000Y-108690000D02*
X114779000Y-109190000D01*
X114039000Y-108690000D02*
X114779000Y-108690000D01*
X108219000Y-114590000D02*
X114539000Y-114590000D01*
X108219000Y-108930000D02*
X114539000Y-108930000D01*
X114539000Y-113820000D02*
X114539000Y-114590000D01*
X114539000Y-111280000D02*
X114539000Y-112240000D01*
X114539000Y-108930000D02*
X114539000Y-109700000D01*
X108219000Y-108930000D02*
X108219000Y-114590000D01*
X108679000Y-108930000D02*
X108679000Y-114590000D01*
X113979000Y-113820000D02*
X113979000Y-114590000D01*
X113979000Y-111280000D02*
X113979000Y-112240000D01*
X113979000Y-108930000D02*
X113979000Y-109700000D01*
X44950748Y-82856000D02*
X45473252Y-82856000D01*
X44950748Y-84276000D02*
X45473252Y-84276000D01*
D11*
X98267700Y-97061500D02*
X96892700Y-97061500D01*
X98267700Y-86936500D02*
X102417700Y-86936500D01*
X98267700Y-97086500D02*
X102417700Y-97086500D01*
X98267700Y-86936500D02*
X98267700Y-87041500D01*
X102417700Y-86936500D02*
X102417700Y-87041500D01*
X102417700Y-97086500D02*
X102417700Y-96981500D01*
X98267700Y-97086500D02*
X98267700Y-97061500D01*
D10*
X41000000Y-87040000D02*
X43450000Y-87040000D01*
X42800000Y-90260000D02*
X41000000Y-90260000D01*
X39851400Y-117340748D02*
X39851400Y-117863252D01*
X38431400Y-117340748D02*
X38431400Y-117863252D01*
X38355200Y-107271452D02*
X38355200Y-106748948D01*
X39775200Y-107271452D02*
X39775200Y-106748948D01*
X106130348Y-88329700D02*
X106652852Y-88329700D01*
X106130348Y-89749700D02*
X106652852Y-89749700D01*
X106231948Y-90806200D02*
X106754452Y-90806200D01*
X106231948Y-92226200D02*
X106754452Y-92226200D01*
X52030152Y-84136300D02*
X51507648Y-84136300D01*
X52030152Y-82716300D02*
X51507648Y-82716300D01*
X56271952Y-83958500D02*
X55749448Y-83958500D01*
X56271952Y-82538500D02*
X55749448Y-82538500D01*
X106253648Y-93104900D02*
X106776152Y-93104900D01*
X106253648Y-94524900D02*
X106776152Y-94524900D01*
X106282748Y-95530600D02*
X106805252Y-95530600D01*
X106282748Y-96950600D02*
X106805252Y-96950600D01*
X50849600Y-95759748D02*
X50849600Y-96282252D01*
X49429600Y-95759748D02*
X49429600Y-96282252D01*
X59107000Y-86231252D02*
X59107000Y-85708748D01*
X60527000Y-86231252D02*
X60527000Y-85708748D01*
X37460000Y-88413748D02*
X37460000Y-88936252D01*
X36040000Y-88413748D02*
X36040000Y-88936252D01*
X38101200Y-111395252D02*
X38101200Y-110872748D01*
X39521200Y-111395252D02*
X39521200Y-110872748D01*
X51550500Y-111166652D02*
X51550500Y-110644148D01*
X52970500Y-111166652D02*
X52970500Y-110644148D01*
X108279000Y-124265948D02*
X108279000Y-124788452D01*
X106859000Y-124265948D02*
X106859000Y-124788452D01*
X110920052Y-123519000D02*
X110397548Y-123519000D01*
X110920052Y-122099000D02*
X110397548Y-122099000D01*
X102294652Y-115727200D02*
X101772148Y-115727200D01*
X102294652Y-114307200D02*
X101772148Y-114307200D01*
X80897252Y-112139800D02*
X80374748Y-112139800D01*
X80897252Y-110719800D02*
X80374748Y-110719800D01*
X68369548Y-116485600D02*
X68892052Y-116485600D01*
X68369548Y-117905600D02*
X68892052Y-117905600D01*
X82529467Y-126392400D02*
X82186933Y-126392400D01*
X82529467Y-125372400D02*
X82186933Y-125372400D01*
X102481748Y-82551200D02*
X103004252Y-82551200D01*
X102481748Y-83971200D02*
X103004252Y-83971200D01*
X56828948Y-95200400D02*
X57351452Y-95200400D01*
X56828948Y-96620400D02*
X57351452Y-96620400D01*
X48269148Y-104065000D02*
X48791652Y-104065000D01*
X48269148Y-105485000D02*
X48791652Y-105485000D01*
X105272148Y-118807200D02*
X105794652Y-118807200D01*
X105272148Y-120227200D02*
X105794652Y-120227200D01*
X105546148Y-116612600D02*
X106068652Y-116612600D01*
X105546148Y-118032600D02*
X106068652Y-118032600D01*
X101999148Y-129566600D02*
X102521652Y-129566600D01*
X101999148Y-130986600D02*
X102521652Y-130986600D01*
X91297148Y-118807200D02*
X91819652Y-118807200D01*
X91297148Y-120227200D02*
X91819652Y-120227200D01*
X95759748Y-114885400D02*
X96282252Y-114885400D01*
X95759748Y-116305400D02*
X96282252Y-116305400D01*
X57840512Y-105695820D02*
X57318008Y-105695820D01*
X57840512Y-104275820D02*
X57318008Y-104275820D01*
X57994072Y-110559920D02*
X57471568Y-110559920D01*
X57994072Y-109139920D02*
X57471568Y-109139920D01*
X59945200Y-99660452D02*
X59945200Y-99137948D01*
X61365200Y-99660452D02*
X61365200Y-99137948D01*
D11*
X49332380Y-87431904D02*
X48332380Y-87431904D01*
X48332380Y-87670000D01*
X48380000Y-87812857D01*
X48475238Y-87908095D01*
X48570476Y-87955714D01*
X48760952Y-88003333D01*
X48903809Y-88003333D01*
X49094285Y-87955714D01*
X49189523Y-87908095D01*
X49284761Y-87812857D01*
X49332380Y-87670000D01*
X49332380Y-87431904D01*
X49332380Y-88955714D02*
X49332380Y-88384285D01*
X49332380Y-88670000D02*
X48332380Y-88670000D01*
X48475238Y-88574761D01*
X48570476Y-88479523D01*
X48618095Y-88384285D01*
X49544280Y-111932133D02*
X49544280Y-111455942D01*
X48544280Y-111455942D01*
X48544280Y-112741657D02*
X48544280Y-112265466D01*
X49020471Y-112217847D01*
X48972852Y-112265466D01*
X48925233Y-112360704D01*
X48925233Y-112598800D01*
X48972852Y-112694038D01*
X49020471Y-112741657D01*
X49115709Y-112789276D01*
X49353804Y-112789276D01*
X49449042Y-112741657D01*
X49496661Y-112694038D01*
X49544280Y-112598800D01*
X49544280Y-112360704D01*
X49496661Y-112265466D01*
X49449042Y-112217847D01*
X49518842Y-112499780D02*
X49566461Y-112547400D01*
X49614080Y-112499780D01*
X49566461Y-112452161D01*
X49518842Y-112499780D01*
X49614080Y-112499780D01*
X48661700Y-112309304D02*
X48614080Y-112404542D01*
X48614080Y-112642638D01*
X48661700Y-112737876D01*
X48756938Y-112785495D01*
X48852176Y-112785495D01*
X48947414Y-112737876D01*
X48995033Y-112690257D01*
X49042652Y-112595019D01*
X49090271Y-112547400D01*
X49185509Y-112499780D01*
X49233128Y-112499780D01*
X56828733Y-111981180D02*
X56828733Y-112695466D01*
X56876352Y-112838323D01*
X56971590Y-112933561D01*
X57114447Y-112981180D01*
X57209685Y-112981180D01*
X55828733Y-112981180D02*
X56400161Y-112981180D01*
X56114447Y-112981180D02*
X56114447Y-111981180D01*
X56209685Y-112124038D01*
X56304923Y-112219276D01*
X56400161Y-112266895D01*
X100049457Y-103856780D02*
X100382790Y-103380590D01*
X100620885Y-103856780D02*
X100620885Y-102856780D01*
X100239933Y-102856780D01*
X100144695Y-102904400D01*
X100097076Y-102952019D01*
X100049457Y-103047257D01*
X100049457Y-103190114D01*
X100097076Y-103285352D01*
X100144695Y-103332971D01*
X100239933Y-103380590D01*
X100620885Y-103380590D01*
X99097076Y-103856780D02*
X99668504Y-103856780D01*
X99382790Y-103856780D02*
X99382790Y-102856780D01*
X99478028Y-102999638D01*
X99573266Y-103094876D01*
X99668504Y-103142495D01*
X98478028Y-102856780D02*
X98382790Y-102856780D01*
X98287552Y-102904400D01*
X98239933Y-102952019D01*
X98192314Y-103047257D01*
X98144695Y-103237733D01*
X98144695Y-103475828D01*
X98192314Y-103666304D01*
X98239933Y-103761542D01*
X98287552Y-103809161D01*
X98382790Y-103856780D01*
X98478028Y-103856780D01*
X98573266Y-103809161D01*
X98620885Y-103761542D01*
X98668504Y-103666304D01*
X98716123Y-103475828D01*
X98716123Y-103237733D01*
X98668504Y-103047257D01*
X98620885Y-102952019D01*
X98573266Y-102904400D01*
X98478028Y-102856780D01*
X55165595Y-90153880D02*
X55165595Y-90963404D01*
X55117976Y-91058642D01*
X55070357Y-91106261D01*
X54975119Y-91153880D01*
X54784642Y-91153880D01*
X54689404Y-91106261D01*
X54641785Y-91058642D01*
X54594166Y-90963404D01*
X54594166Y-90153880D01*
X53594166Y-91153880D02*
X54165595Y-91153880D01*
X53879880Y-91153880D02*
X53879880Y-90153880D01*
X53975119Y-90296738D01*
X54070357Y-90391976D01*
X54165595Y-90439595D01*
X52641785Y-91153880D02*
X53213214Y-91153880D01*
X52927500Y-91153880D02*
X52927500Y-90153880D01*
X53022738Y-90296738D01*
X53117976Y-90391976D01*
X53213214Y-90439595D01*
X44664380Y-126996866D02*
X45378666Y-126996866D01*
X45521523Y-126949247D01*
X45616761Y-126854009D01*
X45664380Y-126711152D01*
X45664380Y-126615914D01*
X44997714Y-127901628D02*
X45664380Y-127901628D01*
X44616761Y-127663533D02*
X45331047Y-127425438D01*
X45331047Y-128044485D01*
X100134657Y-84151742D02*
X100182276Y-84199361D01*
X100325133Y-84246980D01*
X100420371Y-84246980D01*
X100563228Y-84199361D01*
X100658466Y-84104123D01*
X100706085Y-84008885D01*
X100753704Y-83818409D01*
X100753704Y-83675552D01*
X100706085Y-83485076D01*
X100658466Y-83389838D01*
X100563228Y-83294600D01*
X100420371Y-83246980D01*
X100325133Y-83246980D01*
X100182276Y-83294600D01*
X100134657Y-83342219D01*
X99182276Y-84246980D02*
X99753704Y-84246980D01*
X99467990Y-84246980D02*
X99467990Y-83246980D01*
X99563228Y-83389838D01*
X99658466Y-83485076D01*
X99753704Y-83532695D01*
X98277514Y-83246980D02*
X98753704Y-83246980D01*
X98801323Y-83723171D01*
X98753704Y-83675552D01*
X98658466Y-83627933D01*
X98420371Y-83627933D01*
X98325133Y-83675552D01*
X98277514Y-83723171D01*
X98229895Y-83818409D01*
X98229895Y-84056504D01*
X98277514Y-84151742D01*
X98325133Y-84199361D01*
X98420371Y-84246980D01*
X98658466Y-84246980D01*
X98753704Y-84199361D01*
X98801323Y-84151742D01*
X55066057Y-92629980D02*
X55399390Y-92153790D01*
X55637485Y-92629980D02*
X55637485Y-91629980D01*
X55256533Y-91629980D01*
X55161295Y-91677600D01*
X55113676Y-91725219D01*
X55066057Y-91820457D01*
X55066057Y-91963314D01*
X55113676Y-92058552D01*
X55161295Y-92106171D01*
X55256533Y-92153790D01*
X55637485Y-92153790D01*
X54685104Y-91725219D02*
X54637485Y-91677600D01*
X54542247Y-91629980D01*
X54304152Y-91629980D01*
X54208914Y-91677600D01*
X54161295Y-91725219D01*
X54113676Y-91820457D01*
X54113676Y-91915695D01*
X54161295Y-92058552D01*
X54732723Y-92629980D01*
X54113676Y-92629980D01*
X53780342Y-91629980D02*
X53161295Y-91629980D01*
X53494628Y-92010933D01*
X53351771Y-92010933D01*
X53256533Y-92058552D01*
X53208914Y-92106171D01*
X53161295Y-92201409D01*
X53161295Y-92439504D01*
X53208914Y-92534742D01*
X53256533Y-92582361D01*
X53351771Y-92629980D01*
X53637485Y-92629980D01*
X53732723Y-92582361D01*
X53780342Y-92534742D01*
X106665780Y-115541466D02*
X107380066Y-115541466D01*
X107522923Y-115493847D01*
X107618161Y-115398609D01*
X107665780Y-115255752D01*
X107665780Y-115160514D01*
X106665780Y-115922419D02*
X106665780Y-116541466D01*
X107046733Y-116208133D01*
X107046733Y-116350990D01*
X107094352Y-116446228D01*
X107141971Y-116493847D01*
X107237209Y-116541466D01*
X107475304Y-116541466D01*
X107570542Y-116493847D01*
X107618161Y-116446228D01*
X107665780Y-116350990D01*
X107665780Y-116065276D01*
X107618161Y-115970038D01*
X107570542Y-115922419D01*
X106589580Y-108962866D02*
X107303866Y-108962866D01*
X107446723Y-108915247D01*
X107541961Y-108820009D01*
X107589580Y-108677152D01*
X107589580Y-108581914D01*
X106684819Y-109391438D02*
X106637200Y-109439057D01*
X106589580Y-109534295D01*
X106589580Y-109772390D01*
X106637200Y-109867628D01*
X106684819Y-109915247D01*
X106780057Y-109962866D01*
X106875295Y-109962866D01*
X107018152Y-109915247D01*
X107589580Y-109343819D01*
X107589580Y-109962866D01*
X42606257Y-83859580D02*
X42939590Y-83383390D01*
X43177685Y-83859580D02*
X43177685Y-82859580D01*
X42796733Y-82859580D01*
X42701495Y-82907200D01*
X42653876Y-82954819D01*
X42606257Y-83050057D01*
X42606257Y-83192914D01*
X42653876Y-83288152D01*
X42701495Y-83335771D01*
X42796733Y-83383390D01*
X43177685Y-83383390D01*
X42225304Y-82954819D02*
X42177685Y-82907200D01*
X42082447Y-82859580D01*
X41844352Y-82859580D01*
X41749114Y-82907200D01*
X41701495Y-82954819D01*
X41653876Y-83050057D01*
X41653876Y-83145295D01*
X41701495Y-83288152D01*
X42272923Y-83859580D01*
X41653876Y-83859580D01*
X40796733Y-83192914D02*
X40796733Y-83859580D01*
X41034828Y-82811961D02*
X41272923Y-83526247D01*
X40653876Y-83526247D01*
X101104604Y-97463880D02*
X101104604Y-98273404D01*
X101056985Y-98368642D01*
X101009366Y-98416261D01*
X100914128Y-98463880D01*
X100723652Y-98463880D01*
X100628414Y-98416261D01*
X100580795Y-98368642D01*
X100533176Y-98273404D01*
X100533176Y-97463880D01*
X99914128Y-97892452D02*
X100009366Y-97844833D01*
X100056985Y-97797214D01*
X100104604Y-97701976D01*
X100104604Y-97654357D01*
X100056985Y-97559119D01*
X100009366Y-97511500D01*
X99914128Y-97463880D01*
X99723652Y-97463880D01*
X99628414Y-97511500D01*
X99580795Y-97559119D01*
X99533176Y-97654357D01*
X99533176Y-97701976D01*
X99580795Y-97797214D01*
X99628414Y-97844833D01*
X99723652Y-97892452D01*
X99914128Y-97892452D01*
X100009366Y-97940071D01*
X100056985Y-97987690D01*
X100104604Y-98082928D01*
X100104604Y-98273404D01*
X100056985Y-98368642D01*
X100009366Y-98416261D01*
X99914128Y-98463880D01*
X99723652Y-98463880D01*
X99628414Y-98416261D01*
X99580795Y-98368642D01*
X99533176Y-98273404D01*
X99533176Y-98082928D01*
X99580795Y-97987690D01*
X99628414Y-97940071D01*
X99723652Y-97892452D01*
X42661904Y-85202380D02*
X42661904Y-86011904D01*
X42614285Y-86107142D01*
X42566666Y-86154761D01*
X42471428Y-86202380D01*
X42280952Y-86202380D01*
X42185714Y-86154761D01*
X42138095Y-86107142D01*
X42090476Y-86011904D01*
X42090476Y-85202380D01*
X41185714Y-85202380D02*
X41376190Y-85202380D01*
X41471428Y-85250000D01*
X41519047Y-85297619D01*
X41614285Y-85440476D01*
X41661904Y-85630952D01*
X41661904Y-86011904D01*
X41614285Y-86107142D01*
X41566666Y-86154761D01*
X41471428Y-86202380D01*
X41280952Y-86202380D01*
X41185714Y-86154761D01*
X41138095Y-86107142D01*
X41090476Y-86011904D01*
X41090476Y-85773809D01*
X41138095Y-85678571D01*
X41185714Y-85630952D01*
X41280952Y-85583333D01*
X41471428Y-85583333D01*
X41566666Y-85630952D01*
X41614285Y-85678571D01*
X41661904Y-85773809D01*
X37943780Y-117006761D02*
X37467590Y-116673428D01*
X37943780Y-116435333D02*
X36943780Y-116435333D01*
X36943780Y-116816285D01*
X36991400Y-116911523D01*
X37039019Y-116959142D01*
X37134257Y-117006761D01*
X37277114Y-117006761D01*
X37372352Y-116959142D01*
X37419971Y-116911523D01*
X37467590Y-116816285D01*
X37467590Y-116435333D01*
X36943780Y-117292476D02*
X37943780Y-117625809D01*
X36943780Y-117959142D01*
X36943780Y-118197238D02*
X36943780Y-118816285D01*
X37324733Y-118482952D01*
X37324733Y-118625809D01*
X37372352Y-118721047D01*
X37419971Y-118768666D01*
X37515209Y-118816285D01*
X37753304Y-118816285D01*
X37848542Y-118768666D01*
X37896161Y-118721047D01*
X37943780Y-118625809D01*
X37943780Y-118340095D01*
X37896161Y-118244857D01*
X37848542Y-118197238D01*
X41167580Y-106414961D02*
X40691390Y-106081628D01*
X41167580Y-105843533D02*
X40167580Y-105843533D01*
X40167580Y-106224485D01*
X40215200Y-106319723D01*
X40262819Y-106367342D01*
X40358057Y-106414961D01*
X40500914Y-106414961D01*
X40596152Y-106367342D01*
X40643771Y-106319723D01*
X40691390Y-106224485D01*
X40691390Y-105843533D01*
X40167580Y-106700676D02*
X41167580Y-107034009D01*
X40167580Y-107367342D01*
X41167580Y-108224485D02*
X41167580Y-107653057D01*
X41167580Y-107938771D02*
X40167580Y-107938771D01*
X40310438Y-107843533D01*
X40405676Y-107748295D01*
X40453295Y-107653057D01*
X108923057Y-88183980D02*
X109256390Y-87707790D01*
X109494485Y-88183980D02*
X109494485Y-87183980D01*
X109113533Y-87183980D01*
X109018295Y-87231600D01*
X108970676Y-87279219D01*
X108923057Y-87374457D01*
X108923057Y-87517314D01*
X108970676Y-87612552D01*
X109018295Y-87660171D01*
X109113533Y-87707790D01*
X109494485Y-87707790D01*
X108589723Y-87183980D02*
X107970676Y-87183980D01*
X108304009Y-87564933D01*
X108161152Y-87564933D01*
X108065914Y-87612552D01*
X108018295Y-87660171D01*
X107970676Y-87755409D01*
X107970676Y-87993504D01*
X108018295Y-88088742D01*
X108065914Y-88136361D01*
X108161152Y-88183980D01*
X108446866Y-88183980D01*
X108542104Y-88136361D01*
X108589723Y-88088742D01*
X107637342Y-87183980D02*
X107018295Y-87183980D01*
X107351628Y-87564933D01*
X107208771Y-87564933D01*
X107113533Y-87612552D01*
X107065914Y-87660171D01*
X107018295Y-87755409D01*
X107018295Y-87993504D01*
X107065914Y-88088742D01*
X107113533Y-88136361D01*
X107208771Y-88183980D01*
X107494485Y-88183980D01*
X107589723Y-88136361D01*
X107637342Y-88088742D01*
X107145057Y-90800180D02*
X107478390Y-90323990D01*
X107716485Y-90800180D02*
X107716485Y-89800180D01*
X107335533Y-89800180D01*
X107240295Y-89847800D01*
X107192676Y-89895419D01*
X107145057Y-89990657D01*
X107145057Y-90133514D01*
X107192676Y-90228752D01*
X107240295Y-90276371D01*
X107335533Y-90323990D01*
X107716485Y-90323990D01*
X106811723Y-89800180D02*
X106192676Y-89800180D01*
X106526009Y-90181133D01*
X106383152Y-90181133D01*
X106287914Y-90228752D01*
X106240295Y-90276371D01*
X106192676Y-90371609D01*
X106192676Y-90609704D01*
X106240295Y-90704942D01*
X106287914Y-90752561D01*
X106383152Y-90800180D01*
X106668866Y-90800180D01*
X106764104Y-90752561D01*
X106811723Y-90704942D01*
X105811723Y-89895419D02*
X105764104Y-89847800D01*
X105668866Y-89800180D01*
X105430771Y-89800180D01*
X105335533Y-89847800D01*
X105287914Y-89895419D01*
X105240295Y-89990657D01*
X105240295Y-90085895D01*
X105287914Y-90228752D01*
X105859342Y-90800180D01*
X105240295Y-90800180D01*
X49461657Y-83865980D02*
X49794990Y-83389790D01*
X50033085Y-83865980D02*
X50033085Y-82865980D01*
X49652133Y-82865980D01*
X49556895Y-82913600D01*
X49509276Y-82961219D01*
X49461657Y-83056457D01*
X49461657Y-83199314D01*
X49509276Y-83294552D01*
X49556895Y-83342171D01*
X49652133Y-83389790D01*
X50033085Y-83389790D01*
X49128323Y-82865980D02*
X48509276Y-82865980D01*
X48842609Y-83246933D01*
X48699752Y-83246933D01*
X48604514Y-83294552D01*
X48556895Y-83342171D01*
X48509276Y-83437409D01*
X48509276Y-83675504D01*
X48556895Y-83770742D01*
X48604514Y-83818361D01*
X48699752Y-83865980D01*
X48985466Y-83865980D01*
X49080704Y-83818361D01*
X49128323Y-83770742D01*
X47556895Y-83865980D02*
X48128323Y-83865980D01*
X47842609Y-83865980D02*
X47842609Y-82865980D01*
X47937847Y-83008838D01*
X48033085Y-83104076D01*
X48128323Y-83151695D01*
X59723257Y-83662780D02*
X60056590Y-83186590D01*
X60294685Y-83662780D02*
X60294685Y-82662780D01*
X59913733Y-82662780D01*
X59818495Y-82710400D01*
X59770876Y-82758019D01*
X59723257Y-82853257D01*
X59723257Y-82996114D01*
X59770876Y-83091352D01*
X59818495Y-83138971D01*
X59913733Y-83186590D01*
X60294685Y-83186590D01*
X59389923Y-82662780D02*
X58770876Y-82662780D01*
X59104209Y-83043733D01*
X58961352Y-83043733D01*
X58866114Y-83091352D01*
X58818495Y-83138971D01*
X58770876Y-83234209D01*
X58770876Y-83472304D01*
X58818495Y-83567542D01*
X58866114Y-83615161D01*
X58961352Y-83662780D01*
X59247066Y-83662780D01*
X59342304Y-83615161D01*
X59389923Y-83567542D01*
X58151828Y-82662780D02*
X58056590Y-82662780D01*
X57961352Y-82710400D01*
X57913733Y-82758019D01*
X57866114Y-82853257D01*
X57818495Y-83043733D01*
X57818495Y-83281828D01*
X57866114Y-83472304D01*
X57913733Y-83567542D01*
X57961352Y-83615161D01*
X58056590Y-83662780D01*
X58151828Y-83662780D01*
X58247066Y-83615161D01*
X58294685Y-83567542D01*
X58342304Y-83472304D01*
X58389923Y-83281828D01*
X58389923Y-83043733D01*
X58342304Y-82853257D01*
X58294685Y-82758019D01*
X58247066Y-82710400D01*
X58151828Y-82662780D01*
X110345457Y-94254580D02*
X110678790Y-93778390D01*
X110916885Y-94254580D02*
X110916885Y-93254580D01*
X110535933Y-93254580D01*
X110440695Y-93302200D01*
X110393076Y-93349819D01*
X110345457Y-93445057D01*
X110345457Y-93587914D01*
X110393076Y-93683152D01*
X110440695Y-93730771D01*
X110535933Y-93778390D01*
X110916885Y-93778390D01*
X109964504Y-93349819D02*
X109916885Y-93302200D01*
X109821647Y-93254580D01*
X109583552Y-93254580D01*
X109488314Y-93302200D01*
X109440695Y-93349819D01*
X109393076Y-93445057D01*
X109393076Y-93540295D01*
X109440695Y-93683152D01*
X110012123Y-94254580D01*
X109393076Y-94254580D01*
X108916885Y-94254580D02*
X108726409Y-94254580D01*
X108631171Y-94206961D01*
X108583552Y-94159342D01*
X108488314Y-94016485D01*
X108440695Y-93826009D01*
X108440695Y-93445057D01*
X108488314Y-93349819D01*
X108535933Y-93302200D01*
X108631171Y-93254580D01*
X108821647Y-93254580D01*
X108916885Y-93302200D01*
X108964504Y-93349819D01*
X109012123Y-93445057D01*
X109012123Y-93683152D01*
X108964504Y-93778390D01*
X108916885Y-93826009D01*
X108821647Y-93873628D01*
X108631171Y-93873628D01*
X108535933Y-93826009D01*
X108488314Y-93778390D01*
X108440695Y-93683152D01*
X107186857Y-98342980D02*
X107520190Y-97866790D01*
X107758285Y-98342980D02*
X107758285Y-97342980D01*
X107377333Y-97342980D01*
X107282095Y-97390600D01*
X107234476Y-97438219D01*
X107186857Y-97533457D01*
X107186857Y-97676314D01*
X107234476Y-97771552D01*
X107282095Y-97819171D01*
X107377333Y-97866790D01*
X107758285Y-97866790D01*
X106805904Y-97438219D02*
X106758285Y-97390600D01*
X106663047Y-97342980D01*
X106424952Y-97342980D01*
X106329714Y-97390600D01*
X106282095Y-97438219D01*
X106234476Y-97533457D01*
X106234476Y-97628695D01*
X106282095Y-97771552D01*
X106853523Y-98342980D01*
X106234476Y-98342980D01*
X105663047Y-97771552D02*
X105758285Y-97723933D01*
X105805904Y-97676314D01*
X105853523Y-97581076D01*
X105853523Y-97533457D01*
X105805904Y-97438219D01*
X105758285Y-97390600D01*
X105663047Y-97342980D01*
X105472571Y-97342980D01*
X105377333Y-97390600D01*
X105329714Y-97438219D01*
X105282095Y-97533457D01*
X105282095Y-97581076D01*
X105329714Y-97676314D01*
X105377333Y-97723933D01*
X105472571Y-97771552D01*
X105663047Y-97771552D01*
X105758285Y-97819171D01*
X105805904Y-97866790D01*
X105853523Y-97962028D01*
X105853523Y-98152504D01*
X105805904Y-98247742D01*
X105758285Y-98295361D01*
X105663047Y-98342980D01*
X105472571Y-98342980D01*
X105377333Y-98295361D01*
X105329714Y-98247742D01*
X105282095Y-98152504D01*
X105282095Y-97962028D01*
X105329714Y-97866790D01*
X105377333Y-97819171D01*
X105472571Y-97771552D01*
X52091980Y-95378142D02*
X51615790Y-95044809D01*
X52091980Y-94806714D02*
X51091980Y-94806714D01*
X51091980Y-95187666D01*
X51139600Y-95282904D01*
X51187219Y-95330523D01*
X51282457Y-95378142D01*
X51425314Y-95378142D01*
X51520552Y-95330523D01*
X51568171Y-95282904D01*
X51615790Y-95187666D01*
X51615790Y-94806714D01*
X51187219Y-95759095D02*
X51139600Y-95806714D01*
X51091980Y-95901952D01*
X51091980Y-96140047D01*
X51139600Y-96235285D01*
X51187219Y-96282904D01*
X51282457Y-96330523D01*
X51377695Y-96330523D01*
X51520552Y-96282904D01*
X52091980Y-95711476D01*
X52091980Y-96330523D01*
X51091980Y-97187666D02*
X51091980Y-96997190D01*
X51139600Y-96901952D01*
X51187219Y-96854333D01*
X51330076Y-96759095D01*
X51520552Y-96711476D01*
X51901504Y-96711476D01*
X51996742Y-96759095D01*
X52044361Y-96806714D01*
X52091980Y-96901952D01*
X52091980Y-97092428D01*
X52044361Y-97187666D01*
X51996742Y-97235285D01*
X51901504Y-97282904D01*
X51663409Y-97282904D01*
X51568171Y-97235285D01*
X51520552Y-97187666D01*
X51472933Y-97092428D01*
X51472933Y-96901952D01*
X51520552Y-96806714D01*
X51568171Y-96759095D01*
X51663409Y-96711476D01*
X61919380Y-85327142D02*
X61443190Y-84993809D01*
X61919380Y-84755714D02*
X60919380Y-84755714D01*
X60919380Y-85136666D01*
X60967000Y-85231904D01*
X61014619Y-85279523D01*
X61109857Y-85327142D01*
X61252714Y-85327142D01*
X61347952Y-85279523D01*
X61395571Y-85231904D01*
X61443190Y-85136666D01*
X61443190Y-84755714D01*
X61014619Y-85708095D02*
X60967000Y-85755714D01*
X60919380Y-85850952D01*
X60919380Y-86089047D01*
X60967000Y-86184285D01*
X61014619Y-86231904D01*
X61109857Y-86279523D01*
X61205095Y-86279523D01*
X61347952Y-86231904D01*
X61919380Y-85660476D01*
X61919380Y-86279523D01*
X60919380Y-87184285D02*
X60919380Y-86708095D01*
X61395571Y-86660476D01*
X61347952Y-86708095D01*
X61300333Y-86803333D01*
X61300333Y-87041428D01*
X61347952Y-87136666D01*
X61395571Y-87184285D01*
X61490809Y-87231904D01*
X61728904Y-87231904D01*
X61824142Y-87184285D01*
X61871761Y-87136666D01*
X61919380Y-87041428D01*
X61919380Y-86803333D01*
X61871761Y-86708095D01*
X61824142Y-86660476D01*
X38603180Y-88003142D02*
X38126990Y-87669809D01*
X38603180Y-87431714D02*
X37603180Y-87431714D01*
X37603180Y-87812666D01*
X37650800Y-87907904D01*
X37698419Y-87955523D01*
X37793657Y-88003142D01*
X37936514Y-88003142D01*
X38031752Y-87955523D01*
X38079371Y-87907904D01*
X38126990Y-87812666D01*
X38126990Y-87431714D01*
X38603180Y-88955523D02*
X38603180Y-88384095D01*
X38603180Y-88669809D02*
X37603180Y-88669809D01*
X37746038Y-88574571D01*
X37841276Y-88479333D01*
X37888895Y-88384095D01*
X37603180Y-89860285D02*
X37603180Y-89384095D01*
X38079371Y-89336476D01*
X38031752Y-89384095D01*
X37984133Y-89479333D01*
X37984133Y-89717428D01*
X38031752Y-89812666D01*
X38079371Y-89860285D01*
X38174609Y-89907904D01*
X38412704Y-89907904D01*
X38507942Y-89860285D01*
X38555561Y-89812666D01*
X38603180Y-89717428D01*
X38603180Y-89479333D01*
X38555561Y-89384095D01*
X38507942Y-89336476D01*
X37745780Y-110354342D02*
X37269590Y-110021009D01*
X37745780Y-109782914D02*
X36745780Y-109782914D01*
X36745780Y-110163866D01*
X36793400Y-110259104D01*
X36841019Y-110306723D01*
X36936257Y-110354342D01*
X37079114Y-110354342D01*
X37174352Y-110306723D01*
X37221971Y-110259104D01*
X37269590Y-110163866D01*
X37269590Y-109782914D01*
X37745780Y-111306723D02*
X37745780Y-110735295D01*
X37745780Y-111021009D02*
X36745780Y-111021009D01*
X36888638Y-110925771D01*
X36983876Y-110830533D01*
X37031495Y-110735295D01*
X36745780Y-111640057D02*
X36745780Y-112259104D01*
X37126733Y-111925771D01*
X37126733Y-112068628D01*
X37174352Y-112163866D01*
X37221971Y-112211485D01*
X37317209Y-112259104D01*
X37555304Y-112259104D01*
X37650542Y-112211485D01*
X37698161Y-112163866D01*
X37745780Y-112068628D01*
X37745780Y-111782914D01*
X37698161Y-111687676D01*
X37650542Y-111640057D01*
X54325780Y-109444342D02*
X53849590Y-109111009D01*
X54325780Y-108872914D02*
X53325780Y-108872914D01*
X53325780Y-109253866D01*
X53373400Y-109349104D01*
X53421019Y-109396723D01*
X53516257Y-109444342D01*
X53659114Y-109444342D01*
X53754352Y-109396723D01*
X53801971Y-109349104D01*
X53849590Y-109253866D01*
X53849590Y-108872914D01*
X54325780Y-110396723D02*
X54325780Y-109825295D01*
X54325780Y-110111009D02*
X53325780Y-110111009D01*
X53468638Y-110015771D01*
X53563876Y-109920533D01*
X53611495Y-109825295D01*
X53421019Y-110777676D02*
X53373400Y-110825295D01*
X53325780Y-110920533D01*
X53325780Y-111158628D01*
X53373400Y-111253866D01*
X53421019Y-111301485D01*
X53516257Y-111349104D01*
X53611495Y-111349104D01*
X53754352Y-111301485D01*
X54325780Y-110730057D01*
X54325780Y-111349104D01*
X106371380Y-124360533D02*
X105895190Y-124027200D01*
X106371380Y-123789104D02*
X105371380Y-123789104D01*
X105371380Y-124170057D01*
X105419000Y-124265295D01*
X105466619Y-124312914D01*
X105561857Y-124360533D01*
X105704714Y-124360533D01*
X105799952Y-124312914D01*
X105847571Y-124265295D01*
X105895190Y-124170057D01*
X105895190Y-123789104D01*
X105799952Y-124931961D02*
X105752333Y-124836723D01*
X105704714Y-124789104D01*
X105609476Y-124741485D01*
X105561857Y-124741485D01*
X105466619Y-124789104D01*
X105419000Y-124836723D01*
X105371380Y-124931961D01*
X105371380Y-125122438D01*
X105419000Y-125217676D01*
X105466619Y-125265295D01*
X105561857Y-125312914D01*
X105609476Y-125312914D01*
X105704714Y-125265295D01*
X105752333Y-125217676D01*
X105799952Y-125122438D01*
X105799952Y-124931961D01*
X105847571Y-124836723D01*
X105895190Y-124789104D01*
X105990428Y-124741485D01*
X106180904Y-124741485D01*
X106276142Y-124789104D01*
X106323761Y-124836723D01*
X106371380Y-124931961D01*
X106371380Y-125122438D01*
X106323761Y-125217676D01*
X106276142Y-125265295D01*
X106180904Y-125312914D01*
X105990428Y-125312914D01*
X105895190Y-125265295D01*
X105847571Y-125217676D01*
X105799952Y-125122438D01*
X110910666Y-124709180D02*
X111244000Y-124232990D01*
X111482095Y-124709180D02*
X111482095Y-123709180D01*
X111101142Y-123709180D01*
X111005904Y-123756800D01*
X110958285Y-123804419D01*
X110910666Y-123899657D01*
X110910666Y-124042514D01*
X110958285Y-124137752D01*
X111005904Y-124185371D01*
X111101142Y-124232990D01*
X111482095Y-124232990D01*
X110577333Y-123709180D02*
X109910666Y-123709180D01*
X110339238Y-124709180D01*
X102200066Y-113819580D02*
X102533400Y-113343390D01*
X102771495Y-113819580D02*
X102771495Y-112819580D01*
X102390542Y-112819580D01*
X102295304Y-112867200D01*
X102247685Y-112914819D01*
X102200066Y-113010057D01*
X102200066Y-113152914D01*
X102247685Y-113248152D01*
X102295304Y-113295771D01*
X102390542Y-113343390D01*
X102771495Y-113343390D01*
X101295304Y-112819580D02*
X101771495Y-112819580D01*
X101819114Y-113295771D01*
X101771495Y-113248152D01*
X101676257Y-113200533D01*
X101438161Y-113200533D01*
X101342923Y-113248152D01*
X101295304Y-113295771D01*
X101247685Y-113391009D01*
X101247685Y-113629104D01*
X101295304Y-113724342D01*
X101342923Y-113771961D01*
X101438161Y-113819580D01*
X101676257Y-113819580D01*
X101771495Y-113771961D01*
X101819114Y-113724342D01*
X80802666Y-110232180D02*
X81136000Y-109755990D01*
X81374095Y-110232180D02*
X81374095Y-109232180D01*
X80993142Y-109232180D01*
X80897904Y-109279800D01*
X80850285Y-109327419D01*
X80802666Y-109422657D01*
X80802666Y-109565514D01*
X80850285Y-109660752D01*
X80897904Y-109708371D01*
X80993142Y-109755990D01*
X81374095Y-109755990D01*
X79945523Y-109565514D02*
X79945523Y-110232180D01*
X80183619Y-109184561D02*
X80421714Y-109898847D01*
X79802666Y-109898847D01*
X68797466Y-119297980D02*
X69130800Y-118821790D01*
X69368895Y-119297980D02*
X69368895Y-118297980D01*
X68987942Y-118297980D01*
X68892704Y-118345600D01*
X68845085Y-118393219D01*
X68797466Y-118488457D01*
X68797466Y-118631314D01*
X68845085Y-118726552D01*
X68892704Y-118774171D01*
X68987942Y-118821790D01*
X69368895Y-118821790D01*
X68464133Y-118297980D02*
X67845085Y-118297980D01*
X68178419Y-118678933D01*
X68035561Y-118678933D01*
X67940323Y-118726552D01*
X67892704Y-118774171D01*
X67845085Y-118869409D01*
X67845085Y-119107504D01*
X67892704Y-119202742D01*
X67940323Y-119250361D01*
X68035561Y-119297980D01*
X68321276Y-119297980D01*
X68416514Y-119250361D01*
X68464133Y-119202742D01*
X82524866Y-124904780D02*
X83001057Y-124904780D01*
X83001057Y-123904780D01*
X82239152Y-124000019D02*
X82191533Y-123952400D01*
X82096295Y-123904780D01*
X81858200Y-123904780D01*
X81762961Y-123952400D01*
X81715342Y-124000019D01*
X81667723Y-124095257D01*
X81667723Y-124190495D01*
X81715342Y-124333352D01*
X82286771Y-124904780D01*
X81667723Y-124904780D01*
X106713257Y-83694542D02*
X106760876Y-83742161D01*
X106903733Y-83789780D01*
X106998971Y-83789780D01*
X107141828Y-83742161D01*
X107237066Y-83646923D01*
X107284685Y-83551685D01*
X107332304Y-83361209D01*
X107332304Y-83218352D01*
X107284685Y-83027876D01*
X107237066Y-82932638D01*
X107141828Y-82837400D01*
X106998971Y-82789780D01*
X106903733Y-82789780D01*
X106760876Y-82837400D01*
X106713257Y-82885019D01*
X105808495Y-82789780D02*
X106284685Y-82789780D01*
X106332304Y-83265971D01*
X106284685Y-83218352D01*
X106189447Y-83170733D01*
X105951352Y-83170733D01*
X105856114Y-83218352D01*
X105808495Y-83265971D01*
X105760876Y-83361209D01*
X105760876Y-83599304D01*
X105808495Y-83694542D01*
X105856114Y-83742161D01*
X105951352Y-83789780D01*
X106189447Y-83789780D01*
X106284685Y-83742161D01*
X106332304Y-83694542D01*
X105379923Y-82885019D02*
X105332304Y-82837400D01*
X105237066Y-82789780D01*
X104998971Y-82789780D01*
X104903733Y-82837400D01*
X104856114Y-82885019D01*
X104808495Y-82980257D01*
X104808495Y-83075495D01*
X104856114Y-83218352D01*
X105427542Y-83789780D01*
X104808495Y-83789780D01*
X57733057Y-97917542D02*
X57780676Y-97965161D01*
X57923533Y-98012780D01*
X58018771Y-98012780D01*
X58161628Y-97965161D01*
X58256866Y-97869923D01*
X58304485Y-97774685D01*
X58352104Y-97584209D01*
X58352104Y-97441352D01*
X58304485Y-97250876D01*
X58256866Y-97155638D01*
X58161628Y-97060400D01*
X58018771Y-97012780D01*
X57923533Y-97012780D01*
X57780676Y-97060400D01*
X57733057Y-97108019D01*
X56875914Y-97346114D02*
X56875914Y-98012780D01*
X57114009Y-96965161D02*
X57352104Y-97679447D01*
X56733057Y-97679447D01*
X55875914Y-97012780D02*
X56352104Y-97012780D01*
X56399723Y-97488971D01*
X56352104Y-97441352D01*
X56256866Y-97393733D01*
X56018771Y-97393733D01*
X55923533Y-97441352D01*
X55875914Y-97488971D01*
X55828295Y-97584209D01*
X55828295Y-97822304D01*
X55875914Y-97917542D01*
X55923533Y-97965161D01*
X56018771Y-98012780D01*
X56256866Y-98012780D01*
X56352104Y-97965161D01*
X56399723Y-97917542D01*
X49334657Y-103531942D02*
X49382276Y-103579561D01*
X49525133Y-103627180D01*
X49620371Y-103627180D01*
X49763228Y-103579561D01*
X49858466Y-103484323D01*
X49906085Y-103389085D01*
X49953704Y-103198609D01*
X49953704Y-103055752D01*
X49906085Y-102865276D01*
X49858466Y-102770038D01*
X49763228Y-102674800D01*
X49620371Y-102627180D01*
X49525133Y-102627180D01*
X49382276Y-102674800D01*
X49334657Y-102722419D01*
X49001323Y-102627180D02*
X48382276Y-102627180D01*
X48715609Y-103008133D01*
X48572752Y-103008133D01*
X48477514Y-103055752D01*
X48429895Y-103103371D01*
X48382276Y-103198609D01*
X48382276Y-103436704D01*
X48429895Y-103531942D01*
X48477514Y-103579561D01*
X48572752Y-103627180D01*
X48858466Y-103627180D01*
X48953704Y-103579561D01*
X49001323Y-103531942D01*
X47525133Y-102627180D02*
X47715609Y-102627180D01*
X47810847Y-102674800D01*
X47858466Y-102722419D01*
X47953704Y-102865276D01*
X48001323Y-103055752D01*
X48001323Y-103436704D01*
X47953704Y-103531942D01*
X47906085Y-103579561D01*
X47810847Y-103627180D01*
X47620371Y-103627180D01*
X47525133Y-103579561D01*
X47477514Y-103531942D01*
X47429895Y-103436704D01*
X47429895Y-103198609D01*
X47477514Y-103103371D01*
X47525133Y-103055752D01*
X47620371Y-103008133D01*
X47810847Y-103008133D01*
X47906085Y-103055752D01*
X47953704Y-103103371D01*
X48001323Y-103198609D01*
X106176257Y-121524342D02*
X106223876Y-121571961D01*
X106366733Y-121619580D01*
X106461971Y-121619580D01*
X106604828Y-121571961D01*
X106700066Y-121476723D01*
X106747685Y-121381485D01*
X106795304Y-121191009D01*
X106795304Y-121048152D01*
X106747685Y-120857676D01*
X106700066Y-120762438D01*
X106604828Y-120667200D01*
X106461971Y-120619580D01*
X106366733Y-120619580D01*
X106223876Y-120667200D01*
X106176257Y-120714819D01*
X105842923Y-120619580D02*
X105223876Y-120619580D01*
X105557209Y-121000533D01*
X105414352Y-121000533D01*
X105319114Y-121048152D01*
X105271495Y-121095771D01*
X105223876Y-121191009D01*
X105223876Y-121429104D01*
X105271495Y-121524342D01*
X105319114Y-121571961D01*
X105414352Y-121619580D01*
X105700066Y-121619580D01*
X105795304Y-121571961D01*
X105842923Y-121524342D01*
X104366733Y-120952914D02*
X104366733Y-121619580D01*
X104604828Y-120571961D02*
X104842923Y-121286247D01*
X104223876Y-121286247D01*
X105748057Y-116562142D02*
X105795676Y-116609761D01*
X105938533Y-116657380D01*
X106033771Y-116657380D01*
X106176628Y-116609761D01*
X106271866Y-116514523D01*
X106319485Y-116419285D01*
X106367104Y-116228809D01*
X106367104Y-116085952D01*
X106319485Y-115895476D01*
X106271866Y-115800238D01*
X106176628Y-115705000D01*
X106033771Y-115657380D01*
X105938533Y-115657380D01*
X105795676Y-115705000D01*
X105748057Y-115752619D01*
X105414723Y-115657380D02*
X104795676Y-115657380D01*
X105129009Y-116038333D01*
X104986152Y-116038333D01*
X104890914Y-116085952D01*
X104843295Y-116133571D01*
X104795676Y-116228809D01*
X104795676Y-116466904D01*
X104843295Y-116562142D01*
X104890914Y-116609761D01*
X104986152Y-116657380D01*
X105271866Y-116657380D01*
X105367104Y-116609761D01*
X105414723Y-116562142D01*
X104462342Y-115657380D02*
X103843295Y-115657380D01*
X104176628Y-116038333D01*
X104033771Y-116038333D01*
X103938533Y-116085952D01*
X103890914Y-116133571D01*
X103843295Y-116228809D01*
X103843295Y-116466904D01*
X103890914Y-116562142D01*
X103938533Y-116609761D01*
X104033771Y-116657380D01*
X104319485Y-116657380D01*
X104414723Y-116609761D01*
X104462342Y-116562142D01*
X105928257Y-130633742D02*
X105975876Y-130681361D01*
X106118733Y-130728980D01*
X106213971Y-130728980D01*
X106356828Y-130681361D01*
X106452066Y-130586123D01*
X106499685Y-130490885D01*
X106547304Y-130300409D01*
X106547304Y-130157552D01*
X106499685Y-129967076D01*
X106452066Y-129871838D01*
X106356828Y-129776600D01*
X106213971Y-129728980D01*
X106118733Y-129728980D01*
X105975876Y-129776600D01*
X105928257Y-129824219D01*
X105547304Y-129824219D02*
X105499685Y-129776600D01*
X105404447Y-129728980D01*
X105166352Y-129728980D01*
X105071114Y-129776600D01*
X105023495Y-129824219D01*
X104975876Y-129919457D01*
X104975876Y-130014695D01*
X105023495Y-130157552D01*
X105594923Y-130728980D01*
X104975876Y-130728980D01*
X104594923Y-129824219D02*
X104547304Y-129776600D01*
X104452066Y-129728980D01*
X104213971Y-129728980D01*
X104118733Y-129776600D01*
X104071114Y-129824219D01*
X104023495Y-129919457D01*
X104023495Y-130014695D01*
X104071114Y-130157552D01*
X104642542Y-130728980D01*
X104023495Y-130728980D01*
X89009457Y-119635542D02*
X89057076Y-119683161D01*
X89199933Y-119730780D01*
X89295171Y-119730780D01*
X89438028Y-119683161D01*
X89533266Y-119587923D01*
X89580885Y-119492685D01*
X89628504Y-119302209D01*
X89628504Y-119159352D01*
X89580885Y-118968876D01*
X89533266Y-118873638D01*
X89438028Y-118778400D01*
X89295171Y-118730780D01*
X89199933Y-118730780D01*
X89057076Y-118778400D01*
X89009457Y-118826019D01*
X88628504Y-118826019D02*
X88580885Y-118778400D01*
X88485647Y-118730780D01*
X88247552Y-118730780D01*
X88152314Y-118778400D01*
X88104695Y-118826019D01*
X88057076Y-118921257D01*
X88057076Y-119016495D01*
X88104695Y-119159352D01*
X88676123Y-119730780D01*
X88057076Y-119730780D01*
X87104695Y-119730780D02*
X87676123Y-119730780D01*
X87390409Y-119730780D02*
X87390409Y-118730780D01*
X87485647Y-118873638D01*
X87580885Y-118968876D01*
X87676123Y-119016495D01*
X96663857Y-117602542D02*
X96711476Y-117650161D01*
X96854333Y-117697780D01*
X96949571Y-117697780D01*
X97092428Y-117650161D01*
X97187666Y-117554923D01*
X97235285Y-117459685D01*
X97282904Y-117269209D01*
X97282904Y-117126352D01*
X97235285Y-116935876D01*
X97187666Y-116840638D01*
X97092428Y-116745400D01*
X96949571Y-116697780D01*
X96854333Y-116697780D01*
X96711476Y-116745400D01*
X96663857Y-116793019D01*
X95711476Y-117697780D02*
X96282904Y-117697780D01*
X95997190Y-117697780D02*
X95997190Y-116697780D01*
X96092428Y-116840638D01*
X96187666Y-116935876D01*
X96282904Y-116983495D01*
X95140047Y-117126352D02*
X95235285Y-117078733D01*
X95282904Y-117031114D01*
X95330523Y-116935876D01*
X95330523Y-116888257D01*
X95282904Y-116793019D01*
X95235285Y-116745400D01*
X95140047Y-116697780D01*
X94949571Y-116697780D01*
X94854333Y-116745400D01*
X94806714Y-116793019D01*
X94759095Y-116888257D01*
X94759095Y-116935876D01*
X94806714Y-117031114D01*
X94854333Y-117078733D01*
X94949571Y-117126352D01*
X95140047Y-117126352D01*
X95235285Y-117173971D01*
X95282904Y-117221590D01*
X95330523Y-117316828D01*
X95330523Y-117507304D01*
X95282904Y-117602542D01*
X95235285Y-117650161D01*
X95140047Y-117697780D01*
X94949571Y-117697780D01*
X94854333Y-117650161D01*
X94806714Y-117602542D01*
X94759095Y-117507304D01*
X94759095Y-117316828D01*
X94806714Y-117221590D01*
X94854333Y-117173971D01*
X94949571Y-117126352D01*
X57745926Y-103692962D02*
X57793545Y-103740581D01*
X57936402Y-103788200D01*
X58031640Y-103788200D01*
X58174498Y-103740581D01*
X58269736Y-103645343D01*
X58317355Y-103550105D01*
X58364974Y-103359629D01*
X58364974Y-103216772D01*
X58317355Y-103026296D01*
X58269736Y-102931058D01*
X58174498Y-102835820D01*
X58031640Y-102788200D01*
X57936402Y-102788200D01*
X57793545Y-102835820D01*
X57745926Y-102883439D01*
X57412593Y-102788200D02*
X56745926Y-102788200D01*
X57174498Y-103788200D01*
X57899486Y-108557062D02*
X57947105Y-108604681D01*
X58089962Y-108652300D01*
X58185200Y-108652300D01*
X58328058Y-108604681D01*
X58423296Y-108509443D01*
X58470915Y-108414205D01*
X58518534Y-108223729D01*
X58518534Y-108080872D01*
X58470915Y-107890396D01*
X58423296Y-107795158D01*
X58328058Y-107699920D01*
X58185200Y-107652300D01*
X58089962Y-107652300D01*
X57947105Y-107699920D01*
X57899486Y-107747539D01*
X56994724Y-107652300D02*
X57470915Y-107652300D01*
X57518534Y-108128491D01*
X57470915Y-108080872D01*
X57375677Y-108033253D01*
X57137581Y-108033253D01*
X57042343Y-108080872D01*
X56994724Y-108128491D01*
X56947105Y-108223729D01*
X56947105Y-108461824D01*
X56994724Y-108557062D01*
X57042343Y-108604681D01*
X57137581Y-108652300D01*
X57375677Y-108652300D01*
X57470915Y-108604681D01*
X57518534Y-108557062D01*
X61060542Y-96500533D02*
X61108161Y-96452914D01*
X61155780Y-96310057D01*
X61155780Y-96214819D01*
X61108161Y-96071961D01*
X61012923Y-95976723D01*
X60917685Y-95929104D01*
X60727209Y-95881485D01*
X60584352Y-95881485D01*
X60393876Y-95929104D01*
X60298638Y-95976723D01*
X60203400Y-96071961D01*
X60155780Y-96214819D01*
X60155780Y-96310057D01*
X60203400Y-96452914D01*
X60251019Y-96500533D01*
X60155780Y-96833866D02*
X60155780Y-97452914D01*
X60536733Y-97119580D01*
X60536733Y-97262438D01*
X60584352Y-97357676D01*
X60631971Y-97405295D01*
X60727209Y-97452914D01*
X60965304Y-97452914D01*
X61060542Y-97405295D01*
X61108161Y-97357676D01*
X61155780Y-97262438D01*
X61155780Y-96976723D01*
X61108161Y-96881485D01*
X61060542Y-96833866D01*
M02*
