G04 #@! TF.GenerationSoftware,KiCad,Pcbnew,(6.0.0-rc1-dev-1561-g9cac0a38c)*
G04 #@! TF.CreationDate,2019-06-17T18:23:23+02:00
G04 #@! TF.ProjectId,canbox,63616e62-6f78-42e6-9b69-6361645f7063,rev?*
G04 #@! TF.SameCoordinates,Original*
G04 #@! TF.FileFunction,Legend,Top*
G04 #@! TF.FilePolarity,Positive*
%FSLAX46Y46*%
G04 Gerber Fmt 4.6, Leading zero omitted, Abs format (unit mm)*
G04 Created by KiCad (PCBNEW (6.0.0-rc1-dev-1561-g9cac0a38c)) date Mon 17 Jun 2019 06:23:23 PM CEST*
%MOMM*%
%LPD*%
G04 APERTURE LIST*
%ADD10C,0.120000*%
%ADD11C,0.150000*%
G04 APERTURE END LIST*
D10*
X57053400Y-114667200D02*
X59853400Y-114667200D01*
X59853400Y-114667200D02*
X59853400Y-116667200D01*
X59853400Y-116667200D02*
X57053400Y-116667200D01*
X57053400Y-116667200D02*
X57053400Y-114667200D01*
X53673400Y-114777200D02*
X56473400Y-114777200D01*
X56473400Y-114777200D02*
X56473400Y-116777200D01*
X56473400Y-116777200D02*
X53673400Y-116777200D01*
X53673400Y-116777200D02*
X53673400Y-114777200D01*
X53338800Y-90618800D02*
X53338800Y-83368800D01*
X46838800Y-83368800D02*
X46838800Y-90618800D01*
X49731452Y-116561800D02*
X49208948Y-116561800D01*
X49731452Y-117981800D02*
X49208948Y-117981800D01*
D11*
X89633400Y-127267200D02*
X89633400Y-128467200D01*
X98433400Y-127917200D02*
X97783400Y-127917200D01*
X98433400Y-127267200D02*
X98433400Y-127917200D01*
X98433400Y-119117200D02*
X97783400Y-119117200D01*
X98433400Y-119767200D02*
X98433400Y-119117200D01*
X89633400Y-119117200D02*
X90283400Y-119117200D01*
X89633400Y-119767200D02*
X89633400Y-119117200D01*
D10*
X57351452Y-121133800D02*
X56828948Y-121133800D01*
X57351452Y-122553800D02*
X56828948Y-122553800D01*
X61114148Y-122553800D02*
X61636652Y-122553800D01*
X61114148Y-121133800D02*
X61636652Y-121133800D01*
D11*
X67519000Y-95136000D02*
X65994000Y-95136000D01*
X81769000Y-94486000D02*
X81009000Y-94486000D01*
X81769000Y-108736000D02*
X81009000Y-108736000D01*
X67519000Y-108736000D02*
X68279000Y-108736000D01*
X67519000Y-94486000D02*
X68279000Y-94486000D01*
X67519000Y-108736000D02*
X67519000Y-107976000D01*
X81769000Y-108736000D02*
X81769000Y-107976000D01*
X81769000Y-94486000D02*
X81769000Y-95246000D01*
X67519000Y-94486000D02*
X67519000Y-95136000D01*
D10*
X52496800Y-98957200D02*
X44096800Y-98957200D01*
X52496800Y-92457200D02*
X44096800Y-92457200D01*
X52496800Y-92457200D02*
X52496800Y-98957200D01*
X53054000Y-119952800D02*
X48669000Y-119952800D01*
X53054000Y-122972800D02*
X53054000Y-119952800D01*
X48669000Y-122972800D02*
X53054000Y-122972800D01*
X90542600Y-117576000D02*
X108042600Y-117576000D01*
X90542600Y-82576000D02*
X90542600Y-117576000D01*
X108042600Y-82576000D02*
X90542600Y-82576000D01*
X108042600Y-117576000D02*
X108042600Y-82576000D01*
X79915652Y-87961400D02*
X79393148Y-87961400D01*
X79915652Y-89381400D02*
X79393148Y-89381400D01*
X47327725Y-121310000D02*
X47760738Y-121060000D01*
X47760738Y-121560000D02*
X47327725Y-121310000D01*
X47760738Y-121060000D02*
X47760738Y-121560000D01*
X46866400Y-131255000D02*
X32326400Y-131255000D01*
X46866400Y-100285000D02*
X46866400Y-131255000D01*
X32326400Y-100285000D02*
X46866400Y-100285000D01*
X52296852Y-99454900D02*
X51774348Y-99454900D01*
X52296852Y-100874900D02*
X51774348Y-100874900D01*
X69783000Y-119269200D02*
X69783000Y-120599200D01*
X68453000Y-119269200D02*
X69783000Y-119269200D01*
X67183000Y-119269200D02*
X67183000Y-121929200D01*
X67183000Y-121929200D02*
X64583000Y-121929200D01*
X67183000Y-119269200D02*
X64583000Y-119269200D01*
X64583000Y-119269200D02*
X64583000Y-121929200D01*
X61440852Y-90679200D02*
X60918348Y-90679200D01*
X61440852Y-92099200D02*
X60918348Y-92099200D01*
X87058400Y-121757200D02*
G75*
G03X82008400Y-121757200I-2525000J0D01*
G01*
X87058400Y-128157200D02*
G75*
G02X82008400Y-128157200I-2525000J0D01*
G01*
X87058400Y-128157200D02*
X87058400Y-121757200D01*
X82008400Y-128157200D02*
X82008400Y-121757200D01*
X85804937Y-113558617D02*
G75*
G02X85804656Y-111658400I732863J950217D01*
G01*
X87270663Y-113558617D02*
G75*
G03X87270944Y-111658400I-732863J950217D01*
G01*
X58231800Y-110585180D02*
G75*
G03X63281800Y-110585180I2525000J0D01*
G01*
X58231800Y-104185180D02*
G75*
G02X63281800Y-104185180I2525000J0D01*
G01*
X58231800Y-104185180D02*
X58231800Y-110585180D01*
X63281800Y-104185180D02*
X63281800Y-110585180D01*
X89290200Y-83937800D02*
X89290200Y-85267800D01*
X87960200Y-83937800D02*
X89290200Y-83937800D01*
X86690200Y-83937800D02*
X86690200Y-86597800D01*
X86690200Y-86597800D02*
X68850200Y-86597800D01*
X86690200Y-83937800D02*
X68850200Y-83937800D01*
X68850200Y-83937800D02*
X68850200Y-86597800D01*
D11*
X52817000Y-108364200D02*
X52817000Y-106964200D01*
X47717000Y-108364200D02*
X47717000Y-112514200D01*
X52867000Y-108364200D02*
X52867000Y-112514200D01*
X47717000Y-108364200D02*
X47862000Y-108364200D01*
X47717000Y-112514200D02*
X47862000Y-112514200D01*
X52867000Y-112514200D02*
X52722000Y-112514200D01*
X52867000Y-108364200D02*
X52817000Y-108364200D01*
D10*
X87083400Y-91950000D02*
X87083400Y-90050000D01*
X88983400Y-91950000D02*
X87083400Y-91950000D01*
X88983400Y-90050000D02*
X88983400Y-91950000D01*
X87083400Y-90050000D02*
X88983400Y-90050000D01*
X62083400Y-100967200D02*
X62083400Y-99067200D01*
X63983400Y-100967200D02*
X62083400Y-100967200D01*
X63983400Y-99067200D02*
X63983400Y-100967200D01*
X62083400Y-99067200D02*
X63983400Y-99067200D01*
X54805948Y-108863200D02*
X55328452Y-108863200D01*
X54805948Y-107443200D02*
X55328452Y-107443200D01*
X54752148Y-114037200D02*
X55274652Y-114037200D01*
X54752148Y-112617200D02*
X55274652Y-112617200D01*
X108256000Y-120024148D02*
X108256000Y-120546652D01*
X109676000Y-120024148D02*
X109676000Y-120546652D01*
X62282000Y-88054548D02*
X62282000Y-88577052D01*
X63702000Y-88054548D02*
X63702000Y-88577052D01*
X75200252Y-88596400D02*
X74677748Y-88596400D01*
X75200252Y-90016400D02*
X74677748Y-90016400D01*
X102318667Y-118438200D02*
X101976133Y-118438200D01*
X102318667Y-119458200D02*
X101976133Y-119458200D01*
X76234600Y-119243800D02*
X76234600Y-120573800D01*
X74904600Y-119243800D02*
X76234600Y-119243800D01*
X73634600Y-119243800D02*
X73634600Y-121903800D01*
X73634600Y-121903800D02*
X71034600Y-121903800D01*
X73634600Y-119243800D02*
X71034600Y-119243800D01*
X71034600Y-119243800D02*
X71034600Y-121903800D01*
X39270000Y-87230000D02*
X38000000Y-87230000D01*
X40820000Y-93580000D02*
X36730000Y-93580000D01*
X40820000Y-93580000D02*
X40820000Y-91040000D01*
X40820000Y-83420000D02*
X36730000Y-83420000D01*
X40820000Y-85960000D02*
X40820000Y-83420000D01*
X110047600Y-92189800D02*
X110047600Y-92345800D01*
X110047600Y-89873800D02*
X110047600Y-90029800D01*
X112648730Y-92189637D02*
G75*
G02X110566639Y-92189800I-1041130J1079837D01*
G01*
X112648730Y-90029963D02*
G75*
G03X110566639Y-90029800I-1041130J-1079837D01*
G01*
X113279935Y-92188408D02*
G75*
G02X110047600Y-92345316I-1672335J1078608D01*
G01*
X113279935Y-90031192D02*
G75*
G03X110047600Y-89874284I-1672335J-1078608D01*
G01*
X110093800Y-96945900D02*
X110093800Y-97101900D01*
X110093800Y-94629900D02*
X110093800Y-94785900D01*
X112694930Y-96945737D02*
G75*
G02X110612839Y-96945900I-1041130J1079837D01*
G01*
X112694930Y-94786063D02*
G75*
G03X110612839Y-94785900I-1041130J-1079837D01*
G01*
X113326135Y-96944508D02*
G75*
G02X110093800Y-97101416I-1672335J1078608D01*
G01*
X113326135Y-94787292D02*
G75*
G03X110093800Y-94630384I-1672335J-1078608D01*
G01*
X110093800Y-101981500D02*
X110093800Y-102137500D01*
X110093800Y-99665500D02*
X110093800Y-99821500D01*
X112694930Y-101981337D02*
G75*
G02X110612839Y-101981500I-1041130J1079837D01*
G01*
X112694930Y-99821663D02*
G75*
G03X110612839Y-99821500I-1041130J-1079837D01*
G01*
X113326135Y-101980108D02*
G75*
G02X110093800Y-102137016I-1672335J1078608D01*
G01*
X113326135Y-99822892D02*
G75*
G03X110093800Y-99665984I-1672335J-1078608D01*
G01*
X110093800Y-106945900D02*
X110093800Y-107101900D01*
X110093800Y-104629900D02*
X110093800Y-104785900D01*
X112694930Y-106945737D02*
G75*
G02X110612839Y-106945900I-1041130J1079837D01*
G01*
X112694930Y-104786063D02*
G75*
G03X110612839Y-104785900I-1041130J-1079837D01*
G01*
X113326135Y-106944508D02*
G75*
G02X110093800Y-107101416I-1672335J1078608D01*
G01*
X113326135Y-104787292D02*
G75*
G03X110093800Y-104630384I-1672335J-1078608D01*
G01*
X54086900Y-96236600D02*
X56326900Y-96236600D01*
X54086900Y-95996600D02*
X56326900Y-95996600D01*
X54086900Y-96116600D02*
X56326900Y-96116600D01*
X55206900Y-91946600D02*
X55206900Y-92596600D01*
X55206900Y-97486600D02*
X55206900Y-96836600D01*
X54086900Y-92596600D02*
X54086900Y-96836600D01*
X56326900Y-92596600D02*
X54086900Y-92596600D01*
X56326900Y-96836600D02*
X56326900Y-92596600D01*
X54086900Y-96836600D02*
X56326900Y-96836600D01*
X68293348Y-90219600D02*
X68815852Y-90219600D01*
X68293348Y-88799600D02*
X68815852Y-88799600D01*
X66344652Y-90932200D02*
X65822148Y-90932200D01*
X66344652Y-92352200D02*
X65822148Y-92352200D01*
X64245748Y-84911000D02*
X64768252Y-84911000D01*
X64245748Y-83491000D02*
X64768252Y-83491000D01*
X58368000Y-89584052D02*
X58368000Y-89061548D01*
X56948000Y-89584052D02*
X56948000Y-89061548D01*
X55000148Y-111250800D02*
X55522652Y-111250800D01*
X55000148Y-109830800D02*
X55522652Y-109830800D01*
X56922600Y-93143548D02*
X56922600Y-93666052D01*
X58342600Y-93143548D02*
X58342600Y-93666052D01*
X111682052Y-123089600D02*
X111159548Y-123089600D01*
X111682052Y-124509600D02*
X111159548Y-124509600D01*
X79769652Y-122807200D02*
X79247148Y-122807200D01*
X79769652Y-124227200D02*
X79247148Y-124227200D01*
X79819652Y-125807200D02*
X79297148Y-125807200D01*
X79819652Y-127227200D02*
X79297148Y-127227200D01*
X103747148Y-121727200D02*
X104269652Y-121727200D01*
X103747148Y-120307200D02*
X104269652Y-120307200D01*
X79769652Y-128307200D02*
X79247148Y-128307200D01*
X79769652Y-129727200D02*
X79247148Y-129727200D01*
X101675000Y-123264452D02*
X101675000Y-122741948D01*
X100255000Y-123264452D02*
X100255000Y-122741948D01*
X79769652Y-120807200D02*
X79247148Y-120807200D01*
X79769652Y-122227200D02*
X79247148Y-122227200D01*
X96747148Y-131227200D02*
X97269652Y-131227200D01*
X96747148Y-129807200D02*
X97269652Y-129807200D01*
X102704532Y-129289740D02*
X102182028Y-129289740D01*
X102704532Y-130709740D02*
X102182028Y-130709740D01*
X79819652Y-118807200D02*
X79297148Y-118807200D01*
X79819652Y-120227200D02*
X79297148Y-120227200D01*
X89769652Y-129807200D02*
X89247148Y-129807200D01*
X89769652Y-131227200D02*
X89247148Y-131227200D01*
X62104200Y-95776148D02*
X62104200Y-96298652D01*
X63524200Y-95776148D02*
X63524200Y-96298652D01*
X86889848Y-110336400D02*
X87412352Y-110336400D01*
X86889848Y-108916400D02*
X87412352Y-108916400D01*
X87093048Y-116165700D02*
X87615552Y-116165700D01*
X87093048Y-114745700D02*
X87615552Y-114745700D01*
X50183148Y-106297800D02*
X50705652Y-106297800D01*
X50183148Y-104877800D02*
X50705652Y-104877800D01*
X86543400Y-93578452D02*
X86543400Y-93055948D01*
X85123400Y-93578452D02*
X85123400Y-93055948D01*
X79899252Y-90069600D02*
X79376748Y-90069600D01*
X79899252Y-91489600D02*
X79376748Y-91489600D01*
X81839592Y-112698460D02*
X81317088Y-112698460D01*
X81839592Y-114118460D02*
X81317088Y-114118460D01*
X72235852Y-111405600D02*
X71713348Y-111405600D01*
X72235852Y-112825600D02*
X71713348Y-112825600D01*
X64273400Y-112305948D02*
X64273400Y-112828452D01*
X65693400Y-112305948D02*
X65693400Y-112828452D01*
X85573800Y-106113948D02*
X85573800Y-106636452D01*
X86993800Y-106113948D02*
X86993800Y-106636452D01*
X72228452Y-113437600D02*
X71705948Y-113437600D01*
X72228452Y-114857600D02*
X71705948Y-114857600D01*
D11*
X57620066Y-117419580D02*
X57620066Y-118133866D01*
X57572447Y-118276723D01*
X57477209Y-118371961D01*
X57334352Y-118419580D01*
X57239114Y-118419580D01*
X58096257Y-118419580D02*
X58096257Y-117419580D01*
X58477209Y-117419580D01*
X58572447Y-117467200D01*
X58620066Y-117514819D01*
X58667685Y-117610057D01*
X58667685Y-117752914D01*
X58620066Y-117848152D01*
X58572447Y-117895771D01*
X58477209Y-117943390D01*
X58096257Y-117943390D01*
X59524828Y-117752914D02*
X59524828Y-118419580D01*
X59286733Y-117371961D02*
X59048638Y-118086247D01*
X59667685Y-118086247D01*
X54120066Y-117569580D02*
X54120066Y-118283866D01*
X54072447Y-118426723D01*
X53977209Y-118521961D01*
X53834352Y-118569580D01*
X53739114Y-118569580D01*
X54596257Y-118569580D02*
X54596257Y-117569580D01*
X54977209Y-117569580D01*
X55072447Y-117617200D01*
X55120066Y-117664819D01*
X55167685Y-117760057D01*
X55167685Y-117902914D01*
X55120066Y-117998152D01*
X55072447Y-118045771D01*
X54977209Y-118093390D01*
X54596257Y-118093390D01*
X55501019Y-117569580D02*
X56120066Y-117569580D01*
X55786733Y-117950533D01*
X55929590Y-117950533D01*
X56024828Y-117998152D01*
X56072447Y-118045771D01*
X56120066Y-118141009D01*
X56120066Y-118379104D01*
X56072447Y-118474342D01*
X56024828Y-118521961D01*
X55929590Y-118569580D01*
X55643876Y-118569580D01*
X55548638Y-118521961D01*
X55501019Y-118474342D01*
X49922133Y-87446180D02*
X49445942Y-87446180D01*
X49445942Y-86446180D01*
X50398323Y-86874752D02*
X50303085Y-86827133D01*
X50255466Y-86779514D01*
X50207847Y-86684276D01*
X50207847Y-86636657D01*
X50255466Y-86541419D01*
X50303085Y-86493800D01*
X50398323Y-86446180D01*
X50588800Y-86446180D01*
X50684038Y-86493800D01*
X50731657Y-86541419D01*
X50779276Y-86636657D01*
X50779276Y-86684276D01*
X50731657Y-86779514D01*
X50684038Y-86827133D01*
X50588800Y-86874752D01*
X50398323Y-86874752D01*
X50303085Y-86922371D01*
X50255466Y-86969990D01*
X50207847Y-87065228D01*
X50207847Y-87255704D01*
X50255466Y-87350942D01*
X50303085Y-87398561D01*
X50398323Y-87446180D01*
X50588800Y-87446180D01*
X50684038Y-87398561D01*
X50731657Y-87350942D01*
X50779276Y-87255704D01*
X50779276Y-87065228D01*
X50731657Y-86969990D01*
X50684038Y-86922371D01*
X50588800Y-86874752D01*
X48827342Y-119374180D02*
X48494009Y-118897990D01*
X48255914Y-119374180D02*
X48255914Y-118374180D01*
X48636866Y-118374180D01*
X48732104Y-118421800D01*
X48779723Y-118469419D01*
X48827342Y-118564657D01*
X48827342Y-118707514D01*
X48779723Y-118802752D01*
X48732104Y-118850371D01*
X48636866Y-118897990D01*
X48255914Y-118897990D01*
X49779723Y-119374180D02*
X49208295Y-119374180D01*
X49494009Y-119374180D02*
X49494009Y-118374180D01*
X49398771Y-118517038D01*
X49303533Y-118612276D01*
X49208295Y-118659895D01*
X50732104Y-119374180D02*
X50160676Y-119374180D01*
X50446390Y-119374180D02*
X50446390Y-118374180D01*
X50351152Y-118517038D01*
X50255914Y-118612276D01*
X50160676Y-118659895D01*
X87706295Y-127773180D02*
X87706295Y-128582704D01*
X87753914Y-128677942D01*
X87801533Y-128725561D01*
X87896771Y-128773180D01*
X88087247Y-128773180D01*
X88182485Y-128725561D01*
X88230104Y-128677942D01*
X88277723Y-128582704D01*
X88277723Y-127773180D01*
X88658676Y-127773180D02*
X89277723Y-127773180D01*
X88944390Y-128154133D01*
X89087247Y-128154133D01*
X89182485Y-128201752D01*
X89230104Y-128249371D01*
X89277723Y-128344609D01*
X89277723Y-128582704D01*
X89230104Y-128677942D01*
X89182485Y-128725561D01*
X89087247Y-128773180D01*
X88801533Y-128773180D01*
X88706295Y-128725561D01*
X88658676Y-128677942D01*
X56923533Y-123946180D02*
X56590200Y-123469990D01*
X56352104Y-123946180D02*
X56352104Y-122946180D01*
X56733057Y-122946180D01*
X56828295Y-122993800D01*
X56875914Y-123041419D01*
X56923533Y-123136657D01*
X56923533Y-123279514D01*
X56875914Y-123374752D01*
X56828295Y-123422371D01*
X56733057Y-123469990D01*
X56352104Y-123469990D01*
X57399723Y-123946180D02*
X57590200Y-123946180D01*
X57685438Y-123898561D01*
X57733057Y-123850942D01*
X57828295Y-123708085D01*
X57875914Y-123517609D01*
X57875914Y-123136657D01*
X57828295Y-123041419D01*
X57780676Y-122993800D01*
X57685438Y-122946180D01*
X57494961Y-122946180D01*
X57399723Y-122993800D01*
X57352104Y-123041419D01*
X57304485Y-123136657D01*
X57304485Y-123374752D01*
X57352104Y-123469990D01*
X57399723Y-123517609D01*
X57494961Y-123565228D01*
X57685438Y-123565228D01*
X57780676Y-123517609D01*
X57828295Y-123469990D01*
X57875914Y-123374752D01*
X60732542Y-120550942D02*
X60684923Y-120598561D01*
X60542066Y-120646180D01*
X60446828Y-120646180D01*
X60303971Y-120598561D01*
X60208733Y-120503323D01*
X60161114Y-120408085D01*
X60113495Y-120217609D01*
X60113495Y-120074752D01*
X60161114Y-119884276D01*
X60208733Y-119789038D01*
X60303971Y-119693800D01*
X60446828Y-119646180D01*
X60542066Y-119646180D01*
X60684923Y-119693800D01*
X60732542Y-119741419D01*
X61684923Y-120646180D02*
X61113495Y-120646180D01*
X61399209Y-120646180D02*
X61399209Y-119646180D01*
X61303971Y-119789038D01*
X61208733Y-119884276D01*
X61113495Y-119931895D01*
X62018257Y-119646180D02*
X62684923Y-119646180D01*
X62256352Y-120646180D01*
X73634695Y-95261180D02*
X73634695Y-96070704D01*
X73682314Y-96165942D01*
X73729933Y-96213561D01*
X73825171Y-96261180D01*
X74015647Y-96261180D01*
X74110885Y-96213561D01*
X74158504Y-96165942D01*
X74206123Y-96070704D01*
X74206123Y-95261180D01*
X75206123Y-96261180D02*
X74634695Y-96261180D01*
X74920409Y-96261180D02*
X74920409Y-95261180D01*
X74825171Y-95404038D01*
X74729933Y-95499276D01*
X74634695Y-95546895D01*
X46958704Y-100259580D02*
X46958704Y-99259580D01*
X47196800Y-99259580D01*
X47339657Y-99307200D01*
X47434895Y-99402438D01*
X47482514Y-99497676D01*
X47530133Y-99688152D01*
X47530133Y-99831009D01*
X47482514Y-100021485D01*
X47434895Y-100116723D01*
X47339657Y-100211961D01*
X47196800Y-100259580D01*
X46958704Y-100259580D01*
X48434895Y-99259580D02*
X47958704Y-99259580D01*
X47911085Y-99735771D01*
X47958704Y-99688152D01*
X48053942Y-99640533D01*
X48292038Y-99640533D01*
X48387276Y-99688152D01*
X48434895Y-99735771D01*
X48482514Y-99831009D01*
X48482514Y-100069104D01*
X48434895Y-100164342D01*
X48387276Y-100211961D01*
X48292038Y-100259580D01*
X48053942Y-100259580D01*
X47958704Y-100211961D01*
X47911085Y-100164342D01*
X49776142Y-124169942D02*
X49728523Y-124217561D01*
X49585666Y-124265180D01*
X49490428Y-124265180D01*
X49347571Y-124217561D01*
X49252333Y-124122323D01*
X49204714Y-124027085D01*
X49157095Y-123836609D01*
X49157095Y-123693752D01*
X49204714Y-123503276D01*
X49252333Y-123408038D01*
X49347571Y-123312800D01*
X49490428Y-123265180D01*
X49585666Y-123265180D01*
X49728523Y-123312800D01*
X49776142Y-123360419D01*
X50728523Y-124265180D02*
X50157095Y-124265180D01*
X50442809Y-124265180D02*
X50442809Y-123265180D01*
X50347571Y-123408038D01*
X50252333Y-123503276D01*
X50157095Y-123550895D01*
X51585666Y-123265180D02*
X51395190Y-123265180D01*
X51299952Y-123312800D01*
X51252333Y-123360419D01*
X51157095Y-123503276D01*
X51109476Y-123693752D01*
X51109476Y-124074704D01*
X51157095Y-124169942D01*
X51204714Y-124217561D01*
X51299952Y-124265180D01*
X51490428Y-124265180D01*
X51585666Y-124217561D01*
X51633285Y-124169942D01*
X51680904Y-124074704D01*
X51680904Y-123836609D01*
X51633285Y-123741371D01*
X51585666Y-123693752D01*
X51490428Y-123646133D01*
X51299952Y-123646133D01*
X51204714Y-123693752D01*
X51157095Y-123741371D01*
X51109476Y-123836609D01*
X99494980Y-100814095D02*
X98494980Y-100814095D01*
X99494980Y-100242666D02*
X98923552Y-100671238D01*
X98494980Y-100242666D02*
X99066409Y-100814095D01*
X98590219Y-99861714D02*
X98542600Y-99814095D01*
X98494980Y-99718857D01*
X98494980Y-99480761D01*
X98542600Y-99385523D01*
X98590219Y-99337904D01*
X98685457Y-99290285D01*
X98780695Y-99290285D01*
X98923552Y-99337904D01*
X99494980Y-99909333D01*
X99494980Y-99290285D01*
X82266733Y-89014342D02*
X82219114Y-89061961D01*
X82076257Y-89109580D01*
X81981019Y-89109580D01*
X81838161Y-89061961D01*
X81742923Y-88966723D01*
X81695304Y-88871485D01*
X81647685Y-88681009D01*
X81647685Y-88538152D01*
X81695304Y-88347676D01*
X81742923Y-88252438D01*
X81838161Y-88157200D01*
X81981019Y-88109580D01*
X82076257Y-88109580D01*
X82219114Y-88157200D01*
X82266733Y-88204819D01*
X82742923Y-89109580D02*
X82933400Y-89109580D01*
X83028638Y-89061961D01*
X83076257Y-89014342D01*
X83171495Y-88871485D01*
X83219114Y-88681009D01*
X83219114Y-88300057D01*
X83171495Y-88204819D01*
X83123876Y-88157200D01*
X83028638Y-88109580D01*
X82838161Y-88109580D01*
X82742923Y-88157200D01*
X82695304Y-88204819D01*
X82647685Y-88300057D01*
X82647685Y-88538152D01*
X82695304Y-88633390D01*
X82742923Y-88681009D01*
X82838161Y-88728628D01*
X83028638Y-88728628D01*
X83123876Y-88681009D01*
X83171495Y-88633390D01*
X83219114Y-88538152D01*
X47258780Y-116103333D02*
X47973066Y-116103333D01*
X48115923Y-116150952D01*
X48211161Y-116246190D01*
X48258780Y-116389047D01*
X48258780Y-116484285D01*
X47258780Y-115150952D02*
X47258780Y-115627142D01*
X47734971Y-115674761D01*
X47687352Y-115627142D01*
X47639733Y-115531904D01*
X47639733Y-115293809D01*
X47687352Y-115198571D01*
X47734971Y-115150952D01*
X47830209Y-115103333D01*
X48068304Y-115103333D01*
X48163542Y-115150952D01*
X48211161Y-115198571D01*
X48258780Y-115293809D01*
X48258780Y-115531904D01*
X48211161Y-115627142D01*
X48163542Y-115674761D01*
X51392742Y-102267280D02*
X51059409Y-101791090D01*
X50821314Y-102267280D02*
X50821314Y-101267280D01*
X51202266Y-101267280D01*
X51297504Y-101314900D01*
X51345123Y-101362519D01*
X51392742Y-101457757D01*
X51392742Y-101600614D01*
X51345123Y-101695852D01*
X51297504Y-101743471D01*
X51202266Y-101791090D01*
X50821314Y-101791090D01*
X51726076Y-101267280D02*
X52345123Y-101267280D01*
X52011790Y-101648233D01*
X52154647Y-101648233D01*
X52249885Y-101695852D01*
X52297504Y-101743471D01*
X52345123Y-101838709D01*
X52345123Y-102076804D01*
X52297504Y-102172042D01*
X52249885Y-102219661D01*
X52154647Y-102267280D01*
X51868933Y-102267280D01*
X51773695Y-102219661D01*
X51726076Y-102172042D01*
X53202266Y-101600614D02*
X53202266Y-102267280D01*
X52964171Y-101219661D02*
X52726076Y-101933947D01*
X53345123Y-101933947D01*
X66273466Y-117998580D02*
X66273466Y-118712866D01*
X66225847Y-118855723D01*
X66130609Y-118950961D01*
X65987752Y-118998580D01*
X65892514Y-118998580D01*
X66749657Y-118998580D02*
X66749657Y-117998580D01*
X67130609Y-117998580D01*
X67225847Y-118046200D01*
X67273466Y-118093819D01*
X67321085Y-118189057D01*
X67321085Y-118331914D01*
X67273466Y-118427152D01*
X67225847Y-118474771D01*
X67130609Y-118522390D01*
X66749657Y-118522390D01*
X67702038Y-118093819D02*
X67749657Y-118046200D01*
X67844895Y-117998580D01*
X68082990Y-117998580D01*
X68178228Y-118046200D01*
X68225847Y-118093819D01*
X68273466Y-118189057D01*
X68273466Y-118284295D01*
X68225847Y-118427152D01*
X67654419Y-118998580D01*
X68273466Y-118998580D01*
X60536742Y-93491580D02*
X60203409Y-93015390D01*
X59965314Y-93491580D02*
X59965314Y-92491580D01*
X60346266Y-92491580D01*
X60441504Y-92539200D01*
X60489123Y-92586819D01*
X60536742Y-92682057D01*
X60536742Y-92824914D01*
X60489123Y-92920152D01*
X60441504Y-92967771D01*
X60346266Y-93015390D01*
X59965314Y-93015390D01*
X60917695Y-92586819D02*
X60965314Y-92539200D01*
X61060552Y-92491580D01*
X61298647Y-92491580D01*
X61393885Y-92539200D01*
X61441504Y-92586819D01*
X61489123Y-92682057D01*
X61489123Y-92777295D01*
X61441504Y-92920152D01*
X60870076Y-93491580D01*
X61489123Y-93491580D01*
X61822457Y-92491580D02*
X62489123Y-92491580D01*
X62060552Y-93491580D01*
X108541495Y-125909580D02*
X108541495Y-124909580D01*
X108541495Y-125385771D02*
X109112923Y-125385771D01*
X109112923Y-125909580D02*
X109112923Y-124909580D01*
X110017685Y-125242914D02*
X110017685Y-125909580D01*
X109779590Y-124861961D02*
X109541495Y-125576247D01*
X110160542Y-125576247D01*
X107645295Y-84196180D02*
X107645295Y-83196180D01*
X107645295Y-83672371D02*
X108216723Y-83672371D01*
X108216723Y-84196180D02*
X108216723Y-83196180D01*
X108597676Y-83196180D02*
X109216723Y-83196180D01*
X108883390Y-83577133D01*
X109026247Y-83577133D01*
X109121485Y-83624752D01*
X109169104Y-83672371D01*
X109216723Y-83767609D01*
X109216723Y-84005704D01*
X109169104Y-84100942D01*
X109121485Y-84148561D01*
X109026247Y-84196180D01*
X108740533Y-84196180D01*
X108645295Y-84148561D01*
X108597676Y-84100942D01*
X39466070Y-100255405D02*
X39466070Y-99255405D01*
X39466070Y-99731596D02*
X40037498Y-99731596D01*
X40037498Y-100255405D02*
X40037498Y-99255405D01*
X40466070Y-99350644D02*
X40513689Y-99303025D01*
X40608927Y-99255405D01*
X40847022Y-99255405D01*
X40942260Y-99303025D01*
X40989879Y-99350644D01*
X41037498Y-99445882D01*
X41037498Y-99541120D01*
X40989879Y-99683977D01*
X40418451Y-100255405D01*
X41037498Y-100255405D01*
X84456590Y-125291790D02*
X84932780Y-125291790D01*
X83932780Y-125625123D02*
X84456590Y-125291790D01*
X83932780Y-124958457D01*
X83932780Y-124720361D02*
X83932780Y-124101314D01*
X84313733Y-124434647D01*
X84313733Y-124291790D01*
X84361352Y-124196552D01*
X84408971Y-124148933D01*
X84504209Y-124101314D01*
X84742304Y-124101314D01*
X84837542Y-124148933D01*
X84885161Y-124196552D01*
X84932780Y-124291790D01*
X84932780Y-124577504D01*
X84885161Y-124672742D01*
X84837542Y-124720361D01*
X88713990Y-112493390D02*
X89190180Y-112493390D01*
X88190180Y-112826723D02*
X88713990Y-112493390D01*
X88190180Y-112160057D01*
X88285419Y-111874342D02*
X88237800Y-111826723D01*
X88190180Y-111731485D01*
X88190180Y-111493390D01*
X88237800Y-111398152D01*
X88285419Y-111350533D01*
X88380657Y-111302914D01*
X88475895Y-111302914D01*
X88618752Y-111350533D01*
X89190180Y-111921961D01*
X89190180Y-111302914D01*
X64257990Y-107861370D02*
X64734180Y-107861370D01*
X63734180Y-108194703D02*
X64257990Y-107861370D01*
X63734180Y-107528037D01*
X64734180Y-106670894D02*
X64734180Y-107242322D01*
X64734180Y-106956608D02*
X63734180Y-106956608D01*
X63877038Y-107051846D01*
X63972276Y-107147084D01*
X64019895Y-107242322D01*
X89742580Y-86029704D02*
X90552104Y-86029704D01*
X90647342Y-85982085D01*
X90694961Y-85934466D01*
X90742580Y-85839228D01*
X90742580Y-85648752D01*
X90694961Y-85553514D01*
X90647342Y-85505895D01*
X90552104Y-85458276D01*
X89742580Y-85458276D01*
X89742580Y-85077323D02*
X89742580Y-84410657D01*
X90742580Y-84839228D01*
X50985780Y-111201104D02*
X51795304Y-111201104D01*
X51890542Y-111153485D01*
X51938161Y-111105866D01*
X51985780Y-111010628D01*
X51985780Y-110820152D01*
X51938161Y-110724914D01*
X51890542Y-110677295D01*
X51795304Y-110629676D01*
X50985780Y-110629676D01*
X50985780Y-109677295D02*
X50985780Y-110153485D01*
X51461971Y-110201104D01*
X51414352Y-110153485D01*
X51366733Y-110058247D01*
X51366733Y-109820152D01*
X51414352Y-109724914D01*
X51461971Y-109677295D01*
X51557209Y-109629676D01*
X51795304Y-109629676D01*
X51890542Y-109677295D01*
X51938161Y-109724914D01*
X51985780Y-109820152D01*
X51985780Y-110058247D01*
X51938161Y-110153485D01*
X51890542Y-110201104D01*
X85247685Y-88804380D02*
X85819114Y-88804380D01*
X85533400Y-89804380D02*
X85533400Y-88804380D01*
X86152447Y-89804380D02*
X86152447Y-88804380D01*
X86533400Y-88804380D01*
X86628638Y-88852000D01*
X86676257Y-88899619D01*
X86723876Y-88994857D01*
X86723876Y-89137714D01*
X86676257Y-89232952D01*
X86628638Y-89280571D01*
X86533400Y-89328190D01*
X86152447Y-89328190D01*
X87819114Y-88804380D02*
X88438161Y-88804380D01*
X88104828Y-89185333D01*
X88247685Y-89185333D01*
X88342923Y-89232952D01*
X88390542Y-89280571D01*
X88438161Y-89375809D01*
X88438161Y-89613904D01*
X88390542Y-89709142D01*
X88342923Y-89756761D01*
X88247685Y-89804380D01*
X87961971Y-89804380D01*
X87866733Y-89756761D01*
X87819114Y-89709142D01*
X88866733Y-89709142D02*
X88914352Y-89756761D01*
X88866733Y-89804380D01*
X88819114Y-89756761D01*
X88866733Y-89709142D01*
X88866733Y-89804380D01*
X89247685Y-88804380D02*
X89866733Y-88804380D01*
X89533400Y-89185333D01*
X89676257Y-89185333D01*
X89771495Y-89232952D01*
X89819114Y-89280571D01*
X89866733Y-89375809D01*
X89866733Y-89613904D01*
X89819114Y-89709142D01*
X89771495Y-89756761D01*
X89676257Y-89804380D01*
X89390542Y-89804380D01*
X89295304Y-89756761D01*
X89247685Y-89709142D01*
X90152447Y-88804380D02*
X90485780Y-89804380D01*
X90819114Y-88804380D01*
X56961971Y-101309580D02*
X57533400Y-101309580D01*
X57247685Y-102309580D02*
X57247685Y-101309580D01*
X57866733Y-102309580D02*
X57866733Y-101309580D01*
X58247685Y-101309580D01*
X58342923Y-101357200D01*
X58390542Y-101404819D01*
X58438161Y-101500057D01*
X58438161Y-101642914D01*
X58390542Y-101738152D01*
X58342923Y-101785771D01*
X58247685Y-101833390D01*
X57866733Y-101833390D01*
X59533400Y-101309580D02*
X60152447Y-101309580D01*
X59819114Y-101690533D01*
X59961971Y-101690533D01*
X60057209Y-101738152D01*
X60104828Y-101785771D01*
X60152447Y-101881009D01*
X60152447Y-102119104D01*
X60104828Y-102214342D01*
X60057209Y-102261961D01*
X59961971Y-102309580D01*
X59676257Y-102309580D01*
X59581019Y-102261961D01*
X59533400Y-102214342D01*
X60581019Y-102214342D02*
X60628638Y-102261961D01*
X60581019Y-102309580D01*
X60533400Y-102261961D01*
X60581019Y-102214342D01*
X60581019Y-102309580D01*
X60961971Y-101309580D02*
X61581019Y-101309580D01*
X61247685Y-101690533D01*
X61390542Y-101690533D01*
X61485780Y-101738152D01*
X61533400Y-101785771D01*
X61581019Y-101881009D01*
X61581019Y-102119104D01*
X61533400Y-102214342D01*
X61485780Y-102261961D01*
X61390542Y-102309580D01*
X61104828Y-102309580D01*
X61009590Y-102261961D01*
X60961971Y-102214342D01*
X61866733Y-101309580D02*
X62200066Y-102309580D01*
X62533400Y-101309580D01*
X64104828Y-102309580D02*
X63628638Y-102309580D01*
X63628638Y-101309580D01*
X65009590Y-102214342D02*
X64961971Y-102261961D01*
X64819114Y-102309580D01*
X64723876Y-102309580D01*
X64581019Y-102261961D01*
X64485780Y-102166723D01*
X64438161Y-102071485D01*
X64390542Y-101881009D01*
X64390542Y-101738152D01*
X64438161Y-101547676D01*
X64485780Y-101452438D01*
X64581019Y-101357200D01*
X64723876Y-101309580D01*
X64819114Y-101309580D01*
X64961971Y-101357200D01*
X65009590Y-101404819D01*
X57700942Y-108529380D02*
X57367609Y-108053190D01*
X57129514Y-108529380D02*
X57129514Y-107529380D01*
X57510466Y-107529380D01*
X57605704Y-107577000D01*
X57653323Y-107624619D01*
X57700942Y-107719857D01*
X57700942Y-107862714D01*
X57653323Y-107957952D01*
X57605704Y-108005571D01*
X57510466Y-108053190D01*
X57129514Y-108053190D01*
X58653323Y-108529380D02*
X58081895Y-108529380D01*
X58367609Y-108529380D02*
X58367609Y-107529380D01*
X58272371Y-107672238D01*
X58177133Y-107767476D01*
X58081895Y-107815095D01*
X58986657Y-107529380D02*
X59653323Y-107529380D01*
X59224752Y-108529380D01*
X57561942Y-113982780D02*
X57228609Y-113506590D01*
X56990514Y-113982780D02*
X56990514Y-112982780D01*
X57371466Y-112982780D01*
X57466704Y-113030400D01*
X57514323Y-113078019D01*
X57561942Y-113173257D01*
X57561942Y-113316114D01*
X57514323Y-113411352D01*
X57466704Y-113458971D01*
X57371466Y-113506590D01*
X56990514Y-113506590D01*
X58514323Y-113982780D02*
X57942895Y-113982780D01*
X58228609Y-113982780D02*
X58228609Y-112982780D01*
X58133371Y-113125638D01*
X58038133Y-113220876D01*
X57942895Y-113268495D01*
X59371466Y-112982780D02*
X59180990Y-112982780D01*
X59085752Y-113030400D01*
X59038133Y-113078019D01*
X58942895Y-113220876D01*
X58895276Y-113411352D01*
X58895276Y-113792304D01*
X58942895Y-113887542D01*
X58990514Y-113935161D01*
X59085752Y-113982780D01*
X59276228Y-113982780D01*
X59371466Y-113935161D01*
X59419085Y-113887542D01*
X59466704Y-113792304D01*
X59466704Y-113554209D01*
X59419085Y-113458971D01*
X59371466Y-113411352D01*
X59276228Y-113363733D01*
X59085752Y-113363733D01*
X58990514Y-113411352D01*
X58942895Y-113458971D01*
X58895276Y-113554209D01*
X107995980Y-120257866D02*
X107519790Y-120591200D01*
X107995980Y-120829295D02*
X106995980Y-120829295D01*
X106995980Y-120448342D01*
X107043600Y-120353104D01*
X107091219Y-120305485D01*
X107186457Y-120257866D01*
X107329314Y-120257866D01*
X107424552Y-120305485D01*
X107472171Y-120353104D01*
X107519790Y-120448342D01*
X107519790Y-120829295D01*
X106995980Y-119400723D02*
X106995980Y-119591200D01*
X107043600Y-119686438D01*
X107091219Y-119734057D01*
X107234076Y-119829295D01*
X107424552Y-119876914D01*
X107805504Y-119876914D01*
X107900742Y-119829295D01*
X107948361Y-119781676D01*
X107995980Y-119686438D01*
X107995980Y-119495961D01*
X107948361Y-119400723D01*
X107900742Y-119353104D01*
X107805504Y-119305485D01*
X107567409Y-119305485D01*
X107472171Y-119353104D01*
X107424552Y-119400723D01*
X107376933Y-119495961D01*
X107376933Y-119686438D01*
X107424552Y-119781676D01*
X107472171Y-119829295D01*
X107567409Y-119876914D01*
X65094380Y-88482466D02*
X64618190Y-88815800D01*
X65094380Y-89053895D02*
X64094380Y-89053895D01*
X64094380Y-88672942D01*
X64142000Y-88577704D01*
X64189619Y-88530085D01*
X64284857Y-88482466D01*
X64427714Y-88482466D01*
X64522952Y-88530085D01*
X64570571Y-88577704D01*
X64618190Y-88672942D01*
X64618190Y-89053895D01*
X64189619Y-88101514D02*
X64142000Y-88053895D01*
X64094380Y-87958657D01*
X64094380Y-87720561D01*
X64142000Y-87625323D01*
X64189619Y-87577704D01*
X64284857Y-87530085D01*
X64380095Y-87530085D01*
X64522952Y-87577704D01*
X65094380Y-88149133D01*
X65094380Y-87530085D01*
X74772333Y-91408780D02*
X74439000Y-90932590D01*
X74200904Y-91408780D02*
X74200904Y-90408780D01*
X74581857Y-90408780D01*
X74677095Y-90456400D01*
X74724714Y-90504019D01*
X74772333Y-90599257D01*
X74772333Y-90742114D01*
X74724714Y-90837352D01*
X74677095Y-90884971D01*
X74581857Y-90932590D01*
X74200904Y-90932590D01*
X75724714Y-91408780D02*
X75153285Y-91408780D01*
X75439000Y-91408780D02*
X75439000Y-90408780D01*
X75343761Y-90551638D01*
X75248523Y-90646876D01*
X75153285Y-90694495D01*
X105690573Y-125964780D02*
X105214382Y-125964780D01*
X105214382Y-124964780D01*
X105928668Y-124964780D02*
X106547716Y-124964780D01*
X106214382Y-125345733D01*
X106357240Y-125345733D01*
X106452478Y-125393352D01*
X106500097Y-125440971D01*
X106547716Y-125536209D01*
X106547716Y-125774304D01*
X106500097Y-125869542D01*
X106452478Y-125917161D01*
X106357240Y-125964780D01*
X106071525Y-125964780D01*
X105976287Y-125917161D01*
X105928668Y-125869542D01*
X100925333Y-118130580D02*
X100449142Y-118130580D01*
X100449142Y-117130580D01*
X101782476Y-118130580D02*
X101211047Y-118130580D01*
X101496761Y-118130580D02*
X101496761Y-117130580D01*
X101401523Y-117273438D01*
X101306285Y-117368676D01*
X101211047Y-117416295D01*
X72953666Y-118070380D02*
X72953666Y-118784666D01*
X72906047Y-118927523D01*
X72810809Y-119022761D01*
X72667952Y-119070380D01*
X72572714Y-119070380D01*
X73429857Y-119070380D02*
X73429857Y-118070380D01*
X73810809Y-118070380D01*
X73906047Y-118118000D01*
X73953666Y-118165619D01*
X74001285Y-118260857D01*
X74001285Y-118403714D01*
X73953666Y-118498952D01*
X73906047Y-118546571D01*
X73810809Y-118594190D01*
X73429857Y-118594190D01*
X74953666Y-119070380D02*
X74382238Y-119070380D01*
X74667952Y-119070380D02*
X74667952Y-118070380D01*
X74572714Y-118213238D01*
X74477476Y-118308476D01*
X74382238Y-118356095D01*
X42985780Y-88850533D02*
X43700066Y-88850533D01*
X43842923Y-88898152D01*
X43938161Y-88993390D01*
X43985780Y-89136247D01*
X43985780Y-89231485D01*
X42985780Y-88469580D02*
X42985780Y-87802914D01*
X43985780Y-88231485D01*
X108295304Y-89469580D02*
X108295304Y-88469580D01*
X108533400Y-88469580D01*
X108676257Y-88517200D01*
X108771495Y-88612438D01*
X108819114Y-88707676D01*
X108866733Y-88898152D01*
X108866733Y-89041009D01*
X108819114Y-89231485D01*
X108771495Y-89326723D01*
X108676257Y-89421961D01*
X108533400Y-89469580D01*
X108295304Y-89469580D01*
X109342923Y-89469580D02*
X109533400Y-89469580D01*
X109628638Y-89421961D01*
X109676257Y-89374342D01*
X109771495Y-89231485D01*
X109819114Y-89041009D01*
X109819114Y-88660057D01*
X109771495Y-88564819D01*
X109723876Y-88517200D01*
X109628638Y-88469580D01*
X109438161Y-88469580D01*
X109342923Y-88517200D01*
X109295304Y-88564819D01*
X109247685Y-88660057D01*
X109247685Y-88898152D01*
X109295304Y-88993390D01*
X109342923Y-89041009D01*
X109438161Y-89088628D01*
X109628638Y-89088628D01*
X109723876Y-89041009D01*
X109771495Y-88993390D01*
X109819114Y-88898152D01*
X108295304Y-93969580D02*
X108295304Y-92969580D01*
X108533400Y-92969580D01*
X108676257Y-93017200D01*
X108771495Y-93112438D01*
X108819114Y-93207676D01*
X108866733Y-93398152D01*
X108866733Y-93541009D01*
X108819114Y-93731485D01*
X108771495Y-93826723D01*
X108676257Y-93921961D01*
X108533400Y-93969580D01*
X108295304Y-93969580D01*
X109438161Y-93398152D02*
X109342923Y-93350533D01*
X109295304Y-93302914D01*
X109247685Y-93207676D01*
X109247685Y-93160057D01*
X109295304Y-93064819D01*
X109342923Y-93017200D01*
X109438161Y-92969580D01*
X109628638Y-92969580D01*
X109723876Y-93017200D01*
X109771495Y-93064819D01*
X109819114Y-93160057D01*
X109819114Y-93207676D01*
X109771495Y-93302914D01*
X109723876Y-93350533D01*
X109628638Y-93398152D01*
X109438161Y-93398152D01*
X109342923Y-93445771D01*
X109295304Y-93493390D01*
X109247685Y-93588628D01*
X109247685Y-93779104D01*
X109295304Y-93874342D01*
X109342923Y-93921961D01*
X109438161Y-93969580D01*
X109628638Y-93969580D01*
X109723876Y-93921961D01*
X109771495Y-93874342D01*
X109819114Y-93779104D01*
X109819114Y-93588628D01*
X109771495Y-93493390D01*
X109723876Y-93445771D01*
X109628638Y-93398152D01*
X108295304Y-98969580D02*
X108295304Y-97969580D01*
X108533400Y-97969580D01*
X108676257Y-98017200D01*
X108771495Y-98112438D01*
X108819114Y-98207676D01*
X108866733Y-98398152D01*
X108866733Y-98541009D01*
X108819114Y-98731485D01*
X108771495Y-98826723D01*
X108676257Y-98921961D01*
X108533400Y-98969580D01*
X108295304Y-98969580D01*
X109200066Y-97969580D02*
X109866733Y-97969580D01*
X109438161Y-98969580D01*
X108295304Y-103969580D02*
X108295304Y-102969580D01*
X108533400Y-102969580D01*
X108676257Y-103017200D01*
X108771495Y-103112438D01*
X108819114Y-103207676D01*
X108866733Y-103398152D01*
X108866733Y-103541009D01*
X108819114Y-103731485D01*
X108771495Y-103826723D01*
X108676257Y-103921961D01*
X108533400Y-103969580D01*
X108295304Y-103969580D01*
X109723876Y-102969580D02*
X109533400Y-102969580D01*
X109438161Y-103017200D01*
X109390542Y-103064819D01*
X109295304Y-103207676D01*
X109247685Y-103398152D01*
X109247685Y-103779104D01*
X109295304Y-103874342D01*
X109342923Y-103921961D01*
X109438161Y-103969580D01*
X109628638Y-103969580D01*
X109723876Y-103921961D01*
X109771495Y-103874342D01*
X109819114Y-103779104D01*
X109819114Y-103541009D01*
X109771495Y-103445771D01*
X109723876Y-103398152D01*
X109628638Y-103350533D01*
X109438161Y-103350533D01*
X109342923Y-103398152D01*
X109295304Y-103445771D01*
X109247685Y-103541009D01*
X55598680Y-95454695D02*
X54598680Y-95454695D01*
X54598680Y-95216600D01*
X54646300Y-95073742D01*
X54741538Y-94978504D01*
X54836776Y-94930885D01*
X55027252Y-94883266D01*
X55170109Y-94883266D01*
X55360585Y-94930885D01*
X55455823Y-94978504D01*
X55551061Y-95073742D01*
X55598680Y-95216600D01*
X55598680Y-95454695D01*
X54598680Y-94549933D02*
X54598680Y-93930885D01*
X54979633Y-94264219D01*
X54979633Y-94121361D01*
X55027252Y-94026123D01*
X55074871Y-93978504D01*
X55170109Y-93930885D01*
X55408204Y-93930885D01*
X55503442Y-93978504D01*
X55551061Y-94026123D01*
X55598680Y-94121361D01*
X55598680Y-94407076D01*
X55551061Y-94502314D01*
X55503442Y-94549933D01*
X67911742Y-88216742D02*
X67864123Y-88264361D01*
X67721266Y-88311980D01*
X67626028Y-88311980D01*
X67483171Y-88264361D01*
X67387933Y-88169123D01*
X67340314Y-88073885D01*
X67292695Y-87883409D01*
X67292695Y-87740552D01*
X67340314Y-87550076D01*
X67387933Y-87454838D01*
X67483171Y-87359600D01*
X67626028Y-87311980D01*
X67721266Y-87311980D01*
X67864123Y-87359600D01*
X67911742Y-87407219D01*
X68816504Y-87311980D02*
X68340314Y-87311980D01*
X68292695Y-87788171D01*
X68340314Y-87740552D01*
X68435552Y-87692933D01*
X68673647Y-87692933D01*
X68768885Y-87740552D01*
X68816504Y-87788171D01*
X68864123Y-87883409D01*
X68864123Y-88121504D01*
X68816504Y-88216742D01*
X68768885Y-88264361D01*
X68673647Y-88311980D01*
X68435552Y-88311980D01*
X68340314Y-88264361D01*
X68292695Y-88216742D01*
X69816504Y-88311980D02*
X69245076Y-88311980D01*
X69530790Y-88311980D02*
X69530790Y-87311980D01*
X69435552Y-87454838D01*
X69340314Y-87550076D01*
X69245076Y-87597695D01*
X65440542Y-93649342D02*
X65392923Y-93696961D01*
X65250066Y-93744580D01*
X65154828Y-93744580D01*
X65011971Y-93696961D01*
X64916733Y-93601723D01*
X64869114Y-93506485D01*
X64821495Y-93316009D01*
X64821495Y-93173152D01*
X64869114Y-92982676D01*
X64916733Y-92887438D01*
X65011971Y-92792200D01*
X65154828Y-92744580D01*
X65250066Y-92744580D01*
X65392923Y-92792200D01*
X65440542Y-92839819D01*
X66297685Y-93077914D02*
X66297685Y-93744580D01*
X66059590Y-92696961D02*
X65821495Y-93411247D01*
X66440542Y-93411247D01*
X66869114Y-93744580D02*
X67059590Y-93744580D01*
X67154828Y-93696961D01*
X67202447Y-93649342D01*
X67297685Y-93506485D01*
X67345304Y-93316009D01*
X67345304Y-92935057D01*
X67297685Y-92839819D01*
X67250066Y-92792200D01*
X67154828Y-92744580D01*
X66964352Y-92744580D01*
X66869114Y-92792200D01*
X66821495Y-92839819D01*
X66773876Y-92935057D01*
X66773876Y-93173152D01*
X66821495Y-93268390D01*
X66869114Y-93316009D01*
X66964352Y-93363628D01*
X67154828Y-93363628D01*
X67250066Y-93316009D01*
X67297685Y-93268390D01*
X67345304Y-93173152D01*
X63720742Y-86386942D02*
X63673123Y-86434561D01*
X63530266Y-86482180D01*
X63435028Y-86482180D01*
X63292171Y-86434561D01*
X63196933Y-86339323D01*
X63149314Y-86244085D01*
X63101695Y-86053609D01*
X63101695Y-85910752D01*
X63149314Y-85720276D01*
X63196933Y-85625038D01*
X63292171Y-85529800D01*
X63435028Y-85482180D01*
X63530266Y-85482180D01*
X63673123Y-85529800D01*
X63720742Y-85577419D01*
X64577885Y-85815514D02*
X64577885Y-86482180D01*
X64339790Y-85434561D02*
X64101695Y-86148847D01*
X64720742Y-86148847D01*
X65006457Y-85482180D02*
X65673123Y-85482180D01*
X65244552Y-86482180D01*
X59558942Y-89134657D02*
X59606561Y-89182276D01*
X59654180Y-89325133D01*
X59654180Y-89420371D01*
X59606561Y-89563228D01*
X59511323Y-89658466D01*
X59416085Y-89706085D01*
X59225609Y-89753704D01*
X59082752Y-89753704D01*
X58892276Y-89706085D01*
X58797038Y-89658466D01*
X58701800Y-89563228D01*
X58654180Y-89420371D01*
X58654180Y-89325133D01*
X58701800Y-89182276D01*
X58749419Y-89134657D01*
X58987514Y-88277514D02*
X59654180Y-88277514D01*
X58606561Y-88515609D02*
X59320847Y-88753704D01*
X59320847Y-88134657D01*
X58654180Y-87325133D02*
X58654180Y-87515609D01*
X58701800Y-87610847D01*
X58749419Y-87658466D01*
X58892276Y-87753704D01*
X59082752Y-87801323D01*
X59463704Y-87801323D01*
X59558942Y-87753704D01*
X59606561Y-87706085D01*
X59654180Y-87610847D01*
X59654180Y-87420371D01*
X59606561Y-87325133D01*
X59558942Y-87277514D01*
X59463704Y-87229895D01*
X59225609Y-87229895D01*
X59130371Y-87277514D01*
X59082752Y-87325133D01*
X59035133Y-87420371D01*
X59035133Y-87610847D01*
X59082752Y-87706085D01*
X59130371Y-87753704D01*
X59225609Y-87801323D01*
X57929542Y-110897942D02*
X57881923Y-110945561D01*
X57739066Y-110993180D01*
X57643828Y-110993180D01*
X57500971Y-110945561D01*
X57405733Y-110850323D01*
X57358114Y-110755085D01*
X57310495Y-110564609D01*
X57310495Y-110421752D01*
X57358114Y-110231276D01*
X57405733Y-110136038D01*
X57500971Y-110040800D01*
X57643828Y-109993180D01*
X57739066Y-109993180D01*
X57881923Y-110040800D01*
X57929542Y-110088419D01*
X58786685Y-110326514D02*
X58786685Y-110993180D01*
X58548590Y-109945561D02*
X58310495Y-110659847D01*
X58929542Y-110659847D01*
X59500971Y-109993180D02*
X59596209Y-109993180D01*
X59691447Y-110040800D01*
X59739066Y-110088419D01*
X59786685Y-110183657D01*
X59834304Y-110374133D01*
X59834304Y-110612228D01*
X59786685Y-110802704D01*
X59739066Y-110897942D01*
X59691447Y-110945561D01*
X59596209Y-110993180D01*
X59500971Y-110993180D01*
X59405733Y-110945561D01*
X59358114Y-110897942D01*
X59310495Y-110802704D01*
X59262876Y-110612228D01*
X59262876Y-110374133D01*
X59310495Y-110183657D01*
X59358114Y-110088419D01*
X59405733Y-110040800D01*
X59500971Y-109993180D01*
X59639742Y-94047657D02*
X59687361Y-94095276D01*
X59734980Y-94238133D01*
X59734980Y-94333371D01*
X59687361Y-94476228D01*
X59592123Y-94571466D01*
X59496885Y-94619085D01*
X59306409Y-94666704D01*
X59163552Y-94666704D01*
X58973076Y-94619085D01*
X58877838Y-94571466D01*
X58782600Y-94476228D01*
X58734980Y-94333371D01*
X58734980Y-94238133D01*
X58782600Y-94095276D01*
X58830219Y-94047657D01*
X58734980Y-93714323D02*
X58734980Y-93095276D01*
X59115933Y-93428609D01*
X59115933Y-93285752D01*
X59163552Y-93190514D01*
X59211171Y-93142895D01*
X59306409Y-93095276D01*
X59544504Y-93095276D01*
X59639742Y-93142895D01*
X59687361Y-93190514D01*
X59734980Y-93285752D01*
X59734980Y-93571466D01*
X59687361Y-93666704D01*
X59639742Y-93714323D01*
X59163552Y-92523847D02*
X59115933Y-92619085D01*
X59068314Y-92666704D01*
X58973076Y-92714323D01*
X58925457Y-92714323D01*
X58830219Y-92666704D01*
X58782600Y-92619085D01*
X58734980Y-92523847D01*
X58734980Y-92333371D01*
X58782600Y-92238133D01*
X58830219Y-92190514D01*
X58925457Y-92142895D01*
X58973076Y-92142895D01*
X59068314Y-92190514D01*
X59115933Y-92238133D01*
X59163552Y-92333371D01*
X59163552Y-92523847D01*
X59211171Y-92619085D01*
X59258790Y-92666704D01*
X59354028Y-92714323D01*
X59544504Y-92714323D01*
X59639742Y-92666704D01*
X59687361Y-92619085D01*
X59734980Y-92523847D01*
X59734980Y-92333371D01*
X59687361Y-92238133D01*
X59639742Y-92190514D01*
X59544504Y-92142895D01*
X59354028Y-92142895D01*
X59258790Y-92190514D01*
X59211171Y-92238133D01*
X59163552Y-92333371D01*
X110786942Y-122759742D02*
X110739323Y-122807361D01*
X110596466Y-122854980D01*
X110501228Y-122854980D01*
X110358371Y-122807361D01*
X110263133Y-122712123D01*
X110215514Y-122616885D01*
X110167895Y-122426409D01*
X110167895Y-122283552D01*
X110215514Y-122093076D01*
X110263133Y-121997838D01*
X110358371Y-121902600D01*
X110501228Y-121854980D01*
X110596466Y-121854980D01*
X110739323Y-121902600D01*
X110786942Y-121950219D01*
X111120276Y-121854980D02*
X111739323Y-121854980D01*
X111405990Y-122235933D01*
X111548847Y-122235933D01*
X111644085Y-122283552D01*
X111691704Y-122331171D01*
X111739323Y-122426409D01*
X111739323Y-122664504D01*
X111691704Y-122759742D01*
X111644085Y-122807361D01*
X111548847Y-122854980D01*
X111263133Y-122854980D01*
X111167895Y-122807361D01*
X111120276Y-122759742D01*
X112120276Y-121950219D02*
X112167895Y-121902600D01*
X112263133Y-121854980D01*
X112501228Y-121854980D01*
X112596466Y-121902600D01*
X112644085Y-121950219D01*
X112691704Y-122045457D01*
X112691704Y-122140695D01*
X112644085Y-122283552D01*
X112072657Y-122854980D01*
X112691704Y-122854980D01*
X75610542Y-123904342D02*
X75562923Y-123951961D01*
X75420066Y-123999580D01*
X75324828Y-123999580D01*
X75181971Y-123951961D01*
X75086733Y-123856723D01*
X75039114Y-123761485D01*
X74991495Y-123571009D01*
X74991495Y-123428152D01*
X75039114Y-123237676D01*
X75086733Y-123142438D01*
X75181971Y-123047200D01*
X75324828Y-122999580D01*
X75420066Y-122999580D01*
X75562923Y-123047200D01*
X75610542Y-123094819D01*
X75943876Y-122999580D02*
X76562923Y-122999580D01*
X76229590Y-123380533D01*
X76372447Y-123380533D01*
X76467685Y-123428152D01*
X76515304Y-123475771D01*
X76562923Y-123571009D01*
X76562923Y-123809104D01*
X76515304Y-123904342D01*
X76467685Y-123951961D01*
X76372447Y-123999580D01*
X76086733Y-123999580D01*
X75991495Y-123951961D01*
X75943876Y-123904342D01*
X77515304Y-123999580D02*
X76943876Y-123999580D01*
X77229590Y-123999580D02*
X77229590Y-122999580D01*
X77134352Y-123142438D01*
X77039114Y-123237676D01*
X76943876Y-123285295D01*
X82160542Y-126254342D02*
X82112923Y-126301961D01*
X81970066Y-126349580D01*
X81874828Y-126349580D01*
X81731971Y-126301961D01*
X81636733Y-126206723D01*
X81589114Y-126111485D01*
X81541495Y-125921009D01*
X81541495Y-125778152D01*
X81589114Y-125587676D01*
X81636733Y-125492438D01*
X81731971Y-125397200D01*
X81874828Y-125349580D01*
X81970066Y-125349580D01*
X82112923Y-125397200D01*
X82160542Y-125444819D01*
X82493876Y-125349580D02*
X83112923Y-125349580D01*
X82779590Y-125730533D01*
X82922447Y-125730533D01*
X83017685Y-125778152D01*
X83065304Y-125825771D01*
X83112923Y-125921009D01*
X83112923Y-126159104D01*
X83065304Y-126254342D01*
X83017685Y-126301961D01*
X82922447Y-126349580D01*
X82636733Y-126349580D01*
X82541495Y-126301961D01*
X82493876Y-126254342D01*
X83731971Y-125349580D02*
X83827209Y-125349580D01*
X83922447Y-125397200D01*
X83970066Y-125444819D01*
X84017685Y-125540057D01*
X84065304Y-125730533D01*
X84065304Y-125968628D01*
X84017685Y-126159104D01*
X83970066Y-126254342D01*
X83922447Y-126301961D01*
X83827209Y-126349580D01*
X83731971Y-126349580D01*
X83636733Y-126301961D01*
X83589114Y-126254342D01*
X83541495Y-126159104D01*
X83493876Y-125968628D01*
X83493876Y-125730533D01*
X83541495Y-125540057D01*
X83589114Y-125444819D01*
X83636733Y-125397200D01*
X83731971Y-125349580D01*
X104335342Y-120041942D02*
X104287723Y-120089561D01*
X104144866Y-120137180D01*
X104049628Y-120137180D01*
X103906771Y-120089561D01*
X103811533Y-119994323D01*
X103763914Y-119899085D01*
X103716295Y-119708609D01*
X103716295Y-119565752D01*
X103763914Y-119375276D01*
X103811533Y-119280038D01*
X103906771Y-119184800D01*
X104049628Y-119137180D01*
X104144866Y-119137180D01*
X104287723Y-119184800D01*
X104335342Y-119232419D01*
X104716295Y-119232419D02*
X104763914Y-119184800D01*
X104859152Y-119137180D01*
X105097247Y-119137180D01*
X105192485Y-119184800D01*
X105240104Y-119232419D01*
X105287723Y-119327657D01*
X105287723Y-119422895D01*
X105240104Y-119565752D01*
X104668676Y-120137180D01*
X105287723Y-120137180D01*
X105763914Y-120137180D02*
X105954390Y-120137180D01*
X106049628Y-120089561D01*
X106097247Y-120041942D01*
X106192485Y-119899085D01*
X106240104Y-119708609D01*
X106240104Y-119327657D01*
X106192485Y-119232419D01*
X106144866Y-119184800D01*
X106049628Y-119137180D01*
X105859152Y-119137180D01*
X105763914Y-119184800D01*
X105716295Y-119232419D01*
X105668676Y-119327657D01*
X105668676Y-119565752D01*
X105716295Y-119660990D01*
X105763914Y-119708609D01*
X105859152Y-119756228D01*
X106049628Y-119756228D01*
X106144866Y-119708609D01*
X106192485Y-119660990D01*
X106240104Y-119565752D01*
X82100542Y-129574342D02*
X82052923Y-129621961D01*
X81910066Y-129669580D01*
X81814828Y-129669580D01*
X81671971Y-129621961D01*
X81576733Y-129526723D01*
X81529114Y-129431485D01*
X81481495Y-129241009D01*
X81481495Y-129098152D01*
X81529114Y-128907676D01*
X81576733Y-128812438D01*
X81671971Y-128717200D01*
X81814828Y-128669580D01*
X81910066Y-128669580D01*
X82052923Y-128717200D01*
X82100542Y-128764819D01*
X82481495Y-128764819D02*
X82529114Y-128717200D01*
X82624352Y-128669580D01*
X82862447Y-128669580D01*
X82957685Y-128717200D01*
X83005304Y-128764819D01*
X83052923Y-128860057D01*
X83052923Y-128955295D01*
X83005304Y-129098152D01*
X82433876Y-129669580D01*
X83052923Y-129669580D01*
X83624352Y-129098152D02*
X83529114Y-129050533D01*
X83481495Y-129002914D01*
X83433876Y-128907676D01*
X83433876Y-128860057D01*
X83481495Y-128764819D01*
X83529114Y-128717200D01*
X83624352Y-128669580D01*
X83814828Y-128669580D01*
X83910066Y-128717200D01*
X83957685Y-128764819D01*
X84005304Y-128860057D01*
X84005304Y-128907676D01*
X83957685Y-129002914D01*
X83910066Y-129050533D01*
X83814828Y-129098152D01*
X83624352Y-129098152D01*
X83529114Y-129145771D01*
X83481495Y-129193390D01*
X83433876Y-129288628D01*
X83433876Y-129479104D01*
X83481495Y-129574342D01*
X83529114Y-129621961D01*
X83624352Y-129669580D01*
X83814828Y-129669580D01*
X83910066Y-129621961D01*
X83957685Y-129574342D01*
X84005304Y-129479104D01*
X84005304Y-129288628D01*
X83957685Y-129193390D01*
X83910066Y-129145771D01*
X83814828Y-129098152D01*
X101322142Y-126646057D02*
X101369761Y-126693676D01*
X101417380Y-126836533D01*
X101417380Y-126931771D01*
X101369761Y-127074628D01*
X101274523Y-127169866D01*
X101179285Y-127217485D01*
X100988809Y-127265104D01*
X100845952Y-127265104D01*
X100655476Y-127217485D01*
X100560238Y-127169866D01*
X100465000Y-127074628D01*
X100417380Y-126931771D01*
X100417380Y-126836533D01*
X100465000Y-126693676D01*
X100512619Y-126646057D01*
X100512619Y-126265104D02*
X100465000Y-126217485D01*
X100417380Y-126122247D01*
X100417380Y-125884152D01*
X100465000Y-125788914D01*
X100512619Y-125741295D01*
X100607857Y-125693676D01*
X100703095Y-125693676D01*
X100845952Y-125741295D01*
X101417380Y-126312723D01*
X101417380Y-125693676D01*
X100417380Y-125360342D02*
X100417380Y-124693676D01*
X101417380Y-125122247D01*
X82008742Y-121743742D02*
X81961123Y-121791361D01*
X81818266Y-121838980D01*
X81723028Y-121838980D01*
X81580171Y-121791361D01*
X81484933Y-121696123D01*
X81437314Y-121600885D01*
X81389695Y-121410409D01*
X81389695Y-121267552D01*
X81437314Y-121077076D01*
X81484933Y-120981838D01*
X81580171Y-120886600D01*
X81723028Y-120838980D01*
X81818266Y-120838980D01*
X81961123Y-120886600D01*
X82008742Y-120934219D01*
X82389695Y-120934219D02*
X82437314Y-120886600D01*
X82532552Y-120838980D01*
X82770647Y-120838980D01*
X82865885Y-120886600D01*
X82913504Y-120934219D01*
X82961123Y-121029457D01*
X82961123Y-121124695D01*
X82913504Y-121267552D01*
X82342076Y-121838980D01*
X82961123Y-121838980D01*
X83818266Y-120838980D02*
X83627790Y-120838980D01*
X83532552Y-120886600D01*
X83484933Y-120934219D01*
X83389695Y-121077076D01*
X83342076Y-121267552D01*
X83342076Y-121648504D01*
X83389695Y-121743742D01*
X83437314Y-121791361D01*
X83532552Y-121838980D01*
X83723028Y-121838980D01*
X83818266Y-121791361D01*
X83865885Y-121743742D01*
X83913504Y-121648504D01*
X83913504Y-121410409D01*
X83865885Y-121315171D01*
X83818266Y-121267552D01*
X83723028Y-121219933D01*
X83532552Y-121219933D01*
X83437314Y-121267552D01*
X83389695Y-121315171D01*
X83342076Y-121410409D01*
X93130542Y-130914342D02*
X93082923Y-130961961D01*
X92940066Y-131009580D01*
X92844828Y-131009580D01*
X92701971Y-130961961D01*
X92606733Y-130866723D01*
X92559114Y-130771485D01*
X92511495Y-130581009D01*
X92511495Y-130438152D01*
X92559114Y-130247676D01*
X92606733Y-130152438D01*
X92701971Y-130057200D01*
X92844828Y-130009580D01*
X92940066Y-130009580D01*
X93082923Y-130057200D01*
X93130542Y-130104819D01*
X93511495Y-130104819D02*
X93559114Y-130057200D01*
X93654352Y-130009580D01*
X93892447Y-130009580D01*
X93987685Y-130057200D01*
X94035304Y-130104819D01*
X94082923Y-130200057D01*
X94082923Y-130295295D01*
X94035304Y-130438152D01*
X93463876Y-131009580D01*
X94082923Y-131009580D01*
X94987685Y-130009580D02*
X94511495Y-130009580D01*
X94463876Y-130485771D01*
X94511495Y-130438152D01*
X94606733Y-130390533D01*
X94844828Y-130390533D01*
X94940066Y-130438152D01*
X94987685Y-130485771D01*
X95035304Y-130581009D01*
X95035304Y-130819104D01*
X94987685Y-130914342D01*
X94940066Y-130961961D01*
X94844828Y-131009580D01*
X94606733Y-131009580D01*
X94511495Y-130961961D01*
X94463876Y-130914342D01*
X105100542Y-130474342D02*
X105052923Y-130521961D01*
X104910066Y-130569580D01*
X104814828Y-130569580D01*
X104671971Y-130521961D01*
X104576733Y-130426723D01*
X104529114Y-130331485D01*
X104481495Y-130141009D01*
X104481495Y-129998152D01*
X104529114Y-129807676D01*
X104576733Y-129712438D01*
X104671971Y-129617200D01*
X104814828Y-129569580D01*
X104910066Y-129569580D01*
X105052923Y-129617200D01*
X105100542Y-129664819D01*
X105481495Y-129664819D02*
X105529114Y-129617200D01*
X105624352Y-129569580D01*
X105862447Y-129569580D01*
X105957685Y-129617200D01*
X106005304Y-129664819D01*
X106052923Y-129760057D01*
X106052923Y-129855295D01*
X106005304Y-129998152D01*
X105433876Y-130569580D01*
X106052923Y-130569580D01*
X106910066Y-129902914D02*
X106910066Y-130569580D01*
X106671971Y-129521961D02*
X106433876Y-130236247D01*
X107052923Y-130236247D01*
X78986142Y-118568742D02*
X78938523Y-118616361D01*
X78795666Y-118663980D01*
X78700428Y-118663980D01*
X78557571Y-118616361D01*
X78462333Y-118521123D01*
X78414714Y-118425885D01*
X78367095Y-118235409D01*
X78367095Y-118092552D01*
X78414714Y-117902076D01*
X78462333Y-117806838D01*
X78557571Y-117711600D01*
X78700428Y-117663980D01*
X78795666Y-117663980D01*
X78938523Y-117711600D01*
X78986142Y-117759219D01*
X79367095Y-117759219D02*
X79414714Y-117711600D01*
X79509952Y-117663980D01*
X79748047Y-117663980D01*
X79843285Y-117711600D01*
X79890904Y-117759219D01*
X79938523Y-117854457D01*
X79938523Y-117949695D01*
X79890904Y-118092552D01*
X79319476Y-118663980D01*
X79938523Y-118663980D01*
X80271857Y-117663980D02*
X80890904Y-117663980D01*
X80557571Y-118044933D01*
X80700428Y-118044933D01*
X80795666Y-118092552D01*
X80843285Y-118140171D01*
X80890904Y-118235409D01*
X80890904Y-118473504D01*
X80843285Y-118568742D01*
X80795666Y-118616361D01*
X80700428Y-118663980D01*
X80414714Y-118663980D01*
X80319476Y-118616361D01*
X80271857Y-118568742D01*
X85490542Y-130894342D02*
X85442923Y-130941961D01*
X85300066Y-130989580D01*
X85204828Y-130989580D01*
X85061971Y-130941961D01*
X84966733Y-130846723D01*
X84919114Y-130751485D01*
X84871495Y-130561009D01*
X84871495Y-130418152D01*
X84919114Y-130227676D01*
X84966733Y-130132438D01*
X85061971Y-130037200D01*
X85204828Y-129989580D01*
X85300066Y-129989580D01*
X85442923Y-130037200D01*
X85490542Y-130084819D01*
X85871495Y-130084819D02*
X85919114Y-130037200D01*
X86014352Y-129989580D01*
X86252447Y-129989580D01*
X86347685Y-130037200D01*
X86395304Y-130084819D01*
X86442923Y-130180057D01*
X86442923Y-130275295D01*
X86395304Y-130418152D01*
X85823876Y-130989580D01*
X86442923Y-130989580D01*
X87061971Y-129989580D02*
X87157209Y-129989580D01*
X87252447Y-130037200D01*
X87300066Y-130084819D01*
X87347685Y-130180057D01*
X87395304Y-130370533D01*
X87395304Y-130608628D01*
X87347685Y-130799104D01*
X87300066Y-130894342D01*
X87252447Y-130941961D01*
X87157209Y-130989580D01*
X87061971Y-130989580D01*
X86966733Y-130941961D01*
X86919114Y-130894342D01*
X86871495Y-130799104D01*
X86823876Y-130608628D01*
X86823876Y-130370533D01*
X86871495Y-130180057D01*
X86919114Y-130084819D01*
X86966733Y-130037200D01*
X87061971Y-129989580D01*
X64821342Y-96680257D02*
X64868961Y-96727876D01*
X64916580Y-96870733D01*
X64916580Y-96965971D01*
X64868961Y-97108828D01*
X64773723Y-97204066D01*
X64678485Y-97251685D01*
X64488009Y-97299304D01*
X64345152Y-97299304D01*
X64154676Y-97251685D01*
X64059438Y-97204066D01*
X63964200Y-97108828D01*
X63916580Y-96965971D01*
X63916580Y-96870733D01*
X63964200Y-96727876D01*
X64011819Y-96680257D01*
X64916580Y-95727876D02*
X64916580Y-96299304D01*
X64916580Y-96013590D02*
X63916580Y-96013590D01*
X64059438Y-96108828D01*
X64154676Y-96204066D01*
X64202295Y-96299304D01*
X64916580Y-95251685D02*
X64916580Y-95061209D01*
X64868961Y-94965971D01*
X64821342Y-94918352D01*
X64678485Y-94823114D01*
X64488009Y-94775495D01*
X64107057Y-94775495D01*
X64011819Y-94823114D01*
X63964200Y-94870733D01*
X63916580Y-94965971D01*
X63916580Y-95156447D01*
X63964200Y-95251685D01*
X64011819Y-95299304D01*
X64107057Y-95346923D01*
X64345152Y-95346923D01*
X64440390Y-95299304D01*
X64488009Y-95251685D01*
X64535628Y-95156447D01*
X64535628Y-94965971D01*
X64488009Y-94870733D01*
X64440390Y-94823114D01*
X64345152Y-94775495D01*
X89390542Y-110374342D02*
X89342923Y-110421961D01*
X89200066Y-110469580D01*
X89104828Y-110469580D01*
X88961971Y-110421961D01*
X88866733Y-110326723D01*
X88819114Y-110231485D01*
X88771495Y-110041009D01*
X88771495Y-109898152D01*
X88819114Y-109707676D01*
X88866733Y-109612438D01*
X88961971Y-109517200D01*
X89104828Y-109469580D01*
X89200066Y-109469580D01*
X89342923Y-109517200D01*
X89390542Y-109564819D01*
X90342923Y-110469580D02*
X89771495Y-110469580D01*
X90057209Y-110469580D02*
X90057209Y-109469580D01*
X89961971Y-109612438D01*
X89866733Y-109707676D01*
X89771495Y-109755295D01*
X91200066Y-109802914D02*
X91200066Y-110469580D01*
X90961971Y-109421961D02*
X90723876Y-110136247D01*
X91342923Y-110136247D01*
X86890542Y-114162842D02*
X86842923Y-114210461D01*
X86700066Y-114258080D01*
X86604828Y-114258080D01*
X86461971Y-114210461D01*
X86366733Y-114115223D01*
X86319114Y-114019985D01*
X86271495Y-113829509D01*
X86271495Y-113686652D01*
X86319114Y-113496176D01*
X86366733Y-113400938D01*
X86461971Y-113305700D01*
X86604828Y-113258080D01*
X86700066Y-113258080D01*
X86842923Y-113305700D01*
X86890542Y-113353319D01*
X87842923Y-114258080D02*
X87271495Y-114258080D01*
X87557209Y-114258080D02*
X87557209Y-113258080D01*
X87461971Y-113400938D01*
X87366733Y-113496176D01*
X87271495Y-113543795D01*
X88176257Y-113258080D02*
X88795304Y-113258080D01*
X88461971Y-113639033D01*
X88604828Y-113639033D01*
X88700066Y-113686652D01*
X88747685Y-113734271D01*
X88795304Y-113829509D01*
X88795304Y-114067604D01*
X88747685Y-114162842D01*
X88700066Y-114210461D01*
X88604828Y-114258080D01*
X88319114Y-114258080D01*
X88223876Y-114210461D01*
X88176257Y-114162842D01*
X49801542Y-104294942D02*
X49753923Y-104342561D01*
X49611066Y-104390180D01*
X49515828Y-104390180D01*
X49372971Y-104342561D01*
X49277733Y-104247323D01*
X49230114Y-104152085D01*
X49182495Y-103961609D01*
X49182495Y-103818752D01*
X49230114Y-103628276D01*
X49277733Y-103533038D01*
X49372971Y-103437800D01*
X49515828Y-103390180D01*
X49611066Y-103390180D01*
X49753923Y-103437800D01*
X49801542Y-103485419D01*
X50753923Y-104390180D02*
X50182495Y-104390180D01*
X50468209Y-104390180D02*
X50468209Y-103390180D01*
X50372971Y-103533038D01*
X50277733Y-103628276D01*
X50182495Y-103675895D01*
X51134876Y-103485419D02*
X51182495Y-103437800D01*
X51277733Y-103390180D01*
X51515828Y-103390180D01*
X51611066Y-103437800D01*
X51658685Y-103485419D01*
X51706304Y-103580657D01*
X51706304Y-103675895D01*
X51658685Y-103818752D01*
X51087257Y-104390180D01*
X51706304Y-104390180D01*
X84540542Y-93960057D02*
X84588161Y-94007676D01*
X84635780Y-94150533D01*
X84635780Y-94245771D01*
X84588161Y-94388628D01*
X84492923Y-94483866D01*
X84397685Y-94531485D01*
X84207209Y-94579104D01*
X84064352Y-94579104D01*
X83873876Y-94531485D01*
X83778638Y-94483866D01*
X83683400Y-94388628D01*
X83635780Y-94245771D01*
X83635780Y-94150533D01*
X83683400Y-94007676D01*
X83731019Y-93960057D01*
X84635780Y-93007676D02*
X84635780Y-93579104D01*
X84635780Y-93293390D02*
X83635780Y-93293390D01*
X83778638Y-93388628D01*
X83873876Y-93483866D01*
X83921495Y-93579104D01*
X84635780Y-92055295D02*
X84635780Y-92626723D01*
X84635780Y-92341009D02*
X83635780Y-92341009D01*
X83778638Y-92436247D01*
X83873876Y-92531485D01*
X83921495Y-92626723D01*
X82300542Y-91194342D02*
X82252923Y-91241961D01*
X82110066Y-91289580D01*
X82014828Y-91289580D01*
X81871971Y-91241961D01*
X81776733Y-91146723D01*
X81729114Y-91051485D01*
X81681495Y-90861009D01*
X81681495Y-90718152D01*
X81729114Y-90527676D01*
X81776733Y-90432438D01*
X81871971Y-90337200D01*
X82014828Y-90289580D01*
X82110066Y-90289580D01*
X82252923Y-90337200D01*
X82300542Y-90384819D01*
X83252923Y-91289580D02*
X82681495Y-91289580D01*
X82967209Y-91289580D02*
X82967209Y-90289580D01*
X82871971Y-90432438D01*
X82776733Y-90527676D01*
X82681495Y-90575295D01*
X83871971Y-90289580D02*
X83967209Y-90289580D01*
X84062447Y-90337200D01*
X84110066Y-90384819D01*
X84157685Y-90480057D01*
X84205304Y-90670533D01*
X84205304Y-90908628D01*
X84157685Y-91099104D01*
X84110066Y-91194342D01*
X84062447Y-91241961D01*
X83967209Y-91289580D01*
X83871971Y-91289580D01*
X83776733Y-91241961D01*
X83729114Y-91194342D01*
X83681495Y-91099104D01*
X83633876Y-90908628D01*
X83633876Y-90670533D01*
X83681495Y-90480057D01*
X83729114Y-90384819D01*
X83776733Y-90337200D01*
X83871971Y-90289580D01*
X81411673Y-115415602D02*
X81364054Y-115463221D01*
X81221197Y-115510840D01*
X81125959Y-115510840D01*
X80983101Y-115463221D01*
X80887863Y-115367983D01*
X80840244Y-115272745D01*
X80792625Y-115082269D01*
X80792625Y-114939412D01*
X80840244Y-114748936D01*
X80887863Y-114653698D01*
X80983101Y-114558460D01*
X81125959Y-114510840D01*
X81221197Y-114510840D01*
X81364054Y-114558460D01*
X81411673Y-114606079D01*
X81983101Y-114939412D02*
X81887863Y-114891793D01*
X81840244Y-114844174D01*
X81792625Y-114748936D01*
X81792625Y-114701317D01*
X81840244Y-114606079D01*
X81887863Y-114558460D01*
X81983101Y-114510840D01*
X82173578Y-114510840D01*
X82268816Y-114558460D01*
X82316435Y-114606079D01*
X82364054Y-114701317D01*
X82364054Y-114748936D01*
X82316435Y-114844174D01*
X82268816Y-114891793D01*
X82173578Y-114939412D01*
X81983101Y-114939412D01*
X81887863Y-114987031D01*
X81840244Y-115034650D01*
X81792625Y-115129888D01*
X81792625Y-115320364D01*
X81840244Y-115415602D01*
X81887863Y-115463221D01*
X81983101Y-115510840D01*
X82173578Y-115510840D01*
X82268816Y-115463221D01*
X82316435Y-115415602D01*
X82364054Y-115320364D01*
X82364054Y-115129888D01*
X82316435Y-115034650D01*
X82268816Y-114987031D01*
X82173578Y-114939412D01*
X71807933Y-114122742D02*
X71760314Y-114170361D01*
X71617457Y-114217980D01*
X71522219Y-114217980D01*
X71379361Y-114170361D01*
X71284123Y-114075123D01*
X71236504Y-113979885D01*
X71188885Y-113789409D01*
X71188885Y-113646552D01*
X71236504Y-113456076D01*
X71284123Y-113360838D01*
X71379361Y-113265600D01*
X71522219Y-113217980D01*
X71617457Y-113217980D01*
X71760314Y-113265600D01*
X71807933Y-113313219D01*
X72665076Y-113217980D02*
X72474600Y-113217980D01*
X72379361Y-113265600D01*
X72331742Y-113313219D01*
X72236504Y-113456076D01*
X72188885Y-113646552D01*
X72188885Y-114027504D01*
X72236504Y-114122742D01*
X72284123Y-114170361D01*
X72379361Y-114217980D01*
X72569838Y-114217980D01*
X72665076Y-114170361D01*
X72712695Y-114122742D01*
X72760314Y-114027504D01*
X72760314Y-113789409D01*
X72712695Y-113694171D01*
X72665076Y-113646552D01*
X72569838Y-113598933D01*
X72379361Y-113598933D01*
X72284123Y-113646552D01*
X72236504Y-113694171D01*
X72188885Y-113789409D01*
X66990542Y-112733866D02*
X67038161Y-112781485D01*
X67085780Y-112924342D01*
X67085780Y-113019580D01*
X67038161Y-113162438D01*
X66942923Y-113257676D01*
X66847685Y-113305295D01*
X66657209Y-113352914D01*
X66514352Y-113352914D01*
X66323876Y-113305295D01*
X66228638Y-113257676D01*
X66133400Y-113162438D01*
X66085780Y-113019580D01*
X66085780Y-112924342D01*
X66133400Y-112781485D01*
X66181019Y-112733866D01*
X66419114Y-111876723D02*
X67085780Y-111876723D01*
X66038161Y-112114819D02*
X66752447Y-112352914D01*
X66752447Y-111733866D01*
X86390542Y-103683866D02*
X86438161Y-103731485D01*
X86485780Y-103874342D01*
X86485780Y-103969580D01*
X86438161Y-104112438D01*
X86342923Y-104207676D01*
X86247685Y-104255295D01*
X86057209Y-104302914D01*
X85914352Y-104302914D01*
X85723876Y-104255295D01*
X85628638Y-104207676D01*
X85533400Y-104112438D01*
X85485780Y-103969580D01*
X85485780Y-103874342D01*
X85533400Y-103731485D01*
X85581019Y-103683866D01*
X85581019Y-103302914D02*
X85533400Y-103255295D01*
X85485780Y-103160057D01*
X85485780Y-102921961D01*
X85533400Y-102826723D01*
X85581019Y-102779104D01*
X85676257Y-102731485D01*
X85771495Y-102731485D01*
X85914352Y-102779104D01*
X86485780Y-103350533D01*
X86485780Y-102731485D01*
X71800533Y-116154742D02*
X71752914Y-116202361D01*
X71610057Y-116249980D01*
X71514819Y-116249980D01*
X71371961Y-116202361D01*
X71276723Y-116107123D01*
X71229104Y-116011885D01*
X71181485Y-115821409D01*
X71181485Y-115678552D01*
X71229104Y-115488076D01*
X71276723Y-115392838D01*
X71371961Y-115297600D01*
X71514819Y-115249980D01*
X71610057Y-115249980D01*
X71752914Y-115297600D01*
X71800533Y-115345219D01*
X72752914Y-116249980D02*
X72181485Y-116249980D01*
X72467200Y-116249980D02*
X72467200Y-115249980D01*
X72371961Y-115392838D01*
X72276723Y-115488076D01*
X72181485Y-115535695D01*
M02*
