G04 #@! TF.GenerationSoftware,KiCad,Pcbnew,(6.0.0-rc1-dev-1561-g9cac0a38c)*
G04 #@! TF.CreationDate,2019-06-17T18:23:23+02:00
G04 #@! TF.ProjectId,canbox,63616e62-6f78-42e6-9b69-6361645f7063,rev?*
G04 #@! TF.SameCoordinates,Original*
G04 #@! TF.FileFunction,Paste,Top*
G04 #@! TF.FilePolarity,Positive*
%FSLAX46Y46*%
G04 Gerber Fmt 4.6, Leading zero omitted, Abs format (unit mm)*
G04 Created by KiCad (PCBNEW (6.0.0-rc1-dev-1561-g9cac0a38c)) date Mon 17 Jun 2019 06:23:23 PM CEST*
%MOMM*%
%LPD*%
G04 APERTURE LIST*
%ADD10R,4.600000X2.500000*%
%ADD11C,0.100000*%
%ADD12C,1.150000*%
%ADD13R,2.300000X2.300000*%
%ADD14O,1.400000X0.250000*%
%ADD15O,0.250000X1.400000*%
%ADD16R,0.280000X1.500000*%
%ADD17R,1.500000X0.280000*%
%ADD18R,1.900000X0.280000*%
%ADD19R,2.500000X3.300000*%
%ADD20C,1.500000*%
%ADD21R,0.600000X1.550000*%
%ADD22R,1.524000X1.524000*%
%ADD23C,0.950000*%
%ADD24R,3.000000X0.400000*%
G04 APERTURE END LIST*
D10*
X50088800Y-83543800D03*
X50088800Y-90443800D03*
D11*
G36*
X48794705Y-116573004D02*
G01*
X48818973Y-116576604D01*
X48842772Y-116582565D01*
X48865871Y-116590830D01*
X48888050Y-116601320D01*
X48909093Y-116613932D01*
X48928799Y-116628547D01*
X48946977Y-116645023D01*
X48963453Y-116663201D01*
X48978068Y-116682907D01*
X48990680Y-116703950D01*
X49001170Y-116726129D01*
X49009435Y-116749228D01*
X49015396Y-116773027D01*
X49018996Y-116797295D01*
X49020200Y-116821799D01*
X49020200Y-117721801D01*
X49018996Y-117746305D01*
X49015396Y-117770573D01*
X49009435Y-117794372D01*
X49001170Y-117817471D01*
X48990680Y-117839650D01*
X48978068Y-117860693D01*
X48963453Y-117880399D01*
X48946977Y-117898577D01*
X48928799Y-117915053D01*
X48909093Y-117929668D01*
X48888050Y-117942280D01*
X48865871Y-117952770D01*
X48842772Y-117961035D01*
X48818973Y-117966996D01*
X48794705Y-117970596D01*
X48770201Y-117971800D01*
X48120199Y-117971800D01*
X48095695Y-117970596D01*
X48071427Y-117966996D01*
X48047628Y-117961035D01*
X48024529Y-117952770D01*
X48002350Y-117942280D01*
X47981307Y-117929668D01*
X47961601Y-117915053D01*
X47943423Y-117898577D01*
X47926947Y-117880399D01*
X47912332Y-117860693D01*
X47899720Y-117839650D01*
X47889230Y-117817471D01*
X47880965Y-117794372D01*
X47875004Y-117770573D01*
X47871404Y-117746305D01*
X47870200Y-117721801D01*
X47870200Y-116821799D01*
X47871404Y-116797295D01*
X47875004Y-116773027D01*
X47880965Y-116749228D01*
X47889230Y-116726129D01*
X47899720Y-116703950D01*
X47912332Y-116682907D01*
X47926947Y-116663201D01*
X47943423Y-116645023D01*
X47961601Y-116628547D01*
X47981307Y-116613932D01*
X48002350Y-116601320D01*
X48024529Y-116590830D01*
X48047628Y-116582565D01*
X48071427Y-116576604D01*
X48095695Y-116573004D01*
X48120199Y-116571800D01*
X48770201Y-116571800D01*
X48794705Y-116573004D01*
X48794705Y-116573004D01*
G37*
D12*
X48445200Y-117271800D03*
D11*
G36*
X50844705Y-116573004D02*
G01*
X50868973Y-116576604D01*
X50892772Y-116582565D01*
X50915871Y-116590830D01*
X50938050Y-116601320D01*
X50959093Y-116613932D01*
X50978799Y-116628547D01*
X50996977Y-116645023D01*
X51013453Y-116663201D01*
X51028068Y-116682907D01*
X51040680Y-116703950D01*
X51051170Y-116726129D01*
X51059435Y-116749228D01*
X51065396Y-116773027D01*
X51068996Y-116797295D01*
X51070200Y-116821799D01*
X51070200Y-117721801D01*
X51068996Y-117746305D01*
X51065396Y-117770573D01*
X51059435Y-117794372D01*
X51051170Y-117817471D01*
X51040680Y-117839650D01*
X51028068Y-117860693D01*
X51013453Y-117880399D01*
X50996977Y-117898577D01*
X50978799Y-117915053D01*
X50959093Y-117929668D01*
X50938050Y-117942280D01*
X50915871Y-117952770D01*
X50892772Y-117961035D01*
X50868973Y-117966996D01*
X50844705Y-117970596D01*
X50820201Y-117971800D01*
X50170199Y-117971800D01*
X50145695Y-117970596D01*
X50121427Y-117966996D01*
X50097628Y-117961035D01*
X50074529Y-117952770D01*
X50052350Y-117942280D01*
X50031307Y-117929668D01*
X50011601Y-117915053D01*
X49993423Y-117898577D01*
X49976947Y-117880399D01*
X49962332Y-117860693D01*
X49949720Y-117839650D01*
X49939230Y-117817471D01*
X49930965Y-117794372D01*
X49925004Y-117770573D01*
X49921404Y-117746305D01*
X49920200Y-117721801D01*
X49920200Y-116821799D01*
X49921404Y-116797295D01*
X49925004Y-116773027D01*
X49930965Y-116749228D01*
X49939230Y-116726129D01*
X49949720Y-116703950D01*
X49962332Y-116682907D01*
X49976947Y-116663201D01*
X49993423Y-116645023D01*
X50011601Y-116628547D01*
X50031307Y-116613932D01*
X50052350Y-116601320D01*
X50074529Y-116590830D01*
X50097628Y-116582565D01*
X50121427Y-116576604D01*
X50145695Y-116573004D01*
X50170199Y-116571800D01*
X50820201Y-116571800D01*
X50844705Y-116573004D01*
X50844705Y-116573004D01*
G37*
D12*
X50495200Y-117271800D03*
D13*
X95283400Y-122267200D03*
X92783400Y-122267200D03*
X95283400Y-124767200D03*
X92783400Y-124767200D03*
D14*
X89783400Y-126767200D03*
X89783400Y-126267200D03*
X89783400Y-125767200D03*
X89783400Y-125267200D03*
X89783400Y-124767200D03*
X89783400Y-124267200D03*
X89783400Y-123767200D03*
X89783400Y-123267200D03*
X89783400Y-122767200D03*
X89783400Y-122267200D03*
X89783400Y-121767200D03*
X89783400Y-121267200D03*
X89783400Y-120767200D03*
X89783400Y-120267200D03*
D15*
X90783400Y-119267200D03*
X91283400Y-119267200D03*
X91783400Y-119267200D03*
X92283400Y-119267200D03*
X92783400Y-119267200D03*
X93283400Y-119267200D03*
X93783400Y-119267200D03*
X94283400Y-119267200D03*
X94783400Y-119267200D03*
X95283400Y-119267200D03*
X95783400Y-119267200D03*
X96283400Y-119267200D03*
X96783400Y-119267200D03*
X97283400Y-119267200D03*
D14*
X98283400Y-120267200D03*
X98283400Y-120767200D03*
X98283400Y-121267200D03*
X98283400Y-121767200D03*
X98283400Y-122267200D03*
X98283400Y-122767200D03*
X98283400Y-123267200D03*
X98283400Y-123767200D03*
X98283400Y-124267200D03*
X98283400Y-124767200D03*
X98283400Y-125267200D03*
X98283400Y-125767200D03*
X98283400Y-126267200D03*
X98283400Y-126767200D03*
D15*
X97283400Y-127767200D03*
X96783400Y-127767200D03*
X96283400Y-127767200D03*
X95783400Y-127767200D03*
X95283400Y-127767200D03*
X94783400Y-127767200D03*
X94283400Y-127767200D03*
X93783400Y-127767200D03*
X93283400Y-127767200D03*
X92783400Y-127767200D03*
X92283400Y-127767200D03*
X91783400Y-127767200D03*
X91283400Y-127767200D03*
X90783400Y-127767200D03*
D11*
G36*
X56414705Y-121145004D02*
G01*
X56438973Y-121148604D01*
X56462772Y-121154565D01*
X56485871Y-121162830D01*
X56508050Y-121173320D01*
X56529093Y-121185932D01*
X56548799Y-121200547D01*
X56566977Y-121217023D01*
X56583453Y-121235201D01*
X56598068Y-121254907D01*
X56610680Y-121275950D01*
X56621170Y-121298129D01*
X56629435Y-121321228D01*
X56635396Y-121345027D01*
X56638996Y-121369295D01*
X56640200Y-121393799D01*
X56640200Y-122293801D01*
X56638996Y-122318305D01*
X56635396Y-122342573D01*
X56629435Y-122366372D01*
X56621170Y-122389471D01*
X56610680Y-122411650D01*
X56598068Y-122432693D01*
X56583453Y-122452399D01*
X56566977Y-122470577D01*
X56548799Y-122487053D01*
X56529093Y-122501668D01*
X56508050Y-122514280D01*
X56485871Y-122524770D01*
X56462772Y-122533035D01*
X56438973Y-122538996D01*
X56414705Y-122542596D01*
X56390201Y-122543800D01*
X55740199Y-122543800D01*
X55715695Y-122542596D01*
X55691427Y-122538996D01*
X55667628Y-122533035D01*
X55644529Y-122524770D01*
X55622350Y-122514280D01*
X55601307Y-122501668D01*
X55581601Y-122487053D01*
X55563423Y-122470577D01*
X55546947Y-122452399D01*
X55532332Y-122432693D01*
X55519720Y-122411650D01*
X55509230Y-122389471D01*
X55500965Y-122366372D01*
X55495004Y-122342573D01*
X55491404Y-122318305D01*
X55490200Y-122293801D01*
X55490200Y-121393799D01*
X55491404Y-121369295D01*
X55495004Y-121345027D01*
X55500965Y-121321228D01*
X55509230Y-121298129D01*
X55519720Y-121275950D01*
X55532332Y-121254907D01*
X55546947Y-121235201D01*
X55563423Y-121217023D01*
X55581601Y-121200547D01*
X55601307Y-121185932D01*
X55622350Y-121173320D01*
X55644529Y-121162830D01*
X55667628Y-121154565D01*
X55691427Y-121148604D01*
X55715695Y-121145004D01*
X55740199Y-121143800D01*
X56390201Y-121143800D01*
X56414705Y-121145004D01*
X56414705Y-121145004D01*
G37*
D12*
X56065200Y-121843800D03*
D11*
G36*
X58464705Y-121145004D02*
G01*
X58488973Y-121148604D01*
X58512772Y-121154565D01*
X58535871Y-121162830D01*
X58558050Y-121173320D01*
X58579093Y-121185932D01*
X58598799Y-121200547D01*
X58616977Y-121217023D01*
X58633453Y-121235201D01*
X58648068Y-121254907D01*
X58660680Y-121275950D01*
X58671170Y-121298129D01*
X58679435Y-121321228D01*
X58685396Y-121345027D01*
X58688996Y-121369295D01*
X58690200Y-121393799D01*
X58690200Y-122293801D01*
X58688996Y-122318305D01*
X58685396Y-122342573D01*
X58679435Y-122366372D01*
X58671170Y-122389471D01*
X58660680Y-122411650D01*
X58648068Y-122432693D01*
X58633453Y-122452399D01*
X58616977Y-122470577D01*
X58598799Y-122487053D01*
X58579093Y-122501668D01*
X58558050Y-122514280D01*
X58535871Y-122524770D01*
X58512772Y-122533035D01*
X58488973Y-122538996D01*
X58464705Y-122542596D01*
X58440201Y-122543800D01*
X57790199Y-122543800D01*
X57765695Y-122542596D01*
X57741427Y-122538996D01*
X57717628Y-122533035D01*
X57694529Y-122524770D01*
X57672350Y-122514280D01*
X57651307Y-122501668D01*
X57631601Y-122487053D01*
X57613423Y-122470577D01*
X57596947Y-122452399D01*
X57582332Y-122432693D01*
X57569720Y-122411650D01*
X57559230Y-122389471D01*
X57550965Y-122366372D01*
X57545004Y-122342573D01*
X57541404Y-122318305D01*
X57540200Y-122293801D01*
X57540200Y-121393799D01*
X57541404Y-121369295D01*
X57545004Y-121345027D01*
X57550965Y-121321228D01*
X57559230Y-121298129D01*
X57569720Y-121275950D01*
X57582332Y-121254907D01*
X57596947Y-121235201D01*
X57613423Y-121217023D01*
X57631601Y-121200547D01*
X57651307Y-121185932D01*
X57672350Y-121173320D01*
X57694529Y-121162830D01*
X57717628Y-121154565D01*
X57741427Y-121148604D01*
X57765695Y-121145004D01*
X57790199Y-121143800D01*
X58440201Y-121143800D01*
X58464705Y-121145004D01*
X58464705Y-121145004D01*
G37*
D12*
X58115200Y-121843800D03*
D11*
G36*
X62749905Y-121145004D02*
G01*
X62774173Y-121148604D01*
X62797972Y-121154565D01*
X62821071Y-121162830D01*
X62843250Y-121173320D01*
X62864293Y-121185932D01*
X62883999Y-121200547D01*
X62902177Y-121217023D01*
X62918653Y-121235201D01*
X62933268Y-121254907D01*
X62945880Y-121275950D01*
X62956370Y-121298129D01*
X62964635Y-121321228D01*
X62970596Y-121345027D01*
X62974196Y-121369295D01*
X62975400Y-121393799D01*
X62975400Y-122293801D01*
X62974196Y-122318305D01*
X62970596Y-122342573D01*
X62964635Y-122366372D01*
X62956370Y-122389471D01*
X62945880Y-122411650D01*
X62933268Y-122432693D01*
X62918653Y-122452399D01*
X62902177Y-122470577D01*
X62883999Y-122487053D01*
X62864293Y-122501668D01*
X62843250Y-122514280D01*
X62821071Y-122524770D01*
X62797972Y-122533035D01*
X62774173Y-122538996D01*
X62749905Y-122542596D01*
X62725401Y-122543800D01*
X62075399Y-122543800D01*
X62050895Y-122542596D01*
X62026627Y-122538996D01*
X62002828Y-122533035D01*
X61979729Y-122524770D01*
X61957550Y-122514280D01*
X61936507Y-122501668D01*
X61916801Y-122487053D01*
X61898623Y-122470577D01*
X61882147Y-122452399D01*
X61867532Y-122432693D01*
X61854920Y-122411650D01*
X61844430Y-122389471D01*
X61836165Y-122366372D01*
X61830204Y-122342573D01*
X61826604Y-122318305D01*
X61825400Y-122293801D01*
X61825400Y-121393799D01*
X61826604Y-121369295D01*
X61830204Y-121345027D01*
X61836165Y-121321228D01*
X61844430Y-121298129D01*
X61854920Y-121275950D01*
X61867532Y-121254907D01*
X61882147Y-121235201D01*
X61898623Y-121217023D01*
X61916801Y-121200547D01*
X61936507Y-121185932D01*
X61957550Y-121173320D01*
X61979729Y-121162830D01*
X62002828Y-121154565D01*
X62026627Y-121148604D01*
X62050895Y-121145004D01*
X62075399Y-121143800D01*
X62725401Y-121143800D01*
X62749905Y-121145004D01*
X62749905Y-121145004D01*
G37*
D12*
X62400400Y-121843800D03*
D11*
G36*
X60699905Y-121145004D02*
G01*
X60724173Y-121148604D01*
X60747972Y-121154565D01*
X60771071Y-121162830D01*
X60793250Y-121173320D01*
X60814293Y-121185932D01*
X60833999Y-121200547D01*
X60852177Y-121217023D01*
X60868653Y-121235201D01*
X60883268Y-121254907D01*
X60895880Y-121275950D01*
X60906370Y-121298129D01*
X60914635Y-121321228D01*
X60920596Y-121345027D01*
X60924196Y-121369295D01*
X60925400Y-121393799D01*
X60925400Y-122293801D01*
X60924196Y-122318305D01*
X60920596Y-122342573D01*
X60914635Y-122366372D01*
X60906370Y-122389471D01*
X60895880Y-122411650D01*
X60883268Y-122432693D01*
X60868653Y-122452399D01*
X60852177Y-122470577D01*
X60833999Y-122487053D01*
X60814293Y-122501668D01*
X60793250Y-122514280D01*
X60771071Y-122524770D01*
X60747972Y-122533035D01*
X60724173Y-122538996D01*
X60699905Y-122542596D01*
X60675401Y-122543800D01*
X60025399Y-122543800D01*
X60000895Y-122542596D01*
X59976627Y-122538996D01*
X59952828Y-122533035D01*
X59929729Y-122524770D01*
X59907550Y-122514280D01*
X59886507Y-122501668D01*
X59866801Y-122487053D01*
X59848623Y-122470577D01*
X59832147Y-122452399D01*
X59817532Y-122432693D01*
X59804920Y-122411650D01*
X59794430Y-122389471D01*
X59786165Y-122366372D01*
X59780204Y-122342573D01*
X59776604Y-122318305D01*
X59775400Y-122293801D01*
X59775400Y-121393799D01*
X59776604Y-121369295D01*
X59780204Y-121345027D01*
X59786165Y-121321228D01*
X59794430Y-121298129D01*
X59804920Y-121275950D01*
X59817532Y-121254907D01*
X59832147Y-121235201D01*
X59848623Y-121217023D01*
X59866801Y-121200547D01*
X59886507Y-121185932D01*
X59907550Y-121173320D01*
X59929729Y-121162830D01*
X59952828Y-121154565D01*
X59976627Y-121148604D01*
X60000895Y-121145004D01*
X60025399Y-121143800D01*
X60675401Y-121143800D01*
X60699905Y-121145004D01*
X60699905Y-121145004D01*
G37*
D12*
X60350400Y-121843800D03*
D16*
X68644000Y-93711000D03*
X69144000Y-93711000D03*
X69644000Y-93711000D03*
X70144000Y-93711000D03*
X70644000Y-93711000D03*
X71144000Y-93711000D03*
X71644000Y-93711000D03*
X72144000Y-93711000D03*
X72644000Y-93711000D03*
X73144000Y-93711000D03*
X73644000Y-93711000D03*
X74144000Y-93711000D03*
X74644000Y-93711000D03*
X75144000Y-93711000D03*
X75644000Y-93711000D03*
X76144000Y-93711000D03*
X76644000Y-93711000D03*
X77144000Y-93711000D03*
X77644000Y-93711000D03*
X78144000Y-93711000D03*
X78644000Y-93711000D03*
X79144000Y-93711000D03*
X79644000Y-93711000D03*
X80144000Y-93711000D03*
X80644000Y-93711000D03*
D17*
X82544000Y-95611000D03*
X82544000Y-96111000D03*
X82544000Y-96611000D03*
X82544000Y-97111000D03*
X82544000Y-97611000D03*
X82544000Y-98111000D03*
X82544000Y-98611000D03*
X82544000Y-99111000D03*
X82544000Y-99611000D03*
X82544000Y-100111000D03*
X82544000Y-100611000D03*
X82544000Y-101111000D03*
X82544000Y-101611000D03*
X82544000Y-102111000D03*
X82544000Y-102611000D03*
X82544000Y-103111000D03*
X82544000Y-103611000D03*
X82544000Y-104111000D03*
X82544000Y-104611000D03*
X82544000Y-105111000D03*
X82544000Y-105611000D03*
X82544000Y-106111000D03*
X82544000Y-106611000D03*
X82544000Y-107111000D03*
X82544000Y-107611000D03*
D16*
X80644000Y-109511000D03*
X80144000Y-109511000D03*
X79644000Y-109511000D03*
X79144000Y-109511000D03*
X78644000Y-109511000D03*
X78144000Y-109511000D03*
X77644000Y-109511000D03*
X77144000Y-109511000D03*
X76644000Y-109511000D03*
X76144000Y-109511000D03*
X75644000Y-109511000D03*
X75144000Y-109511000D03*
X74644000Y-109511000D03*
X74144000Y-109511000D03*
X73644000Y-109511000D03*
X73144000Y-109511000D03*
X72644000Y-109511000D03*
X72144000Y-109511000D03*
X71644000Y-109511000D03*
X71144000Y-109511000D03*
X70644000Y-109511000D03*
X70144000Y-109511000D03*
X69644000Y-109511000D03*
X69144000Y-109511000D03*
X68644000Y-109511000D03*
D17*
X66744000Y-107611000D03*
X66744000Y-107111000D03*
X66744000Y-106611000D03*
X66744000Y-106111000D03*
X66744000Y-105611000D03*
X66744000Y-105111000D03*
X66744000Y-104611000D03*
X66744000Y-104111000D03*
X66744000Y-103611000D03*
X66744000Y-103111000D03*
X66744000Y-102611000D03*
X66744000Y-102111000D03*
X66744000Y-101611000D03*
X66744000Y-101111000D03*
X66744000Y-100611000D03*
X66744000Y-100111000D03*
X66744000Y-99611000D03*
X66744000Y-99111000D03*
X66744000Y-98611000D03*
X66744000Y-98111000D03*
X66744000Y-97611000D03*
X66744000Y-97111000D03*
X66744000Y-96611000D03*
X66744000Y-96111000D03*
D18*
X66744000Y-95611000D03*
D19*
X44296800Y-95707200D03*
X51096800Y-95707200D03*
D11*
G36*
X49318504Y-120289004D02*
G01*
X49342773Y-120292604D01*
X49366571Y-120298565D01*
X49389671Y-120306830D01*
X49411849Y-120317320D01*
X49432893Y-120329933D01*
X49452598Y-120344547D01*
X49470777Y-120361023D01*
X49487253Y-120379202D01*
X49501867Y-120398907D01*
X49514480Y-120419951D01*
X49524970Y-120442129D01*
X49533235Y-120465229D01*
X49539196Y-120489027D01*
X49542796Y-120513296D01*
X49544000Y-120537800D01*
X49544000Y-122387800D01*
X49542796Y-122412304D01*
X49539196Y-122436573D01*
X49533235Y-122460371D01*
X49524970Y-122483471D01*
X49514480Y-122505649D01*
X49501867Y-122526693D01*
X49487253Y-122546398D01*
X49470777Y-122564577D01*
X49452598Y-122581053D01*
X49432893Y-122595667D01*
X49411849Y-122608280D01*
X49389671Y-122618770D01*
X49366571Y-122627035D01*
X49342773Y-122632996D01*
X49318504Y-122636596D01*
X49294000Y-122637800D01*
X48294000Y-122637800D01*
X48269496Y-122636596D01*
X48245227Y-122632996D01*
X48221429Y-122627035D01*
X48198329Y-122618770D01*
X48176151Y-122608280D01*
X48155107Y-122595667D01*
X48135402Y-122581053D01*
X48117223Y-122564577D01*
X48100747Y-122546398D01*
X48086133Y-122526693D01*
X48073520Y-122505649D01*
X48063030Y-122483471D01*
X48054765Y-122460371D01*
X48048804Y-122436573D01*
X48045204Y-122412304D01*
X48044000Y-122387800D01*
X48044000Y-120537800D01*
X48045204Y-120513296D01*
X48048804Y-120489027D01*
X48054765Y-120465229D01*
X48063030Y-120442129D01*
X48073520Y-120419951D01*
X48086133Y-120398907D01*
X48100747Y-120379202D01*
X48117223Y-120361023D01*
X48135402Y-120344547D01*
X48155107Y-120329933D01*
X48176151Y-120317320D01*
X48198329Y-120306830D01*
X48221429Y-120298565D01*
X48245227Y-120292604D01*
X48269496Y-120289004D01*
X48294000Y-120287800D01*
X49294000Y-120287800D01*
X49318504Y-120289004D01*
X49318504Y-120289004D01*
G37*
D20*
X48794000Y-121462800D03*
D11*
G36*
X52568504Y-120289004D02*
G01*
X52592773Y-120292604D01*
X52616571Y-120298565D01*
X52639671Y-120306830D01*
X52661849Y-120317320D01*
X52682893Y-120329933D01*
X52702598Y-120344547D01*
X52720777Y-120361023D01*
X52737253Y-120379202D01*
X52751867Y-120398907D01*
X52764480Y-120419951D01*
X52774970Y-120442129D01*
X52783235Y-120465229D01*
X52789196Y-120489027D01*
X52792796Y-120513296D01*
X52794000Y-120537800D01*
X52794000Y-122387800D01*
X52792796Y-122412304D01*
X52789196Y-122436573D01*
X52783235Y-122460371D01*
X52774970Y-122483471D01*
X52764480Y-122505649D01*
X52751867Y-122526693D01*
X52737253Y-122546398D01*
X52720777Y-122564577D01*
X52702598Y-122581053D01*
X52682893Y-122595667D01*
X52661849Y-122608280D01*
X52639671Y-122618770D01*
X52616571Y-122627035D01*
X52592773Y-122632996D01*
X52568504Y-122636596D01*
X52544000Y-122637800D01*
X51544000Y-122637800D01*
X51519496Y-122636596D01*
X51495227Y-122632996D01*
X51471429Y-122627035D01*
X51448329Y-122618770D01*
X51426151Y-122608280D01*
X51405107Y-122595667D01*
X51385402Y-122581053D01*
X51367223Y-122564577D01*
X51350747Y-122546398D01*
X51336133Y-122526693D01*
X51323520Y-122505649D01*
X51313030Y-122483471D01*
X51304765Y-122460371D01*
X51298804Y-122436573D01*
X51295204Y-122412304D01*
X51294000Y-122387800D01*
X51294000Y-120537800D01*
X51295204Y-120513296D01*
X51298804Y-120489027D01*
X51304765Y-120465229D01*
X51313030Y-120442129D01*
X51323520Y-120419951D01*
X51336133Y-120398907D01*
X51350747Y-120379202D01*
X51367223Y-120361023D01*
X51385402Y-120344547D01*
X51405107Y-120329933D01*
X51426151Y-120317320D01*
X51448329Y-120306830D01*
X51471429Y-120298565D01*
X51495227Y-120292604D01*
X51519496Y-120289004D01*
X51544000Y-120287800D01*
X52544000Y-120287800D01*
X52568504Y-120289004D01*
X52568504Y-120289004D01*
G37*
D20*
X52044000Y-121462800D03*
D11*
G36*
X78978905Y-87972604D02*
G01*
X79003173Y-87976204D01*
X79026972Y-87982165D01*
X79050071Y-87990430D01*
X79072250Y-88000920D01*
X79093293Y-88013532D01*
X79112999Y-88028147D01*
X79131177Y-88044623D01*
X79147653Y-88062801D01*
X79162268Y-88082507D01*
X79174880Y-88103550D01*
X79185370Y-88125729D01*
X79193635Y-88148828D01*
X79199596Y-88172627D01*
X79203196Y-88196895D01*
X79204400Y-88221399D01*
X79204400Y-89121401D01*
X79203196Y-89145905D01*
X79199596Y-89170173D01*
X79193635Y-89193972D01*
X79185370Y-89217071D01*
X79174880Y-89239250D01*
X79162268Y-89260293D01*
X79147653Y-89279999D01*
X79131177Y-89298177D01*
X79112999Y-89314653D01*
X79093293Y-89329268D01*
X79072250Y-89341880D01*
X79050071Y-89352370D01*
X79026972Y-89360635D01*
X79003173Y-89366596D01*
X78978905Y-89370196D01*
X78954401Y-89371400D01*
X78304399Y-89371400D01*
X78279895Y-89370196D01*
X78255627Y-89366596D01*
X78231828Y-89360635D01*
X78208729Y-89352370D01*
X78186550Y-89341880D01*
X78165507Y-89329268D01*
X78145801Y-89314653D01*
X78127623Y-89298177D01*
X78111147Y-89279999D01*
X78096532Y-89260293D01*
X78083920Y-89239250D01*
X78073430Y-89217071D01*
X78065165Y-89193972D01*
X78059204Y-89170173D01*
X78055604Y-89145905D01*
X78054400Y-89121401D01*
X78054400Y-88221399D01*
X78055604Y-88196895D01*
X78059204Y-88172627D01*
X78065165Y-88148828D01*
X78073430Y-88125729D01*
X78083920Y-88103550D01*
X78096532Y-88082507D01*
X78111147Y-88062801D01*
X78127623Y-88044623D01*
X78145801Y-88028147D01*
X78165507Y-88013532D01*
X78186550Y-88000920D01*
X78208729Y-87990430D01*
X78231828Y-87982165D01*
X78255627Y-87976204D01*
X78279895Y-87972604D01*
X78304399Y-87971400D01*
X78954401Y-87971400D01*
X78978905Y-87972604D01*
X78978905Y-87972604D01*
G37*
D12*
X78629400Y-88671400D03*
D11*
G36*
X81028905Y-87972604D02*
G01*
X81053173Y-87976204D01*
X81076972Y-87982165D01*
X81100071Y-87990430D01*
X81122250Y-88000920D01*
X81143293Y-88013532D01*
X81162999Y-88028147D01*
X81181177Y-88044623D01*
X81197653Y-88062801D01*
X81212268Y-88082507D01*
X81224880Y-88103550D01*
X81235370Y-88125729D01*
X81243635Y-88148828D01*
X81249596Y-88172627D01*
X81253196Y-88196895D01*
X81254400Y-88221399D01*
X81254400Y-89121401D01*
X81253196Y-89145905D01*
X81249596Y-89170173D01*
X81243635Y-89193972D01*
X81235370Y-89217071D01*
X81224880Y-89239250D01*
X81212268Y-89260293D01*
X81197653Y-89279999D01*
X81181177Y-89298177D01*
X81162999Y-89314653D01*
X81143293Y-89329268D01*
X81122250Y-89341880D01*
X81100071Y-89352370D01*
X81076972Y-89360635D01*
X81053173Y-89366596D01*
X81028905Y-89370196D01*
X81004401Y-89371400D01*
X80354399Y-89371400D01*
X80329895Y-89370196D01*
X80305627Y-89366596D01*
X80281828Y-89360635D01*
X80258729Y-89352370D01*
X80236550Y-89341880D01*
X80215507Y-89329268D01*
X80195801Y-89314653D01*
X80177623Y-89298177D01*
X80161147Y-89279999D01*
X80146532Y-89260293D01*
X80133920Y-89239250D01*
X80123430Y-89217071D01*
X80115165Y-89193972D01*
X80109204Y-89170173D01*
X80105604Y-89145905D01*
X80104400Y-89121401D01*
X80104400Y-88221399D01*
X80105604Y-88196895D01*
X80109204Y-88172627D01*
X80115165Y-88148828D01*
X80123430Y-88125729D01*
X80133920Y-88103550D01*
X80146532Y-88082507D01*
X80161147Y-88062801D01*
X80177623Y-88044623D01*
X80195801Y-88028147D01*
X80215507Y-88013532D01*
X80236550Y-88000920D01*
X80258729Y-87990430D01*
X80281828Y-87982165D01*
X80305627Y-87976204D01*
X80329895Y-87972604D01*
X80354399Y-87971400D01*
X81004401Y-87971400D01*
X81028905Y-87972604D01*
X81028905Y-87972604D01*
G37*
D12*
X80679400Y-88671400D03*
D11*
G36*
X51360105Y-99466104D02*
G01*
X51384373Y-99469704D01*
X51408172Y-99475665D01*
X51431271Y-99483930D01*
X51453450Y-99494420D01*
X51474493Y-99507032D01*
X51494199Y-99521647D01*
X51512377Y-99538123D01*
X51528853Y-99556301D01*
X51543468Y-99576007D01*
X51556080Y-99597050D01*
X51566570Y-99619229D01*
X51574835Y-99642328D01*
X51580796Y-99666127D01*
X51584396Y-99690395D01*
X51585600Y-99714899D01*
X51585600Y-100614901D01*
X51584396Y-100639405D01*
X51580796Y-100663673D01*
X51574835Y-100687472D01*
X51566570Y-100710571D01*
X51556080Y-100732750D01*
X51543468Y-100753793D01*
X51528853Y-100773499D01*
X51512377Y-100791677D01*
X51494199Y-100808153D01*
X51474493Y-100822768D01*
X51453450Y-100835380D01*
X51431271Y-100845870D01*
X51408172Y-100854135D01*
X51384373Y-100860096D01*
X51360105Y-100863696D01*
X51335601Y-100864900D01*
X50685599Y-100864900D01*
X50661095Y-100863696D01*
X50636827Y-100860096D01*
X50613028Y-100854135D01*
X50589929Y-100845870D01*
X50567750Y-100835380D01*
X50546707Y-100822768D01*
X50527001Y-100808153D01*
X50508823Y-100791677D01*
X50492347Y-100773499D01*
X50477732Y-100753793D01*
X50465120Y-100732750D01*
X50454630Y-100710571D01*
X50446365Y-100687472D01*
X50440404Y-100663673D01*
X50436804Y-100639405D01*
X50435600Y-100614901D01*
X50435600Y-99714899D01*
X50436804Y-99690395D01*
X50440404Y-99666127D01*
X50446365Y-99642328D01*
X50454630Y-99619229D01*
X50465120Y-99597050D01*
X50477732Y-99576007D01*
X50492347Y-99556301D01*
X50508823Y-99538123D01*
X50527001Y-99521647D01*
X50546707Y-99507032D01*
X50567750Y-99494420D01*
X50589929Y-99483930D01*
X50613028Y-99475665D01*
X50636827Y-99469704D01*
X50661095Y-99466104D01*
X50685599Y-99464900D01*
X51335601Y-99464900D01*
X51360105Y-99466104D01*
X51360105Y-99466104D01*
G37*
D12*
X51010600Y-100164900D03*
D11*
G36*
X53410105Y-99466104D02*
G01*
X53434373Y-99469704D01*
X53458172Y-99475665D01*
X53481271Y-99483930D01*
X53503450Y-99494420D01*
X53524493Y-99507032D01*
X53544199Y-99521647D01*
X53562377Y-99538123D01*
X53578853Y-99556301D01*
X53593468Y-99576007D01*
X53606080Y-99597050D01*
X53616570Y-99619229D01*
X53624835Y-99642328D01*
X53630796Y-99666127D01*
X53634396Y-99690395D01*
X53635600Y-99714899D01*
X53635600Y-100614901D01*
X53634396Y-100639405D01*
X53630796Y-100663673D01*
X53624835Y-100687472D01*
X53616570Y-100710571D01*
X53606080Y-100732750D01*
X53593468Y-100753793D01*
X53578853Y-100773499D01*
X53562377Y-100791677D01*
X53544199Y-100808153D01*
X53524493Y-100822768D01*
X53503450Y-100835380D01*
X53481271Y-100845870D01*
X53458172Y-100854135D01*
X53434373Y-100860096D01*
X53410105Y-100863696D01*
X53385601Y-100864900D01*
X52735599Y-100864900D01*
X52711095Y-100863696D01*
X52686827Y-100860096D01*
X52663028Y-100854135D01*
X52639929Y-100845870D01*
X52617750Y-100835380D01*
X52596707Y-100822768D01*
X52577001Y-100808153D01*
X52558823Y-100791677D01*
X52542347Y-100773499D01*
X52527732Y-100753793D01*
X52515120Y-100732750D01*
X52504630Y-100710571D01*
X52496365Y-100687472D01*
X52490404Y-100663673D01*
X52486804Y-100639405D01*
X52485600Y-100614901D01*
X52485600Y-99714899D01*
X52486804Y-99690395D01*
X52490404Y-99666127D01*
X52496365Y-99642328D01*
X52504630Y-99619229D01*
X52515120Y-99597050D01*
X52527732Y-99576007D01*
X52542347Y-99556301D01*
X52558823Y-99538123D01*
X52577001Y-99521647D01*
X52596707Y-99507032D01*
X52617750Y-99494420D01*
X52639929Y-99483930D01*
X52663028Y-99475665D01*
X52686827Y-99469704D01*
X52711095Y-99466104D01*
X52735599Y-99464900D01*
X53385601Y-99464900D01*
X53410105Y-99466104D01*
X53410105Y-99466104D01*
G37*
D12*
X53060600Y-100164900D03*
D11*
G36*
X60504105Y-90690404D02*
G01*
X60528373Y-90694004D01*
X60552172Y-90699965D01*
X60575271Y-90708230D01*
X60597450Y-90718720D01*
X60618493Y-90731332D01*
X60638199Y-90745947D01*
X60656377Y-90762423D01*
X60672853Y-90780601D01*
X60687468Y-90800307D01*
X60700080Y-90821350D01*
X60710570Y-90843529D01*
X60718835Y-90866628D01*
X60724796Y-90890427D01*
X60728396Y-90914695D01*
X60729600Y-90939199D01*
X60729600Y-91839201D01*
X60728396Y-91863705D01*
X60724796Y-91887973D01*
X60718835Y-91911772D01*
X60710570Y-91934871D01*
X60700080Y-91957050D01*
X60687468Y-91978093D01*
X60672853Y-91997799D01*
X60656377Y-92015977D01*
X60638199Y-92032453D01*
X60618493Y-92047068D01*
X60597450Y-92059680D01*
X60575271Y-92070170D01*
X60552172Y-92078435D01*
X60528373Y-92084396D01*
X60504105Y-92087996D01*
X60479601Y-92089200D01*
X59829599Y-92089200D01*
X59805095Y-92087996D01*
X59780827Y-92084396D01*
X59757028Y-92078435D01*
X59733929Y-92070170D01*
X59711750Y-92059680D01*
X59690707Y-92047068D01*
X59671001Y-92032453D01*
X59652823Y-92015977D01*
X59636347Y-91997799D01*
X59621732Y-91978093D01*
X59609120Y-91957050D01*
X59598630Y-91934871D01*
X59590365Y-91911772D01*
X59584404Y-91887973D01*
X59580804Y-91863705D01*
X59579600Y-91839201D01*
X59579600Y-90939199D01*
X59580804Y-90914695D01*
X59584404Y-90890427D01*
X59590365Y-90866628D01*
X59598630Y-90843529D01*
X59609120Y-90821350D01*
X59621732Y-90800307D01*
X59636347Y-90780601D01*
X59652823Y-90762423D01*
X59671001Y-90745947D01*
X59690707Y-90731332D01*
X59711750Y-90718720D01*
X59733929Y-90708230D01*
X59757028Y-90699965D01*
X59780827Y-90694004D01*
X59805095Y-90690404D01*
X59829599Y-90689200D01*
X60479601Y-90689200D01*
X60504105Y-90690404D01*
X60504105Y-90690404D01*
G37*
D12*
X60154600Y-91389200D03*
D11*
G36*
X62554105Y-90690404D02*
G01*
X62578373Y-90694004D01*
X62602172Y-90699965D01*
X62625271Y-90708230D01*
X62647450Y-90718720D01*
X62668493Y-90731332D01*
X62688199Y-90745947D01*
X62706377Y-90762423D01*
X62722853Y-90780601D01*
X62737468Y-90800307D01*
X62750080Y-90821350D01*
X62760570Y-90843529D01*
X62768835Y-90866628D01*
X62774796Y-90890427D01*
X62778396Y-90914695D01*
X62779600Y-90939199D01*
X62779600Y-91839201D01*
X62778396Y-91863705D01*
X62774796Y-91887973D01*
X62768835Y-91911772D01*
X62760570Y-91934871D01*
X62750080Y-91957050D01*
X62737468Y-91978093D01*
X62722853Y-91997799D01*
X62706377Y-92015977D01*
X62688199Y-92032453D01*
X62668493Y-92047068D01*
X62647450Y-92059680D01*
X62625271Y-92070170D01*
X62602172Y-92078435D01*
X62578373Y-92084396D01*
X62554105Y-92087996D01*
X62529601Y-92089200D01*
X61879599Y-92089200D01*
X61855095Y-92087996D01*
X61830827Y-92084396D01*
X61807028Y-92078435D01*
X61783929Y-92070170D01*
X61761750Y-92059680D01*
X61740707Y-92047068D01*
X61721001Y-92032453D01*
X61702823Y-92015977D01*
X61686347Y-91997799D01*
X61671732Y-91978093D01*
X61659120Y-91957050D01*
X61648630Y-91934871D01*
X61640365Y-91911772D01*
X61634404Y-91887973D01*
X61630804Y-91863705D01*
X61629600Y-91839201D01*
X61629600Y-90939199D01*
X61630804Y-90914695D01*
X61634404Y-90890427D01*
X61640365Y-90866628D01*
X61648630Y-90843529D01*
X61659120Y-90821350D01*
X61671732Y-90800307D01*
X61686347Y-90780601D01*
X61702823Y-90762423D01*
X61721001Y-90745947D01*
X61740707Y-90731332D01*
X61761750Y-90718720D01*
X61783929Y-90708230D01*
X61807028Y-90699965D01*
X61830827Y-90694004D01*
X61855095Y-90690404D01*
X61879599Y-90689200D01*
X62529601Y-90689200D01*
X62554105Y-90690404D01*
X62554105Y-90690404D01*
G37*
D12*
X62204600Y-91389200D03*
D21*
X52197000Y-113139200D03*
X50927000Y-113139200D03*
X49657000Y-113139200D03*
X48387000Y-113139200D03*
X48387000Y-107739200D03*
X49657000Y-107739200D03*
X50927000Y-107739200D03*
X52197000Y-107739200D03*
D11*
G36*
X56441705Y-107454404D02*
G01*
X56465973Y-107458004D01*
X56489772Y-107463965D01*
X56512871Y-107472230D01*
X56535050Y-107482720D01*
X56556093Y-107495332D01*
X56575799Y-107509947D01*
X56593977Y-107526423D01*
X56610453Y-107544601D01*
X56625068Y-107564307D01*
X56637680Y-107585350D01*
X56648170Y-107607529D01*
X56656435Y-107630628D01*
X56662396Y-107654427D01*
X56665996Y-107678695D01*
X56667200Y-107703199D01*
X56667200Y-108603201D01*
X56665996Y-108627705D01*
X56662396Y-108651973D01*
X56656435Y-108675772D01*
X56648170Y-108698871D01*
X56637680Y-108721050D01*
X56625068Y-108742093D01*
X56610453Y-108761799D01*
X56593977Y-108779977D01*
X56575799Y-108796453D01*
X56556093Y-108811068D01*
X56535050Y-108823680D01*
X56512871Y-108834170D01*
X56489772Y-108842435D01*
X56465973Y-108848396D01*
X56441705Y-108851996D01*
X56417201Y-108853200D01*
X55767199Y-108853200D01*
X55742695Y-108851996D01*
X55718427Y-108848396D01*
X55694628Y-108842435D01*
X55671529Y-108834170D01*
X55649350Y-108823680D01*
X55628307Y-108811068D01*
X55608601Y-108796453D01*
X55590423Y-108779977D01*
X55573947Y-108761799D01*
X55559332Y-108742093D01*
X55546720Y-108721050D01*
X55536230Y-108698871D01*
X55527965Y-108675772D01*
X55522004Y-108651973D01*
X55518404Y-108627705D01*
X55517200Y-108603201D01*
X55517200Y-107703199D01*
X55518404Y-107678695D01*
X55522004Y-107654427D01*
X55527965Y-107630628D01*
X55536230Y-107607529D01*
X55546720Y-107585350D01*
X55559332Y-107564307D01*
X55573947Y-107544601D01*
X55590423Y-107526423D01*
X55608601Y-107509947D01*
X55628307Y-107495332D01*
X55649350Y-107482720D01*
X55671529Y-107472230D01*
X55694628Y-107463965D01*
X55718427Y-107458004D01*
X55742695Y-107454404D01*
X55767199Y-107453200D01*
X56417201Y-107453200D01*
X56441705Y-107454404D01*
X56441705Y-107454404D01*
G37*
D12*
X56092200Y-108153200D03*
D11*
G36*
X54391705Y-107454404D02*
G01*
X54415973Y-107458004D01*
X54439772Y-107463965D01*
X54462871Y-107472230D01*
X54485050Y-107482720D01*
X54506093Y-107495332D01*
X54525799Y-107509947D01*
X54543977Y-107526423D01*
X54560453Y-107544601D01*
X54575068Y-107564307D01*
X54587680Y-107585350D01*
X54598170Y-107607529D01*
X54606435Y-107630628D01*
X54612396Y-107654427D01*
X54615996Y-107678695D01*
X54617200Y-107703199D01*
X54617200Y-108603201D01*
X54615996Y-108627705D01*
X54612396Y-108651973D01*
X54606435Y-108675772D01*
X54598170Y-108698871D01*
X54587680Y-108721050D01*
X54575068Y-108742093D01*
X54560453Y-108761799D01*
X54543977Y-108779977D01*
X54525799Y-108796453D01*
X54506093Y-108811068D01*
X54485050Y-108823680D01*
X54462871Y-108834170D01*
X54439772Y-108842435D01*
X54415973Y-108848396D01*
X54391705Y-108851996D01*
X54367201Y-108853200D01*
X53717199Y-108853200D01*
X53692695Y-108851996D01*
X53668427Y-108848396D01*
X53644628Y-108842435D01*
X53621529Y-108834170D01*
X53599350Y-108823680D01*
X53578307Y-108811068D01*
X53558601Y-108796453D01*
X53540423Y-108779977D01*
X53523947Y-108761799D01*
X53509332Y-108742093D01*
X53496720Y-108721050D01*
X53486230Y-108698871D01*
X53477965Y-108675772D01*
X53472004Y-108651973D01*
X53468404Y-108627705D01*
X53467200Y-108603201D01*
X53467200Y-107703199D01*
X53468404Y-107678695D01*
X53472004Y-107654427D01*
X53477965Y-107630628D01*
X53486230Y-107607529D01*
X53496720Y-107585350D01*
X53509332Y-107564307D01*
X53523947Y-107544601D01*
X53540423Y-107526423D01*
X53558601Y-107509947D01*
X53578307Y-107495332D01*
X53599350Y-107482720D01*
X53621529Y-107472230D01*
X53644628Y-107463965D01*
X53668427Y-107458004D01*
X53692695Y-107454404D01*
X53717199Y-107453200D01*
X54367201Y-107453200D01*
X54391705Y-107454404D01*
X54391705Y-107454404D01*
G37*
D12*
X54042200Y-108153200D03*
D11*
G36*
X56387905Y-112628404D02*
G01*
X56412173Y-112632004D01*
X56435972Y-112637965D01*
X56459071Y-112646230D01*
X56481250Y-112656720D01*
X56502293Y-112669332D01*
X56521999Y-112683947D01*
X56540177Y-112700423D01*
X56556653Y-112718601D01*
X56571268Y-112738307D01*
X56583880Y-112759350D01*
X56594370Y-112781529D01*
X56602635Y-112804628D01*
X56608596Y-112828427D01*
X56612196Y-112852695D01*
X56613400Y-112877199D01*
X56613400Y-113777201D01*
X56612196Y-113801705D01*
X56608596Y-113825973D01*
X56602635Y-113849772D01*
X56594370Y-113872871D01*
X56583880Y-113895050D01*
X56571268Y-113916093D01*
X56556653Y-113935799D01*
X56540177Y-113953977D01*
X56521999Y-113970453D01*
X56502293Y-113985068D01*
X56481250Y-113997680D01*
X56459071Y-114008170D01*
X56435972Y-114016435D01*
X56412173Y-114022396D01*
X56387905Y-114025996D01*
X56363401Y-114027200D01*
X55713399Y-114027200D01*
X55688895Y-114025996D01*
X55664627Y-114022396D01*
X55640828Y-114016435D01*
X55617729Y-114008170D01*
X55595550Y-113997680D01*
X55574507Y-113985068D01*
X55554801Y-113970453D01*
X55536623Y-113953977D01*
X55520147Y-113935799D01*
X55505532Y-113916093D01*
X55492920Y-113895050D01*
X55482430Y-113872871D01*
X55474165Y-113849772D01*
X55468204Y-113825973D01*
X55464604Y-113801705D01*
X55463400Y-113777201D01*
X55463400Y-112877199D01*
X55464604Y-112852695D01*
X55468204Y-112828427D01*
X55474165Y-112804628D01*
X55482430Y-112781529D01*
X55492920Y-112759350D01*
X55505532Y-112738307D01*
X55520147Y-112718601D01*
X55536623Y-112700423D01*
X55554801Y-112683947D01*
X55574507Y-112669332D01*
X55595550Y-112656720D01*
X55617729Y-112646230D01*
X55640828Y-112637965D01*
X55664627Y-112632004D01*
X55688895Y-112628404D01*
X55713399Y-112627200D01*
X56363401Y-112627200D01*
X56387905Y-112628404D01*
X56387905Y-112628404D01*
G37*
D12*
X56038400Y-113327200D03*
D11*
G36*
X54337905Y-112628404D02*
G01*
X54362173Y-112632004D01*
X54385972Y-112637965D01*
X54409071Y-112646230D01*
X54431250Y-112656720D01*
X54452293Y-112669332D01*
X54471999Y-112683947D01*
X54490177Y-112700423D01*
X54506653Y-112718601D01*
X54521268Y-112738307D01*
X54533880Y-112759350D01*
X54544370Y-112781529D01*
X54552635Y-112804628D01*
X54558596Y-112828427D01*
X54562196Y-112852695D01*
X54563400Y-112877199D01*
X54563400Y-113777201D01*
X54562196Y-113801705D01*
X54558596Y-113825973D01*
X54552635Y-113849772D01*
X54544370Y-113872871D01*
X54533880Y-113895050D01*
X54521268Y-113916093D01*
X54506653Y-113935799D01*
X54490177Y-113953977D01*
X54471999Y-113970453D01*
X54452293Y-113985068D01*
X54431250Y-113997680D01*
X54409071Y-114008170D01*
X54385972Y-114016435D01*
X54362173Y-114022396D01*
X54337905Y-114025996D01*
X54313401Y-114027200D01*
X53663399Y-114027200D01*
X53638895Y-114025996D01*
X53614627Y-114022396D01*
X53590828Y-114016435D01*
X53567729Y-114008170D01*
X53545550Y-113997680D01*
X53524507Y-113985068D01*
X53504801Y-113970453D01*
X53486623Y-113953977D01*
X53470147Y-113935799D01*
X53455532Y-113916093D01*
X53442920Y-113895050D01*
X53432430Y-113872871D01*
X53424165Y-113849772D01*
X53418204Y-113825973D01*
X53414604Y-113801705D01*
X53413400Y-113777201D01*
X53413400Y-112877199D01*
X53414604Y-112852695D01*
X53418204Y-112828427D01*
X53424165Y-112804628D01*
X53432430Y-112781529D01*
X53442920Y-112759350D01*
X53455532Y-112738307D01*
X53470147Y-112718601D01*
X53486623Y-112700423D01*
X53504801Y-112683947D01*
X53524507Y-112669332D01*
X53545550Y-112656720D01*
X53567729Y-112646230D01*
X53590828Y-112637965D01*
X53614627Y-112632004D01*
X53638895Y-112628404D01*
X53663399Y-112627200D01*
X54313401Y-112627200D01*
X54337905Y-112628404D01*
X54337905Y-112628404D01*
G37*
D12*
X53988400Y-113327200D03*
D11*
G36*
X109440505Y-120736604D02*
G01*
X109464773Y-120740204D01*
X109488572Y-120746165D01*
X109511671Y-120754430D01*
X109533850Y-120764920D01*
X109554893Y-120777532D01*
X109574599Y-120792147D01*
X109592777Y-120808623D01*
X109609253Y-120826801D01*
X109623868Y-120846507D01*
X109636480Y-120867550D01*
X109646970Y-120889729D01*
X109655235Y-120912828D01*
X109661196Y-120936627D01*
X109664796Y-120960895D01*
X109666000Y-120985399D01*
X109666000Y-121635401D01*
X109664796Y-121659905D01*
X109661196Y-121684173D01*
X109655235Y-121707972D01*
X109646970Y-121731071D01*
X109636480Y-121753250D01*
X109623868Y-121774293D01*
X109609253Y-121793999D01*
X109592777Y-121812177D01*
X109574599Y-121828653D01*
X109554893Y-121843268D01*
X109533850Y-121855880D01*
X109511671Y-121866370D01*
X109488572Y-121874635D01*
X109464773Y-121880596D01*
X109440505Y-121884196D01*
X109416001Y-121885400D01*
X108515999Y-121885400D01*
X108491495Y-121884196D01*
X108467227Y-121880596D01*
X108443428Y-121874635D01*
X108420329Y-121866370D01*
X108398150Y-121855880D01*
X108377107Y-121843268D01*
X108357401Y-121828653D01*
X108339223Y-121812177D01*
X108322747Y-121793999D01*
X108308132Y-121774293D01*
X108295520Y-121753250D01*
X108285030Y-121731071D01*
X108276765Y-121707972D01*
X108270804Y-121684173D01*
X108267204Y-121659905D01*
X108266000Y-121635401D01*
X108266000Y-120985399D01*
X108267204Y-120960895D01*
X108270804Y-120936627D01*
X108276765Y-120912828D01*
X108285030Y-120889729D01*
X108295520Y-120867550D01*
X108308132Y-120846507D01*
X108322747Y-120826801D01*
X108339223Y-120808623D01*
X108357401Y-120792147D01*
X108377107Y-120777532D01*
X108398150Y-120764920D01*
X108420329Y-120754430D01*
X108443428Y-120746165D01*
X108467227Y-120740204D01*
X108491495Y-120736604D01*
X108515999Y-120735400D01*
X109416001Y-120735400D01*
X109440505Y-120736604D01*
X109440505Y-120736604D01*
G37*
D12*
X108966000Y-121310400D03*
D11*
G36*
X109440505Y-118686604D02*
G01*
X109464773Y-118690204D01*
X109488572Y-118696165D01*
X109511671Y-118704430D01*
X109533850Y-118714920D01*
X109554893Y-118727532D01*
X109574599Y-118742147D01*
X109592777Y-118758623D01*
X109609253Y-118776801D01*
X109623868Y-118796507D01*
X109636480Y-118817550D01*
X109646970Y-118839729D01*
X109655235Y-118862828D01*
X109661196Y-118886627D01*
X109664796Y-118910895D01*
X109666000Y-118935399D01*
X109666000Y-119585401D01*
X109664796Y-119609905D01*
X109661196Y-119634173D01*
X109655235Y-119657972D01*
X109646970Y-119681071D01*
X109636480Y-119703250D01*
X109623868Y-119724293D01*
X109609253Y-119743999D01*
X109592777Y-119762177D01*
X109574599Y-119778653D01*
X109554893Y-119793268D01*
X109533850Y-119805880D01*
X109511671Y-119816370D01*
X109488572Y-119824635D01*
X109464773Y-119830596D01*
X109440505Y-119834196D01*
X109416001Y-119835400D01*
X108515999Y-119835400D01*
X108491495Y-119834196D01*
X108467227Y-119830596D01*
X108443428Y-119824635D01*
X108420329Y-119816370D01*
X108398150Y-119805880D01*
X108377107Y-119793268D01*
X108357401Y-119778653D01*
X108339223Y-119762177D01*
X108322747Y-119743999D01*
X108308132Y-119724293D01*
X108295520Y-119703250D01*
X108285030Y-119681071D01*
X108276765Y-119657972D01*
X108270804Y-119634173D01*
X108267204Y-119609905D01*
X108266000Y-119585401D01*
X108266000Y-118935399D01*
X108267204Y-118910895D01*
X108270804Y-118886627D01*
X108276765Y-118862828D01*
X108285030Y-118839729D01*
X108295520Y-118817550D01*
X108308132Y-118796507D01*
X108322747Y-118776801D01*
X108339223Y-118758623D01*
X108357401Y-118742147D01*
X108377107Y-118727532D01*
X108398150Y-118714920D01*
X108420329Y-118704430D01*
X108443428Y-118696165D01*
X108467227Y-118690204D01*
X108491495Y-118686604D01*
X108515999Y-118685400D01*
X109416001Y-118685400D01*
X109440505Y-118686604D01*
X109440505Y-118686604D01*
G37*
D12*
X108966000Y-119260400D03*
D11*
G36*
X63466505Y-88767004D02*
G01*
X63490773Y-88770604D01*
X63514572Y-88776565D01*
X63537671Y-88784830D01*
X63559850Y-88795320D01*
X63580893Y-88807932D01*
X63600599Y-88822547D01*
X63618777Y-88839023D01*
X63635253Y-88857201D01*
X63649868Y-88876907D01*
X63662480Y-88897950D01*
X63672970Y-88920129D01*
X63681235Y-88943228D01*
X63687196Y-88967027D01*
X63690796Y-88991295D01*
X63692000Y-89015799D01*
X63692000Y-89665801D01*
X63690796Y-89690305D01*
X63687196Y-89714573D01*
X63681235Y-89738372D01*
X63672970Y-89761471D01*
X63662480Y-89783650D01*
X63649868Y-89804693D01*
X63635253Y-89824399D01*
X63618777Y-89842577D01*
X63600599Y-89859053D01*
X63580893Y-89873668D01*
X63559850Y-89886280D01*
X63537671Y-89896770D01*
X63514572Y-89905035D01*
X63490773Y-89910996D01*
X63466505Y-89914596D01*
X63442001Y-89915800D01*
X62541999Y-89915800D01*
X62517495Y-89914596D01*
X62493227Y-89910996D01*
X62469428Y-89905035D01*
X62446329Y-89896770D01*
X62424150Y-89886280D01*
X62403107Y-89873668D01*
X62383401Y-89859053D01*
X62365223Y-89842577D01*
X62348747Y-89824399D01*
X62334132Y-89804693D01*
X62321520Y-89783650D01*
X62311030Y-89761471D01*
X62302765Y-89738372D01*
X62296804Y-89714573D01*
X62293204Y-89690305D01*
X62292000Y-89665801D01*
X62292000Y-89015799D01*
X62293204Y-88991295D01*
X62296804Y-88967027D01*
X62302765Y-88943228D01*
X62311030Y-88920129D01*
X62321520Y-88897950D01*
X62334132Y-88876907D01*
X62348747Y-88857201D01*
X62365223Y-88839023D01*
X62383401Y-88822547D01*
X62403107Y-88807932D01*
X62424150Y-88795320D01*
X62446329Y-88784830D01*
X62469428Y-88776565D01*
X62493227Y-88770604D01*
X62517495Y-88767004D01*
X62541999Y-88765800D01*
X63442001Y-88765800D01*
X63466505Y-88767004D01*
X63466505Y-88767004D01*
G37*
D12*
X62992000Y-89340800D03*
D11*
G36*
X63466505Y-86717004D02*
G01*
X63490773Y-86720604D01*
X63514572Y-86726565D01*
X63537671Y-86734830D01*
X63559850Y-86745320D01*
X63580893Y-86757932D01*
X63600599Y-86772547D01*
X63618777Y-86789023D01*
X63635253Y-86807201D01*
X63649868Y-86826907D01*
X63662480Y-86847950D01*
X63672970Y-86870129D01*
X63681235Y-86893228D01*
X63687196Y-86917027D01*
X63690796Y-86941295D01*
X63692000Y-86965799D01*
X63692000Y-87615801D01*
X63690796Y-87640305D01*
X63687196Y-87664573D01*
X63681235Y-87688372D01*
X63672970Y-87711471D01*
X63662480Y-87733650D01*
X63649868Y-87754693D01*
X63635253Y-87774399D01*
X63618777Y-87792577D01*
X63600599Y-87809053D01*
X63580893Y-87823668D01*
X63559850Y-87836280D01*
X63537671Y-87846770D01*
X63514572Y-87855035D01*
X63490773Y-87860996D01*
X63466505Y-87864596D01*
X63442001Y-87865800D01*
X62541999Y-87865800D01*
X62517495Y-87864596D01*
X62493227Y-87860996D01*
X62469428Y-87855035D01*
X62446329Y-87846770D01*
X62424150Y-87836280D01*
X62403107Y-87823668D01*
X62383401Y-87809053D01*
X62365223Y-87792577D01*
X62348747Y-87774399D01*
X62334132Y-87754693D01*
X62321520Y-87733650D01*
X62311030Y-87711471D01*
X62302765Y-87688372D01*
X62296804Y-87664573D01*
X62293204Y-87640305D01*
X62292000Y-87615801D01*
X62292000Y-86965799D01*
X62293204Y-86941295D01*
X62296804Y-86917027D01*
X62302765Y-86893228D01*
X62311030Y-86870129D01*
X62321520Y-86847950D01*
X62334132Y-86826907D01*
X62348747Y-86807201D01*
X62365223Y-86789023D01*
X62383401Y-86772547D01*
X62403107Y-86757932D01*
X62424150Y-86745320D01*
X62446329Y-86734830D01*
X62469428Y-86726565D01*
X62493227Y-86720604D01*
X62517495Y-86717004D01*
X62541999Y-86715800D01*
X63442001Y-86715800D01*
X63466505Y-86717004D01*
X63466505Y-86717004D01*
G37*
D12*
X62992000Y-87290800D03*
D11*
G36*
X74263505Y-88607604D02*
G01*
X74287773Y-88611204D01*
X74311572Y-88617165D01*
X74334671Y-88625430D01*
X74356850Y-88635920D01*
X74377893Y-88648532D01*
X74397599Y-88663147D01*
X74415777Y-88679623D01*
X74432253Y-88697801D01*
X74446868Y-88717507D01*
X74459480Y-88738550D01*
X74469970Y-88760729D01*
X74478235Y-88783828D01*
X74484196Y-88807627D01*
X74487796Y-88831895D01*
X74489000Y-88856399D01*
X74489000Y-89756401D01*
X74487796Y-89780905D01*
X74484196Y-89805173D01*
X74478235Y-89828972D01*
X74469970Y-89852071D01*
X74459480Y-89874250D01*
X74446868Y-89895293D01*
X74432253Y-89914999D01*
X74415777Y-89933177D01*
X74397599Y-89949653D01*
X74377893Y-89964268D01*
X74356850Y-89976880D01*
X74334671Y-89987370D01*
X74311572Y-89995635D01*
X74287773Y-90001596D01*
X74263505Y-90005196D01*
X74239001Y-90006400D01*
X73588999Y-90006400D01*
X73564495Y-90005196D01*
X73540227Y-90001596D01*
X73516428Y-89995635D01*
X73493329Y-89987370D01*
X73471150Y-89976880D01*
X73450107Y-89964268D01*
X73430401Y-89949653D01*
X73412223Y-89933177D01*
X73395747Y-89914999D01*
X73381132Y-89895293D01*
X73368520Y-89874250D01*
X73358030Y-89852071D01*
X73349765Y-89828972D01*
X73343804Y-89805173D01*
X73340204Y-89780905D01*
X73339000Y-89756401D01*
X73339000Y-88856399D01*
X73340204Y-88831895D01*
X73343804Y-88807627D01*
X73349765Y-88783828D01*
X73358030Y-88760729D01*
X73368520Y-88738550D01*
X73381132Y-88717507D01*
X73395747Y-88697801D01*
X73412223Y-88679623D01*
X73430401Y-88663147D01*
X73450107Y-88648532D01*
X73471150Y-88635920D01*
X73493329Y-88625430D01*
X73516428Y-88617165D01*
X73540227Y-88611204D01*
X73564495Y-88607604D01*
X73588999Y-88606400D01*
X74239001Y-88606400D01*
X74263505Y-88607604D01*
X74263505Y-88607604D01*
G37*
D12*
X73914000Y-89306400D03*
D11*
G36*
X76313505Y-88607604D02*
G01*
X76337773Y-88611204D01*
X76361572Y-88617165D01*
X76384671Y-88625430D01*
X76406850Y-88635920D01*
X76427893Y-88648532D01*
X76447599Y-88663147D01*
X76465777Y-88679623D01*
X76482253Y-88697801D01*
X76496868Y-88717507D01*
X76509480Y-88738550D01*
X76519970Y-88760729D01*
X76528235Y-88783828D01*
X76534196Y-88807627D01*
X76537796Y-88831895D01*
X76539000Y-88856399D01*
X76539000Y-89756401D01*
X76537796Y-89780905D01*
X76534196Y-89805173D01*
X76528235Y-89828972D01*
X76519970Y-89852071D01*
X76509480Y-89874250D01*
X76496868Y-89895293D01*
X76482253Y-89914999D01*
X76465777Y-89933177D01*
X76447599Y-89949653D01*
X76427893Y-89964268D01*
X76406850Y-89976880D01*
X76384671Y-89987370D01*
X76361572Y-89995635D01*
X76337773Y-90001596D01*
X76313505Y-90005196D01*
X76289001Y-90006400D01*
X75638999Y-90006400D01*
X75614495Y-90005196D01*
X75590227Y-90001596D01*
X75566428Y-89995635D01*
X75543329Y-89987370D01*
X75521150Y-89976880D01*
X75500107Y-89964268D01*
X75480401Y-89949653D01*
X75462223Y-89933177D01*
X75445747Y-89914999D01*
X75431132Y-89895293D01*
X75418520Y-89874250D01*
X75408030Y-89852071D01*
X75399765Y-89828972D01*
X75393804Y-89805173D01*
X75390204Y-89780905D01*
X75389000Y-89756401D01*
X75389000Y-88856399D01*
X75390204Y-88831895D01*
X75393804Y-88807627D01*
X75399765Y-88783828D01*
X75408030Y-88760729D01*
X75418520Y-88738550D01*
X75431132Y-88717507D01*
X75445747Y-88697801D01*
X75462223Y-88679623D01*
X75480401Y-88663147D01*
X75500107Y-88648532D01*
X75521150Y-88635920D01*
X75543329Y-88625430D01*
X75566428Y-88617165D01*
X75590227Y-88611204D01*
X75614495Y-88607604D01*
X75638999Y-88606400D01*
X76289001Y-88606400D01*
X76313505Y-88607604D01*
X76313505Y-88607604D01*
G37*
D12*
X75964000Y-89306400D03*
D22*
X104257240Y-127812800D03*
X107457240Y-127812800D03*
X107457240Y-123312800D03*
X104257240Y-123312800D03*
D11*
G36*
X101583179Y-118474344D02*
G01*
X101606234Y-118477763D01*
X101628843Y-118483427D01*
X101650787Y-118491279D01*
X101671857Y-118501244D01*
X101691848Y-118513226D01*
X101710568Y-118527110D01*
X101727838Y-118542762D01*
X101743490Y-118560032D01*
X101757374Y-118578752D01*
X101769356Y-118598743D01*
X101779321Y-118619813D01*
X101787173Y-118641757D01*
X101792837Y-118664366D01*
X101796256Y-118687421D01*
X101797400Y-118710700D01*
X101797400Y-119185700D01*
X101796256Y-119208979D01*
X101792837Y-119232034D01*
X101787173Y-119254643D01*
X101779321Y-119276587D01*
X101769356Y-119297657D01*
X101757374Y-119317648D01*
X101743490Y-119336368D01*
X101727838Y-119353638D01*
X101710568Y-119369290D01*
X101691848Y-119383174D01*
X101671857Y-119395156D01*
X101650787Y-119405121D01*
X101628843Y-119412973D01*
X101606234Y-119418637D01*
X101583179Y-119422056D01*
X101559900Y-119423200D01*
X100984900Y-119423200D01*
X100961621Y-119422056D01*
X100938566Y-119418637D01*
X100915957Y-119412973D01*
X100894013Y-119405121D01*
X100872943Y-119395156D01*
X100852952Y-119383174D01*
X100834232Y-119369290D01*
X100816962Y-119353638D01*
X100801310Y-119336368D01*
X100787426Y-119317648D01*
X100775444Y-119297657D01*
X100765479Y-119276587D01*
X100757627Y-119254643D01*
X100751963Y-119232034D01*
X100748544Y-119208979D01*
X100747400Y-119185700D01*
X100747400Y-118710700D01*
X100748544Y-118687421D01*
X100751963Y-118664366D01*
X100757627Y-118641757D01*
X100765479Y-118619813D01*
X100775444Y-118598743D01*
X100787426Y-118578752D01*
X100801310Y-118560032D01*
X100816962Y-118542762D01*
X100834232Y-118527110D01*
X100852952Y-118513226D01*
X100872943Y-118501244D01*
X100894013Y-118491279D01*
X100915957Y-118483427D01*
X100938566Y-118477763D01*
X100961621Y-118474344D01*
X100984900Y-118473200D01*
X101559900Y-118473200D01*
X101583179Y-118474344D01*
X101583179Y-118474344D01*
G37*
D23*
X101272400Y-118948200D03*
D11*
G36*
X103333179Y-118474344D02*
G01*
X103356234Y-118477763D01*
X103378843Y-118483427D01*
X103400787Y-118491279D01*
X103421857Y-118501244D01*
X103441848Y-118513226D01*
X103460568Y-118527110D01*
X103477838Y-118542762D01*
X103493490Y-118560032D01*
X103507374Y-118578752D01*
X103519356Y-118598743D01*
X103529321Y-118619813D01*
X103537173Y-118641757D01*
X103542837Y-118664366D01*
X103546256Y-118687421D01*
X103547400Y-118710700D01*
X103547400Y-119185700D01*
X103546256Y-119208979D01*
X103542837Y-119232034D01*
X103537173Y-119254643D01*
X103529321Y-119276587D01*
X103519356Y-119297657D01*
X103507374Y-119317648D01*
X103493490Y-119336368D01*
X103477838Y-119353638D01*
X103460568Y-119369290D01*
X103441848Y-119383174D01*
X103421857Y-119395156D01*
X103400787Y-119405121D01*
X103378843Y-119412973D01*
X103356234Y-119418637D01*
X103333179Y-119422056D01*
X103309900Y-119423200D01*
X102734900Y-119423200D01*
X102711621Y-119422056D01*
X102688566Y-119418637D01*
X102665957Y-119412973D01*
X102644013Y-119405121D01*
X102622943Y-119395156D01*
X102602952Y-119383174D01*
X102584232Y-119369290D01*
X102566962Y-119353638D01*
X102551310Y-119336368D01*
X102537426Y-119317648D01*
X102525444Y-119297657D01*
X102515479Y-119276587D01*
X102507627Y-119254643D01*
X102501963Y-119232034D01*
X102498544Y-119208979D01*
X102497400Y-119185700D01*
X102497400Y-118710700D01*
X102498544Y-118687421D01*
X102501963Y-118664366D01*
X102507627Y-118641757D01*
X102515479Y-118619813D01*
X102525444Y-118598743D01*
X102537426Y-118578752D01*
X102551310Y-118560032D01*
X102566962Y-118542762D01*
X102584232Y-118527110D01*
X102602952Y-118513226D01*
X102622943Y-118501244D01*
X102644013Y-118491279D01*
X102665957Y-118483427D01*
X102688566Y-118477763D01*
X102711621Y-118474344D01*
X102734900Y-118473200D01*
X103309900Y-118473200D01*
X103333179Y-118474344D01*
X103333179Y-118474344D01*
G37*
D23*
X103022400Y-118948200D03*
D24*
X41000000Y-89800000D03*
X41000000Y-89150000D03*
X41000000Y-88500000D03*
X41000000Y-87850000D03*
X41000000Y-87200000D03*
D11*
G36*
X69929105Y-88810804D02*
G01*
X69953373Y-88814404D01*
X69977172Y-88820365D01*
X70000271Y-88828630D01*
X70022450Y-88839120D01*
X70043493Y-88851732D01*
X70063199Y-88866347D01*
X70081377Y-88882823D01*
X70097853Y-88901001D01*
X70112468Y-88920707D01*
X70125080Y-88941750D01*
X70135570Y-88963929D01*
X70143835Y-88987028D01*
X70149796Y-89010827D01*
X70153396Y-89035095D01*
X70154600Y-89059599D01*
X70154600Y-89959601D01*
X70153396Y-89984105D01*
X70149796Y-90008373D01*
X70143835Y-90032172D01*
X70135570Y-90055271D01*
X70125080Y-90077450D01*
X70112468Y-90098493D01*
X70097853Y-90118199D01*
X70081377Y-90136377D01*
X70063199Y-90152853D01*
X70043493Y-90167468D01*
X70022450Y-90180080D01*
X70000271Y-90190570D01*
X69977172Y-90198835D01*
X69953373Y-90204796D01*
X69929105Y-90208396D01*
X69904601Y-90209600D01*
X69254599Y-90209600D01*
X69230095Y-90208396D01*
X69205827Y-90204796D01*
X69182028Y-90198835D01*
X69158929Y-90190570D01*
X69136750Y-90180080D01*
X69115707Y-90167468D01*
X69096001Y-90152853D01*
X69077823Y-90136377D01*
X69061347Y-90118199D01*
X69046732Y-90098493D01*
X69034120Y-90077450D01*
X69023630Y-90055271D01*
X69015365Y-90032172D01*
X69009404Y-90008373D01*
X69005804Y-89984105D01*
X69004600Y-89959601D01*
X69004600Y-89059599D01*
X69005804Y-89035095D01*
X69009404Y-89010827D01*
X69015365Y-88987028D01*
X69023630Y-88963929D01*
X69034120Y-88941750D01*
X69046732Y-88920707D01*
X69061347Y-88901001D01*
X69077823Y-88882823D01*
X69096001Y-88866347D01*
X69115707Y-88851732D01*
X69136750Y-88839120D01*
X69158929Y-88828630D01*
X69182028Y-88820365D01*
X69205827Y-88814404D01*
X69230095Y-88810804D01*
X69254599Y-88809600D01*
X69904601Y-88809600D01*
X69929105Y-88810804D01*
X69929105Y-88810804D01*
G37*
D12*
X69579600Y-89509600D03*
D11*
G36*
X67879105Y-88810804D02*
G01*
X67903373Y-88814404D01*
X67927172Y-88820365D01*
X67950271Y-88828630D01*
X67972450Y-88839120D01*
X67993493Y-88851732D01*
X68013199Y-88866347D01*
X68031377Y-88882823D01*
X68047853Y-88901001D01*
X68062468Y-88920707D01*
X68075080Y-88941750D01*
X68085570Y-88963929D01*
X68093835Y-88987028D01*
X68099796Y-89010827D01*
X68103396Y-89035095D01*
X68104600Y-89059599D01*
X68104600Y-89959601D01*
X68103396Y-89984105D01*
X68099796Y-90008373D01*
X68093835Y-90032172D01*
X68085570Y-90055271D01*
X68075080Y-90077450D01*
X68062468Y-90098493D01*
X68047853Y-90118199D01*
X68031377Y-90136377D01*
X68013199Y-90152853D01*
X67993493Y-90167468D01*
X67972450Y-90180080D01*
X67950271Y-90190570D01*
X67927172Y-90198835D01*
X67903373Y-90204796D01*
X67879105Y-90208396D01*
X67854601Y-90209600D01*
X67204599Y-90209600D01*
X67180095Y-90208396D01*
X67155827Y-90204796D01*
X67132028Y-90198835D01*
X67108929Y-90190570D01*
X67086750Y-90180080D01*
X67065707Y-90167468D01*
X67046001Y-90152853D01*
X67027823Y-90136377D01*
X67011347Y-90118199D01*
X66996732Y-90098493D01*
X66984120Y-90077450D01*
X66973630Y-90055271D01*
X66965365Y-90032172D01*
X66959404Y-90008373D01*
X66955804Y-89984105D01*
X66954600Y-89959601D01*
X66954600Y-89059599D01*
X66955804Y-89035095D01*
X66959404Y-89010827D01*
X66965365Y-88987028D01*
X66973630Y-88963929D01*
X66984120Y-88941750D01*
X66996732Y-88920707D01*
X67011347Y-88901001D01*
X67027823Y-88882823D01*
X67046001Y-88866347D01*
X67065707Y-88851732D01*
X67086750Y-88839120D01*
X67108929Y-88828630D01*
X67132028Y-88820365D01*
X67155827Y-88814404D01*
X67180095Y-88810804D01*
X67204599Y-88809600D01*
X67854601Y-88809600D01*
X67879105Y-88810804D01*
X67879105Y-88810804D01*
G37*
D12*
X67529600Y-89509600D03*
D11*
G36*
X65407905Y-90943404D02*
G01*
X65432173Y-90947004D01*
X65455972Y-90952965D01*
X65479071Y-90961230D01*
X65501250Y-90971720D01*
X65522293Y-90984332D01*
X65541999Y-90998947D01*
X65560177Y-91015423D01*
X65576653Y-91033601D01*
X65591268Y-91053307D01*
X65603880Y-91074350D01*
X65614370Y-91096529D01*
X65622635Y-91119628D01*
X65628596Y-91143427D01*
X65632196Y-91167695D01*
X65633400Y-91192199D01*
X65633400Y-92092201D01*
X65632196Y-92116705D01*
X65628596Y-92140973D01*
X65622635Y-92164772D01*
X65614370Y-92187871D01*
X65603880Y-92210050D01*
X65591268Y-92231093D01*
X65576653Y-92250799D01*
X65560177Y-92268977D01*
X65541999Y-92285453D01*
X65522293Y-92300068D01*
X65501250Y-92312680D01*
X65479071Y-92323170D01*
X65455972Y-92331435D01*
X65432173Y-92337396D01*
X65407905Y-92340996D01*
X65383401Y-92342200D01*
X64733399Y-92342200D01*
X64708895Y-92340996D01*
X64684627Y-92337396D01*
X64660828Y-92331435D01*
X64637729Y-92323170D01*
X64615550Y-92312680D01*
X64594507Y-92300068D01*
X64574801Y-92285453D01*
X64556623Y-92268977D01*
X64540147Y-92250799D01*
X64525532Y-92231093D01*
X64512920Y-92210050D01*
X64502430Y-92187871D01*
X64494165Y-92164772D01*
X64488204Y-92140973D01*
X64484604Y-92116705D01*
X64483400Y-92092201D01*
X64483400Y-91192199D01*
X64484604Y-91167695D01*
X64488204Y-91143427D01*
X64494165Y-91119628D01*
X64502430Y-91096529D01*
X64512920Y-91074350D01*
X64525532Y-91053307D01*
X64540147Y-91033601D01*
X64556623Y-91015423D01*
X64574801Y-90998947D01*
X64594507Y-90984332D01*
X64615550Y-90971720D01*
X64637729Y-90961230D01*
X64660828Y-90952965D01*
X64684627Y-90947004D01*
X64708895Y-90943404D01*
X64733399Y-90942200D01*
X65383401Y-90942200D01*
X65407905Y-90943404D01*
X65407905Y-90943404D01*
G37*
D12*
X65058400Y-91642200D03*
D11*
G36*
X67457905Y-90943404D02*
G01*
X67482173Y-90947004D01*
X67505972Y-90952965D01*
X67529071Y-90961230D01*
X67551250Y-90971720D01*
X67572293Y-90984332D01*
X67591999Y-90998947D01*
X67610177Y-91015423D01*
X67626653Y-91033601D01*
X67641268Y-91053307D01*
X67653880Y-91074350D01*
X67664370Y-91096529D01*
X67672635Y-91119628D01*
X67678596Y-91143427D01*
X67682196Y-91167695D01*
X67683400Y-91192199D01*
X67683400Y-92092201D01*
X67682196Y-92116705D01*
X67678596Y-92140973D01*
X67672635Y-92164772D01*
X67664370Y-92187871D01*
X67653880Y-92210050D01*
X67641268Y-92231093D01*
X67626653Y-92250799D01*
X67610177Y-92268977D01*
X67591999Y-92285453D01*
X67572293Y-92300068D01*
X67551250Y-92312680D01*
X67529071Y-92323170D01*
X67505972Y-92331435D01*
X67482173Y-92337396D01*
X67457905Y-92340996D01*
X67433401Y-92342200D01*
X66783399Y-92342200D01*
X66758895Y-92340996D01*
X66734627Y-92337396D01*
X66710828Y-92331435D01*
X66687729Y-92323170D01*
X66665550Y-92312680D01*
X66644507Y-92300068D01*
X66624801Y-92285453D01*
X66606623Y-92268977D01*
X66590147Y-92250799D01*
X66575532Y-92231093D01*
X66562920Y-92210050D01*
X66552430Y-92187871D01*
X66544165Y-92164772D01*
X66538204Y-92140973D01*
X66534604Y-92116705D01*
X66533400Y-92092201D01*
X66533400Y-91192199D01*
X66534604Y-91167695D01*
X66538204Y-91143427D01*
X66544165Y-91119628D01*
X66552430Y-91096529D01*
X66562920Y-91074350D01*
X66575532Y-91053307D01*
X66590147Y-91033601D01*
X66606623Y-91015423D01*
X66624801Y-90998947D01*
X66644507Y-90984332D01*
X66665550Y-90971720D01*
X66687729Y-90961230D01*
X66710828Y-90952965D01*
X66734627Y-90947004D01*
X66758895Y-90943404D01*
X66783399Y-90942200D01*
X67433401Y-90942200D01*
X67457905Y-90943404D01*
X67457905Y-90943404D01*
G37*
D12*
X67108400Y-91642200D03*
D11*
G36*
X65881505Y-83502204D02*
G01*
X65905773Y-83505804D01*
X65929572Y-83511765D01*
X65952671Y-83520030D01*
X65974850Y-83530520D01*
X65995893Y-83543132D01*
X66015599Y-83557747D01*
X66033777Y-83574223D01*
X66050253Y-83592401D01*
X66064868Y-83612107D01*
X66077480Y-83633150D01*
X66087970Y-83655329D01*
X66096235Y-83678428D01*
X66102196Y-83702227D01*
X66105796Y-83726495D01*
X66107000Y-83750999D01*
X66107000Y-84651001D01*
X66105796Y-84675505D01*
X66102196Y-84699773D01*
X66096235Y-84723572D01*
X66087970Y-84746671D01*
X66077480Y-84768850D01*
X66064868Y-84789893D01*
X66050253Y-84809599D01*
X66033777Y-84827777D01*
X66015599Y-84844253D01*
X65995893Y-84858868D01*
X65974850Y-84871480D01*
X65952671Y-84881970D01*
X65929572Y-84890235D01*
X65905773Y-84896196D01*
X65881505Y-84899796D01*
X65857001Y-84901000D01*
X65206999Y-84901000D01*
X65182495Y-84899796D01*
X65158227Y-84896196D01*
X65134428Y-84890235D01*
X65111329Y-84881970D01*
X65089150Y-84871480D01*
X65068107Y-84858868D01*
X65048401Y-84844253D01*
X65030223Y-84827777D01*
X65013747Y-84809599D01*
X64999132Y-84789893D01*
X64986520Y-84768850D01*
X64976030Y-84746671D01*
X64967765Y-84723572D01*
X64961804Y-84699773D01*
X64958204Y-84675505D01*
X64957000Y-84651001D01*
X64957000Y-83750999D01*
X64958204Y-83726495D01*
X64961804Y-83702227D01*
X64967765Y-83678428D01*
X64976030Y-83655329D01*
X64986520Y-83633150D01*
X64999132Y-83612107D01*
X65013747Y-83592401D01*
X65030223Y-83574223D01*
X65048401Y-83557747D01*
X65068107Y-83543132D01*
X65089150Y-83530520D01*
X65111329Y-83520030D01*
X65134428Y-83511765D01*
X65158227Y-83505804D01*
X65182495Y-83502204D01*
X65206999Y-83501000D01*
X65857001Y-83501000D01*
X65881505Y-83502204D01*
X65881505Y-83502204D01*
G37*
D12*
X65532000Y-84201000D03*
D11*
G36*
X63831505Y-83502204D02*
G01*
X63855773Y-83505804D01*
X63879572Y-83511765D01*
X63902671Y-83520030D01*
X63924850Y-83530520D01*
X63945893Y-83543132D01*
X63965599Y-83557747D01*
X63983777Y-83574223D01*
X64000253Y-83592401D01*
X64014868Y-83612107D01*
X64027480Y-83633150D01*
X64037970Y-83655329D01*
X64046235Y-83678428D01*
X64052196Y-83702227D01*
X64055796Y-83726495D01*
X64057000Y-83750999D01*
X64057000Y-84651001D01*
X64055796Y-84675505D01*
X64052196Y-84699773D01*
X64046235Y-84723572D01*
X64037970Y-84746671D01*
X64027480Y-84768850D01*
X64014868Y-84789893D01*
X64000253Y-84809599D01*
X63983777Y-84827777D01*
X63965599Y-84844253D01*
X63945893Y-84858868D01*
X63924850Y-84871480D01*
X63902671Y-84881970D01*
X63879572Y-84890235D01*
X63855773Y-84896196D01*
X63831505Y-84899796D01*
X63807001Y-84901000D01*
X63156999Y-84901000D01*
X63132495Y-84899796D01*
X63108227Y-84896196D01*
X63084428Y-84890235D01*
X63061329Y-84881970D01*
X63039150Y-84871480D01*
X63018107Y-84858868D01*
X62998401Y-84844253D01*
X62980223Y-84827777D01*
X62963747Y-84809599D01*
X62949132Y-84789893D01*
X62936520Y-84768850D01*
X62926030Y-84746671D01*
X62917765Y-84723572D01*
X62911804Y-84699773D01*
X62908204Y-84675505D01*
X62907000Y-84651001D01*
X62907000Y-83750999D01*
X62908204Y-83726495D01*
X62911804Y-83702227D01*
X62917765Y-83678428D01*
X62926030Y-83655329D01*
X62936520Y-83633150D01*
X62949132Y-83612107D01*
X62963747Y-83592401D01*
X62980223Y-83574223D01*
X62998401Y-83557747D01*
X63018107Y-83543132D01*
X63039150Y-83530520D01*
X63061329Y-83520030D01*
X63084428Y-83511765D01*
X63108227Y-83505804D01*
X63132495Y-83502204D01*
X63156999Y-83501000D01*
X63807001Y-83501000D01*
X63831505Y-83502204D01*
X63831505Y-83502204D01*
G37*
D12*
X63482000Y-84201000D03*
D11*
G36*
X58132505Y-87724004D02*
G01*
X58156773Y-87727604D01*
X58180572Y-87733565D01*
X58203671Y-87741830D01*
X58225850Y-87752320D01*
X58246893Y-87764932D01*
X58266599Y-87779547D01*
X58284777Y-87796023D01*
X58301253Y-87814201D01*
X58315868Y-87833907D01*
X58328480Y-87854950D01*
X58338970Y-87877129D01*
X58347235Y-87900228D01*
X58353196Y-87924027D01*
X58356796Y-87948295D01*
X58358000Y-87972799D01*
X58358000Y-88622801D01*
X58356796Y-88647305D01*
X58353196Y-88671573D01*
X58347235Y-88695372D01*
X58338970Y-88718471D01*
X58328480Y-88740650D01*
X58315868Y-88761693D01*
X58301253Y-88781399D01*
X58284777Y-88799577D01*
X58266599Y-88816053D01*
X58246893Y-88830668D01*
X58225850Y-88843280D01*
X58203671Y-88853770D01*
X58180572Y-88862035D01*
X58156773Y-88867996D01*
X58132505Y-88871596D01*
X58108001Y-88872800D01*
X57207999Y-88872800D01*
X57183495Y-88871596D01*
X57159227Y-88867996D01*
X57135428Y-88862035D01*
X57112329Y-88853770D01*
X57090150Y-88843280D01*
X57069107Y-88830668D01*
X57049401Y-88816053D01*
X57031223Y-88799577D01*
X57014747Y-88781399D01*
X57000132Y-88761693D01*
X56987520Y-88740650D01*
X56977030Y-88718471D01*
X56968765Y-88695372D01*
X56962804Y-88671573D01*
X56959204Y-88647305D01*
X56958000Y-88622801D01*
X56958000Y-87972799D01*
X56959204Y-87948295D01*
X56962804Y-87924027D01*
X56968765Y-87900228D01*
X56977030Y-87877129D01*
X56987520Y-87854950D01*
X57000132Y-87833907D01*
X57014747Y-87814201D01*
X57031223Y-87796023D01*
X57049401Y-87779547D01*
X57069107Y-87764932D01*
X57090150Y-87752320D01*
X57112329Y-87741830D01*
X57135428Y-87733565D01*
X57159227Y-87727604D01*
X57183495Y-87724004D01*
X57207999Y-87722800D01*
X58108001Y-87722800D01*
X58132505Y-87724004D01*
X58132505Y-87724004D01*
G37*
D12*
X57658000Y-88297800D03*
D11*
G36*
X58132505Y-89774004D02*
G01*
X58156773Y-89777604D01*
X58180572Y-89783565D01*
X58203671Y-89791830D01*
X58225850Y-89802320D01*
X58246893Y-89814932D01*
X58266599Y-89829547D01*
X58284777Y-89846023D01*
X58301253Y-89864201D01*
X58315868Y-89883907D01*
X58328480Y-89904950D01*
X58338970Y-89927129D01*
X58347235Y-89950228D01*
X58353196Y-89974027D01*
X58356796Y-89998295D01*
X58358000Y-90022799D01*
X58358000Y-90672801D01*
X58356796Y-90697305D01*
X58353196Y-90721573D01*
X58347235Y-90745372D01*
X58338970Y-90768471D01*
X58328480Y-90790650D01*
X58315868Y-90811693D01*
X58301253Y-90831399D01*
X58284777Y-90849577D01*
X58266599Y-90866053D01*
X58246893Y-90880668D01*
X58225850Y-90893280D01*
X58203671Y-90903770D01*
X58180572Y-90912035D01*
X58156773Y-90917996D01*
X58132505Y-90921596D01*
X58108001Y-90922800D01*
X57207999Y-90922800D01*
X57183495Y-90921596D01*
X57159227Y-90917996D01*
X57135428Y-90912035D01*
X57112329Y-90903770D01*
X57090150Y-90893280D01*
X57069107Y-90880668D01*
X57049401Y-90866053D01*
X57031223Y-90849577D01*
X57014747Y-90831399D01*
X57000132Y-90811693D01*
X56987520Y-90790650D01*
X56977030Y-90768471D01*
X56968765Y-90745372D01*
X56962804Y-90721573D01*
X56959204Y-90697305D01*
X56958000Y-90672801D01*
X56958000Y-90022799D01*
X56959204Y-89998295D01*
X56962804Y-89974027D01*
X56968765Y-89950228D01*
X56977030Y-89927129D01*
X56987520Y-89904950D01*
X57000132Y-89883907D01*
X57014747Y-89864201D01*
X57031223Y-89846023D01*
X57049401Y-89829547D01*
X57069107Y-89814932D01*
X57090150Y-89802320D01*
X57112329Y-89791830D01*
X57135428Y-89783565D01*
X57159227Y-89777604D01*
X57183495Y-89774004D01*
X57207999Y-89772800D01*
X58108001Y-89772800D01*
X58132505Y-89774004D01*
X58132505Y-89774004D01*
G37*
D12*
X57658000Y-90347800D03*
D11*
G36*
X56635905Y-109842004D02*
G01*
X56660173Y-109845604D01*
X56683972Y-109851565D01*
X56707071Y-109859830D01*
X56729250Y-109870320D01*
X56750293Y-109882932D01*
X56769999Y-109897547D01*
X56788177Y-109914023D01*
X56804653Y-109932201D01*
X56819268Y-109951907D01*
X56831880Y-109972950D01*
X56842370Y-109995129D01*
X56850635Y-110018228D01*
X56856596Y-110042027D01*
X56860196Y-110066295D01*
X56861400Y-110090799D01*
X56861400Y-110990801D01*
X56860196Y-111015305D01*
X56856596Y-111039573D01*
X56850635Y-111063372D01*
X56842370Y-111086471D01*
X56831880Y-111108650D01*
X56819268Y-111129693D01*
X56804653Y-111149399D01*
X56788177Y-111167577D01*
X56769999Y-111184053D01*
X56750293Y-111198668D01*
X56729250Y-111211280D01*
X56707071Y-111221770D01*
X56683972Y-111230035D01*
X56660173Y-111235996D01*
X56635905Y-111239596D01*
X56611401Y-111240800D01*
X55961399Y-111240800D01*
X55936895Y-111239596D01*
X55912627Y-111235996D01*
X55888828Y-111230035D01*
X55865729Y-111221770D01*
X55843550Y-111211280D01*
X55822507Y-111198668D01*
X55802801Y-111184053D01*
X55784623Y-111167577D01*
X55768147Y-111149399D01*
X55753532Y-111129693D01*
X55740920Y-111108650D01*
X55730430Y-111086471D01*
X55722165Y-111063372D01*
X55716204Y-111039573D01*
X55712604Y-111015305D01*
X55711400Y-110990801D01*
X55711400Y-110090799D01*
X55712604Y-110066295D01*
X55716204Y-110042027D01*
X55722165Y-110018228D01*
X55730430Y-109995129D01*
X55740920Y-109972950D01*
X55753532Y-109951907D01*
X55768147Y-109932201D01*
X55784623Y-109914023D01*
X55802801Y-109897547D01*
X55822507Y-109882932D01*
X55843550Y-109870320D01*
X55865729Y-109859830D01*
X55888828Y-109851565D01*
X55912627Y-109845604D01*
X55936895Y-109842004D01*
X55961399Y-109840800D01*
X56611401Y-109840800D01*
X56635905Y-109842004D01*
X56635905Y-109842004D01*
G37*
D12*
X56286400Y-110540800D03*
D11*
G36*
X54585905Y-109842004D02*
G01*
X54610173Y-109845604D01*
X54633972Y-109851565D01*
X54657071Y-109859830D01*
X54679250Y-109870320D01*
X54700293Y-109882932D01*
X54719999Y-109897547D01*
X54738177Y-109914023D01*
X54754653Y-109932201D01*
X54769268Y-109951907D01*
X54781880Y-109972950D01*
X54792370Y-109995129D01*
X54800635Y-110018228D01*
X54806596Y-110042027D01*
X54810196Y-110066295D01*
X54811400Y-110090799D01*
X54811400Y-110990801D01*
X54810196Y-111015305D01*
X54806596Y-111039573D01*
X54800635Y-111063372D01*
X54792370Y-111086471D01*
X54781880Y-111108650D01*
X54769268Y-111129693D01*
X54754653Y-111149399D01*
X54738177Y-111167577D01*
X54719999Y-111184053D01*
X54700293Y-111198668D01*
X54679250Y-111211280D01*
X54657071Y-111221770D01*
X54633972Y-111230035D01*
X54610173Y-111235996D01*
X54585905Y-111239596D01*
X54561401Y-111240800D01*
X53911399Y-111240800D01*
X53886895Y-111239596D01*
X53862627Y-111235996D01*
X53838828Y-111230035D01*
X53815729Y-111221770D01*
X53793550Y-111211280D01*
X53772507Y-111198668D01*
X53752801Y-111184053D01*
X53734623Y-111167577D01*
X53718147Y-111149399D01*
X53703532Y-111129693D01*
X53690920Y-111108650D01*
X53680430Y-111086471D01*
X53672165Y-111063372D01*
X53666204Y-111039573D01*
X53662604Y-111015305D01*
X53661400Y-110990801D01*
X53661400Y-110090799D01*
X53662604Y-110066295D01*
X53666204Y-110042027D01*
X53672165Y-110018228D01*
X53680430Y-109995129D01*
X53690920Y-109972950D01*
X53703532Y-109951907D01*
X53718147Y-109932201D01*
X53734623Y-109914023D01*
X53752801Y-109897547D01*
X53772507Y-109882932D01*
X53793550Y-109870320D01*
X53815729Y-109859830D01*
X53838828Y-109851565D01*
X53862627Y-109845604D01*
X53886895Y-109842004D01*
X53911399Y-109840800D01*
X54561401Y-109840800D01*
X54585905Y-109842004D01*
X54585905Y-109842004D01*
G37*
D12*
X54236400Y-110540800D03*
D11*
G36*
X58107105Y-93856004D02*
G01*
X58131373Y-93859604D01*
X58155172Y-93865565D01*
X58178271Y-93873830D01*
X58200450Y-93884320D01*
X58221493Y-93896932D01*
X58241199Y-93911547D01*
X58259377Y-93928023D01*
X58275853Y-93946201D01*
X58290468Y-93965907D01*
X58303080Y-93986950D01*
X58313570Y-94009129D01*
X58321835Y-94032228D01*
X58327796Y-94056027D01*
X58331396Y-94080295D01*
X58332600Y-94104799D01*
X58332600Y-94754801D01*
X58331396Y-94779305D01*
X58327796Y-94803573D01*
X58321835Y-94827372D01*
X58313570Y-94850471D01*
X58303080Y-94872650D01*
X58290468Y-94893693D01*
X58275853Y-94913399D01*
X58259377Y-94931577D01*
X58241199Y-94948053D01*
X58221493Y-94962668D01*
X58200450Y-94975280D01*
X58178271Y-94985770D01*
X58155172Y-94994035D01*
X58131373Y-94999996D01*
X58107105Y-95003596D01*
X58082601Y-95004800D01*
X57182599Y-95004800D01*
X57158095Y-95003596D01*
X57133827Y-94999996D01*
X57110028Y-94994035D01*
X57086929Y-94985770D01*
X57064750Y-94975280D01*
X57043707Y-94962668D01*
X57024001Y-94948053D01*
X57005823Y-94931577D01*
X56989347Y-94913399D01*
X56974732Y-94893693D01*
X56962120Y-94872650D01*
X56951630Y-94850471D01*
X56943365Y-94827372D01*
X56937404Y-94803573D01*
X56933804Y-94779305D01*
X56932600Y-94754801D01*
X56932600Y-94104799D01*
X56933804Y-94080295D01*
X56937404Y-94056027D01*
X56943365Y-94032228D01*
X56951630Y-94009129D01*
X56962120Y-93986950D01*
X56974732Y-93965907D01*
X56989347Y-93946201D01*
X57005823Y-93928023D01*
X57024001Y-93911547D01*
X57043707Y-93896932D01*
X57064750Y-93884320D01*
X57086929Y-93873830D01*
X57110028Y-93865565D01*
X57133827Y-93859604D01*
X57158095Y-93856004D01*
X57182599Y-93854800D01*
X58082601Y-93854800D01*
X58107105Y-93856004D01*
X58107105Y-93856004D01*
G37*
D12*
X57632600Y-94429800D03*
D11*
G36*
X58107105Y-91806004D02*
G01*
X58131373Y-91809604D01*
X58155172Y-91815565D01*
X58178271Y-91823830D01*
X58200450Y-91834320D01*
X58221493Y-91846932D01*
X58241199Y-91861547D01*
X58259377Y-91878023D01*
X58275853Y-91896201D01*
X58290468Y-91915907D01*
X58303080Y-91936950D01*
X58313570Y-91959129D01*
X58321835Y-91982228D01*
X58327796Y-92006027D01*
X58331396Y-92030295D01*
X58332600Y-92054799D01*
X58332600Y-92704801D01*
X58331396Y-92729305D01*
X58327796Y-92753573D01*
X58321835Y-92777372D01*
X58313570Y-92800471D01*
X58303080Y-92822650D01*
X58290468Y-92843693D01*
X58275853Y-92863399D01*
X58259377Y-92881577D01*
X58241199Y-92898053D01*
X58221493Y-92912668D01*
X58200450Y-92925280D01*
X58178271Y-92935770D01*
X58155172Y-92944035D01*
X58131373Y-92949996D01*
X58107105Y-92953596D01*
X58082601Y-92954800D01*
X57182599Y-92954800D01*
X57158095Y-92953596D01*
X57133827Y-92949996D01*
X57110028Y-92944035D01*
X57086929Y-92935770D01*
X57064750Y-92925280D01*
X57043707Y-92912668D01*
X57024001Y-92898053D01*
X57005823Y-92881577D01*
X56989347Y-92863399D01*
X56974732Y-92843693D01*
X56962120Y-92822650D01*
X56951630Y-92800471D01*
X56943365Y-92777372D01*
X56937404Y-92753573D01*
X56933804Y-92729305D01*
X56932600Y-92704801D01*
X56932600Y-92054799D01*
X56933804Y-92030295D01*
X56937404Y-92006027D01*
X56943365Y-91982228D01*
X56951630Y-91959129D01*
X56962120Y-91936950D01*
X56974732Y-91915907D01*
X56989347Y-91896201D01*
X57005823Y-91878023D01*
X57024001Y-91861547D01*
X57043707Y-91846932D01*
X57064750Y-91834320D01*
X57086929Y-91823830D01*
X57110028Y-91815565D01*
X57133827Y-91809604D01*
X57158095Y-91806004D01*
X57182599Y-91804800D01*
X58082601Y-91804800D01*
X58107105Y-91806004D01*
X58107105Y-91806004D01*
G37*
D12*
X57632600Y-92379800D03*
D11*
G36*
X110745305Y-123100804D02*
G01*
X110769573Y-123104404D01*
X110793372Y-123110365D01*
X110816471Y-123118630D01*
X110838650Y-123129120D01*
X110859693Y-123141732D01*
X110879399Y-123156347D01*
X110897577Y-123172823D01*
X110914053Y-123191001D01*
X110928668Y-123210707D01*
X110941280Y-123231750D01*
X110951770Y-123253929D01*
X110960035Y-123277028D01*
X110965996Y-123300827D01*
X110969596Y-123325095D01*
X110970800Y-123349599D01*
X110970800Y-124249601D01*
X110969596Y-124274105D01*
X110965996Y-124298373D01*
X110960035Y-124322172D01*
X110951770Y-124345271D01*
X110941280Y-124367450D01*
X110928668Y-124388493D01*
X110914053Y-124408199D01*
X110897577Y-124426377D01*
X110879399Y-124442853D01*
X110859693Y-124457468D01*
X110838650Y-124470080D01*
X110816471Y-124480570D01*
X110793372Y-124488835D01*
X110769573Y-124494796D01*
X110745305Y-124498396D01*
X110720801Y-124499600D01*
X110070799Y-124499600D01*
X110046295Y-124498396D01*
X110022027Y-124494796D01*
X109998228Y-124488835D01*
X109975129Y-124480570D01*
X109952950Y-124470080D01*
X109931907Y-124457468D01*
X109912201Y-124442853D01*
X109894023Y-124426377D01*
X109877547Y-124408199D01*
X109862932Y-124388493D01*
X109850320Y-124367450D01*
X109839830Y-124345271D01*
X109831565Y-124322172D01*
X109825604Y-124298373D01*
X109822004Y-124274105D01*
X109820800Y-124249601D01*
X109820800Y-123349599D01*
X109822004Y-123325095D01*
X109825604Y-123300827D01*
X109831565Y-123277028D01*
X109839830Y-123253929D01*
X109850320Y-123231750D01*
X109862932Y-123210707D01*
X109877547Y-123191001D01*
X109894023Y-123172823D01*
X109912201Y-123156347D01*
X109931907Y-123141732D01*
X109952950Y-123129120D01*
X109975129Y-123118630D01*
X109998228Y-123110365D01*
X110022027Y-123104404D01*
X110046295Y-123100804D01*
X110070799Y-123099600D01*
X110720801Y-123099600D01*
X110745305Y-123100804D01*
X110745305Y-123100804D01*
G37*
D12*
X110395800Y-123799600D03*
D11*
G36*
X112795305Y-123100804D02*
G01*
X112819573Y-123104404D01*
X112843372Y-123110365D01*
X112866471Y-123118630D01*
X112888650Y-123129120D01*
X112909693Y-123141732D01*
X112929399Y-123156347D01*
X112947577Y-123172823D01*
X112964053Y-123191001D01*
X112978668Y-123210707D01*
X112991280Y-123231750D01*
X113001770Y-123253929D01*
X113010035Y-123277028D01*
X113015996Y-123300827D01*
X113019596Y-123325095D01*
X113020800Y-123349599D01*
X113020800Y-124249601D01*
X113019596Y-124274105D01*
X113015996Y-124298373D01*
X113010035Y-124322172D01*
X113001770Y-124345271D01*
X112991280Y-124367450D01*
X112978668Y-124388493D01*
X112964053Y-124408199D01*
X112947577Y-124426377D01*
X112929399Y-124442853D01*
X112909693Y-124457468D01*
X112888650Y-124470080D01*
X112866471Y-124480570D01*
X112843372Y-124488835D01*
X112819573Y-124494796D01*
X112795305Y-124498396D01*
X112770801Y-124499600D01*
X112120799Y-124499600D01*
X112096295Y-124498396D01*
X112072027Y-124494796D01*
X112048228Y-124488835D01*
X112025129Y-124480570D01*
X112002950Y-124470080D01*
X111981907Y-124457468D01*
X111962201Y-124442853D01*
X111944023Y-124426377D01*
X111927547Y-124408199D01*
X111912932Y-124388493D01*
X111900320Y-124367450D01*
X111889830Y-124345271D01*
X111881565Y-124322172D01*
X111875604Y-124298373D01*
X111872004Y-124274105D01*
X111870800Y-124249601D01*
X111870800Y-123349599D01*
X111872004Y-123325095D01*
X111875604Y-123300827D01*
X111881565Y-123277028D01*
X111889830Y-123253929D01*
X111900320Y-123231750D01*
X111912932Y-123210707D01*
X111927547Y-123191001D01*
X111944023Y-123172823D01*
X111962201Y-123156347D01*
X111981907Y-123141732D01*
X112002950Y-123129120D01*
X112025129Y-123118630D01*
X112048228Y-123110365D01*
X112072027Y-123104404D01*
X112096295Y-123100804D01*
X112120799Y-123099600D01*
X112770801Y-123099600D01*
X112795305Y-123100804D01*
X112795305Y-123100804D01*
G37*
D12*
X112445800Y-123799600D03*
D11*
G36*
X78832905Y-122818404D02*
G01*
X78857173Y-122822004D01*
X78880972Y-122827965D01*
X78904071Y-122836230D01*
X78926250Y-122846720D01*
X78947293Y-122859332D01*
X78966999Y-122873947D01*
X78985177Y-122890423D01*
X79001653Y-122908601D01*
X79016268Y-122928307D01*
X79028880Y-122949350D01*
X79039370Y-122971529D01*
X79047635Y-122994628D01*
X79053596Y-123018427D01*
X79057196Y-123042695D01*
X79058400Y-123067199D01*
X79058400Y-123967201D01*
X79057196Y-123991705D01*
X79053596Y-124015973D01*
X79047635Y-124039772D01*
X79039370Y-124062871D01*
X79028880Y-124085050D01*
X79016268Y-124106093D01*
X79001653Y-124125799D01*
X78985177Y-124143977D01*
X78966999Y-124160453D01*
X78947293Y-124175068D01*
X78926250Y-124187680D01*
X78904071Y-124198170D01*
X78880972Y-124206435D01*
X78857173Y-124212396D01*
X78832905Y-124215996D01*
X78808401Y-124217200D01*
X78158399Y-124217200D01*
X78133895Y-124215996D01*
X78109627Y-124212396D01*
X78085828Y-124206435D01*
X78062729Y-124198170D01*
X78040550Y-124187680D01*
X78019507Y-124175068D01*
X77999801Y-124160453D01*
X77981623Y-124143977D01*
X77965147Y-124125799D01*
X77950532Y-124106093D01*
X77937920Y-124085050D01*
X77927430Y-124062871D01*
X77919165Y-124039772D01*
X77913204Y-124015973D01*
X77909604Y-123991705D01*
X77908400Y-123967201D01*
X77908400Y-123067199D01*
X77909604Y-123042695D01*
X77913204Y-123018427D01*
X77919165Y-122994628D01*
X77927430Y-122971529D01*
X77937920Y-122949350D01*
X77950532Y-122928307D01*
X77965147Y-122908601D01*
X77981623Y-122890423D01*
X77999801Y-122873947D01*
X78019507Y-122859332D01*
X78040550Y-122846720D01*
X78062729Y-122836230D01*
X78085828Y-122827965D01*
X78109627Y-122822004D01*
X78133895Y-122818404D01*
X78158399Y-122817200D01*
X78808401Y-122817200D01*
X78832905Y-122818404D01*
X78832905Y-122818404D01*
G37*
D12*
X78483400Y-123517200D03*
D11*
G36*
X80882905Y-122818404D02*
G01*
X80907173Y-122822004D01*
X80930972Y-122827965D01*
X80954071Y-122836230D01*
X80976250Y-122846720D01*
X80997293Y-122859332D01*
X81016999Y-122873947D01*
X81035177Y-122890423D01*
X81051653Y-122908601D01*
X81066268Y-122928307D01*
X81078880Y-122949350D01*
X81089370Y-122971529D01*
X81097635Y-122994628D01*
X81103596Y-123018427D01*
X81107196Y-123042695D01*
X81108400Y-123067199D01*
X81108400Y-123967201D01*
X81107196Y-123991705D01*
X81103596Y-124015973D01*
X81097635Y-124039772D01*
X81089370Y-124062871D01*
X81078880Y-124085050D01*
X81066268Y-124106093D01*
X81051653Y-124125799D01*
X81035177Y-124143977D01*
X81016999Y-124160453D01*
X80997293Y-124175068D01*
X80976250Y-124187680D01*
X80954071Y-124198170D01*
X80930972Y-124206435D01*
X80907173Y-124212396D01*
X80882905Y-124215996D01*
X80858401Y-124217200D01*
X80208399Y-124217200D01*
X80183895Y-124215996D01*
X80159627Y-124212396D01*
X80135828Y-124206435D01*
X80112729Y-124198170D01*
X80090550Y-124187680D01*
X80069507Y-124175068D01*
X80049801Y-124160453D01*
X80031623Y-124143977D01*
X80015147Y-124125799D01*
X80000532Y-124106093D01*
X79987920Y-124085050D01*
X79977430Y-124062871D01*
X79969165Y-124039772D01*
X79963204Y-124015973D01*
X79959604Y-123991705D01*
X79958400Y-123967201D01*
X79958400Y-123067199D01*
X79959604Y-123042695D01*
X79963204Y-123018427D01*
X79969165Y-122994628D01*
X79977430Y-122971529D01*
X79987920Y-122949350D01*
X80000532Y-122928307D01*
X80015147Y-122908601D01*
X80031623Y-122890423D01*
X80049801Y-122873947D01*
X80069507Y-122859332D01*
X80090550Y-122846720D01*
X80112729Y-122836230D01*
X80135828Y-122827965D01*
X80159627Y-122822004D01*
X80183895Y-122818404D01*
X80208399Y-122817200D01*
X80858401Y-122817200D01*
X80882905Y-122818404D01*
X80882905Y-122818404D01*
G37*
D12*
X80533400Y-123517200D03*
D11*
G36*
X78882905Y-125818404D02*
G01*
X78907173Y-125822004D01*
X78930972Y-125827965D01*
X78954071Y-125836230D01*
X78976250Y-125846720D01*
X78997293Y-125859332D01*
X79016999Y-125873947D01*
X79035177Y-125890423D01*
X79051653Y-125908601D01*
X79066268Y-125928307D01*
X79078880Y-125949350D01*
X79089370Y-125971529D01*
X79097635Y-125994628D01*
X79103596Y-126018427D01*
X79107196Y-126042695D01*
X79108400Y-126067199D01*
X79108400Y-126967201D01*
X79107196Y-126991705D01*
X79103596Y-127015973D01*
X79097635Y-127039772D01*
X79089370Y-127062871D01*
X79078880Y-127085050D01*
X79066268Y-127106093D01*
X79051653Y-127125799D01*
X79035177Y-127143977D01*
X79016999Y-127160453D01*
X78997293Y-127175068D01*
X78976250Y-127187680D01*
X78954071Y-127198170D01*
X78930972Y-127206435D01*
X78907173Y-127212396D01*
X78882905Y-127215996D01*
X78858401Y-127217200D01*
X78208399Y-127217200D01*
X78183895Y-127215996D01*
X78159627Y-127212396D01*
X78135828Y-127206435D01*
X78112729Y-127198170D01*
X78090550Y-127187680D01*
X78069507Y-127175068D01*
X78049801Y-127160453D01*
X78031623Y-127143977D01*
X78015147Y-127125799D01*
X78000532Y-127106093D01*
X77987920Y-127085050D01*
X77977430Y-127062871D01*
X77969165Y-127039772D01*
X77963204Y-127015973D01*
X77959604Y-126991705D01*
X77958400Y-126967201D01*
X77958400Y-126067199D01*
X77959604Y-126042695D01*
X77963204Y-126018427D01*
X77969165Y-125994628D01*
X77977430Y-125971529D01*
X77987920Y-125949350D01*
X78000532Y-125928307D01*
X78015147Y-125908601D01*
X78031623Y-125890423D01*
X78049801Y-125873947D01*
X78069507Y-125859332D01*
X78090550Y-125846720D01*
X78112729Y-125836230D01*
X78135828Y-125827965D01*
X78159627Y-125822004D01*
X78183895Y-125818404D01*
X78208399Y-125817200D01*
X78858401Y-125817200D01*
X78882905Y-125818404D01*
X78882905Y-125818404D01*
G37*
D12*
X78533400Y-126517200D03*
D11*
G36*
X80932905Y-125818404D02*
G01*
X80957173Y-125822004D01*
X80980972Y-125827965D01*
X81004071Y-125836230D01*
X81026250Y-125846720D01*
X81047293Y-125859332D01*
X81066999Y-125873947D01*
X81085177Y-125890423D01*
X81101653Y-125908601D01*
X81116268Y-125928307D01*
X81128880Y-125949350D01*
X81139370Y-125971529D01*
X81147635Y-125994628D01*
X81153596Y-126018427D01*
X81157196Y-126042695D01*
X81158400Y-126067199D01*
X81158400Y-126967201D01*
X81157196Y-126991705D01*
X81153596Y-127015973D01*
X81147635Y-127039772D01*
X81139370Y-127062871D01*
X81128880Y-127085050D01*
X81116268Y-127106093D01*
X81101653Y-127125799D01*
X81085177Y-127143977D01*
X81066999Y-127160453D01*
X81047293Y-127175068D01*
X81026250Y-127187680D01*
X81004071Y-127198170D01*
X80980972Y-127206435D01*
X80957173Y-127212396D01*
X80932905Y-127215996D01*
X80908401Y-127217200D01*
X80258399Y-127217200D01*
X80233895Y-127215996D01*
X80209627Y-127212396D01*
X80185828Y-127206435D01*
X80162729Y-127198170D01*
X80140550Y-127187680D01*
X80119507Y-127175068D01*
X80099801Y-127160453D01*
X80081623Y-127143977D01*
X80065147Y-127125799D01*
X80050532Y-127106093D01*
X80037920Y-127085050D01*
X80027430Y-127062871D01*
X80019165Y-127039772D01*
X80013204Y-127015973D01*
X80009604Y-126991705D01*
X80008400Y-126967201D01*
X80008400Y-126067199D01*
X80009604Y-126042695D01*
X80013204Y-126018427D01*
X80019165Y-125994628D01*
X80027430Y-125971529D01*
X80037920Y-125949350D01*
X80050532Y-125928307D01*
X80065147Y-125908601D01*
X80081623Y-125890423D01*
X80099801Y-125873947D01*
X80119507Y-125859332D01*
X80140550Y-125846720D01*
X80162729Y-125836230D01*
X80185828Y-125827965D01*
X80209627Y-125822004D01*
X80233895Y-125818404D01*
X80258399Y-125817200D01*
X80908401Y-125817200D01*
X80932905Y-125818404D01*
X80932905Y-125818404D01*
G37*
D12*
X80583400Y-126517200D03*
D11*
G36*
X105382905Y-120318404D02*
G01*
X105407173Y-120322004D01*
X105430972Y-120327965D01*
X105454071Y-120336230D01*
X105476250Y-120346720D01*
X105497293Y-120359332D01*
X105516999Y-120373947D01*
X105535177Y-120390423D01*
X105551653Y-120408601D01*
X105566268Y-120428307D01*
X105578880Y-120449350D01*
X105589370Y-120471529D01*
X105597635Y-120494628D01*
X105603596Y-120518427D01*
X105607196Y-120542695D01*
X105608400Y-120567199D01*
X105608400Y-121467201D01*
X105607196Y-121491705D01*
X105603596Y-121515973D01*
X105597635Y-121539772D01*
X105589370Y-121562871D01*
X105578880Y-121585050D01*
X105566268Y-121606093D01*
X105551653Y-121625799D01*
X105535177Y-121643977D01*
X105516999Y-121660453D01*
X105497293Y-121675068D01*
X105476250Y-121687680D01*
X105454071Y-121698170D01*
X105430972Y-121706435D01*
X105407173Y-121712396D01*
X105382905Y-121715996D01*
X105358401Y-121717200D01*
X104708399Y-121717200D01*
X104683895Y-121715996D01*
X104659627Y-121712396D01*
X104635828Y-121706435D01*
X104612729Y-121698170D01*
X104590550Y-121687680D01*
X104569507Y-121675068D01*
X104549801Y-121660453D01*
X104531623Y-121643977D01*
X104515147Y-121625799D01*
X104500532Y-121606093D01*
X104487920Y-121585050D01*
X104477430Y-121562871D01*
X104469165Y-121539772D01*
X104463204Y-121515973D01*
X104459604Y-121491705D01*
X104458400Y-121467201D01*
X104458400Y-120567199D01*
X104459604Y-120542695D01*
X104463204Y-120518427D01*
X104469165Y-120494628D01*
X104477430Y-120471529D01*
X104487920Y-120449350D01*
X104500532Y-120428307D01*
X104515147Y-120408601D01*
X104531623Y-120390423D01*
X104549801Y-120373947D01*
X104569507Y-120359332D01*
X104590550Y-120346720D01*
X104612729Y-120336230D01*
X104635828Y-120327965D01*
X104659627Y-120322004D01*
X104683895Y-120318404D01*
X104708399Y-120317200D01*
X105358401Y-120317200D01*
X105382905Y-120318404D01*
X105382905Y-120318404D01*
G37*
D12*
X105033400Y-121017200D03*
D11*
G36*
X103332905Y-120318404D02*
G01*
X103357173Y-120322004D01*
X103380972Y-120327965D01*
X103404071Y-120336230D01*
X103426250Y-120346720D01*
X103447293Y-120359332D01*
X103466999Y-120373947D01*
X103485177Y-120390423D01*
X103501653Y-120408601D01*
X103516268Y-120428307D01*
X103528880Y-120449350D01*
X103539370Y-120471529D01*
X103547635Y-120494628D01*
X103553596Y-120518427D01*
X103557196Y-120542695D01*
X103558400Y-120567199D01*
X103558400Y-121467201D01*
X103557196Y-121491705D01*
X103553596Y-121515973D01*
X103547635Y-121539772D01*
X103539370Y-121562871D01*
X103528880Y-121585050D01*
X103516268Y-121606093D01*
X103501653Y-121625799D01*
X103485177Y-121643977D01*
X103466999Y-121660453D01*
X103447293Y-121675068D01*
X103426250Y-121687680D01*
X103404071Y-121698170D01*
X103380972Y-121706435D01*
X103357173Y-121712396D01*
X103332905Y-121715996D01*
X103308401Y-121717200D01*
X102658399Y-121717200D01*
X102633895Y-121715996D01*
X102609627Y-121712396D01*
X102585828Y-121706435D01*
X102562729Y-121698170D01*
X102540550Y-121687680D01*
X102519507Y-121675068D01*
X102499801Y-121660453D01*
X102481623Y-121643977D01*
X102465147Y-121625799D01*
X102450532Y-121606093D01*
X102437920Y-121585050D01*
X102427430Y-121562871D01*
X102419165Y-121539772D01*
X102413204Y-121515973D01*
X102409604Y-121491705D01*
X102408400Y-121467201D01*
X102408400Y-120567199D01*
X102409604Y-120542695D01*
X102413204Y-120518427D01*
X102419165Y-120494628D01*
X102427430Y-120471529D01*
X102437920Y-120449350D01*
X102450532Y-120428307D01*
X102465147Y-120408601D01*
X102481623Y-120390423D01*
X102499801Y-120373947D01*
X102519507Y-120359332D01*
X102540550Y-120346720D01*
X102562729Y-120336230D01*
X102585828Y-120327965D01*
X102609627Y-120322004D01*
X102633895Y-120318404D01*
X102658399Y-120317200D01*
X103308401Y-120317200D01*
X103332905Y-120318404D01*
X103332905Y-120318404D01*
G37*
D12*
X102983400Y-121017200D03*
D11*
G36*
X78832905Y-128318404D02*
G01*
X78857173Y-128322004D01*
X78880972Y-128327965D01*
X78904071Y-128336230D01*
X78926250Y-128346720D01*
X78947293Y-128359332D01*
X78966999Y-128373947D01*
X78985177Y-128390423D01*
X79001653Y-128408601D01*
X79016268Y-128428307D01*
X79028880Y-128449350D01*
X79039370Y-128471529D01*
X79047635Y-128494628D01*
X79053596Y-128518427D01*
X79057196Y-128542695D01*
X79058400Y-128567199D01*
X79058400Y-129467201D01*
X79057196Y-129491705D01*
X79053596Y-129515973D01*
X79047635Y-129539772D01*
X79039370Y-129562871D01*
X79028880Y-129585050D01*
X79016268Y-129606093D01*
X79001653Y-129625799D01*
X78985177Y-129643977D01*
X78966999Y-129660453D01*
X78947293Y-129675068D01*
X78926250Y-129687680D01*
X78904071Y-129698170D01*
X78880972Y-129706435D01*
X78857173Y-129712396D01*
X78832905Y-129715996D01*
X78808401Y-129717200D01*
X78158399Y-129717200D01*
X78133895Y-129715996D01*
X78109627Y-129712396D01*
X78085828Y-129706435D01*
X78062729Y-129698170D01*
X78040550Y-129687680D01*
X78019507Y-129675068D01*
X77999801Y-129660453D01*
X77981623Y-129643977D01*
X77965147Y-129625799D01*
X77950532Y-129606093D01*
X77937920Y-129585050D01*
X77927430Y-129562871D01*
X77919165Y-129539772D01*
X77913204Y-129515973D01*
X77909604Y-129491705D01*
X77908400Y-129467201D01*
X77908400Y-128567199D01*
X77909604Y-128542695D01*
X77913204Y-128518427D01*
X77919165Y-128494628D01*
X77927430Y-128471529D01*
X77937920Y-128449350D01*
X77950532Y-128428307D01*
X77965147Y-128408601D01*
X77981623Y-128390423D01*
X77999801Y-128373947D01*
X78019507Y-128359332D01*
X78040550Y-128346720D01*
X78062729Y-128336230D01*
X78085828Y-128327965D01*
X78109627Y-128322004D01*
X78133895Y-128318404D01*
X78158399Y-128317200D01*
X78808401Y-128317200D01*
X78832905Y-128318404D01*
X78832905Y-128318404D01*
G37*
D12*
X78483400Y-129017200D03*
D11*
G36*
X80882905Y-128318404D02*
G01*
X80907173Y-128322004D01*
X80930972Y-128327965D01*
X80954071Y-128336230D01*
X80976250Y-128346720D01*
X80997293Y-128359332D01*
X81016999Y-128373947D01*
X81035177Y-128390423D01*
X81051653Y-128408601D01*
X81066268Y-128428307D01*
X81078880Y-128449350D01*
X81089370Y-128471529D01*
X81097635Y-128494628D01*
X81103596Y-128518427D01*
X81107196Y-128542695D01*
X81108400Y-128567199D01*
X81108400Y-129467201D01*
X81107196Y-129491705D01*
X81103596Y-129515973D01*
X81097635Y-129539772D01*
X81089370Y-129562871D01*
X81078880Y-129585050D01*
X81066268Y-129606093D01*
X81051653Y-129625799D01*
X81035177Y-129643977D01*
X81016999Y-129660453D01*
X80997293Y-129675068D01*
X80976250Y-129687680D01*
X80954071Y-129698170D01*
X80930972Y-129706435D01*
X80907173Y-129712396D01*
X80882905Y-129715996D01*
X80858401Y-129717200D01*
X80208399Y-129717200D01*
X80183895Y-129715996D01*
X80159627Y-129712396D01*
X80135828Y-129706435D01*
X80112729Y-129698170D01*
X80090550Y-129687680D01*
X80069507Y-129675068D01*
X80049801Y-129660453D01*
X80031623Y-129643977D01*
X80015147Y-129625799D01*
X80000532Y-129606093D01*
X79987920Y-129585050D01*
X79977430Y-129562871D01*
X79969165Y-129539772D01*
X79963204Y-129515973D01*
X79959604Y-129491705D01*
X79958400Y-129467201D01*
X79958400Y-128567199D01*
X79959604Y-128542695D01*
X79963204Y-128518427D01*
X79969165Y-128494628D01*
X79977430Y-128471529D01*
X79987920Y-128449350D01*
X80000532Y-128428307D01*
X80015147Y-128408601D01*
X80031623Y-128390423D01*
X80049801Y-128373947D01*
X80069507Y-128359332D01*
X80090550Y-128346720D01*
X80112729Y-128336230D01*
X80135828Y-128327965D01*
X80159627Y-128322004D01*
X80183895Y-128318404D01*
X80208399Y-128317200D01*
X80858401Y-128317200D01*
X80882905Y-128318404D01*
X80882905Y-128318404D01*
G37*
D12*
X80533400Y-129017200D03*
D11*
G36*
X101439505Y-121404404D02*
G01*
X101463773Y-121408004D01*
X101487572Y-121413965D01*
X101510671Y-121422230D01*
X101532850Y-121432720D01*
X101553893Y-121445332D01*
X101573599Y-121459947D01*
X101591777Y-121476423D01*
X101608253Y-121494601D01*
X101622868Y-121514307D01*
X101635480Y-121535350D01*
X101645970Y-121557529D01*
X101654235Y-121580628D01*
X101660196Y-121604427D01*
X101663796Y-121628695D01*
X101665000Y-121653199D01*
X101665000Y-122303201D01*
X101663796Y-122327705D01*
X101660196Y-122351973D01*
X101654235Y-122375772D01*
X101645970Y-122398871D01*
X101635480Y-122421050D01*
X101622868Y-122442093D01*
X101608253Y-122461799D01*
X101591777Y-122479977D01*
X101573599Y-122496453D01*
X101553893Y-122511068D01*
X101532850Y-122523680D01*
X101510671Y-122534170D01*
X101487572Y-122542435D01*
X101463773Y-122548396D01*
X101439505Y-122551996D01*
X101415001Y-122553200D01*
X100514999Y-122553200D01*
X100490495Y-122551996D01*
X100466227Y-122548396D01*
X100442428Y-122542435D01*
X100419329Y-122534170D01*
X100397150Y-122523680D01*
X100376107Y-122511068D01*
X100356401Y-122496453D01*
X100338223Y-122479977D01*
X100321747Y-122461799D01*
X100307132Y-122442093D01*
X100294520Y-122421050D01*
X100284030Y-122398871D01*
X100275765Y-122375772D01*
X100269804Y-122351973D01*
X100266204Y-122327705D01*
X100265000Y-122303201D01*
X100265000Y-121653199D01*
X100266204Y-121628695D01*
X100269804Y-121604427D01*
X100275765Y-121580628D01*
X100284030Y-121557529D01*
X100294520Y-121535350D01*
X100307132Y-121514307D01*
X100321747Y-121494601D01*
X100338223Y-121476423D01*
X100356401Y-121459947D01*
X100376107Y-121445332D01*
X100397150Y-121432720D01*
X100419329Y-121422230D01*
X100442428Y-121413965D01*
X100466227Y-121408004D01*
X100490495Y-121404404D01*
X100514999Y-121403200D01*
X101415001Y-121403200D01*
X101439505Y-121404404D01*
X101439505Y-121404404D01*
G37*
D12*
X100965000Y-121978200D03*
D11*
G36*
X101439505Y-123454404D02*
G01*
X101463773Y-123458004D01*
X101487572Y-123463965D01*
X101510671Y-123472230D01*
X101532850Y-123482720D01*
X101553893Y-123495332D01*
X101573599Y-123509947D01*
X101591777Y-123526423D01*
X101608253Y-123544601D01*
X101622868Y-123564307D01*
X101635480Y-123585350D01*
X101645970Y-123607529D01*
X101654235Y-123630628D01*
X101660196Y-123654427D01*
X101663796Y-123678695D01*
X101665000Y-123703199D01*
X101665000Y-124353201D01*
X101663796Y-124377705D01*
X101660196Y-124401973D01*
X101654235Y-124425772D01*
X101645970Y-124448871D01*
X101635480Y-124471050D01*
X101622868Y-124492093D01*
X101608253Y-124511799D01*
X101591777Y-124529977D01*
X101573599Y-124546453D01*
X101553893Y-124561068D01*
X101532850Y-124573680D01*
X101510671Y-124584170D01*
X101487572Y-124592435D01*
X101463773Y-124598396D01*
X101439505Y-124601996D01*
X101415001Y-124603200D01*
X100514999Y-124603200D01*
X100490495Y-124601996D01*
X100466227Y-124598396D01*
X100442428Y-124592435D01*
X100419329Y-124584170D01*
X100397150Y-124573680D01*
X100376107Y-124561068D01*
X100356401Y-124546453D01*
X100338223Y-124529977D01*
X100321747Y-124511799D01*
X100307132Y-124492093D01*
X100294520Y-124471050D01*
X100284030Y-124448871D01*
X100275765Y-124425772D01*
X100269804Y-124401973D01*
X100266204Y-124377705D01*
X100265000Y-124353201D01*
X100265000Y-123703199D01*
X100266204Y-123678695D01*
X100269804Y-123654427D01*
X100275765Y-123630628D01*
X100284030Y-123607529D01*
X100294520Y-123585350D01*
X100307132Y-123564307D01*
X100321747Y-123544601D01*
X100338223Y-123526423D01*
X100356401Y-123509947D01*
X100376107Y-123495332D01*
X100397150Y-123482720D01*
X100419329Y-123472230D01*
X100442428Y-123463965D01*
X100466227Y-123458004D01*
X100490495Y-123454404D01*
X100514999Y-123453200D01*
X101415001Y-123453200D01*
X101439505Y-123454404D01*
X101439505Y-123454404D01*
G37*
D12*
X100965000Y-124028200D03*
D11*
G36*
X78832905Y-120818404D02*
G01*
X78857173Y-120822004D01*
X78880972Y-120827965D01*
X78904071Y-120836230D01*
X78926250Y-120846720D01*
X78947293Y-120859332D01*
X78966999Y-120873947D01*
X78985177Y-120890423D01*
X79001653Y-120908601D01*
X79016268Y-120928307D01*
X79028880Y-120949350D01*
X79039370Y-120971529D01*
X79047635Y-120994628D01*
X79053596Y-121018427D01*
X79057196Y-121042695D01*
X79058400Y-121067199D01*
X79058400Y-121967201D01*
X79057196Y-121991705D01*
X79053596Y-122015973D01*
X79047635Y-122039772D01*
X79039370Y-122062871D01*
X79028880Y-122085050D01*
X79016268Y-122106093D01*
X79001653Y-122125799D01*
X78985177Y-122143977D01*
X78966999Y-122160453D01*
X78947293Y-122175068D01*
X78926250Y-122187680D01*
X78904071Y-122198170D01*
X78880972Y-122206435D01*
X78857173Y-122212396D01*
X78832905Y-122215996D01*
X78808401Y-122217200D01*
X78158399Y-122217200D01*
X78133895Y-122215996D01*
X78109627Y-122212396D01*
X78085828Y-122206435D01*
X78062729Y-122198170D01*
X78040550Y-122187680D01*
X78019507Y-122175068D01*
X77999801Y-122160453D01*
X77981623Y-122143977D01*
X77965147Y-122125799D01*
X77950532Y-122106093D01*
X77937920Y-122085050D01*
X77927430Y-122062871D01*
X77919165Y-122039772D01*
X77913204Y-122015973D01*
X77909604Y-121991705D01*
X77908400Y-121967201D01*
X77908400Y-121067199D01*
X77909604Y-121042695D01*
X77913204Y-121018427D01*
X77919165Y-120994628D01*
X77927430Y-120971529D01*
X77937920Y-120949350D01*
X77950532Y-120928307D01*
X77965147Y-120908601D01*
X77981623Y-120890423D01*
X77999801Y-120873947D01*
X78019507Y-120859332D01*
X78040550Y-120846720D01*
X78062729Y-120836230D01*
X78085828Y-120827965D01*
X78109627Y-120822004D01*
X78133895Y-120818404D01*
X78158399Y-120817200D01*
X78808401Y-120817200D01*
X78832905Y-120818404D01*
X78832905Y-120818404D01*
G37*
D12*
X78483400Y-121517200D03*
D11*
G36*
X80882905Y-120818404D02*
G01*
X80907173Y-120822004D01*
X80930972Y-120827965D01*
X80954071Y-120836230D01*
X80976250Y-120846720D01*
X80997293Y-120859332D01*
X81016999Y-120873947D01*
X81035177Y-120890423D01*
X81051653Y-120908601D01*
X81066268Y-120928307D01*
X81078880Y-120949350D01*
X81089370Y-120971529D01*
X81097635Y-120994628D01*
X81103596Y-121018427D01*
X81107196Y-121042695D01*
X81108400Y-121067199D01*
X81108400Y-121967201D01*
X81107196Y-121991705D01*
X81103596Y-122015973D01*
X81097635Y-122039772D01*
X81089370Y-122062871D01*
X81078880Y-122085050D01*
X81066268Y-122106093D01*
X81051653Y-122125799D01*
X81035177Y-122143977D01*
X81016999Y-122160453D01*
X80997293Y-122175068D01*
X80976250Y-122187680D01*
X80954071Y-122198170D01*
X80930972Y-122206435D01*
X80907173Y-122212396D01*
X80882905Y-122215996D01*
X80858401Y-122217200D01*
X80208399Y-122217200D01*
X80183895Y-122215996D01*
X80159627Y-122212396D01*
X80135828Y-122206435D01*
X80112729Y-122198170D01*
X80090550Y-122187680D01*
X80069507Y-122175068D01*
X80049801Y-122160453D01*
X80031623Y-122143977D01*
X80015147Y-122125799D01*
X80000532Y-122106093D01*
X79987920Y-122085050D01*
X79977430Y-122062871D01*
X79969165Y-122039772D01*
X79963204Y-122015973D01*
X79959604Y-121991705D01*
X79958400Y-121967201D01*
X79958400Y-121067199D01*
X79959604Y-121042695D01*
X79963204Y-121018427D01*
X79969165Y-120994628D01*
X79977430Y-120971529D01*
X79987920Y-120949350D01*
X80000532Y-120928307D01*
X80015147Y-120908601D01*
X80031623Y-120890423D01*
X80049801Y-120873947D01*
X80069507Y-120859332D01*
X80090550Y-120846720D01*
X80112729Y-120836230D01*
X80135828Y-120827965D01*
X80159627Y-120822004D01*
X80183895Y-120818404D01*
X80208399Y-120817200D01*
X80858401Y-120817200D01*
X80882905Y-120818404D01*
X80882905Y-120818404D01*
G37*
D12*
X80533400Y-121517200D03*
D11*
G36*
X98382905Y-129818404D02*
G01*
X98407173Y-129822004D01*
X98430972Y-129827965D01*
X98454071Y-129836230D01*
X98476250Y-129846720D01*
X98497293Y-129859332D01*
X98516999Y-129873947D01*
X98535177Y-129890423D01*
X98551653Y-129908601D01*
X98566268Y-129928307D01*
X98578880Y-129949350D01*
X98589370Y-129971529D01*
X98597635Y-129994628D01*
X98603596Y-130018427D01*
X98607196Y-130042695D01*
X98608400Y-130067199D01*
X98608400Y-130967201D01*
X98607196Y-130991705D01*
X98603596Y-131015973D01*
X98597635Y-131039772D01*
X98589370Y-131062871D01*
X98578880Y-131085050D01*
X98566268Y-131106093D01*
X98551653Y-131125799D01*
X98535177Y-131143977D01*
X98516999Y-131160453D01*
X98497293Y-131175068D01*
X98476250Y-131187680D01*
X98454071Y-131198170D01*
X98430972Y-131206435D01*
X98407173Y-131212396D01*
X98382905Y-131215996D01*
X98358401Y-131217200D01*
X97708399Y-131217200D01*
X97683895Y-131215996D01*
X97659627Y-131212396D01*
X97635828Y-131206435D01*
X97612729Y-131198170D01*
X97590550Y-131187680D01*
X97569507Y-131175068D01*
X97549801Y-131160453D01*
X97531623Y-131143977D01*
X97515147Y-131125799D01*
X97500532Y-131106093D01*
X97487920Y-131085050D01*
X97477430Y-131062871D01*
X97469165Y-131039772D01*
X97463204Y-131015973D01*
X97459604Y-130991705D01*
X97458400Y-130967201D01*
X97458400Y-130067199D01*
X97459604Y-130042695D01*
X97463204Y-130018427D01*
X97469165Y-129994628D01*
X97477430Y-129971529D01*
X97487920Y-129949350D01*
X97500532Y-129928307D01*
X97515147Y-129908601D01*
X97531623Y-129890423D01*
X97549801Y-129873947D01*
X97569507Y-129859332D01*
X97590550Y-129846720D01*
X97612729Y-129836230D01*
X97635828Y-129827965D01*
X97659627Y-129822004D01*
X97683895Y-129818404D01*
X97708399Y-129817200D01*
X98358401Y-129817200D01*
X98382905Y-129818404D01*
X98382905Y-129818404D01*
G37*
D12*
X98033400Y-130517200D03*
D11*
G36*
X96332905Y-129818404D02*
G01*
X96357173Y-129822004D01*
X96380972Y-129827965D01*
X96404071Y-129836230D01*
X96426250Y-129846720D01*
X96447293Y-129859332D01*
X96466999Y-129873947D01*
X96485177Y-129890423D01*
X96501653Y-129908601D01*
X96516268Y-129928307D01*
X96528880Y-129949350D01*
X96539370Y-129971529D01*
X96547635Y-129994628D01*
X96553596Y-130018427D01*
X96557196Y-130042695D01*
X96558400Y-130067199D01*
X96558400Y-130967201D01*
X96557196Y-130991705D01*
X96553596Y-131015973D01*
X96547635Y-131039772D01*
X96539370Y-131062871D01*
X96528880Y-131085050D01*
X96516268Y-131106093D01*
X96501653Y-131125799D01*
X96485177Y-131143977D01*
X96466999Y-131160453D01*
X96447293Y-131175068D01*
X96426250Y-131187680D01*
X96404071Y-131198170D01*
X96380972Y-131206435D01*
X96357173Y-131212396D01*
X96332905Y-131215996D01*
X96308401Y-131217200D01*
X95658399Y-131217200D01*
X95633895Y-131215996D01*
X95609627Y-131212396D01*
X95585828Y-131206435D01*
X95562729Y-131198170D01*
X95540550Y-131187680D01*
X95519507Y-131175068D01*
X95499801Y-131160453D01*
X95481623Y-131143977D01*
X95465147Y-131125799D01*
X95450532Y-131106093D01*
X95437920Y-131085050D01*
X95427430Y-131062871D01*
X95419165Y-131039772D01*
X95413204Y-131015973D01*
X95409604Y-130991705D01*
X95408400Y-130967201D01*
X95408400Y-130067199D01*
X95409604Y-130042695D01*
X95413204Y-130018427D01*
X95419165Y-129994628D01*
X95427430Y-129971529D01*
X95437920Y-129949350D01*
X95450532Y-129928307D01*
X95465147Y-129908601D01*
X95481623Y-129890423D01*
X95499801Y-129873947D01*
X95519507Y-129859332D01*
X95540550Y-129846720D01*
X95562729Y-129836230D01*
X95585828Y-129827965D01*
X95609627Y-129822004D01*
X95633895Y-129818404D01*
X95658399Y-129817200D01*
X96308401Y-129817200D01*
X96332905Y-129818404D01*
X96332905Y-129818404D01*
G37*
D12*
X95983400Y-130517200D03*
D11*
G36*
X101767785Y-129300944D02*
G01*
X101792053Y-129304544D01*
X101815852Y-129310505D01*
X101838951Y-129318770D01*
X101861130Y-129329260D01*
X101882173Y-129341872D01*
X101901879Y-129356487D01*
X101920057Y-129372963D01*
X101936533Y-129391141D01*
X101951148Y-129410847D01*
X101963760Y-129431890D01*
X101974250Y-129454069D01*
X101982515Y-129477168D01*
X101988476Y-129500967D01*
X101992076Y-129525235D01*
X101993280Y-129549739D01*
X101993280Y-130449741D01*
X101992076Y-130474245D01*
X101988476Y-130498513D01*
X101982515Y-130522312D01*
X101974250Y-130545411D01*
X101963760Y-130567590D01*
X101951148Y-130588633D01*
X101936533Y-130608339D01*
X101920057Y-130626517D01*
X101901879Y-130642993D01*
X101882173Y-130657608D01*
X101861130Y-130670220D01*
X101838951Y-130680710D01*
X101815852Y-130688975D01*
X101792053Y-130694936D01*
X101767785Y-130698536D01*
X101743281Y-130699740D01*
X101093279Y-130699740D01*
X101068775Y-130698536D01*
X101044507Y-130694936D01*
X101020708Y-130688975D01*
X100997609Y-130680710D01*
X100975430Y-130670220D01*
X100954387Y-130657608D01*
X100934681Y-130642993D01*
X100916503Y-130626517D01*
X100900027Y-130608339D01*
X100885412Y-130588633D01*
X100872800Y-130567590D01*
X100862310Y-130545411D01*
X100854045Y-130522312D01*
X100848084Y-130498513D01*
X100844484Y-130474245D01*
X100843280Y-130449741D01*
X100843280Y-129549739D01*
X100844484Y-129525235D01*
X100848084Y-129500967D01*
X100854045Y-129477168D01*
X100862310Y-129454069D01*
X100872800Y-129431890D01*
X100885412Y-129410847D01*
X100900027Y-129391141D01*
X100916503Y-129372963D01*
X100934681Y-129356487D01*
X100954387Y-129341872D01*
X100975430Y-129329260D01*
X100997609Y-129318770D01*
X101020708Y-129310505D01*
X101044507Y-129304544D01*
X101068775Y-129300944D01*
X101093279Y-129299740D01*
X101743281Y-129299740D01*
X101767785Y-129300944D01*
X101767785Y-129300944D01*
G37*
D12*
X101418280Y-129999740D03*
D11*
G36*
X103817785Y-129300944D02*
G01*
X103842053Y-129304544D01*
X103865852Y-129310505D01*
X103888951Y-129318770D01*
X103911130Y-129329260D01*
X103932173Y-129341872D01*
X103951879Y-129356487D01*
X103970057Y-129372963D01*
X103986533Y-129391141D01*
X104001148Y-129410847D01*
X104013760Y-129431890D01*
X104024250Y-129454069D01*
X104032515Y-129477168D01*
X104038476Y-129500967D01*
X104042076Y-129525235D01*
X104043280Y-129549739D01*
X104043280Y-130449741D01*
X104042076Y-130474245D01*
X104038476Y-130498513D01*
X104032515Y-130522312D01*
X104024250Y-130545411D01*
X104013760Y-130567590D01*
X104001148Y-130588633D01*
X103986533Y-130608339D01*
X103970057Y-130626517D01*
X103951879Y-130642993D01*
X103932173Y-130657608D01*
X103911130Y-130670220D01*
X103888951Y-130680710D01*
X103865852Y-130688975D01*
X103842053Y-130694936D01*
X103817785Y-130698536D01*
X103793281Y-130699740D01*
X103143279Y-130699740D01*
X103118775Y-130698536D01*
X103094507Y-130694936D01*
X103070708Y-130688975D01*
X103047609Y-130680710D01*
X103025430Y-130670220D01*
X103004387Y-130657608D01*
X102984681Y-130642993D01*
X102966503Y-130626517D01*
X102950027Y-130608339D01*
X102935412Y-130588633D01*
X102922800Y-130567590D01*
X102912310Y-130545411D01*
X102904045Y-130522312D01*
X102898084Y-130498513D01*
X102894484Y-130474245D01*
X102893280Y-130449741D01*
X102893280Y-129549739D01*
X102894484Y-129525235D01*
X102898084Y-129500967D01*
X102904045Y-129477168D01*
X102912310Y-129454069D01*
X102922800Y-129431890D01*
X102935412Y-129410847D01*
X102950027Y-129391141D01*
X102966503Y-129372963D01*
X102984681Y-129356487D01*
X103004387Y-129341872D01*
X103025430Y-129329260D01*
X103047609Y-129318770D01*
X103070708Y-129310505D01*
X103094507Y-129304544D01*
X103118775Y-129300944D01*
X103143279Y-129299740D01*
X103793281Y-129299740D01*
X103817785Y-129300944D01*
X103817785Y-129300944D01*
G37*
D12*
X103468280Y-129999740D03*
D11*
G36*
X78882905Y-118818404D02*
G01*
X78907173Y-118822004D01*
X78930972Y-118827965D01*
X78954071Y-118836230D01*
X78976250Y-118846720D01*
X78997293Y-118859332D01*
X79016999Y-118873947D01*
X79035177Y-118890423D01*
X79051653Y-118908601D01*
X79066268Y-118928307D01*
X79078880Y-118949350D01*
X79089370Y-118971529D01*
X79097635Y-118994628D01*
X79103596Y-119018427D01*
X79107196Y-119042695D01*
X79108400Y-119067199D01*
X79108400Y-119967201D01*
X79107196Y-119991705D01*
X79103596Y-120015973D01*
X79097635Y-120039772D01*
X79089370Y-120062871D01*
X79078880Y-120085050D01*
X79066268Y-120106093D01*
X79051653Y-120125799D01*
X79035177Y-120143977D01*
X79016999Y-120160453D01*
X78997293Y-120175068D01*
X78976250Y-120187680D01*
X78954071Y-120198170D01*
X78930972Y-120206435D01*
X78907173Y-120212396D01*
X78882905Y-120215996D01*
X78858401Y-120217200D01*
X78208399Y-120217200D01*
X78183895Y-120215996D01*
X78159627Y-120212396D01*
X78135828Y-120206435D01*
X78112729Y-120198170D01*
X78090550Y-120187680D01*
X78069507Y-120175068D01*
X78049801Y-120160453D01*
X78031623Y-120143977D01*
X78015147Y-120125799D01*
X78000532Y-120106093D01*
X77987920Y-120085050D01*
X77977430Y-120062871D01*
X77969165Y-120039772D01*
X77963204Y-120015973D01*
X77959604Y-119991705D01*
X77958400Y-119967201D01*
X77958400Y-119067199D01*
X77959604Y-119042695D01*
X77963204Y-119018427D01*
X77969165Y-118994628D01*
X77977430Y-118971529D01*
X77987920Y-118949350D01*
X78000532Y-118928307D01*
X78015147Y-118908601D01*
X78031623Y-118890423D01*
X78049801Y-118873947D01*
X78069507Y-118859332D01*
X78090550Y-118846720D01*
X78112729Y-118836230D01*
X78135828Y-118827965D01*
X78159627Y-118822004D01*
X78183895Y-118818404D01*
X78208399Y-118817200D01*
X78858401Y-118817200D01*
X78882905Y-118818404D01*
X78882905Y-118818404D01*
G37*
D12*
X78533400Y-119517200D03*
D11*
G36*
X80932905Y-118818404D02*
G01*
X80957173Y-118822004D01*
X80980972Y-118827965D01*
X81004071Y-118836230D01*
X81026250Y-118846720D01*
X81047293Y-118859332D01*
X81066999Y-118873947D01*
X81085177Y-118890423D01*
X81101653Y-118908601D01*
X81116268Y-118928307D01*
X81128880Y-118949350D01*
X81139370Y-118971529D01*
X81147635Y-118994628D01*
X81153596Y-119018427D01*
X81157196Y-119042695D01*
X81158400Y-119067199D01*
X81158400Y-119967201D01*
X81157196Y-119991705D01*
X81153596Y-120015973D01*
X81147635Y-120039772D01*
X81139370Y-120062871D01*
X81128880Y-120085050D01*
X81116268Y-120106093D01*
X81101653Y-120125799D01*
X81085177Y-120143977D01*
X81066999Y-120160453D01*
X81047293Y-120175068D01*
X81026250Y-120187680D01*
X81004071Y-120198170D01*
X80980972Y-120206435D01*
X80957173Y-120212396D01*
X80932905Y-120215996D01*
X80908401Y-120217200D01*
X80258399Y-120217200D01*
X80233895Y-120215996D01*
X80209627Y-120212396D01*
X80185828Y-120206435D01*
X80162729Y-120198170D01*
X80140550Y-120187680D01*
X80119507Y-120175068D01*
X80099801Y-120160453D01*
X80081623Y-120143977D01*
X80065147Y-120125799D01*
X80050532Y-120106093D01*
X80037920Y-120085050D01*
X80027430Y-120062871D01*
X80019165Y-120039772D01*
X80013204Y-120015973D01*
X80009604Y-119991705D01*
X80008400Y-119967201D01*
X80008400Y-119067199D01*
X80009604Y-119042695D01*
X80013204Y-119018427D01*
X80019165Y-118994628D01*
X80027430Y-118971529D01*
X80037920Y-118949350D01*
X80050532Y-118928307D01*
X80065147Y-118908601D01*
X80081623Y-118890423D01*
X80099801Y-118873947D01*
X80119507Y-118859332D01*
X80140550Y-118846720D01*
X80162729Y-118836230D01*
X80185828Y-118827965D01*
X80209627Y-118822004D01*
X80233895Y-118818404D01*
X80258399Y-118817200D01*
X80908401Y-118817200D01*
X80932905Y-118818404D01*
X80932905Y-118818404D01*
G37*
D12*
X80583400Y-119517200D03*
D11*
G36*
X88832905Y-129818404D02*
G01*
X88857173Y-129822004D01*
X88880972Y-129827965D01*
X88904071Y-129836230D01*
X88926250Y-129846720D01*
X88947293Y-129859332D01*
X88966999Y-129873947D01*
X88985177Y-129890423D01*
X89001653Y-129908601D01*
X89016268Y-129928307D01*
X89028880Y-129949350D01*
X89039370Y-129971529D01*
X89047635Y-129994628D01*
X89053596Y-130018427D01*
X89057196Y-130042695D01*
X89058400Y-130067199D01*
X89058400Y-130967201D01*
X89057196Y-130991705D01*
X89053596Y-131015973D01*
X89047635Y-131039772D01*
X89039370Y-131062871D01*
X89028880Y-131085050D01*
X89016268Y-131106093D01*
X89001653Y-131125799D01*
X88985177Y-131143977D01*
X88966999Y-131160453D01*
X88947293Y-131175068D01*
X88926250Y-131187680D01*
X88904071Y-131198170D01*
X88880972Y-131206435D01*
X88857173Y-131212396D01*
X88832905Y-131215996D01*
X88808401Y-131217200D01*
X88158399Y-131217200D01*
X88133895Y-131215996D01*
X88109627Y-131212396D01*
X88085828Y-131206435D01*
X88062729Y-131198170D01*
X88040550Y-131187680D01*
X88019507Y-131175068D01*
X87999801Y-131160453D01*
X87981623Y-131143977D01*
X87965147Y-131125799D01*
X87950532Y-131106093D01*
X87937920Y-131085050D01*
X87927430Y-131062871D01*
X87919165Y-131039772D01*
X87913204Y-131015973D01*
X87909604Y-130991705D01*
X87908400Y-130967201D01*
X87908400Y-130067199D01*
X87909604Y-130042695D01*
X87913204Y-130018427D01*
X87919165Y-129994628D01*
X87927430Y-129971529D01*
X87937920Y-129949350D01*
X87950532Y-129928307D01*
X87965147Y-129908601D01*
X87981623Y-129890423D01*
X87999801Y-129873947D01*
X88019507Y-129859332D01*
X88040550Y-129846720D01*
X88062729Y-129836230D01*
X88085828Y-129827965D01*
X88109627Y-129822004D01*
X88133895Y-129818404D01*
X88158399Y-129817200D01*
X88808401Y-129817200D01*
X88832905Y-129818404D01*
X88832905Y-129818404D01*
G37*
D12*
X88483400Y-130517200D03*
D11*
G36*
X90882905Y-129818404D02*
G01*
X90907173Y-129822004D01*
X90930972Y-129827965D01*
X90954071Y-129836230D01*
X90976250Y-129846720D01*
X90997293Y-129859332D01*
X91016999Y-129873947D01*
X91035177Y-129890423D01*
X91051653Y-129908601D01*
X91066268Y-129928307D01*
X91078880Y-129949350D01*
X91089370Y-129971529D01*
X91097635Y-129994628D01*
X91103596Y-130018427D01*
X91107196Y-130042695D01*
X91108400Y-130067199D01*
X91108400Y-130967201D01*
X91107196Y-130991705D01*
X91103596Y-131015973D01*
X91097635Y-131039772D01*
X91089370Y-131062871D01*
X91078880Y-131085050D01*
X91066268Y-131106093D01*
X91051653Y-131125799D01*
X91035177Y-131143977D01*
X91016999Y-131160453D01*
X90997293Y-131175068D01*
X90976250Y-131187680D01*
X90954071Y-131198170D01*
X90930972Y-131206435D01*
X90907173Y-131212396D01*
X90882905Y-131215996D01*
X90858401Y-131217200D01*
X90208399Y-131217200D01*
X90183895Y-131215996D01*
X90159627Y-131212396D01*
X90135828Y-131206435D01*
X90112729Y-131198170D01*
X90090550Y-131187680D01*
X90069507Y-131175068D01*
X90049801Y-131160453D01*
X90031623Y-131143977D01*
X90015147Y-131125799D01*
X90000532Y-131106093D01*
X89987920Y-131085050D01*
X89977430Y-131062871D01*
X89969165Y-131039772D01*
X89963204Y-131015973D01*
X89959604Y-130991705D01*
X89958400Y-130967201D01*
X89958400Y-130067199D01*
X89959604Y-130042695D01*
X89963204Y-130018427D01*
X89969165Y-129994628D01*
X89977430Y-129971529D01*
X89987920Y-129949350D01*
X90000532Y-129928307D01*
X90015147Y-129908601D01*
X90031623Y-129890423D01*
X90049801Y-129873947D01*
X90069507Y-129859332D01*
X90090550Y-129846720D01*
X90112729Y-129836230D01*
X90135828Y-129827965D01*
X90159627Y-129822004D01*
X90183895Y-129818404D01*
X90208399Y-129817200D01*
X90858401Y-129817200D01*
X90882905Y-129818404D01*
X90882905Y-129818404D01*
G37*
D12*
X90533400Y-130517200D03*
D11*
G36*
X63288705Y-96488604D02*
G01*
X63312973Y-96492204D01*
X63336772Y-96498165D01*
X63359871Y-96506430D01*
X63382050Y-96516920D01*
X63403093Y-96529532D01*
X63422799Y-96544147D01*
X63440977Y-96560623D01*
X63457453Y-96578801D01*
X63472068Y-96598507D01*
X63484680Y-96619550D01*
X63495170Y-96641729D01*
X63503435Y-96664828D01*
X63509396Y-96688627D01*
X63512996Y-96712895D01*
X63514200Y-96737399D01*
X63514200Y-97387401D01*
X63512996Y-97411905D01*
X63509396Y-97436173D01*
X63503435Y-97459972D01*
X63495170Y-97483071D01*
X63484680Y-97505250D01*
X63472068Y-97526293D01*
X63457453Y-97545999D01*
X63440977Y-97564177D01*
X63422799Y-97580653D01*
X63403093Y-97595268D01*
X63382050Y-97607880D01*
X63359871Y-97618370D01*
X63336772Y-97626635D01*
X63312973Y-97632596D01*
X63288705Y-97636196D01*
X63264201Y-97637400D01*
X62364199Y-97637400D01*
X62339695Y-97636196D01*
X62315427Y-97632596D01*
X62291628Y-97626635D01*
X62268529Y-97618370D01*
X62246350Y-97607880D01*
X62225307Y-97595268D01*
X62205601Y-97580653D01*
X62187423Y-97564177D01*
X62170947Y-97545999D01*
X62156332Y-97526293D01*
X62143720Y-97505250D01*
X62133230Y-97483071D01*
X62124965Y-97459972D01*
X62119004Y-97436173D01*
X62115404Y-97411905D01*
X62114200Y-97387401D01*
X62114200Y-96737399D01*
X62115404Y-96712895D01*
X62119004Y-96688627D01*
X62124965Y-96664828D01*
X62133230Y-96641729D01*
X62143720Y-96619550D01*
X62156332Y-96598507D01*
X62170947Y-96578801D01*
X62187423Y-96560623D01*
X62205601Y-96544147D01*
X62225307Y-96529532D01*
X62246350Y-96516920D01*
X62268529Y-96506430D01*
X62291628Y-96498165D01*
X62315427Y-96492204D01*
X62339695Y-96488604D01*
X62364199Y-96487400D01*
X63264201Y-96487400D01*
X63288705Y-96488604D01*
X63288705Y-96488604D01*
G37*
D12*
X62814200Y-97062400D03*
D11*
G36*
X63288705Y-94438604D02*
G01*
X63312973Y-94442204D01*
X63336772Y-94448165D01*
X63359871Y-94456430D01*
X63382050Y-94466920D01*
X63403093Y-94479532D01*
X63422799Y-94494147D01*
X63440977Y-94510623D01*
X63457453Y-94528801D01*
X63472068Y-94548507D01*
X63484680Y-94569550D01*
X63495170Y-94591729D01*
X63503435Y-94614828D01*
X63509396Y-94638627D01*
X63512996Y-94662895D01*
X63514200Y-94687399D01*
X63514200Y-95337401D01*
X63512996Y-95361905D01*
X63509396Y-95386173D01*
X63503435Y-95409972D01*
X63495170Y-95433071D01*
X63484680Y-95455250D01*
X63472068Y-95476293D01*
X63457453Y-95495999D01*
X63440977Y-95514177D01*
X63422799Y-95530653D01*
X63403093Y-95545268D01*
X63382050Y-95557880D01*
X63359871Y-95568370D01*
X63336772Y-95576635D01*
X63312973Y-95582596D01*
X63288705Y-95586196D01*
X63264201Y-95587400D01*
X62364199Y-95587400D01*
X62339695Y-95586196D01*
X62315427Y-95582596D01*
X62291628Y-95576635D01*
X62268529Y-95568370D01*
X62246350Y-95557880D01*
X62225307Y-95545268D01*
X62205601Y-95530653D01*
X62187423Y-95514177D01*
X62170947Y-95495999D01*
X62156332Y-95476293D01*
X62143720Y-95455250D01*
X62133230Y-95433071D01*
X62124965Y-95409972D01*
X62119004Y-95386173D01*
X62115404Y-95361905D01*
X62114200Y-95337401D01*
X62114200Y-94687399D01*
X62115404Y-94662895D01*
X62119004Y-94638627D01*
X62124965Y-94614828D01*
X62133230Y-94591729D01*
X62143720Y-94569550D01*
X62156332Y-94548507D01*
X62170947Y-94528801D01*
X62187423Y-94510623D01*
X62205601Y-94494147D01*
X62225307Y-94479532D01*
X62246350Y-94466920D01*
X62268529Y-94456430D01*
X62291628Y-94448165D01*
X62315427Y-94442204D01*
X62339695Y-94438604D01*
X62364199Y-94437400D01*
X63264201Y-94437400D01*
X63288705Y-94438604D01*
X63288705Y-94438604D01*
G37*
D12*
X62814200Y-95012400D03*
D11*
G36*
X88525605Y-108927604D02*
G01*
X88549873Y-108931204D01*
X88573672Y-108937165D01*
X88596771Y-108945430D01*
X88618950Y-108955920D01*
X88639993Y-108968532D01*
X88659699Y-108983147D01*
X88677877Y-108999623D01*
X88694353Y-109017801D01*
X88708968Y-109037507D01*
X88721580Y-109058550D01*
X88732070Y-109080729D01*
X88740335Y-109103828D01*
X88746296Y-109127627D01*
X88749896Y-109151895D01*
X88751100Y-109176399D01*
X88751100Y-110076401D01*
X88749896Y-110100905D01*
X88746296Y-110125173D01*
X88740335Y-110148972D01*
X88732070Y-110172071D01*
X88721580Y-110194250D01*
X88708968Y-110215293D01*
X88694353Y-110234999D01*
X88677877Y-110253177D01*
X88659699Y-110269653D01*
X88639993Y-110284268D01*
X88618950Y-110296880D01*
X88596771Y-110307370D01*
X88573672Y-110315635D01*
X88549873Y-110321596D01*
X88525605Y-110325196D01*
X88501101Y-110326400D01*
X87851099Y-110326400D01*
X87826595Y-110325196D01*
X87802327Y-110321596D01*
X87778528Y-110315635D01*
X87755429Y-110307370D01*
X87733250Y-110296880D01*
X87712207Y-110284268D01*
X87692501Y-110269653D01*
X87674323Y-110253177D01*
X87657847Y-110234999D01*
X87643232Y-110215293D01*
X87630620Y-110194250D01*
X87620130Y-110172071D01*
X87611865Y-110148972D01*
X87605904Y-110125173D01*
X87602304Y-110100905D01*
X87601100Y-110076401D01*
X87601100Y-109176399D01*
X87602304Y-109151895D01*
X87605904Y-109127627D01*
X87611865Y-109103828D01*
X87620130Y-109080729D01*
X87630620Y-109058550D01*
X87643232Y-109037507D01*
X87657847Y-109017801D01*
X87674323Y-108999623D01*
X87692501Y-108983147D01*
X87712207Y-108968532D01*
X87733250Y-108955920D01*
X87755429Y-108945430D01*
X87778528Y-108937165D01*
X87802327Y-108931204D01*
X87826595Y-108927604D01*
X87851099Y-108926400D01*
X88501101Y-108926400D01*
X88525605Y-108927604D01*
X88525605Y-108927604D01*
G37*
D12*
X88176100Y-109626400D03*
D11*
G36*
X86475605Y-108927604D02*
G01*
X86499873Y-108931204D01*
X86523672Y-108937165D01*
X86546771Y-108945430D01*
X86568950Y-108955920D01*
X86589993Y-108968532D01*
X86609699Y-108983147D01*
X86627877Y-108999623D01*
X86644353Y-109017801D01*
X86658968Y-109037507D01*
X86671580Y-109058550D01*
X86682070Y-109080729D01*
X86690335Y-109103828D01*
X86696296Y-109127627D01*
X86699896Y-109151895D01*
X86701100Y-109176399D01*
X86701100Y-110076401D01*
X86699896Y-110100905D01*
X86696296Y-110125173D01*
X86690335Y-110148972D01*
X86682070Y-110172071D01*
X86671580Y-110194250D01*
X86658968Y-110215293D01*
X86644353Y-110234999D01*
X86627877Y-110253177D01*
X86609699Y-110269653D01*
X86589993Y-110284268D01*
X86568950Y-110296880D01*
X86546771Y-110307370D01*
X86523672Y-110315635D01*
X86499873Y-110321596D01*
X86475605Y-110325196D01*
X86451101Y-110326400D01*
X85801099Y-110326400D01*
X85776595Y-110325196D01*
X85752327Y-110321596D01*
X85728528Y-110315635D01*
X85705429Y-110307370D01*
X85683250Y-110296880D01*
X85662207Y-110284268D01*
X85642501Y-110269653D01*
X85624323Y-110253177D01*
X85607847Y-110234999D01*
X85593232Y-110215293D01*
X85580620Y-110194250D01*
X85570130Y-110172071D01*
X85561865Y-110148972D01*
X85555904Y-110125173D01*
X85552304Y-110100905D01*
X85551100Y-110076401D01*
X85551100Y-109176399D01*
X85552304Y-109151895D01*
X85555904Y-109127627D01*
X85561865Y-109103828D01*
X85570130Y-109080729D01*
X85580620Y-109058550D01*
X85593232Y-109037507D01*
X85607847Y-109017801D01*
X85624323Y-108999623D01*
X85642501Y-108983147D01*
X85662207Y-108968532D01*
X85683250Y-108955920D01*
X85705429Y-108945430D01*
X85728528Y-108937165D01*
X85752327Y-108931204D01*
X85776595Y-108927604D01*
X85801099Y-108926400D01*
X86451101Y-108926400D01*
X86475605Y-108927604D01*
X86475605Y-108927604D01*
G37*
D12*
X86126100Y-109626400D03*
D11*
G36*
X88728805Y-114756904D02*
G01*
X88753073Y-114760504D01*
X88776872Y-114766465D01*
X88799971Y-114774730D01*
X88822150Y-114785220D01*
X88843193Y-114797832D01*
X88862899Y-114812447D01*
X88881077Y-114828923D01*
X88897553Y-114847101D01*
X88912168Y-114866807D01*
X88924780Y-114887850D01*
X88935270Y-114910029D01*
X88943535Y-114933128D01*
X88949496Y-114956927D01*
X88953096Y-114981195D01*
X88954300Y-115005699D01*
X88954300Y-115905701D01*
X88953096Y-115930205D01*
X88949496Y-115954473D01*
X88943535Y-115978272D01*
X88935270Y-116001371D01*
X88924780Y-116023550D01*
X88912168Y-116044593D01*
X88897553Y-116064299D01*
X88881077Y-116082477D01*
X88862899Y-116098953D01*
X88843193Y-116113568D01*
X88822150Y-116126180D01*
X88799971Y-116136670D01*
X88776872Y-116144935D01*
X88753073Y-116150896D01*
X88728805Y-116154496D01*
X88704301Y-116155700D01*
X88054299Y-116155700D01*
X88029795Y-116154496D01*
X88005527Y-116150896D01*
X87981728Y-116144935D01*
X87958629Y-116136670D01*
X87936450Y-116126180D01*
X87915407Y-116113568D01*
X87895701Y-116098953D01*
X87877523Y-116082477D01*
X87861047Y-116064299D01*
X87846432Y-116044593D01*
X87833820Y-116023550D01*
X87823330Y-116001371D01*
X87815065Y-115978272D01*
X87809104Y-115954473D01*
X87805504Y-115930205D01*
X87804300Y-115905701D01*
X87804300Y-115005699D01*
X87805504Y-114981195D01*
X87809104Y-114956927D01*
X87815065Y-114933128D01*
X87823330Y-114910029D01*
X87833820Y-114887850D01*
X87846432Y-114866807D01*
X87861047Y-114847101D01*
X87877523Y-114828923D01*
X87895701Y-114812447D01*
X87915407Y-114797832D01*
X87936450Y-114785220D01*
X87958629Y-114774730D01*
X87981728Y-114766465D01*
X88005527Y-114760504D01*
X88029795Y-114756904D01*
X88054299Y-114755700D01*
X88704301Y-114755700D01*
X88728805Y-114756904D01*
X88728805Y-114756904D01*
G37*
D12*
X88379300Y-115455700D03*
D11*
G36*
X86678805Y-114756904D02*
G01*
X86703073Y-114760504D01*
X86726872Y-114766465D01*
X86749971Y-114774730D01*
X86772150Y-114785220D01*
X86793193Y-114797832D01*
X86812899Y-114812447D01*
X86831077Y-114828923D01*
X86847553Y-114847101D01*
X86862168Y-114866807D01*
X86874780Y-114887850D01*
X86885270Y-114910029D01*
X86893535Y-114933128D01*
X86899496Y-114956927D01*
X86903096Y-114981195D01*
X86904300Y-115005699D01*
X86904300Y-115905701D01*
X86903096Y-115930205D01*
X86899496Y-115954473D01*
X86893535Y-115978272D01*
X86885270Y-116001371D01*
X86874780Y-116023550D01*
X86862168Y-116044593D01*
X86847553Y-116064299D01*
X86831077Y-116082477D01*
X86812899Y-116098953D01*
X86793193Y-116113568D01*
X86772150Y-116126180D01*
X86749971Y-116136670D01*
X86726872Y-116144935D01*
X86703073Y-116150896D01*
X86678805Y-116154496D01*
X86654301Y-116155700D01*
X86004299Y-116155700D01*
X85979795Y-116154496D01*
X85955527Y-116150896D01*
X85931728Y-116144935D01*
X85908629Y-116136670D01*
X85886450Y-116126180D01*
X85865407Y-116113568D01*
X85845701Y-116098953D01*
X85827523Y-116082477D01*
X85811047Y-116064299D01*
X85796432Y-116044593D01*
X85783820Y-116023550D01*
X85773330Y-116001371D01*
X85765065Y-115978272D01*
X85759104Y-115954473D01*
X85755504Y-115930205D01*
X85754300Y-115905701D01*
X85754300Y-115005699D01*
X85755504Y-114981195D01*
X85759104Y-114956927D01*
X85765065Y-114933128D01*
X85773330Y-114910029D01*
X85783820Y-114887850D01*
X85796432Y-114866807D01*
X85811047Y-114847101D01*
X85827523Y-114828923D01*
X85845701Y-114812447D01*
X85865407Y-114797832D01*
X85886450Y-114785220D01*
X85908629Y-114774730D01*
X85931728Y-114766465D01*
X85955527Y-114760504D01*
X85979795Y-114756904D01*
X86004299Y-114755700D01*
X86654301Y-114755700D01*
X86678805Y-114756904D01*
X86678805Y-114756904D01*
G37*
D12*
X86329300Y-115455700D03*
D11*
G36*
X51818905Y-104889004D02*
G01*
X51843173Y-104892604D01*
X51866972Y-104898565D01*
X51890071Y-104906830D01*
X51912250Y-104917320D01*
X51933293Y-104929932D01*
X51952999Y-104944547D01*
X51971177Y-104961023D01*
X51987653Y-104979201D01*
X52002268Y-104998907D01*
X52014880Y-105019950D01*
X52025370Y-105042129D01*
X52033635Y-105065228D01*
X52039596Y-105089027D01*
X52043196Y-105113295D01*
X52044400Y-105137799D01*
X52044400Y-106037801D01*
X52043196Y-106062305D01*
X52039596Y-106086573D01*
X52033635Y-106110372D01*
X52025370Y-106133471D01*
X52014880Y-106155650D01*
X52002268Y-106176693D01*
X51987653Y-106196399D01*
X51971177Y-106214577D01*
X51952999Y-106231053D01*
X51933293Y-106245668D01*
X51912250Y-106258280D01*
X51890071Y-106268770D01*
X51866972Y-106277035D01*
X51843173Y-106282996D01*
X51818905Y-106286596D01*
X51794401Y-106287800D01*
X51144399Y-106287800D01*
X51119895Y-106286596D01*
X51095627Y-106282996D01*
X51071828Y-106277035D01*
X51048729Y-106268770D01*
X51026550Y-106258280D01*
X51005507Y-106245668D01*
X50985801Y-106231053D01*
X50967623Y-106214577D01*
X50951147Y-106196399D01*
X50936532Y-106176693D01*
X50923920Y-106155650D01*
X50913430Y-106133471D01*
X50905165Y-106110372D01*
X50899204Y-106086573D01*
X50895604Y-106062305D01*
X50894400Y-106037801D01*
X50894400Y-105137799D01*
X50895604Y-105113295D01*
X50899204Y-105089027D01*
X50905165Y-105065228D01*
X50913430Y-105042129D01*
X50923920Y-105019950D01*
X50936532Y-104998907D01*
X50951147Y-104979201D01*
X50967623Y-104961023D01*
X50985801Y-104944547D01*
X51005507Y-104929932D01*
X51026550Y-104917320D01*
X51048729Y-104906830D01*
X51071828Y-104898565D01*
X51095627Y-104892604D01*
X51119895Y-104889004D01*
X51144399Y-104887800D01*
X51794401Y-104887800D01*
X51818905Y-104889004D01*
X51818905Y-104889004D01*
G37*
D12*
X51469400Y-105587800D03*
D11*
G36*
X49768905Y-104889004D02*
G01*
X49793173Y-104892604D01*
X49816972Y-104898565D01*
X49840071Y-104906830D01*
X49862250Y-104917320D01*
X49883293Y-104929932D01*
X49902999Y-104944547D01*
X49921177Y-104961023D01*
X49937653Y-104979201D01*
X49952268Y-104998907D01*
X49964880Y-105019950D01*
X49975370Y-105042129D01*
X49983635Y-105065228D01*
X49989596Y-105089027D01*
X49993196Y-105113295D01*
X49994400Y-105137799D01*
X49994400Y-106037801D01*
X49993196Y-106062305D01*
X49989596Y-106086573D01*
X49983635Y-106110372D01*
X49975370Y-106133471D01*
X49964880Y-106155650D01*
X49952268Y-106176693D01*
X49937653Y-106196399D01*
X49921177Y-106214577D01*
X49902999Y-106231053D01*
X49883293Y-106245668D01*
X49862250Y-106258280D01*
X49840071Y-106268770D01*
X49816972Y-106277035D01*
X49793173Y-106282996D01*
X49768905Y-106286596D01*
X49744401Y-106287800D01*
X49094399Y-106287800D01*
X49069895Y-106286596D01*
X49045627Y-106282996D01*
X49021828Y-106277035D01*
X48998729Y-106268770D01*
X48976550Y-106258280D01*
X48955507Y-106245668D01*
X48935801Y-106231053D01*
X48917623Y-106214577D01*
X48901147Y-106196399D01*
X48886532Y-106176693D01*
X48873920Y-106155650D01*
X48863430Y-106133471D01*
X48855165Y-106110372D01*
X48849204Y-106086573D01*
X48845604Y-106062305D01*
X48844400Y-106037801D01*
X48844400Y-105137799D01*
X48845604Y-105113295D01*
X48849204Y-105089027D01*
X48855165Y-105065228D01*
X48863430Y-105042129D01*
X48873920Y-105019950D01*
X48886532Y-104998907D01*
X48901147Y-104979201D01*
X48917623Y-104961023D01*
X48935801Y-104944547D01*
X48955507Y-104929932D01*
X48976550Y-104917320D01*
X48998729Y-104906830D01*
X49021828Y-104898565D01*
X49045627Y-104892604D01*
X49069895Y-104889004D01*
X49094399Y-104887800D01*
X49744401Y-104887800D01*
X49768905Y-104889004D01*
X49768905Y-104889004D01*
G37*
D12*
X49419400Y-105587800D03*
D11*
G36*
X86307905Y-91718404D02*
G01*
X86332173Y-91722004D01*
X86355972Y-91727965D01*
X86379071Y-91736230D01*
X86401250Y-91746720D01*
X86422293Y-91759332D01*
X86441999Y-91773947D01*
X86460177Y-91790423D01*
X86476653Y-91808601D01*
X86491268Y-91828307D01*
X86503880Y-91849350D01*
X86514370Y-91871529D01*
X86522635Y-91894628D01*
X86528596Y-91918427D01*
X86532196Y-91942695D01*
X86533400Y-91967199D01*
X86533400Y-92617201D01*
X86532196Y-92641705D01*
X86528596Y-92665973D01*
X86522635Y-92689772D01*
X86514370Y-92712871D01*
X86503880Y-92735050D01*
X86491268Y-92756093D01*
X86476653Y-92775799D01*
X86460177Y-92793977D01*
X86441999Y-92810453D01*
X86422293Y-92825068D01*
X86401250Y-92837680D01*
X86379071Y-92848170D01*
X86355972Y-92856435D01*
X86332173Y-92862396D01*
X86307905Y-92865996D01*
X86283401Y-92867200D01*
X85383399Y-92867200D01*
X85358895Y-92865996D01*
X85334627Y-92862396D01*
X85310828Y-92856435D01*
X85287729Y-92848170D01*
X85265550Y-92837680D01*
X85244507Y-92825068D01*
X85224801Y-92810453D01*
X85206623Y-92793977D01*
X85190147Y-92775799D01*
X85175532Y-92756093D01*
X85162920Y-92735050D01*
X85152430Y-92712871D01*
X85144165Y-92689772D01*
X85138204Y-92665973D01*
X85134604Y-92641705D01*
X85133400Y-92617201D01*
X85133400Y-91967199D01*
X85134604Y-91942695D01*
X85138204Y-91918427D01*
X85144165Y-91894628D01*
X85152430Y-91871529D01*
X85162920Y-91849350D01*
X85175532Y-91828307D01*
X85190147Y-91808601D01*
X85206623Y-91790423D01*
X85224801Y-91773947D01*
X85244507Y-91759332D01*
X85265550Y-91746720D01*
X85287729Y-91736230D01*
X85310828Y-91727965D01*
X85334627Y-91722004D01*
X85358895Y-91718404D01*
X85383399Y-91717200D01*
X86283401Y-91717200D01*
X86307905Y-91718404D01*
X86307905Y-91718404D01*
G37*
D12*
X85833400Y-92292200D03*
D11*
G36*
X86307905Y-93768404D02*
G01*
X86332173Y-93772004D01*
X86355972Y-93777965D01*
X86379071Y-93786230D01*
X86401250Y-93796720D01*
X86422293Y-93809332D01*
X86441999Y-93823947D01*
X86460177Y-93840423D01*
X86476653Y-93858601D01*
X86491268Y-93878307D01*
X86503880Y-93899350D01*
X86514370Y-93921529D01*
X86522635Y-93944628D01*
X86528596Y-93968427D01*
X86532196Y-93992695D01*
X86533400Y-94017199D01*
X86533400Y-94667201D01*
X86532196Y-94691705D01*
X86528596Y-94715973D01*
X86522635Y-94739772D01*
X86514370Y-94762871D01*
X86503880Y-94785050D01*
X86491268Y-94806093D01*
X86476653Y-94825799D01*
X86460177Y-94843977D01*
X86441999Y-94860453D01*
X86422293Y-94875068D01*
X86401250Y-94887680D01*
X86379071Y-94898170D01*
X86355972Y-94906435D01*
X86332173Y-94912396D01*
X86307905Y-94915996D01*
X86283401Y-94917200D01*
X85383399Y-94917200D01*
X85358895Y-94915996D01*
X85334627Y-94912396D01*
X85310828Y-94906435D01*
X85287729Y-94898170D01*
X85265550Y-94887680D01*
X85244507Y-94875068D01*
X85224801Y-94860453D01*
X85206623Y-94843977D01*
X85190147Y-94825799D01*
X85175532Y-94806093D01*
X85162920Y-94785050D01*
X85152430Y-94762871D01*
X85144165Y-94739772D01*
X85138204Y-94715973D01*
X85134604Y-94691705D01*
X85133400Y-94667201D01*
X85133400Y-94017199D01*
X85134604Y-93992695D01*
X85138204Y-93968427D01*
X85144165Y-93944628D01*
X85152430Y-93921529D01*
X85162920Y-93899350D01*
X85175532Y-93878307D01*
X85190147Y-93858601D01*
X85206623Y-93840423D01*
X85224801Y-93823947D01*
X85244507Y-93809332D01*
X85265550Y-93796720D01*
X85287729Y-93786230D01*
X85310828Y-93777965D01*
X85334627Y-93772004D01*
X85358895Y-93768404D01*
X85383399Y-93767200D01*
X86283401Y-93767200D01*
X86307905Y-93768404D01*
X86307905Y-93768404D01*
G37*
D12*
X85833400Y-94342200D03*
D11*
G36*
X78962505Y-90080804D02*
G01*
X78986773Y-90084404D01*
X79010572Y-90090365D01*
X79033671Y-90098630D01*
X79055850Y-90109120D01*
X79076893Y-90121732D01*
X79096599Y-90136347D01*
X79114777Y-90152823D01*
X79131253Y-90171001D01*
X79145868Y-90190707D01*
X79158480Y-90211750D01*
X79168970Y-90233929D01*
X79177235Y-90257028D01*
X79183196Y-90280827D01*
X79186796Y-90305095D01*
X79188000Y-90329599D01*
X79188000Y-91229601D01*
X79186796Y-91254105D01*
X79183196Y-91278373D01*
X79177235Y-91302172D01*
X79168970Y-91325271D01*
X79158480Y-91347450D01*
X79145868Y-91368493D01*
X79131253Y-91388199D01*
X79114777Y-91406377D01*
X79096599Y-91422853D01*
X79076893Y-91437468D01*
X79055850Y-91450080D01*
X79033671Y-91460570D01*
X79010572Y-91468835D01*
X78986773Y-91474796D01*
X78962505Y-91478396D01*
X78938001Y-91479600D01*
X78287999Y-91479600D01*
X78263495Y-91478396D01*
X78239227Y-91474796D01*
X78215428Y-91468835D01*
X78192329Y-91460570D01*
X78170150Y-91450080D01*
X78149107Y-91437468D01*
X78129401Y-91422853D01*
X78111223Y-91406377D01*
X78094747Y-91388199D01*
X78080132Y-91368493D01*
X78067520Y-91347450D01*
X78057030Y-91325271D01*
X78048765Y-91302172D01*
X78042804Y-91278373D01*
X78039204Y-91254105D01*
X78038000Y-91229601D01*
X78038000Y-90329599D01*
X78039204Y-90305095D01*
X78042804Y-90280827D01*
X78048765Y-90257028D01*
X78057030Y-90233929D01*
X78067520Y-90211750D01*
X78080132Y-90190707D01*
X78094747Y-90171001D01*
X78111223Y-90152823D01*
X78129401Y-90136347D01*
X78149107Y-90121732D01*
X78170150Y-90109120D01*
X78192329Y-90098630D01*
X78215428Y-90090365D01*
X78239227Y-90084404D01*
X78263495Y-90080804D01*
X78287999Y-90079600D01*
X78938001Y-90079600D01*
X78962505Y-90080804D01*
X78962505Y-90080804D01*
G37*
D12*
X78613000Y-90779600D03*
D11*
G36*
X81012505Y-90080804D02*
G01*
X81036773Y-90084404D01*
X81060572Y-90090365D01*
X81083671Y-90098630D01*
X81105850Y-90109120D01*
X81126893Y-90121732D01*
X81146599Y-90136347D01*
X81164777Y-90152823D01*
X81181253Y-90171001D01*
X81195868Y-90190707D01*
X81208480Y-90211750D01*
X81218970Y-90233929D01*
X81227235Y-90257028D01*
X81233196Y-90280827D01*
X81236796Y-90305095D01*
X81238000Y-90329599D01*
X81238000Y-91229601D01*
X81236796Y-91254105D01*
X81233196Y-91278373D01*
X81227235Y-91302172D01*
X81218970Y-91325271D01*
X81208480Y-91347450D01*
X81195868Y-91368493D01*
X81181253Y-91388199D01*
X81164777Y-91406377D01*
X81146599Y-91422853D01*
X81126893Y-91437468D01*
X81105850Y-91450080D01*
X81083671Y-91460570D01*
X81060572Y-91468835D01*
X81036773Y-91474796D01*
X81012505Y-91478396D01*
X80988001Y-91479600D01*
X80337999Y-91479600D01*
X80313495Y-91478396D01*
X80289227Y-91474796D01*
X80265428Y-91468835D01*
X80242329Y-91460570D01*
X80220150Y-91450080D01*
X80199107Y-91437468D01*
X80179401Y-91422853D01*
X80161223Y-91406377D01*
X80144747Y-91388199D01*
X80130132Y-91368493D01*
X80117520Y-91347450D01*
X80107030Y-91325271D01*
X80098765Y-91302172D01*
X80092804Y-91278373D01*
X80089204Y-91254105D01*
X80088000Y-91229601D01*
X80088000Y-90329599D01*
X80089204Y-90305095D01*
X80092804Y-90280827D01*
X80098765Y-90257028D01*
X80107030Y-90233929D01*
X80117520Y-90211750D01*
X80130132Y-90190707D01*
X80144747Y-90171001D01*
X80161223Y-90152823D01*
X80179401Y-90136347D01*
X80199107Y-90121732D01*
X80220150Y-90109120D01*
X80242329Y-90098630D01*
X80265428Y-90090365D01*
X80289227Y-90084404D01*
X80313495Y-90080804D01*
X80337999Y-90079600D01*
X80988001Y-90079600D01*
X81012505Y-90080804D01*
X81012505Y-90080804D01*
G37*
D12*
X80663000Y-90779600D03*
D11*
G36*
X80902845Y-112709664D02*
G01*
X80927113Y-112713264D01*
X80950912Y-112719225D01*
X80974011Y-112727490D01*
X80996190Y-112737980D01*
X81017233Y-112750592D01*
X81036939Y-112765207D01*
X81055117Y-112781683D01*
X81071593Y-112799861D01*
X81086208Y-112819567D01*
X81098820Y-112840610D01*
X81109310Y-112862789D01*
X81117575Y-112885888D01*
X81123536Y-112909687D01*
X81127136Y-112933955D01*
X81128340Y-112958459D01*
X81128340Y-113858461D01*
X81127136Y-113882965D01*
X81123536Y-113907233D01*
X81117575Y-113931032D01*
X81109310Y-113954131D01*
X81098820Y-113976310D01*
X81086208Y-113997353D01*
X81071593Y-114017059D01*
X81055117Y-114035237D01*
X81036939Y-114051713D01*
X81017233Y-114066328D01*
X80996190Y-114078940D01*
X80974011Y-114089430D01*
X80950912Y-114097695D01*
X80927113Y-114103656D01*
X80902845Y-114107256D01*
X80878341Y-114108460D01*
X80228339Y-114108460D01*
X80203835Y-114107256D01*
X80179567Y-114103656D01*
X80155768Y-114097695D01*
X80132669Y-114089430D01*
X80110490Y-114078940D01*
X80089447Y-114066328D01*
X80069741Y-114051713D01*
X80051563Y-114035237D01*
X80035087Y-114017059D01*
X80020472Y-113997353D01*
X80007860Y-113976310D01*
X79997370Y-113954131D01*
X79989105Y-113931032D01*
X79983144Y-113907233D01*
X79979544Y-113882965D01*
X79978340Y-113858461D01*
X79978340Y-112958459D01*
X79979544Y-112933955D01*
X79983144Y-112909687D01*
X79989105Y-112885888D01*
X79997370Y-112862789D01*
X80007860Y-112840610D01*
X80020472Y-112819567D01*
X80035087Y-112799861D01*
X80051563Y-112781683D01*
X80069741Y-112765207D01*
X80089447Y-112750592D01*
X80110490Y-112737980D01*
X80132669Y-112727490D01*
X80155768Y-112719225D01*
X80179567Y-112713264D01*
X80203835Y-112709664D01*
X80228339Y-112708460D01*
X80878341Y-112708460D01*
X80902845Y-112709664D01*
X80902845Y-112709664D01*
G37*
D12*
X80553340Y-113408460D03*
D11*
G36*
X82952845Y-112709664D02*
G01*
X82977113Y-112713264D01*
X83000912Y-112719225D01*
X83024011Y-112727490D01*
X83046190Y-112737980D01*
X83067233Y-112750592D01*
X83086939Y-112765207D01*
X83105117Y-112781683D01*
X83121593Y-112799861D01*
X83136208Y-112819567D01*
X83148820Y-112840610D01*
X83159310Y-112862789D01*
X83167575Y-112885888D01*
X83173536Y-112909687D01*
X83177136Y-112933955D01*
X83178340Y-112958459D01*
X83178340Y-113858461D01*
X83177136Y-113882965D01*
X83173536Y-113907233D01*
X83167575Y-113931032D01*
X83159310Y-113954131D01*
X83148820Y-113976310D01*
X83136208Y-113997353D01*
X83121593Y-114017059D01*
X83105117Y-114035237D01*
X83086939Y-114051713D01*
X83067233Y-114066328D01*
X83046190Y-114078940D01*
X83024011Y-114089430D01*
X83000912Y-114097695D01*
X82977113Y-114103656D01*
X82952845Y-114107256D01*
X82928341Y-114108460D01*
X82278339Y-114108460D01*
X82253835Y-114107256D01*
X82229567Y-114103656D01*
X82205768Y-114097695D01*
X82182669Y-114089430D01*
X82160490Y-114078940D01*
X82139447Y-114066328D01*
X82119741Y-114051713D01*
X82101563Y-114035237D01*
X82085087Y-114017059D01*
X82070472Y-113997353D01*
X82057860Y-113976310D01*
X82047370Y-113954131D01*
X82039105Y-113931032D01*
X82033144Y-113907233D01*
X82029544Y-113882965D01*
X82028340Y-113858461D01*
X82028340Y-112958459D01*
X82029544Y-112933955D01*
X82033144Y-112909687D01*
X82039105Y-112885888D01*
X82047370Y-112862789D01*
X82057860Y-112840610D01*
X82070472Y-112819567D01*
X82085087Y-112799861D01*
X82101563Y-112781683D01*
X82119741Y-112765207D01*
X82139447Y-112750592D01*
X82160490Y-112737980D01*
X82182669Y-112727490D01*
X82205768Y-112719225D01*
X82229567Y-112713264D01*
X82253835Y-112709664D01*
X82278339Y-112708460D01*
X82928341Y-112708460D01*
X82952845Y-112709664D01*
X82952845Y-112709664D01*
G37*
D12*
X82603340Y-113408460D03*
D11*
G36*
X71299105Y-111416804D02*
G01*
X71323373Y-111420404D01*
X71347172Y-111426365D01*
X71370271Y-111434630D01*
X71392450Y-111445120D01*
X71413493Y-111457732D01*
X71433199Y-111472347D01*
X71451377Y-111488823D01*
X71467853Y-111507001D01*
X71482468Y-111526707D01*
X71495080Y-111547750D01*
X71505570Y-111569929D01*
X71513835Y-111593028D01*
X71519796Y-111616827D01*
X71523396Y-111641095D01*
X71524600Y-111665599D01*
X71524600Y-112565601D01*
X71523396Y-112590105D01*
X71519796Y-112614373D01*
X71513835Y-112638172D01*
X71505570Y-112661271D01*
X71495080Y-112683450D01*
X71482468Y-112704493D01*
X71467853Y-112724199D01*
X71451377Y-112742377D01*
X71433199Y-112758853D01*
X71413493Y-112773468D01*
X71392450Y-112786080D01*
X71370271Y-112796570D01*
X71347172Y-112804835D01*
X71323373Y-112810796D01*
X71299105Y-112814396D01*
X71274601Y-112815600D01*
X70624599Y-112815600D01*
X70600095Y-112814396D01*
X70575827Y-112810796D01*
X70552028Y-112804835D01*
X70528929Y-112796570D01*
X70506750Y-112786080D01*
X70485707Y-112773468D01*
X70466001Y-112758853D01*
X70447823Y-112742377D01*
X70431347Y-112724199D01*
X70416732Y-112704493D01*
X70404120Y-112683450D01*
X70393630Y-112661271D01*
X70385365Y-112638172D01*
X70379404Y-112614373D01*
X70375804Y-112590105D01*
X70374600Y-112565601D01*
X70374600Y-111665599D01*
X70375804Y-111641095D01*
X70379404Y-111616827D01*
X70385365Y-111593028D01*
X70393630Y-111569929D01*
X70404120Y-111547750D01*
X70416732Y-111526707D01*
X70431347Y-111507001D01*
X70447823Y-111488823D01*
X70466001Y-111472347D01*
X70485707Y-111457732D01*
X70506750Y-111445120D01*
X70528929Y-111434630D01*
X70552028Y-111426365D01*
X70575827Y-111420404D01*
X70600095Y-111416804D01*
X70624599Y-111415600D01*
X71274601Y-111415600D01*
X71299105Y-111416804D01*
X71299105Y-111416804D01*
G37*
D12*
X70949600Y-112115600D03*
D11*
G36*
X73349105Y-111416804D02*
G01*
X73373373Y-111420404D01*
X73397172Y-111426365D01*
X73420271Y-111434630D01*
X73442450Y-111445120D01*
X73463493Y-111457732D01*
X73483199Y-111472347D01*
X73501377Y-111488823D01*
X73517853Y-111507001D01*
X73532468Y-111526707D01*
X73545080Y-111547750D01*
X73555570Y-111569929D01*
X73563835Y-111593028D01*
X73569796Y-111616827D01*
X73573396Y-111641095D01*
X73574600Y-111665599D01*
X73574600Y-112565601D01*
X73573396Y-112590105D01*
X73569796Y-112614373D01*
X73563835Y-112638172D01*
X73555570Y-112661271D01*
X73545080Y-112683450D01*
X73532468Y-112704493D01*
X73517853Y-112724199D01*
X73501377Y-112742377D01*
X73483199Y-112758853D01*
X73463493Y-112773468D01*
X73442450Y-112786080D01*
X73420271Y-112796570D01*
X73397172Y-112804835D01*
X73373373Y-112810796D01*
X73349105Y-112814396D01*
X73324601Y-112815600D01*
X72674599Y-112815600D01*
X72650095Y-112814396D01*
X72625827Y-112810796D01*
X72602028Y-112804835D01*
X72578929Y-112796570D01*
X72556750Y-112786080D01*
X72535707Y-112773468D01*
X72516001Y-112758853D01*
X72497823Y-112742377D01*
X72481347Y-112724199D01*
X72466732Y-112704493D01*
X72454120Y-112683450D01*
X72443630Y-112661271D01*
X72435365Y-112638172D01*
X72429404Y-112614373D01*
X72425804Y-112590105D01*
X72424600Y-112565601D01*
X72424600Y-111665599D01*
X72425804Y-111641095D01*
X72429404Y-111616827D01*
X72435365Y-111593028D01*
X72443630Y-111569929D01*
X72454120Y-111547750D01*
X72466732Y-111526707D01*
X72481347Y-111507001D01*
X72497823Y-111488823D01*
X72516001Y-111472347D01*
X72535707Y-111457732D01*
X72556750Y-111445120D01*
X72578929Y-111434630D01*
X72602028Y-111426365D01*
X72625827Y-111420404D01*
X72650095Y-111416804D01*
X72674599Y-111415600D01*
X73324601Y-111415600D01*
X73349105Y-111416804D01*
X73349105Y-111416804D01*
G37*
D12*
X72999600Y-112115600D03*
D11*
G36*
X65457905Y-113018404D02*
G01*
X65482173Y-113022004D01*
X65505972Y-113027965D01*
X65529071Y-113036230D01*
X65551250Y-113046720D01*
X65572293Y-113059332D01*
X65591999Y-113073947D01*
X65610177Y-113090423D01*
X65626653Y-113108601D01*
X65641268Y-113128307D01*
X65653880Y-113149350D01*
X65664370Y-113171529D01*
X65672635Y-113194628D01*
X65678596Y-113218427D01*
X65682196Y-113242695D01*
X65683400Y-113267199D01*
X65683400Y-113917201D01*
X65682196Y-113941705D01*
X65678596Y-113965973D01*
X65672635Y-113989772D01*
X65664370Y-114012871D01*
X65653880Y-114035050D01*
X65641268Y-114056093D01*
X65626653Y-114075799D01*
X65610177Y-114093977D01*
X65591999Y-114110453D01*
X65572293Y-114125068D01*
X65551250Y-114137680D01*
X65529071Y-114148170D01*
X65505972Y-114156435D01*
X65482173Y-114162396D01*
X65457905Y-114165996D01*
X65433401Y-114167200D01*
X64533399Y-114167200D01*
X64508895Y-114165996D01*
X64484627Y-114162396D01*
X64460828Y-114156435D01*
X64437729Y-114148170D01*
X64415550Y-114137680D01*
X64394507Y-114125068D01*
X64374801Y-114110453D01*
X64356623Y-114093977D01*
X64340147Y-114075799D01*
X64325532Y-114056093D01*
X64312920Y-114035050D01*
X64302430Y-114012871D01*
X64294165Y-113989772D01*
X64288204Y-113965973D01*
X64284604Y-113941705D01*
X64283400Y-113917201D01*
X64283400Y-113267199D01*
X64284604Y-113242695D01*
X64288204Y-113218427D01*
X64294165Y-113194628D01*
X64302430Y-113171529D01*
X64312920Y-113149350D01*
X64325532Y-113128307D01*
X64340147Y-113108601D01*
X64356623Y-113090423D01*
X64374801Y-113073947D01*
X64394507Y-113059332D01*
X64415550Y-113046720D01*
X64437729Y-113036230D01*
X64460828Y-113027965D01*
X64484627Y-113022004D01*
X64508895Y-113018404D01*
X64533399Y-113017200D01*
X65433401Y-113017200D01*
X65457905Y-113018404D01*
X65457905Y-113018404D01*
G37*
D12*
X64983400Y-113592200D03*
D11*
G36*
X65457905Y-110968404D02*
G01*
X65482173Y-110972004D01*
X65505972Y-110977965D01*
X65529071Y-110986230D01*
X65551250Y-110996720D01*
X65572293Y-111009332D01*
X65591999Y-111023947D01*
X65610177Y-111040423D01*
X65626653Y-111058601D01*
X65641268Y-111078307D01*
X65653880Y-111099350D01*
X65664370Y-111121529D01*
X65672635Y-111144628D01*
X65678596Y-111168427D01*
X65682196Y-111192695D01*
X65683400Y-111217199D01*
X65683400Y-111867201D01*
X65682196Y-111891705D01*
X65678596Y-111915973D01*
X65672635Y-111939772D01*
X65664370Y-111962871D01*
X65653880Y-111985050D01*
X65641268Y-112006093D01*
X65626653Y-112025799D01*
X65610177Y-112043977D01*
X65591999Y-112060453D01*
X65572293Y-112075068D01*
X65551250Y-112087680D01*
X65529071Y-112098170D01*
X65505972Y-112106435D01*
X65482173Y-112112396D01*
X65457905Y-112115996D01*
X65433401Y-112117200D01*
X64533399Y-112117200D01*
X64508895Y-112115996D01*
X64484627Y-112112396D01*
X64460828Y-112106435D01*
X64437729Y-112098170D01*
X64415550Y-112087680D01*
X64394507Y-112075068D01*
X64374801Y-112060453D01*
X64356623Y-112043977D01*
X64340147Y-112025799D01*
X64325532Y-112006093D01*
X64312920Y-111985050D01*
X64302430Y-111962871D01*
X64294165Y-111939772D01*
X64288204Y-111915973D01*
X64284604Y-111891705D01*
X64283400Y-111867201D01*
X64283400Y-111217199D01*
X64284604Y-111192695D01*
X64288204Y-111168427D01*
X64294165Y-111144628D01*
X64302430Y-111121529D01*
X64312920Y-111099350D01*
X64325532Y-111078307D01*
X64340147Y-111058601D01*
X64356623Y-111040423D01*
X64374801Y-111023947D01*
X64394507Y-111009332D01*
X64415550Y-110996720D01*
X64437729Y-110986230D01*
X64460828Y-110977965D01*
X64484627Y-110972004D01*
X64508895Y-110968404D01*
X64533399Y-110967200D01*
X65433401Y-110967200D01*
X65457905Y-110968404D01*
X65457905Y-110968404D01*
G37*
D12*
X64983400Y-111542200D03*
D11*
G36*
X86758305Y-106826404D02*
G01*
X86782573Y-106830004D01*
X86806372Y-106835965D01*
X86829471Y-106844230D01*
X86851650Y-106854720D01*
X86872693Y-106867332D01*
X86892399Y-106881947D01*
X86910577Y-106898423D01*
X86927053Y-106916601D01*
X86941668Y-106936307D01*
X86954280Y-106957350D01*
X86964770Y-106979529D01*
X86973035Y-107002628D01*
X86978996Y-107026427D01*
X86982596Y-107050695D01*
X86983800Y-107075199D01*
X86983800Y-107725201D01*
X86982596Y-107749705D01*
X86978996Y-107773973D01*
X86973035Y-107797772D01*
X86964770Y-107820871D01*
X86954280Y-107843050D01*
X86941668Y-107864093D01*
X86927053Y-107883799D01*
X86910577Y-107901977D01*
X86892399Y-107918453D01*
X86872693Y-107933068D01*
X86851650Y-107945680D01*
X86829471Y-107956170D01*
X86806372Y-107964435D01*
X86782573Y-107970396D01*
X86758305Y-107973996D01*
X86733801Y-107975200D01*
X85833799Y-107975200D01*
X85809295Y-107973996D01*
X85785027Y-107970396D01*
X85761228Y-107964435D01*
X85738129Y-107956170D01*
X85715950Y-107945680D01*
X85694907Y-107933068D01*
X85675201Y-107918453D01*
X85657023Y-107901977D01*
X85640547Y-107883799D01*
X85625932Y-107864093D01*
X85613320Y-107843050D01*
X85602830Y-107820871D01*
X85594565Y-107797772D01*
X85588604Y-107773973D01*
X85585004Y-107749705D01*
X85583800Y-107725201D01*
X85583800Y-107075199D01*
X85585004Y-107050695D01*
X85588604Y-107026427D01*
X85594565Y-107002628D01*
X85602830Y-106979529D01*
X85613320Y-106957350D01*
X85625932Y-106936307D01*
X85640547Y-106916601D01*
X85657023Y-106898423D01*
X85675201Y-106881947D01*
X85694907Y-106867332D01*
X85715950Y-106854720D01*
X85738129Y-106844230D01*
X85761228Y-106835965D01*
X85785027Y-106830004D01*
X85809295Y-106826404D01*
X85833799Y-106825200D01*
X86733801Y-106825200D01*
X86758305Y-106826404D01*
X86758305Y-106826404D01*
G37*
D12*
X86283800Y-107400200D03*
D11*
G36*
X86758305Y-104776404D02*
G01*
X86782573Y-104780004D01*
X86806372Y-104785965D01*
X86829471Y-104794230D01*
X86851650Y-104804720D01*
X86872693Y-104817332D01*
X86892399Y-104831947D01*
X86910577Y-104848423D01*
X86927053Y-104866601D01*
X86941668Y-104886307D01*
X86954280Y-104907350D01*
X86964770Y-104929529D01*
X86973035Y-104952628D01*
X86978996Y-104976427D01*
X86982596Y-105000695D01*
X86983800Y-105025199D01*
X86983800Y-105675201D01*
X86982596Y-105699705D01*
X86978996Y-105723973D01*
X86973035Y-105747772D01*
X86964770Y-105770871D01*
X86954280Y-105793050D01*
X86941668Y-105814093D01*
X86927053Y-105833799D01*
X86910577Y-105851977D01*
X86892399Y-105868453D01*
X86872693Y-105883068D01*
X86851650Y-105895680D01*
X86829471Y-105906170D01*
X86806372Y-105914435D01*
X86782573Y-105920396D01*
X86758305Y-105923996D01*
X86733801Y-105925200D01*
X85833799Y-105925200D01*
X85809295Y-105923996D01*
X85785027Y-105920396D01*
X85761228Y-105914435D01*
X85738129Y-105906170D01*
X85715950Y-105895680D01*
X85694907Y-105883068D01*
X85675201Y-105868453D01*
X85657023Y-105851977D01*
X85640547Y-105833799D01*
X85625932Y-105814093D01*
X85613320Y-105793050D01*
X85602830Y-105770871D01*
X85594565Y-105747772D01*
X85588604Y-105723973D01*
X85585004Y-105699705D01*
X85583800Y-105675201D01*
X85583800Y-105025199D01*
X85585004Y-105000695D01*
X85588604Y-104976427D01*
X85594565Y-104952628D01*
X85602830Y-104929529D01*
X85613320Y-104907350D01*
X85625932Y-104886307D01*
X85640547Y-104866601D01*
X85657023Y-104848423D01*
X85675201Y-104831947D01*
X85694907Y-104817332D01*
X85715950Y-104804720D01*
X85738129Y-104794230D01*
X85761228Y-104785965D01*
X85785027Y-104780004D01*
X85809295Y-104776404D01*
X85833799Y-104775200D01*
X86733801Y-104775200D01*
X86758305Y-104776404D01*
X86758305Y-104776404D01*
G37*
D12*
X86283800Y-105350200D03*
D11*
G36*
X71291705Y-113448804D02*
G01*
X71315973Y-113452404D01*
X71339772Y-113458365D01*
X71362871Y-113466630D01*
X71385050Y-113477120D01*
X71406093Y-113489732D01*
X71425799Y-113504347D01*
X71443977Y-113520823D01*
X71460453Y-113539001D01*
X71475068Y-113558707D01*
X71487680Y-113579750D01*
X71498170Y-113601929D01*
X71506435Y-113625028D01*
X71512396Y-113648827D01*
X71515996Y-113673095D01*
X71517200Y-113697599D01*
X71517200Y-114597601D01*
X71515996Y-114622105D01*
X71512396Y-114646373D01*
X71506435Y-114670172D01*
X71498170Y-114693271D01*
X71487680Y-114715450D01*
X71475068Y-114736493D01*
X71460453Y-114756199D01*
X71443977Y-114774377D01*
X71425799Y-114790853D01*
X71406093Y-114805468D01*
X71385050Y-114818080D01*
X71362871Y-114828570D01*
X71339772Y-114836835D01*
X71315973Y-114842796D01*
X71291705Y-114846396D01*
X71267201Y-114847600D01*
X70617199Y-114847600D01*
X70592695Y-114846396D01*
X70568427Y-114842796D01*
X70544628Y-114836835D01*
X70521529Y-114828570D01*
X70499350Y-114818080D01*
X70478307Y-114805468D01*
X70458601Y-114790853D01*
X70440423Y-114774377D01*
X70423947Y-114756199D01*
X70409332Y-114736493D01*
X70396720Y-114715450D01*
X70386230Y-114693271D01*
X70377965Y-114670172D01*
X70372004Y-114646373D01*
X70368404Y-114622105D01*
X70367200Y-114597601D01*
X70367200Y-113697599D01*
X70368404Y-113673095D01*
X70372004Y-113648827D01*
X70377965Y-113625028D01*
X70386230Y-113601929D01*
X70396720Y-113579750D01*
X70409332Y-113558707D01*
X70423947Y-113539001D01*
X70440423Y-113520823D01*
X70458601Y-113504347D01*
X70478307Y-113489732D01*
X70499350Y-113477120D01*
X70521529Y-113466630D01*
X70544628Y-113458365D01*
X70568427Y-113452404D01*
X70592695Y-113448804D01*
X70617199Y-113447600D01*
X71267201Y-113447600D01*
X71291705Y-113448804D01*
X71291705Y-113448804D01*
G37*
D12*
X70942200Y-114147600D03*
D11*
G36*
X73341705Y-113448804D02*
G01*
X73365973Y-113452404D01*
X73389772Y-113458365D01*
X73412871Y-113466630D01*
X73435050Y-113477120D01*
X73456093Y-113489732D01*
X73475799Y-113504347D01*
X73493977Y-113520823D01*
X73510453Y-113539001D01*
X73525068Y-113558707D01*
X73537680Y-113579750D01*
X73548170Y-113601929D01*
X73556435Y-113625028D01*
X73562396Y-113648827D01*
X73565996Y-113673095D01*
X73567200Y-113697599D01*
X73567200Y-114597601D01*
X73565996Y-114622105D01*
X73562396Y-114646373D01*
X73556435Y-114670172D01*
X73548170Y-114693271D01*
X73537680Y-114715450D01*
X73525068Y-114736493D01*
X73510453Y-114756199D01*
X73493977Y-114774377D01*
X73475799Y-114790853D01*
X73456093Y-114805468D01*
X73435050Y-114818080D01*
X73412871Y-114828570D01*
X73389772Y-114836835D01*
X73365973Y-114842796D01*
X73341705Y-114846396D01*
X73317201Y-114847600D01*
X72667199Y-114847600D01*
X72642695Y-114846396D01*
X72618427Y-114842796D01*
X72594628Y-114836835D01*
X72571529Y-114828570D01*
X72549350Y-114818080D01*
X72528307Y-114805468D01*
X72508601Y-114790853D01*
X72490423Y-114774377D01*
X72473947Y-114756199D01*
X72459332Y-114736493D01*
X72446720Y-114715450D01*
X72436230Y-114693271D01*
X72427965Y-114670172D01*
X72422004Y-114646373D01*
X72418404Y-114622105D01*
X72417200Y-114597601D01*
X72417200Y-113697599D01*
X72418404Y-113673095D01*
X72422004Y-113648827D01*
X72427965Y-113625028D01*
X72436230Y-113601929D01*
X72446720Y-113579750D01*
X72459332Y-113558707D01*
X72473947Y-113539001D01*
X72490423Y-113520823D01*
X72508601Y-113504347D01*
X72528307Y-113489732D01*
X72549350Y-113477120D01*
X72571529Y-113466630D01*
X72594628Y-113458365D01*
X72618427Y-113452404D01*
X72642695Y-113448804D01*
X72667199Y-113447600D01*
X73317201Y-113447600D01*
X73341705Y-113448804D01*
X73341705Y-113448804D01*
G37*
D12*
X72992200Y-114147600D03*
M02*
