G04 #@! TF.GenerationSoftware,KiCad,Pcbnew,(5.99.0-97-g37fac7a8f)*
G04 #@! TF.CreationDate,2019-11-17T20:53:56+01:00*
G04 #@! TF.ProjectId,canbox,63616e62-6f78-42e6-9b69-6361645f7063,rev?*
G04 #@! TF.SameCoordinates,Original*
G04 #@! TF.FileFunction,Other,Fab,Bot*
%FSLAX46Y46*%
G04 Gerber Fmt 4.6, Leading zero omitted, Abs format (unit mm)*
G04 Created by KiCad (PCBNEW (5.99.0-97-g37fac7a8f)) date 2019-11-17 20:53:56*
%MOMM*%
%LPD*%
G04 APERTURE LIST*
%ADD10C,0.100000*%
%ADD11C,0.120000*%
%ADD12C,0.150000*%
%ADD13C,0.080000*%
%ADD14C,0.075000*%
G04 APERTURE END LIST*
D10*
X38175040Y-63670040D02*
X38175040Y-64870040D01*
X38175040Y-64870040D02*
X40175040Y-64870040D01*
X40175040Y-64870040D02*
X40175040Y-63670040D01*
X40175040Y-63670040D02*
X38175040Y-63670040D01*
X42395040Y-27700040D02*
X42395040Y-26500040D01*
X42395040Y-26500040D02*
X40395040Y-26500040D01*
X40395040Y-26500040D02*
X40395040Y-27700040D01*
X40395040Y-27700040D02*
X42395040Y-27700040D01*
X48645040Y-48160040D02*
X48645040Y-49010040D01*
X48145040Y-49510040D02*
X46445040Y-49510040D01*
X48645040Y-48160040D02*
X46445040Y-48160040D01*
X46445040Y-48160040D02*
X46445040Y-49510040D01*
X48645040Y-49010040D02*
X48145040Y-49510040D01*
X50595040Y-44330040D02*
X49395040Y-44330040D01*
X49395040Y-44330040D02*
X49395040Y-46330040D01*
X49395040Y-46330040D02*
X50595040Y-46330040D01*
X50595040Y-46330040D02*
X50595040Y-44330040D01*
X46190040Y-55965040D02*
X46190040Y-57165040D01*
X46190040Y-57165040D02*
X48190040Y-57165040D01*
X48190040Y-57165040D02*
X48190040Y-55965040D01*
X48190040Y-55965040D02*
X46190040Y-55965040D01*
X32601859Y-42816331D02*
X30601859Y-42816331D01*
X32601859Y-44016331D02*
X32601859Y-42816331D01*
X30601859Y-44016331D02*
X32601859Y-44016331D01*
X30601859Y-42816331D02*
X30601859Y-44016331D01*
X32601859Y-45076331D02*
X30601859Y-45076331D01*
X32601859Y-46276331D02*
X32601859Y-45076331D01*
X30601859Y-46276331D02*
X32601859Y-46276331D01*
X30601859Y-45076331D02*
X30601859Y-46276331D01*
D11*
X19935040Y-46740040D02*
X19935040Y-41660040D01*
D10*
X61625658Y-54574459D02*
X63625658Y-54574459D01*
X61625658Y-53374459D02*
X61625658Y-54574459D01*
X63625658Y-53374459D02*
X61625658Y-53374459D01*
X63625658Y-54574459D02*
X63625658Y-53374459D01*
X61625658Y-52174459D02*
X63625658Y-52174459D01*
X61625658Y-50974459D02*
X61625658Y-52174459D01*
X63625658Y-50974459D02*
X61625658Y-50974459D01*
X63625658Y-52174459D02*
X63625658Y-50974459D01*
D12*
X40032182Y-63072420D02*
X40032182Y-62072420D01*
X39460754Y-63072420D01*
X39460754Y-62072420D01*
X38984563Y-63072420D02*
X38984563Y-62072420D01*
X38651230Y-62786706D01*
X38317897Y-62072420D01*
X38317897Y-63072420D01*
D13*
X39496468Y-64496230D02*
X39663135Y-64258135D01*
X39782182Y-64496230D02*
X39782182Y-63996230D01*
X39591706Y-63996230D01*
X39544087Y-64020040D01*
X39520278Y-64043849D01*
X39496468Y-64091468D01*
X39496468Y-64162897D01*
X39520278Y-64210516D01*
X39544087Y-64234325D01*
X39591706Y-64258135D01*
X39782182Y-64258135D01*
X39329801Y-63996230D02*
X39020278Y-63996230D01*
X39186944Y-64186706D01*
X39115516Y-64186706D01*
X39067897Y-64210516D01*
X39044087Y-64234325D01*
X39020278Y-64281944D01*
X39020278Y-64400992D01*
X39044087Y-64448611D01*
X39067897Y-64472420D01*
X39115516Y-64496230D01*
X39258373Y-64496230D01*
X39305992Y-64472420D01*
X39329801Y-64448611D01*
X38567897Y-63996230D02*
X38805992Y-63996230D01*
X38829801Y-64234325D01*
X38805992Y-64210516D01*
X38758373Y-64186706D01*
X38639325Y-64186706D01*
X38591706Y-64210516D01*
X38567897Y-64234325D01*
X38544087Y-64281944D01*
X38544087Y-64400992D01*
X38567897Y-64448611D01*
X38591706Y-64472420D01*
X38639325Y-64496230D01*
X38758373Y-64496230D01*
X38805992Y-64472420D01*
X38829801Y-64448611D01*
D12*
X42252182Y-29202420D02*
X42252182Y-28202420D01*
X41680754Y-29202420D01*
X41680754Y-28202420D01*
X41204563Y-29202420D02*
X41204563Y-28202420D01*
X40871230Y-28916706D01*
X40537897Y-28202420D01*
X40537897Y-29202420D01*
D13*
X41716468Y-27326230D02*
X41883135Y-27088135D01*
X42002182Y-27326230D02*
X42002182Y-26826230D01*
X41811706Y-26826230D01*
X41764087Y-26850040D01*
X41740278Y-26873849D01*
X41716468Y-26921468D01*
X41716468Y-26992897D01*
X41740278Y-27040516D01*
X41764087Y-27064325D01*
X41811706Y-27088135D01*
X42002182Y-27088135D01*
X41525992Y-26873849D02*
X41502182Y-26850040D01*
X41454563Y-26826230D01*
X41335516Y-26826230D01*
X41287897Y-26850040D01*
X41264087Y-26873849D01*
X41240278Y-26921468D01*
X41240278Y-26969087D01*
X41264087Y-27040516D01*
X41549801Y-27326230D01*
X41240278Y-27326230D01*
X40811706Y-26826230D02*
X40906944Y-26826230D01*
X40954563Y-26850040D01*
X40978373Y-26873849D01*
X41025992Y-26945278D01*
X41049801Y-27040516D01*
X41049801Y-27230992D01*
X41025992Y-27278611D01*
X41002182Y-27302420D01*
X40954563Y-27326230D01*
X40859325Y-27326230D01*
X40811706Y-27302420D01*
X40787897Y-27278611D01*
X40764087Y-27230992D01*
X40764087Y-27111944D01*
X40787897Y-27064325D01*
X40811706Y-27040516D01*
X40859325Y-27016706D01*
X40954563Y-27016706D01*
X41002182Y-27040516D01*
X41025992Y-27064325D01*
X41049801Y-27111944D01*
D12*
X44997420Y-44763611D02*
X44997420Y-45430278D01*
X45997420Y-45001706D01*
X45330754Y-46239801D02*
X45997420Y-46239801D01*
X44949801Y-46001706D02*
X45664087Y-45763611D01*
X45664087Y-46382659D01*
X45997420Y-47239801D02*
X45997420Y-46763611D01*
X44997420Y-46763611D01*
X44997420Y-47430278D02*
X45997420Y-47763611D01*
X44997420Y-48096944D01*
X45902182Y-49001706D02*
X45949801Y-48954087D01*
X45997420Y-48811230D01*
X45997420Y-48715992D01*
X45949801Y-48573135D01*
X45854563Y-48477897D01*
X45759325Y-48430278D01*
X45568849Y-48382659D01*
X45425992Y-48382659D01*
X45235516Y-48430278D01*
X45140278Y-48477897D01*
X45045040Y-48573135D01*
X44997420Y-48715992D01*
X44997420Y-48811230D01*
X45045040Y-48954087D01*
X45092659Y-49001706D01*
X45997420Y-49954087D02*
X45997420Y-49382659D01*
X45997420Y-49668373D02*
X44997420Y-49668373D01*
X45140278Y-49573135D01*
X45235516Y-49477897D01*
X45283135Y-49382659D01*
X45045040Y-50906468D02*
X44997420Y-50811230D01*
X44997420Y-50668373D01*
X45045040Y-50525516D01*
X45140278Y-50430278D01*
X45235516Y-50382659D01*
X45425992Y-50335040D01*
X45568849Y-50335040D01*
X45759325Y-50382659D01*
X45854563Y-50430278D01*
X45949801Y-50525516D01*
X45997420Y-50668373D01*
X45997420Y-50763611D01*
X45949801Y-50906468D01*
X45902182Y-50954087D01*
X45568849Y-50954087D01*
X45568849Y-50763611D01*
X44997420Y-51573135D02*
X44997420Y-51668373D01*
X45045040Y-51763611D01*
X45092659Y-51811230D01*
X45187897Y-51858849D01*
X45378373Y-51906468D01*
X45616468Y-51906468D01*
X45806944Y-51858849D01*
X45902182Y-51811230D01*
X45949801Y-51763611D01*
X45997420Y-51668373D01*
X45997420Y-51573135D01*
X45949801Y-51477897D01*
X45902182Y-51430278D01*
X45806944Y-51382659D01*
X45616468Y-51335040D01*
X45378373Y-51335040D01*
X45187897Y-51382659D01*
X45092659Y-51430278D01*
X45045040Y-51477897D01*
X44997420Y-51573135D01*
X45330754Y-52763611D02*
X45997420Y-52763611D01*
X44949801Y-52525516D02*
X45664087Y-52287420D01*
X45664087Y-52906468D01*
D14*
X47925992Y-48561230D02*
X47925992Y-48965992D01*
X47902182Y-49013611D01*
X47878373Y-49037420D01*
X47830754Y-49061230D01*
X47735516Y-49061230D01*
X47687897Y-49037420D01*
X47664087Y-49013611D01*
X47640278Y-48965992D01*
X47640278Y-48561230D01*
X47449801Y-48561230D02*
X47140278Y-48561230D01*
X47306944Y-48751706D01*
X47235516Y-48751706D01*
X47187897Y-48775516D01*
X47164087Y-48799325D01*
X47140278Y-48846944D01*
X47140278Y-48965992D01*
X47164087Y-49013611D01*
X47187897Y-49037420D01*
X47235516Y-49061230D01*
X47378373Y-49061230D01*
X47425992Y-49037420D01*
X47449801Y-49013611D01*
D12*
X51097420Y-44520516D02*
X51097420Y-45139563D01*
X51478373Y-44806230D01*
X51478373Y-44949087D01*
X51525992Y-45044325D01*
X51573611Y-45091944D01*
X51668849Y-45139563D01*
X51906944Y-45139563D01*
X52002182Y-45091944D01*
X52049801Y-45044325D01*
X52097420Y-44949087D01*
X52097420Y-44663373D01*
X52049801Y-44568135D01*
X52002182Y-44520516D01*
X51097420Y-45472897D02*
X51097420Y-46091944D01*
X51478373Y-45758611D01*
X51478373Y-45901468D01*
X51525992Y-45996706D01*
X51573611Y-46044325D01*
X51668849Y-46091944D01*
X51906944Y-46091944D01*
X52002182Y-46044325D01*
X52049801Y-45996706D01*
X52097420Y-45901468D01*
X52097420Y-45615754D01*
X52049801Y-45520516D01*
X52002182Y-45472897D01*
D13*
X50221230Y-45008611D02*
X49983135Y-44841944D01*
X50221230Y-44722897D02*
X49721230Y-44722897D01*
X49721230Y-44913373D01*
X49745040Y-44960992D01*
X49768849Y-44984801D01*
X49816468Y-45008611D01*
X49887897Y-45008611D01*
X49935516Y-44984801D01*
X49959325Y-44960992D01*
X49983135Y-44913373D01*
X49983135Y-44722897D01*
X49768849Y-45199087D02*
X49745040Y-45222897D01*
X49721230Y-45270516D01*
X49721230Y-45389563D01*
X49745040Y-45437182D01*
X49768849Y-45460992D01*
X49816468Y-45484801D01*
X49864087Y-45484801D01*
X49935516Y-45460992D01*
X50221230Y-45175278D01*
X50221230Y-45484801D01*
X49721230Y-45651468D02*
X49721230Y-45960992D01*
X49911706Y-45794325D01*
X49911706Y-45865754D01*
X49935516Y-45913373D01*
X49959325Y-45937182D01*
X50006944Y-45960992D01*
X50125992Y-45960992D01*
X50173611Y-45937182D01*
X50197420Y-45913373D01*
X50221230Y-45865754D01*
X50221230Y-45722897D01*
X50197420Y-45675278D01*
X50173611Y-45651468D01*
D12*
X47999563Y-54367420D02*
X47380516Y-54367420D01*
X47713849Y-54748373D01*
X47570992Y-54748373D01*
X47475754Y-54795992D01*
X47428135Y-54843611D01*
X47380516Y-54938849D01*
X47380516Y-55176944D01*
X47428135Y-55272182D01*
X47475754Y-55319801D01*
X47570992Y-55367420D01*
X47856706Y-55367420D01*
X47951944Y-55319801D01*
X47999563Y-55272182D01*
X47047182Y-54367420D02*
X46428135Y-54367420D01*
X46761468Y-54748373D01*
X46618611Y-54748373D01*
X46523373Y-54795992D01*
X46475754Y-54843611D01*
X46428135Y-54938849D01*
X46428135Y-55176944D01*
X46475754Y-55272182D01*
X46523373Y-55319801D01*
X46618611Y-55367420D01*
X46904325Y-55367420D01*
X46999563Y-55319801D01*
X47047182Y-55272182D01*
D13*
X47511468Y-56791230D02*
X47678135Y-56553135D01*
X47797182Y-56791230D02*
X47797182Y-56291230D01*
X47606706Y-56291230D01*
X47559087Y-56315040D01*
X47535278Y-56338849D01*
X47511468Y-56386468D01*
X47511468Y-56457897D01*
X47535278Y-56505516D01*
X47559087Y-56529325D01*
X47606706Y-56553135D01*
X47797182Y-56553135D01*
X47320992Y-56338849D02*
X47297182Y-56315040D01*
X47249563Y-56291230D01*
X47130516Y-56291230D01*
X47082897Y-56315040D01*
X47059087Y-56338849D01*
X47035278Y-56386468D01*
X47035278Y-56434087D01*
X47059087Y-56505516D01*
X47344801Y-56791230D01*
X47035278Y-56791230D01*
X46844801Y-56338849D02*
X46820992Y-56315040D01*
X46773373Y-56291230D01*
X46654325Y-56291230D01*
X46606706Y-56315040D01*
X46582897Y-56338849D01*
X46559087Y-56386468D01*
X46559087Y-56434087D01*
X46582897Y-56505516D01*
X46868611Y-56791230D01*
X46559087Y-56791230D01*
D12*
X48727420Y-36834563D02*
X49441706Y-36834563D01*
X49584563Y-36786944D01*
X49679801Y-36691706D01*
X49727420Y-36548849D01*
X49727420Y-36453611D01*
X49060754Y-37739325D02*
X49727420Y-37739325D01*
X49060754Y-37310754D02*
X49584563Y-37310754D01*
X49679801Y-37358373D01*
X49727420Y-37453611D01*
X49727420Y-37596468D01*
X49679801Y-37691706D01*
X49632182Y-37739325D01*
X49727420Y-38215516D02*
X49060754Y-38215516D01*
X49155992Y-38215516D02*
X49108373Y-38263135D01*
X49060754Y-38358373D01*
X49060754Y-38501230D01*
X49108373Y-38596468D01*
X49203611Y-38644087D01*
X49727420Y-38644087D01*
X49203611Y-38644087D02*
X49108373Y-38691706D01*
X49060754Y-38786944D01*
X49060754Y-38929801D01*
X49108373Y-39025040D01*
X49203611Y-39072659D01*
X49727420Y-39072659D01*
X49060754Y-39548849D02*
X50060754Y-39548849D01*
X49108373Y-39548849D02*
X49060754Y-39644087D01*
X49060754Y-39834563D01*
X49108373Y-39929801D01*
X49155992Y-39977420D01*
X49251230Y-40025040D01*
X49536944Y-40025040D01*
X49632182Y-39977420D01*
X49679801Y-39929801D01*
X49727420Y-39834563D01*
X49727420Y-39644087D01*
X49679801Y-39548849D01*
X49679801Y-40834563D02*
X49727420Y-40739325D01*
X49727420Y-40548849D01*
X49679801Y-40453611D01*
X49584563Y-40405992D01*
X49203611Y-40405992D01*
X49108373Y-40453611D01*
X49060754Y-40548849D01*
X49060754Y-40739325D01*
X49108373Y-40834563D01*
X49203611Y-40882182D01*
X49298849Y-40882182D01*
X49394087Y-40405992D01*
X49727420Y-41310754D02*
X49060754Y-41310754D01*
X49251230Y-41310754D02*
X49155992Y-41358373D01*
X49108373Y-41405992D01*
X49060754Y-41501230D01*
X49060754Y-41596468D01*
X49822659Y-41691706D02*
X49822659Y-42453611D01*
X48727420Y-42596468D02*
X48727420Y-43215516D01*
X49108373Y-42882182D01*
X49108373Y-43025040D01*
X49155992Y-43120278D01*
X49203611Y-43167897D01*
X49298849Y-43215516D01*
X49536944Y-43215516D01*
X49632182Y-43167897D01*
X49679801Y-43120278D01*
X49727420Y-43025040D01*
X49727420Y-42739325D01*
X49679801Y-42644087D01*
X49632182Y-42596468D01*
X49822659Y-43405992D02*
X49822659Y-44167897D01*
X49203611Y-44739325D02*
X49251230Y-44882182D01*
X49298849Y-44929801D01*
X49394087Y-44977420D01*
X49536944Y-44977420D01*
X49632182Y-44929801D01*
X49679801Y-44882182D01*
X49727420Y-44786944D01*
X49727420Y-44405992D01*
X48727420Y-44405992D01*
X48727420Y-44739325D01*
X48775040Y-44834563D01*
X48822659Y-44882182D01*
X48917897Y-44929801D01*
X49013135Y-44929801D01*
X49108373Y-44882182D01*
X49155992Y-44834563D01*
X49203611Y-44739325D01*
X49203611Y-44405992D01*
X49727420Y-45405992D02*
X49060754Y-45405992D01*
X49251230Y-45405992D02*
X49155992Y-45453611D01*
X49108373Y-45501230D01*
X49060754Y-45596468D01*
X49060754Y-45691706D01*
X49727420Y-46025040D02*
X49060754Y-46025040D01*
X48727420Y-46025040D02*
X48775040Y-45977420D01*
X48822659Y-46025040D01*
X48775040Y-46072659D01*
X48727420Y-46025040D01*
X48822659Y-46025040D01*
X49727420Y-46929801D02*
X48727420Y-46929801D01*
X49679801Y-46929801D02*
X49727420Y-46834563D01*
X49727420Y-46644087D01*
X49679801Y-46548849D01*
X49632182Y-46501230D01*
X49536944Y-46453611D01*
X49251230Y-46453611D01*
X49155992Y-46501230D01*
X49108373Y-46548849D01*
X49060754Y-46644087D01*
X49060754Y-46834563D01*
X49108373Y-46929801D01*
X49060754Y-47834563D02*
X49870278Y-47834563D01*
X49965516Y-47786944D01*
X50013135Y-47739325D01*
X50060754Y-47644087D01*
X50060754Y-47501230D01*
X50013135Y-47405992D01*
X49679801Y-47834563D02*
X49727420Y-47739325D01*
X49727420Y-47548849D01*
X49679801Y-47453611D01*
X49632182Y-47405992D01*
X49536944Y-47358373D01*
X49251230Y-47358373D01*
X49155992Y-47405992D01*
X49108373Y-47453611D01*
X49060754Y-47548849D01*
X49060754Y-47739325D01*
X49108373Y-47834563D01*
X49679801Y-48691706D02*
X49727420Y-48596468D01*
X49727420Y-48405992D01*
X49679801Y-48310754D01*
X49584563Y-48263135D01*
X49203611Y-48263135D01*
X49108373Y-48310754D01*
X49060754Y-48405992D01*
X49060754Y-48596468D01*
X49108373Y-48691706D01*
X49203611Y-48739325D01*
X49298849Y-48739325D01*
X49394087Y-48263135D01*
X49727420Y-49596468D02*
X48727420Y-49596468D01*
X49679801Y-49596468D02*
X49727420Y-49501230D01*
X49727420Y-49310754D01*
X49679801Y-49215516D01*
X49632182Y-49167897D01*
X49536944Y-49120278D01*
X49251230Y-49120278D01*
X49155992Y-49167897D01*
X49108373Y-49215516D01*
X49060754Y-49310754D01*
X49060754Y-49501230D01*
X49108373Y-49596468D01*
X49727420Y-50596468D02*
X49727420Y-50025040D01*
X49727420Y-50310754D02*
X48727420Y-50310754D01*
X48870278Y-50215516D01*
X48965516Y-50120278D01*
X49013135Y-50025040D01*
X48822659Y-50977420D02*
X48775040Y-51025040D01*
X48727420Y-51120278D01*
X48727420Y-51358373D01*
X48775040Y-51453611D01*
X48822659Y-51501230D01*
X48917897Y-51548849D01*
X49013135Y-51548849D01*
X49155992Y-51501230D01*
X49727420Y-50929801D01*
X49727420Y-51548849D01*
X32411382Y-41218711D02*
X31792335Y-41218711D01*
X32125668Y-41599664D01*
X31982811Y-41599664D01*
X31887573Y-41647283D01*
X31839954Y-41694902D01*
X31792335Y-41790140D01*
X31792335Y-42028235D01*
X31839954Y-42123473D01*
X31887573Y-42171092D01*
X31982811Y-42218711D01*
X32268525Y-42218711D01*
X32363763Y-42171092D01*
X32411382Y-42123473D01*
X31459001Y-41218711D02*
X30839954Y-41218711D01*
X31173287Y-41599664D01*
X31030430Y-41599664D01*
X30935192Y-41647283D01*
X30887573Y-41694902D01*
X30839954Y-41790140D01*
X30839954Y-42028235D01*
X30887573Y-42123473D01*
X30935192Y-42171092D01*
X31030430Y-42218711D01*
X31316144Y-42218711D01*
X31411382Y-42171092D01*
X31459001Y-42123473D01*
D13*
X31923287Y-43642521D02*
X32089954Y-43404426D01*
X32209001Y-43642521D02*
X32209001Y-43142521D01*
X32018525Y-43142521D01*
X31970906Y-43166331D01*
X31947097Y-43190140D01*
X31923287Y-43237759D01*
X31923287Y-43309188D01*
X31947097Y-43356807D01*
X31970906Y-43380616D01*
X32018525Y-43404426D01*
X32209001Y-43404426D01*
X31732811Y-43190140D02*
X31709001Y-43166331D01*
X31661382Y-43142521D01*
X31542335Y-43142521D01*
X31494716Y-43166331D01*
X31470906Y-43190140D01*
X31447097Y-43237759D01*
X31447097Y-43285378D01*
X31470906Y-43356807D01*
X31756620Y-43642521D01*
X31447097Y-43642521D01*
X30970906Y-43642521D02*
X31256620Y-43642521D01*
X31113763Y-43642521D02*
X31113763Y-43142521D01*
X31161382Y-43213950D01*
X31209001Y-43261569D01*
X31256620Y-43285378D01*
D12*
X32411382Y-43478711D02*
X31792335Y-43478711D01*
X32125668Y-43859664D01*
X31982811Y-43859664D01*
X31887573Y-43907283D01*
X31839954Y-43954902D01*
X31792335Y-44050140D01*
X31792335Y-44288235D01*
X31839954Y-44383473D01*
X31887573Y-44431092D01*
X31982811Y-44478711D01*
X32268525Y-44478711D01*
X32363763Y-44431092D01*
X32411382Y-44383473D01*
X31459001Y-43478711D02*
X30839954Y-43478711D01*
X31173287Y-43859664D01*
X31030430Y-43859664D01*
X30935192Y-43907283D01*
X30887573Y-43954902D01*
X30839954Y-44050140D01*
X30839954Y-44288235D01*
X30887573Y-44383473D01*
X30935192Y-44431092D01*
X31030430Y-44478711D01*
X31316144Y-44478711D01*
X31411382Y-44431092D01*
X31459001Y-44383473D01*
D13*
X31685192Y-45902521D02*
X31851859Y-45664426D01*
X31970906Y-45902521D02*
X31970906Y-45402521D01*
X31780430Y-45402521D01*
X31732811Y-45426331D01*
X31709001Y-45450140D01*
X31685192Y-45497759D01*
X31685192Y-45569188D01*
X31709001Y-45616807D01*
X31732811Y-45640616D01*
X31780430Y-45664426D01*
X31970906Y-45664426D01*
X31494716Y-45450140D02*
X31470906Y-45426331D01*
X31423287Y-45402521D01*
X31304239Y-45402521D01*
X31256620Y-45426331D01*
X31232811Y-45450140D01*
X31209001Y-45497759D01*
X31209001Y-45545378D01*
X31232811Y-45616807D01*
X31518525Y-45902521D01*
X31209001Y-45902521D01*
D12*
X27647420Y-39676230D02*
X28456944Y-39676230D01*
X28552182Y-39723849D01*
X28599801Y-39771468D01*
X28647420Y-39866706D01*
X28647420Y-40057182D01*
X28599801Y-40152420D01*
X28552182Y-40200040D01*
X28456944Y-40247659D01*
X27647420Y-40247659D01*
X28599801Y-40676230D02*
X28647420Y-40819087D01*
X28647420Y-41057182D01*
X28599801Y-41152420D01*
X28552182Y-41200040D01*
X28456944Y-41247659D01*
X28361706Y-41247659D01*
X28266468Y-41200040D01*
X28218849Y-41152420D01*
X28171230Y-41057182D01*
X28123611Y-40866706D01*
X28075992Y-40771468D01*
X28028373Y-40723849D01*
X27933135Y-40676230D01*
X27837897Y-40676230D01*
X27742659Y-40723849D01*
X27695040Y-40771468D01*
X27647420Y-40866706D01*
X27647420Y-41104801D01*
X27695040Y-41247659D01*
X28123611Y-42009563D02*
X28171230Y-42152420D01*
X28218849Y-42200040D01*
X28314087Y-42247659D01*
X28456944Y-42247659D01*
X28552182Y-42200040D01*
X28599801Y-42152420D01*
X28647420Y-42057182D01*
X28647420Y-41676230D01*
X27647420Y-41676230D01*
X27647420Y-42009563D01*
X27695040Y-42104801D01*
X27742659Y-42152420D01*
X27837897Y-42200040D01*
X27933135Y-42200040D01*
X28028373Y-42152420D01*
X28075992Y-42104801D01*
X28123611Y-42009563D01*
X28123611Y-41676230D01*
X28742659Y-42438135D02*
X28742659Y-43200040D01*
X28123611Y-43771468D02*
X28171230Y-43914325D01*
X28218849Y-43961944D01*
X28314087Y-44009563D01*
X28456944Y-44009563D01*
X28552182Y-43961944D01*
X28599801Y-43914325D01*
X28647420Y-43819087D01*
X28647420Y-43438135D01*
X27647420Y-43438135D01*
X27647420Y-43771468D01*
X27695040Y-43866706D01*
X27742659Y-43914325D01*
X27837897Y-43961944D01*
X27933135Y-43961944D01*
X28028373Y-43914325D01*
X28075992Y-43866706D01*
X28123611Y-43771468D01*
X28123611Y-43438135D01*
X28742659Y-44200040D02*
X28742659Y-44961944D01*
X28647420Y-45200040D02*
X27647420Y-45200040D01*
X28361706Y-45533373D01*
X27647420Y-45866706D01*
X28647420Y-45866706D01*
X28647420Y-46342897D02*
X27980754Y-46342897D01*
X27647420Y-46342897D02*
X27695040Y-46295278D01*
X27742659Y-46342897D01*
X27695040Y-46390516D01*
X27647420Y-46342897D01*
X27742659Y-46342897D01*
X28599801Y-47247659D02*
X28647420Y-47152420D01*
X28647420Y-46961944D01*
X28599801Y-46866706D01*
X28552182Y-46819087D01*
X28456944Y-46771468D01*
X28171230Y-46771468D01*
X28075992Y-46819087D01*
X28028373Y-46866706D01*
X27980754Y-46961944D01*
X27980754Y-47152420D01*
X28028373Y-47247659D01*
X28647420Y-47676230D02*
X27980754Y-47676230D01*
X28171230Y-47676230D02*
X28075992Y-47723849D01*
X28028373Y-47771468D01*
X27980754Y-47866706D01*
X27980754Y-47961944D01*
X28647420Y-48438135D02*
X28599801Y-48342897D01*
X28552182Y-48295278D01*
X28456944Y-48247659D01*
X28171230Y-48247659D01*
X28075992Y-48295278D01*
X28028373Y-48342897D01*
X27980754Y-48438135D01*
X27980754Y-48580992D01*
X28028373Y-48676230D01*
X28075992Y-48723849D01*
X28171230Y-48771468D01*
X28456944Y-48771468D01*
X28552182Y-48723849D01*
X28599801Y-48676230D01*
X28647420Y-48580992D01*
X28647420Y-48438135D01*
X64506610Y-55172078D02*
X64458991Y-55124459D01*
X64363753Y-55076839D01*
X64125658Y-55076839D01*
X64030419Y-55124459D01*
X63982800Y-55172078D01*
X63935181Y-55267316D01*
X63935181Y-55362554D01*
X63982800Y-55505411D01*
X64554229Y-56076839D01*
X63935181Y-56076839D01*
X63506610Y-55981601D02*
X63458991Y-56029220D01*
X63506610Y-56076839D01*
X63554229Y-56029220D01*
X63506610Y-55981601D01*
X63506610Y-56076839D01*
X62601848Y-55410173D02*
X62601848Y-56076839D01*
X62839943Y-55029220D02*
X63078038Y-55743506D01*
X62458991Y-55743506D01*
X62030419Y-56076839D02*
X61839943Y-56076839D01*
X61744705Y-56029220D01*
X61697086Y-55981601D01*
X61601848Y-55838744D01*
X61554229Y-55648268D01*
X61554229Y-55267316D01*
X61601848Y-55172078D01*
X61649467Y-55124459D01*
X61744705Y-55076839D01*
X61935181Y-55076839D01*
X62030419Y-55124459D01*
X62078038Y-55172078D01*
X62125658Y-55267316D01*
X62125658Y-55505411D01*
X62078038Y-55600649D01*
X62030419Y-55648268D01*
X61935181Y-55695887D01*
X61744705Y-55695887D01*
X61649467Y-55648268D01*
X61601848Y-55600649D01*
X61554229Y-55505411D01*
X61125658Y-56076839D02*
X61125658Y-55076839D01*
X61030419Y-55695887D02*
X60744705Y-56076839D01*
X60744705Y-55410173D02*
X61125658Y-55791125D01*
D13*
X62947086Y-54200649D02*
X63113753Y-53962554D01*
X63232800Y-54200649D02*
X63232800Y-53700649D01*
X63042324Y-53700649D01*
X62994705Y-53724459D01*
X62970896Y-53748268D01*
X62947086Y-53795887D01*
X62947086Y-53867316D01*
X62970896Y-53914935D01*
X62994705Y-53938744D01*
X63042324Y-53962554D01*
X63232800Y-53962554D01*
X62470896Y-54200649D02*
X62756610Y-54200649D01*
X62613753Y-54200649D02*
X62613753Y-53700649D01*
X62661372Y-53772078D01*
X62708991Y-53819697D01*
X62756610Y-53843506D01*
X62161372Y-53700649D02*
X62113753Y-53700649D01*
X62066134Y-53724459D01*
X62042324Y-53748268D01*
X62018515Y-53795887D01*
X61994705Y-53891125D01*
X61994705Y-54010173D01*
X62018515Y-54105411D01*
X62042324Y-54153030D01*
X62066134Y-54176839D01*
X62113753Y-54200649D01*
X62161372Y-54200649D01*
X62208991Y-54176839D01*
X62232800Y-54153030D01*
X62256610Y-54105411D01*
X62280419Y-54010173D01*
X62280419Y-53891125D01*
X62256610Y-53795887D01*
X62232800Y-53748268D01*
X62208991Y-53724459D01*
X62161372Y-53700649D01*
D12*
X64506610Y-52772078D02*
X64458991Y-52724459D01*
X64363753Y-52676839D01*
X64125658Y-52676839D01*
X64030419Y-52724459D01*
X63982800Y-52772078D01*
X63935181Y-52867316D01*
X63935181Y-52962554D01*
X63982800Y-53105411D01*
X64554229Y-53676839D01*
X63935181Y-53676839D01*
X63506610Y-53581601D02*
X63458991Y-53629220D01*
X63506610Y-53676839D01*
X63554229Y-53629220D01*
X63506610Y-53581601D01*
X63506610Y-53676839D01*
X62601848Y-53010173D02*
X62601848Y-53676839D01*
X62839943Y-52629220D02*
X63078038Y-53343506D01*
X62458991Y-53343506D01*
X62030419Y-53676839D02*
X61839943Y-53676839D01*
X61744705Y-53629220D01*
X61697086Y-53581601D01*
X61601848Y-53438744D01*
X61554229Y-53248268D01*
X61554229Y-52867316D01*
X61601848Y-52772078D01*
X61649467Y-52724459D01*
X61744705Y-52676839D01*
X61935181Y-52676839D01*
X62030419Y-52724459D01*
X62078038Y-52772078D01*
X62125658Y-52867316D01*
X62125658Y-53105411D01*
X62078038Y-53200649D01*
X62030419Y-53248268D01*
X61935181Y-53295887D01*
X61744705Y-53295887D01*
X61649467Y-53248268D01*
X61601848Y-53200649D01*
X61554229Y-53105411D01*
X61125658Y-53676839D02*
X61125658Y-52676839D01*
X61030419Y-53295887D02*
X60744705Y-53676839D01*
X60744705Y-53010173D02*
X61125658Y-53391125D01*
D13*
X62708991Y-51800649D02*
X62875658Y-51562554D01*
X62994705Y-51800649D02*
X62994705Y-51300649D01*
X62804229Y-51300649D01*
X62756610Y-51324459D01*
X62732800Y-51348268D01*
X62708991Y-51395887D01*
X62708991Y-51467316D01*
X62732800Y-51514935D01*
X62756610Y-51538744D01*
X62804229Y-51562554D01*
X62994705Y-51562554D01*
X62256610Y-51300649D02*
X62494705Y-51300649D01*
X62518515Y-51538744D01*
X62494705Y-51514935D01*
X62447086Y-51491125D01*
X62328038Y-51491125D01*
X62280419Y-51514935D01*
X62256610Y-51538744D01*
X62232800Y-51586363D01*
X62232800Y-51705411D01*
X62256610Y-51753030D01*
X62280419Y-51776839D01*
X62328038Y-51800649D01*
X62447086Y-51800649D01*
X62494705Y-51776839D01*
X62518515Y-51753030D01*
M02*
