G04 #@! TF.GenerationSoftware,KiCad,Pcbnew,(5.99.0-97-g37fac7a8f)*
G04 #@! TF.CreationDate,2019-12-11T21:19:42+01:00*
G04 #@! TF.ProjectId,canbox,63616e62-6f78-42e6-9b69-6361645f7063,rev?*
G04 #@! TF.SameCoordinates,Original*
G04 #@! TF.FileFunction,Copper,L4,Bot*
G04 #@! TF.FilePolarity,Positive*
%FSLAX46Y46*%
G04 Gerber Fmt 4.6, Leading zero omitted, Abs format (unit mm)*
G04 Created by KiCad (PCBNEW (5.99.0-97-g37fac7a8f)) date 2019-12-11 21:19:42*
%MOMM*%
%LPD*%
G04 APERTURE LIST*
%ADD10R,1.500000X1.500000*%
%ADD11O,1.700000X1.700000*%
%ADD12R,1.700000X1.700000*%
%ADD13C,0.100000*%
%ADD14C,1.150000*%
%ADD15C,1.250000*%
%ADD16C,2.532420*%
%ADD17R,1.524000X1.524000*%
%ADD18R,1.500000X1.000000*%
%ADD19R,0.740000X2.400000*%
%ADD20C,1.500000*%
%ADD21R,2.350000X2.350000*%
%ADD22R,0.600000X1.550000*%
%ADD23C,4.000000*%
%ADD24C,1.600000*%
%ADD25R,1.600000X1.600000*%
%ADD26C,2.200000*%
%ADD27R,2.200000X2.200000*%
%ADD28R,1.550000X0.600000*%
%ADD29C,0.950000*%
%ADD30O,1.524000X1.200000*%
%ADD31C,0.800000*%
%ADD32R,2.500000X4.600000*%
%ADD33C,0.146812*%
%ADD34C,1.000000*%
%ADD35C,2.000000*%
%ADD36C,0.500000*%
%ADD37C,0.254000*%
G04 APERTURE END LIST*
D10*
X38834060Y-28628340D03*
X44181040Y-41784040D03*
D11*
X54105040Y-22405040D03*
D12*
X56645040Y-22405040D03*
D10*
X54435040Y-29895040D03*
D13*
G36*
X40785711Y-22754070D02*
G01*
X40866817Y-22808263D01*
X40921010Y-22889369D01*
X40940040Y-22985039D01*
X40940040Y-23885041D01*
X40921010Y-23980711D01*
X40866817Y-24061817D01*
X40785711Y-24116010D01*
X40690041Y-24135040D01*
X40040039Y-24135040D01*
X39944369Y-24116010D01*
X39863263Y-24061817D01*
X39809070Y-23980711D01*
X39790040Y-23885041D01*
X39790040Y-22985039D01*
X39809070Y-22889369D01*
X39863263Y-22808263D01*
X39944369Y-22754070D01*
X40040039Y-22735040D01*
X40690041Y-22735040D01*
X40785711Y-22754070D01*
X40785711Y-22754070D01*
G37*
D14*
X40365040Y-23435040D03*
D13*
G36*
X42835711Y-22754070D02*
G01*
X42916817Y-22808263D01*
X42971010Y-22889369D01*
X42990040Y-22985039D01*
X42990040Y-23885041D01*
X42971010Y-23980711D01*
X42916817Y-24061817D01*
X42835711Y-24116010D01*
X42740041Y-24135040D01*
X42090039Y-24135040D01*
X41994369Y-24116010D01*
X41913263Y-24061817D01*
X41859070Y-23980711D01*
X41840040Y-23885041D01*
X41840040Y-22985039D01*
X41859070Y-22889369D01*
X41913263Y-22808263D01*
X41994369Y-22754070D01*
X42090039Y-22735040D01*
X42740041Y-22735040D01*
X42835711Y-22754070D01*
X42835711Y-22754070D01*
G37*
D14*
X42415040Y-23435040D03*
D11*
X59165040Y-42095040D03*
D12*
X59165040Y-39555040D03*
D13*
G36*
X31785711Y-48029070D02*
G01*
X31866817Y-48083263D01*
X31921010Y-48164369D01*
X31940040Y-48260040D01*
X31940040Y-50410040D01*
X31921010Y-50505711D01*
X31866817Y-50586817D01*
X31785711Y-50641010D01*
X31690040Y-50660040D01*
X30940040Y-50660040D01*
X30844369Y-50641010D01*
X30763263Y-50586817D01*
X30709070Y-50505711D01*
X30690040Y-50410040D01*
X30690040Y-48260040D01*
X30709070Y-48164369D01*
X30763263Y-48083263D01*
X30844369Y-48029070D01*
X30940040Y-48010040D01*
X31690040Y-48010040D01*
X31785711Y-48029070D01*
X31785711Y-48029070D01*
G37*
D15*
X31315040Y-49335040D03*
D13*
G36*
X28985711Y-48029070D02*
G01*
X29066817Y-48083263D01*
X29121010Y-48164369D01*
X29140040Y-48260040D01*
X29140040Y-50410040D01*
X29121010Y-50505711D01*
X29066817Y-50586817D01*
X28985711Y-50641010D01*
X28890040Y-50660040D01*
X28140040Y-50660040D01*
X28044369Y-50641010D01*
X27963263Y-50586817D01*
X27909070Y-50505711D01*
X27890040Y-50410040D01*
X27890040Y-48260040D01*
X27909070Y-48164369D01*
X27963263Y-48083263D01*
X28044369Y-48029070D01*
X28140040Y-48010040D01*
X28890040Y-48010040D01*
X28985711Y-48029070D01*
X28985711Y-48029070D01*
G37*
D15*
X28515040Y-49335040D03*
D16*
X50657760Y-55298340D03*
D13*
G36*
X52807760Y-53498340D02*
G01*
X52807760Y-57098340D01*
X48507760Y-56098340D01*
X48507760Y-54498340D01*
X52807760Y-53498340D01*
X52807760Y-53498340D01*
G37*
D16*
X44257760Y-55298340D03*
D13*
G36*
X42107760Y-57098340D02*
G01*
X42107760Y-53498340D01*
X46407760Y-54498340D01*
X46407760Y-56098340D01*
X42107760Y-57098340D01*
X42107760Y-57098340D01*
G37*
D10*
X68535040Y-59765040D03*
X51765040Y-29765040D03*
D17*
X41758661Y-40065858D03*
X41758661Y-43265858D03*
X46258661Y-43265858D03*
X46258661Y-40065858D03*
D13*
G36*
X35530529Y-49040499D02*
G01*
X35611635Y-49094692D01*
X35665828Y-49175798D01*
X35684858Y-49271468D01*
X35684858Y-50171470D01*
X35665828Y-50267140D01*
X35611635Y-50348246D01*
X35530529Y-50402439D01*
X35434859Y-50421469D01*
X34784857Y-50421469D01*
X34689187Y-50402439D01*
X34608081Y-50348246D01*
X34553888Y-50267140D01*
X34534858Y-50171470D01*
X34534858Y-49271468D01*
X34553888Y-49175798D01*
X34608081Y-49094692D01*
X34689187Y-49040499D01*
X34784857Y-49021469D01*
X35434859Y-49021469D01*
X35530529Y-49040499D01*
X35530529Y-49040499D01*
G37*
D14*
X35109858Y-49721469D03*
D13*
G36*
X37580529Y-49040499D02*
G01*
X37661635Y-49094692D01*
X37715828Y-49175798D01*
X37734858Y-49271468D01*
X37734858Y-50171470D01*
X37715828Y-50267140D01*
X37661635Y-50348246D01*
X37580529Y-50402439D01*
X37484859Y-50421469D01*
X36834857Y-50421469D01*
X36739187Y-50402439D01*
X36658081Y-50348246D01*
X36603888Y-50267140D01*
X36584858Y-50171470D01*
X36584858Y-49271468D01*
X36603888Y-49175798D01*
X36658081Y-49094692D01*
X36739187Y-49040499D01*
X36834857Y-49021469D01*
X37484859Y-49021469D01*
X37580529Y-49040499D01*
X37580529Y-49040499D01*
G37*
D14*
X37159858Y-49721469D03*
D18*
X53858661Y-43815858D03*
X53858661Y-45115858D03*
D13*
G36*
X42105711Y-28094070D02*
G01*
X42186817Y-28148263D01*
X42241010Y-28229369D01*
X42260040Y-28325039D01*
X42260040Y-29225041D01*
X42241010Y-29320711D01*
X42186817Y-29401817D01*
X42105711Y-29456010D01*
X42010041Y-29475040D01*
X41360039Y-29475040D01*
X41264369Y-29456010D01*
X41183263Y-29401817D01*
X41129070Y-29320711D01*
X41110040Y-29225041D01*
X41110040Y-28325039D01*
X41129070Y-28229369D01*
X41183263Y-28148263D01*
X41264369Y-28094070D01*
X41360039Y-28075040D01*
X42010041Y-28075040D01*
X42105711Y-28094070D01*
X42105711Y-28094070D01*
G37*
D14*
X41685040Y-28775040D03*
D13*
G36*
X44155711Y-28094070D02*
G01*
X44236817Y-28148263D01*
X44291010Y-28229369D01*
X44310040Y-28325039D01*
X44310040Y-29225041D01*
X44291010Y-29320711D01*
X44236817Y-29401817D01*
X44155711Y-29456010D01*
X44060041Y-29475040D01*
X43410039Y-29475040D01*
X43314369Y-29456010D01*
X43233263Y-29401817D01*
X43179070Y-29320711D01*
X43160040Y-29225041D01*
X43160040Y-28325039D01*
X43179070Y-28229369D01*
X43233263Y-28148263D01*
X43314369Y-28094070D01*
X43410039Y-28075040D01*
X44060041Y-28075040D01*
X44155711Y-28094070D01*
X44155711Y-28094070D01*
G37*
D14*
X43735040Y-28775040D03*
D13*
G36*
X38805711Y-24547868D02*
G01*
X38886817Y-24602061D01*
X38941010Y-24683167D01*
X38960040Y-24778837D01*
X38960040Y-25678839D01*
X38941010Y-25774509D01*
X38886817Y-25855615D01*
X38805711Y-25909808D01*
X38710041Y-25928838D01*
X38060039Y-25928838D01*
X37964369Y-25909808D01*
X37883263Y-25855615D01*
X37829070Y-25774509D01*
X37810040Y-25678839D01*
X37810040Y-24778837D01*
X37829070Y-24683167D01*
X37883263Y-24602061D01*
X37964369Y-24547868D01*
X38060039Y-24528838D01*
X38710041Y-24528838D01*
X38805711Y-24547868D01*
X38805711Y-24547868D01*
G37*
D14*
X38385040Y-25228838D03*
D13*
G36*
X36755711Y-24547868D02*
G01*
X36836817Y-24602061D01*
X36891010Y-24683167D01*
X36910040Y-24778837D01*
X36910040Y-25678839D01*
X36891010Y-25774509D01*
X36836817Y-25855615D01*
X36755711Y-25909808D01*
X36660041Y-25928838D01*
X36010039Y-25928838D01*
X35914369Y-25909808D01*
X35833263Y-25855615D01*
X35779070Y-25774509D01*
X35760040Y-25678839D01*
X35760040Y-24778837D01*
X35779070Y-24683167D01*
X35833263Y-24602061D01*
X35914369Y-24547868D01*
X36010039Y-24528838D01*
X36660041Y-24528838D01*
X36755711Y-24547868D01*
X36755711Y-24547868D01*
G37*
D14*
X36335040Y-25228838D03*
D13*
G36*
X42195711Y-30354070D02*
G01*
X42276817Y-30408263D01*
X42331010Y-30489369D01*
X42350040Y-30585039D01*
X42350040Y-31485041D01*
X42331010Y-31580711D01*
X42276817Y-31661817D01*
X42195711Y-31716010D01*
X42100041Y-31735040D01*
X41450039Y-31735040D01*
X41354369Y-31716010D01*
X41273263Y-31661817D01*
X41219070Y-31580711D01*
X41200040Y-31485041D01*
X41200040Y-30585039D01*
X41219070Y-30489369D01*
X41273263Y-30408263D01*
X41354369Y-30354070D01*
X41450039Y-30335040D01*
X42100041Y-30335040D01*
X42195711Y-30354070D01*
X42195711Y-30354070D01*
G37*
D14*
X41775040Y-31035040D03*
D13*
G36*
X44245711Y-30354070D02*
G01*
X44326817Y-30408263D01*
X44381010Y-30489369D01*
X44400040Y-30585039D01*
X44400040Y-31485041D01*
X44381010Y-31580711D01*
X44326817Y-31661817D01*
X44245711Y-31716010D01*
X44150041Y-31735040D01*
X43500039Y-31735040D01*
X43404369Y-31716010D01*
X43323263Y-31661817D01*
X43269070Y-31580711D01*
X43250040Y-31485041D01*
X43250040Y-30585039D01*
X43269070Y-30489369D01*
X43323263Y-30408263D01*
X43404369Y-30354070D01*
X43500039Y-30335040D01*
X44150041Y-30335040D01*
X44245711Y-30354070D01*
X44245711Y-30354070D01*
G37*
D14*
X43825040Y-31035040D03*
D18*
X53858661Y-37815858D03*
X53858661Y-39115858D03*
D13*
G36*
X36079332Y-36784888D02*
G01*
X36160438Y-36839081D01*
X36214631Y-36920187D01*
X36233661Y-37015857D01*
X36233661Y-37915859D01*
X36214631Y-38011529D01*
X36160438Y-38092635D01*
X36079332Y-38146828D01*
X35983662Y-38165858D01*
X35333660Y-38165858D01*
X35237990Y-38146828D01*
X35156884Y-38092635D01*
X35102691Y-38011529D01*
X35083661Y-37915859D01*
X35083661Y-37015857D01*
X35102691Y-36920187D01*
X35156884Y-36839081D01*
X35237990Y-36784888D01*
X35333660Y-36765858D01*
X35983662Y-36765858D01*
X36079332Y-36784888D01*
X36079332Y-36784888D01*
G37*
D14*
X35658661Y-37465858D03*
D13*
G36*
X34029332Y-36784888D02*
G01*
X34110438Y-36839081D01*
X34164631Y-36920187D01*
X34183661Y-37015857D01*
X34183661Y-37915859D01*
X34164631Y-38011529D01*
X34110438Y-38092635D01*
X34029332Y-38146828D01*
X33933662Y-38165858D01*
X33283660Y-38165858D01*
X33187990Y-38146828D01*
X33106884Y-38092635D01*
X33052691Y-38011529D01*
X33033661Y-37915859D01*
X33033661Y-37015857D01*
X33052691Y-36920187D01*
X33106884Y-36839081D01*
X33187990Y-36784888D01*
X33283660Y-36765858D01*
X33933662Y-36765858D01*
X34029332Y-36784888D01*
X34029332Y-36784888D01*
G37*
D14*
X33608661Y-37465858D03*
D19*
X64605040Y-62525040D03*
X64605040Y-58625040D03*
X63335040Y-62525040D03*
X63335040Y-58625040D03*
X62065040Y-62525040D03*
X62065040Y-58625040D03*
X60795040Y-62525040D03*
X60795040Y-58625040D03*
X59525040Y-62525040D03*
X59525040Y-58625040D03*
D13*
G36*
X56255711Y-59000978D02*
G01*
X56336817Y-59055171D01*
X56391010Y-59136277D01*
X56410040Y-59231948D01*
X56410040Y-60231948D01*
X56391010Y-60327619D01*
X56336817Y-60408725D01*
X56255711Y-60462918D01*
X56160040Y-60481948D01*
X54310040Y-60481948D01*
X54214369Y-60462918D01*
X54133263Y-60408725D01*
X54079070Y-60327619D01*
X54060040Y-60231948D01*
X54060040Y-59231948D01*
X54079070Y-59136277D01*
X54133263Y-59055171D01*
X54214369Y-59000978D01*
X54310040Y-58981948D01*
X56160040Y-58981948D01*
X56255711Y-59000978D01*
X56255711Y-59000978D01*
G37*
D20*
X55235040Y-59731948D03*
D13*
G36*
X56255711Y-62250978D02*
G01*
X56336817Y-62305171D01*
X56391010Y-62386277D01*
X56410040Y-62481948D01*
X56410040Y-63481948D01*
X56391010Y-63577619D01*
X56336817Y-63658725D01*
X56255711Y-63712918D01*
X56160040Y-63731948D01*
X54310040Y-63731948D01*
X54214369Y-63712918D01*
X54133263Y-63658725D01*
X54079070Y-63577619D01*
X54060040Y-63481948D01*
X54060040Y-62481948D01*
X54079070Y-62386277D01*
X54133263Y-62305171D01*
X54214369Y-62250978D01*
X54310040Y-62231948D01*
X56160040Y-62231948D01*
X56255711Y-62250978D01*
X56255711Y-62250978D01*
G37*
D20*
X55235040Y-62981948D03*
D21*
X35311058Y-59082229D03*
D22*
X37216058Y-56382229D03*
X35946058Y-56382229D03*
X34676058Y-56382229D03*
X33406058Y-56382229D03*
X33406058Y-61782229D03*
X34676058Y-61782229D03*
X35946058Y-61782229D03*
X37216058Y-61782229D03*
D23*
X66155040Y-29035040D03*
X66155040Y-54035040D03*
D24*
X67575040Y-45690040D03*
X67575040Y-42920040D03*
X67575040Y-40150040D03*
X67575040Y-37380040D03*
X64735040Y-47075040D03*
X64735040Y-44305040D03*
X64735040Y-41535040D03*
X64735040Y-38765040D03*
D25*
X64735040Y-35995040D03*
D26*
X24325040Y-34135040D03*
D27*
X24325040Y-31595040D03*
D13*
G36*
X36441729Y-64176259D02*
G01*
X36522835Y-64230452D01*
X36577028Y-64311558D01*
X36596058Y-64407228D01*
X36596058Y-65057230D01*
X36577028Y-65152900D01*
X36522835Y-65234006D01*
X36441729Y-65288199D01*
X36346059Y-65307229D01*
X35446057Y-65307229D01*
X35350387Y-65288199D01*
X35269281Y-65234006D01*
X35215088Y-65152900D01*
X35196058Y-65057230D01*
X35196058Y-64407228D01*
X35215088Y-64311558D01*
X35269281Y-64230452D01*
X35350387Y-64176259D01*
X35446057Y-64157229D01*
X36346059Y-64157229D01*
X36441729Y-64176259D01*
X36441729Y-64176259D01*
G37*
D14*
X35896058Y-64732229D03*
D13*
G36*
X36441729Y-66226259D02*
G01*
X36522835Y-66280452D01*
X36577028Y-66361558D01*
X36596058Y-66457228D01*
X36596058Y-67107230D01*
X36577028Y-67202900D01*
X36522835Y-67284006D01*
X36441729Y-67338199D01*
X36346059Y-67357229D01*
X35446057Y-67357229D01*
X35350387Y-67338199D01*
X35269281Y-67284006D01*
X35215088Y-67202900D01*
X35196058Y-67107230D01*
X35196058Y-66457228D01*
X35215088Y-66361558D01*
X35269281Y-66280452D01*
X35350387Y-66226259D01*
X35446057Y-66207229D01*
X36346059Y-66207229D01*
X36441729Y-66226259D01*
X36441729Y-66226259D01*
G37*
D14*
X35896058Y-66782229D03*
D13*
G36*
X38780711Y-65869070D02*
G01*
X38861817Y-65923263D01*
X38916010Y-66004369D01*
X38935040Y-66100039D01*
X38935040Y-66750041D01*
X38916010Y-66845711D01*
X38861817Y-66926817D01*
X38780711Y-66981010D01*
X38685041Y-67000040D01*
X37785039Y-67000040D01*
X37689369Y-66981010D01*
X37608263Y-66926817D01*
X37554070Y-66845711D01*
X37535040Y-66750041D01*
X37535040Y-66100039D01*
X37554070Y-66004369D01*
X37608263Y-65923263D01*
X37689369Y-65869070D01*
X37785039Y-65850040D01*
X38685041Y-65850040D01*
X38780711Y-65869070D01*
X38780711Y-65869070D01*
G37*
D14*
X38235040Y-66425040D03*
D13*
G36*
X38780711Y-67919070D02*
G01*
X38861817Y-67973263D01*
X38916010Y-68054369D01*
X38935040Y-68150039D01*
X38935040Y-68800041D01*
X38916010Y-68895711D01*
X38861817Y-68976817D01*
X38780711Y-69031010D01*
X38685041Y-69050040D01*
X37785039Y-69050040D01*
X37689369Y-69031010D01*
X37608263Y-68976817D01*
X37554070Y-68895711D01*
X37535040Y-68800041D01*
X37535040Y-68150039D01*
X37554070Y-68054369D01*
X37608263Y-67973263D01*
X37689369Y-67919070D01*
X37785039Y-67900040D01*
X38685041Y-67900040D01*
X38780711Y-67919070D01*
X38780711Y-67919070D01*
G37*
D14*
X38235040Y-68475040D03*
D11*
X44005040Y-68095040D03*
X46545040Y-68095040D03*
X49085040Y-68095040D03*
X51625040Y-68095040D03*
X54165040Y-68095040D03*
X56705040Y-68095040D03*
X59245040Y-68095040D03*
D12*
X61785040Y-68095040D03*
D28*
X37358661Y-43570858D03*
X37358661Y-42300858D03*
X37358661Y-41030858D03*
X37358661Y-39760858D03*
X31958661Y-39760858D03*
X31958661Y-41030858D03*
X31958661Y-42300858D03*
X31958661Y-43570858D03*
D10*
X28071040Y-22697040D03*
X26978040Y-61041040D03*
D13*
G36*
X51279332Y-42784888D02*
G01*
X51360438Y-42839081D01*
X51414631Y-42920187D01*
X51433661Y-43015857D01*
X51433661Y-43915859D01*
X51414631Y-44011529D01*
X51360438Y-44092635D01*
X51279332Y-44146828D01*
X51183662Y-44165858D01*
X50533660Y-44165858D01*
X50437990Y-44146828D01*
X50356884Y-44092635D01*
X50302691Y-44011529D01*
X50283661Y-43915859D01*
X50283661Y-43015857D01*
X50302691Y-42920187D01*
X50356884Y-42839081D01*
X50437990Y-42784888D01*
X50533660Y-42765858D01*
X51183662Y-42765858D01*
X51279332Y-42784888D01*
X51279332Y-42784888D01*
G37*
D14*
X50858661Y-43465858D03*
D13*
G36*
X49229332Y-42784888D02*
G01*
X49310438Y-42839081D01*
X49364631Y-42920187D01*
X49383661Y-43015857D01*
X49383661Y-43915859D01*
X49364631Y-44011529D01*
X49310438Y-44092635D01*
X49229332Y-44146828D01*
X49133662Y-44165858D01*
X48483660Y-44165858D01*
X48387990Y-44146828D01*
X48306884Y-44092635D01*
X48252691Y-44011529D01*
X48233661Y-43915859D01*
X48233661Y-43015857D01*
X48252691Y-42920187D01*
X48306884Y-42839081D01*
X48387990Y-42784888D01*
X48483660Y-42765858D01*
X49133662Y-42765858D01*
X49229332Y-42784888D01*
X49229332Y-42784888D01*
G37*
D14*
X48808661Y-43465858D03*
D13*
G36*
X51279332Y-39384888D02*
G01*
X51360438Y-39439081D01*
X51414631Y-39520187D01*
X51433661Y-39615857D01*
X51433661Y-40515859D01*
X51414631Y-40611529D01*
X51360438Y-40692635D01*
X51279332Y-40746828D01*
X51183662Y-40765858D01*
X50533660Y-40765858D01*
X50437990Y-40746828D01*
X50356884Y-40692635D01*
X50302691Y-40611529D01*
X50283661Y-40515859D01*
X50283661Y-39615857D01*
X50302691Y-39520187D01*
X50356884Y-39439081D01*
X50437990Y-39384888D01*
X50533660Y-39365858D01*
X51183662Y-39365858D01*
X51279332Y-39384888D01*
X51279332Y-39384888D01*
G37*
D14*
X50858661Y-40065858D03*
D13*
G36*
X49229332Y-39384888D02*
G01*
X49310438Y-39439081D01*
X49364631Y-39520187D01*
X49383661Y-39615857D01*
X49383661Y-40515859D01*
X49364631Y-40611529D01*
X49310438Y-40692635D01*
X49229332Y-40746828D01*
X49133662Y-40765858D01*
X48483660Y-40765858D01*
X48387990Y-40746828D01*
X48306884Y-40692635D01*
X48252691Y-40611529D01*
X48233661Y-40515859D01*
X48233661Y-39615857D01*
X48252691Y-39520187D01*
X48306884Y-39439081D01*
X48387990Y-39384888D01*
X48483660Y-39365858D01*
X49133662Y-39365858D01*
X49229332Y-39384888D01*
X49229332Y-39384888D01*
G37*
D14*
X48808661Y-40065858D03*
D13*
G36*
X31936729Y-59276259D02*
G01*
X32017835Y-59330452D01*
X32072028Y-59411558D01*
X32091058Y-59507228D01*
X32091058Y-60157230D01*
X32072028Y-60252900D01*
X32017835Y-60334006D01*
X31936729Y-60388199D01*
X31841059Y-60407229D01*
X30941057Y-60407229D01*
X30845387Y-60388199D01*
X30764281Y-60334006D01*
X30710088Y-60252900D01*
X30691058Y-60157230D01*
X30691058Y-59507228D01*
X30710088Y-59411558D01*
X30764281Y-59330452D01*
X30845387Y-59276259D01*
X30941057Y-59257229D01*
X31841059Y-59257229D01*
X31936729Y-59276259D01*
X31936729Y-59276259D01*
G37*
D14*
X31391058Y-59832229D03*
D13*
G36*
X31936729Y-61326259D02*
G01*
X32017835Y-61380452D01*
X32072028Y-61461558D01*
X32091058Y-61557228D01*
X32091058Y-62207230D01*
X32072028Y-62302900D01*
X32017835Y-62384006D01*
X31936729Y-62438199D01*
X31841059Y-62457229D01*
X30941057Y-62457229D01*
X30845387Y-62438199D01*
X30764281Y-62384006D01*
X30710088Y-62302900D01*
X30691058Y-62207230D01*
X30691058Y-61557228D01*
X30710088Y-61461558D01*
X30764281Y-61380452D01*
X30845387Y-61326259D01*
X30941057Y-61307229D01*
X31841059Y-61307229D01*
X31936729Y-61326259D01*
X31936729Y-61326259D01*
G37*
D14*
X31391058Y-61882229D03*
D13*
G36*
X31956729Y-63361259D02*
G01*
X32037835Y-63415452D01*
X32092028Y-63496558D01*
X32111058Y-63592228D01*
X32111058Y-64242230D01*
X32092028Y-64337900D01*
X32037835Y-64419006D01*
X31956729Y-64473199D01*
X31861059Y-64492229D01*
X30961057Y-64492229D01*
X30865387Y-64473199D01*
X30784281Y-64419006D01*
X30730088Y-64337900D01*
X30711058Y-64242230D01*
X30711058Y-63592228D01*
X30730088Y-63496558D01*
X30784281Y-63415452D01*
X30865387Y-63361259D01*
X30961057Y-63342229D01*
X31861059Y-63342229D01*
X31956729Y-63361259D01*
X31956729Y-63361259D01*
G37*
D14*
X31411058Y-63917229D03*
D13*
G36*
X31956729Y-65411259D02*
G01*
X32037835Y-65465452D01*
X32092028Y-65546558D01*
X32111058Y-65642228D01*
X32111058Y-66292230D01*
X32092028Y-66387900D01*
X32037835Y-66469006D01*
X31956729Y-66523199D01*
X31861059Y-66542229D01*
X30961057Y-66542229D01*
X30865387Y-66523199D01*
X30784281Y-66469006D01*
X30730088Y-66387900D01*
X30711058Y-66292230D01*
X30711058Y-65642228D01*
X30730088Y-65546558D01*
X30784281Y-65465452D01*
X30865387Y-65411259D01*
X30961057Y-65392229D01*
X31861059Y-65392229D01*
X31956729Y-65411259D01*
X31956729Y-65411259D01*
G37*
D14*
X31411058Y-65967229D03*
D13*
G36*
X32746729Y-52571259D02*
G01*
X32827835Y-52625452D01*
X32882028Y-52706558D01*
X32901058Y-52802228D01*
X32901058Y-53702230D01*
X32882028Y-53797900D01*
X32827835Y-53879006D01*
X32746729Y-53933199D01*
X32651059Y-53952229D01*
X32001057Y-53952229D01*
X31905387Y-53933199D01*
X31824281Y-53879006D01*
X31770088Y-53797900D01*
X31751058Y-53702230D01*
X31751058Y-52802228D01*
X31770088Y-52706558D01*
X31824281Y-52625452D01*
X31905387Y-52571259D01*
X32001057Y-52552229D01*
X32651059Y-52552229D01*
X32746729Y-52571259D01*
X32746729Y-52571259D01*
G37*
D14*
X32326058Y-53252229D03*
D13*
G36*
X34796729Y-52571259D02*
G01*
X34877835Y-52625452D01*
X34932028Y-52706558D01*
X34951058Y-52802228D01*
X34951058Y-53702230D01*
X34932028Y-53797900D01*
X34877835Y-53879006D01*
X34796729Y-53933199D01*
X34701059Y-53952229D01*
X34051057Y-53952229D01*
X33955387Y-53933199D01*
X33874281Y-53879006D01*
X33820088Y-53797900D01*
X33801058Y-53702230D01*
X33801058Y-52802228D01*
X33820088Y-52706558D01*
X33874281Y-52625452D01*
X33955387Y-52571259D01*
X34051057Y-52552229D01*
X34701059Y-52552229D01*
X34796729Y-52571259D01*
X34796729Y-52571259D01*
G37*
D14*
X34376058Y-53252229D03*
D13*
G36*
X51304332Y-36984888D02*
G01*
X51385438Y-37039081D01*
X51439631Y-37120187D01*
X51458661Y-37215857D01*
X51458661Y-38115859D01*
X51439631Y-38211529D01*
X51385438Y-38292635D01*
X51304332Y-38346828D01*
X51208662Y-38365858D01*
X50558660Y-38365858D01*
X50462990Y-38346828D01*
X50381884Y-38292635D01*
X50327691Y-38211529D01*
X50308661Y-38115859D01*
X50308661Y-37215857D01*
X50327691Y-37120187D01*
X50381884Y-37039081D01*
X50462990Y-36984888D01*
X50558660Y-36965858D01*
X51208662Y-36965858D01*
X51304332Y-36984888D01*
X51304332Y-36984888D01*
G37*
D14*
X50883661Y-37665858D03*
D13*
G36*
X49254332Y-36984888D02*
G01*
X49335438Y-37039081D01*
X49389631Y-37120187D01*
X49408661Y-37215857D01*
X49408661Y-38115859D01*
X49389631Y-38211529D01*
X49335438Y-38292635D01*
X49254332Y-38346828D01*
X49158662Y-38365858D01*
X48508660Y-38365858D01*
X48412990Y-38346828D01*
X48331884Y-38292635D01*
X48277691Y-38211529D01*
X48258661Y-38115859D01*
X48258661Y-37215857D01*
X48277691Y-37120187D01*
X48331884Y-37039081D01*
X48412990Y-36984888D01*
X48508660Y-36965858D01*
X49158662Y-36965858D01*
X49254332Y-36984888D01*
X49254332Y-36984888D01*
G37*
D14*
X48833661Y-37665858D03*
D13*
G36*
X51279332Y-45184888D02*
G01*
X51360438Y-45239081D01*
X51414631Y-45320187D01*
X51433661Y-45415857D01*
X51433661Y-46315859D01*
X51414631Y-46411529D01*
X51360438Y-46492635D01*
X51279332Y-46546828D01*
X51183662Y-46565858D01*
X50533660Y-46565858D01*
X50437990Y-46546828D01*
X50356884Y-46492635D01*
X50302691Y-46411529D01*
X50283661Y-46315859D01*
X50283661Y-45415857D01*
X50302691Y-45320187D01*
X50356884Y-45239081D01*
X50437990Y-45184888D01*
X50533660Y-45165858D01*
X51183662Y-45165858D01*
X51279332Y-45184888D01*
X51279332Y-45184888D01*
G37*
D14*
X50858661Y-45865858D03*
D13*
G36*
X49229332Y-45184888D02*
G01*
X49310438Y-45239081D01*
X49364631Y-45320187D01*
X49383661Y-45415857D01*
X49383661Y-46315859D01*
X49364631Y-46411529D01*
X49310438Y-46492635D01*
X49229332Y-46546828D01*
X49133662Y-46565858D01*
X48483660Y-46565858D01*
X48387990Y-46546828D01*
X48306884Y-46492635D01*
X48252691Y-46411529D01*
X48233661Y-46315859D01*
X48233661Y-45415857D01*
X48252691Y-45320187D01*
X48306884Y-45239081D01*
X48387990Y-45184888D01*
X48483660Y-45165858D01*
X49133662Y-45165858D01*
X49229332Y-45184888D01*
X49229332Y-45184888D01*
G37*
D14*
X48808661Y-45865858D03*
D13*
G36*
X41525711Y-37224070D02*
G01*
X41606817Y-37278263D01*
X41661010Y-37359369D01*
X41680040Y-37455039D01*
X41680040Y-38355041D01*
X41661010Y-38450711D01*
X41606817Y-38531817D01*
X41525711Y-38586010D01*
X41430041Y-38605040D01*
X40780039Y-38605040D01*
X40684369Y-38586010D01*
X40603263Y-38531817D01*
X40549070Y-38450711D01*
X40530040Y-38355041D01*
X40530040Y-37455039D01*
X40549070Y-37359369D01*
X40603263Y-37278263D01*
X40684369Y-37224070D01*
X40780039Y-37205040D01*
X41430041Y-37205040D01*
X41525711Y-37224070D01*
X41525711Y-37224070D01*
G37*
D14*
X41105040Y-37905040D03*
D13*
G36*
X39475711Y-37224070D02*
G01*
X39556817Y-37278263D01*
X39611010Y-37359369D01*
X39630040Y-37455039D01*
X39630040Y-38355041D01*
X39611010Y-38450711D01*
X39556817Y-38531817D01*
X39475711Y-38586010D01*
X39380041Y-38605040D01*
X38730039Y-38605040D01*
X38634369Y-38586010D01*
X38553263Y-38531817D01*
X38499070Y-38450711D01*
X38480040Y-38355041D01*
X38480040Y-37455039D01*
X38499070Y-37359369D01*
X38553263Y-37278263D01*
X38634369Y-37224070D01*
X38730039Y-37205040D01*
X39380041Y-37205040D01*
X39475711Y-37224070D01*
X39475711Y-37224070D01*
G37*
D14*
X39055040Y-37905040D03*
D13*
G36*
X45535711Y-44724070D02*
G01*
X45616817Y-44778263D01*
X45671010Y-44859369D01*
X45690040Y-44955039D01*
X45690040Y-45855041D01*
X45671010Y-45950711D01*
X45616817Y-46031817D01*
X45535711Y-46086010D01*
X45440041Y-46105040D01*
X44790039Y-46105040D01*
X44694369Y-46086010D01*
X44613263Y-46031817D01*
X44559070Y-45950711D01*
X44540040Y-45855041D01*
X44540040Y-44955039D01*
X44559070Y-44859369D01*
X44613263Y-44778263D01*
X44694369Y-44724070D01*
X44790039Y-44705040D01*
X45440041Y-44705040D01*
X45535711Y-44724070D01*
X45535711Y-44724070D01*
G37*
D14*
X45115040Y-45405040D03*
D13*
G36*
X43485711Y-44724070D02*
G01*
X43566817Y-44778263D01*
X43621010Y-44859369D01*
X43640040Y-44955039D01*
X43640040Y-45855041D01*
X43621010Y-45950711D01*
X43566817Y-46031817D01*
X43485711Y-46086010D01*
X43390041Y-46105040D01*
X42740039Y-46105040D01*
X42644369Y-46086010D01*
X42563263Y-46031817D01*
X42509070Y-45950711D01*
X42490040Y-45855041D01*
X42490040Y-44955039D01*
X42509070Y-44859369D01*
X42563263Y-44778263D01*
X42644369Y-44724070D01*
X42740039Y-44705040D01*
X43390041Y-44705040D01*
X43485711Y-44724070D01*
X43485711Y-44724070D01*
G37*
D14*
X43065040Y-45405040D03*
D13*
G36*
X44103427Y-35188119D02*
G01*
X44180478Y-35239602D01*
X44231961Y-35316653D01*
X44250040Y-35407540D01*
X44250040Y-35882540D01*
X44231961Y-35973427D01*
X44180478Y-36050478D01*
X44103427Y-36101961D01*
X44012540Y-36120040D01*
X43437540Y-36120040D01*
X43346653Y-36101961D01*
X43269602Y-36050478D01*
X43218119Y-35973427D01*
X43200040Y-35882540D01*
X43200040Y-35407540D01*
X43218119Y-35316653D01*
X43269602Y-35239602D01*
X43346653Y-35188119D01*
X43437540Y-35170040D01*
X44012540Y-35170040D01*
X44103427Y-35188119D01*
X44103427Y-35188119D01*
G37*
D29*
X43725040Y-35645040D03*
D13*
G36*
X42353427Y-35188119D02*
G01*
X42430478Y-35239602D01*
X42481961Y-35316653D01*
X42500040Y-35407540D01*
X42500040Y-35882540D01*
X42481961Y-35973427D01*
X42430478Y-36050478D01*
X42353427Y-36101961D01*
X42262540Y-36120040D01*
X41687540Y-36120040D01*
X41596653Y-36101961D01*
X41519602Y-36050478D01*
X41468119Y-35973427D01*
X41450040Y-35882540D01*
X41450040Y-35407540D01*
X41468119Y-35316653D01*
X41519602Y-35239602D01*
X41596653Y-35188119D01*
X41687540Y-35170040D01*
X42262540Y-35170040D01*
X42353427Y-35188119D01*
X42353427Y-35188119D01*
G37*
D29*
X41975040Y-35645040D03*
D13*
G36*
X34133427Y-22328119D02*
G01*
X34210478Y-22379602D01*
X34261961Y-22456653D01*
X34280040Y-22547540D01*
X34280040Y-23122540D01*
X34261961Y-23213427D01*
X34210478Y-23290478D01*
X34133427Y-23341961D01*
X34042540Y-23360040D01*
X33567540Y-23360040D01*
X33476653Y-23341961D01*
X33399602Y-23290478D01*
X33348119Y-23213427D01*
X33330040Y-23122540D01*
X33330040Y-22547540D01*
X33348119Y-22456653D01*
X33399602Y-22379602D01*
X33476653Y-22328119D01*
X33567540Y-22310040D01*
X34042540Y-22310040D01*
X34133427Y-22328119D01*
X34133427Y-22328119D01*
G37*
D29*
X33805040Y-22835040D03*
D13*
G36*
X34133427Y-24078119D02*
G01*
X34210478Y-24129602D01*
X34261961Y-24206653D01*
X34280040Y-24297540D01*
X34280040Y-24872540D01*
X34261961Y-24963427D01*
X34210478Y-25040478D01*
X34133427Y-25091961D01*
X34042540Y-25110040D01*
X33567540Y-25110040D01*
X33476653Y-25091961D01*
X33399602Y-25040478D01*
X33348119Y-24963427D01*
X33330040Y-24872540D01*
X33330040Y-24297540D01*
X33348119Y-24206653D01*
X33399602Y-24129602D01*
X33476653Y-24078119D01*
X33567540Y-24060040D01*
X34042540Y-24060040D01*
X34133427Y-24078119D01*
X34133427Y-24078119D01*
G37*
D29*
X33805040Y-24585040D03*
D30*
X21970000Y-49495000D03*
X25420000Y-49495000D03*
D31*
X24270000Y-51070000D03*
X24270000Y-55070000D03*
D30*
X21970000Y-56645000D03*
X25420000Y-56645000D03*
D13*
G36*
X34241729Y-66226259D02*
G01*
X34322835Y-66280452D01*
X34377028Y-66361558D01*
X34396058Y-66457228D01*
X34396058Y-67107230D01*
X34377028Y-67202900D01*
X34322835Y-67284006D01*
X34241729Y-67338199D01*
X34146059Y-67357229D01*
X33246057Y-67357229D01*
X33150387Y-67338199D01*
X33069281Y-67284006D01*
X33015088Y-67202900D01*
X32996058Y-67107230D01*
X32996058Y-66457228D01*
X33015088Y-66361558D01*
X33069281Y-66280452D01*
X33150387Y-66226259D01*
X33246057Y-66207229D01*
X34146059Y-66207229D01*
X34241729Y-66226259D01*
X34241729Y-66226259D01*
G37*
D14*
X33696058Y-66782229D03*
D13*
G36*
X34241729Y-64176259D02*
G01*
X34322835Y-64230452D01*
X34377028Y-64311558D01*
X34396058Y-64407228D01*
X34396058Y-65057230D01*
X34377028Y-65152900D01*
X34322835Y-65234006D01*
X34241729Y-65288199D01*
X34146059Y-65307229D01*
X33246057Y-65307229D01*
X33150387Y-65288199D01*
X33069281Y-65234006D01*
X33015088Y-65152900D01*
X32996058Y-65057230D01*
X32996058Y-64407228D01*
X33015088Y-64311558D01*
X33069281Y-64230452D01*
X33150387Y-64176259D01*
X33246057Y-64157229D01*
X34146059Y-64157229D01*
X34241729Y-64176259D01*
X34241729Y-64176259D01*
G37*
D14*
X33696058Y-64732229D03*
D13*
G36*
X28444711Y-52548070D02*
G01*
X28525817Y-52602263D01*
X28580010Y-52683369D01*
X28599040Y-52779039D01*
X28599040Y-53679041D01*
X28580010Y-53774711D01*
X28525817Y-53855817D01*
X28444711Y-53910010D01*
X28349041Y-53929040D01*
X27699039Y-53929040D01*
X27603369Y-53910010D01*
X27522263Y-53855817D01*
X27468070Y-53774711D01*
X27449040Y-53679041D01*
X27449040Y-52779039D01*
X27468070Y-52683369D01*
X27522263Y-52602263D01*
X27603369Y-52548070D01*
X27699039Y-52529040D01*
X28349041Y-52529040D01*
X28444711Y-52548070D01*
X28444711Y-52548070D01*
G37*
D14*
X28024040Y-53229040D03*
D13*
G36*
X30494711Y-52548070D02*
G01*
X30575817Y-52602263D01*
X30630010Y-52683369D01*
X30649040Y-52779039D01*
X30649040Y-53679041D01*
X30630010Y-53774711D01*
X30575817Y-53855817D01*
X30494711Y-53910010D01*
X30399041Y-53929040D01*
X29749039Y-53929040D01*
X29653369Y-53910010D01*
X29572263Y-53855817D01*
X29518070Y-53774711D01*
X29499040Y-53679041D01*
X29499040Y-52779039D01*
X29518070Y-52683369D01*
X29572263Y-52602263D01*
X29653369Y-52548070D01*
X29749039Y-52529040D01*
X30399041Y-52529040D01*
X30494711Y-52548070D01*
X30494711Y-52548070D01*
G37*
D14*
X30074040Y-53229040D03*
D13*
G36*
X40504609Y-57552579D02*
G01*
X40585715Y-57606772D01*
X40639908Y-57687878D01*
X40658938Y-57783548D01*
X40658938Y-58433550D01*
X40639908Y-58529220D01*
X40585715Y-58610326D01*
X40504609Y-58664519D01*
X40408939Y-58683549D01*
X39508937Y-58683549D01*
X39413267Y-58664519D01*
X39332161Y-58610326D01*
X39277968Y-58529220D01*
X39258938Y-58433550D01*
X39258938Y-57783548D01*
X39277968Y-57687878D01*
X39332161Y-57606772D01*
X39413267Y-57552579D01*
X39508937Y-57533549D01*
X40408939Y-57533549D01*
X40504609Y-57552579D01*
X40504609Y-57552579D01*
G37*
D14*
X39958938Y-58108549D03*
D13*
G36*
X40504609Y-59602579D02*
G01*
X40585715Y-59656772D01*
X40639908Y-59737878D01*
X40658938Y-59833548D01*
X40658938Y-60483550D01*
X40639908Y-60579220D01*
X40585715Y-60660326D01*
X40504609Y-60714519D01*
X40408939Y-60733549D01*
X39508937Y-60733549D01*
X39413267Y-60714519D01*
X39332161Y-60660326D01*
X39277968Y-60579220D01*
X39258938Y-60483550D01*
X39258938Y-59833548D01*
X39277968Y-59737878D01*
X39332161Y-59656772D01*
X39413267Y-59602579D01*
X39508937Y-59583549D01*
X40408939Y-59583549D01*
X40504609Y-59602579D01*
X40504609Y-59602579D01*
G37*
D14*
X39958938Y-60158549D03*
D13*
G36*
X53254332Y-40784888D02*
G01*
X53335438Y-40839081D01*
X53389631Y-40920187D01*
X53408661Y-41015857D01*
X53408661Y-41915859D01*
X53389631Y-42011529D01*
X53335438Y-42092635D01*
X53254332Y-42146828D01*
X53158662Y-42165858D01*
X52508660Y-42165858D01*
X52412990Y-42146828D01*
X52331884Y-42092635D01*
X52277691Y-42011529D01*
X52258661Y-41915859D01*
X52258661Y-41015857D01*
X52277691Y-40920187D01*
X52331884Y-40839081D01*
X52412990Y-40784888D01*
X52508660Y-40765858D01*
X53158662Y-40765858D01*
X53254332Y-40784888D01*
X53254332Y-40784888D01*
G37*
D14*
X52833661Y-41465858D03*
D13*
G36*
X55304332Y-40784888D02*
G01*
X55385438Y-40839081D01*
X55439631Y-40920187D01*
X55458661Y-41015857D01*
X55458661Y-41915859D01*
X55439631Y-42011529D01*
X55385438Y-42092635D01*
X55304332Y-42146828D01*
X55208662Y-42165858D01*
X54558660Y-42165858D01*
X54462990Y-42146828D01*
X54381884Y-42092635D01*
X54327691Y-42011529D01*
X54308661Y-41915859D01*
X54308661Y-41015857D01*
X54327691Y-40920187D01*
X54381884Y-40839081D01*
X54462990Y-40784888D01*
X54558660Y-40765858D01*
X55208662Y-40765858D01*
X55304332Y-40784888D01*
X55304332Y-40784888D01*
G37*
D14*
X54883661Y-41465858D03*
D13*
G36*
X38681729Y-52581259D02*
G01*
X38762835Y-52635452D01*
X38817028Y-52716558D01*
X38836058Y-52812228D01*
X38836058Y-53712230D01*
X38817028Y-53807900D01*
X38762835Y-53889006D01*
X38681729Y-53943199D01*
X38586059Y-53962229D01*
X37936057Y-53962229D01*
X37840387Y-53943199D01*
X37759281Y-53889006D01*
X37705088Y-53807900D01*
X37686058Y-53712230D01*
X37686058Y-52812228D01*
X37705088Y-52716558D01*
X37759281Y-52635452D01*
X37840387Y-52581259D01*
X37936057Y-52562229D01*
X38586059Y-52562229D01*
X38681729Y-52581259D01*
X38681729Y-52581259D01*
G37*
D14*
X38261058Y-53262229D03*
D13*
G36*
X36631729Y-52581259D02*
G01*
X36712835Y-52635452D01*
X36767028Y-52716558D01*
X36786058Y-52812228D01*
X36786058Y-53712230D01*
X36767028Y-53807900D01*
X36712835Y-53889006D01*
X36631729Y-53943199D01*
X36536059Y-53962229D01*
X35886057Y-53962229D01*
X35790387Y-53943199D01*
X35709281Y-53889006D01*
X35655088Y-53807900D01*
X35636058Y-53712230D01*
X35636058Y-52812228D01*
X35655088Y-52716558D01*
X35709281Y-52635452D01*
X35790387Y-52581259D01*
X35886057Y-52562229D01*
X36536059Y-52562229D01*
X36631729Y-52581259D01*
X36631729Y-52581259D01*
G37*
D14*
X36211058Y-53262229D03*
D13*
G36*
X42185711Y-32594070D02*
G01*
X42266817Y-32648263D01*
X42321010Y-32729369D01*
X42340040Y-32825039D01*
X42340040Y-33725041D01*
X42321010Y-33820711D01*
X42266817Y-33901817D01*
X42185711Y-33956010D01*
X42090041Y-33975040D01*
X41440039Y-33975040D01*
X41344369Y-33956010D01*
X41263263Y-33901817D01*
X41209070Y-33820711D01*
X41190040Y-33725041D01*
X41190040Y-32825039D01*
X41209070Y-32729369D01*
X41263263Y-32648263D01*
X41344369Y-32594070D01*
X41440039Y-32575040D01*
X42090041Y-32575040D01*
X42185711Y-32594070D01*
X42185711Y-32594070D01*
G37*
D14*
X41765040Y-33275040D03*
D13*
G36*
X44235711Y-32594070D02*
G01*
X44316817Y-32648263D01*
X44371010Y-32729369D01*
X44390040Y-32825039D01*
X44390040Y-33725041D01*
X44371010Y-33820711D01*
X44316817Y-33901817D01*
X44235711Y-33956010D01*
X44140041Y-33975040D01*
X43490039Y-33975040D01*
X43394369Y-33956010D01*
X43313263Y-33901817D01*
X43259070Y-33820711D01*
X43240040Y-33725041D01*
X43240040Y-32825039D01*
X43259070Y-32729369D01*
X43313263Y-32648263D01*
X43394369Y-32594070D01*
X43490039Y-32575040D01*
X44140041Y-32575040D01*
X44235711Y-32594070D01*
X44235711Y-32594070D01*
G37*
D14*
X43815040Y-33275040D03*
D13*
G36*
X34536571Y-27007570D02*
G01*
X34617677Y-27061763D01*
X34671870Y-27142869D01*
X34690900Y-27238539D01*
X34690900Y-28138541D01*
X34671870Y-28234211D01*
X34617677Y-28315317D01*
X34536571Y-28369510D01*
X34440901Y-28388540D01*
X33790899Y-28388540D01*
X33695229Y-28369510D01*
X33614123Y-28315317D01*
X33559930Y-28234211D01*
X33540900Y-28138541D01*
X33540900Y-27238539D01*
X33559930Y-27142869D01*
X33614123Y-27061763D01*
X33695229Y-27007570D01*
X33790899Y-26988540D01*
X34440901Y-26988540D01*
X34536571Y-27007570D01*
X34536571Y-27007570D01*
G37*
D14*
X34115900Y-27688540D03*
D13*
G36*
X36586571Y-27007570D02*
G01*
X36667677Y-27061763D01*
X36721870Y-27142869D01*
X36740900Y-27238539D01*
X36740900Y-28138541D01*
X36721870Y-28234211D01*
X36667677Y-28315317D01*
X36586571Y-28369510D01*
X36490901Y-28388540D01*
X35840899Y-28388540D01*
X35745229Y-28369510D01*
X35664123Y-28315317D01*
X35609930Y-28234211D01*
X35590900Y-28138541D01*
X35590900Y-27238539D01*
X35609930Y-27142869D01*
X35664123Y-27061763D01*
X35745229Y-27007570D01*
X35840899Y-26988540D01*
X36490901Y-26988540D01*
X36586571Y-27007570D01*
X36586571Y-27007570D01*
G37*
D14*
X36165900Y-27688540D03*
D13*
G36*
X38835711Y-22144070D02*
G01*
X38916817Y-22198263D01*
X38971010Y-22279369D01*
X38990040Y-22375039D01*
X38990040Y-23275041D01*
X38971010Y-23370711D01*
X38916817Y-23451817D01*
X38835711Y-23506010D01*
X38740041Y-23525040D01*
X38090039Y-23525040D01*
X37994369Y-23506010D01*
X37913263Y-23451817D01*
X37859070Y-23370711D01*
X37840040Y-23275041D01*
X37840040Y-22375039D01*
X37859070Y-22279369D01*
X37913263Y-22198263D01*
X37994369Y-22144070D01*
X38090039Y-22125040D01*
X38740041Y-22125040D01*
X38835711Y-22144070D01*
X38835711Y-22144070D01*
G37*
D14*
X38415040Y-22825040D03*
D13*
G36*
X36785711Y-22144070D02*
G01*
X36866817Y-22198263D01*
X36921010Y-22279369D01*
X36940040Y-22375039D01*
X36940040Y-23275041D01*
X36921010Y-23370711D01*
X36866817Y-23451817D01*
X36785711Y-23506010D01*
X36690041Y-23525040D01*
X36040039Y-23525040D01*
X35944369Y-23506010D01*
X35863263Y-23451817D01*
X35809070Y-23370711D01*
X35790040Y-23275041D01*
X35790040Y-22375039D01*
X35809070Y-22279369D01*
X35863263Y-22198263D01*
X35944369Y-22144070D01*
X36040039Y-22125040D01*
X36690041Y-22125040D01*
X36785711Y-22144070D01*
X36785711Y-22144070D01*
G37*
D14*
X36365040Y-22825040D03*
D13*
G36*
X30004332Y-42134888D02*
G01*
X30085438Y-42189081D01*
X30139631Y-42270187D01*
X30158661Y-42365857D01*
X30158661Y-43015859D01*
X30139631Y-43111529D01*
X30085438Y-43192635D01*
X30004332Y-43246828D01*
X29908662Y-43265858D01*
X29008660Y-43265858D01*
X28912990Y-43246828D01*
X28831884Y-43192635D01*
X28777691Y-43111529D01*
X28758661Y-43015859D01*
X28758661Y-42365857D01*
X28777691Y-42270187D01*
X28831884Y-42189081D01*
X28912990Y-42134888D01*
X29008660Y-42115858D01*
X29908662Y-42115858D01*
X30004332Y-42134888D01*
X30004332Y-42134888D01*
G37*
D14*
X29458661Y-42690858D03*
D13*
G36*
X30004332Y-40084888D02*
G01*
X30085438Y-40139081D01*
X30139631Y-40220187D01*
X30158661Y-40315857D01*
X30158661Y-40965859D01*
X30139631Y-41061529D01*
X30085438Y-41142635D01*
X30004332Y-41196828D01*
X29908662Y-41215858D01*
X29008660Y-41215858D01*
X28912990Y-41196828D01*
X28831884Y-41142635D01*
X28777691Y-41061529D01*
X28758661Y-40965859D01*
X28758661Y-40315857D01*
X28777691Y-40220187D01*
X28831884Y-40139081D01*
X28912990Y-40084888D01*
X29008660Y-40065858D01*
X29908662Y-40065858D01*
X30004332Y-40084888D01*
X30004332Y-40084888D01*
G37*
D14*
X29458661Y-40640858D03*
D32*
X51045040Y-62755040D03*
X44145040Y-62755040D03*
D31*
X34882444Y-40800020D03*
X59523285Y-61806136D03*
X56426100Y-61193680D03*
X46891423Y-63548340D03*
X46141640Y-64747140D03*
X48119481Y-66450966D03*
X40368220Y-62887860D03*
X41167040Y-66256040D03*
X47340520Y-56911240D03*
X40258384Y-61341000D03*
X37742486Y-60449854D03*
X49759290Y-25984849D03*
X49311560Y-26880820D03*
X32263080Y-54338220D03*
X50180240Y-56944260D03*
X50053240Y-52290980D03*
X40086280Y-39029640D03*
X46629320Y-59347100D03*
X37414200Y-54000400D03*
X41264759Y-56044040D03*
X42249839Y-57719382D03*
X43268900Y-57962800D03*
X43555072Y-27404103D03*
X57418616Y-66784496D03*
X57751979Y-48271390D03*
X56527983Y-48271390D03*
X62070350Y-56642040D03*
X62651640Y-55420260D03*
X60064207Y-65125230D03*
X59062664Y-65136958D03*
X61457840Y-64396620D03*
X37150040Y-64575040D03*
X23913730Y-53652420D03*
X24528780Y-47688500D03*
X32992060Y-50661430D03*
X41772840Y-52910740D03*
X30091380Y-58958480D03*
X40566340Y-47922180D03*
X40589768Y-50789552D03*
X41064180Y-49390300D03*
X29486860Y-27165300D03*
X24663400Y-26183680D03*
X42217721Y-46529079D03*
X43507660Y-46918880D03*
X44594143Y-43411140D03*
X44594143Y-39893240D03*
X46641021Y-32405877D03*
X43608012Y-39717820D03*
X45946060Y-47030640D03*
X46952779Y-46967344D03*
X21831300Y-46647100D03*
X31767780Y-45646340D03*
X23368000Y-45107860D03*
X28564840Y-47335440D03*
X30152349Y-46683485D03*
X41348507Y-51988129D03*
X47683631Y-48910451D03*
X45938440Y-51838860D03*
X53200740Y-46607895D03*
X53527755Y-50333499D03*
X53220620Y-49380140D03*
X53546488Y-48325601D03*
X60431680Y-46944280D03*
X59451240Y-44571920D03*
X51343560Y-41549320D03*
X51888637Y-39026377D03*
X48656240Y-29453840D03*
X45966005Y-29528014D03*
X44967871Y-29611409D03*
X45896221Y-28528840D03*
X46476298Y-49202011D03*
X48183176Y-53132072D03*
X32875844Y-42280881D03*
X33220660Y-39123620D03*
X33550860Y-44366585D03*
X37099871Y-45130096D03*
X39835860Y-43615716D03*
X38672099Y-44405302D03*
X42811700Y-49499520D03*
X56648600Y-55429323D03*
X58495461Y-53582461D03*
X56692312Y-57520905D03*
X53896260Y-59981476D03*
X56800942Y-52681534D03*
X51658520Y-59306460D03*
X47969637Y-64087553D03*
X47937420Y-59372500D03*
X43449864Y-52841421D03*
X33651880Y-48339451D03*
X59159131Y-56475017D03*
X42448655Y-25938484D03*
X40066059Y-24887939D03*
X42395764Y-34420089D03*
X41387492Y-54675016D03*
X41255077Y-57561467D03*
X45006582Y-59663153D03*
X41480740Y-67795140D03*
X53523965Y-54454254D03*
X42979838Y-59630946D03*
X27792680Y-64343280D03*
X35554920Y-63439040D03*
X51934182Y-57776113D03*
X58720964Y-24182933D03*
X27171193Y-42888387D03*
X27365960Y-43870880D03*
X30538420Y-39961820D03*
X42156380Y-36845240D03*
X41337297Y-41902255D03*
X26499820Y-54899560D03*
X49434452Y-62659830D03*
X57254776Y-39301056D03*
X42118040Y-21988040D03*
X57638040Y-26003040D03*
X55792040Y-29485040D03*
X57065040Y-34952040D03*
X58319040Y-45034040D03*
X52293040Y-42988040D03*
X28071040Y-35574040D03*
X39648044Y-21595430D03*
X42783996Y-24376084D03*
X55127040Y-64634040D03*
X24875040Y-62291040D03*
X60626040Y-53951040D03*
X23134040Y-42586040D03*
D33*
X57787540Y-47233840D02*
X57565533Y-47233840D01*
X57425804Y-52966799D02*
X58426986Y-51965617D01*
X58848268Y-60506024D02*
X58476475Y-60134231D01*
X57779629Y-60422873D02*
X57779629Y-55561343D01*
X62581852Y-63871852D02*
X62581852Y-64271619D01*
X61041505Y-65811966D02*
X58741149Y-65811966D01*
X56125934Y-49897435D02*
X57351980Y-48671389D01*
X59245040Y-68095040D02*
X59245040Y-66892959D01*
X57916520Y-65564439D02*
X57916520Y-62084017D01*
X62065040Y-63355040D02*
X62581852Y-63871852D01*
X57779629Y-55561343D02*
X56125934Y-53907648D01*
X57431206Y-58259799D02*
X57431206Y-60613853D01*
X58151433Y-60794677D02*
X57779629Y-60422873D01*
X55499564Y-56578359D02*
X55499564Y-57327176D01*
X56685056Y-62267346D02*
X56374642Y-61956932D01*
X59523285Y-62371821D02*
X59523285Y-61806136D01*
X56374642Y-61956932D02*
X54872705Y-61956932D01*
X58426986Y-47873286D02*
X57787540Y-47233840D01*
X59245040Y-66892959D02*
X57916520Y-65564439D01*
X62581852Y-64271619D02*
X61041505Y-65811966D01*
X53221253Y-60305480D02*
X53221253Y-57298747D01*
X56125934Y-53907648D02*
X56125934Y-49897435D01*
X54872705Y-61956932D02*
X53221253Y-60305480D01*
X49817231Y-48910451D02*
X47683631Y-48910451D01*
X56648600Y-55429323D02*
X55499564Y-56578359D01*
X59525040Y-62525040D02*
X59523285Y-62523285D01*
X53221253Y-57298747D02*
X55713390Y-54806610D01*
X56826099Y-58653711D02*
X56826099Y-60793681D01*
X57916520Y-62084017D02*
X58151433Y-61849104D01*
X58128051Y-60278551D02*
X58128051Y-55417021D01*
X55499564Y-57327176D02*
X56826099Y-58653711D01*
X58151433Y-61849104D02*
X58151433Y-60794677D01*
X58499845Y-60650345D02*
X58128051Y-60278551D01*
X55713390Y-54806610D02*
X49817231Y-48910451D01*
X57418616Y-62089177D02*
X57418616Y-66218811D01*
X58476475Y-55272701D02*
X57425804Y-54222030D01*
X59062664Y-65136958D02*
X59062664Y-64571273D01*
X57565533Y-47233840D02*
X56927982Y-47871391D01*
X59523285Y-62523285D02*
X59523285Y-62371821D01*
X56685056Y-68075056D02*
X56685056Y-62267346D01*
X57351980Y-48671389D02*
X57751979Y-48271390D01*
X56800942Y-53247219D02*
X56800942Y-52681534D01*
X59062664Y-64571273D02*
X58848268Y-64356877D01*
X62065040Y-62525040D02*
X62065040Y-63355040D01*
X56826099Y-60793681D02*
X56426100Y-61193680D01*
X56927982Y-47871391D02*
X56527983Y-48271390D01*
X57418616Y-66218811D02*
X57418616Y-66784496D01*
X58741149Y-65811966D02*
X58264943Y-65335760D01*
X58426986Y-51965617D02*
X58426986Y-47873286D01*
X58848268Y-64356877D02*
X58848268Y-60506024D01*
X58264943Y-65335760D02*
X58264943Y-62365498D01*
X58476475Y-60134231D02*
X58476475Y-55272701D01*
X58499845Y-62130596D02*
X58499845Y-60650345D01*
X58128051Y-55417021D02*
X56800942Y-54089912D01*
X57425804Y-54222030D02*
X57425804Y-52966799D01*
X56800942Y-54089912D02*
X56800942Y-53247219D01*
X57803011Y-60985658D02*
X57803011Y-61704782D01*
X57431206Y-60613853D02*
X57803011Y-60985658D01*
X56692312Y-57520905D02*
X57431206Y-58259799D01*
X58264943Y-62365498D02*
X58499845Y-62130596D01*
X57803011Y-61704782D02*
X57418616Y-62089177D01*
X47219601Y-63217355D02*
X46891423Y-63545533D01*
X46891423Y-63545533D02*
X46891423Y-63548340D01*
D34*
X41732725Y-66256040D02*
X41167040Y-66256040D01*
D33*
X42187733Y-65879347D02*
X47148855Y-65879347D01*
X52520966Y-66450966D02*
X48685166Y-66450966D01*
X32568852Y-67700023D02*
X36482057Y-67700023D01*
X40519055Y-67548025D02*
X42187733Y-65879347D01*
X54165040Y-68095040D02*
X52520966Y-66450966D01*
X36482057Y-67700023D02*
X36634055Y-67548025D01*
X47148855Y-65879347D02*
X49648228Y-63379974D01*
X31411058Y-65967229D02*
X31411058Y-66542229D01*
D34*
X47729588Y-65193422D02*
X47283881Y-65639129D01*
D33*
X31411058Y-66542229D02*
X32568852Y-67700023D01*
D34*
X47283881Y-65733109D02*
X46711049Y-66305941D01*
X47283881Y-65639129D02*
X47283881Y-65733109D01*
X48606658Y-65193422D02*
X47729588Y-65193422D01*
X41782626Y-66305941D02*
X41732725Y-66256040D01*
D33*
X49648228Y-63379974D02*
X49648228Y-62755040D01*
X48685166Y-66450966D02*
X48119481Y-66450966D01*
D34*
X51045040Y-62755040D02*
X48606658Y-65193422D01*
D33*
X36634055Y-67548025D02*
X40519055Y-67548025D01*
D34*
X46711049Y-66305941D02*
X41782626Y-66305941D01*
D33*
X47340520Y-55042168D02*
X47340520Y-56345555D01*
X47340520Y-56345555D02*
X47340520Y-56911240D01*
X45139773Y-52841421D02*
X47340520Y-55042168D01*
X43449864Y-52841421D02*
X45139773Y-52841421D01*
X57638040Y-26003040D02*
X55112240Y-28528840D01*
X55112240Y-28528840D02*
X45896221Y-28528840D01*
D34*
X34376058Y-53252229D02*
X34676058Y-53552229D01*
X34676058Y-53552229D02*
X34676058Y-56382229D01*
X32263080Y-54338220D02*
X32263080Y-55239251D01*
X32263080Y-55239251D02*
X33406058Y-56382229D01*
D35*
X32326058Y-54275242D02*
X32263080Y-54338220D01*
X32326058Y-53252229D02*
X32326058Y-54275242D01*
X50657760Y-56466740D02*
X50180240Y-56944260D01*
X50657760Y-55298340D02*
X50657760Y-56466740D01*
X50657760Y-52895500D02*
X50053240Y-52290980D01*
X50657760Y-55298340D02*
X50657760Y-52895500D01*
D34*
X33805040Y-22835040D02*
X36355040Y-22835040D01*
X36355040Y-22835040D02*
X36365040Y-22825040D01*
X36365040Y-22825040D02*
X36365040Y-27489400D01*
X36365040Y-27489400D02*
X36165900Y-27688540D01*
X36165900Y-27688540D02*
X37182502Y-27688540D01*
X37182502Y-27688540D02*
X38074018Y-28580056D01*
X38785776Y-28580056D02*
X38834060Y-28628340D01*
X38074018Y-28580056D02*
X38785776Y-28580056D01*
X34115900Y-27688540D02*
X30010100Y-27688540D01*
X30010100Y-27688540D02*
X29486860Y-27165300D01*
X30074040Y-54363180D02*
X24875040Y-59562180D01*
X30074040Y-53229040D02*
X30074040Y-54363180D01*
X24875040Y-59562180D02*
X24875040Y-62291040D01*
D33*
X40849849Y-40065858D02*
X41758661Y-40065858D01*
X38408668Y-41395405D02*
X38833377Y-40970696D01*
D36*
X28603650Y-36106650D02*
X28471039Y-35974039D01*
D33*
X38408668Y-41550864D02*
X38408668Y-41395405D01*
X37358661Y-42300858D02*
X38280473Y-42300858D01*
X37358661Y-41030858D02*
X38280473Y-41030858D01*
X38280473Y-41030858D02*
X39245473Y-40065858D01*
X41758661Y-40065858D02*
X40045746Y-40065858D01*
D36*
X40988430Y-36106650D02*
X28603650Y-36106650D01*
D33*
X40405738Y-40970696D02*
X40937298Y-41502256D01*
X39245473Y-40065858D02*
X40849849Y-40065858D01*
X24114215Y-41605865D02*
X38353667Y-41605865D01*
X40045746Y-40065858D02*
X39055040Y-39075152D01*
X40937298Y-41502256D02*
X41337297Y-41902255D01*
X38280473Y-42300858D02*
X38717396Y-42737781D01*
X38833377Y-40970696D02*
X40405738Y-40970696D01*
D36*
X41450040Y-35645040D02*
X40988430Y-36106650D01*
D33*
X38353667Y-41605865D02*
X38408668Y-41550864D01*
X23134040Y-42586040D02*
X24114215Y-41605865D01*
X41182897Y-42737781D02*
X41710974Y-43265858D01*
D36*
X28471039Y-35974039D02*
X28071040Y-35574040D01*
D33*
X38717396Y-42737781D02*
X41182897Y-42737781D01*
X39055040Y-39075152D02*
X39055040Y-38271049D01*
X47219601Y-63217355D02*
X47219601Y-59937381D01*
X47219601Y-59937381D02*
X47029319Y-59747099D01*
X47029319Y-59747099D02*
X46629320Y-59347100D01*
D37*
X37414200Y-54000400D02*
X37522887Y-54000400D01*
X37522887Y-54000400D02*
X38261058Y-53262229D01*
D36*
X39958938Y-60158549D02*
X41548549Y-60158549D01*
X38335258Y-61782229D02*
X39958938Y-60158549D01*
X41548549Y-60158549D02*
X44145040Y-62755040D01*
X37216058Y-61782229D02*
X38335258Y-61782229D01*
D33*
X41348507Y-51988129D02*
X40448662Y-52887974D01*
X42249839Y-57629351D02*
X42249839Y-57719382D01*
X40448662Y-56321122D02*
X41008573Y-56881033D01*
X41832744Y-57212256D02*
X42249839Y-57629351D01*
X40448662Y-52887974D02*
X40448662Y-56321122D01*
X41584996Y-56881033D02*
X41832744Y-57128781D01*
X41832744Y-57128781D02*
X41832744Y-57212256D01*
X41008573Y-56881033D02*
X41584996Y-56881033D01*
X41376600Y-25821046D02*
X42959657Y-27404103D01*
X40940040Y-23435040D02*
X41376600Y-23871600D01*
X40365040Y-23435040D02*
X40940040Y-23435040D01*
X42959657Y-27404103D02*
X42989387Y-27404103D01*
X41376600Y-23871600D02*
X41376600Y-25821046D01*
X42989387Y-27404103D02*
X43555072Y-27404103D01*
X49083677Y-46840874D02*
X48808661Y-46565858D01*
X52876735Y-45932887D02*
X51968748Y-46840874D01*
X55169040Y-42869880D02*
X55169040Y-45550492D01*
X51968748Y-46840874D02*
X49083677Y-46840874D01*
X60765053Y-40150040D02*
X59945060Y-40970033D01*
X56518047Y-40970033D02*
X56518047Y-41520873D01*
X59945060Y-40970033D02*
X56518047Y-40970033D01*
X67575040Y-40150040D02*
X60765053Y-40150040D01*
X54786645Y-45932887D02*
X52876735Y-45932887D01*
X55169040Y-45550492D02*
X54786645Y-45932887D01*
X56518047Y-41520873D02*
X55169040Y-42869880D01*
X48808661Y-46565858D02*
X48808661Y-45865858D01*
X40928927Y-50121187D02*
X40684296Y-50121187D01*
X40333293Y-49770184D02*
X40333293Y-49525553D01*
X31099776Y-46715680D02*
X30456964Y-47358492D01*
X45538441Y-51438861D02*
X42246601Y-51438861D01*
X30415024Y-49818496D02*
X29298464Y-50935056D01*
X29828345Y-47358492D02*
X27577713Y-45107860D01*
X29298464Y-50935056D02*
X26631094Y-50935056D01*
X40684296Y-50121187D02*
X40333293Y-49770184D01*
X26631094Y-50935056D02*
X24313729Y-53252421D01*
X37523420Y-46715680D02*
X31099776Y-46715680D01*
X30456964Y-47358492D02*
X29828345Y-47358492D01*
X40333293Y-49525553D02*
X37523420Y-46715680D01*
X42246601Y-51438861D02*
X40928927Y-50121187D01*
X27577713Y-45107860D02*
X23933685Y-45107860D01*
X23933685Y-45107860D02*
X23368000Y-45107860D01*
X32922834Y-47576740D02*
X30731460Y-47576740D01*
X45938440Y-51838860D02*
X45538441Y-51438861D01*
X40589768Y-50789552D02*
X37116236Y-47316020D01*
X37116236Y-47316020D02*
X33183554Y-47316020D01*
X33183554Y-47316020D02*
X32922834Y-47576740D01*
X30731460Y-47576740D02*
X30415024Y-47893176D01*
X30415024Y-47893176D02*
X30415024Y-49818496D01*
X24313729Y-53252421D02*
X23913730Y-53652420D01*
D37*
X52833661Y-41465858D02*
X52833661Y-42447419D01*
X52833661Y-42447419D02*
X52293040Y-42988040D01*
X50858661Y-43465858D02*
X51815222Y-43465858D01*
X51815222Y-43465858D02*
X52293040Y-42988040D01*
D34*
X58319040Y-45034040D02*
X59202003Y-45917003D01*
X58895460Y-53182462D02*
X58495461Y-53582461D01*
X59202003Y-52875919D02*
X58895460Y-53182462D01*
X59202003Y-45917003D02*
X59202003Y-52875919D01*
D36*
X29458661Y-42690858D02*
X27368722Y-42690858D01*
X27368722Y-42690858D02*
X27171193Y-42888387D01*
X29458661Y-40640858D02*
X29859382Y-40640858D01*
X29859382Y-40640858D02*
X30538420Y-39961820D01*
X31958661Y-41030858D02*
X30683661Y-41030858D01*
X30538420Y-40885617D02*
X30538420Y-40527505D01*
X30683661Y-41030858D02*
X30538420Y-40885617D01*
X30538420Y-40527505D02*
X30538420Y-39961820D01*
D37*
X62065040Y-58625040D02*
X62065040Y-56647350D01*
X62065040Y-56647350D02*
X62070350Y-56642040D01*
X62065040Y-58625040D02*
X60795040Y-58625040D01*
X64605040Y-58625040D02*
X68399040Y-58625040D01*
X68399040Y-58625040D02*
X68535040Y-58761040D01*
X68535040Y-58761040D02*
X68535040Y-59765040D01*
D33*
X58935034Y-57150033D02*
X59530738Y-57150033D01*
X62179184Y-60228040D02*
X59063027Y-60228040D01*
X62506802Y-60555658D02*
X62179184Y-60228040D01*
X63982470Y-60555658D02*
X62506802Y-60555658D01*
D37*
X64530439Y-60153641D02*
X64605040Y-60079040D01*
D33*
X58880033Y-57205034D02*
X58935034Y-57150033D01*
X60626040Y-54516725D02*
X60626040Y-53951040D01*
X64605040Y-62525040D02*
X64605040Y-61178228D01*
X60626040Y-56054731D02*
X60626040Y-54516725D01*
X59063027Y-60228040D02*
X58880033Y-60045046D01*
X58880033Y-60045046D02*
X58880033Y-57205034D01*
X64605040Y-61178228D02*
X63982470Y-60555658D01*
X59530738Y-57150033D02*
X60626040Y-56054731D01*
D37*
X62065040Y-58625040D02*
X62065040Y-59516522D01*
X62065040Y-59516522D02*
X62702159Y-60153641D01*
X62702159Y-60153641D02*
X64530439Y-60153641D01*
X64605040Y-60079040D02*
X64605040Y-58625040D01*
X61899820Y-55420260D02*
X59525040Y-57795040D01*
X59525040Y-57795040D02*
X59525040Y-58625040D01*
X62651640Y-55420260D02*
X61899820Y-55420260D01*
X61324040Y-56642040D02*
X61504665Y-56642040D01*
X60795040Y-58625040D02*
X60795040Y-57171040D01*
X60795040Y-57171040D02*
X61324040Y-56642040D01*
X61504665Y-56642040D02*
X62070350Y-56642040D01*
D33*
X60064207Y-64602685D02*
X60064207Y-65125230D01*
X60795040Y-63871852D02*
X60064207Y-64602685D01*
X60795040Y-62525040D02*
X60795040Y-63871852D01*
X36154189Y-64575040D02*
X36584355Y-64575040D01*
X35946529Y-64782700D02*
X36154189Y-64575040D01*
X36584355Y-64575040D02*
X37150040Y-64575040D01*
X24270000Y-55070000D02*
X26329380Y-55070000D01*
X26329380Y-55070000D02*
X26499820Y-54899560D01*
X30091380Y-58958480D02*
X30965129Y-59832229D01*
X30965129Y-59832229D02*
X31391058Y-59832229D01*
X42411701Y-49099521D02*
X42411701Y-48768530D01*
X42411701Y-48768530D02*
X40890344Y-47247173D01*
X40890344Y-47247173D02*
X40559353Y-47247173D01*
X37678765Y-44366585D02*
X34116545Y-44366585D01*
X40559353Y-47247173D02*
X37678765Y-44366585D01*
X34116545Y-44366585D02*
X33550860Y-44366585D01*
X42811700Y-49499520D02*
X42411701Y-49099521D01*
X42102280Y-51787284D02*
X44578380Y-51787284D01*
X41410319Y-51095323D02*
X42102280Y-51787284D01*
X39877409Y-51076206D02*
X40265763Y-51464560D01*
X48612427Y-59048496D02*
X48612427Y-59696504D01*
X35764595Y-51076206D02*
X39877409Y-51076206D01*
X48232744Y-55441648D02*
X48232744Y-58668813D01*
X41287626Y-51095323D02*
X41410319Y-51095323D01*
X40265763Y-51464560D02*
X40918389Y-51464560D01*
X48420024Y-59888907D02*
X48420024Y-61526836D01*
X48420024Y-61526836D02*
X49648228Y-62755040D01*
X44578380Y-51787284D02*
X48232744Y-55441648D01*
X48232744Y-58668813D02*
X48612427Y-59048496D01*
X35109858Y-50421469D02*
X35764595Y-51076206D01*
X48612427Y-59696504D02*
X48420024Y-59888907D01*
X40918389Y-51464560D02*
X41287626Y-51095323D01*
X41105040Y-37905040D02*
X41680040Y-37905040D01*
X42933005Y-39158005D02*
X42933005Y-40228012D01*
X43725040Y-35645040D02*
X43725040Y-39600792D01*
X44594143Y-36039125D02*
X44594143Y-39327555D01*
X43725040Y-39600792D02*
X43608012Y-39717820D01*
X45221654Y-42283852D02*
X45221654Y-42783629D01*
X44594143Y-39327555D02*
X44594143Y-39893240D01*
X45956186Y-41549320D02*
X45221654Y-42283852D01*
X51343560Y-41549320D02*
X45956186Y-41549320D01*
X50868228Y-29765040D02*
X44594143Y-36039125D01*
X45756271Y-40568248D02*
X46258661Y-40065858D01*
X44994142Y-43011141D02*
X44594143Y-43411140D01*
X43273241Y-40568248D02*
X45756271Y-40568248D01*
X51765040Y-29765040D02*
X50868228Y-29765040D01*
X42933005Y-40228012D02*
X43273241Y-40568248D01*
X41680040Y-37905040D02*
X42933005Y-39158005D01*
X45221654Y-42783629D02*
X44994142Y-43011141D01*
D34*
X21831300Y-39413180D02*
X21831300Y-46647100D01*
X23154640Y-38089840D02*
X21831300Y-39413180D01*
X32409679Y-38089840D02*
X23154640Y-38089840D01*
X33608661Y-37465858D02*
X33033661Y-37465858D01*
X33033661Y-37465858D02*
X32409679Y-38089840D01*
D33*
X31958661Y-41030858D02*
X29848661Y-41030858D01*
X29848661Y-41030858D02*
X29458661Y-40640858D01*
X30152349Y-44455358D02*
X30152349Y-46117800D01*
X31958661Y-43570858D02*
X31036849Y-43570858D01*
X30152349Y-46117800D02*
X30152349Y-46683485D01*
X31036849Y-43570858D02*
X30152349Y-44455358D01*
X37833661Y-43570858D02*
X38836666Y-43570858D01*
X48183176Y-52566387D02*
X48183176Y-53132072D01*
X38836666Y-43570858D02*
X39347106Y-44081298D01*
X39347106Y-45196710D02*
X42974909Y-48824513D01*
X44441302Y-48824513D02*
X48183176Y-52566387D01*
X39347106Y-44081298D02*
X39347106Y-45196710D01*
X42974909Y-48824513D02*
X44441302Y-48824513D01*
X58319040Y-45034040D02*
X56745185Y-46607895D01*
X53766425Y-46607895D02*
X53200740Y-46607895D01*
X56745185Y-46607895D02*
X53766425Y-46607895D01*
X52183661Y-45115858D02*
X52961849Y-45115858D01*
X50858661Y-45865858D02*
X51433661Y-45865858D01*
X51433661Y-45865858D02*
X52183661Y-45115858D01*
X52961849Y-45115858D02*
X53858661Y-45115858D01*
X51433661Y-40065858D02*
X51888637Y-39610882D01*
X51888637Y-39592062D02*
X51888637Y-39026377D01*
X51888637Y-39610882D02*
X51888637Y-39592062D01*
X39835860Y-43615716D02*
X39835860Y-45167320D01*
X39835860Y-45167320D02*
X42428160Y-47759620D01*
X44576670Y-47759620D02*
X45741823Y-48924773D01*
X42428160Y-47759620D02*
X44576670Y-47759620D01*
X45741823Y-48924773D02*
X46141822Y-49324772D01*
X46141822Y-49324772D02*
X46353537Y-49324772D01*
X46353537Y-49324772D02*
X46476298Y-49202011D01*
X31958661Y-39760858D02*
X31958661Y-39314046D01*
X31958661Y-39314046D02*
X32149087Y-39123620D01*
X32149087Y-39123620D02*
X32654975Y-39123620D01*
X32654975Y-39123620D02*
X33220660Y-39123620D01*
X31958661Y-41030858D02*
X32880473Y-41030858D01*
X31958661Y-42300858D02*
X31978638Y-42280881D01*
X33895667Y-38452864D02*
X33608661Y-38165858D01*
X31978638Y-42280881D02*
X32310159Y-42280881D01*
X32880473Y-41030858D02*
X33895667Y-40015664D01*
X33895667Y-40015664D02*
X33895667Y-38452864D01*
X33608661Y-38165858D02*
X33608661Y-37465858D01*
X32310159Y-42280881D02*
X32875844Y-42280881D01*
X55216028Y-59750960D02*
X54985512Y-59981476D01*
X54985512Y-59981476D02*
X54461945Y-59981476D01*
X54461945Y-59981476D02*
X53896260Y-59981476D01*
X47937420Y-59372500D02*
X47937420Y-64055336D01*
X47937420Y-64055336D02*
X47969637Y-64087553D01*
X33651880Y-48905136D02*
X33651880Y-48339451D01*
X31315040Y-49335040D02*
X31940040Y-48710040D01*
X32282278Y-48710040D02*
X33327875Y-47664443D01*
X33975885Y-47664443D02*
X35057895Y-48746453D01*
X33327875Y-47664443D02*
X33975885Y-47664443D01*
X36884842Y-48746453D02*
X37159858Y-49021469D01*
X35057895Y-48746453D02*
X36884842Y-48746453D01*
X35109858Y-50421469D02*
X33651880Y-48963491D01*
X31940040Y-48710040D02*
X32282278Y-48710040D01*
X33651880Y-48963491D02*
X33651880Y-48905136D01*
X39725160Y-25228838D02*
X40066059Y-24887939D01*
X44204206Y-24182933D02*
X42448655Y-25938484D01*
X58720964Y-24182933D02*
X44204206Y-24182933D01*
X38385040Y-25228838D02*
X39725160Y-25228838D01*
X41579714Y-33604039D02*
X42395764Y-34420089D01*
D36*
X44154981Y-55575099D02*
X44154981Y-62164981D01*
D33*
X47212979Y-63210733D02*
X47219601Y-63217355D01*
X47175016Y-63210733D02*
X47212979Y-63210733D01*
X49648228Y-62755040D02*
X51045040Y-62755040D01*
X35554920Y-63439040D02*
X35554920Y-62873355D01*
X35554920Y-62873355D02*
X35311058Y-62629493D01*
X35311058Y-62629493D02*
X35311058Y-59082229D01*
X35109858Y-49721469D02*
X35109858Y-50421469D01*
D36*
X35341785Y-51692956D02*
X36211058Y-52562229D01*
X30910124Y-51692956D02*
X35341785Y-51692956D01*
X30074040Y-52529040D02*
X30910124Y-51692956D01*
X36211058Y-53262229D02*
X36211058Y-54379022D01*
X35946058Y-54644022D02*
X35946058Y-56382229D01*
X36211058Y-54379022D02*
X35946058Y-54644022D01*
D35*
X21996601Y-49468399D02*
X25393399Y-49468399D01*
D33*
X26499820Y-54899560D02*
X28024040Y-53375340D01*
X26499820Y-54899560D02*
X25420000Y-55979380D01*
X25420000Y-55979380D02*
X25420000Y-56645000D01*
X50000137Y-62659830D02*
X49434452Y-62659830D01*
X31958661Y-42300858D02*
X29848661Y-42300858D01*
X36436849Y-39760858D02*
X35658661Y-38982670D01*
X35658661Y-38982670D02*
X35658661Y-37465858D01*
X37358661Y-39760858D02*
X36436849Y-39760858D01*
X43065040Y-45405040D02*
X43065040Y-43663425D01*
X43065040Y-43663425D02*
X42667473Y-43265858D01*
X42667473Y-43265858D02*
X41758661Y-43265858D01*
X46258661Y-40065858D02*
X48808661Y-40065858D01*
X53858661Y-39115858D02*
X53858661Y-41015858D01*
X53858661Y-41015858D02*
X53858661Y-43815858D01*
X45115040Y-45405040D02*
X45690040Y-45405040D01*
X45690040Y-45405040D02*
X46258661Y-44836419D01*
X46258661Y-44836419D02*
X46258661Y-43265858D01*
X48808661Y-43465858D02*
X46458661Y-43465858D01*
X48808661Y-45865858D02*
X48808661Y-43465858D01*
X53858661Y-37815858D02*
X51033661Y-37815858D01*
X53858661Y-41015858D02*
X54308661Y-41465858D01*
X48808661Y-40065858D02*
X48808661Y-37690858D01*
X62411040Y-36441040D02*
X49358479Y-36441040D01*
X49358479Y-36441040D02*
X48833661Y-36965858D01*
X64735040Y-38765040D02*
X62411040Y-36441040D01*
X50858661Y-40065858D02*
X52133661Y-40065858D01*
X52833661Y-40765858D02*
X52133661Y-40065858D01*
D36*
X33805040Y-24585040D02*
X28709040Y-24585040D01*
X28709040Y-24585040D02*
X28071040Y-23947040D01*
X28071040Y-23947040D02*
X28071040Y-22697040D01*
D33*
X38415040Y-22825040D02*
X38990040Y-22825040D01*
X38990040Y-22825040D02*
X39648044Y-22167036D01*
X39648044Y-22167036D02*
X39648044Y-21595430D01*
X42383997Y-23976085D02*
X42783996Y-24376084D01*
D34*
X55235040Y-64526040D02*
X55127040Y-64634040D01*
X55235040Y-62981948D02*
X55235040Y-64526040D01*
X24875040Y-66001078D02*
X24875040Y-62291040D01*
X27487521Y-68613559D02*
X24875040Y-66001078D01*
X28941078Y-68475040D02*
X28466062Y-68950056D01*
X28941078Y-68475040D02*
X38235040Y-68475040D01*
X28466062Y-68950056D02*
X27824018Y-68950056D01*
X27824018Y-68950056D02*
X27487521Y-68613559D01*
D36*
X51045040Y-62755040D02*
X55008132Y-62755040D01*
D33*
X41765040Y-33275040D02*
X41765040Y-28721040D01*
X28515040Y-49335040D02*
X25573228Y-49335040D01*
X25555040Y-49316852D02*
X25555040Y-48570040D01*
X34376058Y-53252229D02*
X34376058Y-56082229D01*
X39958938Y-58108549D02*
X38020566Y-58108549D01*
X37216058Y-57304041D02*
X37216058Y-56382229D01*
X38020566Y-58108549D02*
X37216058Y-57304041D01*
X33406058Y-56382229D02*
X33406058Y-57304041D01*
X33406058Y-57304041D02*
X35184246Y-59082229D01*
X31391058Y-59832229D02*
X34561058Y-59832229D01*
X31391058Y-61882229D02*
X33306058Y-61882229D01*
X31411058Y-63917229D02*
X31411058Y-61902229D01*
X33696058Y-64157229D02*
X34676058Y-63177229D01*
X34676058Y-63177229D02*
X34676058Y-61782229D01*
X33696058Y-66782229D02*
X35896058Y-66782229D01*
X38235040Y-66425040D02*
X38235040Y-64371224D01*
X36392870Y-62704041D02*
X35946058Y-62257229D01*
X38235040Y-64371224D02*
X36567857Y-62704041D01*
X36567857Y-62704041D02*
X36392870Y-62704041D01*
X63335040Y-58625040D02*
X63335040Y-46265040D01*
X63335040Y-46265040D02*
X59165040Y-42095040D01*
X43815040Y-33275040D02*
X43815040Y-28855040D01*
X43725040Y-35645040D02*
X43725040Y-33365040D01*
X36345040Y-27805040D02*
X36345040Y-22845040D01*
D13*
G36*
X69800000Y-58658482D02*
G01*
X69684327Y-58700584D01*
X69616614Y-58619886D01*
X69461467Y-58530313D01*
X69285037Y-58499203D01*
X68789040Y-58499203D01*
X68789040Y-61030877D01*
X69285039Y-61030877D01*
X69542960Y-60961767D01*
X69698496Y-60831257D01*
X69800000Y-60878589D01*
X69800000Y-69800000D01*
X28632921Y-69800000D01*
X28601786Y-69663218D01*
X28684836Y-69623344D01*
X28695887Y-69621326D01*
X28718825Y-69607021D01*
X28864873Y-69536890D01*
X28934546Y-69472486D01*
X28937993Y-69470336D01*
X28951708Y-69456621D01*
X29019796Y-69393680D01*
X29026928Y-69381402D01*
X29231691Y-69176640D01*
X37546745Y-69176640D01*
X37623408Y-69224108D01*
X37789369Y-69255132D01*
X38680711Y-69255132D01*
X38885492Y-69206968D01*
X39020227Y-69105221D01*
X39109108Y-68961672D01*
X39140132Y-68795711D01*
X39140132Y-68154369D01*
X39091972Y-67949604D01*
X39069976Y-67920497D01*
X39118487Y-67823031D01*
X40492774Y-67823031D01*
X40533879Y-67830872D01*
X40550170Y-67823619D01*
X40650278Y-67799030D01*
X40696069Y-67758660D01*
X40698353Y-67757643D01*
X40706785Y-67749211D01*
X40751634Y-67709671D01*
X40754941Y-67701055D01*
X41504189Y-66951807D01*
X41649677Y-67002899D01*
X41744472Y-67006622D01*
X41748436Y-67007541D01*
X41767864Y-67007541D01*
X41860483Y-67011180D01*
X41874208Y-67007541D01*
X43526395Y-67007541D01*
X43559623Y-67140811D01*
X43420280Y-67214901D01*
X43260462Y-67345245D01*
X43129005Y-67504150D01*
X43030919Y-67685555D01*
X42969934Y-67882566D01*
X42948378Y-68087662D01*
X42967069Y-68293041D01*
X43025297Y-68490884D01*
X43120841Y-68673644D01*
X43250066Y-68834366D01*
X43408046Y-68966928D01*
X43588765Y-69066279D01*
X43785343Y-69128637D01*
X43956626Y-69146640D01*
X44056937Y-69146640D01*
X44210284Y-69131604D01*
X44407710Y-69071998D01*
X44589802Y-68975178D01*
X44749618Y-68844835D01*
X44881075Y-68685930D01*
X44979161Y-68504525D01*
X45040146Y-68307514D01*
X45061702Y-68102418D01*
X45043011Y-67897039D01*
X44984783Y-67699196D01*
X44889239Y-67516436D01*
X44760014Y-67355714D01*
X44602034Y-67223152D01*
X44450091Y-67139622D01*
X44484004Y-67007541D01*
X46066395Y-67007541D01*
X46099623Y-67140811D01*
X45960280Y-67214901D01*
X45800462Y-67345245D01*
X45669005Y-67504150D01*
X45570919Y-67685555D01*
X45509934Y-67882566D01*
X45488378Y-68087662D01*
X45507069Y-68293041D01*
X45565297Y-68490884D01*
X45660841Y-68673644D01*
X45790066Y-68834366D01*
X45948046Y-68966928D01*
X46128765Y-69066279D01*
X46325343Y-69128637D01*
X46496626Y-69146640D01*
X46596937Y-69146640D01*
X46750284Y-69131604D01*
X46947710Y-69071998D01*
X47129802Y-68975178D01*
X47289618Y-68844835D01*
X47421075Y-68685930D01*
X47519161Y-68504525D01*
X47580146Y-68307514D01*
X47601702Y-68102418D01*
X47600360Y-68087662D01*
X48028378Y-68087662D01*
X48047069Y-68293041D01*
X48105297Y-68490884D01*
X48200841Y-68673644D01*
X48330066Y-68834366D01*
X48488046Y-68966928D01*
X48668765Y-69066279D01*
X48865343Y-69128637D01*
X49036626Y-69146640D01*
X49136937Y-69146640D01*
X49290284Y-69131604D01*
X49487710Y-69071998D01*
X49669802Y-68975178D01*
X49829618Y-68844835D01*
X49961075Y-68685930D01*
X50059161Y-68504525D01*
X50120146Y-68307514D01*
X50141702Y-68102418D01*
X50140360Y-68087662D01*
X50568378Y-68087662D01*
X50587069Y-68293041D01*
X50645297Y-68490884D01*
X50740841Y-68673644D01*
X50870066Y-68834366D01*
X51028046Y-68966928D01*
X51208765Y-69066279D01*
X51405343Y-69128637D01*
X51576626Y-69146640D01*
X51676937Y-69146640D01*
X51830284Y-69131604D01*
X52027710Y-69071998D01*
X52209802Y-68975178D01*
X52369618Y-68844835D01*
X52501075Y-68685930D01*
X52599161Y-68504525D01*
X52660146Y-68307514D01*
X52681702Y-68102418D01*
X52663011Y-67897039D01*
X52604783Y-67699196D01*
X52509239Y-67516436D01*
X52380014Y-67355714D01*
X52222034Y-67223152D01*
X52041315Y-67123801D01*
X51844737Y-67061443D01*
X51673454Y-67043440D01*
X51573143Y-67043440D01*
X51419796Y-67058476D01*
X51222370Y-67118082D01*
X51040278Y-67214902D01*
X50880462Y-67345245D01*
X50749005Y-67504150D01*
X50650919Y-67685555D01*
X50589934Y-67882566D01*
X50568378Y-68087662D01*
X50140360Y-68087662D01*
X50123011Y-67897039D01*
X50064783Y-67699196D01*
X49969239Y-67516436D01*
X49840014Y-67355714D01*
X49682034Y-67223152D01*
X49501315Y-67123801D01*
X49304737Y-67061443D01*
X49133454Y-67043440D01*
X49033143Y-67043440D01*
X48879796Y-67058476D01*
X48682370Y-67118082D01*
X48500278Y-67214902D01*
X48340462Y-67345245D01*
X48209005Y-67504150D01*
X48110919Y-67685555D01*
X48049934Y-67882566D01*
X48028378Y-68087662D01*
X47600360Y-68087662D01*
X47583011Y-67897039D01*
X47524783Y-67699196D01*
X47429239Y-67516436D01*
X47300014Y-67355714D01*
X47142034Y-67223152D01*
X46825525Y-67049151D01*
X46963812Y-66962906D01*
X47109860Y-66892775D01*
X47179533Y-66828371D01*
X47182981Y-66826220D01*
X47196697Y-66812505D01*
X47264783Y-66749567D01*
X47271917Y-66737285D01*
X47504411Y-66504792D01*
X47576771Y-66727493D01*
X47688783Y-66881664D01*
X47842954Y-66993676D01*
X48024198Y-67052566D01*
X48214764Y-67052566D01*
X48396008Y-66993676D01*
X48550178Y-66881665D01*
X48663296Y-66725972D01*
X52407055Y-66725972D01*
X53252588Y-67571504D01*
X53190918Y-67685558D01*
X53129934Y-67882566D01*
X53108378Y-68087662D01*
X53127069Y-68293041D01*
X53185297Y-68490884D01*
X53280841Y-68673644D01*
X53410066Y-68834366D01*
X53568046Y-68966928D01*
X53748765Y-69066279D01*
X53945343Y-69128637D01*
X54116626Y-69146640D01*
X54216937Y-69146640D01*
X54370284Y-69131604D01*
X54567710Y-69071998D01*
X54749802Y-68975178D01*
X54909618Y-68844835D01*
X55041075Y-68685930D01*
X55139161Y-68504525D01*
X55200146Y-68307514D01*
X55221702Y-68102418D01*
X55203011Y-67897039D01*
X55144783Y-67699196D01*
X55049239Y-67516436D01*
X54920014Y-67355714D01*
X54762034Y-67223152D01*
X54581315Y-67123801D01*
X54384737Y-67061443D01*
X54213454Y-67043440D01*
X54113143Y-67043440D01*
X53959796Y-67058476D01*
X53762370Y-67118082D01*
X53641349Y-67182431D01*
X52734010Y-66275093D01*
X52710487Y-66240480D01*
X52693828Y-66234085D01*
X52605666Y-66180692D01*
X52544743Y-66176859D01*
X52542403Y-66175960D01*
X52530472Y-66175960D01*
X52470809Y-66172207D01*
X52462381Y-66175960D01*
X48663296Y-66175960D01*
X48483927Y-65929082D01*
X48721872Y-65885624D01*
X48815289Y-65871580D01*
X48825431Y-65866710D01*
X48836483Y-65864691D01*
X48859421Y-65850387D01*
X49005469Y-65780256D01*
X49075142Y-65715852D01*
X49078589Y-65713702D01*
X49092304Y-65699987D01*
X49160392Y-65637046D01*
X49167524Y-65624768D01*
X49615052Y-65177240D01*
X49716377Y-65244943D01*
X49795040Y-65260590D01*
X52295040Y-65260590D01*
X52373701Y-65244943D01*
X52440386Y-65200386D01*
X52484943Y-65133701D01*
X52500590Y-65055040D01*
X52500590Y-63206640D01*
X53854948Y-63206640D01*
X53854948Y-63477618D01*
X53903112Y-63682399D01*
X54004860Y-63817135D01*
X54148408Y-63906016D01*
X54314370Y-63937040D01*
X54533441Y-63937040D01*
X54533441Y-64256742D01*
X54499986Y-64302034D01*
X54430084Y-64501090D01*
X54421801Y-64711898D01*
X54475872Y-64915826D01*
X54587514Y-65094838D01*
X54746858Y-65233109D01*
X54939816Y-65318415D01*
X55149326Y-65343214D01*
X55356868Y-65305308D01*
X55598971Y-65154320D01*
X55701654Y-65051637D01*
X55752260Y-65011744D01*
X55805976Y-64934023D01*
X55862094Y-64858046D01*
X55865821Y-64847435D01*
X55872212Y-64838187D01*
X55878317Y-64811851D01*
X55931996Y-64658990D01*
X55935721Y-64564194D01*
X55936640Y-64560227D01*
X55936640Y-64540791D01*
X55940279Y-64448182D01*
X55936640Y-64434457D01*
X55936640Y-63937040D01*
X56155710Y-63937040D01*
X56410051Y-63877220D01*
X56410050Y-67085573D01*
X56302369Y-67118083D01*
X56120278Y-67214902D01*
X55960462Y-67345245D01*
X55829005Y-67504150D01*
X55730919Y-67685555D01*
X55669934Y-67882566D01*
X55648378Y-68087662D01*
X55667069Y-68293041D01*
X55725297Y-68490884D01*
X55820841Y-68673644D01*
X55950066Y-68834366D01*
X56108046Y-68966928D01*
X56288765Y-69066279D01*
X56485343Y-69128637D01*
X56656626Y-69146640D01*
X56756937Y-69146640D01*
X56910284Y-69131604D01*
X57107710Y-69071998D01*
X57289802Y-68975178D01*
X57449618Y-68844835D01*
X57581075Y-68685930D01*
X57679161Y-68504525D01*
X57740146Y-68307514D01*
X57761702Y-68102418D01*
X57743011Y-67897039D01*
X57684783Y-67699196D01*
X57589240Y-67516440D01*
X57490545Y-67393684D01*
X57695143Y-67327207D01*
X57849314Y-67215194D01*
X57961326Y-67061023D01*
X58020216Y-66879779D01*
X58020216Y-66689213D01*
X57961326Y-66507969D01*
X57849315Y-66353799D01*
X57693622Y-66240681D01*
X57693622Y-65883934D01*
X57802146Y-65838982D01*
X59025852Y-67062689D01*
X58842366Y-67118084D01*
X58660278Y-67214902D01*
X58500462Y-67345245D01*
X58369005Y-67504150D01*
X58270919Y-67685555D01*
X58209934Y-67882566D01*
X58188378Y-68087662D01*
X58207069Y-68293041D01*
X58265297Y-68490884D01*
X58360841Y-68673644D01*
X58490066Y-68834366D01*
X58648046Y-68966928D01*
X58828765Y-69066279D01*
X59025343Y-69128637D01*
X59196626Y-69146640D01*
X59296937Y-69146640D01*
X59450284Y-69131604D01*
X59647710Y-69071998D01*
X59829802Y-68975178D01*
X59989618Y-68844835D01*
X60121075Y-68685930D01*
X60219161Y-68504525D01*
X60280146Y-68307514D01*
X60301702Y-68102418D01*
X60283011Y-67897039D01*
X60224783Y-67699196D01*
X60129239Y-67516436D01*
X60000014Y-67355714D01*
X59868119Y-67245040D01*
X60729490Y-67245040D01*
X60729490Y-68945040D01*
X60745137Y-69023701D01*
X60789694Y-69090386D01*
X60856379Y-69134943D01*
X60935040Y-69150590D01*
X62635040Y-69150590D01*
X62713701Y-69134943D01*
X62780386Y-69090386D01*
X62824943Y-69023701D01*
X62840590Y-68945040D01*
X62840590Y-67245040D01*
X62824943Y-67166379D01*
X62780386Y-67099694D01*
X62713701Y-67055137D01*
X62635040Y-67039490D01*
X60935040Y-67039490D01*
X60856379Y-67055137D01*
X60789694Y-67099694D01*
X60745137Y-67166379D01*
X60729490Y-67245040D01*
X59868119Y-67245040D01*
X59842037Y-67223155D01*
X59661313Y-67123802D01*
X59520046Y-67078989D01*
X59520046Y-66919239D01*
X59526362Y-66886128D01*
X65698401Y-66886128D01*
X65698401Y-67113872D01*
X65737950Y-67338166D01*
X65815845Y-67552180D01*
X65929721Y-67749421D01*
X66076115Y-67923885D01*
X66250579Y-68070279D01*
X66447820Y-68184155D01*
X66661834Y-68262050D01*
X66886128Y-68301599D01*
X67113872Y-68301599D01*
X67338166Y-68262050D01*
X67552180Y-68184155D01*
X67749421Y-68070279D01*
X67923885Y-67923885D01*
X68070279Y-67749421D01*
X68184155Y-67552180D01*
X68262050Y-67338166D01*
X68301599Y-67113872D01*
X68301599Y-66886128D01*
X68262050Y-66661834D01*
X68184155Y-66447820D01*
X68070279Y-66250579D01*
X67923885Y-66076115D01*
X67749421Y-65929721D01*
X67552180Y-65815845D01*
X67338166Y-65737950D01*
X67113872Y-65698401D01*
X66886128Y-65698401D01*
X66661834Y-65737950D01*
X66447820Y-65815845D01*
X66250579Y-65929721D01*
X66076115Y-66076115D01*
X65929721Y-66250579D01*
X65815845Y-66447820D01*
X65737950Y-66661834D01*
X65698401Y-66886128D01*
X59526362Y-66886128D01*
X59527887Y-66878135D01*
X59520633Y-66861842D01*
X59496045Y-66761737D01*
X59455677Y-66715948D01*
X59454658Y-66713659D01*
X59446219Y-66705220D01*
X59406687Y-66660379D01*
X59398070Y-66657071D01*
X58936495Y-66195496D01*
X58981447Y-66086972D01*
X61015224Y-66086972D01*
X61056329Y-66094813D01*
X61072620Y-66087560D01*
X61172728Y-66062971D01*
X61218519Y-66022601D01*
X61220803Y-66021584D01*
X61229235Y-66013152D01*
X61274084Y-65973612D01*
X61277391Y-65964996D01*
X62757728Y-64484661D01*
X62792337Y-64461140D01*
X62798730Y-64444487D01*
X62852127Y-64356320D01*
X62855960Y-64295395D01*
X62856858Y-64293056D01*
X62856858Y-64281135D01*
X62860612Y-64221463D01*
X62856858Y-64213032D01*
X62856858Y-63909073D01*
X62965037Y-63930590D01*
X63705040Y-63930590D01*
X63783701Y-63914943D01*
X63850386Y-63870386D01*
X63970040Y-63691310D01*
X64089694Y-63870386D01*
X64156379Y-63914943D01*
X64235040Y-63930590D01*
X64975040Y-63930590D01*
X65053701Y-63914943D01*
X65120386Y-63870386D01*
X65164943Y-63803701D01*
X65180590Y-63725040D01*
X65180590Y-61325040D01*
X65164943Y-61246379D01*
X65120386Y-61179694D01*
X65053701Y-61135137D01*
X64975040Y-61119490D01*
X64873851Y-61119490D01*
X64856046Y-61047007D01*
X64815680Y-61001220D01*
X64814660Y-60998930D01*
X64806212Y-60990482D01*
X64766686Y-60945648D01*
X64758071Y-60942341D01*
X64265130Y-60449401D01*
X64310082Y-60340877D01*
X64351040Y-60340877D01*
X64351040Y-58879040D01*
X64859040Y-58879040D01*
X64859040Y-60340877D01*
X64975039Y-60340877D01*
X65232960Y-60271767D01*
X65370193Y-60156616D01*
X65449621Y-60019040D01*
X67269203Y-60019040D01*
X67269203Y-60515039D01*
X67338313Y-60772960D01*
X67453464Y-60910193D01*
X67608613Y-60999767D01*
X67785043Y-61030877D01*
X68281040Y-61030877D01*
X68281040Y-60019040D01*
X67269203Y-60019040D01*
X65449621Y-60019040D01*
X65459767Y-60001467D01*
X65490877Y-59825037D01*
X65490877Y-59015043D01*
X67269203Y-59015043D01*
X67269203Y-59511040D01*
X68281040Y-59511040D01*
X68281040Y-58499203D01*
X67785041Y-58499203D01*
X67527123Y-58568312D01*
X67389886Y-58683466D01*
X67300313Y-58838613D01*
X67269203Y-59015043D01*
X65490877Y-59015043D01*
X65490877Y-58879040D01*
X64859040Y-58879040D01*
X64351040Y-58879040D01*
X64351040Y-56909203D01*
X64859040Y-56909203D01*
X64859040Y-58371040D01*
X65490877Y-58371040D01*
X65490877Y-57425041D01*
X65421768Y-57167123D01*
X65306614Y-57029886D01*
X65151467Y-56940313D01*
X64975037Y-56909203D01*
X64859040Y-56909203D01*
X64351040Y-56909203D01*
X64235041Y-56909203D01*
X63977123Y-56978312D01*
X63839886Y-57093467D01*
X63760730Y-57230568D01*
X63705040Y-57219490D01*
X63610046Y-57219490D01*
X63610046Y-53981127D01*
X63949172Y-53981127D01*
X63961419Y-54273342D01*
X64012207Y-54561377D01*
X64100639Y-54840148D01*
X64225167Y-55104784D01*
X64383603Y-55350627D01*
X64573157Y-55573354D01*
X64790506Y-55769055D01*
X65031827Y-55934292D01*
X65292877Y-56066158D01*
X65569081Y-56162343D01*
X65855581Y-56221152D01*
X66147336Y-56241554D01*
X66439234Y-56223188D01*
X66726134Y-56166380D01*
X67002997Y-56072129D01*
X67264968Y-55942086D01*
X67507432Y-55778542D01*
X67726145Y-55584359D01*
X67917250Y-55362962D01*
X68077397Y-55118230D01*
X68203770Y-54854471D01*
X68294147Y-54576318D01*
X68346944Y-54288652D01*
X68356716Y-53888804D01*
X68318035Y-53598905D01*
X68241352Y-53316666D01*
X68128013Y-53047043D01*
X67980017Y-52794789D01*
X67799951Y-52564315D01*
X67590991Y-52359687D01*
X67356804Y-52184493D01*
X67101493Y-52041804D01*
X66829568Y-51934141D01*
X66545780Y-51863386D01*
X66255139Y-51830784D01*
X65962724Y-51836911D01*
X65673706Y-51881652D01*
X65393129Y-51964231D01*
X65125943Y-52083189D01*
X64876840Y-52236438D01*
X64650192Y-52421288D01*
X64449986Y-52634486D01*
X64279728Y-52872301D01*
X64142421Y-53130536D01*
X64040476Y-53404657D01*
X63975678Y-53689867D01*
X63949172Y-53981127D01*
X63610046Y-53981127D01*
X63610046Y-47333540D01*
X63759558Y-47310929D01*
X63808309Y-47468416D01*
X63906334Y-47646723D01*
X64038214Y-47801682D01*
X64198560Y-47926959D01*
X64380816Y-48017431D01*
X64577548Y-48069410D01*
X64780711Y-48080769D01*
X64982006Y-48051045D01*
X65173216Y-47981448D01*
X65346525Y-47874829D01*
X65494854Y-47735538D01*
X65612149Y-47569263D01*
X65693611Y-47382803D01*
X65735917Y-47183769D01*
X65736651Y-46973304D01*
X65695735Y-46773973D01*
X65615578Y-46586952D01*
X65499447Y-46419861D01*
X65352093Y-46279539D01*
X65179535Y-46171713D01*
X64988813Y-46100784D01*
X64787731Y-46069655D01*
X64584491Y-46079595D01*
X64387408Y-46130197D01*
X64204518Y-46219398D01*
X64043305Y-46343548D01*
X63910346Y-46497583D01*
X63811077Y-46675204D01*
X63758951Y-46839527D01*
X63610046Y-46816476D01*
X63610046Y-46291321D01*
X63617887Y-46250216D01*
X63610634Y-46233925D01*
X63586045Y-46133818D01*
X63545678Y-46088030D01*
X63544659Y-46085741D01*
X63536219Y-46077301D01*
X63496687Y-46032460D01*
X63488070Y-46029152D01*
X63145443Y-45686525D01*
X66568280Y-45686525D01*
X66588136Y-45889032D01*
X66648309Y-46083416D01*
X66746334Y-46261723D01*
X66878214Y-46416682D01*
X67038560Y-46541959D01*
X67220816Y-46632431D01*
X67417548Y-46684410D01*
X67620711Y-46695769D01*
X67822006Y-46666045D01*
X68013216Y-46596448D01*
X68186525Y-46489829D01*
X68334854Y-46350538D01*
X68452149Y-46184263D01*
X68533611Y-45997803D01*
X68575917Y-45798769D01*
X68576651Y-45588304D01*
X68535735Y-45388973D01*
X68455578Y-45201952D01*
X68339447Y-45034861D01*
X68192093Y-44894539D01*
X68019535Y-44786713D01*
X67828813Y-44715784D01*
X67627731Y-44684655D01*
X67424491Y-44694595D01*
X67227408Y-44745197D01*
X67044518Y-44834398D01*
X66883305Y-44958548D01*
X66750346Y-45112583D01*
X66651078Y-45290204D01*
X66589550Y-45484165D01*
X66568280Y-45686525D01*
X63145443Y-45686525D01*
X61760442Y-44301525D01*
X63728280Y-44301525D01*
X63748136Y-44504032D01*
X63808309Y-44698416D01*
X63906334Y-44876723D01*
X64038214Y-45031682D01*
X64198560Y-45156959D01*
X64380816Y-45247431D01*
X64577548Y-45299410D01*
X64780711Y-45310769D01*
X64982006Y-45281045D01*
X65173216Y-45211448D01*
X65346525Y-45104829D01*
X65494854Y-44965538D01*
X65612149Y-44799263D01*
X65693611Y-44612803D01*
X65735917Y-44413769D01*
X65736651Y-44203304D01*
X65695735Y-44003973D01*
X65615578Y-43816952D01*
X65499447Y-43649861D01*
X65352093Y-43509539D01*
X65179535Y-43401713D01*
X64988813Y-43330784D01*
X64787731Y-43299655D01*
X64584491Y-43309595D01*
X64387408Y-43360197D01*
X64204518Y-43449398D01*
X64043305Y-43573548D01*
X63910346Y-43727583D01*
X63811078Y-43905204D01*
X63749550Y-44099165D01*
X63728280Y-44301525D01*
X61760442Y-44301525D01*
X60375442Y-42916525D01*
X66568280Y-42916525D01*
X66588136Y-43119032D01*
X66648309Y-43313416D01*
X66746334Y-43491723D01*
X66878214Y-43646682D01*
X67038560Y-43771959D01*
X67220816Y-43862431D01*
X67417548Y-43914410D01*
X67620711Y-43925769D01*
X67822006Y-43896045D01*
X68013216Y-43826448D01*
X68186525Y-43719829D01*
X68334854Y-43580538D01*
X68452149Y-43414263D01*
X68533611Y-43227803D01*
X68575917Y-43028769D01*
X68576651Y-42818304D01*
X68535735Y-42618973D01*
X68455578Y-42431952D01*
X68339447Y-42264861D01*
X68192093Y-42124539D01*
X68019535Y-42016713D01*
X67828813Y-41945784D01*
X67627731Y-41914655D01*
X67424491Y-41924595D01*
X67227408Y-41975197D01*
X67044518Y-42064398D01*
X66883305Y-42188548D01*
X66750346Y-42342583D01*
X66651078Y-42520204D01*
X66589550Y-42714165D01*
X66568280Y-42916525D01*
X60375442Y-42916525D01*
X60082959Y-42624042D01*
X64005249Y-42624042D01*
X64180145Y-42725018D01*
X64395211Y-42803296D01*
X64620608Y-42843040D01*
X64849472Y-42843040D01*
X65074869Y-42803296D01*
X65289935Y-42725018D01*
X65464831Y-42624042D01*
X64735040Y-41894251D01*
X64005249Y-42624042D01*
X60082959Y-42624042D01*
X60077492Y-42618576D01*
X60139162Y-42504522D01*
X60200146Y-42307514D01*
X60221702Y-42102418D01*
X60203011Y-41897039D01*
X60144783Y-41699196D01*
X60049239Y-41516436D01*
X59972192Y-41420608D01*
X63427040Y-41420608D01*
X63427040Y-41649472D01*
X63466784Y-41874869D01*
X63545062Y-42089935D01*
X63646038Y-42264831D01*
X64375829Y-41535040D01*
X65094251Y-41535040D01*
X65824042Y-42264831D01*
X65925018Y-42089935D01*
X66003296Y-41874869D01*
X66043040Y-41649472D01*
X66043040Y-41420608D01*
X66003296Y-41195211D01*
X65925018Y-40980145D01*
X65824042Y-40805249D01*
X65094251Y-41535040D01*
X64375829Y-41535040D01*
X63646038Y-40805249D01*
X63545062Y-40980145D01*
X63466784Y-41195211D01*
X63427040Y-41420608D01*
X59972192Y-41420608D01*
X59855361Y-41275300D01*
X60076283Y-41221038D01*
X60122074Y-41180668D01*
X60124358Y-41179651D01*
X60132790Y-41171219D01*
X60177639Y-41131679D01*
X60180946Y-41123063D01*
X60878965Y-40425046D01*
X63984256Y-40425046D01*
X64735040Y-41175829D01*
X65485824Y-40425046D01*
X66611666Y-40425046D01*
X66648308Y-40543416D01*
X66746334Y-40721723D01*
X66878214Y-40876682D01*
X67038560Y-41001959D01*
X67220816Y-41092431D01*
X67417548Y-41144410D01*
X67620711Y-41155769D01*
X67822006Y-41126045D01*
X68013216Y-41056448D01*
X68186525Y-40949829D01*
X68334854Y-40810538D01*
X68452149Y-40644263D01*
X68533611Y-40457803D01*
X68575917Y-40258769D01*
X68576651Y-40048304D01*
X68535735Y-39848973D01*
X68455578Y-39661952D01*
X68339447Y-39494861D01*
X68192093Y-39354539D01*
X68019535Y-39246713D01*
X67828813Y-39175784D01*
X67627731Y-39144655D01*
X67424491Y-39154595D01*
X67227408Y-39205197D01*
X67044518Y-39294398D01*
X66883305Y-39418548D01*
X66750346Y-39572583D01*
X66651077Y-39750204D01*
X66611479Y-39875034D01*
X65038620Y-39875034D01*
X65013005Y-39729762D01*
X65173216Y-39671448D01*
X65346525Y-39564829D01*
X65494854Y-39425538D01*
X65612149Y-39259263D01*
X65693611Y-39072803D01*
X65735917Y-38873769D01*
X65736651Y-38663304D01*
X65696776Y-38469042D01*
X66845249Y-38469042D01*
X67020145Y-38570018D01*
X67235211Y-38648296D01*
X67460608Y-38688040D01*
X67689472Y-38688040D01*
X67914869Y-38648296D01*
X68129935Y-38570018D01*
X68304831Y-38469042D01*
X67575040Y-37739251D01*
X66845249Y-38469042D01*
X65696776Y-38469042D01*
X65695735Y-38463973D01*
X65615578Y-38276952D01*
X65499447Y-38109861D01*
X65352093Y-37969539D01*
X65179535Y-37861713D01*
X64988813Y-37790784D01*
X64787731Y-37759655D01*
X64584491Y-37769595D01*
X64387408Y-37820197D01*
X64247401Y-37888483D01*
X63624526Y-37265608D01*
X66267040Y-37265608D01*
X66267040Y-37494472D01*
X66306784Y-37719869D01*
X66385062Y-37934935D01*
X66486038Y-38109831D01*
X67215829Y-37380040D01*
X67934251Y-37380040D01*
X68664042Y-38109831D01*
X68765018Y-37934935D01*
X68843296Y-37719869D01*
X68883040Y-37494472D01*
X68883040Y-37265608D01*
X68843296Y-37040211D01*
X68765018Y-36825145D01*
X68664042Y-36650249D01*
X67934251Y-37380040D01*
X67215829Y-37380040D01*
X66486038Y-36650249D01*
X66385062Y-36825145D01*
X66306784Y-37040211D01*
X66267040Y-37265608D01*
X63624526Y-37265608D01*
X62624084Y-36265167D01*
X62600561Y-36230554D01*
X62583902Y-36224159D01*
X62495740Y-36170766D01*
X62434817Y-36166933D01*
X62432477Y-36166034D01*
X62420546Y-36166034D01*
X62360883Y-36162281D01*
X62352455Y-36166034D01*
X49384760Y-36166034D01*
X49343657Y-36158193D01*
X49327365Y-36165447D01*
X49227256Y-36190035D01*
X49181471Y-36230400D01*
X49179181Y-36231420D01*
X49170733Y-36239868D01*
X49125899Y-36279394D01*
X49122592Y-36288009D01*
X48649836Y-36760766D01*
X48512990Y-36760766D01*
X48308209Y-36808930D01*
X48173474Y-36910677D01*
X48084593Y-37054226D01*
X48053569Y-37220187D01*
X48053569Y-38111529D01*
X48101733Y-38316310D01*
X48203480Y-38451045D01*
X48347029Y-38539926D01*
X48533656Y-38574813D01*
X48533655Y-39150026D01*
X48283209Y-39208930D01*
X48148474Y-39310677D01*
X48059593Y-39454226D01*
X48028569Y-39620187D01*
X48028569Y-39790852D01*
X47226211Y-39790852D01*
X47226211Y-39303858D01*
X47210564Y-39225197D01*
X47166007Y-39158512D01*
X47099322Y-39113955D01*
X47020661Y-39098308D01*
X45496661Y-39098308D01*
X45418000Y-39113955D01*
X45351315Y-39158512D01*
X45306758Y-39225197D01*
X45291111Y-39303858D01*
X45291111Y-39622366D01*
X45169636Y-39661836D01*
X45024841Y-39462542D01*
X44869149Y-39349425D01*
X44869149Y-36153036D01*
X46165428Y-34856757D01*
X56463440Y-34856757D01*
X56463440Y-35047323D01*
X56522330Y-35228567D01*
X56634342Y-35382738D01*
X56788513Y-35494750D01*
X56969757Y-35553640D01*
X57160323Y-35553640D01*
X57341567Y-35494750D01*
X57495738Y-35382738D01*
X57607750Y-35228567D01*
X57618643Y-35195040D01*
X63729490Y-35195040D01*
X63729490Y-36795040D01*
X63745137Y-36873701D01*
X63789694Y-36940386D01*
X63856379Y-36984943D01*
X63935040Y-37000590D01*
X65535040Y-37000590D01*
X65613701Y-36984943D01*
X65680386Y-36940386D01*
X65724943Y-36873701D01*
X65740590Y-36795040D01*
X65740590Y-36291038D01*
X66845249Y-36291038D01*
X67575040Y-37020829D01*
X68304831Y-36291038D01*
X68129935Y-36190062D01*
X67914869Y-36111784D01*
X67689472Y-36072040D01*
X67460608Y-36072040D01*
X67235211Y-36111784D01*
X67020145Y-36190062D01*
X66845249Y-36291038D01*
X65740590Y-36291038D01*
X65740590Y-35195040D01*
X65724943Y-35116379D01*
X65680386Y-35049694D01*
X65613701Y-35005137D01*
X65535040Y-34989490D01*
X63935040Y-34989490D01*
X63856379Y-35005137D01*
X63789694Y-35049694D01*
X63745137Y-35116379D01*
X63729490Y-35195040D01*
X57618643Y-35195040D01*
X57666640Y-35047323D01*
X57666640Y-34856757D01*
X57607750Y-34675513D01*
X57495738Y-34521342D01*
X57341567Y-34409330D01*
X57160323Y-34350440D01*
X56969757Y-34350440D01*
X56788513Y-34409330D01*
X56634342Y-34521342D01*
X56522330Y-34675513D01*
X56463440Y-34856757D01*
X46165428Y-34856757D01*
X50700966Y-30321220D01*
X50809490Y-30366172D01*
X50809490Y-30515040D01*
X50825137Y-30593701D01*
X50869694Y-30660386D01*
X50936379Y-30704943D01*
X51015040Y-30720590D01*
X52515040Y-30720590D01*
X52593701Y-30704943D01*
X52660386Y-30660386D01*
X52704943Y-30593701D01*
X52720590Y-30515040D01*
X52720590Y-29015040D01*
X52704943Y-28936377D01*
X52678481Y-28896773D01*
X52728152Y-28803846D01*
X53608225Y-28803846D01*
X53646073Y-28928614D01*
X53539694Y-28999694D01*
X53495137Y-29066379D01*
X53479490Y-29145040D01*
X53479490Y-30645040D01*
X53495137Y-30723701D01*
X53539694Y-30790386D01*
X53606379Y-30834943D01*
X53685040Y-30850590D01*
X55185040Y-30850590D01*
X55263701Y-30834943D01*
X55330386Y-30790386D01*
X55374943Y-30723701D01*
X55390590Y-30645040D01*
X55390590Y-29987161D01*
X55696756Y-30086640D01*
X55887323Y-30086640D01*
X56068567Y-30027750D01*
X56222738Y-29915738D01*
X56334750Y-29761567D01*
X56393640Y-29580323D01*
X56393640Y-29389757D01*
X56334750Y-29208513D01*
X56222738Y-29054342D01*
X56121967Y-28981127D01*
X63949172Y-28981127D01*
X63961419Y-29273342D01*
X64012207Y-29561377D01*
X64100639Y-29840148D01*
X64225167Y-30104784D01*
X64383603Y-30350627D01*
X64573157Y-30573354D01*
X64790506Y-30769055D01*
X65031827Y-30934292D01*
X65292877Y-31066158D01*
X65569081Y-31162343D01*
X65855581Y-31221152D01*
X66147336Y-31241554D01*
X66439234Y-31223188D01*
X66726134Y-31166380D01*
X67002997Y-31072129D01*
X67264968Y-30942086D01*
X67507432Y-30778542D01*
X67726145Y-30584359D01*
X67917250Y-30362962D01*
X68077397Y-30118230D01*
X68203770Y-29854471D01*
X68294147Y-29576318D01*
X68346944Y-29288652D01*
X68356716Y-28888804D01*
X68318035Y-28598905D01*
X68241352Y-28316666D01*
X68128013Y-28047043D01*
X67980017Y-27794789D01*
X67799951Y-27564315D01*
X67590991Y-27359687D01*
X67356804Y-27184493D01*
X67101493Y-27041804D01*
X66829568Y-26934141D01*
X66545780Y-26863386D01*
X66255139Y-26830784D01*
X65962724Y-26836911D01*
X65673706Y-26881652D01*
X65393129Y-26964231D01*
X65125943Y-27083189D01*
X64876840Y-27236438D01*
X64650192Y-27421288D01*
X64449986Y-27634486D01*
X64279728Y-27872301D01*
X64142421Y-28130536D01*
X64040476Y-28404657D01*
X63975678Y-28689867D01*
X63949172Y-28981127D01*
X56121967Y-28981127D01*
X56068567Y-28942330D01*
X55887323Y-28883440D01*
X55696757Y-28883440D01*
X55515515Y-28942329D01*
X55385694Y-29036649D01*
X55263703Y-28955137D01*
X55177102Y-28937910D01*
X55173967Y-28796913D01*
X55243463Y-28779845D01*
X55289254Y-28739475D01*
X55291538Y-28738458D01*
X55299970Y-28730026D01*
X55344819Y-28690486D01*
X55348126Y-28681870D01*
X57454147Y-26575850D01*
X57542756Y-26604640D01*
X57733323Y-26604640D01*
X57914567Y-26545750D01*
X58068738Y-26433738D01*
X58180750Y-26279567D01*
X58239640Y-26098323D01*
X58239640Y-25907757D01*
X58180750Y-25726513D01*
X58068738Y-25572342D01*
X57914567Y-25460330D01*
X57733323Y-25401440D01*
X57542757Y-25401440D01*
X57361513Y-25460330D01*
X57207342Y-25572342D01*
X57095330Y-25726513D01*
X57036440Y-25907757D01*
X57036440Y-26098324D01*
X57065230Y-26186933D01*
X54998329Y-28253834D01*
X46440036Y-28253834D01*
X46326918Y-28098141D01*
X46172748Y-27986130D01*
X45991504Y-27927240D01*
X45800938Y-27927240D01*
X45619694Y-27986130D01*
X45465523Y-28098142D01*
X45353511Y-28252313D01*
X45294621Y-28433557D01*
X45294621Y-28624123D01*
X45353510Y-28805365D01*
X45465523Y-28959538D01*
X45576716Y-29040324D01*
X45448407Y-29216922D01*
X45244398Y-29068699D01*
X45063154Y-29009809D01*
X44872588Y-29009809D01*
X44691346Y-29068698D01*
X44611120Y-29126985D01*
X44515132Y-29078076D01*
X44515132Y-28329369D01*
X44466968Y-28124588D01*
X44365221Y-27989853D01*
X44221672Y-27900972D01*
X43971651Y-27854234D01*
X44097783Y-27680628D01*
X44156672Y-27499386D01*
X44156672Y-27308820D01*
X44097782Y-27127576D01*
X43985770Y-26973405D01*
X43831599Y-26861393D01*
X43650355Y-26802503D01*
X43459789Y-26802503D01*
X43278545Y-26861393D01*
X43124375Y-26973404D01*
X43037477Y-27093005D01*
X42730009Y-26785537D01*
X48709960Y-26785537D01*
X48709960Y-26976103D01*
X48768850Y-27157347D01*
X48880862Y-27311518D01*
X49035033Y-27423530D01*
X49216277Y-27482420D01*
X49406843Y-27482420D01*
X49588087Y-27423530D01*
X49742258Y-27311518D01*
X49854270Y-27157347D01*
X49913160Y-26976103D01*
X49913160Y-26785537D01*
X49854270Y-26604293D01*
X49742258Y-26450122D01*
X49588087Y-26338110D01*
X49406843Y-26279220D01*
X49216277Y-26279220D01*
X49035033Y-26338110D01*
X48880862Y-26450122D01*
X48768850Y-26604293D01*
X48709960Y-26785537D01*
X42730009Y-26785537D01*
X42499120Y-26554648D01*
X42725182Y-26481194D01*
X42879353Y-26369182D01*
X42991365Y-26215011D01*
X43050255Y-26033767D01*
X43050255Y-25843201D01*
X43021463Y-25754592D01*
X44318118Y-24457939D01*
X58177149Y-24457939D01*
X58290267Y-24613632D01*
X58444437Y-24725643D01*
X58625681Y-24784533D01*
X58816247Y-24784533D01*
X58997491Y-24725643D01*
X59151662Y-24613631D01*
X59263674Y-24459460D01*
X59322564Y-24278216D01*
X59322564Y-24087650D01*
X59263674Y-23906406D01*
X59151662Y-23752235D01*
X58997491Y-23640223D01*
X58816247Y-23581333D01*
X58625681Y-23581333D01*
X58444437Y-23640223D01*
X58290267Y-23752234D01*
X58177149Y-23907927D01*
X44230486Y-23907927D01*
X44189382Y-23900086D01*
X44173089Y-23907340D01*
X44072984Y-23931928D01*
X44027195Y-23972296D01*
X44024906Y-23973315D01*
X44016467Y-23981754D01*
X43971626Y-24021286D01*
X43968318Y-24029903D01*
X43494120Y-24504101D01*
X43385596Y-24459149D01*
X43385596Y-24280801D01*
X43326707Y-24099559D01*
X43189538Y-23910762D01*
X43195132Y-23880737D01*
X43195132Y-22989369D01*
X43146968Y-22784588D01*
X43045221Y-22649853D01*
X42901672Y-22560972D01*
X42735711Y-22529948D01*
X42094369Y-22529948D01*
X41889588Y-22578112D01*
X41754853Y-22679859D01*
X41665972Y-22823408D01*
X41634948Y-22989369D01*
X41634948Y-23587554D01*
X41526424Y-23632506D01*
X41145132Y-23251215D01*
X41145132Y-22989369D01*
X41096968Y-22784588D01*
X40995221Y-22649853D01*
X40851672Y-22560972D01*
X40685711Y-22529948D01*
X40044369Y-22529948D01*
X39839588Y-22578112D01*
X39704853Y-22679859D01*
X39630955Y-22799211D01*
X39503264Y-22762880D01*
X39503264Y-22397662D01*
X53048378Y-22397662D01*
X53067069Y-22603041D01*
X53125297Y-22800884D01*
X53220841Y-22983644D01*
X53350066Y-23144366D01*
X53508046Y-23276928D01*
X53688765Y-23376279D01*
X53885343Y-23438637D01*
X54056626Y-23456640D01*
X54156937Y-23456640D01*
X54310284Y-23441604D01*
X54507710Y-23381998D01*
X54689802Y-23285178D01*
X54849618Y-23154835D01*
X54981075Y-22995930D01*
X55079161Y-22814525D01*
X55140146Y-22617514D01*
X55161702Y-22412418D01*
X55143011Y-22207039D01*
X55084783Y-22009196D01*
X54989239Y-21826436D01*
X54860014Y-21665714D01*
X54728119Y-21555040D01*
X55589490Y-21555040D01*
X55589490Y-23255040D01*
X55605137Y-23333701D01*
X55649694Y-23400386D01*
X55716379Y-23444943D01*
X55795040Y-23460590D01*
X57495040Y-23460590D01*
X57573701Y-23444943D01*
X57640386Y-23400386D01*
X57684943Y-23333701D01*
X57700590Y-23255040D01*
X57700590Y-22886128D01*
X65698401Y-22886128D01*
X65698401Y-23113872D01*
X65737950Y-23338166D01*
X65815845Y-23552180D01*
X65929721Y-23749421D01*
X66076115Y-23923885D01*
X66250579Y-24070279D01*
X66447820Y-24184155D01*
X66661834Y-24262050D01*
X66886128Y-24301599D01*
X67113872Y-24301599D01*
X67338166Y-24262050D01*
X67552180Y-24184155D01*
X67749421Y-24070279D01*
X67923885Y-23923885D01*
X68070279Y-23749421D01*
X68184155Y-23552180D01*
X68262050Y-23338166D01*
X68301599Y-23113872D01*
X68301599Y-22886128D01*
X68262050Y-22661834D01*
X68184155Y-22447820D01*
X68070279Y-22250579D01*
X67923885Y-22076115D01*
X67749421Y-21929721D01*
X67552180Y-21815845D01*
X67338166Y-21737950D01*
X67113872Y-21698401D01*
X66886128Y-21698401D01*
X66661834Y-21737950D01*
X66447820Y-21815845D01*
X66250579Y-21929721D01*
X66076115Y-22076115D01*
X65929721Y-22250579D01*
X65815845Y-22447820D01*
X65737950Y-22661834D01*
X65698401Y-22886128D01*
X57700590Y-22886128D01*
X57700590Y-21555040D01*
X57684943Y-21476379D01*
X57640386Y-21409694D01*
X57573701Y-21365137D01*
X57495040Y-21349490D01*
X55795040Y-21349490D01*
X55716379Y-21365137D01*
X55649694Y-21409694D01*
X55605137Y-21476379D01*
X55589490Y-21555040D01*
X54728119Y-21555040D01*
X54702034Y-21533152D01*
X54521315Y-21433801D01*
X54324737Y-21371443D01*
X54153454Y-21353440D01*
X54053143Y-21353440D01*
X53899796Y-21368476D01*
X53702370Y-21428082D01*
X53520278Y-21524902D01*
X53360462Y-21655245D01*
X53229005Y-21814150D01*
X53130919Y-21995555D01*
X53069934Y-22192566D01*
X53048378Y-22397662D01*
X39503264Y-22397662D01*
X39503264Y-22377609D01*
X39434061Y-22059489D01*
X39316217Y-21876122D01*
X39151489Y-21733383D01*
X38953217Y-21642835D01*
X38737473Y-21611816D01*
X38669040Y-21611816D01*
X38669040Y-23079040D01*
X37326816Y-23079040D01*
X37326816Y-23272471D01*
X37396019Y-23590591D01*
X37513863Y-23773958D01*
X37678591Y-23916697D01*
X37771051Y-23958923D01*
X37778493Y-24062964D01*
X37561122Y-24202661D01*
X37418383Y-24367389D01*
X37327835Y-24565661D01*
X37296816Y-24781405D01*
X37296816Y-24974838D01*
X39473264Y-24974838D01*
X39473264Y-24781407D01*
X39404061Y-24463287D01*
X39286217Y-24279920D01*
X39121489Y-24137181D01*
X39029029Y-24094955D01*
X39021587Y-23990914D01*
X39238958Y-23851217D01*
X39381697Y-23686489D01*
X39446517Y-23544554D01*
X39584948Y-23574668D01*
X39584948Y-23880711D01*
X39633112Y-24085492D01*
X39734859Y-24220227D01*
X39878408Y-24309108D01*
X40044369Y-24340132D01*
X40685711Y-24340132D01*
X40890492Y-24291968D01*
X41004155Y-24206134D01*
X41101594Y-24254653D01*
X41101595Y-25794760D01*
X41093753Y-25835868D01*
X41101008Y-25852162D01*
X41125596Y-25952269D01*
X41165963Y-25998056D01*
X41166982Y-26000345D01*
X41175422Y-26008785D01*
X41214954Y-26053626D01*
X41223571Y-26056934D01*
X42746615Y-27579979D01*
X42770136Y-27614588D01*
X42786789Y-27620981D01*
X42874956Y-27674378D01*
X42935881Y-27678211D01*
X42938220Y-27679109D01*
X42950142Y-27679109D01*
X43014185Y-27683139D01*
X43124374Y-27834801D01*
X43224028Y-27907208D01*
X43074853Y-28019859D01*
X42985972Y-28163408D01*
X42954948Y-28329369D01*
X42954948Y-29220711D01*
X43003112Y-29425492D01*
X43104859Y-29560227D01*
X43248408Y-29649108D01*
X43414369Y-29680132D01*
X43540035Y-29680132D01*
X43540035Y-30121560D01*
X43299588Y-30178112D01*
X43164853Y-30279859D01*
X43075972Y-30423408D01*
X43044948Y-30589369D01*
X43044948Y-31480711D01*
X43093112Y-31685492D01*
X43194859Y-31820227D01*
X43338408Y-31909108D01*
X43540034Y-31946799D01*
X43540034Y-32359208D01*
X43289588Y-32418112D01*
X43154853Y-32519859D01*
X43065972Y-32663408D01*
X43034948Y-32829369D01*
X43034948Y-33720711D01*
X43083112Y-33925492D01*
X43184859Y-34060227D01*
X43328408Y-34149108D01*
X43450035Y-34171844D01*
X43450034Y-34962977D01*
X43242540Y-35011779D01*
X43111534Y-35110710D01*
X43025113Y-35250285D01*
X42994948Y-35411653D01*
X42994948Y-35878427D01*
X43041779Y-36077540D01*
X43140710Y-36208546D01*
X43280285Y-36294967D01*
X43450034Y-36326699D01*
X43450035Y-39136590D01*
X43228649Y-39208522D01*
X43184010Y-39026783D01*
X43143642Y-38980994D01*
X43142623Y-38978705D01*
X43134184Y-38970266D01*
X43094652Y-38925425D01*
X43086035Y-38922117D01*
X41885132Y-37721215D01*
X41885132Y-37459369D01*
X41836968Y-37254588D01*
X41735221Y-37119853D01*
X41591672Y-37030972D01*
X41425711Y-36999948D01*
X40784369Y-36999948D01*
X40579588Y-37048112D01*
X40444853Y-37149859D01*
X40355972Y-37293408D01*
X40324948Y-37459369D01*
X40324948Y-38474627D01*
X40181565Y-38428040D01*
X39990996Y-38428040D01*
X39835132Y-38478682D01*
X39835132Y-37459369D01*
X39786968Y-37254588D01*
X39685221Y-37119853D01*
X39541672Y-37030972D01*
X39375711Y-36999948D01*
X38734369Y-36999948D01*
X38529588Y-37048112D01*
X38394853Y-37149859D01*
X38305972Y-37293408D01*
X38274948Y-37459369D01*
X38274948Y-38350711D01*
X38323112Y-38555492D01*
X38424859Y-38690227D01*
X38568408Y-38779108D01*
X38780034Y-38818668D01*
X38780034Y-39048871D01*
X38772193Y-39089975D01*
X38779447Y-39106268D01*
X38804035Y-39206373D01*
X38844405Y-39252164D01*
X38845423Y-39254452D01*
X38853857Y-39262886D01*
X38893392Y-39307731D01*
X38902009Y-39311038D01*
X39274342Y-39683372D01*
X39246716Y-39782317D01*
X39114250Y-39814853D01*
X39068462Y-39855221D01*
X39066173Y-39856240D01*
X39057734Y-39864679D01*
X39012893Y-39904211D01*
X39009585Y-39912828D01*
X38313713Y-40608702D01*
X38212323Y-40540955D01*
X38133661Y-40525308D01*
X36583661Y-40525308D01*
X36505000Y-40540955D01*
X36438315Y-40585512D01*
X36393758Y-40652197D01*
X36378111Y-40730858D01*
X36378111Y-41330859D01*
X33059940Y-41330859D01*
X33116361Y-41183887D01*
X34071541Y-40228708D01*
X34106152Y-40205186D01*
X34112545Y-40188532D01*
X34165942Y-40100364D01*
X34169776Y-40039443D01*
X34170673Y-40037104D01*
X34170673Y-40025170D01*
X34174426Y-39965507D01*
X34170673Y-39957079D01*
X34170673Y-38479145D01*
X34178514Y-38438041D01*
X34171261Y-38421750D01*
X34144943Y-38314606D01*
X34268848Y-38221039D01*
X34357729Y-38077490D01*
X34388753Y-37911529D01*
X34388753Y-37020187D01*
X34340589Y-36815406D01*
X34219977Y-36655689D01*
X34268496Y-36558250D01*
X35001308Y-36558250D01*
X35041504Y-36678185D01*
X34998473Y-36710677D01*
X34909593Y-36854226D01*
X34878569Y-37020187D01*
X34878569Y-37911529D01*
X34926733Y-38116310D01*
X35028480Y-38251045D01*
X35172029Y-38339926D01*
X35383655Y-38379486D01*
X35383655Y-38956389D01*
X35375814Y-38997493D01*
X35383068Y-39013786D01*
X35407656Y-39113891D01*
X35448026Y-39159682D01*
X35449044Y-39161970D01*
X35457478Y-39170404D01*
X35497013Y-39215249D01*
X35505630Y-39218556D01*
X36223807Y-39936734D01*
X36247328Y-39971343D01*
X36263981Y-39977736D01*
X36374945Y-40044938D01*
X36393758Y-40139519D01*
X36438315Y-40206204D01*
X36505000Y-40250761D01*
X36583661Y-40266408D01*
X38133661Y-40266408D01*
X38212322Y-40250761D01*
X38279007Y-40206204D01*
X38323564Y-40139519D01*
X38339211Y-40060858D01*
X38339211Y-39460858D01*
X38323564Y-39382197D01*
X38279007Y-39315512D01*
X38212322Y-39270955D01*
X38133661Y-39255308D01*
X36583661Y-39255308D01*
X36505000Y-39270955D01*
X36403611Y-39338702D01*
X35933667Y-38868759D01*
X35933667Y-38381690D01*
X36184113Y-38322786D01*
X36318848Y-38221039D01*
X36407729Y-38077490D01*
X36438753Y-37911529D01*
X36438753Y-37020187D01*
X36390589Y-36815406D01*
X36269977Y-36655689D01*
X36318496Y-36558250D01*
X40912891Y-36558250D01*
X40921317Y-36561143D01*
X40998368Y-36558250D01*
X41030429Y-36558250D01*
X41038523Y-36556742D01*
X41089431Y-36554831D01*
X41110194Y-36543393D01*
X41153819Y-36535269D01*
X41297033Y-36446992D01*
X41329683Y-36404055D01*
X41473765Y-36259973D01*
X41530285Y-36294967D01*
X41691653Y-36325132D01*
X42258427Y-36325132D01*
X42457540Y-36278301D01*
X42588546Y-36179370D01*
X42674967Y-36039795D01*
X42705132Y-35878427D01*
X42705132Y-35411653D01*
X42658301Y-35212540D01*
X42559370Y-35081534D01*
X42419795Y-34995113D01*
X42258427Y-34964948D01*
X41691653Y-34964948D01*
X41492540Y-35011779D01*
X41361534Y-35110710D01*
X41287049Y-35231008D01*
X41149813Y-35306610D01*
X40801371Y-35655050D01*
X28790710Y-35655050D01*
X28672640Y-35536980D01*
X28672640Y-35478757D01*
X28613750Y-35297513D01*
X28501738Y-35143342D01*
X28347567Y-35031330D01*
X28166323Y-34972440D01*
X27975757Y-34972440D01*
X27794513Y-35031330D01*
X27640342Y-35143342D01*
X27528330Y-35297513D01*
X27469440Y-35478757D01*
X27469440Y-35669323D01*
X27528330Y-35850567D01*
X27640342Y-36004738D01*
X27794513Y-36116750D01*
X27975757Y-36175640D01*
X28033980Y-36175640D01*
X28181409Y-36323068D01*
X28230906Y-36372564D01*
X28234819Y-36380570D01*
X28291368Y-36433027D01*
X28314022Y-36455680D01*
X28320805Y-36460333D01*
X28358157Y-36494982D01*
X28380929Y-36501576D01*
X28417519Y-36526677D01*
X28581207Y-36565523D01*
X28634646Y-36558250D01*
X32951308Y-36558250D01*
X32991504Y-36678185D01*
X32948473Y-36710677D01*
X32908559Y-36775141D01*
X32825033Y-36787700D01*
X32814896Y-36792568D01*
X32803832Y-36794588D01*
X32780889Y-36808896D01*
X32634848Y-36879025D01*
X32565179Y-36943426D01*
X32561728Y-36945579D01*
X32548002Y-36959305D01*
X32479928Y-37022233D01*
X32472796Y-37034511D01*
X32119067Y-37388240D01*
X23196346Y-37388240D01*
X23132353Y-37380666D01*
X23039421Y-37397639D01*
X22946013Y-37411681D01*
X22935872Y-37416551D01*
X22924812Y-37418571D01*
X22901873Y-37432877D01*
X22755829Y-37503005D01*
X22686160Y-37567406D01*
X22682707Y-37569560D01*
X22668968Y-37583299D01*
X22600906Y-37646216D01*
X22593777Y-37658489D01*
X21364682Y-38887586D01*
X21314079Y-38927478D01*
X21260375Y-39005182D01*
X21204246Y-39081175D01*
X21200520Y-39091785D01*
X21194128Y-39101033D01*
X21188023Y-39127373D01*
X21134344Y-39280230D01*
X21130619Y-39375028D01*
X21129700Y-39378994D01*
X21129700Y-39398428D01*
X21126061Y-39491037D01*
X21129700Y-39504761D01*
X21129701Y-46699806D01*
X21153143Y-46855730D01*
X21244467Y-47045910D01*
X21387678Y-47200836D01*
X21570106Y-47306799D01*
X21775634Y-47354437D01*
X21986076Y-47339537D01*
X22182839Y-47263416D01*
X22348523Y-47132801D01*
X22468472Y-46959249D01*
X22532900Y-46681285D01*
X22532900Y-43775597D01*
X26764360Y-43775597D01*
X26764360Y-43966163D01*
X26823250Y-44147407D01*
X26935262Y-44301578D01*
X27089433Y-44413590D01*
X27270677Y-44472480D01*
X27461243Y-44472480D01*
X27642487Y-44413590D01*
X27796658Y-44301578D01*
X27908670Y-44147407D01*
X27967560Y-43966163D01*
X27967560Y-43775597D01*
X27908670Y-43594353D01*
X27796658Y-43440182D01*
X27642487Y-43328170D01*
X27461243Y-43269280D01*
X27270677Y-43269280D01*
X27089433Y-43328170D01*
X26935262Y-43440182D01*
X26823250Y-43594353D01*
X26764360Y-43775597D01*
X22532900Y-43775597D01*
X22532900Y-42988809D01*
X22654375Y-42949339D01*
X22703344Y-43016740D01*
X22857513Y-43128750D01*
X23038757Y-43187640D01*
X23229323Y-43187640D01*
X23410567Y-43128750D01*
X23564738Y-43016738D01*
X23616961Y-42944858D01*
X28245437Y-42944858D01*
X28245437Y-43013289D01*
X28314640Y-43331409D01*
X28432484Y-43514776D01*
X28597212Y-43657515D01*
X28795484Y-43748063D01*
X29011228Y-43779082D01*
X29204661Y-43779082D01*
X29204661Y-42944858D01*
X28245437Y-42944858D01*
X23616961Y-42944858D01*
X23676750Y-42862567D01*
X23735640Y-42681323D01*
X23735640Y-42490757D01*
X23706848Y-42402148D01*
X24228127Y-41880871D01*
X28400587Y-41880871D01*
X28276456Y-42152681D01*
X28245437Y-42368425D01*
X28245437Y-42436858D01*
X29712661Y-42436858D01*
X29712661Y-43779082D01*
X29906092Y-43779082D01*
X30224212Y-43709879D01*
X30399552Y-43597195D01*
X30498637Y-43720152D01*
X29976476Y-44242314D01*
X29941863Y-44265837D01*
X29935468Y-44282496D01*
X29882073Y-44370660D01*
X29878240Y-44431578D01*
X29877343Y-44433916D01*
X29877343Y-44445852D01*
X29873590Y-44505515D01*
X29877343Y-44513946D01*
X29877344Y-46096358D01*
X29877343Y-46096361D01*
X29877343Y-46139670D01*
X29721650Y-46252788D01*
X29609639Y-46406958D01*
X29525298Y-46666527D01*
X27790757Y-44931987D01*
X27767234Y-44897374D01*
X27750575Y-44890979D01*
X27662413Y-44837586D01*
X27601490Y-44833753D01*
X27599150Y-44832854D01*
X27587219Y-44832854D01*
X27527556Y-44829101D01*
X27519128Y-44832854D01*
X23911815Y-44832854D01*
X23798697Y-44677161D01*
X23644527Y-44565150D01*
X23463283Y-44506260D01*
X23272717Y-44506260D01*
X23091473Y-44565150D01*
X22937302Y-44677162D01*
X22825290Y-44831333D01*
X22766400Y-45012577D01*
X22766400Y-45203143D01*
X22825290Y-45384387D01*
X22937302Y-45538558D01*
X23091473Y-45650570D01*
X23272717Y-45709460D01*
X23463283Y-45709460D01*
X23644527Y-45650570D01*
X23798697Y-45538559D01*
X23911815Y-45382866D01*
X27463802Y-45382866D01*
X28706252Y-46625316D01*
X28661300Y-46733840D01*
X28469557Y-46733840D01*
X28288313Y-46792730D01*
X28134142Y-46904742D01*
X28022130Y-47058913D01*
X27963240Y-47240157D01*
X27963240Y-47430726D01*
X27995136Y-47528898D01*
X27824489Y-47566019D01*
X27641122Y-47683863D01*
X27498383Y-47848591D01*
X27407835Y-48046864D01*
X27376816Y-48262608D01*
X27376816Y-49081040D01*
X29653264Y-49081040D01*
X29653264Y-48262610D01*
X29584061Y-47944489D01*
X29466217Y-47761122D01*
X29301489Y-47618383D01*
X29130796Y-47540430D01*
X29166440Y-47430725D01*
X29166440Y-47238981D01*
X29274964Y-47194029D01*
X29615303Y-47534368D01*
X29638824Y-47568977D01*
X29655477Y-47575370D01*
X29743645Y-47628767D01*
X29804566Y-47632601D01*
X29806905Y-47633498D01*
X29818839Y-47633498D01*
X29878502Y-47637251D01*
X29886930Y-47633498D01*
X30146088Y-47633498D01*
X30196518Y-47722998D01*
X30144748Y-47808478D01*
X30140915Y-47869396D01*
X30140018Y-47871734D01*
X30140018Y-47883670D01*
X30136265Y-47943333D01*
X30140018Y-47951764D01*
X30140019Y-49704583D01*
X29761788Y-50082815D01*
X29653264Y-50037863D01*
X29653264Y-49589040D01*
X27376816Y-49589040D01*
X27376816Y-50407470D01*
X27431761Y-50660050D01*
X26657374Y-50660050D01*
X26616270Y-50652209D01*
X26599977Y-50659463D01*
X26499872Y-50684051D01*
X26454083Y-50724419D01*
X26451794Y-50725438D01*
X26443355Y-50733877D01*
X26398514Y-50773409D01*
X26395206Y-50782026D01*
X24144517Y-53032717D01*
X24097622Y-53079612D01*
X24009013Y-53050820D01*
X23818447Y-53050820D01*
X23637203Y-53109710D01*
X23483032Y-53221722D01*
X23371020Y-53375893D01*
X23312130Y-53557137D01*
X23312130Y-53747703D01*
X23371020Y-53928947D01*
X23483032Y-54083118D01*
X23637203Y-54195131D01*
X23810720Y-54251509D01*
X24270000Y-54710789D01*
X24706972Y-54273818D01*
X24641351Y-54235932D01*
X24459825Y-54176950D01*
X24390222Y-54169636D01*
X24348938Y-54076912D01*
X24456441Y-53928945D01*
X24515330Y-53747703D01*
X24515330Y-53557136D01*
X24491256Y-53483040D01*
X26935816Y-53483040D01*
X26935816Y-53676471D01*
X27005019Y-53994591D01*
X27122863Y-54177958D01*
X27287591Y-54320697D01*
X27485863Y-54411245D01*
X27701607Y-54442264D01*
X27770040Y-54442264D01*
X27770040Y-53483040D01*
X28278040Y-53483040D01*
X28278040Y-54442264D01*
X28346471Y-54442264D01*
X28664591Y-54373061D01*
X28847958Y-54255217D01*
X28990697Y-54090489D01*
X29081245Y-53892217D01*
X29112264Y-53676473D01*
X29112264Y-53483040D01*
X28278040Y-53483040D01*
X27770040Y-53483040D01*
X26935816Y-53483040D01*
X24491256Y-53483040D01*
X24486540Y-53468527D01*
X25173460Y-52781607D01*
X26935816Y-52781607D01*
X26935816Y-52975040D01*
X27770040Y-52975040D01*
X27770040Y-52015816D01*
X28278040Y-52015816D01*
X28278040Y-52975040D01*
X29112264Y-52975040D01*
X29112264Y-52781609D01*
X29043061Y-52463489D01*
X28925217Y-52280122D01*
X28760489Y-52137383D01*
X28562217Y-52046835D01*
X28346473Y-52015816D01*
X28278040Y-52015816D01*
X27770040Y-52015816D01*
X27701609Y-52015816D01*
X27383489Y-52085019D01*
X27200122Y-52202863D01*
X27057383Y-52367591D01*
X26966835Y-52565863D01*
X26935816Y-52781607D01*
X25173460Y-52781607D01*
X26745006Y-51210062D01*
X29272183Y-51210062D01*
X29313288Y-51217903D01*
X29329579Y-51210650D01*
X29429687Y-51186061D01*
X29475478Y-51145691D01*
X29477762Y-51144674D01*
X29486194Y-51136242D01*
X29531043Y-51096702D01*
X29534350Y-51088086D01*
X30376424Y-50246014D01*
X30484948Y-50290966D01*
X30484948Y-50405710D01*
X30533112Y-50610491D01*
X30634860Y-50745227D01*
X30778408Y-50834108D01*
X30944370Y-50865132D01*
X31685710Y-50865132D01*
X31890491Y-50816968D01*
X32025227Y-50715220D01*
X32114108Y-50571672D01*
X32145132Y-50405710D01*
X32145132Y-48985046D01*
X32255997Y-48985046D01*
X32297102Y-48992887D01*
X32313393Y-48985634D01*
X32413501Y-48961045D01*
X32459292Y-48920675D01*
X32461576Y-48919658D01*
X32470008Y-48911226D01*
X32514858Y-48871685D01*
X32518165Y-48863070D01*
X33024830Y-48356406D01*
X33109170Y-48615978D01*
X33221181Y-48770148D01*
X33376874Y-48883266D01*
X33376874Y-48937210D01*
X33369033Y-48978314D01*
X33376287Y-48994607D01*
X33400875Y-49094712D01*
X33441245Y-49140503D01*
X33442263Y-49142791D01*
X33450697Y-49151225D01*
X33490232Y-49196070D01*
X33498849Y-49199377D01*
X34329766Y-50030295D01*
X34329766Y-50167140D01*
X34377930Y-50371921D01*
X34479677Y-50506656D01*
X34623226Y-50595537D01*
X34789187Y-50626561D01*
X34923979Y-50626561D01*
X34948212Y-50654049D01*
X34956829Y-50657357D01*
X35426480Y-51127009D01*
X35391651Y-51230351D01*
X35310788Y-51241356D01*
X30985663Y-51241356D01*
X30977237Y-51238463D01*
X30900186Y-51241356D01*
X30868125Y-51241356D01*
X30860031Y-51242864D01*
X30809121Y-51244775D01*
X30788360Y-51256212D01*
X30744735Y-51264337D01*
X30601521Y-51352614D01*
X30568873Y-51395549D01*
X29725012Y-52239411D01*
X29650407Y-52348165D01*
X29548588Y-52372112D01*
X29413853Y-52473859D01*
X29324972Y-52617408D01*
X29293948Y-52783369D01*
X29293948Y-53674711D01*
X29342112Y-53879493D01*
X29372441Y-53919655D01*
X29372441Y-54072565D01*
X26796266Y-56648741D01*
X26689453Y-56607365D01*
X26683935Y-56488171D01*
X26634399Y-56282630D01*
X26546890Y-56090164D01*
X26424566Y-55917719D01*
X26271835Y-55771511D01*
X26094222Y-55656828D01*
X25898119Y-55577796D01*
X25674000Y-55545300D01*
X25674000Y-57771007D01*
X24408422Y-59036586D01*
X24357819Y-59076478D01*
X24304115Y-59154182D01*
X24247986Y-59230175D01*
X24244260Y-59240785D01*
X24237868Y-59250033D01*
X24231763Y-59276373D01*
X24178084Y-59429230D01*
X24174359Y-59524028D01*
X24173440Y-59527994D01*
X24173440Y-59547428D01*
X24169801Y-59640037D01*
X24173440Y-59653761D01*
X24173441Y-62256854D01*
X24173440Y-65959371D01*
X24165866Y-66023364D01*
X24182839Y-66116295D01*
X24195488Y-66200423D01*
X24074122Y-66255159D01*
X23923885Y-66076115D01*
X23749421Y-65929721D01*
X23552180Y-65815845D01*
X23338166Y-65737950D01*
X23113872Y-65698401D01*
X22886128Y-65698401D01*
X22661834Y-65737950D01*
X22447820Y-65815845D01*
X22250579Y-65929721D01*
X22076115Y-66076115D01*
X21929721Y-66250579D01*
X21815845Y-66447820D01*
X21737950Y-66661834D01*
X21698401Y-66886128D01*
X21698401Y-67113872D01*
X21737950Y-67338166D01*
X21815845Y-67552180D01*
X21929721Y-67749421D01*
X22076115Y-67923885D01*
X22250579Y-68070279D01*
X22447820Y-68184155D01*
X22661834Y-68262050D01*
X22886128Y-68301599D01*
X23113872Y-68301599D01*
X23338166Y-68262050D01*
X23552180Y-68184155D01*
X23749421Y-68070279D01*
X23923885Y-67923885D01*
X24070279Y-67749421D01*
X24184155Y-67552180D01*
X24262050Y-67338166D01*
X24301599Y-67113872D01*
X24301599Y-66886128D01*
X24262050Y-66661834D01*
X24212621Y-66526029D01*
X24335527Y-66451081D01*
X24431414Y-66554812D01*
X24443695Y-66561945D01*
X27028686Y-69146935D01*
X27298423Y-69416674D01*
X27338315Y-69467277D01*
X27416017Y-69520980D01*
X27492011Y-69577109D01*
X27502624Y-69580836D01*
X27511872Y-69587228D01*
X27538206Y-69593332D01*
X27710234Y-69653745D01*
X27685299Y-69800000D01*
X20367792Y-69800000D01*
X20366059Y-69577109D01*
X20267489Y-56899000D01*
X20729485Y-56899000D01*
X20755602Y-57007373D01*
X20843110Y-57199836D01*
X20965434Y-57372281D01*
X21118165Y-57518489D01*
X21295778Y-57633172D01*
X21491881Y-57712204D01*
X21716000Y-57744700D01*
X21716000Y-56899000D01*
X22224000Y-56899000D01*
X22224000Y-57749260D01*
X22342475Y-57737957D01*
X22545343Y-57678443D01*
X22733311Y-57581633D01*
X22899573Y-57451032D01*
X23038144Y-57291344D01*
X23144014Y-57108339D01*
X23213372Y-56908610D01*
X23214765Y-56899000D01*
X24179485Y-56899000D01*
X24205602Y-57007373D01*
X24293110Y-57199836D01*
X24415434Y-57372281D01*
X24568165Y-57518489D01*
X24745778Y-57633172D01*
X24941881Y-57712204D01*
X25166000Y-57744700D01*
X25166000Y-56899000D01*
X24179485Y-56899000D01*
X23214765Y-56899000D01*
X22224000Y-56899000D01*
X21716000Y-56899000D01*
X20729485Y-56899000D01*
X20267489Y-56899000D01*
X20263539Y-56391000D01*
X20725235Y-56391000D01*
X21716000Y-56391000D01*
X22224000Y-56391000D01*
X23210515Y-56391000D01*
X23184398Y-56282627D01*
X23096890Y-56090164D01*
X22974566Y-55917719D01*
X22920730Y-55866182D01*
X23833028Y-55866182D01*
X23898649Y-55904068D01*
X24080175Y-55963050D01*
X24355702Y-55992008D01*
X24245986Y-56181660D01*
X24176628Y-56381390D01*
X24175235Y-56391000D01*
X25166000Y-56391000D01*
X25166000Y-55540739D01*
X25049388Y-55551863D01*
X25138316Y-55352133D01*
X25177999Y-55165436D01*
X25177999Y-54974564D01*
X25138316Y-54787867D01*
X25068392Y-54630818D01*
X23833028Y-55866182D01*
X22920730Y-55866182D01*
X22821835Y-55771511D01*
X22644222Y-55656828D01*
X22448119Y-55577796D01*
X22224000Y-55545300D01*
X22224000Y-56391000D01*
X21716000Y-56391000D01*
X21716000Y-55540740D01*
X21597525Y-55552043D01*
X21394657Y-55611557D01*
X21206689Y-55708367D01*
X21040427Y-55838968D01*
X20901856Y-55998656D01*
X20795986Y-56181661D01*
X20726628Y-56381390D01*
X20725235Y-56391000D01*
X20263539Y-56391000D01*
X20252527Y-54974564D01*
X23362001Y-54974564D01*
X23362001Y-55165436D01*
X23401684Y-55352133D01*
X23471608Y-55509182D01*
X23910789Y-55070000D01*
X23471608Y-54630818D01*
X23401684Y-54787867D01*
X23362001Y-54974564D01*
X20252527Y-54974564D01*
X20221554Y-50990798D01*
X23668400Y-50990798D01*
X23668400Y-51149202D01*
X23709398Y-51302208D01*
X23788600Y-51439391D01*
X23900609Y-51551400D01*
X24037792Y-51630602D01*
X24190798Y-51671600D01*
X24349202Y-51671600D01*
X24502208Y-51630602D01*
X24639391Y-51551400D01*
X24751400Y-51439391D01*
X24830602Y-51302208D01*
X24871600Y-51149202D01*
X24871600Y-50990798D01*
X24830602Y-50837792D01*
X24751400Y-50700609D01*
X24645032Y-50594241D01*
X24724222Y-50474485D01*
X24941881Y-50562204D01*
X25166000Y-50594700D01*
X25166000Y-49749000D01*
X25674000Y-49749000D01*
X25674000Y-50599260D01*
X25792475Y-50587957D01*
X25995343Y-50528443D01*
X26183311Y-50431633D01*
X26349573Y-50301032D01*
X26488144Y-50141344D01*
X26594014Y-49958339D01*
X26663372Y-49758610D01*
X26664765Y-49749000D01*
X25674000Y-49749000D01*
X25166000Y-49749000D01*
X24179485Y-49749000D01*
X24205602Y-49857373D01*
X24293110Y-50049836D01*
X24415434Y-50222281D01*
X24599738Y-50398715D01*
X24532817Y-50517600D01*
X24349201Y-50468400D01*
X24190798Y-50468400D01*
X24037792Y-50509398D01*
X23900609Y-50588600D01*
X23788600Y-50700609D01*
X23709398Y-50837792D01*
X23668400Y-50990798D01*
X20221554Y-50990798D01*
X20211898Y-49749000D01*
X20729485Y-49749000D01*
X20755602Y-49857373D01*
X20843110Y-50049836D01*
X20965434Y-50222281D01*
X21118165Y-50368489D01*
X21295778Y-50483172D01*
X21491881Y-50562204D01*
X21716000Y-50594700D01*
X21716000Y-49749000D01*
X22224000Y-49749000D01*
X22224000Y-50599260D01*
X22342475Y-50587957D01*
X22545343Y-50528443D01*
X22733311Y-50431633D01*
X22899573Y-50301032D01*
X23038144Y-50141344D01*
X23144014Y-49958339D01*
X23213372Y-49758610D01*
X23214765Y-49749000D01*
X22224000Y-49749000D01*
X21716000Y-49749000D01*
X20729485Y-49749000D01*
X20211898Y-49749000D01*
X20207948Y-49241000D01*
X20725235Y-49241000D01*
X21716000Y-49241000D01*
X22224000Y-49241000D01*
X23210515Y-49241000D01*
X24175235Y-49241000D01*
X25166000Y-49241000D01*
X25674000Y-49241000D01*
X26660515Y-49241000D01*
X26634398Y-49132627D01*
X26546890Y-48940164D01*
X26424566Y-48767719D01*
X26271835Y-48621511D01*
X26094222Y-48506828D01*
X25898119Y-48427796D01*
X25674000Y-48395300D01*
X25674000Y-49241000D01*
X25166000Y-49241000D01*
X25166000Y-48390740D01*
X25047525Y-48402043D01*
X24844657Y-48461557D01*
X24656689Y-48558367D01*
X24490427Y-48688968D01*
X24351856Y-48848656D01*
X24245986Y-49031661D01*
X24176628Y-49231390D01*
X24175235Y-49241000D01*
X23210515Y-49241000D01*
X23184398Y-49132627D01*
X23096890Y-48940164D01*
X22974566Y-48767719D01*
X22821835Y-48621511D01*
X22644222Y-48506828D01*
X22448119Y-48427796D01*
X22224000Y-48395300D01*
X22224000Y-49241000D01*
X21716000Y-49241000D01*
X21716000Y-48390740D01*
X21597525Y-48402043D01*
X21394657Y-48461557D01*
X21206689Y-48558367D01*
X21040427Y-48688968D01*
X20901856Y-48848656D01*
X20795986Y-49031661D01*
X20726628Y-49231390D01*
X20725235Y-49241000D01*
X20207948Y-49241000D01*
X20200000Y-48218824D01*
X20200000Y-47593217D01*
X23927180Y-47593217D01*
X23927180Y-47783783D01*
X23986070Y-47965027D01*
X24098082Y-48119198D01*
X24252253Y-48231210D01*
X24433497Y-48290100D01*
X24624063Y-48290100D01*
X24805307Y-48231210D01*
X24959478Y-48119198D01*
X25071490Y-47965027D01*
X25130380Y-47783783D01*
X25130380Y-47593217D01*
X25071490Y-47411973D01*
X24959478Y-47257802D01*
X24805307Y-47145790D01*
X24624063Y-47086900D01*
X24433497Y-47086900D01*
X24252253Y-47145790D01*
X24098082Y-47257802D01*
X23986070Y-47411973D01*
X23927180Y-47593217D01*
X20200000Y-47593217D01*
X20200000Y-34128435D01*
X21028353Y-34128435D01*
X21047129Y-34302688D01*
X21105490Y-34467952D01*
X21200299Y-34615351D01*
X21326479Y-34736989D01*
X21477252Y-34826333D01*
X21644543Y-34878599D01*
X21819369Y-34890976D01*
X21992347Y-34862806D01*
X22154211Y-34795594D01*
X22296272Y-34692949D01*
X22410904Y-34560379D01*
X22491968Y-34404987D01*
X22535108Y-34235124D01*
X22536741Y-34048063D01*
X22496571Y-33877470D01*
X22418233Y-33720690D01*
X22305928Y-33586138D01*
X22165684Y-33481030D01*
X22005017Y-33411003D01*
X21832554Y-33379816D01*
X21657542Y-33389142D01*
X21489369Y-33438479D01*
X21337051Y-33525183D01*
X21208771Y-33644596D01*
X21111401Y-33790321D01*
X21050167Y-33954538D01*
X21028353Y-34128435D01*
X20200000Y-34128435D01*
X20200000Y-31588435D01*
X21028353Y-31588435D01*
X21047129Y-31762688D01*
X21105490Y-31927952D01*
X21200299Y-32075351D01*
X21326479Y-32196989D01*
X21477252Y-32286333D01*
X21644543Y-32338599D01*
X21819369Y-32350976D01*
X21992347Y-32322806D01*
X22154211Y-32255594D01*
X22296272Y-32152949D01*
X22410904Y-32020379D01*
X22491968Y-31864987D01*
X22535108Y-31695124D01*
X22536741Y-31508063D01*
X22496571Y-31337470D01*
X22418233Y-31180690D01*
X22305928Y-31046138D01*
X22165684Y-30941030D01*
X22005017Y-30871003D01*
X21832554Y-30839816D01*
X21657542Y-30849142D01*
X21489369Y-30898479D01*
X21337051Y-30985183D01*
X21208771Y-31104596D01*
X21111401Y-31250321D01*
X21050167Y-31414538D01*
X21028353Y-31588435D01*
X20200000Y-31588435D01*
X20200000Y-30495040D01*
X23019490Y-30495040D01*
X23019490Y-32695040D01*
X23035137Y-32773701D01*
X23079694Y-32840386D01*
X23146379Y-32884943D01*
X23225040Y-32900590D01*
X23599374Y-32900590D01*
X23634286Y-33030892D01*
X23575619Y-33064762D01*
X23401155Y-33211155D01*
X23254761Y-33385619D01*
X23140885Y-33582860D01*
X23062990Y-33796874D01*
X23023441Y-34021168D01*
X23023441Y-34248912D01*
X23062990Y-34473206D01*
X23140885Y-34687220D01*
X23254761Y-34884461D01*
X23401155Y-35058925D01*
X23575619Y-35205319D01*
X23772860Y-35319195D01*
X23986874Y-35397090D01*
X24211168Y-35436639D01*
X24438912Y-35436639D01*
X24663206Y-35397090D01*
X24877220Y-35319195D01*
X25074461Y-35205319D01*
X25248925Y-35058925D01*
X25395319Y-34884461D01*
X25509195Y-34687220D01*
X25587090Y-34473206D01*
X25626639Y-34248912D01*
X25626639Y-34021168D01*
X25618954Y-33977579D01*
X34556700Y-33977579D01*
X39898320Y-34030919D01*
X39898320Y-33529040D01*
X40676816Y-33529040D01*
X40676816Y-33722471D01*
X40746019Y-34040591D01*
X40863863Y-34223958D01*
X41028591Y-34366697D01*
X41226863Y-34457245D01*
X41442607Y-34488264D01*
X41511040Y-34488264D01*
X41511040Y-33529040D01*
X42019040Y-33529040D01*
X42019040Y-34488264D01*
X42087471Y-34488264D01*
X42405591Y-34419061D01*
X42588958Y-34301217D01*
X42731697Y-34136489D01*
X42822245Y-33938217D01*
X42853264Y-33722473D01*
X42853264Y-33529040D01*
X42019040Y-33529040D01*
X41511040Y-33529040D01*
X40676816Y-33529040D01*
X39898320Y-33529040D01*
X39898320Y-32827607D01*
X40676816Y-32827607D01*
X40676816Y-33021040D01*
X42853264Y-33021040D01*
X42853264Y-32827609D01*
X42784061Y-32509489D01*
X42666216Y-32326120D01*
X42462046Y-32149206D01*
X42598959Y-32061218D01*
X42741696Y-31896491D01*
X42832245Y-31698217D01*
X42863264Y-31482473D01*
X42863264Y-31289040D01*
X40686816Y-31289040D01*
X40686816Y-31482471D01*
X40756019Y-31800591D01*
X40873864Y-31983960D01*
X41078034Y-32160874D01*
X40941121Y-32248862D01*
X40798384Y-32413589D01*
X40707835Y-32611863D01*
X40676816Y-32827607D01*
X39898320Y-32827607D01*
X39898320Y-31810960D01*
X34582101Y-31854140D01*
X34556700Y-33977579D01*
X25618954Y-33977579D01*
X25587090Y-33796874D01*
X25509195Y-33582860D01*
X25395319Y-33385619D01*
X25248925Y-33211155D01*
X25074461Y-33064762D01*
X25015794Y-33030892D01*
X25050706Y-32900590D01*
X25425040Y-32900590D01*
X25503701Y-32884943D01*
X25570386Y-32840386D01*
X25614943Y-32773701D01*
X25630590Y-32695040D01*
X25630590Y-30495040D01*
X25614943Y-30416379D01*
X25570386Y-30349694D01*
X25503701Y-30305137D01*
X25425040Y-30289490D01*
X23225040Y-30289490D01*
X23146379Y-30305137D01*
X23079694Y-30349694D01*
X23035137Y-30416379D01*
X23019490Y-30495040D01*
X20200000Y-30495040D01*
X20200000Y-27942540D01*
X33027676Y-27942540D01*
X33027676Y-28135971D01*
X33096879Y-28454091D01*
X33214723Y-28637458D01*
X33379451Y-28780197D01*
X33577723Y-28870745D01*
X33793467Y-28901764D01*
X33861900Y-28901764D01*
X33861900Y-27942540D01*
X34369900Y-27942540D01*
X34369900Y-28901764D01*
X34438331Y-28901764D01*
X34756451Y-28832561D01*
X34939818Y-28714717D01*
X35082557Y-28549989D01*
X35173105Y-28351717D01*
X35204124Y-28135973D01*
X35204124Y-27942540D01*
X34369900Y-27942540D01*
X33861900Y-27942540D01*
X33027676Y-27942540D01*
X20200000Y-27942540D01*
X20200000Y-27241107D01*
X33027676Y-27241107D01*
X33027676Y-27434540D01*
X33861900Y-27434540D01*
X33861900Y-26475316D01*
X34369900Y-26475316D01*
X34369900Y-27434540D01*
X35204124Y-27434540D01*
X35204124Y-27241109D01*
X35134921Y-26922989D01*
X35017077Y-26739622D01*
X34852349Y-26596883D01*
X34654077Y-26506335D01*
X34438333Y-26475316D01*
X34369900Y-26475316D01*
X33861900Y-26475316D01*
X33793469Y-26475316D01*
X33475349Y-26544519D01*
X33291982Y-26662363D01*
X33149243Y-26827091D01*
X33058695Y-27025363D01*
X33027676Y-27241107D01*
X20200000Y-27241107D01*
X20200000Y-22886128D01*
X21698401Y-22886128D01*
X21698401Y-23113872D01*
X21737950Y-23338166D01*
X21815845Y-23552180D01*
X21929721Y-23749421D01*
X22076115Y-23923885D01*
X22250579Y-24070279D01*
X22447820Y-24184155D01*
X22661834Y-24262050D01*
X22886128Y-24301599D01*
X23113872Y-24301599D01*
X23338166Y-24262050D01*
X23552180Y-24184155D01*
X23749421Y-24070279D01*
X23923885Y-23923885D01*
X24070279Y-23749421D01*
X24184155Y-23552180D01*
X24262050Y-23338166D01*
X24301599Y-23113872D01*
X24301599Y-22886128D01*
X24262050Y-22661834D01*
X24184155Y-22447820D01*
X24070279Y-22250579D01*
X23923885Y-22076115D01*
X23770061Y-21947040D01*
X27115490Y-21947040D01*
X27115490Y-23447040D01*
X27131137Y-23525701D01*
X27175694Y-23592386D01*
X27242379Y-23636943D01*
X27321040Y-23652590D01*
X27619440Y-23652590D01*
X27619440Y-23871501D01*
X27616547Y-23879927D01*
X27619440Y-23956978D01*
X27619440Y-23989038D01*
X27620948Y-23997132D01*
X27622859Y-24048041D01*
X27634296Y-24068802D01*
X27642421Y-24112429D01*
X27730697Y-24255642D01*
X27773633Y-24288291D01*
X28336297Y-24850957D01*
X28340209Y-24858960D01*
X28396744Y-24911404D01*
X28419409Y-24934068D01*
X28426195Y-24938723D01*
X28463547Y-24973372D01*
X28486318Y-24979966D01*
X28522908Y-25005067D01*
X28686596Y-25043913D01*
X28740036Y-25036640D01*
X33148444Y-25036640D01*
X33270711Y-25198547D01*
X33410285Y-25284967D01*
X33571653Y-25315132D01*
X34038427Y-25315132D01*
X34237540Y-25268301D01*
X34368546Y-25169370D01*
X34454967Y-25029795D01*
X34485132Y-24868427D01*
X34485132Y-24301653D01*
X34438301Y-24102540D01*
X34339370Y-23971534D01*
X34199795Y-23885113D01*
X34038427Y-23854948D01*
X33571653Y-23854948D01*
X33372540Y-23901779D01*
X33241534Y-24000710D01*
X33159351Y-24133440D01*
X28896099Y-24133440D01*
X28523773Y-23761114D01*
X28568725Y-23652590D01*
X28821040Y-23652590D01*
X28899701Y-23636943D01*
X28966386Y-23592386D01*
X29010943Y-23525701D01*
X29026590Y-23447040D01*
X29026590Y-22779373D01*
X33097703Y-22779373D01*
X33112603Y-22989817D01*
X33124948Y-23021726D01*
X33124948Y-23118427D01*
X33171779Y-23317540D01*
X33270710Y-23448546D01*
X33410285Y-23534967D01*
X33571653Y-23565132D01*
X34038427Y-23565132D01*
X34159566Y-23536640D01*
X35663440Y-23536640D01*
X35663440Y-24492089D01*
X35585972Y-24617206D01*
X35554948Y-24783167D01*
X35554948Y-25674509D01*
X35603112Y-25879289D01*
X35663441Y-25959179D01*
X35663441Y-26814248D01*
X35505712Y-26933360D01*
X35416832Y-27076908D01*
X35385808Y-27242869D01*
X35385808Y-28134211D01*
X35433972Y-28338992D01*
X35535719Y-28473727D01*
X35679268Y-28562608D01*
X35845229Y-28593632D01*
X36486571Y-28593632D01*
X36691352Y-28545468D01*
X36894107Y-28392356D01*
X37548425Y-29046675D01*
X37588314Y-29097276D01*
X37666019Y-29150981D01*
X37742012Y-29207110D01*
X37752622Y-29210836D01*
X37761871Y-29217228D01*
X37788210Y-29223334D01*
X37878510Y-29255045D01*
X37878510Y-29378340D01*
X37894157Y-29457001D01*
X37938714Y-29523686D01*
X38005399Y-29568243D01*
X38084060Y-29583890D01*
X39584060Y-29583890D01*
X39662721Y-29568243D01*
X39729406Y-29523686D01*
X39773963Y-29457001D01*
X39789610Y-29378340D01*
X39789610Y-29029040D01*
X40596816Y-29029040D01*
X40596816Y-29222471D01*
X40666019Y-29540591D01*
X40783863Y-29723958D01*
X41043864Y-29949252D01*
X40951125Y-30008860D01*
X40808383Y-30173591D01*
X40717835Y-30371863D01*
X40686816Y-30587607D01*
X40686816Y-30781040D01*
X42863264Y-30781040D01*
X42863264Y-30587609D01*
X42794061Y-30269489D01*
X42676217Y-30086122D01*
X42416216Y-29860828D01*
X42508955Y-29801220D01*
X42651697Y-29636489D01*
X42742245Y-29438217D01*
X42773264Y-29222473D01*
X42773264Y-29029040D01*
X40596816Y-29029040D01*
X39789610Y-29029040D01*
X39789610Y-28327607D01*
X40596816Y-28327607D01*
X40596816Y-28521040D01*
X41431040Y-28521040D01*
X41431040Y-27561816D01*
X41939040Y-27561816D01*
X41939040Y-28521040D01*
X42773264Y-28521040D01*
X42773264Y-28327609D01*
X42704061Y-28009489D01*
X42586217Y-27826122D01*
X42421489Y-27683383D01*
X42223217Y-27592835D01*
X42007473Y-27561816D01*
X41939040Y-27561816D01*
X41431040Y-27561816D01*
X41362609Y-27561816D01*
X41044489Y-27631019D01*
X40861122Y-27748863D01*
X40718383Y-27913591D01*
X40627835Y-28111863D01*
X40596816Y-28327607D01*
X39789610Y-28327607D01*
X39789610Y-27878340D01*
X39773963Y-27799679D01*
X39729406Y-27732994D01*
X39662721Y-27688437D01*
X39584060Y-27672790D01*
X38158965Y-27672790D01*
X37708103Y-27221929D01*
X37668204Y-27171318D01*
X37590484Y-27117604D01*
X37514508Y-27061486D01*
X37503897Y-27057759D01*
X37494649Y-27051368D01*
X37468313Y-27045263D01*
X37315452Y-26991584D01*
X37220656Y-26987859D01*
X37216689Y-26986940D01*
X37197253Y-26986940D01*
X37066640Y-26981808D01*
X37066640Y-25868681D01*
X37084108Y-25840468D01*
X37115132Y-25674509D01*
X37115132Y-25482838D01*
X37296816Y-25482838D01*
X37296816Y-25676269D01*
X37366019Y-25994389D01*
X37483863Y-26177756D01*
X37648591Y-26320495D01*
X37846863Y-26411043D01*
X38062607Y-26442062D01*
X38131040Y-26442062D01*
X38131040Y-25482838D01*
X38639040Y-25482838D01*
X38639040Y-26442062D01*
X38707471Y-26442062D01*
X39025591Y-26372859D01*
X39208958Y-26255015D01*
X39351697Y-26090287D01*
X39442245Y-25892015D01*
X39473264Y-25676271D01*
X39473264Y-25482838D01*
X38639040Y-25482838D01*
X38131040Y-25482838D01*
X37296816Y-25482838D01*
X37115132Y-25482838D01*
X37115132Y-24783167D01*
X37066640Y-24576992D01*
X37066640Y-23513335D01*
X37114108Y-23436672D01*
X37145132Y-23270711D01*
X37145132Y-22379369D01*
X37144718Y-22377607D01*
X37326816Y-22377607D01*
X37326816Y-22571040D01*
X38161040Y-22571040D01*
X38161040Y-21611816D01*
X38092609Y-21611816D01*
X37774489Y-21681019D01*
X37591122Y-21798863D01*
X37448383Y-21963591D01*
X37357835Y-22161863D01*
X37326816Y-22377607D01*
X37144718Y-22377607D01*
X37096968Y-22174588D01*
X36995221Y-22039853D01*
X36851672Y-21950972D01*
X36685711Y-21919948D01*
X36044369Y-21919948D01*
X35839590Y-21968111D01*
X35704852Y-22069861D01*
X35665486Y-22133440D01*
X34190844Y-22133440D01*
X34038427Y-22104948D01*
X33571653Y-22104948D01*
X33372540Y-22151779D01*
X33241534Y-22250710D01*
X33155113Y-22390285D01*
X33124948Y-22551653D01*
X33124948Y-22661827D01*
X33097703Y-22779373D01*
X29026590Y-22779373D01*
X29026590Y-21947040D01*
X29010943Y-21868379D01*
X28966386Y-21801694D01*
X28899701Y-21757137D01*
X28821040Y-21741490D01*
X27321040Y-21741490D01*
X27242379Y-21757137D01*
X27175694Y-21801694D01*
X27131137Y-21868379D01*
X27115490Y-21947040D01*
X23770061Y-21947040D01*
X23749421Y-21929721D01*
X23552180Y-21815845D01*
X23338166Y-21737950D01*
X23113872Y-21698401D01*
X22886128Y-21698401D01*
X22661834Y-21737950D01*
X22447820Y-21815845D01*
X22250579Y-21929721D01*
X22076115Y-22076115D01*
X21929721Y-22250579D01*
X21815845Y-22447820D01*
X21737950Y-22661834D01*
X21698401Y-22886128D01*
X20200000Y-22886128D01*
X20200000Y-20202840D01*
X22124834Y-20200000D01*
X69800001Y-20200000D01*
X69800000Y-58658482D01*
X69800000Y-58658482D01*
G37*
G36*
X40052721Y-51640436D02*
G01*
X40076241Y-51675044D01*
X40092895Y-51681437D01*
X40181062Y-51734834D01*
X40241985Y-51738667D01*
X40244327Y-51739566D01*
X40256263Y-51739566D01*
X40315920Y-51743319D01*
X40324348Y-51739566D01*
X40796712Y-51739566D01*
X40746907Y-51892846D01*
X40746907Y-52083412D01*
X40775699Y-52172021D01*
X40272789Y-52674930D01*
X40238176Y-52698453D01*
X40231781Y-52715112D01*
X40178386Y-52803276D01*
X40174553Y-52864194D01*
X40173656Y-52866532D01*
X40173656Y-52878468D01*
X40169903Y-52938131D01*
X40173656Y-52946562D01*
X40173657Y-56294836D01*
X40165815Y-56335944D01*
X40173070Y-56352238D01*
X40197658Y-56452345D01*
X40238025Y-56498132D01*
X40239044Y-56500421D01*
X40247484Y-56508861D01*
X40287017Y-56553702D01*
X40295632Y-56557010D01*
X40795531Y-57056909D01*
X40819052Y-57091518D01*
X40835705Y-57097911D01*
X40923872Y-57151308D01*
X40984797Y-57155141D01*
X40987136Y-57156039D01*
X40999057Y-57156039D01*
X41058729Y-57159793D01*
X41067160Y-57156039D01*
X41471087Y-57156039D01*
X41556738Y-57241692D01*
X41581739Y-57343478D01*
X41622109Y-57389267D01*
X41623128Y-57391556D01*
X41631556Y-57399984D01*
X41696955Y-57474165D01*
X41648239Y-57624099D01*
X41648239Y-57814665D01*
X41707129Y-57995909D01*
X41819141Y-58150080D01*
X41973312Y-58262092D01*
X42154556Y-58320982D01*
X42345122Y-58320982D01*
X42526364Y-58262093D01*
X42667978Y-58159206D01*
X42838203Y-58393499D01*
X42992373Y-58505510D01*
X43173617Y-58564400D01*
X43364183Y-58564400D01*
X43545425Y-58505511D01*
X43607393Y-58460489D01*
X43703381Y-58509398D01*
X43703382Y-60249490D01*
X42895040Y-60249490D01*
X42816379Y-60265137D01*
X42749694Y-60309694D01*
X42705137Y-60376379D01*
X42689490Y-60455040D01*
X42689490Y-60507355D01*
X42580966Y-60552307D01*
X41921293Y-59892635D01*
X41917380Y-59884629D01*
X41860831Y-59832172D01*
X41838177Y-59809519D01*
X41831394Y-59804866D01*
X41794042Y-59770217D01*
X41771270Y-59763623D01*
X41734680Y-59738522D01*
X41570991Y-59699676D01*
X41517552Y-59706949D01*
X40833237Y-59706949D01*
X40815867Y-59633098D01*
X40714118Y-59498361D01*
X40570570Y-59409481D01*
X40404609Y-59378457D01*
X39513267Y-59378457D01*
X39308486Y-59426621D01*
X39173751Y-59528368D01*
X39084870Y-59671917D01*
X39053846Y-59837878D01*
X39053846Y-60424982D01*
X38148199Y-61330629D01*
X37721608Y-61330629D01*
X37721608Y-61051454D01*
X37837769Y-61051454D01*
X38019013Y-60992564D01*
X38173184Y-60880552D01*
X38285196Y-60726381D01*
X38344086Y-60545137D01*
X38344086Y-60354571D01*
X38285196Y-60173327D01*
X38173184Y-60019156D01*
X38019013Y-59907144D01*
X37837769Y-59848254D01*
X37647203Y-59848254D01*
X37465959Y-59907144D01*
X37311788Y-60019156D01*
X37199776Y-60173327D01*
X37150194Y-60325924D01*
X37001895Y-60302436D01*
X37001895Y-59336229D01*
X35565058Y-59336229D01*
X35565058Y-60818888D01*
X35500713Y-60861883D01*
X35456155Y-60928568D01*
X35440508Y-61007229D01*
X35440508Y-62557229D01*
X35456155Y-62635890D01*
X35500712Y-62702575D01*
X35567397Y-62747132D01*
X35646058Y-62762779D01*
X36062690Y-62762779D01*
X36179828Y-62879917D01*
X36203349Y-62914526D01*
X36220002Y-62920919D01*
X36308169Y-62974316D01*
X36369094Y-62978149D01*
X36371433Y-62979047D01*
X36383354Y-62979047D01*
X36458685Y-62983786D01*
X37960035Y-64485137D01*
X37960034Y-65644948D01*
X37789369Y-65644948D01*
X37584588Y-65693112D01*
X37449853Y-65794859D01*
X37360972Y-65938408D01*
X37329948Y-66104369D01*
X37329948Y-66745711D01*
X37378112Y-66950492D01*
X37479859Y-67085227D01*
X37576927Y-67145329D01*
X37540596Y-67273019D01*
X36769349Y-67273019D01*
X36801150Y-67102900D01*
X36801150Y-66461558D01*
X36752986Y-66256777D01*
X36651239Y-66122042D01*
X36507690Y-66033161D01*
X36341729Y-66002137D01*
X35450387Y-66002137D01*
X35245606Y-66050301D01*
X35110871Y-66152048D01*
X35021990Y-66295597D01*
X34982430Y-66507223D01*
X34611890Y-66507223D01*
X34552986Y-66256777D01*
X34451239Y-66122042D01*
X34307690Y-66033161D01*
X34141729Y-66002137D01*
X33250387Y-66002137D01*
X33045606Y-66050301D01*
X32910871Y-66152048D01*
X32821990Y-66295597D01*
X32790966Y-66461558D01*
X32790966Y-67102900D01*
X32866727Y-67425017D01*
X32682764Y-67425017D01*
X32001911Y-66744165D01*
X32196246Y-66597409D01*
X32285126Y-66453861D01*
X32316150Y-66287900D01*
X32316150Y-65646558D01*
X32267986Y-65441777D01*
X32166239Y-65307042D01*
X32022690Y-65218161D01*
X31856729Y-65187137D01*
X30965387Y-65187137D01*
X30760606Y-65235301D01*
X30625871Y-65337048D01*
X30536990Y-65480597D01*
X30505966Y-65646558D01*
X30505966Y-66287900D01*
X30554130Y-66492681D01*
X30655877Y-66627416D01*
X30799426Y-66716297D01*
X30965387Y-66747321D01*
X31225179Y-66747321D01*
X31249412Y-66774809D01*
X31258029Y-66778117D01*
X32144827Y-67664916D01*
X32099875Y-67773440D01*
X28982784Y-67773440D01*
X28918791Y-67765866D01*
X28825859Y-67782839D01*
X28732451Y-67796881D01*
X28722310Y-67801751D01*
X28711250Y-67803771D01*
X28688311Y-67818077D01*
X28542267Y-67888205D01*
X28472598Y-67952606D01*
X28469145Y-67954760D01*
X28455406Y-67968499D01*
X28387343Y-68031416D01*
X28380213Y-68043691D01*
X28145039Y-68278865D01*
X25576640Y-65710466D01*
X25576640Y-60291040D01*
X26022490Y-60291040D01*
X26022490Y-61791040D01*
X26038137Y-61869701D01*
X26082694Y-61936386D01*
X26149379Y-61980943D01*
X26228040Y-61996590D01*
X27728040Y-61996590D01*
X27806701Y-61980943D01*
X27873386Y-61936386D01*
X27917943Y-61869701D01*
X27933590Y-61791040D01*
X27933590Y-61561558D01*
X30485966Y-61561558D01*
X30485966Y-62202900D01*
X30534130Y-62407681D01*
X30635877Y-62542416D01*
X30779426Y-62631297D01*
X30945387Y-62662321D01*
X31136053Y-62662321D01*
X31136052Y-63137137D01*
X30965387Y-63137137D01*
X30760606Y-63185301D01*
X30625871Y-63287048D01*
X30536990Y-63430597D01*
X30505966Y-63596558D01*
X30505966Y-64237900D01*
X30554130Y-64442681D01*
X30655877Y-64577416D01*
X30799426Y-64666297D01*
X30965387Y-64697321D01*
X31856729Y-64697321D01*
X32061510Y-64649157D01*
X32196245Y-64547410D01*
X32285126Y-64403861D01*
X32316150Y-64237900D01*
X32316150Y-63596558D01*
X32267986Y-63391777D01*
X32166239Y-63257042D01*
X32022690Y-63168161D01*
X31856729Y-63137137D01*
X31686064Y-63137137D01*
X31686064Y-62662321D01*
X31836729Y-62662321D01*
X32041510Y-62614157D01*
X32176245Y-62512410D01*
X32265126Y-62368861D01*
X32304686Y-62157235D01*
X32900508Y-62157235D01*
X32900508Y-62557229D01*
X32916155Y-62635890D01*
X32960712Y-62702575D01*
X33027397Y-62747132D01*
X33106058Y-62762779D01*
X33706058Y-62762779D01*
X33784719Y-62747132D01*
X33851404Y-62702575D01*
X33895961Y-62635890D01*
X33911608Y-62557229D01*
X33911608Y-61007229D01*
X33895961Y-60928568D01*
X33828221Y-60827190D01*
X33891657Y-60729971D01*
X34273829Y-60797359D01*
X34186155Y-60928570D01*
X34170508Y-61007229D01*
X34170508Y-62557229D01*
X34186155Y-62635890D01*
X34230712Y-62702575D01*
X34297397Y-62747132D01*
X34401052Y-62767750D01*
X34401052Y-63063317D01*
X33512233Y-63952137D01*
X33250387Y-63952137D01*
X33045606Y-64000301D01*
X32910871Y-64102048D01*
X32821990Y-64245597D01*
X32790966Y-64411558D01*
X32790966Y-65052900D01*
X32839130Y-65257681D01*
X32940877Y-65392416D01*
X33084426Y-65481297D01*
X33250387Y-65512321D01*
X34141729Y-65512321D01*
X34346510Y-65464157D01*
X34481245Y-65362410D01*
X34596741Y-65175875D01*
X34713568Y-65195940D01*
X34752037Y-65372780D01*
X34869881Y-65556147D01*
X35034609Y-65698886D01*
X35232881Y-65789434D01*
X35448625Y-65820453D01*
X35642058Y-65820453D01*
X35642058Y-64986229D01*
X36150058Y-64986229D01*
X36150058Y-65820453D01*
X36343489Y-65820453D01*
X36661609Y-65751250D01*
X36844976Y-65633406D01*
X36987715Y-65468678D01*
X37078263Y-65270406D01*
X37109282Y-65054662D01*
X37109282Y-64986229D01*
X36150058Y-64986229D01*
X35642058Y-64986229D01*
X35642058Y-63644005D01*
X36150058Y-63644005D01*
X36150058Y-64478229D01*
X37109282Y-64478229D01*
X37109282Y-64409798D01*
X37040079Y-64091678D01*
X36922235Y-63908311D01*
X36757507Y-63765572D01*
X36559235Y-63675024D01*
X36343491Y-63644005D01*
X36150058Y-63644005D01*
X35642058Y-63644005D01*
X35448627Y-63644005D01*
X35130507Y-63713208D01*
X34947140Y-63831052D01*
X34804401Y-63995780D01*
X34649608Y-64334728D01*
X34451239Y-64072042D01*
X34277646Y-63964558D01*
X34851932Y-63390273D01*
X34886543Y-63366751D01*
X34892936Y-63350097D01*
X34946333Y-63261929D01*
X34950167Y-63201008D01*
X34951064Y-63198669D01*
X34951064Y-63186735D01*
X34954817Y-63127072D01*
X34951064Y-63118644D01*
X34951064Y-62767750D01*
X35054719Y-62747132D01*
X35121404Y-62702575D01*
X35165961Y-62635890D01*
X35181608Y-62557229D01*
X35181608Y-61007229D01*
X35165961Y-60928568D01*
X35121403Y-60861883D01*
X35057058Y-60818888D01*
X35057058Y-59336229D01*
X33620221Y-59336229D01*
X33620221Y-60257228D01*
X33689331Y-60515149D01*
X33853932Y-60711313D01*
X33790493Y-60818475D01*
X33706058Y-60801679D01*
X33106058Y-60801679D01*
X33027397Y-60817326D01*
X32960712Y-60861883D01*
X32916155Y-60928568D01*
X32900508Y-61007229D01*
X32900508Y-61607223D01*
X32306890Y-61607223D01*
X32247986Y-61356777D01*
X32146239Y-61222042D01*
X32002690Y-61133161D01*
X31836729Y-61102137D01*
X30945387Y-61102137D01*
X30740606Y-61150301D01*
X30605871Y-61252048D01*
X30516990Y-61395597D01*
X30485966Y-61561558D01*
X27933590Y-61561558D01*
X27933590Y-60291040D01*
X27917943Y-60212379D01*
X27873386Y-60145694D01*
X27806701Y-60101137D01*
X27731756Y-60086229D01*
X30177834Y-60086229D01*
X30177834Y-60154660D01*
X30247037Y-60472780D01*
X30364881Y-60656147D01*
X30529609Y-60798886D01*
X30727881Y-60889434D01*
X30943625Y-60920453D01*
X31137058Y-60920453D01*
X31137058Y-60086229D01*
X31645058Y-60086229D01*
X31645058Y-60920453D01*
X31838489Y-60920453D01*
X32156609Y-60851250D01*
X32339976Y-60733406D01*
X32482715Y-60568678D01*
X32573263Y-60370406D01*
X32604282Y-60154662D01*
X32604282Y-60086229D01*
X31645058Y-60086229D01*
X31137058Y-60086229D01*
X30177834Y-60086229D01*
X27731756Y-60086229D01*
X27728040Y-60085490D01*
X26228040Y-60085490D01*
X26149379Y-60101137D01*
X26082694Y-60145694D01*
X26038137Y-60212379D01*
X26022490Y-60291040D01*
X25576640Y-60291040D01*
X25576640Y-59852792D01*
X25919636Y-59509796D01*
X30177834Y-59509796D01*
X30177834Y-59578229D01*
X31137058Y-59578229D01*
X31137058Y-58744005D01*
X31645058Y-58744005D01*
X31645058Y-59578229D01*
X32604282Y-59578229D01*
X32604282Y-59509798D01*
X32535079Y-59191678D01*
X32417235Y-59008311D01*
X32252507Y-58865572D01*
X32054235Y-58775024D01*
X31838491Y-58744005D01*
X31645058Y-58744005D01*
X31137058Y-58744005D01*
X30943627Y-58744005D01*
X30625507Y-58813208D01*
X30442140Y-58931052D01*
X30299401Y-59095780D01*
X30208853Y-59294052D01*
X30177834Y-59509796D01*
X25919636Y-59509796D01*
X28793203Y-56636229D01*
X32590221Y-56636229D01*
X32590221Y-57157228D01*
X32659331Y-57415149D01*
X32774482Y-57552382D01*
X32929631Y-57641956D01*
X33106061Y-57673066D01*
X33152058Y-57673066D01*
X33152058Y-56636229D01*
X32590221Y-56636229D01*
X28793203Y-56636229D01*
X29822200Y-55607232D01*
X32590221Y-55607232D01*
X32590221Y-56128229D01*
X33152058Y-56128229D01*
X33152058Y-55091392D01*
X33106059Y-55091392D01*
X32848141Y-55160501D01*
X32710904Y-55275655D01*
X32621331Y-55430802D01*
X32590221Y-55607232D01*
X29822200Y-55607232D01*
X30540659Y-54888773D01*
X30591261Y-54848883D01*
X30644967Y-54771175D01*
X30701092Y-54695188D01*
X30704819Y-54684579D01*
X30711211Y-54675328D01*
X30717317Y-54648986D01*
X30770996Y-54496130D01*
X30774721Y-54401334D01*
X30775640Y-54397367D01*
X30775640Y-54377932D01*
X30779279Y-54285322D01*
X30775640Y-54271597D01*
X30775640Y-53917335D01*
X30823108Y-53840672D01*
X30854132Y-53674711D01*
X30854132Y-53506229D01*
X31237834Y-53506229D01*
X31237834Y-53699660D01*
X31307037Y-54017780D01*
X31424881Y-54201147D01*
X31589609Y-54343886D01*
X31787881Y-54434434D01*
X32003625Y-54465453D01*
X32072058Y-54465453D01*
X32072058Y-53506229D01*
X32580058Y-53506229D01*
X32580058Y-54465453D01*
X32648489Y-54465453D01*
X32966609Y-54396250D01*
X33149976Y-54278406D01*
X33292715Y-54113678D01*
X33383263Y-53915406D01*
X33414282Y-53699662D01*
X33414282Y-53506229D01*
X32580058Y-53506229D01*
X32072058Y-53506229D01*
X31237834Y-53506229D01*
X30854132Y-53506229D01*
X30854132Y-52783369D01*
X30805968Y-52578587D01*
X30744522Y-52497217D01*
X31097183Y-52144556D01*
X31436772Y-52144556D01*
X31483705Y-52247327D01*
X31359401Y-52390780D01*
X31268853Y-52589052D01*
X31237834Y-52804796D01*
X31237834Y-52998229D01*
X33414282Y-52998229D01*
X33414282Y-52804798D01*
X33345079Y-52486678D01*
X33227236Y-52303312D01*
X33176005Y-52258921D01*
X33218661Y-52144556D01*
X35154726Y-52144556D01*
X35538001Y-52527832D01*
X35461989Y-52650599D01*
X35430966Y-52816558D01*
X35430966Y-53187455D01*
X35294189Y-53218593D01*
X35262891Y-53153417D01*
X35198490Y-53083747D01*
X35196337Y-53080296D01*
X35182603Y-53066561D01*
X35156150Y-53037943D01*
X35156150Y-52806558D01*
X35107986Y-52601777D01*
X35006239Y-52467042D01*
X34862690Y-52378161D01*
X34696729Y-52347137D01*
X34055387Y-52347137D01*
X33850606Y-52395301D01*
X33715871Y-52497048D01*
X33626990Y-52640597D01*
X33595966Y-52806558D01*
X33595966Y-53697900D01*
X33644130Y-53902681D01*
X33745877Y-54037416D01*
X33889424Y-54126296D01*
X33974458Y-54142191D01*
X33974458Y-55138718D01*
X33706055Y-55091392D01*
X33660058Y-55091392D01*
X33660058Y-57715683D01*
X33651331Y-57730799D01*
X33620221Y-57907232D01*
X33620221Y-58828229D01*
X35057058Y-58828229D01*
X35057058Y-57345570D01*
X35121403Y-57302575D01*
X35165961Y-57235890D01*
X35181608Y-57157229D01*
X35181608Y-56884818D01*
X35317060Y-56688835D01*
X35440508Y-56727344D01*
X35440508Y-57157229D01*
X35456155Y-57235890D01*
X35500713Y-57302575D01*
X35565058Y-57345570D01*
X35565058Y-58828229D01*
X37001895Y-58828229D01*
X37001895Y-57907230D01*
X36912524Y-57573695D01*
X37029348Y-57506247D01*
X37807524Y-58284425D01*
X37831045Y-58319034D01*
X37847698Y-58325427D01*
X37935866Y-58378824D01*
X37996787Y-58382658D01*
X37999126Y-58383555D01*
X38011060Y-58383555D01*
X38070723Y-58387308D01*
X38079151Y-58383555D01*
X39043106Y-58383555D01*
X39102010Y-58634001D01*
X39203757Y-58768736D01*
X39347306Y-58857617D01*
X39513267Y-58888641D01*
X40404609Y-58888641D01*
X40609390Y-58840477D01*
X40744125Y-58738730D01*
X40833006Y-58595181D01*
X40864030Y-58429220D01*
X40864030Y-57787878D01*
X40815866Y-57583097D01*
X40714119Y-57448362D01*
X40570570Y-57359481D01*
X40404609Y-57328457D01*
X39513267Y-57328457D01*
X39308486Y-57376621D01*
X39173751Y-57478368D01*
X39084870Y-57621917D01*
X39045310Y-57833543D01*
X38134478Y-57833543D01*
X37638214Y-57337281D01*
X37705961Y-57235891D01*
X37721608Y-57157229D01*
X37721608Y-55607229D01*
X37705961Y-55528568D01*
X37661404Y-55461883D01*
X37594719Y-55417326D01*
X37516058Y-55401679D01*
X36916058Y-55401679D01*
X36837397Y-55417326D01*
X36770712Y-55461883D01*
X36726155Y-55528568D01*
X36710508Y-55607229D01*
X36710508Y-57157229D01*
X36726155Y-57235890D01*
X36793895Y-57337268D01*
X36730459Y-57434487D01*
X36348287Y-57367099D01*
X36435961Y-57235888D01*
X36451608Y-57157229D01*
X36451608Y-55607229D01*
X36435961Y-55528568D01*
X36397658Y-55471245D01*
X36397658Y-54831081D01*
X36476972Y-54751766D01*
X36484978Y-54747853D01*
X36537435Y-54691304D01*
X36560084Y-54668654D01*
X36564738Y-54661869D01*
X36599391Y-54624515D01*
X36605984Y-54601745D01*
X36631086Y-54565153D01*
X36669931Y-54401465D01*
X36662658Y-54348025D01*
X36662658Y-54136528D01*
X36736509Y-54119158D01*
X36871246Y-54017409D01*
X36960126Y-53873861D01*
X36991150Y-53707900D01*
X36991150Y-53516229D01*
X37172834Y-53516229D01*
X37172834Y-53709660D01*
X37242037Y-54027780D01*
X37359881Y-54211147D01*
X37524609Y-54353886D01*
X37722881Y-54444434D01*
X37938625Y-54475453D01*
X38007058Y-54475453D01*
X38007058Y-53516229D01*
X38515058Y-53516229D01*
X38515058Y-54475453D01*
X38583489Y-54475453D01*
X38901609Y-54406250D01*
X39084976Y-54288406D01*
X39227715Y-54123678D01*
X39318263Y-53925406D01*
X39349282Y-53709662D01*
X39349282Y-53516229D01*
X38515058Y-53516229D01*
X38007058Y-53516229D01*
X37172834Y-53516229D01*
X36991150Y-53516229D01*
X36991150Y-52816558D01*
X36990736Y-52814796D01*
X37172834Y-52814796D01*
X37172834Y-53008229D01*
X38007058Y-53008229D01*
X38007058Y-52049005D01*
X38515058Y-52049005D01*
X38515058Y-53008229D01*
X39349282Y-53008229D01*
X39349282Y-52814798D01*
X39280079Y-52496678D01*
X39162235Y-52313311D01*
X38997507Y-52170572D01*
X38799235Y-52080024D01*
X38583491Y-52049005D01*
X38515058Y-52049005D01*
X38007058Y-52049005D01*
X37938627Y-52049005D01*
X37620507Y-52118208D01*
X37437140Y-52236052D01*
X37294401Y-52400780D01*
X37203853Y-52599052D01*
X37172834Y-52814796D01*
X36990736Y-52814796D01*
X36942986Y-52611777D01*
X36841239Y-52477042D01*
X36697690Y-52388161D01*
X36609954Y-52371760D01*
X36549489Y-52262001D01*
X35747224Y-51459736D01*
X35792176Y-51351212D01*
X39763498Y-51351212D01*
X40052721Y-51640436D01*
X40052721Y-51640436D01*
G37*
G36*
X61549694Y-63870386D02*
G01*
X61616379Y-63914943D01*
X61695040Y-63930590D01*
X62251672Y-63930590D01*
X62306846Y-63985764D01*
X62306846Y-64157707D01*
X60927594Y-65536960D01*
X60627333Y-65536960D01*
X60578425Y-65440969D01*
X60606918Y-65401753D01*
X60665807Y-65220513D01*
X60665807Y-65029947D01*
X60606917Y-64848703D01*
X60494907Y-64694535D01*
X60417507Y-64638302D01*
X60970916Y-64084894D01*
X61005525Y-64061374D01*
X61011918Y-64044719D01*
X61081038Y-63930590D01*
X61165040Y-63930590D01*
X61243701Y-63914943D01*
X61310386Y-63870386D01*
X61430040Y-63691310D01*
X61549694Y-63870386D01*
X61549694Y-63870386D01*
G37*
G36*
X47065514Y-55156080D02*
G01*
X47065515Y-56324114D01*
X47065514Y-56324116D01*
X47065514Y-56367425D01*
X46909821Y-56480543D01*
X46797810Y-56634713D01*
X46738920Y-56815957D01*
X46738920Y-57006523D01*
X46797810Y-57187767D01*
X46909822Y-57341938D01*
X47063993Y-57453950D01*
X47245237Y-57512840D01*
X47435803Y-57512840D01*
X47617047Y-57453950D01*
X47771217Y-57341939D01*
X47836265Y-57252409D01*
X47957739Y-57291879D01*
X47957739Y-58642527D01*
X47933250Y-58770900D01*
X47842137Y-58770900D01*
X47660893Y-58829790D01*
X47506722Y-58941802D01*
X47394710Y-59095973D01*
X47351359Y-59229390D01*
X47223633Y-59229390D01*
X47172031Y-59070573D01*
X47060018Y-58916402D01*
X46905847Y-58804390D01*
X46724603Y-58745500D01*
X46534037Y-58745500D01*
X46352793Y-58804390D01*
X46198622Y-58916402D01*
X46086610Y-59070573D01*
X46027720Y-59251817D01*
X46027720Y-59442383D01*
X46086610Y-59623627D01*
X46198622Y-59777798D01*
X46352793Y-59889810D01*
X46534037Y-59948700D01*
X46724603Y-59948700D01*
X46813212Y-59919908D01*
X46858554Y-59965250D01*
X46858556Y-59965251D01*
X46944596Y-60051293D01*
X46944595Y-62946740D01*
X46796140Y-62946740D01*
X46614896Y-63005630D01*
X46460725Y-63117642D01*
X46348713Y-63271813D01*
X46289823Y-63453057D01*
X46289823Y-63643623D01*
X46348713Y-63824867D01*
X46460725Y-63979038D01*
X46614896Y-64091050D01*
X46796140Y-64149940D01*
X46986706Y-64149940D01*
X47167948Y-64091051D01*
X47272048Y-64015417D01*
X47368037Y-64064326D01*
X47368037Y-64182836D01*
X47426926Y-64364078D01*
X47532679Y-64509636D01*
X47330777Y-64606588D01*
X47261104Y-64670992D01*
X47257657Y-64673142D01*
X47243942Y-64686857D01*
X47175854Y-64749798D01*
X47168722Y-64762076D01*
X46787019Y-65143780D01*
X46668852Y-65071367D01*
X46743240Y-64842423D01*
X46743240Y-64651857D01*
X46684350Y-64470613D01*
X46572338Y-64316442D01*
X46418167Y-64204430D01*
X46236923Y-64145540D01*
X46046357Y-64145540D01*
X45865115Y-64204429D01*
X45696579Y-64326879D01*
X45600590Y-64277970D01*
X45600590Y-60455040D01*
X45584943Y-60376379D01*
X45540386Y-60309694D01*
X45473701Y-60265137D01*
X45395040Y-60249490D01*
X44606581Y-60249490D01*
X44606581Y-56728254D01*
X46454320Y-56298547D01*
X46553107Y-56243686D01*
X46597663Y-56177003D01*
X46613310Y-56098340D01*
X46613310Y-54857352D01*
X46721834Y-54812400D01*
X47065514Y-55156080D01*
X47065514Y-55156080D01*
G37*
G36*
X33015613Y-44067087D02*
G01*
X32949260Y-44271302D01*
X32949260Y-44461868D01*
X33008150Y-44643112D01*
X33120162Y-44797283D01*
X33274333Y-44909295D01*
X33455577Y-44968185D01*
X33646143Y-44968185D01*
X33827387Y-44909295D01*
X33981557Y-44797284D01*
X34094675Y-44641591D01*
X36592524Y-44641591D01*
X36641433Y-44737580D01*
X36557160Y-44853571D01*
X36498271Y-45034813D01*
X36498271Y-45225379D01*
X36557161Y-45406623D01*
X36669173Y-45560794D01*
X36823344Y-45672806D01*
X37004588Y-45731696D01*
X37195154Y-45731696D01*
X37376398Y-45672806D01*
X37530569Y-45560794D01*
X37642581Y-45406623D01*
X37701471Y-45225379D01*
X37701471Y-45034813D01*
X37669693Y-44937010D01*
X37787860Y-44864596D01*
X40346311Y-47423049D01*
X40369832Y-47457658D01*
X40386485Y-47464051D01*
X40474652Y-47517448D01*
X40535577Y-47521281D01*
X40537916Y-47522179D01*
X40549837Y-47522179D01*
X40609509Y-47525933D01*
X40617940Y-47522179D01*
X40776433Y-47522179D01*
X42136695Y-48882442D01*
X42136695Y-49073240D01*
X42128854Y-49114344D01*
X42136108Y-49130637D01*
X42160696Y-49230742D01*
X42201066Y-49276533D01*
X42202083Y-49278818D01*
X42238891Y-49315627D01*
X42210100Y-49404237D01*
X42210100Y-49594803D01*
X42268990Y-49776047D01*
X42381002Y-49930218D01*
X42535173Y-50042230D01*
X42716417Y-50101120D01*
X42906983Y-50101120D01*
X43088227Y-50042230D01*
X43242398Y-49930218D01*
X43354410Y-49776047D01*
X43413300Y-49594803D01*
X43413300Y-49404237D01*
X43314291Y-49099519D01*
X44327391Y-49099519D01*
X47854861Y-52626990D01*
X47752479Y-52701373D01*
X47640465Y-52855547D01*
X47581576Y-53036789D01*
X47581576Y-53227355D01*
X47640466Y-53408599D01*
X47752478Y-53562770D01*
X47906649Y-53674782D01*
X48087893Y-53733672D01*
X48278459Y-53733672D01*
X48459703Y-53674782D01*
X48613874Y-53562770D01*
X48725109Y-53409668D01*
X50911760Y-53409668D01*
X50911760Y-55044340D01*
X53393244Y-55044340D01*
X53428681Y-55055854D01*
X53619248Y-55055854D01*
X53800492Y-54996964D01*
X53954663Y-54884952D01*
X54066675Y-54730781D01*
X54125565Y-54549537D01*
X54125565Y-54358971D01*
X54066675Y-54177727D01*
X53954663Y-54023556D01*
X53800492Y-53911544D01*
X53619248Y-53852654D01*
X53428682Y-53852654D01*
X53323597Y-53886802D01*
X53323597Y-53498338D01*
X53282268Y-53296025D01*
X53184456Y-53145936D01*
X53041207Y-53038350D01*
X52869804Y-52986248D01*
X52690915Y-52995911D01*
X50911760Y-53409668D01*
X48725109Y-53409668D01*
X48725886Y-53408599D01*
X48784776Y-53227355D01*
X48784776Y-53036789D01*
X48725886Y-52855545D01*
X48613876Y-52701376D01*
X48458922Y-52588795D01*
X48466023Y-52551564D01*
X48458769Y-52535270D01*
X48434181Y-52435164D01*
X48393816Y-52389379D01*
X48392796Y-52387089D01*
X48384347Y-52378640D01*
X48344822Y-52333807D01*
X48336207Y-52330500D01*
X44654346Y-48648640D01*
X44630823Y-48614027D01*
X44614164Y-48607632D01*
X44526002Y-48554239D01*
X44465079Y-48550406D01*
X44462739Y-48549507D01*
X44450808Y-48549507D01*
X44391145Y-48545754D01*
X44382717Y-48549507D01*
X43088821Y-48549507D01*
X42682464Y-48143150D01*
X42727416Y-48034626D01*
X44462759Y-48034626D01*
X45571059Y-49142925D01*
X45928780Y-49500648D01*
X45952300Y-49535257D01*
X45983497Y-49547232D01*
X46045601Y-49632710D01*
X46199771Y-49744721D01*
X46381015Y-49803611D01*
X46571581Y-49803611D01*
X46752825Y-49744721D01*
X46906996Y-49632709D01*
X47019009Y-49478538D01*
X47085476Y-49273970D01*
X47191880Y-49257117D01*
X47252934Y-49341150D01*
X47407104Y-49453161D01*
X47588348Y-49512051D01*
X47778914Y-49512051D01*
X47960158Y-49453161D01*
X48114328Y-49341150D01*
X48227446Y-49185457D01*
X49703320Y-49185457D01*
X55324472Y-54806610D01*
X53432121Y-56698962D01*
X53323597Y-56654010D01*
X53323597Y-55552340D01*
X50911760Y-55552340D01*
X50911760Y-57187012D01*
X51516407Y-57327628D01*
X51391471Y-57499588D01*
X51332582Y-57680830D01*
X51332582Y-57871396D01*
X51391472Y-58052640D01*
X51503484Y-58206811D01*
X51657655Y-58318823D01*
X51838899Y-58377713D01*
X52029465Y-58377713D01*
X52210709Y-58318823D01*
X52364880Y-58206811D01*
X52476892Y-58052640D01*
X52535782Y-57871396D01*
X52535782Y-57564692D01*
X52690914Y-57600769D01*
X52946248Y-57607661D01*
X52946247Y-60279199D01*
X52938406Y-60320303D01*
X52945660Y-60336596D01*
X52970248Y-60436701D01*
X53010618Y-60482492D01*
X53011636Y-60484780D01*
X53020070Y-60493214D01*
X53059605Y-60538059D01*
X53068222Y-60541366D01*
X54445187Y-61918332D01*
X54400235Y-62026856D01*
X54314370Y-62026856D01*
X54109589Y-62075020D01*
X53974853Y-62176768D01*
X53896421Y-62303440D01*
X52500590Y-62303440D01*
X52500590Y-60455040D01*
X52484943Y-60376379D01*
X52440386Y-60309694D01*
X52373701Y-60265137D01*
X52295040Y-60249490D01*
X49795040Y-60249490D01*
X49716379Y-60265137D01*
X49649694Y-60309694D01*
X49605137Y-60376379D01*
X49589490Y-60455040D01*
X49589490Y-62058230D01*
X49340336Y-62058230D01*
X48695030Y-61412925D01*
X48695030Y-60002816D01*
X48788299Y-59909549D01*
X48822912Y-59886026D01*
X48829305Y-59869372D01*
X48882702Y-59781204D01*
X48886536Y-59720283D01*
X48887433Y-59717944D01*
X48887433Y-59706010D01*
X48891186Y-59646347D01*
X48887433Y-59637919D01*
X48887433Y-59211177D01*
X51056920Y-59211177D01*
X51056920Y-59401743D01*
X51115810Y-59582987D01*
X51227822Y-59737158D01*
X51381993Y-59849170D01*
X51563237Y-59908060D01*
X51753803Y-59908060D01*
X51935047Y-59849170D01*
X52089218Y-59737158D01*
X52201230Y-59582987D01*
X52260120Y-59401743D01*
X52260120Y-59211177D01*
X52201230Y-59029933D01*
X52089218Y-58875762D01*
X51935047Y-58763750D01*
X51753803Y-58704860D01*
X51563237Y-58704860D01*
X51381993Y-58763750D01*
X51227822Y-58875762D01*
X51115810Y-59029933D01*
X51056920Y-59211177D01*
X48887433Y-59211177D01*
X48887433Y-59074777D01*
X48895274Y-59033673D01*
X48888021Y-59017381D01*
X48863432Y-58917274D01*
X48823067Y-58871488D01*
X48822047Y-58869198D01*
X48813599Y-58860750D01*
X48774074Y-58815917D01*
X48765458Y-58812610D01*
X48507750Y-58554904D01*
X48507750Y-56627940D01*
X50403760Y-57068872D01*
X50403760Y-53527807D01*
X48390918Y-53995910D01*
X48249843Y-54051612D01*
X48112606Y-54166766D01*
X48023033Y-54321913D01*
X47991923Y-54498343D01*
X47991923Y-54658433D01*
X47883399Y-54703385D01*
X45728997Y-52548984D01*
X45773949Y-52440460D01*
X46033723Y-52440460D01*
X46214967Y-52381570D01*
X46369138Y-52269558D01*
X46481150Y-52115387D01*
X46540040Y-51934143D01*
X46540040Y-51743577D01*
X46481150Y-51562333D01*
X46369138Y-51408162D01*
X46214967Y-51296150D01*
X46033723Y-51237260D01*
X45843157Y-51237260D01*
X45753739Y-51266314D01*
X45727959Y-51228374D01*
X45711303Y-51221980D01*
X45623141Y-51168587D01*
X45562218Y-51164754D01*
X45559878Y-51163855D01*
X45547947Y-51163855D01*
X45488284Y-51160102D01*
X45479856Y-51163855D01*
X42360513Y-51163855D01*
X41141971Y-49945314D01*
X41118448Y-49910701D01*
X41101789Y-49904306D01*
X41013627Y-49850913D01*
X40952704Y-49847080D01*
X40950364Y-49846181D01*
X40938433Y-49846181D01*
X40878770Y-49842428D01*
X40870342Y-49846181D01*
X40798208Y-49846181D01*
X40608299Y-49656274D01*
X40608299Y-49551838D01*
X40616141Y-49510731D01*
X40608886Y-49494437D01*
X40584298Y-49394330D01*
X40543931Y-49348543D01*
X40542912Y-49346254D01*
X40534472Y-49337814D01*
X40494940Y-49292973D01*
X40486323Y-49289665D01*
X37736464Y-46539807D01*
X37712941Y-46505194D01*
X37696282Y-46498799D01*
X37608120Y-46445406D01*
X37547197Y-46441573D01*
X37544857Y-46440674D01*
X37532926Y-46440674D01*
X37473263Y-46436921D01*
X37464835Y-46440674D01*
X31126055Y-46440674D01*
X31084951Y-46432833D01*
X31068658Y-46440087D01*
X30968554Y-46464675D01*
X30922765Y-46505043D01*
X30920476Y-46506062D01*
X30912037Y-46514501D01*
X30770536Y-46639248D01*
X30695059Y-46406958D01*
X30583048Y-46252788D01*
X30427355Y-46139670D01*
X30427355Y-44569269D01*
X31003611Y-43993014D01*
X31105000Y-44060761D01*
X31183661Y-44076408D01*
X32733661Y-44076408D01*
X32812322Y-44060761D01*
X32915862Y-43991578D01*
X33015613Y-44067087D01*
X33015613Y-44067087D01*
G37*
G36*
X43060199Y-40744124D02*
G01*
X43083719Y-40778733D01*
X43100374Y-40785126D01*
X43256228Y-40879517D01*
X43225490Y-41034040D01*
X43225490Y-42534040D01*
X43241137Y-42612701D01*
X43285694Y-42679386D01*
X43352379Y-42723943D01*
X43431040Y-42739590D01*
X44288284Y-42739590D01*
X44327754Y-42861064D01*
X44163444Y-42980443D01*
X44051433Y-43134613D01*
X43992543Y-43315857D01*
X43992543Y-43506423D01*
X44051433Y-43687667D01*
X44163445Y-43841838D01*
X44317616Y-43953850D01*
X44498860Y-44012740D01*
X44689426Y-44012740D01*
X44870670Y-43953850D01*
X45024839Y-43841839D01*
X45169636Y-43642544D01*
X45291111Y-43682014D01*
X45291111Y-44027858D01*
X45306758Y-44106519D01*
X45351315Y-44173204D01*
X45418000Y-44217761D01*
X45496661Y-44233408D01*
X45983655Y-44233408D01*
X45983655Y-44736577D01*
X45863723Y-44776774D01*
X45745220Y-44619852D01*
X45601672Y-44530972D01*
X45435711Y-44499948D01*
X44794369Y-44499948D01*
X44589588Y-44548112D01*
X44454853Y-44649859D01*
X44365972Y-44793408D01*
X44334948Y-44959369D01*
X44334948Y-45850711D01*
X44383112Y-46055492D01*
X44484859Y-46190227D01*
X44628408Y-46279108D01*
X44794369Y-46310132D01*
X45435711Y-46310132D01*
X45640492Y-46261968D01*
X45775227Y-46160221D01*
X45864108Y-46016672D01*
X45895132Y-45850711D01*
X45895132Y-45590919D01*
X45922619Y-45566687D01*
X45925926Y-45558070D01*
X46434535Y-45049463D01*
X46469146Y-45025941D01*
X46475539Y-45009287D01*
X46528936Y-44921120D01*
X46532769Y-44860195D01*
X46533667Y-44857856D01*
X46533667Y-44845935D01*
X46537421Y-44786263D01*
X46533667Y-44777832D01*
X46533667Y-44233408D01*
X47020661Y-44233408D01*
X47099322Y-44217761D01*
X47166007Y-44173204D01*
X47210564Y-44106519D01*
X47226211Y-44027858D01*
X47226211Y-43740864D01*
X48028569Y-43740864D01*
X48028569Y-43911529D01*
X48076733Y-44116310D01*
X48178480Y-44251045D01*
X48322029Y-44339926D01*
X48533656Y-44379486D01*
X48533655Y-44950026D01*
X48283209Y-45008930D01*
X48148474Y-45110677D01*
X48059593Y-45254226D01*
X48028569Y-45420187D01*
X48028569Y-46311529D01*
X48076733Y-46516310D01*
X48178480Y-46651045D01*
X48322029Y-46739926D01*
X48487990Y-46770950D01*
X48622782Y-46770950D01*
X48647015Y-46798438D01*
X48655631Y-46801745D01*
X48870635Y-47016750D01*
X48894156Y-47051359D01*
X48910809Y-47057752D01*
X48998977Y-47111149D01*
X49059898Y-47114983D01*
X49062237Y-47115880D01*
X49074171Y-47115880D01*
X49133834Y-47119633D01*
X49142262Y-47115880D01*
X51942467Y-47115880D01*
X51983572Y-47123721D01*
X51999863Y-47116468D01*
X52099971Y-47091879D01*
X52145762Y-47051509D01*
X52148046Y-47050492D01*
X52156478Y-47042060D01*
X52201327Y-47002520D01*
X52204634Y-46993904D01*
X52573690Y-46624849D01*
X52658029Y-46884422D01*
X52770042Y-47038593D01*
X52924213Y-47150605D01*
X53105457Y-47209495D01*
X53296023Y-47209495D01*
X53477267Y-47150605D01*
X53631437Y-47038594D01*
X53744555Y-46882901D01*
X56718904Y-46882901D01*
X56760009Y-46890742D01*
X56776300Y-46883489D01*
X56876408Y-46858900D01*
X56922199Y-46818530D01*
X56924483Y-46817513D01*
X56932915Y-46809081D01*
X56977764Y-46769541D01*
X56981071Y-46760925D01*
X58017393Y-45724605D01*
X58500403Y-46207616D01*
X58500403Y-47404309D01*
X58391879Y-47449261D01*
X58000584Y-47057967D01*
X57977061Y-47023354D01*
X57960402Y-47016959D01*
X57872240Y-46963566D01*
X57811317Y-46959733D01*
X57808977Y-46958834D01*
X57797046Y-46958834D01*
X57737383Y-46955081D01*
X57728955Y-46958834D01*
X57591813Y-46958834D01*
X57550709Y-46950993D01*
X57534416Y-46958247D01*
X57434311Y-46982835D01*
X57388522Y-47023203D01*
X57386233Y-47024222D01*
X57377794Y-47032661D01*
X57332953Y-47072193D01*
X57329645Y-47080810D01*
X56758770Y-47651687D01*
X56711875Y-47698582D01*
X56623266Y-47669790D01*
X56432700Y-47669790D01*
X56251456Y-47728680D01*
X56097285Y-47840692D01*
X55985273Y-47994863D01*
X55926383Y-48176107D01*
X55926383Y-48366673D01*
X55985273Y-48547917D01*
X56097285Y-48702088D01*
X56251456Y-48814100D01*
X56432700Y-48872990D01*
X56607985Y-48872990D01*
X56652937Y-48981514D01*
X55950059Y-49684393D01*
X55915450Y-49707914D01*
X55909058Y-49724565D01*
X55855659Y-49812736D01*
X55851825Y-49873658D01*
X55850929Y-49875994D01*
X55850929Y-49887913D01*
X55847175Y-49947592D01*
X55850929Y-49956023D01*
X55850928Y-53881367D01*
X55843087Y-53922471D01*
X55850341Y-53938764D01*
X55874929Y-54038869D01*
X55915299Y-54084660D01*
X55916317Y-54086948D01*
X55924751Y-54095382D01*
X55964286Y-54140227D01*
X55972903Y-54143534D01*
X56631643Y-54802274D01*
X56372073Y-54886612D01*
X56217902Y-54998625D01*
X56105890Y-55152796D01*
X56047000Y-55334040D01*
X56047000Y-55524606D01*
X56075792Y-55613215D01*
X55323691Y-56365315D01*
X55289078Y-56388838D01*
X55282683Y-56405497D01*
X55229288Y-56493661D01*
X55225455Y-56554579D01*
X55224558Y-56556917D01*
X55224558Y-56568853D01*
X55220805Y-56628516D01*
X55224558Y-56636947D01*
X55224559Y-57300890D01*
X55216717Y-57341998D01*
X55223972Y-57358292D01*
X55248560Y-57458399D01*
X55288927Y-57504186D01*
X55289946Y-57506475D01*
X55298386Y-57514915D01*
X55337918Y-57559756D01*
X55346535Y-57563064D01*
X56143670Y-58360200D01*
X56098718Y-58468724D01*
X55489040Y-58468724D01*
X55489040Y-60995172D01*
X55858078Y-60995172D01*
X55824500Y-61098411D01*
X55824500Y-61288963D01*
X55883390Y-61470207D01*
X55967474Y-61585937D01*
X55918565Y-61681926D01*
X54986618Y-61681926D01*
X54408387Y-61103696D01*
X54453339Y-60995172D01*
X54981040Y-60995172D01*
X54981040Y-58468724D01*
X54312610Y-58468724D01*
X53994489Y-58537927D01*
X53811122Y-58655771D01*
X53668381Y-58820501D01*
X53634690Y-58894275D01*
X53496259Y-58864161D01*
X53496259Y-57412658D01*
X55871701Y-55037215D01*
X55886987Y-55030411D01*
X55919391Y-54989526D01*
X55931543Y-54977374D01*
X55939707Y-54963893D01*
X55970918Y-54924515D01*
X55974302Y-54906770D01*
X55983665Y-54891310D01*
X55986822Y-54841144D01*
X55996237Y-54791786D01*
X55990708Y-54779367D01*
X55992149Y-54756454D01*
X55937189Y-54633012D01*
X55896306Y-54600608D01*
X51533914Y-50238216D01*
X52926155Y-50238216D01*
X52926155Y-50428782D01*
X52985045Y-50610026D01*
X53097057Y-50764197D01*
X53251228Y-50876209D01*
X53432472Y-50935099D01*
X53623038Y-50935099D01*
X53804282Y-50876209D01*
X53958453Y-50764197D01*
X54070465Y-50610026D01*
X54129355Y-50428782D01*
X54129355Y-50238216D01*
X54070465Y-50056972D01*
X53958453Y-49902801D01*
X53804282Y-49790789D01*
X53623038Y-49731899D01*
X53432472Y-49731899D01*
X53251228Y-49790789D01*
X53097057Y-49902801D01*
X52985045Y-50056972D01*
X52926155Y-50238216D01*
X51533914Y-50238216D01*
X50030275Y-48734578D01*
X50006752Y-48699965D01*
X49990093Y-48693570D01*
X49901931Y-48640177D01*
X49841008Y-48636344D01*
X49838668Y-48635445D01*
X49826737Y-48635445D01*
X49767074Y-48631692D01*
X49758646Y-48635445D01*
X48227446Y-48635445D01*
X48114328Y-48479752D01*
X47960158Y-48367741D01*
X47778914Y-48308851D01*
X47588348Y-48308851D01*
X47407104Y-48367741D01*
X47252933Y-48479753D01*
X47140920Y-48633924D01*
X47074453Y-48838492D01*
X46968049Y-48855345D01*
X46906995Y-48771312D01*
X46752825Y-48659301D01*
X46571581Y-48600411D01*
X46381015Y-48600411D01*
X46199773Y-48659300D01*
X46006029Y-48800063D01*
X45436285Y-48230318D01*
X52944888Y-48230318D01*
X52944888Y-48420884D01*
X53003778Y-48602128D01*
X53115790Y-48756299D01*
X53269961Y-48868311D01*
X53451205Y-48927201D01*
X53641771Y-48927201D01*
X53823015Y-48868311D01*
X53977186Y-48756299D01*
X54089198Y-48602128D01*
X54148088Y-48420884D01*
X54148088Y-48230318D01*
X54089198Y-48049074D01*
X53977186Y-47894903D01*
X53823015Y-47782891D01*
X53641771Y-47724001D01*
X53451205Y-47724001D01*
X53269961Y-47782891D01*
X53115790Y-47894903D01*
X53003778Y-48049074D01*
X52944888Y-48230318D01*
X45436285Y-48230318D01*
X44789714Y-47583747D01*
X44766191Y-47549134D01*
X44749532Y-47542739D01*
X44661370Y-47489346D01*
X44600447Y-47485513D01*
X44598107Y-47484614D01*
X44586176Y-47484614D01*
X44526513Y-47480861D01*
X44518085Y-47484614D01*
X43958896Y-47484614D01*
X43909987Y-47388625D01*
X44050371Y-47195405D01*
X44109260Y-47014163D01*
X44109260Y-46935357D01*
X45344460Y-46935357D01*
X45344460Y-47125923D01*
X45403350Y-47307167D01*
X45515362Y-47461338D01*
X45669533Y-47573350D01*
X45850777Y-47632240D01*
X46041343Y-47632240D01*
X46222587Y-47573350D01*
X46376757Y-47461339D01*
X46457065Y-47350806D01*
X46676254Y-47510055D01*
X46857496Y-47568944D01*
X47048062Y-47568944D01*
X47229306Y-47510054D01*
X47383477Y-47398042D01*
X47495489Y-47243871D01*
X47554379Y-47062627D01*
X47554379Y-46872061D01*
X47495489Y-46690817D01*
X47383477Y-46536646D01*
X47229306Y-46424634D01*
X47048062Y-46365744D01*
X46857496Y-46365744D01*
X46676252Y-46424634D01*
X46522082Y-46536645D01*
X46441774Y-46647178D01*
X46222585Y-46487929D01*
X46041343Y-46429040D01*
X45850777Y-46429040D01*
X45669533Y-46487930D01*
X45515362Y-46599942D01*
X45403350Y-46754113D01*
X45344460Y-46935357D01*
X44109260Y-46935357D01*
X44109260Y-46823597D01*
X44050370Y-46642353D01*
X43938358Y-46488182D01*
X43784187Y-46376169D01*
X43652718Y-46333453D01*
X43635066Y-46228308D01*
X43725228Y-46160220D01*
X43814108Y-46016672D01*
X43845132Y-45850711D01*
X43845132Y-44959369D01*
X43796968Y-44754588D01*
X43695221Y-44619853D01*
X43551672Y-44530972D01*
X43340046Y-44491412D01*
X43340046Y-43689706D01*
X43347887Y-43648601D01*
X43340634Y-43632310D01*
X43316045Y-43532203D01*
X43275678Y-43486415D01*
X43274659Y-43484126D01*
X43266219Y-43475686D01*
X43226687Y-43430845D01*
X43218070Y-43427537D01*
X42880517Y-43089985D01*
X42856994Y-43055372D01*
X42840335Y-43048977D01*
X42726211Y-42979861D01*
X42726211Y-42503858D01*
X42710564Y-42425197D01*
X42666007Y-42358512D01*
X42599322Y-42313955D01*
X42520661Y-42298308D01*
X41841171Y-42298308D01*
X41938897Y-41997538D01*
X41938897Y-41806972D01*
X41880007Y-41625728D01*
X41767995Y-41471557D01*
X41613824Y-41359545D01*
X41432580Y-41300655D01*
X41242014Y-41300655D01*
X41153405Y-41329447D01*
X40965891Y-41141932D01*
X41010843Y-41033408D01*
X42520661Y-41033408D01*
X42599322Y-41017761D01*
X42666007Y-40973204D01*
X42710564Y-40906519D01*
X42726211Y-40827858D01*
X42726211Y-40563612D01*
X42834735Y-40518660D01*
X43060199Y-40744124D01*
X43060199Y-40744124D01*
G37*
G36*
X62220941Y-55850957D02*
G01*
X62375115Y-55962971D01*
X62556357Y-56021860D01*
X62746923Y-56021860D01*
X62928165Y-55962971D01*
X62964043Y-55936902D01*
X63060034Y-55985810D01*
X63060034Y-57219490D01*
X62895803Y-57219490D01*
X62881769Y-57167124D01*
X62766614Y-57029886D01*
X62611467Y-56940313D01*
X62435037Y-56909203D01*
X62319040Y-56909203D01*
X62319040Y-58879040D01*
X61811040Y-58879040D01*
X61811040Y-56909203D01*
X61695040Y-56909203D01*
X61416744Y-56983772D01*
X61341468Y-56940313D01*
X61165037Y-56909203D01*
X61029063Y-56909203D01*
X60984111Y-56800679D01*
X62035931Y-55748860D01*
X62146763Y-55748860D01*
X62220941Y-55850957D01*
X62220941Y-55850957D01*
G37*
G36*
X58419848Y-41345987D02*
G01*
X58289006Y-41504147D01*
X58190919Y-41685555D01*
X58129934Y-41882566D01*
X58108378Y-42087662D01*
X58127069Y-42293041D01*
X58185297Y-42490884D01*
X58280841Y-42673644D01*
X58410066Y-42834366D01*
X58568046Y-42966928D01*
X58748765Y-43066279D01*
X58945343Y-43128637D01*
X59116626Y-43146640D01*
X59216937Y-43146640D01*
X59370284Y-43131604D01*
X59567712Y-43071997D01*
X59688733Y-43007649D01*
X63060035Y-46378953D01*
X63060034Y-54854710D01*
X62964043Y-54903618D01*
X62928165Y-54877549D01*
X62746923Y-54818660D01*
X62556357Y-54818660D01*
X62375115Y-54877549D01*
X62220941Y-54989563D01*
X62146763Y-55091660D01*
X61908411Y-55091660D01*
X61847266Y-55088456D01*
X61823581Y-55100524D01*
X61763181Y-55113362D01*
X61650166Y-55195473D01*
X61636873Y-55218496D01*
X61009570Y-55845799D01*
X60901046Y-55800847D01*
X60901046Y-54494855D01*
X61056739Y-54381737D01*
X61168750Y-54227567D01*
X61227640Y-54046323D01*
X61227640Y-53855757D01*
X61168750Y-53674513D01*
X61056738Y-53520342D01*
X60902567Y-53408330D01*
X60721323Y-53349440D01*
X60530757Y-53349440D01*
X60349513Y-53408330D01*
X60195342Y-53520342D01*
X60083330Y-53674513D01*
X60024440Y-53855757D01*
X60024440Y-54046323D01*
X60083330Y-54227567D01*
X60195341Y-54381737D01*
X60351034Y-54494855D01*
X60351034Y-54550231D01*
X60351035Y-54550235D01*
X60351034Y-55940818D01*
X59416827Y-56875027D01*
X58961314Y-56875027D01*
X58920210Y-56867186D01*
X58903917Y-56874440D01*
X58751481Y-56911882D01*
X58751481Y-55298981D01*
X58759322Y-55257877D01*
X58752068Y-55241584D01*
X58727480Y-55141479D01*
X58687112Y-55095690D01*
X58686093Y-55093401D01*
X58677654Y-55084962D01*
X58638122Y-55040121D01*
X58629505Y-55036813D01*
X57700810Y-54108119D01*
X57700810Y-53874962D01*
X57828227Y-53838486D01*
X57955935Y-54043259D01*
X58115279Y-54181530D01*
X58308237Y-54266836D01*
X58517747Y-54291635D01*
X58725289Y-54253729D01*
X58967392Y-54102741D01*
X59668617Y-53401517D01*
X59719224Y-53361621D01*
X59772952Y-53283885D01*
X59829056Y-53207924D01*
X59832781Y-53197319D01*
X59839175Y-53188068D01*
X59845281Y-53161722D01*
X59898959Y-53008869D01*
X59902684Y-52914073D01*
X59903603Y-52910106D01*
X59903603Y-52890671D01*
X59907242Y-52798061D01*
X59903603Y-52784336D01*
X59903603Y-45958709D01*
X59911177Y-45894716D01*
X59894204Y-45801784D01*
X59880162Y-45708376D01*
X59875292Y-45698235D01*
X59873272Y-45687175D01*
X59858966Y-45664236D01*
X59788836Y-45518190D01*
X59724436Y-45448522D01*
X59722282Y-45445069D01*
X59708537Y-45431324D01*
X59645627Y-45363269D01*
X59633353Y-45356139D01*
X58777876Y-44500665D01*
X58651046Y-44406987D01*
X58451990Y-44337084D01*
X58241182Y-44328801D01*
X58037254Y-44382872D01*
X57858242Y-44494514D01*
X57719971Y-44653858D01*
X57634665Y-44846816D01*
X57609866Y-45056326D01*
X57655882Y-45308280D01*
X56631274Y-46332889D01*
X54920733Y-46332889D01*
X54877784Y-46219230D01*
X54963658Y-46143522D01*
X54965944Y-46142504D01*
X54974375Y-46134073D01*
X55019225Y-46094532D01*
X55022532Y-46085917D01*
X55344916Y-45763534D01*
X55379525Y-45740013D01*
X55385918Y-45723360D01*
X55439315Y-45635192D01*
X55443149Y-45574271D01*
X55444046Y-45571932D01*
X55444046Y-45559998D01*
X55447799Y-45500335D01*
X55444046Y-45491907D01*
X55444046Y-42983791D01*
X56693923Y-41733915D01*
X56728532Y-41710394D01*
X56734925Y-41693741D01*
X56788322Y-41605573D01*
X56792156Y-41544652D01*
X56793053Y-41542313D01*
X56793053Y-41530379D01*
X56796806Y-41470716D01*
X56793053Y-41462288D01*
X56793053Y-41245039D01*
X58372345Y-41245039D01*
X58419848Y-41345987D01*
X58419848Y-41345987D01*
G37*
G36*
X42078503Y-52061392D02*
G01*
X42080842Y-52062290D01*
X42092764Y-52062290D01*
X42152436Y-52066044D01*
X42160867Y-52062290D01*
X44464469Y-52062290D01*
X44860070Y-52457891D01*
X44815118Y-52566415D01*
X43993679Y-52566415D01*
X43880561Y-52410722D01*
X43726391Y-52298711D01*
X43545147Y-52239821D01*
X43354581Y-52239821D01*
X43173337Y-52298711D01*
X43019166Y-52410723D01*
X42907154Y-52564894D01*
X42848264Y-52746138D01*
X42848264Y-52936704D01*
X42907154Y-53117948D01*
X43019165Y-53272118D01*
X43186159Y-53393448D01*
X43126441Y-53524208D01*
X42154323Y-53298133D01*
X42107760Y-53292790D01*
X42029099Y-53308437D01*
X41962414Y-53352994D01*
X41917857Y-53419679D01*
X41902210Y-53498340D01*
X41902210Y-54186714D01*
X41806221Y-54235623D01*
X41664017Y-54132305D01*
X41482775Y-54073416D01*
X41292209Y-54073416D01*
X41110965Y-54132306D01*
X40956796Y-54244316D01*
X40845143Y-54397994D01*
X40723668Y-54358524D01*
X40723668Y-53001885D01*
X41164615Y-52560937D01*
X41253224Y-52589729D01*
X41443790Y-52589729D01*
X41625034Y-52530839D01*
X41779205Y-52418827D01*
X41891217Y-52264656D01*
X41959691Y-52053917D01*
X42078503Y-52061392D01*
X42078503Y-52061392D01*
G37*
G36*
X50322391Y-36835978D02*
G01*
X50223474Y-36910677D01*
X50134593Y-37054226D01*
X50103569Y-37220187D01*
X50103569Y-38111529D01*
X50151733Y-38316310D01*
X50253480Y-38451045D01*
X50397029Y-38539926D01*
X50562990Y-38570950D01*
X51204332Y-38570950D01*
X51409113Y-38522786D01*
X51543848Y-38421039D01*
X51632729Y-38277490D01*
X51667616Y-38090864D01*
X52903111Y-38090864D01*
X52903111Y-38315858D01*
X52918758Y-38394519D01*
X52966424Y-38465858D01*
X52918758Y-38537197D01*
X52903111Y-38615858D01*
X52903111Y-39615858D01*
X52918758Y-39694519D01*
X52963315Y-39761204D01*
X53030000Y-39805761D01*
X53108661Y-39821408D01*
X53583655Y-39821408D01*
X53583655Y-40380388D01*
X53371841Y-40283653D01*
X53156094Y-40252634D01*
X53087661Y-40252634D01*
X53087661Y-42679082D01*
X53156091Y-42679082D01*
X53583656Y-42586071D01*
X53583656Y-43110308D01*
X53108661Y-43110308D01*
X53030000Y-43125955D01*
X52963315Y-43170512D01*
X52918758Y-43237197D01*
X52903111Y-43315858D01*
X52903111Y-44315858D01*
X52918758Y-44394519D01*
X52966424Y-44465858D01*
X52918758Y-44537197D01*
X52903111Y-44615858D01*
X52903111Y-44840852D01*
X52209941Y-44840852D01*
X52168837Y-44833011D01*
X52152544Y-44840265D01*
X52052439Y-44864853D01*
X52006650Y-44905221D01*
X52004361Y-44906240D01*
X51995922Y-44914679D01*
X51951081Y-44954211D01*
X51947773Y-44962828D01*
X51635597Y-45275006D01*
X51488841Y-45080670D01*
X51345293Y-44991790D01*
X51179332Y-44960766D01*
X50537990Y-44960766D01*
X50333209Y-45008930D01*
X50198474Y-45110677D01*
X50109593Y-45254226D01*
X50078569Y-45420187D01*
X50078569Y-46311529D01*
X50138390Y-46565868D01*
X49541208Y-46565868D01*
X49588753Y-46311529D01*
X49588753Y-45420187D01*
X49540589Y-45215406D01*
X49438842Y-45080671D01*
X49295293Y-44991790D01*
X49083667Y-44952230D01*
X49083667Y-44381690D01*
X49334113Y-44322786D01*
X49468848Y-44221039D01*
X49557729Y-44077490D01*
X49588753Y-43911529D01*
X49588753Y-43719858D01*
X49770437Y-43719858D01*
X49770437Y-43913289D01*
X49839640Y-44231409D01*
X49957484Y-44414776D01*
X50122212Y-44557515D01*
X50320484Y-44648063D01*
X50536228Y-44679082D01*
X50604661Y-44679082D01*
X50604661Y-43719858D01*
X51112661Y-43719858D01*
X51112661Y-44679082D01*
X51181092Y-44679082D01*
X51499212Y-44609879D01*
X51682579Y-44492035D01*
X51825318Y-44327307D01*
X51915866Y-44129035D01*
X51946885Y-43913291D01*
X51946885Y-43719858D01*
X51112661Y-43719858D01*
X50604661Y-43719858D01*
X49770437Y-43719858D01*
X49588753Y-43719858D01*
X49588753Y-43020187D01*
X49588339Y-43018425D01*
X49770437Y-43018425D01*
X49770437Y-43211858D01*
X50604661Y-43211858D01*
X50604661Y-42252634D01*
X50536230Y-42252634D01*
X50218110Y-42321837D01*
X50034743Y-42439681D01*
X49892004Y-42604409D01*
X49801456Y-42802681D01*
X49770437Y-43018425D01*
X49588339Y-43018425D01*
X49540589Y-42815406D01*
X49438842Y-42680671D01*
X49295293Y-42591790D01*
X49129332Y-42560766D01*
X48487990Y-42560766D01*
X48283209Y-42608930D01*
X48148474Y-42710677D01*
X48059593Y-42854226D01*
X48028569Y-43020187D01*
X48028569Y-43190852D01*
X47226211Y-43190852D01*
X47226211Y-42503858D01*
X47210564Y-42425197D01*
X47166007Y-42358512D01*
X47099322Y-42313955D01*
X47020661Y-42298308D01*
X45749591Y-42298308D01*
X45704639Y-42189784D01*
X46070098Y-41824326D01*
X50799745Y-41824326D01*
X50912862Y-41980018D01*
X51112661Y-42125181D01*
X51112661Y-43211858D01*
X51946885Y-43211858D01*
X51946885Y-43018427D01*
X51877682Y-42700307D01*
X51759838Y-42516940D01*
X51595110Y-42374201D01*
X51395173Y-42282892D01*
X51402036Y-42162879D01*
X51620085Y-42092031D01*
X51761904Y-41988991D01*
X51814640Y-42231409D01*
X51932484Y-42414776D01*
X52097212Y-42557515D01*
X52295484Y-42648063D01*
X52511228Y-42679082D01*
X52579661Y-42679082D01*
X52579661Y-40252634D01*
X52511230Y-40252634D01*
X52193111Y-40321836D01*
X52038434Y-40421243D01*
X51946885Y-40371254D01*
X51946885Y-40319858D01*
X49770437Y-40319858D01*
X49770437Y-40513289D01*
X49839640Y-40831409D01*
X49957484Y-41014776D01*
X50125022Y-41159950D01*
X50082366Y-41274314D01*
X45982466Y-41274314D01*
X45941362Y-41266473D01*
X45925069Y-41273727D01*
X45824964Y-41298315D01*
X45779175Y-41338683D01*
X45776886Y-41339702D01*
X45768447Y-41348141D01*
X45723606Y-41387673D01*
X45720298Y-41396290D01*
X45245114Y-41871475D01*
X45136590Y-41826523D01*
X45136590Y-41034040D01*
X45098639Y-40843254D01*
X45294173Y-40843254D01*
X45306758Y-40906519D01*
X45351315Y-40973204D01*
X45418000Y-41017761D01*
X45496661Y-41033408D01*
X47020661Y-41033408D01*
X47099322Y-41017761D01*
X47166007Y-40973204D01*
X47210564Y-40906519D01*
X47226211Y-40827858D01*
X47226211Y-40340864D01*
X48028569Y-40340864D01*
X48028569Y-40511529D01*
X48076733Y-40716310D01*
X48178480Y-40851045D01*
X48322029Y-40939926D01*
X48487990Y-40970950D01*
X49129332Y-40970950D01*
X49334113Y-40922786D01*
X49468848Y-40821039D01*
X49557729Y-40677490D01*
X49588753Y-40511529D01*
X49588753Y-39620187D01*
X49588339Y-39618425D01*
X49770437Y-39618425D01*
X49770437Y-39811858D01*
X50604661Y-39811858D01*
X50604661Y-38852634D01*
X51112661Y-38852634D01*
X51112661Y-39811858D01*
X51946885Y-39811858D01*
X51946885Y-39618427D01*
X51877682Y-39300307D01*
X51759838Y-39116940D01*
X51595110Y-38974201D01*
X51396838Y-38883653D01*
X51181094Y-38852634D01*
X51112661Y-38852634D01*
X50604661Y-38852634D01*
X50536230Y-38852634D01*
X50218110Y-38921837D01*
X50034743Y-39039681D01*
X49892004Y-39204409D01*
X49801456Y-39402681D01*
X49770437Y-39618425D01*
X49588339Y-39618425D01*
X49540589Y-39415406D01*
X49438842Y-39280671D01*
X49295293Y-39191790D01*
X49083667Y-39152230D01*
X49083667Y-38587570D01*
X49359113Y-38522786D01*
X49493848Y-38421039D01*
X49582729Y-38277490D01*
X49613753Y-38111529D01*
X49613753Y-37220187D01*
X49565589Y-37015406D01*
X49463843Y-36880671D01*
X49367450Y-36820986D01*
X49472390Y-36716046D01*
X50282194Y-36716046D01*
X50322391Y-36835978D01*
X50322391Y-36835978D01*
G37*
G36*
X36378111Y-42000855D02*
G01*
X36378111Y-42600858D01*
X36393758Y-42679519D01*
X36438315Y-42746204D01*
X36505000Y-42790761D01*
X36583661Y-42806408D01*
X38133661Y-42806408D01*
X38212323Y-42790761D01*
X38313713Y-42723014D01*
X38504354Y-42913657D01*
X38527874Y-42948265D01*
X38544528Y-42954658D01*
X38632695Y-43008055D01*
X38693618Y-43011888D01*
X38695960Y-43012787D01*
X38707896Y-43012787D01*
X38767553Y-43016540D01*
X38775981Y-43012787D01*
X39435553Y-43012787D01*
X39475023Y-43134261D01*
X39405161Y-43185019D01*
X39293150Y-43339189D01*
X39219765Y-43565041D01*
X39049710Y-43394985D01*
X39026187Y-43360372D01*
X39009528Y-43353977D01*
X38921366Y-43300584D01*
X38860443Y-43296751D01*
X38858103Y-43295852D01*
X38846172Y-43295852D01*
X38786509Y-43292099D01*
X38778081Y-43295852D01*
X38344182Y-43295852D01*
X38323564Y-43192197D01*
X38279007Y-43125512D01*
X38212322Y-43080955D01*
X38133661Y-43065308D01*
X36583661Y-43065308D01*
X36505000Y-43080955D01*
X36438315Y-43125512D01*
X36393758Y-43192197D01*
X36378111Y-43270858D01*
X36378111Y-43870858D01*
X36393758Y-43949519D01*
X36426587Y-43998651D01*
X36376915Y-44091579D01*
X34094675Y-44091579D01*
X33981557Y-43935886D01*
X33827387Y-43823875D01*
X33646143Y-43764985D01*
X33455577Y-43764985D01*
X33274333Y-43823875D01*
X33120163Y-43935886D01*
X33047104Y-44036443D01*
X32917546Y-43979772D01*
X32939211Y-43870858D01*
X32939211Y-43270858D01*
X32923564Y-43192196D01*
X32851941Y-43085001D01*
X32991581Y-43047585D01*
X33128814Y-42932434D01*
X33218388Y-42777285D01*
X33249498Y-42600855D01*
X33249498Y-42554858D01*
X31704661Y-42554858D01*
X31704661Y-42046858D01*
X33249498Y-42046858D01*
X33249498Y-42000859D01*
X33217347Y-41880871D01*
X36401976Y-41880871D01*
X36378111Y-42000855D01*
X36378111Y-42000855D01*
G37*
G36*
X63859552Y-38278470D02*
G01*
X63811078Y-38365202D01*
X63749550Y-38559165D01*
X63728280Y-38761525D01*
X63748136Y-38964032D01*
X63808309Y-39158416D01*
X63906334Y-39336723D01*
X64038214Y-39491682D01*
X64198560Y-39616959D01*
X64445173Y-39739378D01*
X64413356Y-39875034D01*
X60791333Y-39875034D01*
X60750229Y-39867193D01*
X60733936Y-39874447D01*
X60530877Y-39924323D01*
X60530877Y-39809040D01*
X58911040Y-39809040D01*
X58911040Y-38189203D01*
X59419040Y-38189203D01*
X59419040Y-39301040D01*
X60530877Y-39301040D01*
X60530877Y-38705041D01*
X60461768Y-38447123D01*
X60346614Y-38309886D01*
X60191467Y-38220313D01*
X60015037Y-38189203D01*
X59419040Y-38189203D01*
X58911040Y-38189203D01*
X58315041Y-38189203D01*
X58057123Y-38258312D01*
X57919886Y-38373466D01*
X57830313Y-38528613D01*
X57799203Y-38705043D01*
X57799203Y-38834339D01*
X57703214Y-38883248D01*
X57531303Y-38758346D01*
X57350059Y-38699456D01*
X57159493Y-38699456D01*
X56978249Y-38758346D01*
X56824078Y-38870358D01*
X56712066Y-39024529D01*
X56653176Y-39205773D01*
X56653176Y-39396339D01*
X56712066Y-39577583D01*
X56824078Y-39731754D01*
X56978249Y-39843766D01*
X57159493Y-39902656D01*
X57350059Y-39902656D01*
X57531303Y-39843766D01*
X57703214Y-39718864D01*
X57799203Y-39767773D01*
X57799203Y-40405040D01*
X57876904Y-40695027D01*
X56569168Y-40695027D01*
X56553545Y-40689030D01*
X56501720Y-40695027D01*
X56484540Y-40695027D01*
X56469247Y-40698784D01*
X56419320Y-40704560D01*
X56404374Y-40714718D01*
X56386825Y-40719028D01*
X56349124Y-40752266D01*
X56307561Y-40780512D01*
X56302689Y-40793203D01*
X56285469Y-40808385D01*
X56237044Y-40934535D01*
X56243041Y-40986360D01*
X56243042Y-41406960D01*
X55772277Y-41877725D01*
X55663753Y-41832773D01*
X55663753Y-41020187D01*
X55615589Y-40815406D01*
X55513842Y-40680671D01*
X55370293Y-40591790D01*
X55204332Y-40560766D01*
X54562990Y-40560766D01*
X54358209Y-40608930D01*
X54231106Y-40704913D01*
X54133667Y-40656394D01*
X54133667Y-39821408D01*
X54608661Y-39821408D01*
X54687322Y-39805761D01*
X54754007Y-39761204D01*
X54798564Y-39694519D01*
X54814211Y-39615858D01*
X54814211Y-38615858D01*
X54798564Y-38537197D01*
X54750898Y-38465858D01*
X54798564Y-38394519D01*
X54814211Y-38315858D01*
X54814211Y-37315858D01*
X54798564Y-37237197D01*
X54754007Y-37170512D01*
X54687322Y-37125955D01*
X54608661Y-37110308D01*
X53108661Y-37110308D01*
X53030000Y-37125955D01*
X52963315Y-37170512D01*
X52918758Y-37237197D01*
X52903111Y-37315858D01*
X52903111Y-37540852D01*
X51663753Y-37540852D01*
X51663753Y-37220187D01*
X51615589Y-37015406D01*
X51513842Y-36880671D01*
X51454190Y-36843736D01*
X51490521Y-36716046D01*
X62297129Y-36716046D01*
X63859552Y-38278470D01*
X63859552Y-38278470D01*
G37*
G36*
X48360182Y-28925320D02*
G01*
X48225541Y-29023143D01*
X48113530Y-29177313D01*
X48054640Y-29358557D01*
X48054640Y-29549123D01*
X48113530Y-29730367D01*
X48225542Y-29884538D01*
X48379713Y-29996550D01*
X48560957Y-30055440D01*
X48751523Y-30055440D01*
X48932767Y-29996550D01*
X49086938Y-29884538D01*
X49198950Y-29730367D01*
X49257840Y-29549123D01*
X49257840Y-29358557D01*
X49198950Y-29177313D01*
X49086939Y-29023143D01*
X48952298Y-28925320D01*
X48991768Y-28803846D01*
X50801928Y-28803846D01*
X50851599Y-28896773D01*
X50825137Y-28936377D01*
X50809490Y-29015040D01*
X50809490Y-29496229D01*
X50737007Y-29514034D01*
X50691217Y-29554403D01*
X50688928Y-29555422D01*
X50680489Y-29563861D01*
X50635648Y-29603393D01*
X50632340Y-29612010D01*
X44563656Y-35680695D01*
X44455132Y-35635743D01*
X44455132Y-35411653D01*
X44408301Y-35212540D01*
X44309370Y-35081534D01*
X44169795Y-34995113D01*
X44000046Y-34963381D01*
X44000046Y-34180132D01*
X44135711Y-34180132D01*
X44340492Y-34131968D01*
X44475227Y-34030221D01*
X44564108Y-33886672D01*
X44595132Y-33720711D01*
X44595132Y-32829369D01*
X44546968Y-32624588D01*
X44445221Y-32489853D01*
X44301672Y-32400972D01*
X44090046Y-32361412D01*
X44090046Y-31953224D01*
X44350492Y-31891968D01*
X44485227Y-31790221D01*
X44574108Y-31646672D01*
X44605132Y-31480711D01*
X44605132Y-30589369D01*
X44556968Y-30384588D01*
X44455221Y-30249853D01*
X44311672Y-30160972D01*
X44090046Y-30119542D01*
X44090046Y-29672057D01*
X44366271Y-29607088D01*
X44366271Y-29706692D01*
X44425161Y-29887936D01*
X44537173Y-30042107D01*
X44691344Y-30154119D01*
X44872588Y-30213009D01*
X45063154Y-30213009D01*
X45244396Y-30154120D01*
X45398569Y-30042106D01*
X45485468Y-29922501D01*
X45689478Y-30070724D01*
X45870722Y-30129614D01*
X46061288Y-30129614D01*
X46242532Y-30070724D01*
X46396703Y-29958712D01*
X46508715Y-29804541D01*
X46567605Y-29623297D01*
X46567605Y-29432731D01*
X46508716Y-29251489D01*
X46396702Y-29097315D01*
X46285510Y-29016532D01*
X46440036Y-28803846D01*
X48320712Y-28803846D01*
X48360182Y-28925320D01*
X48360182Y-28925320D01*
G37*
M02*
