G04 #@! TF.GenerationSoftware,KiCad,Pcbnew,(5.99.0-97-g37fac7a8f)*
G04 #@! TF.CreationDate,2019-11-17T20:53:56+01:00*
G04 #@! TF.ProjectId,canbox,63616e62-6f78-42e6-9b69-6361645f7063,rev?*
G04 #@! TF.SameCoordinates,Original*
G04 #@! TF.FileFunction,Paste,Bot*
G04 #@! TF.FilePolarity,Positive*
%FSLAX46Y46*%
G04 Gerber Fmt 4.6, Leading zero omitted, Abs format (unit mm)*
G04 Created by KiCad (PCBNEW (5.99.0-97-g37fac7a8f)) date 2019-11-17 20:53:56*
%MOMM*%
%LPD*%
G04 APERTURE LIST*
%ADD10C,0.100000*%
%ADD11C,1.150000*%
%ADD12R,0.400000X1.500000*%
%ADD13R,3.000000X0.400000*%
G04 APERTURE END LIST*
D10*
G36*
X40620711Y-63589070D02*
G01*
X40701817Y-63643263D01*
X40756010Y-63724369D01*
X40775040Y-63820039D01*
X40775040Y-64720041D01*
X40756010Y-64815711D01*
X40701817Y-64896817D01*
X40620711Y-64951010D01*
X40525041Y-64970040D01*
X39875039Y-64970040D01*
X39779369Y-64951010D01*
X39698263Y-64896817D01*
X39644070Y-64815711D01*
X39625040Y-64720041D01*
X39625040Y-63820039D01*
X39644070Y-63724369D01*
X39698263Y-63643263D01*
X39779369Y-63589070D01*
X39875039Y-63570040D01*
X40525041Y-63570040D01*
X40620711Y-63589070D01*
X40620711Y-63589070D01*
G37*
D11*
X40200040Y-64270040D03*
D10*
G36*
X38570711Y-63589070D02*
G01*
X38651817Y-63643263D01*
X38706010Y-63724369D01*
X38725040Y-63820039D01*
X38725040Y-64720041D01*
X38706010Y-64815711D01*
X38651817Y-64896817D01*
X38570711Y-64951010D01*
X38475041Y-64970040D01*
X37825039Y-64970040D01*
X37729369Y-64951010D01*
X37648263Y-64896817D01*
X37594070Y-64815711D01*
X37575040Y-64720041D01*
X37575040Y-63820039D01*
X37594070Y-63724369D01*
X37648263Y-63643263D01*
X37729369Y-63589070D01*
X37825039Y-63570040D01*
X38475041Y-63570040D01*
X38570711Y-63589070D01*
X38570711Y-63589070D01*
G37*
D11*
X38150040Y-64270040D03*
D10*
G36*
X40790711Y-26419070D02*
G01*
X40871817Y-26473263D01*
X40926010Y-26554369D01*
X40945040Y-26650039D01*
X40945040Y-27550041D01*
X40926010Y-27645711D01*
X40871817Y-27726817D01*
X40790711Y-27781010D01*
X40695041Y-27800040D01*
X40045039Y-27800040D01*
X39949369Y-27781010D01*
X39868263Y-27726817D01*
X39814070Y-27645711D01*
X39795040Y-27550041D01*
X39795040Y-26650039D01*
X39814070Y-26554369D01*
X39868263Y-26473263D01*
X39949369Y-26419070D01*
X40045039Y-26400040D01*
X40695041Y-26400040D01*
X40790711Y-26419070D01*
X40790711Y-26419070D01*
G37*
D11*
X40370040Y-27100040D03*
D10*
G36*
X42840711Y-26419070D02*
G01*
X42921817Y-26473263D01*
X42976010Y-26554369D01*
X42995040Y-26650039D01*
X42995040Y-27550041D01*
X42976010Y-27645711D01*
X42921817Y-27726817D01*
X42840711Y-27781010D01*
X42745041Y-27800040D01*
X42095039Y-27800040D01*
X41999369Y-27781010D01*
X41918263Y-27726817D01*
X41864070Y-27645711D01*
X41845040Y-27550041D01*
X41845040Y-26650039D01*
X41864070Y-26554369D01*
X41918263Y-26473263D01*
X41999369Y-26419070D01*
X42095039Y-26400040D01*
X42745041Y-26400040D01*
X42840711Y-26419070D01*
X42840711Y-26419070D01*
G37*
D11*
X42420040Y-27100040D03*
D12*
X48195040Y-47505040D03*
X46895040Y-47505040D03*
X46895040Y-50165040D03*
X47545040Y-50165040D03*
X48195040Y-50165040D03*
D10*
G36*
X50540711Y-45799070D02*
G01*
X50621817Y-45853263D01*
X50676010Y-45934369D01*
X50695040Y-46030039D01*
X50695040Y-46680041D01*
X50676010Y-46775711D01*
X50621817Y-46856817D01*
X50540711Y-46911010D01*
X50445041Y-46930040D01*
X49545039Y-46930040D01*
X49449369Y-46911010D01*
X49368263Y-46856817D01*
X49314070Y-46775711D01*
X49295040Y-46680041D01*
X49295040Y-46030039D01*
X49314070Y-45934369D01*
X49368263Y-45853263D01*
X49449369Y-45799070D01*
X49545039Y-45780040D01*
X50445041Y-45780040D01*
X50540711Y-45799070D01*
X50540711Y-45799070D01*
G37*
D11*
X49995040Y-46355040D03*
D10*
G36*
X50540711Y-43749070D02*
G01*
X50621817Y-43803263D01*
X50676010Y-43884369D01*
X50695040Y-43980039D01*
X50695040Y-44630041D01*
X50676010Y-44725711D01*
X50621817Y-44806817D01*
X50540711Y-44861010D01*
X50445041Y-44880040D01*
X49545039Y-44880040D01*
X49449369Y-44861010D01*
X49368263Y-44806817D01*
X49314070Y-44725711D01*
X49295040Y-44630041D01*
X49295040Y-43980039D01*
X49314070Y-43884369D01*
X49368263Y-43803263D01*
X49449369Y-43749070D01*
X49545039Y-43730040D01*
X50445041Y-43730040D01*
X50540711Y-43749070D01*
X50540711Y-43749070D01*
G37*
D11*
X49995040Y-44305040D03*
D10*
G36*
X48635711Y-55884070D02*
G01*
X48716817Y-55938263D01*
X48771010Y-56019369D01*
X48790040Y-56115039D01*
X48790040Y-57015041D01*
X48771010Y-57110711D01*
X48716817Y-57191817D01*
X48635711Y-57246010D01*
X48540041Y-57265040D01*
X47890039Y-57265040D01*
X47794369Y-57246010D01*
X47713263Y-57191817D01*
X47659070Y-57110711D01*
X47640040Y-57015041D01*
X47640040Y-56115039D01*
X47659070Y-56019369D01*
X47713263Y-55938263D01*
X47794369Y-55884070D01*
X47890039Y-55865040D01*
X48540041Y-55865040D01*
X48635711Y-55884070D01*
X48635711Y-55884070D01*
G37*
D11*
X48215040Y-56565040D03*
D10*
G36*
X46585711Y-55884070D02*
G01*
X46666817Y-55938263D01*
X46721010Y-56019369D01*
X46740040Y-56115039D01*
X46740040Y-57015041D01*
X46721010Y-57110711D01*
X46666817Y-57191817D01*
X46585711Y-57246010D01*
X46490041Y-57265040D01*
X45840039Y-57265040D01*
X45744369Y-57246010D01*
X45663263Y-57191817D01*
X45609070Y-57110711D01*
X45590040Y-57015041D01*
X45590040Y-56115039D01*
X45609070Y-56019369D01*
X45663263Y-55938263D01*
X45744369Y-55884070D01*
X45840039Y-55865040D01*
X46490041Y-55865040D01*
X46585711Y-55884070D01*
X46585711Y-55884070D01*
G37*
D11*
X46165040Y-56565040D03*
D10*
G36*
X33047530Y-42735361D02*
G01*
X33128636Y-42789554D01*
X33182829Y-42870660D01*
X33201859Y-42966330D01*
X33201859Y-43866332D01*
X33182829Y-43962002D01*
X33128636Y-44043108D01*
X33047530Y-44097301D01*
X32951860Y-44116331D01*
X32301858Y-44116331D01*
X32206188Y-44097301D01*
X32125082Y-44043108D01*
X32070889Y-43962002D01*
X32051859Y-43866332D01*
X32051859Y-42966330D01*
X32070889Y-42870660D01*
X32125082Y-42789554D01*
X32206188Y-42735361D01*
X32301858Y-42716331D01*
X32951860Y-42716331D01*
X33047530Y-42735361D01*
X33047530Y-42735361D01*
G37*
D11*
X32626859Y-43416331D03*
D10*
G36*
X30997530Y-42735361D02*
G01*
X31078636Y-42789554D01*
X31132829Y-42870660D01*
X31151859Y-42966330D01*
X31151859Y-43866332D01*
X31132829Y-43962002D01*
X31078636Y-44043108D01*
X30997530Y-44097301D01*
X30901860Y-44116331D01*
X30251858Y-44116331D01*
X30156188Y-44097301D01*
X30075082Y-44043108D01*
X30020889Y-43962002D01*
X30001859Y-43866332D01*
X30001859Y-42966330D01*
X30020889Y-42870660D01*
X30075082Y-42789554D01*
X30156188Y-42735361D01*
X30251858Y-42716331D01*
X30901860Y-42716331D01*
X30997530Y-42735361D01*
X30997530Y-42735361D01*
G37*
D11*
X30576859Y-43416331D03*
D10*
G36*
X33047530Y-44995361D02*
G01*
X33128636Y-45049554D01*
X33182829Y-45130660D01*
X33201859Y-45226330D01*
X33201859Y-46126332D01*
X33182829Y-46222002D01*
X33128636Y-46303108D01*
X33047530Y-46357301D01*
X32951860Y-46376331D01*
X32301858Y-46376331D01*
X32206188Y-46357301D01*
X32125082Y-46303108D01*
X32070889Y-46222002D01*
X32051859Y-46126332D01*
X32051859Y-45226330D01*
X32070889Y-45130660D01*
X32125082Y-45049554D01*
X32206188Y-44995361D01*
X32301858Y-44976331D01*
X32951860Y-44976331D01*
X33047530Y-44995361D01*
X33047530Y-44995361D01*
G37*
D11*
X32626859Y-45676331D03*
D10*
G36*
X30997530Y-44995361D02*
G01*
X31078636Y-45049554D01*
X31132829Y-45130660D01*
X31151859Y-45226330D01*
X31151859Y-46126332D01*
X31132829Y-46222002D01*
X31078636Y-46303108D01*
X30997530Y-46357301D01*
X30901860Y-46376331D01*
X30251858Y-46376331D01*
X30156188Y-46357301D01*
X30075082Y-46303108D01*
X30020889Y-46222002D01*
X30001859Y-46126332D01*
X30001859Y-45226330D01*
X30020889Y-45130660D01*
X30075082Y-45049554D01*
X30156188Y-44995361D01*
X30251858Y-44976331D01*
X30901860Y-44976331D01*
X30997530Y-44995361D01*
X30997530Y-44995361D01*
G37*
D11*
X30576859Y-45676331D03*
D13*
X26115040Y-42900040D03*
X26115040Y-43550040D03*
X26115040Y-44200040D03*
X26115040Y-44850040D03*
X26115040Y-45500040D03*
D10*
G36*
X62021329Y-53293489D02*
G01*
X62102435Y-53347682D01*
X62156628Y-53428788D01*
X62175658Y-53524458D01*
X62175658Y-54424460D01*
X62156628Y-54520130D01*
X62102435Y-54601236D01*
X62021329Y-54655429D01*
X61925659Y-54674459D01*
X61275657Y-54674459D01*
X61179987Y-54655429D01*
X61098881Y-54601236D01*
X61044688Y-54520130D01*
X61025658Y-54424460D01*
X61025658Y-53524458D01*
X61044688Y-53428788D01*
X61098881Y-53347682D01*
X61179987Y-53293489D01*
X61275657Y-53274459D01*
X61925659Y-53274459D01*
X62021329Y-53293489D01*
X62021329Y-53293489D01*
G37*
D11*
X61600658Y-53974459D03*
D10*
G36*
X64071329Y-53293489D02*
G01*
X64152435Y-53347682D01*
X64206628Y-53428788D01*
X64225658Y-53524458D01*
X64225658Y-54424460D01*
X64206628Y-54520130D01*
X64152435Y-54601236D01*
X64071329Y-54655429D01*
X63975659Y-54674459D01*
X63325657Y-54674459D01*
X63229987Y-54655429D01*
X63148881Y-54601236D01*
X63094688Y-54520130D01*
X63075658Y-54424460D01*
X63075658Y-53524458D01*
X63094688Y-53428788D01*
X63148881Y-53347682D01*
X63229987Y-53293489D01*
X63325657Y-53274459D01*
X63975659Y-53274459D01*
X64071329Y-53293489D01*
X64071329Y-53293489D01*
G37*
D11*
X63650658Y-53974459D03*
D10*
G36*
X62021329Y-50893489D02*
G01*
X62102435Y-50947682D01*
X62156628Y-51028788D01*
X62175658Y-51124458D01*
X62175658Y-52024460D01*
X62156628Y-52120130D01*
X62102435Y-52201236D01*
X62021329Y-52255429D01*
X61925659Y-52274459D01*
X61275657Y-52274459D01*
X61179987Y-52255429D01*
X61098881Y-52201236D01*
X61044688Y-52120130D01*
X61025658Y-52024460D01*
X61025658Y-51124458D01*
X61044688Y-51028788D01*
X61098881Y-50947682D01*
X61179987Y-50893489D01*
X61275657Y-50874459D01*
X61925659Y-50874459D01*
X62021329Y-50893489D01*
X62021329Y-50893489D01*
G37*
D11*
X61600658Y-51574459D03*
D10*
G36*
X64071329Y-50893489D02*
G01*
X64152435Y-50947682D01*
X64206628Y-51028788D01*
X64225658Y-51124458D01*
X64225658Y-52024460D01*
X64206628Y-52120130D01*
X64152435Y-52201236D01*
X64071329Y-52255429D01*
X63975659Y-52274459D01*
X63325657Y-52274459D01*
X63229987Y-52255429D01*
X63148881Y-52201236D01*
X63094688Y-52120130D01*
X63075658Y-52024460D01*
X63075658Y-51124458D01*
X63094688Y-51028788D01*
X63148881Y-50947682D01*
X63229987Y-50893489D01*
X63325657Y-50874459D01*
X63975659Y-50874459D01*
X64071329Y-50893489D01*
X64071329Y-50893489D01*
G37*
D11*
X63650658Y-51574459D03*
M02*
