G04 #@! TF.GenerationSoftware,KiCad,Pcbnew,(5.99.0-97-g37fac7a8f)*
G04 #@! TF.CreationDate,2019-12-11T21:19:42+01:00*
G04 #@! TF.ProjectId,canbox,63616e62-6f78-42e6-9b69-6361645f7063,rev?*
G04 #@! TF.SameCoordinates,Original*
G04 #@! TF.FileFunction,Paste,Top*
G04 #@! TF.FilePolarity,Positive*
%FSLAX46Y46*%
G04 Gerber Fmt 4.6, Leading zero omitted, Abs format (unit mm)*
G04 Created by KiCad (PCBNEW (5.99.0-97-g37fac7a8f)) date 2019-12-11 21:19:42*
%MOMM*%
%LPD*%
G04 APERTURE LIST*
%ADD10C,0.100000*%
%ADD11C,1.150000*%
%ADD12C,1.800000*%
%ADD13C,0.950000*%
%ADD14R,1.524000X0.700000*%
%ADD15R,1.500000X0.280000*%
%ADD16R,0.280000X1.500000*%
%ADD17R,2.400000X0.740000*%
%ADD18R,1.450000X1.450000*%
%ADD19O,0.600000X0.250000*%
%ADD20O,0.250000X0.600000*%
%ADD21C,1.250000*%
%ADD22R,1.060000X0.650000*%
%ADD23R,2.100000X1.800000*%
%ADD24R,3.000000X0.400000*%
G04 APERTURE END LIST*
D10*
G36*
X38051931Y-65836550D02*
G01*
X38133037Y-65890743D01*
X38187230Y-65971849D01*
X38206260Y-66067519D01*
X38206260Y-66967521D01*
X38187230Y-67063191D01*
X38133037Y-67144297D01*
X38051931Y-67198490D01*
X37956261Y-67217520D01*
X37306259Y-67217520D01*
X37210589Y-67198490D01*
X37129483Y-67144297D01*
X37075290Y-67063191D01*
X37056260Y-66967521D01*
X37056260Y-66067519D01*
X37075290Y-65971849D01*
X37129483Y-65890743D01*
X37210589Y-65836550D01*
X37306259Y-65817520D01*
X37956261Y-65817520D01*
X38051931Y-65836550D01*
X38051931Y-65836550D01*
G37*
D11*
X37631260Y-66517520D03*
D10*
G36*
X40101931Y-65836550D02*
G01*
X40183037Y-65890743D01*
X40237230Y-65971849D01*
X40256260Y-66067519D01*
X40256260Y-66967521D01*
X40237230Y-67063191D01*
X40183037Y-67144297D01*
X40101931Y-67198490D01*
X40006261Y-67217520D01*
X39356259Y-67217520D01*
X39260589Y-67198490D01*
X39179483Y-67144297D01*
X39125290Y-67063191D01*
X39106260Y-66967521D01*
X39106260Y-66067519D01*
X39125290Y-65971849D01*
X39179483Y-65890743D01*
X39260589Y-65836550D01*
X39356259Y-65817520D01*
X40006261Y-65817520D01*
X40101931Y-65836550D01*
X40101931Y-65836550D01*
G37*
D11*
X39681260Y-66517520D03*
D12*
X35447040Y-57103040D03*
D10*
G36*
X35075112Y-55771060D02*
G01*
X36706466Y-56531773D01*
X35818968Y-58435020D01*
X34187614Y-57674307D01*
X35075112Y-55771060D01*
X35075112Y-55771060D01*
G37*
D12*
X34221447Y-59731332D03*
D10*
G36*
X33849519Y-58399352D02*
G01*
X35480873Y-59160065D01*
X34593375Y-61063312D01*
X32962021Y-60302599D01*
X33849519Y-58399352D01*
X33849519Y-58399352D01*
G37*
D12*
X32136940Y-58759310D03*
D10*
G36*
X31765012Y-57427330D02*
G01*
X33396366Y-58188043D01*
X32508868Y-60091290D01*
X30877514Y-59330577D01*
X31765012Y-57427330D01*
X31765012Y-57427330D01*
G37*
D12*
X33362533Y-56131018D03*
D10*
G36*
X32990605Y-54799038D02*
G01*
X34621959Y-55559751D01*
X33734461Y-57462998D01*
X32103107Y-56702285D01*
X32990605Y-54799038D01*
X32990605Y-54799038D01*
G37*
G36*
X30685427Y-33282119D02*
G01*
X30762478Y-33333602D01*
X30813961Y-33410653D01*
X30832040Y-33501540D01*
X30832040Y-33976540D01*
X30813961Y-34067427D01*
X30762478Y-34144478D01*
X30685427Y-34195961D01*
X30594540Y-34214040D01*
X30019540Y-34214040D01*
X29928653Y-34195961D01*
X29851602Y-34144478D01*
X29800119Y-34067427D01*
X29782040Y-33976540D01*
X29782040Y-33501540D01*
X29800119Y-33410653D01*
X29851602Y-33333602D01*
X29928653Y-33282119D01*
X30019540Y-33264040D01*
X30594540Y-33264040D01*
X30685427Y-33282119D01*
X30685427Y-33282119D01*
G37*
D13*
X30307040Y-33739040D03*
D10*
G36*
X32435427Y-33282119D02*
G01*
X32512478Y-33333602D01*
X32563961Y-33410653D01*
X32582040Y-33501540D01*
X32582040Y-33976540D01*
X32563961Y-34067427D01*
X32512478Y-34144478D01*
X32435427Y-34195961D01*
X32344540Y-34214040D01*
X31769540Y-34214040D01*
X31678653Y-34195961D01*
X31601602Y-34144478D01*
X31550119Y-34067427D01*
X31532040Y-33976540D01*
X31532040Y-33501540D01*
X31550119Y-33410653D01*
X31601602Y-33333602D01*
X31678653Y-33282119D01*
X31769540Y-33264040D01*
X32344540Y-33264040D01*
X32435427Y-33282119D01*
X32435427Y-33282119D01*
G37*
D13*
X32057040Y-33739040D03*
D10*
G36*
X32444427Y-31721119D02*
G01*
X32521478Y-31772602D01*
X32572961Y-31849653D01*
X32591040Y-31940540D01*
X32591040Y-32415540D01*
X32572961Y-32506427D01*
X32521478Y-32583478D01*
X32444427Y-32634961D01*
X32353540Y-32653040D01*
X31778540Y-32653040D01*
X31687653Y-32634961D01*
X31610602Y-32583478D01*
X31559119Y-32506427D01*
X31541040Y-32415540D01*
X31541040Y-31940540D01*
X31559119Y-31849653D01*
X31610602Y-31772602D01*
X31687653Y-31721119D01*
X31778540Y-31703040D01*
X32353540Y-31703040D01*
X32444427Y-31721119D01*
X32444427Y-31721119D01*
G37*
D13*
X32066040Y-32178040D03*
D10*
G36*
X30694427Y-31721119D02*
G01*
X30771478Y-31772602D01*
X30822961Y-31849653D01*
X30841040Y-31940540D01*
X30841040Y-32415540D01*
X30822961Y-32506427D01*
X30771478Y-32583478D01*
X30694427Y-32634961D01*
X30603540Y-32653040D01*
X30028540Y-32653040D01*
X29937653Y-32634961D01*
X29860602Y-32583478D01*
X29809119Y-32506427D01*
X29791040Y-32415540D01*
X29791040Y-31940540D01*
X29809119Y-31849653D01*
X29860602Y-31772602D01*
X29937653Y-31721119D01*
X30028540Y-31703040D01*
X30603540Y-31703040D01*
X30694427Y-31721119D01*
X30694427Y-31721119D01*
G37*
D13*
X30316040Y-32178040D03*
D14*
X39788040Y-32195040D03*
X39788040Y-33595040D03*
X35288040Y-33595040D03*
X35288040Y-32195040D03*
D15*
X39100000Y-53000000D03*
X39100000Y-52500000D03*
D16*
X41000000Y-45100000D03*
X41500000Y-45100000D03*
X42000000Y-45100000D03*
X42500000Y-45100000D03*
X43000000Y-45100000D03*
X43500000Y-45100000D03*
X44000000Y-45100000D03*
X44500000Y-45100000D03*
X45000000Y-45100000D03*
X45500000Y-45100000D03*
X46000000Y-45100000D03*
X46500000Y-45100000D03*
X47000000Y-45100000D03*
X47500000Y-45100000D03*
X48000000Y-45100000D03*
X48500000Y-45100000D03*
X49000000Y-45100000D03*
X49500000Y-45100000D03*
X50000000Y-45100000D03*
X50500000Y-45100000D03*
X51000000Y-45100000D03*
X51500000Y-45100000D03*
X52000000Y-45100000D03*
X52500000Y-45100000D03*
X53000000Y-45100000D03*
D15*
X54900000Y-47000000D03*
X54900000Y-47500000D03*
X54900000Y-48000000D03*
X54900000Y-48500000D03*
X54900000Y-49000000D03*
X54900000Y-49500000D03*
X54900000Y-50000000D03*
X54900000Y-50500000D03*
X54900000Y-51000000D03*
X54900000Y-51500000D03*
X54900000Y-52000000D03*
X54900000Y-52500000D03*
X54900000Y-53000000D03*
X54900000Y-53500000D03*
X54900000Y-54000000D03*
X54900000Y-54500000D03*
X54900000Y-55000000D03*
X54900000Y-55500000D03*
X54900000Y-56000000D03*
X54900000Y-56500000D03*
X54900000Y-57000000D03*
X54900000Y-57500000D03*
X54900000Y-58000000D03*
X54900000Y-58500000D03*
X54900000Y-59000000D03*
D16*
X53000000Y-60900000D03*
X52500000Y-60900000D03*
X52000000Y-60900000D03*
X51500000Y-60900000D03*
X51000000Y-60900000D03*
X50500000Y-60900000D03*
X50000000Y-60900000D03*
X49500000Y-60900000D03*
X49000000Y-60900000D03*
X48500000Y-60900000D03*
X48000000Y-60900000D03*
X47500000Y-60900000D03*
X47000000Y-60900000D03*
X46500000Y-60900000D03*
X46000000Y-60900000D03*
X45500000Y-60900000D03*
X45000000Y-60900000D03*
X44500000Y-60900000D03*
X44000000Y-60900000D03*
X43500000Y-60900000D03*
X43000000Y-60900000D03*
X42500000Y-60900000D03*
X42000000Y-60900000D03*
X41500000Y-60900000D03*
X41000000Y-60900000D03*
D15*
X39100000Y-59000000D03*
X39100000Y-58500000D03*
X39100000Y-58000000D03*
X39100000Y-57500000D03*
X39100000Y-57000000D03*
X39100000Y-56500000D03*
X39100000Y-56000000D03*
X39100000Y-55500000D03*
X39100000Y-55000000D03*
X39100000Y-54500000D03*
X39100000Y-54000000D03*
X39100000Y-53500000D03*
X39100000Y-52000000D03*
X39100000Y-51500000D03*
X39100000Y-51000000D03*
X39100000Y-50500000D03*
X39100000Y-50000000D03*
X39100000Y-49500000D03*
X39100000Y-49000000D03*
X39100000Y-48500000D03*
X39100000Y-48000000D03*
X39100000Y-47500000D03*
X39100000Y-47000000D03*
D17*
X28975040Y-45015040D03*
X25075040Y-45015040D03*
X28975040Y-43745040D03*
X25075040Y-43745040D03*
X28975040Y-42475040D03*
X25075040Y-42475040D03*
X28975040Y-41205040D03*
X25075040Y-41205040D03*
X28975040Y-39935040D03*
X25075040Y-39935040D03*
D18*
X45695040Y-34545040D03*
X47545040Y-34545040D03*
X45695040Y-32695040D03*
X47545040Y-32695040D03*
D19*
X49620040Y-31620040D03*
X49620040Y-32120040D03*
X49620040Y-32620040D03*
X49620040Y-33120040D03*
X49620040Y-33620040D03*
X49620040Y-34120040D03*
X49620040Y-34620040D03*
X49620040Y-35120040D03*
X49620040Y-35620040D03*
D20*
X48620040Y-36620040D03*
X48120040Y-36620040D03*
X47620040Y-36620040D03*
X47120040Y-36620040D03*
X46620040Y-36620040D03*
X46120040Y-36620040D03*
X45620040Y-36620040D03*
X45120040Y-36620040D03*
X44620040Y-36620040D03*
D19*
X43620040Y-35620040D03*
X43620040Y-35120040D03*
X43620040Y-34620040D03*
X43620040Y-34120040D03*
X43620040Y-33620040D03*
X43620040Y-33120040D03*
X43620040Y-32620040D03*
X43620040Y-32120040D03*
X43620040Y-31620040D03*
D20*
X44620040Y-30620040D03*
X45120040Y-30620040D03*
X45620040Y-30620040D03*
X46120040Y-30620040D03*
X46620040Y-30620040D03*
X47120040Y-30620040D03*
X47620040Y-30620040D03*
X48120040Y-30620040D03*
X48620040Y-30620040D03*
D10*
G36*
X47280711Y-40149070D02*
G01*
X47361817Y-40203263D01*
X47416010Y-40284369D01*
X47435040Y-40380039D01*
X47435040Y-41030041D01*
X47416010Y-41125711D01*
X47361817Y-41206817D01*
X47280711Y-41261010D01*
X47185041Y-41280040D01*
X46285039Y-41280040D01*
X46189369Y-41261010D01*
X46108263Y-41206817D01*
X46054070Y-41125711D01*
X46035040Y-41030041D01*
X46035040Y-40380039D01*
X46054070Y-40284369D01*
X46108263Y-40203263D01*
X46189369Y-40149070D01*
X46285039Y-40130040D01*
X47185041Y-40130040D01*
X47280711Y-40149070D01*
X47280711Y-40149070D01*
G37*
D11*
X46735040Y-40705040D03*
D10*
G36*
X47280711Y-38099070D02*
G01*
X47361817Y-38153263D01*
X47416010Y-38234369D01*
X47435040Y-38330039D01*
X47435040Y-38980041D01*
X47416010Y-39075711D01*
X47361817Y-39156817D01*
X47280711Y-39211010D01*
X47185041Y-39230040D01*
X46285039Y-39230040D01*
X46189369Y-39211010D01*
X46108263Y-39156817D01*
X46054070Y-39075711D01*
X46035040Y-38980041D01*
X46035040Y-38330039D01*
X46054070Y-38234369D01*
X46108263Y-38153263D01*
X46189369Y-38099070D01*
X46285039Y-38080040D01*
X47185041Y-38080040D01*
X47280711Y-38099070D01*
X47280711Y-38099070D01*
G37*
D11*
X46735040Y-38655040D03*
D10*
G36*
X59765711Y-24839070D02*
G01*
X59846817Y-24893263D01*
X59901010Y-24974369D01*
X59920040Y-25070040D01*
X59920040Y-27220040D01*
X59901010Y-27315711D01*
X59846817Y-27396817D01*
X59765711Y-27451010D01*
X59670040Y-27470040D01*
X58920040Y-27470040D01*
X58824369Y-27451010D01*
X58743263Y-27396817D01*
X58689070Y-27315711D01*
X58670040Y-27220040D01*
X58670040Y-25070040D01*
X58689070Y-24974369D01*
X58743263Y-24893263D01*
X58824369Y-24839070D01*
X58920040Y-24820040D01*
X59670040Y-24820040D01*
X59765711Y-24839070D01*
X59765711Y-24839070D01*
G37*
D21*
X59295040Y-26145040D03*
D10*
G36*
X56965711Y-24839070D02*
G01*
X57046817Y-24893263D01*
X57101010Y-24974369D01*
X57120040Y-25070040D01*
X57120040Y-27220040D01*
X57101010Y-27315711D01*
X57046817Y-27396817D01*
X56965711Y-27451010D01*
X56870040Y-27470040D01*
X56120040Y-27470040D01*
X56024369Y-27451010D01*
X55943263Y-27396817D01*
X55889070Y-27315711D01*
X55870040Y-27220040D01*
X55870040Y-25070040D01*
X55889070Y-24974369D01*
X55943263Y-24893263D01*
X56024369Y-24839070D01*
X56120040Y-24820040D01*
X56870040Y-24820040D01*
X56965711Y-24839070D01*
X56965711Y-24839070D01*
G37*
D21*
X56495040Y-26145040D03*
D10*
G36*
X60245093Y-31094651D02*
G01*
X60326199Y-31148844D01*
X60380392Y-31229950D01*
X60399422Y-31325621D01*
X60399422Y-33475621D01*
X60380392Y-33571292D01*
X60326199Y-33652398D01*
X60245093Y-33706591D01*
X60149422Y-33725621D01*
X59399422Y-33725621D01*
X59303751Y-33706591D01*
X59222645Y-33652398D01*
X59168452Y-33571292D01*
X59149422Y-33475621D01*
X59149422Y-31325621D01*
X59168452Y-31229950D01*
X59222645Y-31148844D01*
X59303751Y-31094651D01*
X59399422Y-31075621D01*
X60149422Y-31075621D01*
X60245093Y-31094651D01*
X60245093Y-31094651D01*
G37*
D21*
X59774422Y-32400621D03*
D10*
G36*
X57445093Y-31094651D02*
G01*
X57526199Y-31148844D01*
X57580392Y-31229950D01*
X57599422Y-31325621D01*
X57599422Y-33475621D01*
X57580392Y-33571292D01*
X57526199Y-33652398D01*
X57445093Y-33706591D01*
X57349422Y-33725621D01*
X56599422Y-33725621D01*
X56503751Y-33706591D01*
X56422645Y-33652398D01*
X56368452Y-33571292D01*
X56349422Y-33475621D01*
X56349422Y-31325621D01*
X56368452Y-31229950D01*
X56422645Y-31148844D01*
X56503751Y-31094651D01*
X56599422Y-31075621D01*
X57349422Y-31075621D01*
X57445093Y-31094651D01*
X57445093Y-31094651D01*
G37*
D21*
X56974422Y-32400621D03*
D22*
X28825040Y-63335040D03*
X28825040Y-65235040D03*
X26625040Y-65235040D03*
X26625040Y-64285040D03*
X26625040Y-63335040D03*
D23*
X47785040Y-25455040D03*
X44885040Y-25455040D03*
X44885040Y-23155040D03*
X47785040Y-23155040D03*
D10*
G36*
X57640711Y-35449070D02*
G01*
X57721817Y-35503263D01*
X57776010Y-35584369D01*
X57795040Y-35680039D01*
X57795040Y-36580041D01*
X57776010Y-36675711D01*
X57721817Y-36756817D01*
X57640711Y-36811010D01*
X57545041Y-36830040D01*
X56895039Y-36830040D01*
X56799369Y-36811010D01*
X56718263Y-36756817D01*
X56664070Y-36675711D01*
X56645040Y-36580041D01*
X56645040Y-35680039D01*
X56664070Y-35584369D01*
X56718263Y-35503263D01*
X56799369Y-35449070D01*
X56895039Y-35430040D01*
X57545041Y-35430040D01*
X57640711Y-35449070D01*
X57640711Y-35449070D01*
G37*
D11*
X57220040Y-36130040D03*
D10*
G36*
X59690711Y-35449070D02*
G01*
X59771817Y-35503263D01*
X59826010Y-35584369D01*
X59845040Y-35680039D01*
X59845040Y-36580041D01*
X59826010Y-36675711D01*
X59771817Y-36756817D01*
X59690711Y-36811010D01*
X59595041Y-36830040D01*
X58945039Y-36830040D01*
X58849369Y-36811010D01*
X58768263Y-36756817D01*
X58714070Y-36675711D01*
X58695040Y-36580041D01*
X58695040Y-35680039D01*
X58714070Y-35584369D01*
X58768263Y-35503263D01*
X58849369Y-35449070D01*
X58945039Y-35430040D01*
X59595041Y-35430040D01*
X59690711Y-35449070D01*
X59690711Y-35449070D01*
G37*
D11*
X59270040Y-36130040D03*
D10*
G36*
X60430711Y-22044070D02*
G01*
X60511817Y-22098263D01*
X60566010Y-22179369D01*
X60585040Y-22275039D01*
X60585040Y-23175041D01*
X60566010Y-23270711D01*
X60511817Y-23351817D01*
X60430711Y-23406010D01*
X60335041Y-23425040D01*
X59685039Y-23425040D01*
X59589369Y-23406010D01*
X59508263Y-23351817D01*
X59454070Y-23270711D01*
X59435040Y-23175041D01*
X59435040Y-22275039D01*
X59454070Y-22179369D01*
X59508263Y-22098263D01*
X59589369Y-22044070D01*
X59685039Y-22025040D01*
X60335041Y-22025040D01*
X60430711Y-22044070D01*
X60430711Y-22044070D01*
G37*
D11*
X60010040Y-22725040D03*
D10*
G36*
X62480711Y-22044070D02*
G01*
X62561817Y-22098263D01*
X62616010Y-22179369D01*
X62635040Y-22275039D01*
X62635040Y-23175041D01*
X62616010Y-23270711D01*
X62561817Y-23351817D01*
X62480711Y-23406010D01*
X62385041Y-23425040D01*
X61735039Y-23425040D01*
X61639369Y-23406010D01*
X61558263Y-23351817D01*
X61504070Y-23270711D01*
X61485040Y-23175041D01*
X61485040Y-22275039D01*
X61504070Y-22179369D01*
X61558263Y-22098263D01*
X61639369Y-22044070D01*
X61735039Y-22025040D01*
X62385041Y-22025040D01*
X62480711Y-22044070D01*
X62480711Y-22044070D01*
G37*
D11*
X62060040Y-22725040D03*
D10*
G36*
X58211711Y-28480070D02*
G01*
X58292817Y-28534263D01*
X58347010Y-28615369D01*
X58366040Y-28711039D01*
X58366040Y-29611041D01*
X58347010Y-29706711D01*
X58292817Y-29787817D01*
X58211711Y-29842010D01*
X58116041Y-29861040D01*
X57466039Y-29861040D01*
X57370369Y-29842010D01*
X57289263Y-29787817D01*
X57235070Y-29706711D01*
X57216040Y-29611041D01*
X57216040Y-28711039D01*
X57235070Y-28615369D01*
X57289263Y-28534263D01*
X57370369Y-28480070D01*
X57466039Y-28461040D01*
X58116041Y-28461040D01*
X58211711Y-28480070D01*
X58211711Y-28480070D01*
G37*
D11*
X57791040Y-29161040D03*
D10*
G36*
X60261711Y-28480070D02*
G01*
X60342817Y-28534263D01*
X60397010Y-28615369D01*
X60416040Y-28711039D01*
X60416040Y-29611041D01*
X60397010Y-29706711D01*
X60342817Y-29787817D01*
X60261711Y-29842010D01*
X60166041Y-29861040D01*
X59516039Y-29861040D01*
X59420369Y-29842010D01*
X59339263Y-29787817D01*
X59285070Y-29706711D01*
X59266040Y-29611041D01*
X59266040Y-28711039D01*
X59285070Y-28615369D01*
X59339263Y-28534263D01*
X59420369Y-28480070D01*
X59516039Y-28461040D01*
X60166041Y-28461040D01*
X60261711Y-28480070D01*
X60261711Y-28480070D01*
G37*
D11*
X59841040Y-29161040D03*
D10*
G36*
X42515711Y-37614070D02*
G01*
X42596817Y-37668263D01*
X42651010Y-37749369D01*
X42670040Y-37845039D01*
X42670040Y-38745041D01*
X42651010Y-38840711D01*
X42596817Y-38921817D01*
X42515711Y-38976010D01*
X42420041Y-38995040D01*
X41770039Y-38995040D01*
X41674369Y-38976010D01*
X41593263Y-38921817D01*
X41539070Y-38840711D01*
X41520040Y-38745041D01*
X41520040Y-37845039D01*
X41539070Y-37749369D01*
X41593263Y-37668263D01*
X41674369Y-37614070D01*
X41770039Y-37595040D01*
X42420041Y-37595040D01*
X42515711Y-37614070D01*
X42515711Y-37614070D01*
G37*
D11*
X42095040Y-38295040D03*
D10*
G36*
X44565711Y-37614070D02*
G01*
X44646817Y-37668263D01*
X44701010Y-37749369D01*
X44720040Y-37845039D01*
X44720040Y-38745041D01*
X44701010Y-38840711D01*
X44646817Y-38921817D01*
X44565711Y-38976010D01*
X44470041Y-38995040D01*
X43820039Y-38995040D01*
X43724369Y-38976010D01*
X43643263Y-38921817D01*
X43589070Y-38840711D01*
X43570040Y-38745041D01*
X43570040Y-37845039D01*
X43589070Y-37749369D01*
X43643263Y-37668263D01*
X43724369Y-37614070D01*
X43820039Y-37595040D01*
X44470041Y-37595040D01*
X44565711Y-37614070D01*
X44565711Y-37614070D01*
G37*
D11*
X44145040Y-38295040D03*
D10*
G36*
X58595711Y-54684070D02*
G01*
X58676817Y-54738263D01*
X58731010Y-54819369D01*
X58750040Y-54915039D01*
X58750040Y-55815041D01*
X58731010Y-55910711D01*
X58676817Y-55991817D01*
X58595711Y-56046010D01*
X58500041Y-56065040D01*
X57850039Y-56065040D01*
X57754369Y-56046010D01*
X57673263Y-55991817D01*
X57619070Y-55910711D01*
X57600040Y-55815041D01*
X57600040Y-54915039D01*
X57619070Y-54819369D01*
X57673263Y-54738263D01*
X57754369Y-54684070D01*
X57850039Y-54665040D01*
X58500041Y-54665040D01*
X58595711Y-54684070D01*
X58595711Y-54684070D01*
G37*
D11*
X58175040Y-55365040D03*
D10*
G36*
X60645711Y-54684070D02*
G01*
X60726817Y-54738263D01*
X60781010Y-54819369D01*
X60800040Y-54915039D01*
X60800040Y-55815041D01*
X60781010Y-55910711D01*
X60726817Y-55991817D01*
X60645711Y-56046010D01*
X60550041Y-56065040D01*
X59900039Y-56065040D01*
X59804369Y-56046010D01*
X59723263Y-55991817D01*
X59669070Y-55910711D01*
X59650040Y-55815041D01*
X59650040Y-54915039D01*
X59669070Y-54819369D01*
X59723263Y-54738263D01*
X59804369Y-54684070D01*
X59900039Y-54665040D01*
X60550041Y-54665040D01*
X60645711Y-54684070D01*
X60645711Y-54684070D01*
G37*
D11*
X60225040Y-55365040D03*
D10*
G36*
X59035711Y-57174070D02*
G01*
X59116817Y-57228263D01*
X59171010Y-57309369D01*
X59190040Y-57405039D01*
X59190040Y-58305041D01*
X59171010Y-58400711D01*
X59116817Y-58481817D01*
X59035711Y-58536010D01*
X58940041Y-58555040D01*
X58290039Y-58555040D01*
X58194369Y-58536010D01*
X58113263Y-58481817D01*
X58059070Y-58400711D01*
X58040040Y-58305041D01*
X58040040Y-57405039D01*
X58059070Y-57309369D01*
X58113263Y-57228263D01*
X58194369Y-57174070D01*
X58290039Y-57155040D01*
X58940041Y-57155040D01*
X59035711Y-57174070D01*
X59035711Y-57174070D01*
G37*
D11*
X58615040Y-57855040D03*
D10*
G36*
X61085711Y-57174070D02*
G01*
X61166817Y-57228263D01*
X61221010Y-57309369D01*
X61240040Y-57405039D01*
X61240040Y-58305041D01*
X61221010Y-58400711D01*
X61166817Y-58481817D01*
X61085711Y-58536010D01*
X60990041Y-58555040D01*
X60340039Y-58555040D01*
X60244369Y-58536010D01*
X60163263Y-58481817D01*
X60109070Y-58400711D01*
X60090040Y-58305041D01*
X60090040Y-57405039D01*
X60109070Y-57309369D01*
X60163263Y-57228263D01*
X60244369Y-57174070D01*
X60340039Y-57155040D01*
X60990041Y-57155040D01*
X61085711Y-57174070D01*
X61085711Y-57174070D01*
G37*
D11*
X60665040Y-57855040D03*
D10*
G36*
X34195711Y-45684070D02*
G01*
X34276817Y-45738263D01*
X34331010Y-45819369D01*
X34350040Y-45915039D01*
X34350040Y-46815041D01*
X34331010Y-46910711D01*
X34276817Y-46991817D01*
X34195711Y-47046010D01*
X34100041Y-47065040D01*
X33450039Y-47065040D01*
X33354369Y-47046010D01*
X33273263Y-46991817D01*
X33219070Y-46910711D01*
X33200040Y-46815041D01*
X33200040Y-45915039D01*
X33219070Y-45819369D01*
X33273263Y-45738263D01*
X33354369Y-45684070D01*
X33450039Y-45665040D01*
X34100041Y-45665040D01*
X34195711Y-45684070D01*
X34195711Y-45684070D01*
G37*
D11*
X33775040Y-46365040D03*
D10*
G36*
X36245711Y-45684070D02*
G01*
X36326817Y-45738263D01*
X36381010Y-45819369D01*
X36400040Y-45915039D01*
X36400040Y-46815041D01*
X36381010Y-46910711D01*
X36326817Y-46991817D01*
X36245711Y-47046010D01*
X36150041Y-47065040D01*
X35500039Y-47065040D01*
X35404369Y-47046010D01*
X35323263Y-46991817D01*
X35269070Y-46910711D01*
X35250040Y-46815041D01*
X35250040Y-45915039D01*
X35269070Y-45819369D01*
X35323263Y-45738263D01*
X35404369Y-45684070D01*
X35500039Y-45665040D01*
X36150041Y-45665040D01*
X36245711Y-45684070D01*
X36245711Y-45684070D01*
G37*
D11*
X35825040Y-46365040D03*
D10*
G36*
X33165093Y-48779651D02*
G01*
X33246199Y-48833844D01*
X33300392Y-48914950D01*
X33319422Y-49010620D01*
X33319422Y-49910622D01*
X33300392Y-50006292D01*
X33246199Y-50087398D01*
X33165093Y-50141591D01*
X33069423Y-50160621D01*
X32419421Y-50160621D01*
X32323751Y-50141591D01*
X32242645Y-50087398D01*
X32188452Y-50006292D01*
X32169422Y-49910622D01*
X32169422Y-49010620D01*
X32188452Y-48914950D01*
X32242645Y-48833844D01*
X32323751Y-48779651D01*
X32419421Y-48760621D01*
X33069423Y-48760621D01*
X33165093Y-48779651D01*
X33165093Y-48779651D01*
G37*
D11*
X32744422Y-49460621D03*
D10*
G36*
X35215093Y-48779651D02*
G01*
X35296199Y-48833844D01*
X35350392Y-48914950D01*
X35369422Y-49010620D01*
X35369422Y-49910622D01*
X35350392Y-50006292D01*
X35296199Y-50087398D01*
X35215093Y-50141591D01*
X35119423Y-50160621D01*
X34469421Y-50160621D01*
X34373751Y-50141591D01*
X34292645Y-50087398D01*
X34238452Y-50006292D01*
X34219422Y-49910622D01*
X34219422Y-49010620D01*
X34238452Y-48914950D01*
X34292645Y-48833844D01*
X34373751Y-48779651D01*
X34469421Y-48760621D01*
X35119423Y-48760621D01*
X35215093Y-48779651D01*
X35215093Y-48779651D01*
G37*
D11*
X34794422Y-49460621D03*
D10*
G36*
X21997711Y-61757070D02*
G01*
X22078817Y-61811263D01*
X22133010Y-61892369D01*
X22152040Y-61988039D01*
X22152040Y-62888041D01*
X22133010Y-62983711D01*
X22078817Y-63064817D01*
X21997711Y-63119010D01*
X21902041Y-63138040D01*
X21252039Y-63138040D01*
X21156369Y-63119010D01*
X21075263Y-63064817D01*
X21021070Y-62983711D01*
X21002040Y-62888041D01*
X21002040Y-61988039D01*
X21021070Y-61892369D01*
X21075263Y-61811263D01*
X21156369Y-61757070D01*
X21252039Y-61738040D01*
X21902041Y-61738040D01*
X21997711Y-61757070D01*
X21997711Y-61757070D01*
G37*
D11*
X21577040Y-62438040D03*
D10*
G36*
X24047711Y-61757070D02*
G01*
X24128817Y-61811263D01*
X24183010Y-61892369D01*
X24202040Y-61988039D01*
X24202040Y-62888041D01*
X24183010Y-62983711D01*
X24128817Y-63064817D01*
X24047711Y-63119010D01*
X23952041Y-63138040D01*
X23302039Y-63138040D01*
X23206369Y-63119010D01*
X23125263Y-63064817D01*
X23071070Y-62983711D01*
X23052040Y-62888041D01*
X23052040Y-61988039D01*
X23071070Y-61892369D01*
X23125263Y-61811263D01*
X23206369Y-61757070D01*
X23302039Y-61738040D01*
X23952041Y-61738040D01*
X24047711Y-61757070D01*
X24047711Y-61757070D01*
G37*
D11*
X23627040Y-62438040D03*
D10*
G36*
X30755711Y-23774070D02*
G01*
X30836817Y-23828263D01*
X30891010Y-23909369D01*
X30910040Y-24005039D01*
X30910040Y-24905041D01*
X30891010Y-25000711D01*
X30836817Y-25081817D01*
X30755711Y-25136010D01*
X30660041Y-25155040D01*
X30010039Y-25155040D01*
X29914369Y-25136010D01*
X29833263Y-25081817D01*
X29779070Y-25000711D01*
X29760040Y-24905041D01*
X29760040Y-24005039D01*
X29779070Y-23909369D01*
X29833263Y-23828263D01*
X29914369Y-23774070D01*
X30010039Y-23755040D01*
X30660041Y-23755040D01*
X30755711Y-23774070D01*
X30755711Y-23774070D01*
G37*
D11*
X30335040Y-24455040D03*
D10*
G36*
X32805711Y-23774070D02*
G01*
X32886817Y-23828263D01*
X32941010Y-23909369D01*
X32960040Y-24005039D01*
X32960040Y-24905041D01*
X32941010Y-25000711D01*
X32886817Y-25081817D01*
X32805711Y-25136010D01*
X32710041Y-25155040D01*
X32060039Y-25155040D01*
X31964369Y-25136010D01*
X31883263Y-25081817D01*
X31829070Y-25000711D01*
X31810040Y-24905041D01*
X31810040Y-24005039D01*
X31829070Y-23909369D01*
X31883263Y-23828263D01*
X31964369Y-23774070D01*
X32060039Y-23755040D01*
X32710041Y-23755040D01*
X32805711Y-23774070D01*
X32805711Y-23774070D01*
G37*
D11*
X32385040Y-24455040D03*
D10*
G36*
X33030711Y-28574070D02*
G01*
X33111817Y-28628263D01*
X33166010Y-28709369D01*
X33185040Y-28805039D01*
X33185040Y-29705041D01*
X33166010Y-29800711D01*
X33111817Y-29881817D01*
X33030711Y-29936010D01*
X32935041Y-29955040D01*
X32285039Y-29955040D01*
X32189369Y-29936010D01*
X32108263Y-29881817D01*
X32054070Y-29800711D01*
X32035040Y-29705041D01*
X32035040Y-28805039D01*
X32054070Y-28709369D01*
X32108263Y-28628263D01*
X32189369Y-28574070D01*
X32285039Y-28555040D01*
X32935041Y-28555040D01*
X33030711Y-28574070D01*
X33030711Y-28574070D01*
G37*
D11*
X32610040Y-29255040D03*
D10*
G36*
X30980711Y-28574070D02*
G01*
X31061817Y-28628263D01*
X31116010Y-28709369D01*
X31135040Y-28805039D01*
X31135040Y-29705041D01*
X31116010Y-29800711D01*
X31061817Y-29881817D01*
X30980711Y-29936010D01*
X30885041Y-29955040D01*
X30235039Y-29955040D01*
X30139369Y-29936010D01*
X30058263Y-29881817D01*
X30004070Y-29800711D01*
X29985040Y-29705041D01*
X29985040Y-28805039D01*
X30004070Y-28709369D01*
X30058263Y-28628263D01*
X30139369Y-28574070D01*
X30235039Y-28555040D01*
X30885041Y-28555040D01*
X30980711Y-28574070D01*
X30980711Y-28574070D01*
G37*
D11*
X30560040Y-29255040D03*
D10*
G36*
X33005711Y-36174070D02*
G01*
X33086817Y-36228263D01*
X33141010Y-36309369D01*
X33160040Y-36405039D01*
X33160040Y-37305041D01*
X33141010Y-37400711D01*
X33086817Y-37481817D01*
X33005711Y-37536010D01*
X32910041Y-37555040D01*
X32260039Y-37555040D01*
X32164369Y-37536010D01*
X32083263Y-37481817D01*
X32029070Y-37400711D01*
X32010040Y-37305041D01*
X32010040Y-36405039D01*
X32029070Y-36309369D01*
X32083263Y-36228263D01*
X32164369Y-36174070D01*
X32260039Y-36155040D01*
X32910041Y-36155040D01*
X33005711Y-36174070D01*
X33005711Y-36174070D01*
G37*
D11*
X32585040Y-36855040D03*
D10*
G36*
X30955711Y-36174070D02*
G01*
X31036817Y-36228263D01*
X31091010Y-36309369D01*
X31110040Y-36405039D01*
X31110040Y-37305041D01*
X31091010Y-37400711D01*
X31036817Y-37481817D01*
X30955711Y-37536010D01*
X30860041Y-37555040D01*
X30210039Y-37555040D01*
X30114369Y-37536010D01*
X30033263Y-37481817D01*
X29979070Y-37400711D01*
X29960040Y-37305041D01*
X29960040Y-36405039D01*
X29979070Y-36309369D01*
X30033263Y-36228263D01*
X30114369Y-36174070D01*
X30210039Y-36155040D01*
X30860041Y-36155040D01*
X30955711Y-36174070D01*
X30955711Y-36174070D01*
G37*
D11*
X30535040Y-36855040D03*
D10*
G36*
X53935711Y-26834070D02*
G01*
X54016817Y-26888263D01*
X54071010Y-26969369D01*
X54090040Y-27065039D01*
X54090040Y-27715041D01*
X54071010Y-27810711D01*
X54016817Y-27891817D01*
X53935711Y-27946010D01*
X53840041Y-27965040D01*
X52940039Y-27965040D01*
X52844369Y-27946010D01*
X52763263Y-27891817D01*
X52709070Y-27810711D01*
X52690040Y-27715041D01*
X52690040Y-27065039D01*
X52709070Y-26969369D01*
X52763263Y-26888263D01*
X52844369Y-26834070D01*
X52940039Y-26815040D01*
X53840041Y-26815040D01*
X53935711Y-26834070D01*
X53935711Y-26834070D01*
G37*
D11*
X53390040Y-27390040D03*
D10*
G36*
X53935711Y-24784070D02*
G01*
X54016817Y-24838263D01*
X54071010Y-24919369D01*
X54090040Y-25015039D01*
X54090040Y-25665041D01*
X54071010Y-25760711D01*
X54016817Y-25841817D01*
X53935711Y-25896010D01*
X53840041Y-25915040D01*
X52940039Y-25915040D01*
X52844369Y-25896010D01*
X52763263Y-25841817D01*
X52709070Y-25760711D01*
X52690040Y-25665041D01*
X52690040Y-25015039D01*
X52709070Y-24919369D01*
X52763263Y-24838263D01*
X52844369Y-24784070D01*
X52940039Y-24765040D01*
X53840041Y-24765040D01*
X53935711Y-24784070D01*
X53935711Y-24784070D01*
G37*
D11*
X53390040Y-25340040D03*
D10*
G36*
X53935711Y-39424070D02*
G01*
X54016817Y-39478263D01*
X54071010Y-39559369D01*
X54090040Y-39655039D01*
X54090040Y-40555041D01*
X54071010Y-40650711D01*
X54016817Y-40731817D01*
X53935711Y-40786010D01*
X53840041Y-40805040D01*
X53190039Y-40805040D01*
X53094369Y-40786010D01*
X53013263Y-40731817D01*
X52959070Y-40650711D01*
X52940040Y-40555041D01*
X52940040Y-39655039D01*
X52959070Y-39559369D01*
X53013263Y-39478263D01*
X53094369Y-39424070D01*
X53190039Y-39405040D01*
X53840041Y-39405040D01*
X53935711Y-39424070D01*
X53935711Y-39424070D01*
G37*
D11*
X53515040Y-40105040D03*
D10*
G36*
X55985711Y-39424070D02*
G01*
X56066817Y-39478263D01*
X56121010Y-39559369D01*
X56140040Y-39655039D01*
X56140040Y-40555041D01*
X56121010Y-40650711D01*
X56066817Y-40731817D01*
X55985711Y-40786010D01*
X55890041Y-40805040D01*
X55240039Y-40805040D01*
X55144369Y-40786010D01*
X55063263Y-40731817D01*
X55009070Y-40650711D01*
X54990040Y-40555041D01*
X54990040Y-39655039D01*
X55009070Y-39559369D01*
X55063263Y-39478263D01*
X55144369Y-39424070D01*
X55240039Y-39405040D01*
X55890041Y-39405040D01*
X55985711Y-39424070D01*
X55985711Y-39424070D01*
G37*
D11*
X55565040Y-40105040D03*
D10*
G36*
X50000711Y-39539070D02*
G01*
X50081817Y-39593263D01*
X50136010Y-39674369D01*
X50155040Y-39770039D01*
X50155040Y-40420041D01*
X50136010Y-40515711D01*
X50081817Y-40596817D01*
X50000711Y-40651010D01*
X49905041Y-40670040D01*
X49005039Y-40670040D01*
X48909369Y-40651010D01*
X48828263Y-40596817D01*
X48774070Y-40515711D01*
X48755040Y-40420041D01*
X48755040Y-39770039D01*
X48774070Y-39674369D01*
X48828263Y-39593263D01*
X48909369Y-39539070D01*
X49005039Y-39520040D01*
X49905041Y-39520040D01*
X50000711Y-39539070D01*
X50000711Y-39539070D01*
G37*
D11*
X49455040Y-40095040D03*
D10*
G36*
X50000711Y-41589070D02*
G01*
X50081817Y-41643263D01*
X50136010Y-41724369D01*
X50155040Y-41820039D01*
X50155040Y-42470041D01*
X50136010Y-42565711D01*
X50081817Y-42646817D01*
X50000711Y-42701010D01*
X49905041Y-42720040D01*
X49005039Y-42720040D01*
X48909369Y-42701010D01*
X48828263Y-42646817D01*
X48774070Y-42565711D01*
X48755040Y-42470041D01*
X48755040Y-41820039D01*
X48774070Y-41724369D01*
X48828263Y-41643263D01*
X48909369Y-41589070D01*
X49005039Y-41570040D01*
X49905041Y-41570040D01*
X50000711Y-41589070D01*
X50000711Y-41589070D01*
G37*
D11*
X49455040Y-42145040D03*
D24*
X26000000Y-54370000D03*
X26000000Y-53720000D03*
X26000000Y-53070000D03*
X26000000Y-52420000D03*
X26000000Y-51770000D03*
D10*
G36*
X22045711Y-59598070D02*
G01*
X22126817Y-59652263D01*
X22181010Y-59733369D01*
X22200040Y-59829039D01*
X22200040Y-60729041D01*
X22181010Y-60824711D01*
X22126817Y-60905817D01*
X22045711Y-60960010D01*
X21950041Y-60979040D01*
X21300039Y-60979040D01*
X21204369Y-60960010D01*
X21123263Y-60905817D01*
X21069070Y-60824711D01*
X21050040Y-60729041D01*
X21050040Y-59829039D01*
X21069070Y-59733369D01*
X21123263Y-59652263D01*
X21204369Y-59598070D01*
X21300039Y-59579040D01*
X21950041Y-59579040D01*
X22045711Y-59598070D01*
X22045711Y-59598070D01*
G37*
D11*
X21625040Y-60279040D03*
D10*
G36*
X24095711Y-59598070D02*
G01*
X24176817Y-59652263D01*
X24231010Y-59733369D01*
X24250040Y-59829039D01*
X24250040Y-60729041D01*
X24231010Y-60824711D01*
X24176817Y-60905817D01*
X24095711Y-60960010D01*
X24000041Y-60979040D01*
X23350039Y-60979040D01*
X23254369Y-60960010D01*
X23173263Y-60905817D01*
X23119070Y-60824711D01*
X23100040Y-60729041D01*
X23100040Y-59829039D01*
X23119070Y-59733369D01*
X23173263Y-59652263D01*
X23254369Y-59598070D01*
X23350039Y-59579040D01*
X24000041Y-59579040D01*
X24095711Y-59598070D01*
X24095711Y-59598070D01*
G37*
D11*
X23675040Y-60279040D03*
D10*
G36*
X26242091Y-24919690D02*
G01*
X26323197Y-24973883D01*
X26377390Y-25054989D01*
X26396420Y-25150659D01*
X26396420Y-26050661D01*
X26377390Y-26146331D01*
X26323197Y-26227437D01*
X26242091Y-26281630D01*
X26146421Y-26300660D01*
X25496419Y-26300660D01*
X25400749Y-26281630D01*
X25319643Y-26227437D01*
X25265450Y-26146331D01*
X25246420Y-26050661D01*
X25246420Y-25150659D01*
X25265450Y-25054989D01*
X25319643Y-24973883D01*
X25400749Y-24919690D01*
X25496419Y-24900660D01*
X26146421Y-24900660D01*
X26242091Y-24919690D01*
X26242091Y-24919690D01*
G37*
D11*
X25821420Y-25600660D03*
D10*
G36*
X28292091Y-24919690D02*
G01*
X28373197Y-24973883D01*
X28427390Y-25054989D01*
X28446420Y-25150659D01*
X28446420Y-26050661D01*
X28427390Y-26146331D01*
X28373197Y-26227437D01*
X28292091Y-26281630D01*
X28196421Y-26300660D01*
X27546419Y-26300660D01*
X27450749Y-26281630D01*
X27369643Y-26227437D01*
X27315450Y-26146331D01*
X27296420Y-26050661D01*
X27296420Y-25150659D01*
X27315450Y-25054989D01*
X27369643Y-24973883D01*
X27450749Y-24919690D01*
X27546419Y-24900660D01*
X28196421Y-24900660D01*
X28292091Y-24919690D01*
X28292091Y-24919690D01*
G37*
D11*
X27871420Y-25600660D03*
D10*
G36*
X44955711Y-63954070D02*
G01*
X45036817Y-64008263D01*
X45091010Y-64089369D01*
X45110040Y-64185039D01*
X45110040Y-65085041D01*
X45091010Y-65180711D01*
X45036817Y-65261817D01*
X44955711Y-65316010D01*
X44860041Y-65335040D01*
X44210039Y-65335040D01*
X44114369Y-65316010D01*
X44033263Y-65261817D01*
X43979070Y-65180711D01*
X43960040Y-65085041D01*
X43960040Y-64185039D01*
X43979070Y-64089369D01*
X44033263Y-64008263D01*
X44114369Y-63954070D01*
X44210039Y-63935040D01*
X44860041Y-63935040D01*
X44955711Y-63954070D01*
X44955711Y-63954070D01*
G37*
D11*
X44535040Y-64635040D03*
D10*
G36*
X42905711Y-63954070D02*
G01*
X42986817Y-64008263D01*
X43041010Y-64089369D01*
X43060040Y-64185039D01*
X43060040Y-65085041D01*
X43041010Y-65180711D01*
X42986817Y-65261817D01*
X42905711Y-65316010D01*
X42810041Y-65335040D01*
X42160039Y-65335040D01*
X42064369Y-65316010D01*
X41983263Y-65261817D01*
X41929070Y-65180711D01*
X41910040Y-65085041D01*
X41910040Y-64185039D01*
X41929070Y-64089369D01*
X41983263Y-64008263D01*
X42064369Y-63954070D01*
X42160039Y-63935040D01*
X42810041Y-63935040D01*
X42905711Y-63954070D01*
X42905711Y-63954070D01*
G37*
D11*
X42485040Y-64635040D03*
D10*
G36*
X28495093Y-55929651D02*
G01*
X28576199Y-55983844D01*
X28630392Y-56064950D01*
X28649422Y-56160620D01*
X28649422Y-56810622D01*
X28630392Y-56906292D01*
X28576199Y-56987398D01*
X28495093Y-57041591D01*
X28399423Y-57060621D01*
X27499421Y-57060621D01*
X27403751Y-57041591D01*
X27322645Y-56987398D01*
X27268452Y-56906292D01*
X27249422Y-56810622D01*
X27249422Y-56160620D01*
X27268452Y-56064950D01*
X27322645Y-55983844D01*
X27403751Y-55929651D01*
X27499421Y-55910621D01*
X28399423Y-55910621D01*
X28495093Y-55929651D01*
X28495093Y-55929651D01*
G37*
D11*
X27949422Y-56485621D03*
D10*
G36*
X28495093Y-57979651D02*
G01*
X28576199Y-58033844D01*
X28630392Y-58114950D01*
X28649422Y-58210620D01*
X28649422Y-58860622D01*
X28630392Y-58956292D01*
X28576199Y-59037398D01*
X28495093Y-59091591D01*
X28399423Y-59110621D01*
X27499421Y-59110621D01*
X27403751Y-59091591D01*
X27322645Y-59037398D01*
X27268452Y-58956292D01*
X27249422Y-58860622D01*
X27249422Y-58210620D01*
X27268452Y-58114950D01*
X27322645Y-58033844D01*
X27403751Y-57979651D01*
X27499421Y-57960621D01*
X28399423Y-57960621D01*
X28495093Y-57979651D01*
X28495093Y-57979651D01*
G37*
D11*
X27949422Y-58535621D03*
D10*
G36*
X32830711Y-25974070D02*
G01*
X32911817Y-26028263D01*
X32966010Y-26109369D01*
X32985040Y-26205039D01*
X32985040Y-27105041D01*
X32966010Y-27200711D01*
X32911817Y-27281817D01*
X32830711Y-27336010D01*
X32735041Y-27355040D01*
X32085039Y-27355040D01*
X31989369Y-27336010D01*
X31908263Y-27281817D01*
X31854070Y-27200711D01*
X31835040Y-27105041D01*
X31835040Y-26205039D01*
X31854070Y-26109369D01*
X31908263Y-26028263D01*
X31989369Y-25974070D01*
X32085039Y-25955040D01*
X32735041Y-25955040D01*
X32830711Y-25974070D01*
X32830711Y-25974070D01*
G37*
D11*
X32410040Y-26655040D03*
D10*
G36*
X30780711Y-25974070D02*
G01*
X30861817Y-26028263D01*
X30916010Y-26109369D01*
X30935040Y-26205039D01*
X30935040Y-27105041D01*
X30916010Y-27200711D01*
X30861817Y-27281817D01*
X30780711Y-27336010D01*
X30685041Y-27355040D01*
X30035039Y-27355040D01*
X29939369Y-27336010D01*
X29858263Y-27281817D01*
X29804070Y-27200711D01*
X29785040Y-27105041D01*
X29785040Y-26205039D01*
X29804070Y-26109369D01*
X29858263Y-26028263D01*
X29939369Y-25974070D01*
X30035039Y-25955040D01*
X30685041Y-25955040D01*
X30780711Y-25974070D01*
X30780711Y-25974070D01*
G37*
D11*
X30360040Y-26655040D03*
D10*
G36*
X40755711Y-22664070D02*
G01*
X40836817Y-22718263D01*
X40891010Y-22799369D01*
X40910040Y-22895039D01*
X40910040Y-23795041D01*
X40891010Y-23890711D01*
X40836817Y-23971817D01*
X40755711Y-24026010D01*
X40660041Y-24045040D01*
X40010039Y-24045040D01*
X39914369Y-24026010D01*
X39833263Y-23971817D01*
X39779070Y-23890711D01*
X39760040Y-23795041D01*
X39760040Y-22895039D01*
X39779070Y-22799369D01*
X39833263Y-22718263D01*
X39914369Y-22664070D01*
X40010039Y-22645040D01*
X40660041Y-22645040D01*
X40755711Y-22664070D01*
X40755711Y-22664070D01*
G37*
D11*
X40335040Y-23345040D03*
D10*
G36*
X42805711Y-22664070D02*
G01*
X42886817Y-22718263D01*
X42941010Y-22799369D01*
X42960040Y-22895039D01*
X42960040Y-23795041D01*
X42941010Y-23890711D01*
X42886817Y-23971817D01*
X42805711Y-24026010D01*
X42710041Y-24045040D01*
X42060039Y-24045040D01*
X41964369Y-24026010D01*
X41883263Y-23971817D01*
X41829070Y-23890711D01*
X41810040Y-23795041D01*
X41810040Y-22895039D01*
X41829070Y-22799369D01*
X41883263Y-22718263D01*
X41964369Y-22664070D01*
X42060039Y-22645040D01*
X42710041Y-22645040D01*
X42805711Y-22664070D01*
X42805711Y-22664070D01*
G37*
D11*
X42385040Y-23345040D03*
D10*
G36*
X51330711Y-24699070D02*
G01*
X51411817Y-24753263D01*
X51466010Y-24834369D01*
X51485040Y-24930039D01*
X51485040Y-25580041D01*
X51466010Y-25675711D01*
X51411817Y-25756817D01*
X51330711Y-25811010D01*
X51235041Y-25830040D01*
X50335039Y-25830040D01*
X50239369Y-25811010D01*
X50158263Y-25756817D01*
X50104070Y-25675711D01*
X50085040Y-25580041D01*
X50085040Y-24930039D01*
X50104070Y-24834369D01*
X50158263Y-24753263D01*
X50239369Y-24699070D01*
X50335039Y-24680040D01*
X51235041Y-24680040D01*
X51330711Y-24699070D01*
X51330711Y-24699070D01*
G37*
D11*
X50785040Y-25255040D03*
D10*
G36*
X51330711Y-22649070D02*
G01*
X51411817Y-22703263D01*
X51466010Y-22784369D01*
X51485040Y-22880039D01*
X51485040Y-23530041D01*
X51466010Y-23625711D01*
X51411817Y-23706817D01*
X51330711Y-23761010D01*
X51235041Y-23780040D01*
X50335039Y-23780040D01*
X50239369Y-23761010D01*
X50158263Y-23706817D01*
X50104070Y-23625711D01*
X50085040Y-23530041D01*
X50085040Y-22880039D01*
X50104070Y-22784369D01*
X50158263Y-22703263D01*
X50239369Y-22649070D01*
X50335039Y-22630040D01*
X51235041Y-22630040D01*
X51330711Y-22649070D01*
X51330711Y-22649070D01*
G37*
D11*
X50785040Y-23205040D03*
D10*
G36*
X42450711Y-27579070D02*
G01*
X42531817Y-27633263D01*
X42586010Y-27714369D01*
X42605040Y-27810039D01*
X42605040Y-28460041D01*
X42586010Y-28555711D01*
X42531817Y-28636817D01*
X42450711Y-28691010D01*
X42355041Y-28710040D01*
X41455039Y-28710040D01*
X41359369Y-28691010D01*
X41278263Y-28636817D01*
X41224070Y-28555711D01*
X41205040Y-28460041D01*
X41205040Y-27810039D01*
X41224070Y-27714369D01*
X41278263Y-27633263D01*
X41359369Y-27579070D01*
X41455039Y-27560040D01*
X42355041Y-27560040D01*
X42450711Y-27579070D01*
X42450711Y-27579070D01*
G37*
D11*
X41905040Y-28135040D03*
D10*
G36*
X42450711Y-29629070D02*
G01*
X42531817Y-29683263D01*
X42586010Y-29764369D01*
X42605040Y-29860039D01*
X42605040Y-30510041D01*
X42586010Y-30605711D01*
X42531817Y-30686817D01*
X42450711Y-30741010D01*
X42355041Y-30760040D01*
X41455039Y-30760040D01*
X41359369Y-30741010D01*
X41278263Y-30686817D01*
X41224070Y-30605711D01*
X41205040Y-30510041D01*
X41205040Y-29860039D01*
X41224070Y-29764369D01*
X41278263Y-29683263D01*
X41359369Y-29629070D01*
X41455039Y-29610040D01*
X42355041Y-29610040D01*
X42450711Y-29629070D01*
X42450711Y-29629070D01*
G37*
D11*
X41905040Y-30185040D03*
D10*
G36*
X61046329Y-59398489D02*
G01*
X61127435Y-59452682D01*
X61181628Y-59533788D01*
X61200658Y-59629458D01*
X61200658Y-60529460D01*
X61181628Y-60625130D01*
X61127435Y-60706236D01*
X61046329Y-60760429D01*
X60950659Y-60779459D01*
X60300657Y-60779459D01*
X60204987Y-60760429D01*
X60123881Y-60706236D01*
X60069688Y-60625130D01*
X60050658Y-60529460D01*
X60050658Y-59629458D01*
X60069688Y-59533788D01*
X60123881Y-59452682D01*
X60204987Y-59398489D01*
X60300657Y-59379459D01*
X60950659Y-59379459D01*
X61046329Y-59398489D01*
X61046329Y-59398489D01*
G37*
D11*
X60625658Y-60079459D03*
D10*
G36*
X58996329Y-59398489D02*
G01*
X59077435Y-59452682D01*
X59131628Y-59533788D01*
X59150658Y-59629458D01*
X59150658Y-60529460D01*
X59131628Y-60625130D01*
X59077435Y-60706236D01*
X58996329Y-60760429D01*
X58900659Y-60779459D01*
X58250657Y-60779459D01*
X58154987Y-60760429D01*
X58073881Y-60706236D01*
X58019688Y-60625130D01*
X58000658Y-60529460D01*
X58000658Y-59629458D01*
X58019688Y-59533788D01*
X58073881Y-59452682D01*
X58154987Y-59398489D01*
X58250657Y-59379459D01*
X58900659Y-59379459D01*
X58996329Y-59398489D01*
X58996329Y-59398489D01*
G37*
D11*
X58575658Y-60079459D03*
D10*
G36*
X53510711Y-64444070D02*
G01*
X53591817Y-64498263D01*
X53646010Y-64579369D01*
X53665040Y-64675039D01*
X53665040Y-65575041D01*
X53646010Y-65670711D01*
X53591817Y-65751817D01*
X53510711Y-65806010D01*
X53415041Y-65825040D01*
X52765039Y-65825040D01*
X52669369Y-65806010D01*
X52588263Y-65751817D01*
X52534070Y-65670711D01*
X52515040Y-65575041D01*
X52515040Y-64675039D01*
X52534070Y-64579369D01*
X52588263Y-64498263D01*
X52669369Y-64444070D01*
X52765039Y-64425040D01*
X53415041Y-64425040D01*
X53510711Y-64444070D01*
X53510711Y-64444070D01*
G37*
D11*
X53090040Y-65125040D03*
D10*
G36*
X51460711Y-64444070D02*
G01*
X51541817Y-64498263D01*
X51596010Y-64579369D01*
X51615040Y-64675039D01*
X51615040Y-65575041D01*
X51596010Y-65670711D01*
X51541817Y-65751817D01*
X51460711Y-65806010D01*
X51365041Y-65825040D01*
X50715039Y-65825040D01*
X50619369Y-65806010D01*
X50538263Y-65751817D01*
X50484070Y-65670711D01*
X50465040Y-65575041D01*
X50465040Y-64675039D01*
X50484070Y-64579369D01*
X50538263Y-64498263D01*
X50619369Y-64444070D01*
X50715039Y-64425040D01*
X51365041Y-64425040D01*
X51460711Y-64444070D01*
X51460711Y-64444070D01*
G37*
D11*
X51040040Y-65125040D03*
D10*
G36*
X39777751Y-39636450D02*
G01*
X39858857Y-39690643D01*
X39913050Y-39771749D01*
X39932080Y-39867419D01*
X39932080Y-40767421D01*
X39913050Y-40863091D01*
X39858857Y-40944197D01*
X39777751Y-40998390D01*
X39682081Y-41017420D01*
X39032079Y-41017420D01*
X38936409Y-40998390D01*
X38855303Y-40944197D01*
X38801110Y-40863091D01*
X38782080Y-40767421D01*
X38782080Y-39867419D01*
X38801110Y-39771749D01*
X38855303Y-39690643D01*
X38936409Y-39636450D01*
X39032079Y-39617420D01*
X39682081Y-39617420D01*
X39777751Y-39636450D01*
X39777751Y-39636450D01*
G37*
D11*
X39357080Y-40317420D03*
D10*
G36*
X41827751Y-39636450D02*
G01*
X41908857Y-39690643D01*
X41963050Y-39771749D01*
X41982080Y-39867419D01*
X41982080Y-40767421D01*
X41963050Y-40863091D01*
X41908857Y-40944197D01*
X41827751Y-40998390D01*
X41732081Y-41017420D01*
X41082079Y-41017420D01*
X40986409Y-40998390D01*
X40905303Y-40944197D01*
X40851110Y-40863091D01*
X40832080Y-40767421D01*
X40832080Y-39867419D01*
X40851110Y-39771749D01*
X40905303Y-39690643D01*
X40986409Y-39636450D01*
X41082079Y-39617420D01*
X41732081Y-39617420D01*
X41827751Y-39636450D01*
X41827751Y-39636450D01*
G37*
D11*
X41407080Y-40317420D03*
D10*
G36*
X58690711Y-63004070D02*
G01*
X58771817Y-63058263D01*
X58826010Y-63139369D01*
X58845040Y-63235039D01*
X58845040Y-64135041D01*
X58826010Y-64230711D01*
X58771817Y-64311817D01*
X58690711Y-64366010D01*
X58595041Y-64385040D01*
X57945039Y-64385040D01*
X57849369Y-64366010D01*
X57768263Y-64311817D01*
X57714070Y-64230711D01*
X57695040Y-64135041D01*
X57695040Y-63235039D01*
X57714070Y-63139369D01*
X57768263Y-63058263D01*
X57849369Y-63004070D01*
X57945039Y-62985040D01*
X58595041Y-62985040D01*
X58690711Y-63004070D01*
X58690711Y-63004070D01*
G37*
D11*
X58270040Y-63685040D03*
D10*
G36*
X56640711Y-63004070D02*
G01*
X56721817Y-63058263D01*
X56776010Y-63139369D01*
X56795040Y-63235039D01*
X56795040Y-64135041D01*
X56776010Y-64230711D01*
X56721817Y-64311817D01*
X56640711Y-64366010D01*
X56545041Y-64385040D01*
X55895039Y-64385040D01*
X55799369Y-64366010D01*
X55718263Y-64311817D01*
X55664070Y-64230711D01*
X55645040Y-64135041D01*
X55645040Y-63235039D01*
X55664070Y-63139369D01*
X55718263Y-63058263D01*
X55799369Y-63004070D01*
X55895039Y-62985040D01*
X56545041Y-62985040D01*
X56640711Y-63004070D01*
X56640711Y-63004070D01*
G37*
D11*
X56220040Y-63685040D03*
D10*
G36*
X30638711Y-56770070D02*
G01*
X30719817Y-56824263D01*
X30774010Y-56905369D01*
X30793040Y-57001039D01*
X30793040Y-57651041D01*
X30774010Y-57746711D01*
X30719817Y-57827817D01*
X30638711Y-57882010D01*
X30543041Y-57901040D01*
X29643039Y-57901040D01*
X29547369Y-57882010D01*
X29466263Y-57827817D01*
X29412070Y-57746711D01*
X29393040Y-57651041D01*
X29393040Y-57001039D01*
X29412070Y-56905369D01*
X29466263Y-56824263D01*
X29547369Y-56770070D01*
X29643039Y-56751040D01*
X30543041Y-56751040D01*
X30638711Y-56770070D01*
X30638711Y-56770070D01*
G37*
D11*
X30093040Y-57326040D03*
D10*
G36*
X30638711Y-54720070D02*
G01*
X30719817Y-54774263D01*
X30774010Y-54855369D01*
X30793040Y-54951039D01*
X30793040Y-55601041D01*
X30774010Y-55696711D01*
X30719817Y-55777817D01*
X30638711Y-55832010D01*
X30543041Y-55851040D01*
X29643039Y-55851040D01*
X29547369Y-55832010D01*
X29466263Y-55777817D01*
X29412070Y-55696711D01*
X29393040Y-55601041D01*
X29393040Y-54951039D01*
X29412070Y-54855369D01*
X29466263Y-54774263D01*
X29547369Y-54720070D01*
X29643039Y-54701040D01*
X30543041Y-54701040D01*
X30638711Y-54720070D01*
X30638711Y-54720070D01*
G37*
D11*
X30093040Y-55276040D03*
D10*
G36*
X38805711Y-63594070D02*
G01*
X38886817Y-63648263D01*
X38941010Y-63729369D01*
X38960040Y-63825039D01*
X38960040Y-64725041D01*
X38941010Y-64820711D01*
X38886817Y-64901817D01*
X38805711Y-64956010D01*
X38710041Y-64975040D01*
X38060039Y-64975040D01*
X37964369Y-64956010D01*
X37883263Y-64901817D01*
X37829070Y-64820711D01*
X37810040Y-64725041D01*
X37810040Y-63825039D01*
X37829070Y-63729369D01*
X37883263Y-63648263D01*
X37964369Y-63594070D01*
X38060039Y-63575040D01*
X38710041Y-63575040D01*
X38805711Y-63594070D01*
X38805711Y-63594070D01*
G37*
D11*
X38385040Y-64275040D03*
D10*
G36*
X40855711Y-63594070D02*
G01*
X40936817Y-63648263D01*
X40991010Y-63729369D01*
X41010040Y-63825039D01*
X41010040Y-64725041D01*
X40991010Y-64820711D01*
X40936817Y-64901817D01*
X40855711Y-64956010D01*
X40760041Y-64975040D01*
X40110039Y-64975040D01*
X40014369Y-64956010D01*
X39933263Y-64901817D01*
X39879070Y-64820711D01*
X39860040Y-64725041D01*
X39860040Y-63825039D01*
X39879070Y-63729369D01*
X39933263Y-63648263D01*
X40014369Y-63594070D01*
X40110039Y-63575040D01*
X40760041Y-63575040D01*
X40855711Y-63594070D01*
X40855711Y-63594070D01*
G37*
D11*
X40435040Y-64275040D03*
D10*
G36*
X32515711Y-62339070D02*
G01*
X32596817Y-62393263D01*
X32651010Y-62474369D01*
X32670040Y-62570039D01*
X32670040Y-63470041D01*
X32651010Y-63565711D01*
X32596817Y-63646817D01*
X32515711Y-63701010D01*
X32420041Y-63720040D01*
X31770039Y-63720040D01*
X31674369Y-63701010D01*
X31593263Y-63646817D01*
X31539070Y-63565711D01*
X31520040Y-63470041D01*
X31520040Y-62570039D01*
X31539070Y-62474369D01*
X31593263Y-62393263D01*
X31674369Y-62339070D01*
X31770039Y-62320040D01*
X32420041Y-62320040D01*
X32515711Y-62339070D01*
X32515711Y-62339070D01*
G37*
D11*
X32095040Y-63020040D03*
D10*
G36*
X34565711Y-62339070D02*
G01*
X34646817Y-62393263D01*
X34701010Y-62474369D01*
X34720040Y-62570039D01*
X34720040Y-63470041D01*
X34701010Y-63565711D01*
X34646817Y-63646817D01*
X34565711Y-63701010D01*
X34470041Y-63720040D01*
X33820039Y-63720040D01*
X33724369Y-63701010D01*
X33643263Y-63646817D01*
X33589070Y-63565711D01*
X33570040Y-63470041D01*
X33570040Y-62570039D01*
X33589070Y-62474369D01*
X33643263Y-62393263D01*
X33724369Y-62339070D01*
X33820039Y-62320040D01*
X34470041Y-62320040D01*
X34565711Y-62339070D01*
X34565711Y-62339070D01*
G37*
D11*
X34145040Y-63020040D03*
D10*
G36*
X37344711Y-61481070D02*
G01*
X37425817Y-61535263D01*
X37480010Y-61616369D01*
X37499040Y-61712039D01*
X37499040Y-62362041D01*
X37480010Y-62457711D01*
X37425817Y-62538817D01*
X37344711Y-62593010D01*
X37249041Y-62612040D01*
X36349039Y-62612040D01*
X36253369Y-62593010D01*
X36172263Y-62538817D01*
X36118070Y-62457711D01*
X36099040Y-62362041D01*
X36099040Y-61712039D01*
X36118070Y-61616369D01*
X36172263Y-61535263D01*
X36253369Y-61481070D01*
X36349039Y-61462040D01*
X37249041Y-61462040D01*
X37344711Y-61481070D01*
X37344711Y-61481070D01*
G37*
D11*
X36799040Y-62037040D03*
D10*
G36*
X37344711Y-59431070D02*
G01*
X37425817Y-59485263D01*
X37480010Y-59566369D01*
X37499040Y-59662039D01*
X37499040Y-60312041D01*
X37480010Y-60407711D01*
X37425817Y-60488817D01*
X37344711Y-60543010D01*
X37249041Y-60562040D01*
X36349039Y-60562040D01*
X36253369Y-60543010D01*
X36172263Y-60488817D01*
X36118070Y-60407711D01*
X36099040Y-60312041D01*
X36099040Y-59662039D01*
X36118070Y-59566369D01*
X36172263Y-59485263D01*
X36253369Y-59431070D01*
X36349039Y-59412040D01*
X37249041Y-59412040D01*
X37344711Y-59431070D01*
X37344711Y-59431070D01*
G37*
D11*
X36799040Y-59987040D03*
D10*
G36*
X31419371Y-48676850D02*
G01*
X31500477Y-48731043D01*
X31554670Y-48812149D01*
X31573700Y-48907819D01*
X31573700Y-49557821D01*
X31554670Y-49653491D01*
X31500477Y-49734597D01*
X31419371Y-49788790D01*
X31323701Y-49807820D01*
X30423699Y-49807820D01*
X30328029Y-49788790D01*
X30246923Y-49734597D01*
X30192730Y-49653491D01*
X30173700Y-49557821D01*
X30173700Y-48907819D01*
X30192730Y-48812149D01*
X30246923Y-48731043D01*
X30328029Y-48676850D01*
X30423699Y-48657820D01*
X31323701Y-48657820D01*
X31419371Y-48676850D01*
X31419371Y-48676850D01*
G37*
D11*
X30873700Y-49232820D03*
D10*
G36*
X31419371Y-50726850D02*
G01*
X31500477Y-50781043D01*
X31554670Y-50862149D01*
X31573700Y-50957819D01*
X31573700Y-51607821D01*
X31554670Y-51703491D01*
X31500477Y-51784597D01*
X31419371Y-51838790D01*
X31323701Y-51857820D01*
X30423699Y-51857820D01*
X30328029Y-51838790D01*
X30246923Y-51784597D01*
X30192730Y-51703491D01*
X30173700Y-51607821D01*
X30173700Y-50957819D01*
X30192730Y-50862149D01*
X30246923Y-50781043D01*
X30328029Y-50726850D01*
X30423699Y-50707820D01*
X31323701Y-50707820D01*
X31419371Y-50726850D01*
X31419371Y-50726850D01*
G37*
D11*
X30873700Y-51282820D03*
D10*
G36*
X60140711Y-45284070D02*
G01*
X60221817Y-45338263D01*
X60276010Y-45419369D01*
X60295040Y-45515039D01*
X60295040Y-46415041D01*
X60276010Y-46510711D01*
X60221817Y-46591817D01*
X60140711Y-46646010D01*
X60045041Y-46665040D01*
X59395039Y-46665040D01*
X59299369Y-46646010D01*
X59218263Y-46591817D01*
X59164070Y-46510711D01*
X59145040Y-46415041D01*
X59145040Y-45515039D01*
X59164070Y-45419369D01*
X59218263Y-45338263D01*
X59299369Y-45284070D01*
X59395039Y-45265040D01*
X60045041Y-45265040D01*
X60140711Y-45284070D01*
X60140711Y-45284070D01*
G37*
D11*
X59720040Y-45965040D03*
D10*
G36*
X58090711Y-45284070D02*
G01*
X58171817Y-45338263D01*
X58226010Y-45419369D01*
X58245040Y-45515039D01*
X58245040Y-46415041D01*
X58226010Y-46510711D01*
X58171817Y-46591817D01*
X58090711Y-46646010D01*
X57995041Y-46665040D01*
X57345039Y-46665040D01*
X57249369Y-46646010D01*
X57168263Y-46591817D01*
X57114070Y-46510711D01*
X57095040Y-46415041D01*
X57095040Y-45515039D01*
X57114070Y-45419369D01*
X57168263Y-45338263D01*
X57249369Y-45284070D01*
X57345039Y-45265040D01*
X57995041Y-45265040D01*
X58090711Y-45284070D01*
X58090711Y-45284070D01*
G37*
D11*
X57670040Y-45965040D03*
D10*
G36*
X37230711Y-48784070D02*
G01*
X37311817Y-48838263D01*
X37366010Y-48919369D01*
X37385040Y-49015039D01*
X37385040Y-49665041D01*
X37366010Y-49760711D01*
X37311817Y-49841817D01*
X37230711Y-49896010D01*
X37135041Y-49915040D01*
X36235039Y-49915040D01*
X36139369Y-49896010D01*
X36058263Y-49841817D01*
X36004070Y-49760711D01*
X35985040Y-49665041D01*
X35985040Y-49015039D01*
X36004070Y-48919369D01*
X36058263Y-48838263D01*
X36139369Y-48784070D01*
X36235039Y-48765040D01*
X37135041Y-48765040D01*
X37230711Y-48784070D01*
X37230711Y-48784070D01*
G37*
D11*
X36685040Y-49340040D03*
D10*
G36*
X37230711Y-50834070D02*
G01*
X37311817Y-50888263D01*
X37366010Y-50969369D01*
X37385040Y-51065039D01*
X37385040Y-51715041D01*
X37366010Y-51810711D01*
X37311817Y-51891817D01*
X37230711Y-51946010D01*
X37135041Y-51965040D01*
X36235039Y-51965040D01*
X36139369Y-51946010D01*
X36058263Y-51891817D01*
X36004070Y-51810711D01*
X35985040Y-51715041D01*
X35985040Y-51065039D01*
X36004070Y-50969369D01*
X36058263Y-50888263D01*
X36139369Y-50834070D01*
X36235039Y-50815040D01*
X37135041Y-50815040D01*
X37230711Y-50834070D01*
X37230711Y-50834070D01*
G37*
D11*
X36685040Y-51390040D03*
M02*
