G04 #@! TF.GenerationSoftware,KiCad,Pcbnew,(5.99.0-97-g37fac7a8f)*
G04 #@! TF.CreationDate,2019-11-17T20:53:56+01:00*
G04 #@! TF.ProjectId,canbox,63616e62-6f78-42e6-9b69-6361645f7063,rev?*
G04 #@! TF.SameCoordinates,Original*
G04 #@! TF.FileFunction,Legend,Bot*
G04 #@! TF.FilePolarity,Positive*
%FSLAX46Y46*%
G04 Gerber Fmt 4.6, Leading zero omitted, Abs format (unit mm)*
G04 Created by KiCad (PCBNEW (5.99.0-97-g37fac7a8f)) date 2019-11-17 20:53:56*
%MOMM*%
%LPD*%
G04 APERTURE LIST*
%ADD10C,0.120000*%
%ADD11C,0.150000*%
G04 APERTURE END LIST*
D10*
X38913788Y-64980040D02*
X39436292Y-64980040D01*
X38913788Y-63560040D02*
X39436292Y-63560040D01*
X41656292Y-26390040D02*
X41133788Y-26390040D01*
X41656292Y-27810040D02*
X41133788Y-27810040D01*
X48705040Y-48135040D02*
X48705040Y-50035040D01*
X46385040Y-49535040D02*
X46385040Y-48135040D01*
X49285040Y-45068788D02*
X49285040Y-45591292D01*
X50705040Y-45068788D02*
X50705040Y-45591292D01*
X46928788Y-57275040D02*
X47451292Y-57275040D01*
X46928788Y-55855040D02*
X47451292Y-55855040D01*
X48575040Y-42825040D02*
X48875040Y-43125040D01*
X48875040Y-42525040D02*
X48875040Y-43125040D01*
X48575040Y-42825040D02*
X48875040Y-42525040D01*
X47675040Y-41975040D02*
X47075040Y-41975040D01*
X48375040Y-45425040D02*
X48375040Y-42625040D01*
X47075040Y-46075040D02*
X47675040Y-46075040D01*
X46375040Y-42625040D02*
X46375040Y-45425040D01*
X46375040Y-45375040D02*
G75*
G03X47075040Y-46075040I700000J0D01*
G01*
X47675040Y-46075040D02*
G75*
G03X48375040Y-45375040I0J700000D01*
G01*
X48375040Y-42675040D02*
G75*
G03X47675040Y-41975040I-700000J0D01*
G01*
X47075040Y-41975040D02*
G75*
G03X46375040Y-42675040I0J-700000D01*
G01*
X67316618Y-45154439D02*
X102316618Y-45154439D01*
X102316618Y-45154439D02*
X102316618Y-27654439D01*
X102316618Y-27654439D02*
X67316618Y-27654439D01*
X67316618Y-27654439D02*
X67316618Y-45154439D01*
X31340607Y-42706331D02*
X31863111Y-42706331D01*
X31340607Y-44126331D02*
X31863111Y-44126331D01*
X31340607Y-44966331D02*
X31863111Y-44966331D01*
X31340607Y-46386331D02*
X31863111Y-46386331D01*
X24385040Y-45470040D02*
X23115040Y-45470040D01*
X25935040Y-39120040D02*
X21845040Y-39120040D01*
X25935040Y-39120040D02*
X25935040Y-41660040D01*
X25935040Y-49280040D02*
X21845040Y-49280040D01*
X25935040Y-46740040D02*
X25935040Y-49280040D01*
X62886910Y-54684459D02*
X62364406Y-54684459D01*
X62886910Y-53264459D02*
X62364406Y-53264459D01*
X62886910Y-52284459D02*
X62364406Y-52284459D01*
X62886910Y-50864459D02*
X62364406Y-50864459D01*
D11*
X39817897Y-66372420D02*
X40151230Y-65896230D01*
X40389325Y-66372420D02*
X40389325Y-65372420D01*
X40008373Y-65372420D01*
X39913135Y-65420040D01*
X39865516Y-65467659D01*
X39817897Y-65562897D01*
X39817897Y-65705754D01*
X39865516Y-65800992D01*
X39913135Y-65848611D01*
X40008373Y-65896230D01*
X40389325Y-65896230D01*
X39484563Y-65372420D02*
X38865516Y-65372420D01*
X39198849Y-65753373D01*
X39055992Y-65753373D01*
X38960754Y-65800992D01*
X38913135Y-65848611D01*
X38865516Y-65943849D01*
X38865516Y-66181944D01*
X38913135Y-66277182D01*
X38960754Y-66324801D01*
X39055992Y-66372420D01*
X39341706Y-66372420D01*
X39436944Y-66324801D01*
X39484563Y-66277182D01*
X37960754Y-65372420D02*
X38436944Y-65372420D01*
X38484563Y-65848611D01*
X38436944Y-65800992D01*
X38341706Y-65753373D01*
X38103611Y-65753373D01*
X38008373Y-65800992D01*
X37960754Y-65848611D01*
X37913135Y-65943849D01*
X37913135Y-66181944D01*
X37960754Y-66277182D01*
X38008373Y-66324801D01*
X38103611Y-66372420D01*
X38341706Y-66372420D01*
X38436944Y-66324801D01*
X38484563Y-66277182D01*
X42037897Y-25902420D02*
X42371230Y-25426230D01*
X42609325Y-25902420D02*
X42609325Y-24902420D01*
X42228373Y-24902420D01*
X42133135Y-24950040D01*
X42085516Y-24997659D01*
X42037897Y-25092897D01*
X42037897Y-25235754D01*
X42085516Y-25330992D01*
X42133135Y-25378611D01*
X42228373Y-25426230D01*
X42609325Y-25426230D01*
X41656944Y-24997659D02*
X41609325Y-24950040D01*
X41514087Y-24902420D01*
X41275992Y-24902420D01*
X41180754Y-24950040D01*
X41133135Y-24997659D01*
X41085516Y-25092897D01*
X41085516Y-25188135D01*
X41133135Y-25330992D01*
X41704563Y-25902420D01*
X41085516Y-25902420D01*
X40228373Y-24902420D02*
X40418849Y-24902420D01*
X40514087Y-24950040D01*
X40561706Y-24997659D01*
X40656944Y-25140516D01*
X40704563Y-25330992D01*
X40704563Y-25711944D01*
X40656944Y-25807182D01*
X40609325Y-25854801D01*
X40514087Y-25902420D01*
X40323611Y-25902420D01*
X40228373Y-25854801D01*
X40180754Y-25807182D01*
X40133135Y-25711944D01*
X40133135Y-25473849D01*
X40180754Y-25378611D01*
X40228373Y-25330992D01*
X40323611Y-25283373D01*
X40514087Y-25283373D01*
X40609325Y-25330992D01*
X40656944Y-25378611D01*
X40704563Y-25473849D01*
X48997420Y-48073135D02*
X49806944Y-48073135D01*
X49902182Y-48120754D01*
X49949801Y-48168373D01*
X49997420Y-48263611D01*
X49997420Y-48454087D01*
X49949801Y-48549325D01*
X49902182Y-48596944D01*
X49806944Y-48644563D01*
X48997420Y-48644563D01*
X48997420Y-49025516D02*
X48997420Y-49644563D01*
X49378373Y-49311230D01*
X49378373Y-49454087D01*
X49425992Y-49549325D01*
X49473611Y-49596944D01*
X49568849Y-49644563D01*
X49806944Y-49644563D01*
X49902182Y-49596944D01*
X49949801Y-49549325D01*
X49997420Y-49454087D01*
X49997420Y-49168373D01*
X49949801Y-49073135D01*
X49902182Y-49025516D01*
X52097420Y-44842182D02*
X51621230Y-44508849D01*
X52097420Y-44270754D02*
X51097420Y-44270754D01*
X51097420Y-44651706D01*
X51145040Y-44746944D01*
X51192659Y-44794563D01*
X51287897Y-44842182D01*
X51430754Y-44842182D01*
X51525992Y-44794563D01*
X51573611Y-44746944D01*
X51621230Y-44651706D01*
X51621230Y-44270754D01*
X51192659Y-45223135D02*
X51145040Y-45270754D01*
X51097420Y-45365992D01*
X51097420Y-45604087D01*
X51145040Y-45699325D01*
X51192659Y-45746944D01*
X51287897Y-45794563D01*
X51383135Y-45794563D01*
X51525992Y-45746944D01*
X52097420Y-45175516D01*
X52097420Y-45794563D01*
X51097420Y-46127897D02*
X51097420Y-46746944D01*
X51478373Y-46413611D01*
X51478373Y-46556468D01*
X51525992Y-46651706D01*
X51573611Y-46699325D01*
X51668849Y-46746944D01*
X51906944Y-46746944D01*
X52002182Y-46699325D01*
X52049801Y-46651706D01*
X52097420Y-46556468D01*
X52097420Y-46270754D01*
X52049801Y-46175516D01*
X52002182Y-46127897D01*
X47832897Y-58667420D02*
X48166230Y-58191230D01*
X48404325Y-58667420D02*
X48404325Y-57667420D01*
X48023373Y-57667420D01*
X47928135Y-57715040D01*
X47880516Y-57762659D01*
X47832897Y-57857897D01*
X47832897Y-58000754D01*
X47880516Y-58095992D01*
X47928135Y-58143611D01*
X48023373Y-58191230D01*
X48404325Y-58191230D01*
X47451944Y-57762659D02*
X47404325Y-57715040D01*
X47309087Y-57667420D01*
X47070992Y-57667420D01*
X46975754Y-57715040D01*
X46928135Y-57762659D01*
X46880516Y-57857897D01*
X46880516Y-57953135D01*
X46928135Y-58095992D01*
X47499563Y-58667420D01*
X46880516Y-58667420D01*
X46499563Y-57762659D02*
X46451944Y-57715040D01*
X46356706Y-57667420D01*
X46118611Y-57667420D01*
X46023373Y-57715040D01*
X45975754Y-57762659D01*
X45928135Y-57857897D01*
X45928135Y-57953135D01*
X45975754Y-58095992D01*
X46547182Y-58667420D01*
X45928135Y-58667420D01*
X45027420Y-43191706D02*
X45741706Y-43191706D01*
X45884563Y-43144087D01*
X45979801Y-43048849D01*
X46027420Y-42905992D01*
X46027420Y-42810754D01*
X46027420Y-43667897D02*
X45027420Y-43667897D01*
X45027420Y-44048849D01*
X45075040Y-44144087D01*
X45122659Y-44191706D01*
X45217897Y-44239325D01*
X45360754Y-44239325D01*
X45455992Y-44191706D01*
X45503611Y-44144087D01*
X45551230Y-44048849D01*
X45551230Y-43667897D01*
X45027420Y-45144087D02*
X45027420Y-44667897D01*
X45503611Y-44620278D01*
X45455992Y-44667897D01*
X45408373Y-44763135D01*
X45408373Y-45001230D01*
X45455992Y-45096468D01*
X45503611Y-45144087D01*
X45598849Y-45191706D01*
X45836944Y-45191706D01*
X45932182Y-45144087D01*
X45979801Y-45096468D01*
X46027420Y-45001230D01*
X46027420Y-44763135D01*
X45979801Y-44667897D01*
X45932182Y-44620278D01*
X32307897Y-42247420D02*
X32641230Y-41771230D01*
X32879325Y-42247420D02*
X32879325Y-41247420D01*
X32498373Y-41247420D01*
X32403135Y-41295040D01*
X32355516Y-41342659D01*
X32307897Y-41437897D01*
X32307897Y-41580754D01*
X32355516Y-41675992D01*
X32403135Y-41723611D01*
X32498373Y-41771230D01*
X32879325Y-41771230D01*
X31926944Y-41342659D02*
X31879325Y-41295040D01*
X31784087Y-41247420D01*
X31545992Y-41247420D01*
X31450754Y-41295040D01*
X31403135Y-41342659D01*
X31355516Y-41437897D01*
X31355516Y-41533135D01*
X31403135Y-41675992D01*
X31974563Y-42247420D01*
X31355516Y-42247420D01*
X30403135Y-42247420D02*
X30974563Y-42247420D01*
X30688849Y-42247420D02*
X30688849Y-41247420D01*
X30784087Y-41390278D01*
X30879325Y-41485516D01*
X30974563Y-41533135D01*
X31768525Y-47778711D02*
X32101859Y-47302521D01*
X32339954Y-47778711D02*
X32339954Y-46778711D01*
X31959001Y-46778711D01*
X31863763Y-46826331D01*
X31816144Y-46873950D01*
X31768525Y-46969188D01*
X31768525Y-47112045D01*
X31816144Y-47207283D01*
X31863763Y-47254902D01*
X31959001Y-47302521D01*
X32339954Y-47302521D01*
X31387573Y-46873950D02*
X31339954Y-46826331D01*
X31244716Y-46778711D01*
X31006620Y-46778711D01*
X30911382Y-46826331D01*
X30863763Y-46873950D01*
X30816144Y-46969188D01*
X30816144Y-47064426D01*
X30863763Y-47207283D01*
X31435192Y-47778711D01*
X30816144Y-47778711D01*
X28917420Y-46406706D02*
X29631706Y-46406706D01*
X29774563Y-46359087D01*
X29869801Y-46263849D01*
X29917420Y-46120992D01*
X29917420Y-46025754D01*
X29250754Y-47311468D02*
X29917420Y-47311468D01*
X28869801Y-47073373D02*
X29584087Y-46835278D01*
X29584087Y-47454325D01*
X63327897Y-55827420D02*
X63661230Y-55351230D01*
X63899325Y-55827420D02*
X63899325Y-54827420D01*
X63518373Y-54827420D01*
X63423135Y-54875040D01*
X63375516Y-54922659D01*
X63327897Y-55017897D01*
X63327897Y-55160754D01*
X63375516Y-55255992D01*
X63423135Y-55303611D01*
X63518373Y-55351230D01*
X63899325Y-55351230D01*
X62375516Y-55827420D02*
X62946944Y-55827420D01*
X62661230Y-55827420D02*
X62661230Y-54827420D01*
X62756468Y-54970278D01*
X62851706Y-55065516D01*
X62946944Y-55113135D01*
X61756468Y-54827420D02*
X61661230Y-54827420D01*
X61565992Y-54875040D01*
X61518373Y-54922659D01*
X61470754Y-55017897D01*
X61423135Y-55208373D01*
X61423135Y-55446468D01*
X61470754Y-55636944D01*
X61518373Y-55732182D01*
X61565992Y-55779801D01*
X61661230Y-55827420D01*
X61756468Y-55827420D01*
X61851706Y-55779801D01*
X61899325Y-55732182D01*
X61946944Y-55636944D01*
X61994563Y-55446468D01*
X61994563Y-55208373D01*
X61946944Y-55017897D01*
X61899325Y-54922659D01*
X61851706Y-54875040D01*
X61756468Y-54827420D01*
X62792324Y-50376839D02*
X63125658Y-49900649D01*
X63363753Y-50376839D02*
X63363753Y-49376839D01*
X62982800Y-49376839D01*
X62887562Y-49424459D01*
X62839943Y-49472078D01*
X62792324Y-49567316D01*
X62792324Y-49710173D01*
X62839943Y-49805411D01*
X62887562Y-49853030D01*
X62982800Y-49900649D01*
X63363753Y-49900649D01*
X61887562Y-49376839D02*
X62363753Y-49376839D01*
X62411372Y-49853030D01*
X62363753Y-49805411D01*
X62268515Y-49757792D01*
X62030419Y-49757792D01*
X61935181Y-49805411D01*
X61887562Y-49853030D01*
X61839943Y-49948268D01*
X61839943Y-50186363D01*
X61887562Y-50281601D01*
X61935181Y-50329220D01*
X62030419Y-50376839D01*
X62268515Y-50376839D01*
X62363753Y-50329220D01*
X62411372Y-50281601D01*
M02*
