G04 #@! TF.GenerationSoftware,KiCad,Pcbnew,(5.99.0-97-g37fac7a8f)*
G04 #@! TF.CreationDate,2019-11-17T20:53:56+01:00*
G04 #@! TF.ProjectId,canbox,63616e62-6f78-42e6-9b69-6361645f7063,rev?*
G04 #@! TF.SameCoordinates,Original*
G04 #@! TF.FileFunction,Paste,Top*
G04 #@! TF.FilePolarity,Positive*
%FSLAX46Y46*%
G04 Gerber Fmt 4.6, Leading zero omitted, Abs format (unit mm)*
G04 Created by KiCad (PCBNEW (5.99.0-97-g37fac7a8f)) date 2019-11-17 20:53:56*
%MOMM*%
%LPD*%
G04 APERTURE LIST*
%ADD10C,0.100000*%
%ADD11C,1.150000*%
%ADD12R,0.400000X3.000000*%
%ADD13R,1.450000X1.450000*%
%ADD14O,0.600000X0.250000*%
%ADD15O,0.250000X0.600000*%
%ADD16C,1.250000*%
%ADD17C,2.532420*%
%ADD18R,1.060000X0.650000*%
%ADD19R,1.500000X0.280000*%
%ADD20R,0.280000X1.500000*%
%ADD21R,2.100000X1.800000*%
%ADD22R,1.524000X1.524000*%
%ADD23R,2.400000X0.740000*%
%ADD24C,1.500000*%
%ADD25R,0.950000X0.950000*%
%ADD26R,0.600000X1.550000*%
%ADD27R,1.500000X0.600000*%
%ADD28C,0.950000*%
%ADD29R,3.000000X0.400000*%
%ADD30R,2.500000X4.600000*%
G04 APERTURE END LIST*
D10*
G36*
X54915711Y-35784070D02*
G01*
X54996817Y-35838263D01*
X55051010Y-35919369D01*
X55070040Y-36015039D01*
X55070040Y-36915041D01*
X55051010Y-37010711D01*
X54996817Y-37091817D01*
X54915711Y-37146010D01*
X54820041Y-37165040D01*
X54170039Y-37165040D01*
X54074369Y-37146010D01*
X53993263Y-37091817D01*
X53939070Y-37010711D01*
X53920040Y-36915041D01*
X53920040Y-36015039D01*
X53939070Y-35919369D01*
X53993263Y-35838263D01*
X54074369Y-35784070D01*
X54170039Y-35765040D01*
X54820041Y-35765040D01*
X54915711Y-35784070D01*
X54915711Y-35784070D01*
G37*
D11*
X54495040Y-36465040D03*
D10*
G36*
X52865711Y-35784070D02*
G01*
X52946817Y-35838263D01*
X53001010Y-35919369D01*
X53020040Y-36015039D01*
X53020040Y-36915041D01*
X53001010Y-37010711D01*
X52946817Y-37091817D01*
X52865711Y-37146010D01*
X52770041Y-37165040D01*
X52120039Y-37165040D01*
X52024369Y-37146010D01*
X51943263Y-37091817D01*
X51889070Y-37010711D01*
X51870040Y-36915041D01*
X51870040Y-36015039D01*
X51889070Y-35919369D01*
X51943263Y-35838263D01*
X52024369Y-35784070D01*
X52120039Y-35765040D01*
X52770041Y-35765040D01*
X52865711Y-35784070D01*
X52865711Y-35784070D01*
G37*
D11*
X52445040Y-36465040D03*
D10*
G36*
X54930711Y-37764070D02*
G01*
X55011817Y-37818263D01*
X55066010Y-37899369D01*
X55085040Y-37995039D01*
X55085040Y-38895041D01*
X55066010Y-38990711D01*
X55011817Y-39071817D01*
X54930711Y-39126010D01*
X54835041Y-39145040D01*
X54185039Y-39145040D01*
X54089369Y-39126010D01*
X54008263Y-39071817D01*
X53954070Y-38990711D01*
X53935040Y-38895041D01*
X53935040Y-37995039D01*
X53954070Y-37899369D01*
X54008263Y-37818263D01*
X54089369Y-37764070D01*
X54185039Y-37745040D01*
X54835041Y-37745040D01*
X54930711Y-37764070D01*
X54930711Y-37764070D01*
G37*
D11*
X54510040Y-38445040D03*
D10*
G36*
X52880711Y-37764070D02*
G01*
X52961817Y-37818263D01*
X53016010Y-37899369D01*
X53035040Y-37995039D01*
X53035040Y-38895041D01*
X53016010Y-38990711D01*
X52961817Y-39071817D01*
X52880711Y-39126010D01*
X52785041Y-39145040D01*
X52135039Y-39145040D01*
X52039369Y-39126010D01*
X51958263Y-39071817D01*
X51904070Y-38990711D01*
X51885040Y-38895041D01*
X51885040Y-37995039D01*
X51904070Y-37899369D01*
X51958263Y-37818263D01*
X52039369Y-37764070D01*
X52135039Y-37745040D01*
X52785041Y-37745040D01*
X52880711Y-37764070D01*
X52880711Y-37764070D01*
G37*
D11*
X52460040Y-38445040D03*
D10*
G36*
X54915711Y-33804070D02*
G01*
X54996817Y-33858263D01*
X55051010Y-33939369D01*
X55070040Y-34035039D01*
X55070040Y-34935041D01*
X55051010Y-35030711D01*
X54996817Y-35111817D01*
X54915711Y-35166010D01*
X54820041Y-35185040D01*
X54170039Y-35185040D01*
X54074369Y-35166010D01*
X53993263Y-35111817D01*
X53939070Y-35030711D01*
X53920040Y-34935041D01*
X53920040Y-34035039D01*
X53939070Y-33939369D01*
X53993263Y-33858263D01*
X54074369Y-33804070D01*
X54170039Y-33785040D01*
X54820041Y-33785040D01*
X54915711Y-33804070D01*
X54915711Y-33804070D01*
G37*
D11*
X54495040Y-34485040D03*
D10*
G36*
X52865711Y-33804070D02*
G01*
X52946817Y-33858263D01*
X53001010Y-33939369D01*
X53020040Y-34035039D01*
X53020040Y-34935041D01*
X53001010Y-35030711D01*
X52946817Y-35111817D01*
X52865711Y-35166010D01*
X52770041Y-35185040D01*
X52120039Y-35185040D01*
X52024369Y-35166010D01*
X51943263Y-35111817D01*
X51889070Y-35030711D01*
X51870040Y-34935041D01*
X51870040Y-34035039D01*
X51889070Y-33939369D01*
X51943263Y-33858263D01*
X52024369Y-33804070D01*
X52120039Y-33785040D01*
X52770041Y-33785040D01*
X52865711Y-33804070D01*
X52865711Y-33804070D01*
G37*
D11*
X52445040Y-34485040D03*
D12*
X94665040Y-84015040D03*
X94015040Y-84015040D03*
X93365040Y-84015040D03*
X92715040Y-84015040D03*
X92065040Y-84015040D03*
X106205040Y-83935040D03*
X105555040Y-83935040D03*
X104905040Y-83935040D03*
X104255040Y-83935040D03*
X103605040Y-83935040D03*
D13*
X46135658Y-35969459D03*
X47985658Y-35969459D03*
X46135658Y-34119459D03*
X47985658Y-34119459D03*
D14*
X50060658Y-33044459D03*
X50060658Y-33544459D03*
X50060658Y-34044459D03*
X50060658Y-34544459D03*
X50060658Y-35044459D03*
X50060658Y-35544459D03*
X50060658Y-36044459D03*
X50060658Y-36544459D03*
X50060658Y-37044459D03*
D15*
X49060658Y-38044459D03*
X48560658Y-38044459D03*
X48060658Y-38044459D03*
X47560658Y-38044459D03*
X47060658Y-38044459D03*
X46560658Y-38044459D03*
X46060658Y-38044459D03*
X45560658Y-38044459D03*
X45060658Y-38044459D03*
D14*
X44060658Y-37044459D03*
X44060658Y-36544459D03*
X44060658Y-36044459D03*
X44060658Y-35544459D03*
X44060658Y-35044459D03*
X44060658Y-34544459D03*
X44060658Y-34044459D03*
X44060658Y-33544459D03*
X44060658Y-33044459D03*
D15*
X45060658Y-32044459D03*
X45560658Y-32044459D03*
X46060658Y-32044459D03*
X46560658Y-32044459D03*
X47060658Y-32044459D03*
X47560658Y-32044459D03*
X48060658Y-32044459D03*
X48560658Y-32044459D03*
X49060658Y-32044459D03*
D10*
G36*
X70976329Y-82413489D02*
G01*
X71057435Y-82467682D01*
X71111628Y-82548788D01*
X71130658Y-82644459D01*
X71130658Y-84794459D01*
X71111628Y-84890130D01*
X71057435Y-84971236D01*
X70976329Y-85025429D01*
X70880658Y-85044459D01*
X70130658Y-85044459D01*
X70034987Y-85025429D01*
X69953881Y-84971236D01*
X69899688Y-84890130D01*
X69880658Y-84794459D01*
X69880658Y-82644459D01*
X69899688Y-82548788D01*
X69953881Y-82467682D01*
X70034987Y-82413489D01*
X70130658Y-82394459D01*
X70880658Y-82394459D01*
X70976329Y-82413489D01*
X70976329Y-82413489D01*
G37*
D16*
X70505658Y-83719459D03*
D10*
G36*
X73776329Y-82413489D02*
G01*
X73857435Y-82467682D01*
X73911628Y-82548788D01*
X73930658Y-82644459D01*
X73930658Y-84794459D01*
X73911628Y-84890130D01*
X73857435Y-84971236D01*
X73776329Y-85025429D01*
X73680658Y-85044459D01*
X72930658Y-85044459D01*
X72834987Y-85025429D01*
X72753881Y-84971236D01*
X72699688Y-84890130D01*
X72680658Y-84794459D01*
X72680658Y-82644459D01*
X72699688Y-82548788D01*
X72753881Y-82467682D01*
X72834987Y-82413489D01*
X72930658Y-82394459D01*
X73680658Y-82394459D01*
X73776329Y-82413489D01*
X73776329Y-82413489D01*
G37*
D16*
X73305658Y-83719459D03*
D10*
G36*
X114697530Y-37000361D02*
G01*
X114778636Y-37054554D01*
X114832829Y-37135660D01*
X114851859Y-37231331D01*
X114851859Y-39381331D01*
X114832829Y-39477002D01*
X114778636Y-39558108D01*
X114697530Y-39612301D01*
X114601859Y-39631331D01*
X113851859Y-39631331D01*
X113756188Y-39612301D01*
X113675082Y-39558108D01*
X113620889Y-39477002D01*
X113601859Y-39381331D01*
X113601859Y-37231331D01*
X113620889Y-37135660D01*
X113675082Y-37054554D01*
X113756188Y-37000361D01*
X113851859Y-36981331D01*
X114601859Y-36981331D01*
X114697530Y-37000361D01*
X114697530Y-37000361D01*
G37*
D16*
X114226859Y-38306331D03*
D10*
G36*
X111897530Y-37000361D02*
G01*
X111978636Y-37054554D01*
X112032829Y-37135660D01*
X112051859Y-37231331D01*
X112051859Y-39381331D01*
X112032829Y-39477002D01*
X111978636Y-39558108D01*
X111897530Y-39612301D01*
X111801859Y-39631331D01*
X111051859Y-39631331D01*
X110956188Y-39612301D01*
X110875082Y-39558108D01*
X110820889Y-39477002D01*
X110801859Y-39381331D01*
X110801859Y-37231331D01*
X110820889Y-37135660D01*
X110875082Y-37054554D01*
X110956188Y-37000361D01*
X111051859Y-36981331D01*
X111801859Y-36981331D01*
X111897530Y-37000361D01*
X111897530Y-37000361D01*
G37*
D16*
X111426859Y-38306331D03*
D10*
G36*
X114726009Y-33732509D02*
G01*
X114807115Y-33786702D01*
X114861308Y-33867808D01*
X114880338Y-33963479D01*
X114880338Y-36113479D01*
X114861308Y-36209150D01*
X114807115Y-36290256D01*
X114726009Y-36344449D01*
X114630338Y-36363479D01*
X113880338Y-36363479D01*
X113784667Y-36344449D01*
X113703561Y-36290256D01*
X113649368Y-36209150D01*
X113630338Y-36113479D01*
X113630338Y-33963479D01*
X113649368Y-33867808D01*
X113703561Y-33786702D01*
X113784667Y-33732509D01*
X113880338Y-33713479D01*
X114630338Y-33713479D01*
X114726009Y-33732509D01*
X114726009Y-33732509D01*
G37*
D16*
X114255338Y-35038479D03*
D10*
G36*
X111926009Y-33732509D02*
G01*
X112007115Y-33786702D01*
X112061308Y-33867808D01*
X112080338Y-33963479D01*
X112080338Y-36113479D01*
X112061308Y-36209150D01*
X112007115Y-36290256D01*
X111926009Y-36344449D01*
X111830338Y-36363479D01*
X111080338Y-36363479D01*
X110984667Y-36344449D01*
X110903561Y-36290256D01*
X110849368Y-36209150D01*
X110830338Y-36113479D01*
X110830338Y-33963479D01*
X110849368Y-33867808D01*
X110903561Y-33786702D01*
X110984667Y-33732509D01*
X111080338Y-33713479D01*
X111830338Y-33713479D01*
X111926009Y-33732509D01*
X111926009Y-33732509D01*
G37*
D16*
X111455338Y-35038479D03*
D10*
G36*
X114737530Y-30490361D02*
G01*
X114818636Y-30544554D01*
X114872829Y-30625660D01*
X114891859Y-30721331D01*
X114891859Y-32871331D01*
X114872829Y-32967002D01*
X114818636Y-33048108D01*
X114737530Y-33102301D01*
X114641859Y-33121331D01*
X113891859Y-33121331D01*
X113796188Y-33102301D01*
X113715082Y-33048108D01*
X113660889Y-32967002D01*
X113641859Y-32871331D01*
X113641859Y-30721331D01*
X113660889Y-30625660D01*
X113715082Y-30544554D01*
X113796188Y-30490361D01*
X113891859Y-30471331D01*
X114641859Y-30471331D01*
X114737530Y-30490361D01*
X114737530Y-30490361D01*
G37*
D16*
X114266859Y-31796331D03*
D10*
G36*
X111937530Y-30490361D02*
G01*
X112018636Y-30544554D01*
X112072829Y-30625660D01*
X112091859Y-30721331D01*
X112091859Y-32871331D01*
X112072829Y-32967002D01*
X112018636Y-33048108D01*
X111937530Y-33102301D01*
X111841859Y-33121331D01*
X111091859Y-33121331D01*
X110996188Y-33102301D01*
X110915082Y-33048108D01*
X110860889Y-32967002D01*
X110841859Y-32871331D01*
X110841859Y-30721331D01*
X110860889Y-30625660D01*
X110915082Y-30544554D01*
X110996188Y-30490361D01*
X111091859Y-30471331D01*
X111841859Y-30471331D01*
X111937530Y-30490361D01*
X111937530Y-30490361D01*
G37*
D16*
X111466859Y-31796331D03*
D10*
G36*
X114737530Y-27260361D02*
G01*
X114818636Y-27314554D01*
X114872829Y-27395660D01*
X114891859Y-27491331D01*
X114891859Y-29641331D01*
X114872829Y-29737002D01*
X114818636Y-29818108D01*
X114737530Y-29872301D01*
X114641859Y-29891331D01*
X113891859Y-29891331D01*
X113796188Y-29872301D01*
X113715082Y-29818108D01*
X113660889Y-29737002D01*
X113641859Y-29641331D01*
X113641859Y-27491331D01*
X113660889Y-27395660D01*
X113715082Y-27314554D01*
X113796188Y-27260361D01*
X113891859Y-27241331D01*
X114641859Y-27241331D01*
X114737530Y-27260361D01*
X114737530Y-27260361D01*
G37*
D16*
X114266859Y-28566331D03*
D10*
G36*
X111937530Y-27260361D02*
G01*
X112018636Y-27314554D01*
X112072829Y-27395660D01*
X112091859Y-27491331D01*
X112091859Y-29641331D01*
X112072829Y-29737002D01*
X112018636Y-29818108D01*
X111937530Y-29872301D01*
X111841859Y-29891331D01*
X111091859Y-29891331D01*
X110996188Y-29872301D01*
X110915082Y-29818108D01*
X110860889Y-29737002D01*
X110841859Y-29641331D01*
X110841859Y-27491331D01*
X110860889Y-27395660D01*
X110915082Y-27314554D01*
X110996188Y-27260361D01*
X111091859Y-27241331D01*
X111841859Y-27241331D01*
X111937530Y-27260361D01*
X111937530Y-27260361D01*
G37*
D16*
X111466859Y-28566331D03*
D10*
G36*
X56896329Y-25573489D02*
G01*
X56977435Y-25627682D01*
X57031628Y-25708788D01*
X57050658Y-25804459D01*
X57050658Y-27954459D01*
X57031628Y-28050130D01*
X56977435Y-28131236D01*
X56896329Y-28185429D01*
X56800658Y-28204459D01*
X56050658Y-28204459D01*
X55954987Y-28185429D01*
X55873881Y-28131236D01*
X55819688Y-28050130D01*
X55800658Y-27954459D01*
X55800658Y-25804459D01*
X55819688Y-25708788D01*
X55873881Y-25627682D01*
X55954987Y-25573489D01*
X56050658Y-25554459D01*
X56800658Y-25554459D01*
X56896329Y-25573489D01*
X56896329Y-25573489D01*
G37*
D16*
X56425658Y-26879459D03*
D10*
G36*
X54096329Y-25573489D02*
G01*
X54177435Y-25627682D01*
X54231628Y-25708788D01*
X54250658Y-25804459D01*
X54250658Y-27954459D01*
X54231628Y-28050130D01*
X54177435Y-28131236D01*
X54096329Y-28185429D01*
X54000658Y-28204459D01*
X53250658Y-28204459D01*
X53154987Y-28185429D01*
X53073881Y-28131236D01*
X53019688Y-28050130D01*
X53000658Y-27954459D01*
X53000658Y-25804459D01*
X53019688Y-25708788D01*
X53073881Y-25627682D01*
X53154987Y-25573489D01*
X53250658Y-25554459D01*
X54000658Y-25554459D01*
X54096329Y-25573489D01*
X54096329Y-25573489D01*
G37*
D16*
X53625658Y-26879459D03*
D10*
G36*
X60685711Y-32519070D02*
G01*
X60766817Y-32573263D01*
X60821010Y-32654369D01*
X60840040Y-32750040D01*
X60840040Y-34900040D01*
X60821010Y-34995711D01*
X60766817Y-35076817D01*
X60685711Y-35131010D01*
X60590040Y-35150040D01*
X59840040Y-35150040D01*
X59744369Y-35131010D01*
X59663263Y-35076817D01*
X59609070Y-34995711D01*
X59590040Y-34900040D01*
X59590040Y-32750040D01*
X59609070Y-32654369D01*
X59663263Y-32573263D01*
X59744369Y-32519070D01*
X59840040Y-32500040D01*
X60590040Y-32500040D01*
X60685711Y-32519070D01*
X60685711Y-32519070D01*
G37*
D16*
X60215040Y-33825040D03*
D10*
G36*
X57885711Y-32519070D02*
G01*
X57966817Y-32573263D01*
X58021010Y-32654369D01*
X58040040Y-32750040D01*
X58040040Y-34900040D01*
X58021010Y-34995711D01*
X57966817Y-35076817D01*
X57885711Y-35131010D01*
X57790040Y-35150040D01*
X57040040Y-35150040D01*
X56944369Y-35131010D01*
X56863263Y-35076817D01*
X56809070Y-34995711D01*
X56790040Y-34900040D01*
X56790040Y-32750040D01*
X56809070Y-32654369D01*
X56863263Y-32573263D01*
X56944369Y-32519070D01*
X57040040Y-32500040D01*
X57790040Y-32500040D01*
X57885711Y-32519070D01*
X57885711Y-32519070D01*
G37*
D16*
X57415040Y-33825040D03*
D17*
X81447738Y-77177079D03*
D10*
G36*
X83597738Y-75377079D02*
G01*
X83597738Y-78977079D01*
X79297738Y-77977079D01*
X79297738Y-76377079D01*
X83597738Y-75377079D01*
X83597738Y-75377079D01*
G37*
D17*
X75047738Y-77177079D03*
D10*
G36*
X72897738Y-78977079D02*
G01*
X72897738Y-75377079D01*
X77197738Y-76377079D01*
X77197738Y-77977079D01*
X72897738Y-78977079D01*
X72897738Y-78977079D01*
G37*
D18*
X30575658Y-42029459D03*
X30575658Y-43929459D03*
X28375658Y-43929459D03*
X28375658Y-42979459D03*
X28375658Y-42029459D03*
D19*
X39665658Y-55539459D03*
X39665658Y-55039459D03*
D20*
X41565658Y-47639459D03*
X42065658Y-47639459D03*
X42565658Y-47639459D03*
X43065658Y-47639459D03*
X43565658Y-47639459D03*
X44065658Y-47639459D03*
X44565658Y-47639459D03*
X45065658Y-47639459D03*
X45565658Y-47639459D03*
X46065658Y-47639459D03*
X46565658Y-47639459D03*
X47065658Y-47639459D03*
X47565658Y-47639459D03*
X48065658Y-47639459D03*
X48565658Y-47639459D03*
X49065658Y-47639459D03*
X49565658Y-47639459D03*
X50065658Y-47639459D03*
X50565658Y-47639459D03*
X51065658Y-47639459D03*
X51565658Y-47639459D03*
X52065658Y-47639459D03*
X52565658Y-47639459D03*
X53065658Y-47639459D03*
X53565658Y-47639459D03*
D19*
X55465658Y-49539459D03*
X55465658Y-50039459D03*
X55465658Y-50539459D03*
X55465658Y-51039459D03*
X55465658Y-51539459D03*
X55465658Y-52039459D03*
X55465658Y-52539459D03*
X55465658Y-53039459D03*
X55465658Y-53539459D03*
X55465658Y-54039459D03*
X55465658Y-54539459D03*
X55465658Y-55039459D03*
X55465658Y-55539459D03*
X55465658Y-56039459D03*
X55465658Y-56539459D03*
X55465658Y-57039459D03*
X55465658Y-57539459D03*
X55465658Y-58039459D03*
X55465658Y-58539459D03*
X55465658Y-59039459D03*
X55465658Y-59539459D03*
X55465658Y-60039459D03*
X55465658Y-60539459D03*
X55465658Y-61039459D03*
X55465658Y-61539459D03*
D20*
X53565658Y-63439459D03*
X53065658Y-63439459D03*
X52565658Y-63439459D03*
X52065658Y-63439459D03*
X51565658Y-63439459D03*
X51065658Y-63439459D03*
X50565658Y-63439459D03*
X50065658Y-63439459D03*
X49565658Y-63439459D03*
X49065658Y-63439459D03*
X48565658Y-63439459D03*
X48065658Y-63439459D03*
X47565658Y-63439459D03*
X47065658Y-63439459D03*
X46565658Y-63439459D03*
X46065658Y-63439459D03*
X45565658Y-63439459D03*
X45065658Y-63439459D03*
X44565658Y-63439459D03*
X44065658Y-63439459D03*
X43565658Y-63439459D03*
X43065658Y-63439459D03*
X42565658Y-63439459D03*
X42065658Y-63439459D03*
X41565658Y-63439459D03*
D19*
X39665658Y-61539459D03*
X39665658Y-61039459D03*
X39665658Y-60539459D03*
X39665658Y-60039459D03*
X39665658Y-59539459D03*
X39665658Y-59039459D03*
X39665658Y-58539459D03*
X39665658Y-58039459D03*
X39665658Y-57539459D03*
X39665658Y-57039459D03*
X39665658Y-56539459D03*
X39665658Y-56039459D03*
X39665658Y-54539459D03*
X39665658Y-54039459D03*
X39665658Y-53539459D03*
X39665658Y-53039459D03*
X39665658Y-52539459D03*
X39665658Y-52039459D03*
X39665658Y-51539459D03*
X39665658Y-51039459D03*
X39665658Y-50539459D03*
X39665658Y-50039459D03*
X39665658Y-49539459D03*
D21*
X48225658Y-26879459D03*
X45325658Y-26879459D03*
X45325658Y-24579459D03*
X48225658Y-24579459D03*
X32781358Y-61890059D03*
X35681358Y-61890059D03*
X35681358Y-64190059D03*
X32781358Y-64190059D03*
D22*
X39991298Y-32701879D03*
X39991298Y-35901879D03*
X35491298Y-35901879D03*
X35491298Y-32701879D03*
X96495858Y-61145159D03*
X99695858Y-61145159D03*
X99695858Y-65645159D03*
X96495858Y-65645159D03*
D10*
G36*
X66500529Y-83064549D02*
G01*
X66581635Y-83118742D01*
X66635828Y-83199848D01*
X66654858Y-83295518D01*
X66654858Y-84195520D01*
X66635828Y-84291190D01*
X66581635Y-84372296D01*
X66500529Y-84426489D01*
X66404859Y-84445519D01*
X65754857Y-84445519D01*
X65659187Y-84426489D01*
X65578081Y-84372296D01*
X65523888Y-84291190D01*
X65504858Y-84195520D01*
X65504858Y-83295518D01*
X65523888Y-83199848D01*
X65578081Y-83118742D01*
X65659187Y-83064549D01*
X65754857Y-83045519D01*
X66404859Y-83045519D01*
X66500529Y-83064549D01*
X66500529Y-83064549D01*
G37*
D11*
X66079858Y-83745519D03*
D10*
G36*
X68550529Y-83064549D02*
G01*
X68631635Y-83118742D01*
X68685828Y-83199848D01*
X68704858Y-83295518D01*
X68704858Y-84195520D01*
X68685828Y-84291190D01*
X68631635Y-84372296D01*
X68550529Y-84426489D01*
X68454859Y-84445519D01*
X67804857Y-84445519D01*
X67709187Y-84426489D01*
X67628081Y-84372296D01*
X67573888Y-84291190D01*
X67554858Y-84195520D01*
X67554858Y-83295518D01*
X67573888Y-83199848D01*
X67628081Y-83118742D01*
X67709187Y-83064549D01*
X67804857Y-83045519D01*
X68454859Y-83045519D01*
X68550529Y-83064549D01*
X68550529Y-83064549D01*
G37*
D11*
X68129858Y-83745519D03*
D10*
G36*
X64510711Y-33194070D02*
G01*
X64591817Y-33248263D01*
X64646010Y-33329369D01*
X64665040Y-33425039D01*
X64665040Y-34325041D01*
X64646010Y-34420711D01*
X64591817Y-34501817D01*
X64510711Y-34556010D01*
X64415041Y-34575040D01*
X63765039Y-34575040D01*
X63669369Y-34556010D01*
X63588263Y-34501817D01*
X63534070Y-34420711D01*
X63515040Y-34325041D01*
X63515040Y-33425039D01*
X63534070Y-33329369D01*
X63588263Y-33248263D01*
X63669369Y-33194070D01*
X63765039Y-33175040D01*
X64415041Y-33175040D01*
X64510711Y-33194070D01*
X64510711Y-33194070D01*
G37*
D11*
X64090040Y-33875040D03*
D10*
G36*
X62460711Y-33194070D02*
G01*
X62541817Y-33248263D01*
X62596010Y-33329369D01*
X62615040Y-33425039D01*
X62615040Y-34325041D01*
X62596010Y-34420711D01*
X62541817Y-34501817D01*
X62460711Y-34556010D01*
X62365041Y-34575040D01*
X61715039Y-34575040D01*
X61619369Y-34556010D01*
X61538263Y-34501817D01*
X61484070Y-34420711D01*
X61465040Y-34325041D01*
X61465040Y-33425039D01*
X61484070Y-33329369D01*
X61538263Y-33248263D01*
X61619369Y-33194070D01*
X61715039Y-33175040D01*
X62365041Y-33175040D01*
X62460711Y-33194070D01*
X62460711Y-33194070D01*
G37*
D11*
X62040040Y-33875040D03*
D10*
G36*
X60696329Y-26198489D02*
G01*
X60777435Y-26252682D01*
X60831628Y-26333788D01*
X60850658Y-26429458D01*
X60850658Y-27329460D01*
X60831628Y-27425130D01*
X60777435Y-27506236D01*
X60696329Y-27560429D01*
X60600659Y-27579459D01*
X59950657Y-27579459D01*
X59854987Y-27560429D01*
X59773881Y-27506236D01*
X59719688Y-27425130D01*
X59700658Y-27329460D01*
X59700658Y-26429458D01*
X59719688Y-26333788D01*
X59773881Y-26252682D01*
X59854987Y-26198489D01*
X59950657Y-26179459D01*
X60600659Y-26179459D01*
X60696329Y-26198489D01*
X60696329Y-26198489D01*
G37*
D11*
X60275658Y-26879459D03*
D10*
G36*
X58646329Y-26198489D02*
G01*
X58727435Y-26252682D01*
X58781628Y-26333788D01*
X58800658Y-26429458D01*
X58800658Y-27329460D01*
X58781628Y-27425130D01*
X58727435Y-27506236D01*
X58646329Y-27560429D01*
X58550659Y-27579459D01*
X57900657Y-27579459D01*
X57804987Y-27560429D01*
X57723881Y-27506236D01*
X57669688Y-27425130D01*
X57650658Y-27329460D01*
X57650658Y-26429458D01*
X57669688Y-26333788D01*
X57723881Y-26252682D01*
X57804987Y-26198489D01*
X57900657Y-26179459D01*
X58550659Y-26179459D01*
X58646329Y-26198489D01*
X58646329Y-26198489D01*
G37*
D11*
X58225658Y-26879459D03*
D10*
G36*
X60035711Y-30424070D02*
G01*
X60116817Y-30478263D01*
X60171010Y-30559369D01*
X60190040Y-30655039D01*
X60190040Y-31555041D01*
X60171010Y-31650711D01*
X60116817Y-31731817D01*
X60035711Y-31786010D01*
X59940041Y-31805040D01*
X59290039Y-31805040D01*
X59194369Y-31786010D01*
X59113263Y-31731817D01*
X59059070Y-31650711D01*
X59040040Y-31555041D01*
X59040040Y-30655039D01*
X59059070Y-30559369D01*
X59113263Y-30478263D01*
X59194369Y-30424070D01*
X59290039Y-30405040D01*
X59940041Y-30405040D01*
X60035711Y-30424070D01*
X60035711Y-30424070D01*
G37*
D11*
X59615040Y-31105040D03*
D10*
G36*
X57985711Y-30424070D02*
G01*
X58066817Y-30478263D01*
X58121010Y-30559369D01*
X58140040Y-30655039D01*
X58140040Y-31555041D01*
X58121010Y-31650711D01*
X58066817Y-31731817D01*
X57985711Y-31786010D01*
X57890041Y-31805040D01*
X57240039Y-31805040D01*
X57144369Y-31786010D01*
X57063263Y-31731817D01*
X57009070Y-31650711D01*
X56990040Y-31555041D01*
X56990040Y-30655039D01*
X57009070Y-30559369D01*
X57063263Y-30478263D01*
X57144369Y-30424070D01*
X57240039Y-30405040D01*
X57890041Y-30405040D01*
X57985711Y-30424070D01*
X57985711Y-30424070D01*
G37*
D11*
X57565040Y-31105040D03*
D10*
G36*
X45545711Y-43184070D02*
G01*
X45626817Y-43238263D01*
X45681010Y-43319369D01*
X45700040Y-43415039D01*
X45700040Y-44315041D01*
X45681010Y-44410711D01*
X45626817Y-44491817D01*
X45545711Y-44546010D01*
X45450041Y-44565040D01*
X44800039Y-44565040D01*
X44704369Y-44546010D01*
X44623263Y-44491817D01*
X44569070Y-44410711D01*
X44550040Y-44315041D01*
X44550040Y-43415039D01*
X44569070Y-43319369D01*
X44623263Y-43238263D01*
X44704369Y-43184070D01*
X44800039Y-43165040D01*
X45450041Y-43165040D01*
X45545711Y-43184070D01*
X45545711Y-43184070D01*
G37*
D11*
X45125040Y-43865040D03*
D10*
G36*
X43495711Y-43184070D02*
G01*
X43576817Y-43238263D01*
X43631010Y-43319369D01*
X43650040Y-43415039D01*
X43650040Y-44315041D01*
X43631010Y-44410711D01*
X43576817Y-44491817D01*
X43495711Y-44546010D01*
X43400041Y-44565040D01*
X42750039Y-44565040D01*
X42654369Y-44546010D01*
X42573263Y-44491817D01*
X42519070Y-44410711D01*
X42500040Y-44315041D01*
X42500040Y-43415039D01*
X42519070Y-43319369D01*
X42573263Y-43238263D01*
X42654369Y-43184070D01*
X42750039Y-43165040D01*
X43400041Y-43165040D01*
X43495711Y-43184070D01*
X43495711Y-43184070D01*
G37*
D11*
X43075040Y-43865040D03*
D10*
G36*
X39246329Y-26598489D02*
G01*
X39327435Y-26652682D01*
X39381628Y-26733788D01*
X39400658Y-26829458D01*
X39400658Y-27729460D01*
X39381628Y-27825130D01*
X39327435Y-27906236D01*
X39246329Y-27960429D01*
X39150659Y-27979459D01*
X38500657Y-27979459D01*
X38404987Y-27960429D01*
X38323881Y-27906236D01*
X38269688Y-27825130D01*
X38250658Y-27729460D01*
X38250658Y-26829458D01*
X38269688Y-26733788D01*
X38323881Y-26652682D01*
X38404987Y-26598489D01*
X38500657Y-26579459D01*
X39150659Y-26579459D01*
X39246329Y-26598489D01*
X39246329Y-26598489D01*
G37*
D11*
X38825658Y-27279459D03*
D10*
G36*
X37196329Y-26598489D02*
G01*
X37277435Y-26652682D01*
X37331628Y-26733788D01*
X37350658Y-26829458D01*
X37350658Y-27729460D01*
X37331628Y-27825130D01*
X37277435Y-27906236D01*
X37196329Y-27960429D01*
X37100659Y-27979459D01*
X36450657Y-27979459D01*
X36354987Y-27960429D01*
X36273881Y-27906236D01*
X36219688Y-27825130D01*
X36200658Y-27729460D01*
X36200658Y-26829458D01*
X36219688Y-26733788D01*
X36273881Y-26652682D01*
X36354987Y-26598489D01*
X36450657Y-26579459D01*
X37100659Y-26579459D01*
X37196329Y-26598489D01*
X37196329Y-26598489D01*
G37*
D11*
X36775658Y-27279459D03*
D10*
G36*
X45835711Y-40884070D02*
G01*
X45916817Y-40938263D01*
X45971010Y-41019369D01*
X45990040Y-41115039D01*
X45990040Y-42015041D01*
X45971010Y-42110711D01*
X45916817Y-42191817D01*
X45835711Y-42246010D01*
X45740041Y-42265040D01*
X45090039Y-42265040D01*
X44994369Y-42246010D01*
X44913263Y-42191817D01*
X44859070Y-42110711D01*
X44840040Y-42015041D01*
X44840040Y-41115039D01*
X44859070Y-41019369D01*
X44913263Y-40938263D01*
X44994369Y-40884070D01*
X45090039Y-40865040D01*
X45740041Y-40865040D01*
X45835711Y-40884070D01*
X45835711Y-40884070D01*
G37*
D11*
X45415040Y-41565040D03*
D10*
G36*
X43785711Y-40884070D02*
G01*
X43866817Y-40938263D01*
X43921010Y-41019369D01*
X43940040Y-41115039D01*
X43940040Y-42015041D01*
X43921010Y-42110711D01*
X43866817Y-42191817D01*
X43785711Y-42246010D01*
X43690041Y-42265040D01*
X43040039Y-42265040D01*
X42944369Y-42246010D01*
X42863263Y-42191817D01*
X42809070Y-42110711D01*
X42790040Y-42015041D01*
X42790040Y-41115039D01*
X42809070Y-41019369D01*
X42863263Y-40938263D01*
X42944369Y-40884070D01*
X43040039Y-40865040D01*
X43690041Y-40865040D01*
X43785711Y-40884070D01*
X43785711Y-40884070D01*
G37*
D11*
X43365040Y-41565040D03*
D10*
G36*
X39894249Y-40981829D02*
G01*
X39975355Y-41036022D01*
X40029548Y-41117128D01*
X40048578Y-41212798D01*
X40048578Y-42112800D01*
X40029548Y-42208470D01*
X39975355Y-42289576D01*
X39894249Y-42343769D01*
X39798579Y-42362799D01*
X39148577Y-42362799D01*
X39052907Y-42343769D01*
X38971801Y-42289576D01*
X38917608Y-42208470D01*
X38898578Y-42112800D01*
X38898578Y-41212798D01*
X38917608Y-41117128D01*
X38971801Y-41036022D01*
X39052907Y-40981829D01*
X39148577Y-40962799D01*
X39798579Y-40962799D01*
X39894249Y-40981829D01*
X39894249Y-40981829D01*
G37*
D11*
X39473578Y-41662799D03*
D10*
G36*
X41944249Y-40981829D02*
G01*
X42025355Y-41036022D01*
X42079548Y-41117128D01*
X42098578Y-41212798D01*
X42098578Y-42112800D01*
X42079548Y-42208470D01*
X42025355Y-42289576D01*
X41944249Y-42343769D01*
X41848579Y-42362799D01*
X41198577Y-42362799D01*
X41102907Y-42343769D01*
X41021801Y-42289576D01*
X40967608Y-42208470D01*
X40948578Y-42112800D01*
X40948578Y-41212798D01*
X40967608Y-41117128D01*
X41021801Y-41036022D01*
X41102907Y-40981829D01*
X41198577Y-40962799D01*
X41848579Y-40962799D01*
X41944249Y-40981829D01*
X41944249Y-40981829D01*
G37*
D11*
X41523578Y-41662799D03*
D10*
G36*
X94441529Y-54489189D02*
G01*
X94522635Y-54543382D01*
X94576828Y-54624488D01*
X94595858Y-54720158D01*
X94595858Y-55370160D01*
X94576828Y-55465830D01*
X94522635Y-55546936D01*
X94441529Y-55601129D01*
X94345859Y-55620159D01*
X93445857Y-55620159D01*
X93350187Y-55601129D01*
X93269081Y-55546936D01*
X93214888Y-55465830D01*
X93195858Y-55370160D01*
X93195858Y-54720158D01*
X93214888Y-54624488D01*
X93269081Y-54543382D01*
X93350187Y-54489189D01*
X93445857Y-54470159D01*
X94345859Y-54470159D01*
X94441529Y-54489189D01*
X94441529Y-54489189D01*
G37*
D11*
X93895858Y-55045159D03*
D10*
G36*
X94441529Y-52439189D02*
G01*
X94522635Y-52493382D01*
X94576828Y-52574488D01*
X94595858Y-52670158D01*
X94595858Y-53320160D01*
X94576828Y-53415830D01*
X94522635Y-53496936D01*
X94441529Y-53551129D01*
X94345859Y-53570159D01*
X93445857Y-53570159D01*
X93350187Y-53551129D01*
X93269081Y-53496936D01*
X93214888Y-53415830D01*
X93195858Y-53320160D01*
X93195858Y-52670158D01*
X93214888Y-52574488D01*
X93269081Y-52493382D01*
X93350187Y-52439189D01*
X93445857Y-52420159D01*
X94345859Y-52420159D01*
X94441529Y-52439189D01*
X94441529Y-52439189D01*
G37*
D11*
X93895858Y-52995159D03*
D23*
X28444178Y-71614479D03*
X24544178Y-71614479D03*
X28444178Y-70344479D03*
X24544178Y-70344479D03*
X28444178Y-69074479D03*
X24544178Y-69074479D03*
X28444178Y-67804479D03*
X24544178Y-67804479D03*
X28444178Y-66534479D03*
X24544178Y-66534479D03*
D10*
G36*
X54571329Y-68948489D02*
G01*
X54652435Y-69002682D01*
X54706628Y-69083788D01*
X54725658Y-69179458D01*
X54725658Y-69829460D01*
X54706628Y-69925130D01*
X54652435Y-70006236D01*
X54571329Y-70060429D01*
X54475659Y-70079459D01*
X53575657Y-70079459D01*
X53479987Y-70060429D01*
X53398881Y-70006236D01*
X53344688Y-69925130D01*
X53325658Y-69829460D01*
X53325658Y-69179458D01*
X53344688Y-69083788D01*
X53398881Y-69002682D01*
X53479987Y-68948489D01*
X53575657Y-68929459D01*
X54475659Y-68929459D01*
X54571329Y-68948489D01*
X54571329Y-68948489D01*
G37*
D11*
X54025658Y-69504459D03*
D10*
G36*
X54571329Y-66898489D02*
G01*
X54652435Y-66952682D01*
X54706628Y-67033788D01*
X54725658Y-67129458D01*
X54725658Y-67779460D01*
X54706628Y-67875130D01*
X54652435Y-67956236D01*
X54571329Y-68010429D01*
X54475659Y-68029459D01*
X53575657Y-68029459D01*
X53479987Y-68010429D01*
X53398881Y-67956236D01*
X53344688Y-67875130D01*
X53325658Y-67779460D01*
X53325658Y-67129458D01*
X53344688Y-67033788D01*
X53398881Y-66952682D01*
X53479987Y-66898489D01*
X53575657Y-66879459D01*
X54475659Y-66879459D01*
X54571329Y-66898489D01*
X54571329Y-66898489D01*
G37*
D11*
X54025658Y-67454459D03*
D10*
G36*
X58471329Y-69198489D02*
G01*
X58552435Y-69252682D01*
X58606628Y-69333788D01*
X58625658Y-69429458D01*
X58625658Y-70329460D01*
X58606628Y-70425130D01*
X58552435Y-70506236D01*
X58471329Y-70560429D01*
X58375659Y-70579459D01*
X57725657Y-70579459D01*
X57629987Y-70560429D01*
X57548881Y-70506236D01*
X57494688Y-70425130D01*
X57475658Y-70329460D01*
X57475658Y-69429458D01*
X57494688Y-69333788D01*
X57548881Y-69252682D01*
X57629987Y-69198489D01*
X57725657Y-69179459D01*
X58375659Y-69179459D01*
X58471329Y-69198489D01*
X58471329Y-69198489D01*
G37*
D11*
X58050658Y-69879459D03*
D10*
G36*
X56421329Y-69198489D02*
G01*
X56502435Y-69252682D01*
X56556628Y-69333788D01*
X56575658Y-69429458D01*
X56575658Y-70329460D01*
X56556628Y-70425130D01*
X56502435Y-70506236D01*
X56421329Y-70560429D01*
X56325659Y-70579459D01*
X55675657Y-70579459D01*
X55579987Y-70560429D01*
X55498881Y-70506236D01*
X55444688Y-70425130D01*
X55425658Y-70329460D01*
X55425658Y-69429458D01*
X55444688Y-69333788D01*
X55498881Y-69252682D01*
X55579987Y-69198489D01*
X55675657Y-69179459D01*
X56325659Y-69179459D01*
X56421329Y-69198489D01*
X56421329Y-69198489D01*
G37*
D11*
X56000658Y-69879459D03*
D10*
G36*
X74189889Y-58351149D02*
G01*
X74270995Y-58405342D01*
X74325188Y-58486448D01*
X74344218Y-58582119D01*
X74344218Y-59582119D01*
X74325188Y-59677790D01*
X74270995Y-59758896D01*
X74189889Y-59813089D01*
X74094218Y-59832119D01*
X72244218Y-59832119D01*
X72148547Y-59813089D01*
X72067441Y-59758896D01*
X72013248Y-59677790D01*
X71994218Y-59582119D01*
X71994218Y-58582119D01*
X72013248Y-58486448D01*
X72067441Y-58405342D01*
X72148547Y-58351149D01*
X72244218Y-58332119D01*
X74094218Y-58332119D01*
X74189889Y-58351149D01*
X74189889Y-58351149D01*
G37*
D24*
X73169218Y-59082119D03*
D10*
G36*
X74189889Y-61601149D02*
G01*
X74270995Y-61655342D01*
X74325188Y-61736448D01*
X74344218Y-61832119D01*
X74344218Y-62832119D01*
X74325188Y-62927790D01*
X74270995Y-63008896D01*
X74189889Y-63063089D01*
X74094218Y-63082119D01*
X72244218Y-63082119D01*
X72148547Y-63063089D01*
X72067441Y-63008896D01*
X72013248Y-62927790D01*
X71994218Y-62832119D01*
X71994218Y-61832119D01*
X72013248Y-61736448D01*
X72067441Y-61655342D01*
X72148547Y-61601149D01*
X72244218Y-61582119D01*
X74094218Y-61582119D01*
X74189889Y-61601149D01*
X74189889Y-61601149D01*
G37*
D24*
X73169218Y-62332119D03*
D25*
X66868558Y-74972259D03*
X66868558Y-73797259D03*
X65693558Y-73797259D03*
X65693558Y-74972259D03*
D26*
X68186058Y-77084759D03*
X66916058Y-77084759D03*
X65646058Y-77084759D03*
X64376058Y-77084759D03*
X64376058Y-71684759D03*
X65646058Y-71684759D03*
X66916058Y-71684759D03*
X68186058Y-71684759D03*
D10*
G36*
X40752689Y-74458269D02*
G01*
X40833795Y-74512462D01*
X40887988Y-74593568D01*
X40907018Y-74689238D01*
X40907018Y-75589240D01*
X40887988Y-75684910D01*
X40833795Y-75766016D01*
X40752689Y-75820209D01*
X40657019Y-75839239D01*
X40007017Y-75839239D01*
X39911347Y-75820209D01*
X39830241Y-75766016D01*
X39776048Y-75684910D01*
X39757018Y-75589240D01*
X39757018Y-74689238D01*
X39776048Y-74593568D01*
X39830241Y-74512462D01*
X39911347Y-74458269D01*
X40007017Y-74439239D01*
X40657019Y-74439239D01*
X40752689Y-74458269D01*
X40752689Y-74458269D01*
G37*
D11*
X40332018Y-75139239D03*
D10*
G36*
X38702689Y-74458269D02*
G01*
X38783795Y-74512462D01*
X38837988Y-74593568D01*
X38857018Y-74689238D01*
X38857018Y-75589240D01*
X38837988Y-75684910D01*
X38783795Y-75766016D01*
X38702689Y-75820209D01*
X38607019Y-75839239D01*
X37957017Y-75839239D01*
X37861347Y-75820209D01*
X37780241Y-75766016D01*
X37726048Y-75684910D01*
X37707018Y-75589240D01*
X37707018Y-74689238D01*
X37726048Y-74593568D01*
X37780241Y-74512462D01*
X37861347Y-74458269D01*
X37957017Y-74439239D01*
X38607019Y-74439239D01*
X38702689Y-74458269D01*
X38702689Y-74458269D01*
G37*
D11*
X38282018Y-75139239D03*
D10*
G36*
X35905711Y-46904070D02*
G01*
X35986817Y-46958263D01*
X36041010Y-47039369D01*
X36060040Y-47135039D01*
X36060040Y-48035041D01*
X36041010Y-48130711D01*
X35986817Y-48211817D01*
X35905711Y-48266010D01*
X35810041Y-48285040D01*
X35160039Y-48285040D01*
X35064369Y-48266010D01*
X34983263Y-48211817D01*
X34929070Y-48130711D01*
X34910040Y-48035041D01*
X34910040Y-47135039D01*
X34929070Y-47039369D01*
X34983263Y-46958263D01*
X35064369Y-46904070D01*
X35160039Y-46885040D01*
X35810041Y-46885040D01*
X35905711Y-46904070D01*
X35905711Y-46904070D01*
G37*
D11*
X35485040Y-47585040D03*
D10*
G36*
X37955711Y-46904070D02*
G01*
X38036817Y-46958263D01*
X38091010Y-47039369D01*
X38110040Y-47135039D01*
X38110040Y-48035041D01*
X38091010Y-48130711D01*
X38036817Y-48211817D01*
X37955711Y-48266010D01*
X37860041Y-48285040D01*
X37210039Y-48285040D01*
X37114369Y-48266010D01*
X37033263Y-48211817D01*
X36979070Y-48130711D01*
X36960040Y-48035041D01*
X36960040Y-47135039D01*
X36979070Y-47039369D01*
X37033263Y-46958263D01*
X37114369Y-46904070D01*
X37210039Y-46885040D01*
X37860041Y-46885040D01*
X37955711Y-46904070D01*
X37955711Y-46904070D01*
G37*
D11*
X37535040Y-47585040D03*
D10*
G36*
X33555711Y-50984070D02*
G01*
X33636817Y-51038263D01*
X33691010Y-51119369D01*
X33710040Y-51215039D01*
X33710040Y-52115041D01*
X33691010Y-52210711D01*
X33636817Y-52291817D01*
X33555711Y-52346010D01*
X33460041Y-52365040D01*
X32810039Y-52365040D01*
X32714369Y-52346010D01*
X32633263Y-52291817D01*
X32579070Y-52210711D01*
X32560040Y-52115041D01*
X32560040Y-51215039D01*
X32579070Y-51119369D01*
X32633263Y-51038263D01*
X32714369Y-50984070D01*
X32810039Y-50965040D01*
X33460041Y-50965040D01*
X33555711Y-50984070D01*
X33555711Y-50984070D01*
G37*
D11*
X33135040Y-51665040D03*
D10*
G36*
X35605711Y-50984070D02*
G01*
X35686817Y-51038263D01*
X35741010Y-51119369D01*
X35760040Y-51215039D01*
X35760040Y-52115041D01*
X35741010Y-52210711D01*
X35686817Y-52291817D01*
X35605711Y-52346010D01*
X35510041Y-52365040D01*
X34860039Y-52365040D01*
X34764369Y-52346010D01*
X34683263Y-52291817D01*
X34629070Y-52210711D01*
X34610040Y-52115041D01*
X34610040Y-51215039D01*
X34629070Y-51119369D01*
X34683263Y-51038263D01*
X34764369Y-50984070D01*
X34860039Y-50965040D01*
X35510041Y-50965040D01*
X35605711Y-50984070D01*
X35605711Y-50984070D01*
G37*
D11*
X35185040Y-51665040D03*
D10*
G36*
X67411729Y-68178789D02*
G01*
X67492835Y-68232982D01*
X67547028Y-68314088D01*
X67566058Y-68409758D01*
X67566058Y-69059760D01*
X67547028Y-69155430D01*
X67492835Y-69236536D01*
X67411729Y-69290729D01*
X67316059Y-69309759D01*
X66416057Y-69309759D01*
X66320387Y-69290729D01*
X66239281Y-69236536D01*
X66185088Y-69155430D01*
X66166058Y-69059760D01*
X66166058Y-68409758D01*
X66185088Y-68314088D01*
X66239281Y-68232982D01*
X66320387Y-68178789D01*
X66416057Y-68159759D01*
X67316059Y-68159759D01*
X67411729Y-68178789D01*
X67411729Y-68178789D01*
G37*
D11*
X66866058Y-68734759D03*
D10*
G36*
X67411729Y-66128789D02*
G01*
X67492835Y-66182982D01*
X67547028Y-66264088D01*
X67566058Y-66359758D01*
X67566058Y-67009760D01*
X67547028Y-67105430D01*
X67492835Y-67186536D01*
X67411729Y-67240729D01*
X67316059Y-67259759D01*
X66416057Y-67259759D01*
X66320387Y-67240729D01*
X66239281Y-67186536D01*
X66185088Y-67105430D01*
X66166058Y-67009760D01*
X66166058Y-66359758D01*
X66185088Y-66264088D01*
X66239281Y-66182982D01*
X66320387Y-66128789D01*
X66416057Y-66109759D01*
X67316059Y-66109759D01*
X67411729Y-66128789D01*
X67411729Y-66128789D01*
G37*
D11*
X66866058Y-66684759D03*
D10*
G36*
X69811729Y-68178789D02*
G01*
X69892835Y-68232982D01*
X69947028Y-68314088D01*
X69966058Y-68409758D01*
X69966058Y-69059760D01*
X69947028Y-69155430D01*
X69892835Y-69236536D01*
X69811729Y-69290729D01*
X69716059Y-69309759D01*
X68816057Y-69309759D01*
X68720387Y-69290729D01*
X68639281Y-69236536D01*
X68585088Y-69155430D01*
X68566058Y-69059760D01*
X68566058Y-68409758D01*
X68585088Y-68314088D01*
X68639281Y-68232982D01*
X68720387Y-68178789D01*
X68816057Y-68159759D01*
X69716059Y-68159759D01*
X69811729Y-68178789D01*
X69811729Y-68178789D01*
G37*
D11*
X69266058Y-68734759D03*
D10*
G36*
X69811729Y-66128789D02*
G01*
X69892835Y-66182982D01*
X69947028Y-66264088D01*
X69966058Y-66359758D01*
X69966058Y-67009760D01*
X69947028Y-67105430D01*
X69892835Y-67186536D01*
X69811729Y-67240729D01*
X69716059Y-67259759D01*
X68816057Y-67259759D01*
X68720387Y-67240729D01*
X68639281Y-67186536D01*
X68585088Y-67105430D01*
X68566058Y-67009760D01*
X68566058Y-66359758D01*
X68585088Y-66264088D01*
X68639281Y-66182982D01*
X68720387Y-66128789D01*
X68816057Y-66109759D01*
X69716059Y-66109759D01*
X69811729Y-66128789D01*
X69811729Y-66128789D01*
G37*
D11*
X69266058Y-66684759D03*
D27*
X85968258Y-49318359D03*
X85968258Y-50588359D03*
X85968258Y-51858359D03*
X85968258Y-53128359D03*
X85968258Y-54398359D03*
X85968258Y-55668359D03*
X85968258Y-56938359D03*
X85968258Y-58208359D03*
X80568258Y-58208359D03*
X80568258Y-56938359D03*
X80568258Y-55668359D03*
X80568258Y-54398359D03*
X80568258Y-53128359D03*
X80568258Y-51858359D03*
X80568258Y-50588359D03*
X80568258Y-49318359D03*
D26*
X100000858Y-56745159D03*
X98730858Y-56745159D03*
X97460858Y-56745159D03*
X96190858Y-56745159D03*
X96190858Y-51345159D03*
X97460858Y-51345159D03*
X98730858Y-51345159D03*
X100000858Y-51345159D03*
D10*
G36*
X100441529Y-69689189D02*
G01*
X100522635Y-69743382D01*
X100576828Y-69824488D01*
X100595858Y-69920158D01*
X100595858Y-70570160D01*
X100576828Y-70665830D01*
X100522635Y-70746936D01*
X100441529Y-70801129D01*
X100345859Y-70820159D01*
X99445857Y-70820159D01*
X99350187Y-70801129D01*
X99269081Y-70746936D01*
X99214888Y-70665830D01*
X99195858Y-70570160D01*
X99195858Y-69920158D01*
X99214888Y-69824488D01*
X99269081Y-69743382D01*
X99350187Y-69689189D01*
X99445857Y-69670159D01*
X100345859Y-69670159D01*
X100441529Y-69689189D01*
X100441529Y-69689189D01*
G37*
D11*
X99895858Y-70245159D03*
D10*
G36*
X100441529Y-67639189D02*
G01*
X100522635Y-67693382D01*
X100576828Y-67774488D01*
X100595858Y-67870158D01*
X100595858Y-68520160D01*
X100576828Y-68615830D01*
X100522635Y-68696936D01*
X100441529Y-68751129D01*
X100345859Y-68770159D01*
X99445857Y-68770159D01*
X99350187Y-68751129D01*
X99269081Y-68696936D01*
X99214888Y-68615830D01*
X99195858Y-68520160D01*
X99195858Y-67870158D01*
X99214888Y-67774488D01*
X99269081Y-67693382D01*
X99350187Y-67639189D01*
X99445857Y-67620159D01*
X100345859Y-67620159D01*
X100441529Y-67639189D01*
X100441529Y-67639189D01*
G37*
D11*
X99895858Y-68195159D03*
D10*
G36*
X97041529Y-69689189D02*
G01*
X97122635Y-69743382D01*
X97176828Y-69824488D01*
X97195858Y-69920158D01*
X97195858Y-70570160D01*
X97176828Y-70665830D01*
X97122635Y-70746936D01*
X97041529Y-70801129D01*
X96945859Y-70820159D01*
X96045857Y-70820159D01*
X95950187Y-70801129D01*
X95869081Y-70746936D01*
X95814888Y-70665830D01*
X95795858Y-70570160D01*
X95795858Y-69920158D01*
X95814888Y-69824488D01*
X95869081Y-69743382D01*
X95950187Y-69689189D01*
X96045857Y-69670159D01*
X96945859Y-69670159D01*
X97041529Y-69689189D01*
X97041529Y-69689189D01*
G37*
D11*
X96495858Y-70245159D03*
D10*
G36*
X97041529Y-67639189D02*
G01*
X97122635Y-67693382D01*
X97176828Y-67774488D01*
X97195858Y-67870158D01*
X97195858Y-68520160D01*
X97176828Y-68615830D01*
X97122635Y-68696936D01*
X97041529Y-68751129D01*
X96945859Y-68770159D01*
X96045857Y-68770159D01*
X95950187Y-68751129D01*
X95869081Y-68696936D01*
X95814888Y-68615830D01*
X95795858Y-68520160D01*
X95795858Y-67870158D01*
X95814888Y-67774488D01*
X95869081Y-67693382D01*
X95950187Y-67639189D01*
X96045857Y-67620159D01*
X96945859Y-67620159D01*
X97041529Y-67639189D01*
X97041529Y-67639189D01*
G37*
D11*
X96495858Y-68195159D03*
D10*
G36*
X109901009Y-37557509D02*
G01*
X109982115Y-37611702D01*
X110036308Y-37692808D01*
X110055338Y-37788478D01*
X110055338Y-38688480D01*
X110036308Y-38784150D01*
X109982115Y-38865256D01*
X109901009Y-38919449D01*
X109805339Y-38938479D01*
X109155337Y-38938479D01*
X109059667Y-38919449D01*
X108978561Y-38865256D01*
X108924368Y-38784150D01*
X108905338Y-38688480D01*
X108905338Y-37788478D01*
X108924368Y-37692808D01*
X108978561Y-37611702D01*
X109059667Y-37557509D01*
X109155337Y-37538479D01*
X109805339Y-37538479D01*
X109901009Y-37557509D01*
X109901009Y-37557509D01*
G37*
D11*
X109480338Y-38238479D03*
D10*
G36*
X107851009Y-37557509D02*
G01*
X107932115Y-37611702D01*
X107986308Y-37692808D01*
X108005338Y-37788478D01*
X108005338Y-38688480D01*
X107986308Y-38784150D01*
X107932115Y-38865256D01*
X107851009Y-38919449D01*
X107755339Y-38938479D01*
X107105337Y-38938479D01*
X107009667Y-38919449D01*
X106928561Y-38865256D01*
X106874368Y-38784150D01*
X106855338Y-38688480D01*
X106855338Y-37788478D01*
X106874368Y-37692808D01*
X106928561Y-37611702D01*
X107009667Y-37557509D01*
X107105337Y-37538479D01*
X107755339Y-37538479D01*
X107851009Y-37557509D01*
X107851009Y-37557509D01*
G37*
D11*
X107430338Y-38238479D03*
D10*
G36*
X109876009Y-34357509D02*
G01*
X109957115Y-34411702D01*
X110011308Y-34492808D01*
X110030338Y-34588478D01*
X110030338Y-35488480D01*
X110011308Y-35584150D01*
X109957115Y-35665256D01*
X109876009Y-35719449D01*
X109780339Y-35738479D01*
X109130337Y-35738479D01*
X109034667Y-35719449D01*
X108953561Y-35665256D01*
X108899368Y-35584150D01*
X108880338Y-35488480D01*
X108880338Y-34588478D01*
X108899368Y-34492808D01*
X108953561Y-34411702D01*
X109034667Y-34357509D01*
X109130337Y-34338479D01*
X109780339Y-34338479D01*
X109876009Y-34357509D01*
X109876009Y-34357509D01*
G37*
D11*
X109455338Y-35038479D03*
D10*
G36*
X107826009Y-34357509D02*
G01*
X107907115Y-34411702D01*
X107961308Y-34492808D01*
X107980338Y-34588478D01*
X107980338Y-35488480D01*
X107961308Y-35584150D01*
X107907115Y-35665256D01*
X107826009Y-35719449D01*
X107730339Y-35738479D01*
X107080337Y-35738479D01*
X106984667Y-35719449D01*
X106903561Y-35665256D01*
X106849368Y-35584150D01*
X106830338Y-35488480D01*
X106830338Y-34588478D01*
X106849368Y-34492808D01*
X106903561Y-34411702D01*
X106984667Y-34357509D01*
X107080337Y-34338479D01*
X107730339Y-34338479D01*
X107826009Y-34357509D01*
X107826009Y-34357509D01*
G37*
D11*
X107405338Y-35038479D03*
D10*
G36*
X62906729Y-73078789D02*
G01*
X62987835Y-73132982D01*
X63042028Y-73214088D01*
X63061058Y-73309758D01*
X63061058Y-73959760D01*
X63042028Y-74055430D01*
X62987835Y-74136536D01*
X62906729Y-74190729D01*
X62811059Y-74209759D01*
X61911057Y-74209759D01*
X61815387Y-74190729D01*
X61734281Y-74136536D01*
X61680088Y-74055430D01*
X61661058Y-73959760D01*
X61661058Y-73309758D01*
X61680088Y-73214088D01*
X61734281Y-73132982D01*
X61815387Y-73078789D01*
X61911057Y-73059759D01*
X62811059Y-73059759D01*
X62906729Y-73078789D01*
X62906729Y-73078789D01*
G37*
D11*
X62361058Y-73634759D03*
D10*
G36*
X62906729Y-71028789D02*
G01*
X62987835Y-71082982D01*
X63042028Y-71164088D01*
X63061058Y-71259758D01*
X63061058Y-71909760D01*
X63042028Y-72005430D01*
X62987835Y-72086536D01*
X62906729Y-72140729D01*
X62811059Y-72159759D01*
X61911057Y-72159759D01*
X61815387Y-72140729D01*
X61734281Y-72086536D01*
X61680088Y-72005430D01*
X61661058Y-71909760D01*
X61661058Y-71259758D01*
X61680088Y-71164088D01*
X61734281Y-71082982D01*
X61815387Y-71028789D01*
X61911057Y-71009759D01*
X62811059Y-71009759D01*
X62906729Y-71028789D01*
X62906729Y-71028789D01*
G37*
D11*
X62361058Y-71584759D03*
D10*
G36*
X62926729Y-68993789D02*
G01*
X63007835Y-69047982D01*
X63062028Y-69129088D01*
X63081058Y-69224758D01*
X63081058Y-69874760D01*
X63062028Y-69970430D01*
X63007835Y-70051536D01*
X62926729Y-70105729D01*
X62831059Y-70124759D01*
X61931057Y-70124759D01*
X61835387Y-70105729D01*
X61754281Y-70051536D01*
X61700088Y-69970430D01*
X61681058Y-69874760D01*
X61681058Y-69224758D01*
X61700088Y-69129088D01*
X61754281Y-69047982D01*
X61835387Y-68993789D01*
X61931057Y-68974759D01*
X62831059Y-68974759D01*
X62926729Y-68993789D01*
X62926729Y-68993789D01*
G37*
D11*
X62381058Y-69549759D03*
D10*
G36*
X62926729Y-66943789D02*
G01*
X63007835Y-66997982D01*
X63062028Y-67079088D01*
X63081058Y-67174758D01*
X63081058Y-67824760D01*
X63062028Y-67920430D01*
X63007835Y-68001536D01*
X62926729Y-68055729D01*
X62831059Y-68074759D01*
X61931057Y-68074759D01*
X61835387Y-68055729D01*
X61754281Y-68001536D01*
X61700088Y-67920430D01*
X61681058Y-67824760D01*
X61681058Y-67174758D01*
X61700088Y-67079088D01*
X61754281Y-66997982D01*
X61835387Y-66943789D01*
X61931057Y-66924759D01*
X62831059Y-66924759D01*
X62926729Y-66943789D01*
X62926729Y-66943789D01*
G37*
D11*
X62381058Y-67499759D03*
D10*
G36*
X109901009Y-31357509D02*
G01*
X109982115Y-31411702D01*
X110036308Y-31492808D01*
X110055338Y-31588478D01*
X110055338Y-32488480D01*
X110036308Y-32584150D01*
X109982115Y-32665256D01*
X109901009Y-32719449D01*
X109805339Y-32738479D01*
X109155337Y-32738479D01*
X109059667Y-32719449D01*
X108978561Y-32665256D01*
X108924368Y-32584150D01*
X108905338Y-32488480D01*
X108905338Y-31588478D01*
X108924368Y-31492808D01*
X108978561Y-31411702D01*
X109059667Y-31357509D01*
X109155337Y-31338479D01*
X109805339Y-31338479D01*
X109901009Y-31357509D01*
X109901009Y-31357509D01*
G37*
D11*
X109480338Y-32038479D03*
D10*
G36*
X107851009Y-31357509D02*
G01*
X107932115Y-31411702D01*
X107986308Y-31492808D01*
X108005338Y-31588478D01*
X108005338Y-32488480D01*
X107986308Y-32584150D01*
X107932115Y-32665256D01*
X107851009Y-32719449D01*
X107755339Y-32738479D01*
X107105337Y-32738479D01*
X107009667Y-32719449D01*
X106928561Y-32665256D01*
X106874368Y-32584150D01*
X106855338Y-32488480D01*
X106855338Y-31588478D01*
X106874368Y-31492808D01*
X106928561Y-31411702D01*
X107009667Y-31357509D01*
X107105337Y-31338479D01*
X107755339Y-31338479D01*
X107851009Y-31357509D01*
X107851009Y-31357509D01*
G37*
D11*
X107430338Y-32038479D03*
D10*
G36*
X109876009Y-28557509D02*
G01*
X109957115Y-28611702D01*
X110011308Y-28692808D01*
X110030338Y-28788478D01*
X110030338Y-29688480D01*
X110011308Y-29784150D01*
X109957115Y-29865256D01*
X109876009Y-29919449D01*
X109780339Y-29938479D01*
X109130337Y-29938479D01*
X109034667Y-29919449D01*
X108953561Y-29865256D01*
X108899368Y-29784150D01*
X108880338Y-29688480D01*
X108880338Y-28788478D01*
X108899368Y-28692808D01*
X108953561Y-28611702D01*
X109034667Y-28557509D01*
X109130337Y-28538479D01*
X109780339Y-28538479D01*
X109876009Y-28557509D01*
X109876009Y-28557509D01*
G37*
D11*
X109455338Y-29238479D03*
D10*
G36*
X107826009Y-28557509D02*
G01*
X107907115Y-28611702D01*
X107961308Y-28692808D01*
X107980338Y-28788478D01*
X107980338Y-29688480D01*
X107961308Y-29784150D01*
X107907115Y-29865256D01*
X107826009Y-29919449D01*
X107730339Y-29938479D01*
X107080337Y-29938479D01*
X106984667Y-29919449D01*
X106903561Y-29865256D01*
X106849368Y-29784150D01*
X106830338Y-29688480D01*
X106830338Y-28788478D01*
X106849368Y-28692808D01*
X106903561Y-28611702D01*
X106984667Y-28557509D01*
X107080337Y-28538479D01*
X107730339Y-28538479D01*
X107826009Y-28557509D01*
X107826009Y-28557509D01*
G37*
D11*
X107405338Y-29238479D03*
D10*
G36*
X63716729Y-79533789D02*
G01*
X63797835Y-79587982D01*
X63852028Y-79669088D01*
X63871058Y-79764758D01*
X63871058Y-80664760D01*
X63852028Y-80760430D01*
X63797835Y-80841536D01*
X63716729Y-80895729D01*
X63621059Y-80914759D01*
X62971057Y-80914759D01*
X62875387Y-80895729D01*
X62794281Y-80841536D01*
X62740088Y-80760430D01*
X62721058Y-80664760D01*
X62721058Y-79764758D01*
X62740088Y-79669088D01*
X62794281Y-79587982D01*
X62875387Y-79533789D01*
X62971057Y-79514759D01*
X63621059Y-79514759D01*
X63716729Y-79533789D01*
X63716729Y-79533789D01*
G37*
D11*
X63296058Y-80214759D03*
D10*
G36*
X65766729Y-79533789D02*
G01*
X65847835Y-79587982D01*
X65902028Y-79669088D01*
X65921058Y-79764758D01*
X65921058Y-80664760D01*
X65902028Y-80760430D01*
X65847835Y-80841536D01*
X65766729Y-80895729D01*
X65671059Y-80914759D01*
X65021057Y-80914759D01*
X64925387Y-80895729D01*
X64844281Y-80841536D01*
X64790088Y-80760430D01*
X64771058Y-80664760D01*
X64771058Y-79764758D01*
X64790088Y-79669088D01*
X64844281Y-79587982D01*
X64925387Y-79533789D01*
X65021057Y-79514759D01*
X65671059Y-79514759D01*
X65766729Y-79533789D01*
X65766729Y-79533789D01*
G37*
D11*
X65346058Y-80214759D03*
D10*
G36*
X94641529Y-69714189D02*
G01*
X94722635Y-69768382D01*
X94776828Y-69849488D01*
X94795858Y-69945158D01*
X94795858Y-70595160D01*
X94776828Y-70690830D01*
X94722635Y-70771936D01*
X94641529Y-70826129D01*
X94545859Y-70845159D01*
X93645857Y-70845159D01*
X93550187Y-70826129D01*
X93469081Y-70771936D01*
X93414888Y-70690830D01*
X93395858Y-70595160D01*
X93395858Y-69945158D01*
X93414888Y-69849488D01*
X93469081Y-69768382D01*
X93550187Y-69714189D01*
X93645857Y-69695159D01*
X94545859Y-69695159D01*
X94641529Y-69714189D01*
X94641529Y-69714189D01*
G37*
D11*
X94095858Y-70270159D03*
D10*
G36*
X94641529Y-67664189D02*
G01*
X94722635Y-67718382D01*
X94776828Y-67799488D01*
X94795858Y-67895158D01*
X94795858Y-68545160D01*
X94776828Y-68640830D01*
X94722635Y-68721936D01*
X94641529Y-68776129D01*
X94545859Y-68795159D01*
X93645857Y-68795159D01*
X93550187Y-68776129D01*
X93469081Y-68721936D01*
X93414888Y-68640830D01*
X93395858Y-68545160D01*
X93395858Y-67895158D01*
X93414888Y-67799488D01*
X93469081Y-67718382D01*
X93550187Y-67664189D01*
X93645857Y-67645159D01*
X94545859Y-67645159D01*
X94641529Y-67664189D01*
X94641529Y-67664189D01*
G37*
D11*
X94095858Y-68220159D03*
D10*
G36*
X102841529Y-69689189D02*
G01*
X102922635Y-69743382D01*
X102976828Y-69824488D01*
X102995858Y-69920158D01*
X102995858Y-70570160D01*
X102976828Y-70665830D01*
X102922635Y-70746936D01*
X102841529Y-70801129D01*
X102745859Y-70820159D01*
X101845857Y-70820159D01*
X101750187Y-70801129D01*
X101669081Y-70746936D01*
X101614888Y-70665830D01*
X101595858Y-70570160D01*
X101595858Y-69920158D01*
X101614888Y-69824488D01*
X101669081Y-69743382D01*
X101750187Y-69689189D01*
X101845857Y-69670159D01*
X102745859Y-69670159D01*
X102841529Y-69689189D01*
X102841529Y-69689189D01*
G37*
D11*
X102295858Y-70245159D03*
D10*
G36*
X102841529Y-67639189D02*
G01*
X102922635Y-67693382D01*
X102976828Y-67774488D01*
X102995858Y-67870158D01*
X102995858Y-68520160D01*
X102976828Y-68615830D01*
X102922635Y-68696936D01*
X102841529Y-68751129D01*
X102745859Y-68770159D01*
X101845857Y-68770159D01*
X101750187Y-68751129D01*
X101669081Y-68696936D01*
X101614888Y-68615830D01*
X101595858Y-68520160D01*
X101595858Y-67870158D01*
X101614888Y-67774488D01*
X101669081Y-67693382D01*
X101750187Y-67639189D01*
X101845857Y-67620159D01*
X102745859Y-67620159D01*
X102841529Y-67639189D01*
X102841529Y-67639189D01*
G37*
D11*
X102295858Y-68195159D03*
D10*
G36*
X28913609Y-46026269D02*
G01*
X28994715Y-46080462D01*
X29048908Y-46161568D01*
X29067938Y-46257238D01*
X29067938Y-47157240D01*
X29048908Y-47252910D01*
X28994715Y-47334016D01*
X28913609Y-47388209D01*
X28817939Y-47407239D01*
X28167937Y-47407239D01*
X28072267Y-47388209D01*
X27991161Y-47334016D01*
X27936968Y-47252910D01*
X27917938Y-47157240D01*
X27917938Y-46257238D01*
X27936968Y-46161568D01*
X27991161Y-46080462D01*
X28072267Y-46026269D01*
X28167937Y-46007239D01*
X28817939Y-46007239D01*
X28913609Y-46026269D01*
X28913609Y-46026269D01*
G37*
D11*
X28492938Y-46707239D03*
D10*
G36*
X30963609Y-46026269D02*
G01*
X31044715Y-46080462D01*
X31098908Y-46161568D01*
X31117938Y-46257238D01*
X31117938Y-47157240D01*
X31098908Y-47252910D01*
X31044715Y-47334016D01*
X30963609Y-47388209D01*
X30867939Y-47407239D01*
X30217937Y-47407239D01*
X30122267Y-47388209D01*
X30041161Y-47334016D01*
X29986968Y-47252910D01*
X29967938Y-47157240D01*
X29967938Y-46257238D01*
X29986968Y-46161568D01*
X30041161Y-46080462D01*
X30122267Y-46026269D01*
X30217937Y-46007239D01*
X30867939Y-46007239D01*
X30963609Y-46026269D01*
X30963609Y-46026269D01*
G37*
D11*
X30542938Y-46707239D03*
D10*
G36*
X94541429Y-63009689D02*
G01*
X94622535Y-63063882D01*
X94676728Y-63144988D01*
X94695758Y-63240658D01*
X94695758Y-63890660D01*
X94676728Y-63986330D01*
X94622535Y-64067436D01*
X94541429Y-64121629D01*
X94445759Y-64140659D01*
X93545757Y-64140659D01*
X93450087Y-64121629D01*
X93368981Y-64067436D01*
X93314788Y-63986330D01*
X93295758Y-63890660D01*
X93295758Y-63240658D01*
X93314788Y-63144988D01*
X93368981Y-63063882D01*
X93450087Y-63009689D01*
X93545757Y-62990659D01*
X94445759Y-62990659D01*
X94541429Y-63009689D01*
X94541429Y-63009689D01*
G37*
D11*
X93995758Y-63565659D03*
D10*
G36*
X94541429Y-60959689D02*
G01*
X94622535Y-61013882D01*
X94676728Y-61094988D01*
X94695758Y-61190658D01*
X94695758Y-61840660D01*
X94676728Y-61936330D01*
X94622535Y-62017436D01*
X94541429Y-62071629D01*
X94445759Y-62090659D01*
X93545757Y-62090659D01*
X93450087Y-62071629D01*
X93368981Y-62017436D01*
X93314788Y-61936330D01*
X93295758Y-61840660D01*
X93295758Y-61190658D01*
X93314788Y-61094988D01*
X93368981Y-61013882D01*
X93450087Y-60959689D01*
X93545757Y-60940659D01*
X94445759Y-60940659D01*
X94541429Y-60959689D01*
X94541429Y-60959689D01*
G37*
D11*
X93995758Y-61515659D03*
D10*
G36*
X102284809Y-63514709D02*
G01*
X102365915Y-63568902D01*
X102420108Y-63650008D01*
X102439138Y-63745678D01*
X102439138Y-64395680D01*
X102420108Y-64491350D01*
X102365915Y-64572456D01*
X102284809Y-64626649D01*
X102189139Y-64645679D01*
X101289137Y-64645679D01*
X101193467Y-64626649D01*
X101112361Y-64572456D01*
X101058168Y-64491350D01*
X101039138Y-64395680D01*
X101039138Y-63745678D01*
X101058168Y-63650008D01*
X101112361Y-63568902D01*
X101193467Y-63514709D01*
X101289137Y-63495679D01*
X102189139Y-63495679D01*
X102284809Y-63514709D01*
X102284809Y-63514709D01*
G37*
D11*
X101739138Y-64070679D03*
D10*
G36*
X102284809Y-61464709D02*
G01*
X102365915Y-61518902D01*
X102420108Y-61600008D01*
X102439138Y-61695678D01*
X102439138Y-62345680D01*
X102420108Y-62441350D01*
X102365915Y-62522456D01*
X102284809Y-62576649D01*
X102189139Y-62595679D01*
X101289137Y-62595679D01*
X101193467Y-62576649D01*
X101112361Y-62522456D01*
X101058168Y-62441350D01*
X101039138Y-62345680D01*
X101039138Y-61695678D01*
X101058168Y-61600008D01*
X101112361Y-61518902D01*
X101193467Y-61464709D01*
X101289137Y-61445679D01*
X102189139Y-61445679D01*
X102284809Y-61464709D01*
X102284809Y-61464709D01*
G37*
D11*
X101739138Y-62020679D03*
D10*
G36*
X31196329Y-25198489D02*
G01*
X31277435Y-25252682D01*
X31331628Y-25333788D01*
X31350658Y-25429458D01*
X31350658Y-26329460D01*
X31331628Y-26425130D01*
X31277435Y-26506236D01*
X31196329Y-26560429D01*
X31100659Y-26579459D01*
X30450657Y-26579459D01*
X30354987Y-26560429D01*
X30273881Y-26506236D01*
X30219688Y-26425130D01*
X30200658Y-26329460D01*
X30200658Y-25429458D01*
X30219688Y-25333788D01*
X30273881Y-25252682D01*
X30354987Y-25198489D01*
X30450657Y-25179459D01*
X31100659Y-25179459D01*
X31196329Y-25198489D01*
X31196329Y-25198489D01*
G37*
D11*
X30775658Y-25879459D03*
D10*
G36*
X33246329Y-25198489D02*
G01*
X33327435Y-25252682D01*
X33381628Y-25333788D01*
X33400658Y-25429458D01*
X33400658Y-26329460D01*
X33381628Y-26425130D01*
X33327435Y-26506236D01*
X33246329Y-26560429D01*
X33150659Y-26579459D01*
X32500657Y-26579459D01*
X32404987Y-26560429D01*
X32323881Y-26506236D01*
X32269688Y-26425130D01*
X32250658Y-26329460D01*
X32250658Y-25429458D01*
X32269688Y-25333788D01*
X32323881Y-25252682D01*
X32404987Y-25198489D01*
X32500657Y-25179459D01*
X33150659Y-25179459D01*
X33246329Y-25198489D01*
X33246329Y-25198489D01*
G37*
D11*
X32825658Y-25879459D03*
D10*
G36*
X33471329Y-29998489D02*
G01*
X33552435Y-30052682D01*
X33606628Y-30133788D01*
X33625658Y-30229458D01*
X33625658Y-31129460D01*
X33606628Y-31225130D01*
X33552435Y-31306236D01*
X33471329Y-31360429D01*
X33375659Y-31379459D01*
X32725657Y-31379459D01*
X32629987Y-31360429D01*
X32548881Y-31306236D01*
X32494688Y-31225130D01*
X32475658Y-31129460D01*
X32475658Y-30229458D01*
X32494688Y-30133788D01*
X32548881Y-30052682D01*
X32629987Y-29998489D01*
X32725657Y-29979459D01*
X33375659Y-29979459D01*
X33471329Y-29998489D01*
X33471329Y-29998489D01*
G37*
D11*
X33050658Y-30679459D03*
D10*
G36*
X31421329Y-29998489D02*
G01*
X31502435Y-30052682D01*
X31556628Y-30133788D01*
X31575658Y-30229458D01*
X31575658Y-31129460D01*
X31556628Y-31225130D01*
X31502435Y-31306236D01*
X31421329Y-31360429D01*
X31325659Y-31379459D01*
X30675657Y-31379459D01*
X30579987Y-31360429D01*
X30498881Y-31306236D01*
X30444688Y-31225130D01*
X30425658Y-31129460D01*
X30425658Y-30229458D01*
X30444688Y-30133788D01*
X30498881Y-30052682D01*
X30579987Y-29998489D01*
X30675657Y-29979459D01*
X31325659Y-29979459D01*
X31421329Y-29998489D01*
X31421329Y-29998489D01*
G37*
D11*
X31000658Y-30679459D03*
D10*
G36*
X33446329Y-37598489D02*
G01*
X33527435Y-37652682D01*
X33581628Y-37733788D01*
X33600658Y-37829458D01*
X33600658Y-38729460D01*
X33581628Y-38825130D01*
X33527435Y-38906236D01*
X33446329Y-38960429D01*
X33350659Y-38979459D01*
X32700657Y-38979459D01*
X32604987Y-38960429D01*
X32523881Y-38906236D01*
X32469688Y-38825130D01*
X32450658Y-38729460D01*
X32450658Y-37829458D01*
X32469688Y-37733788D01*
X32523881Y-37652682D01*
X32604987Y-37598489D01*
X32700657Y-37579459D01*
X33350659Y-37579459D01*
X33446329Y-37598489D01*
X33446329Y-37598489D01*
G37*
D11*
X33025658Y-38279459D03*
D10*
G36*
X31396329Y-37598489D02*
G01*
X31477435Y-37652682D01*
X31531628Y-37733788D01*
X31550658Y-37829458D01*
X31550658Y-38729460D01*
X31531628Y-38825130D01*
X31477435Y-38906236D01*
X31396329Y-38960429D01*
X31300659Y-38979459D01*
X30650657Y-38979459D01*
X30554987Y-38960429D01*
X30473881Y-38906236D01*
X30419688Y-38825130D01*
X30400658Y-38729460D01*
X30400658Y-37829458D01*
X30419688Y-37733788D01*
X30473881Y-37652682D01*
X30554987Y-37598489D01*
X30650657Y-37579459D01*
X31300659Y-37579459D01*
X31396329Y-37598489D01*
X31396329Y-37598489D01*
G37*
D11*
X30975658Y-38279459D03*
D10*
G36*
X58025711Y-35914070D02*
G01*
X58106817Y-35968263D01*
X58161010Y-36049369D01*
X58180040Y-36145039D01*
X58180040Y-37045041D01*
X58161010Y-37140711D01*
X58106817Y-37221817D01*
X58025711Y-37276010D01*
X57930041Y-37295040D01*
X57280039Y-37295040D01*
X57184369Y-37276010D01*
X57103263Y-37221817D01*
X57049070Y-37140711D01*
X57030040Y-37045041D01*
X57030040Y-36145039D01*
X57049070Y-36049369D01*
X57103263Y-35968263D01*
X57184369Y-35914070D01*
X57280039Y-35895040D01*
X57930041Y-35895040D01*
X58025711Y-35914070D01*
X58025711Y-35914070D01*
G37*
D11*
X57605040Y-36595040D03*
D10*
G36*
X60075711Y-35914070D02*
G01*
X60156817Y-35968263D01*
X60211010Y-36049369D01*
X60230040Y-36145039D01*
X60230040Y-37045041D01*
X60211010Y-37140711D01*
X60156817Y-37221817D01*
X60075711Y-37276010D01*
X59980041Y-37295040D01*
X59330039Y-37295040D01*
X59234369Y-37276010D01*
X59153263Y-37221817D01*
X59099070Y-37140711D01*
X59080040Y-37045041D01*
X59080040Y-36145039D01*
X59099070Y-36049369D01*
X59153263Y-35968263D01*
X59234369Y-35914070D01*
X59330039Y-35895040D01*
X59980041Y-35895040D01*
X60075711Y-35914070D01*
X60075711Y-35914070D01*
G37*
D11*
X59655040Y-36595040D03*
D10*
G36*
X30395409Y-79772269D02*
G01*
X30476515Y-79826462D01*
X30530708Y-79907568D01*
X30549738Y-80003238D01*
X30549738Y-80903240D01*
X30530708Y-80998910D01*
X30476515Y-81080016D01*
X30395409Y-81134209D01*
X30299739Y-81153239D01*
X29649737Y-81153239D01*
X29554067Y-81134209D01*
X29472961Y-81080016D01*
X29418768Y-80998910D01*
X29399738Y-80903240D01*
X29399738Y-80003238D01*
X29418768Y-79907568D01*
X29472961Y-79826462D01*
X29554067Y-79772269D01*
X29649737Y-79753239D01*
X30299739Y-79753239D01*
X30395409Y-79772269D01*
X30395409Y-79772269D01*
G37*
D11*
X29974738Y-80453239D03*
D10*
G36*
X32445409Y-79772269D02*
G01*
X32526515Y-79826462D01*
X32580708Y-79907568D01*
X32599738Y-80003238D01*
X32599738Y-80903240D01*
X32580708Y-80998910D01*
X32526515Y-81080016D01*
X32445409Y-81134209D01*
X32349739Y-81153239D01*
X31699737Y-81153239D01*
X31604067Y-81134209D01*
X31522961Y-81080016D01*
X31468768Y-80998910D01*
X31449738Y-80903240D01*
X31449738Y-80003238D01*
X31468768Y-79907568D01*
X31522961Y-79826462D01*
X31604067Y-79772269D01*
X31699737Y-79753239D01*
X32349739Y-79753239D01*
X32445409Y-79772269D01*
X32445409Y-79772269D01*
G37*
D11*
X32024738Y-80453239D03*
D10*
G36*
X48940711Y-42989070D02*
G01*
X49021817Y-43043263D01*
X49076010Y-43124369D01*
X49095040Y-43220039D01*
X49095040Y-43870041D01*
X49076010Y-43965711D01*
X49021817Y-44046817D01*
X48940711Y-44101010D01*
X48845041Y-44120040D01*
X47945039Y-44120040D01*
X47849369Y-44101010D01*
X47768263Y-44046817D01*
X47714070Y-43965711D01*
X47695040Y-43870041D01*
X47695040Y-43220039D01*
X47714070Y-43124369D01*
X47768263Y-43043263D01*
X47849369Y-42989070D01*
X47945039Y-42970040D01*
X48845041Y-42970040D01*
X48940711Y-42989070D01*
X48940711Y-42989070D01*
G37*
D11*
X48395040Y-43545040D03*
D10*
G36*
X48940711Y-45039070D02*
G01*
X49021817Y-45093263D01*
X49076010Y-45174369D01*
X49095040Y-45270039D01*
X49095040Y-45920041D01*
X49076010Y-46015711D01*
X49021817Y-46096817D01*
X48940711Y-46151010D01*
X48845041Y-46170040D01*
X47945039Y-46170040D01*
X47849369Y-46151010D01*
X47768263Y-46096817D01*
X47714070Y-46015711D01*
X47695040Y-45920041D01*
X47695040Y-45270039D01*
X47714070Y-45174369D01*
X47768263Y-45093263D01*
X47849369Y-45039070D01*
X47945039Y-45020040D01*
X48845041Y-45020040D01*
X48940711Y-45039070D01*
X48940711Y-45039070D01*
G37*
D11*
X48395040Y-45595040D03*
D10*
G36*
X41688325Y-43461398D02*
G01*
X41765376Y-43512881D01*
X41816859Y-43589932D01*
X41834938Y-43680819D01*
X41834938Y-44155819D01*
X41816859Y-44246706D01*
X41765376Y-44323757D01*
X41688325Y-44375240D01*
X41597438Y-44393319D01*
X41022438Y-44393319D01*
X40931551Y-44375240D01*
X40854500Y-44323757D01*
X40803017Y-44246706D01*
X40784938Y-44155819D01*
X40784938Y-43680819D01*
X40803017Y-43589932D01*
X40854500Y-43512881D01*
X40931551Y-43461398D01*
X41022438Y-43443319D01*
X41597438Y-43443319D01*
X41688325Y-43461398D01*
X41688325Y-43461398D01*
G37*
D28*
X41309938Y-43918319D03*
D10*
G36*
X39938325Y-43461398D02*
G01*
X40015376Y-43512881D01*
X40066859Y-43589932D01*
X40084938Y-43680819D01*
X40084938Y-44155819D01*
X40066859Y-44246706D01*
X40015376Y-44323757D01*
X39938325Y-44375240D01*
X39847438Y-44393319D01*
X39272438Y-44393319D01*
X39181551Y-44375240D01*
X39104500Y-44323757D01*
X39053017Y-44246706D01*
X39034938Y-44155819D01*
X39034938Y-43680819D01*
X39053017Y-43589932D01*
X39104500Y-43512881D01*
X39181551Y-43461398D01*
X39272438Y-43443319D01*
X39847438Y-43443319D01*
X39938325Y-43461398D01*
X39938325Y-43461398D01*
G37*
D28*
X39559938Y-43918319D03*
D10*
G36*
X35279045Y-26047538D02*
G01*
X35356096Y-26099021D01*
X35407579Y-26176072D01*
X35425658Y-26266959D01*
X35425658Y-26841959D01*
X35407579Y-26932846D01*
X35356096Y-27009897D01*
X35279045Y-27061380D01*
X35188158Y-27079459D01*
X34713158Y-27079459D01*
X34622271Y-27061380D01*
X34545220Y-27009897D01*
X34493737Y-26932846D01*
X34475658Y-26841959D01*
X34475658Y-26266959D01*
X34493737Y-26176072D01*
X34545220Y-26099021D01*
X34622271Y-26047538D01*
X34713158Y-26029459D01*
X35188158Y-26029459D01*
X35279045Y-26047538D01*
X35279045Y-26047538D01*
G37*
D28*
X34950658Y-26554459D03*
D10*
G36*
X35279045Y-24297538D02*
G01*
X35356096Y-24349021D01*
X35407579Y-24426072D01*
X35425658Y-24516959D01*
X35425658Y-25091959D01*
X35407579Y-25182846D01*
X35356096Y-25259897D01*
X35279045Y-25311380D01*
X35188158Y-25329459D01*
X34713158Y-25329459D01*
X34622271Y-25311380D01*
X34545220Y-25259897D01*
X34493737Y-25182846D01*
X34475658Y-25091959D01*
X34475658Y-24516959D01*
X34493737Y-24426072D01*
X34545220Y-24349021D01*
X34622271Y-24297538D01*
X34713158Y-24279459D01*
X35188158Y-24279459D01*
X35279045Y-24297538D01*
X35279045Y-24297538D01*
G37*
D28*
X34950658Y-24804459D03*
D29*
X26266859Y-56911331D03*
X26266859Y-56261331D03*
X26266859Y-55611331D03*
X26266859Y-54961331D03*
X26266859Y-54311331D03*
D10*
G36*
X41726129Y-77395589D02*
G01*
X41807235Y-77449782D01*
X41861428Y-77530888D01*
X41880458Y-77626558D01*
X41880458Y-78276560D01*
X41861428Y-78372230D01*
X41807235Y-78453336D01*
X41726129Y-78507529D01*
X41630459Y-78526559D01*
X40730457Y-78526559D01*
X40634787Y-78507529D01*
X40553681Y-78453336D01*
X40499488Y-78372230D01*
X40480458Y-78276560D01*
X40480458Y-77626558D01*
X40499488Y-77530888D01*
X40553681Y-77449782D01*
X40634787Y-77395589D01*
X40730457Y-77376559D01*
X41630459Y-77376559D01*
X41726129Y-77395589D01*
X41726129Y-77395589D01*
G37*
D11*
X41180458Y-77951559D03*
D10*
G36*
X41726129Y-79445589D02*
G01*
X41807235Y-79499782D01*
X41861428Y-79580888D01*
X41880458Y-79676558D01*
X41880458Y-80326560D01*
X41861428Y-80422230D01*
X41807235Y-80503336D01*
X41726129Y-80557529D01*
X41630459Y-80576559D01*
X40730457Y-80576559D01*
X40634787Y-80557529D01*
X40553681Y-80503336D01*
X40499488Y-80422230D01*
X40480458Y-80326560D01*
X40480458Y-79676558D01*
X40499488Y-79580888D01*
X40553681Y-79499782D01*
X40634787Y-79445589D01*
X40730457Y-79426559D01*
X41630459Y-79426559D01*
X41726129Y-79445589D01*
X41726129Y-79445589D01*
G37*
D11*
X41180458Y-80001559D03*
D10*
G36*
X66643529Y-59158389D02*
G01*
X66724635Y-59212582D01*
X66778828Y-59293688D01*
X66797858Y-59389358D01*
X66797858Y-60039360D01*
X66778828Y-60135030D01*
X66724635Y-60216136D01*
X66643529Y-60270329D01*
X66547859Y-60289359D01*
X65647857Y-60289359D01*
X65552187Y-60270329D01*
X65471081Y-60216136D01*
X65416888Y-60135030D01*
X65397858Y-60039360D01*
X65397858Y-59389358D01*
X65416888Y-59293688D01*
X65471081Y-59212582D01*
X65552187Y-59158389D01*
X65647857Y-59139359D01*
X66547859Y-59139359D01*
X66643529Y-59158389D01*
X66643529Y-59158389D01*
G37*
D11*
X66097858Y-59714359D03*
D10*
G36*
X66643529Y-61208389D02*
G01*
X66724635Y-61262582D01*
X66778828Y-61343688D01*
X66797858Y-61439358D01*
X66797858Y-62089360D01*
X66778828Y-62185030D01*
X66724635Y-62266136D01*
X66643529Y-62320329D01*
X66547859Y-62339359D01*
X65647857Y-62339359D01*
X65552187Y-62320329D01*
X65471081Y-62266136D01*
X65416888Y-62185030D01*
X65397858Y-62089360D01*
X65397858Y-61439358D01*
X65416888Y-61343688D01*
X65471081Y-61262582D01*
X65552187Y-61208389D01*
X65647857Y-61189359D01*
X66547859Y-61189359D01*
X66643529Y-61208389D01*
X66643529Y-61208389D01*
G37*
D11*
X66097858Y-61764359D03*
D10*
G36*
X38734009Y-67947229D02*
G01*
X38815115Y-68001422D01*
X38869308Y-68082528D01*
X38888338Y-68178198D01*
X38888338Y-68828200D01*
X38869308Y-68923870D01*
X38815115Y-69004976D01*
X38734009Y-69059169D01*
X38638339Y-69078199D01*
X37738337Y-69078199D01*
X37642667Y-69059169D01*
X37561561Y-69004976D01*
X37507368Y-68923870D01*
X37488338Y-68828200D01*
X37488338Y-68178198D01*
X37507368Y-68082528D01*
X37561561Y-68001422D01*
X37642667Y-67947229D01*
X37738337Y-67928199D01*
X38638339Y-67928199D01*
X38734009Y-67947229D01*
X38734009Y-67947229D01*
G37*
D11*
X38188338Y-68503199D03*
D10*
G36*
X38734009Y-65897229D02*
G01*
X38815115Y-65951422D01*
X38869308Y-66032528D01*
X38888338Y-66128198D01*
X38888338Y-66778200D01*
X38869308Y-66873870D01*
X38815115Y-66954976D01*
X38734009Y-67009169D01*
X38638339Y-67028199D01*
X37738337Y-67028199D01*
X37642667Y-67009169D01*
X37561561Y-66954976D01*
X37507368Y-66873870D01*
X37488338Y-66778200D01*
X37488338Y-66128198D01*
X37507368Y-66032528D01*
X37561561Y-65951422D01*
X37642667Y-65897229D01*
X37738337Y-65878199D01*
X38638339Y-65878199D01*
X38734009Y-65897229D01*
X38734009Y-65897229D01*
G37*
D11*
X38188338Y-66453199D03*
D10*
G36*
X65211729Y-66128789D02*
G01*
X65292835Y-66182982D01*
X65347028Y-66264088D01*
X65366058Y-66359758D01*
X65366058Y-67009760D01*
X65347028Y-67105430D01*
X65292835Y-67186536D01*
X65211729Y-67240729D01*
X65116059Y-67259759D01*
X64216057Y-67259759D01*
X64120387Y-67240729D01*
X64039281Y-67186536D01*
X63985088Y-67105430D01*
X63966058Y-67009760D01*
X63966058Y-66359758D01*
X63985088Y-66264088D01*
X64039281Y-66182982D01*
X64120387Y-66128789D01*
X64216057Y-66109759D01*
X65116059Y-66109759D01*
X65211729Y-66128789D01*
X65211729Y-66128789D01*
G37*
D11*
X64666058Y-66684759D03*
D10*
G36*
X65211729Y-68178789D02*
G01*
X65292835Y-68232982D01*
X65347028Y-68314088D01*
X65366058Y-68409758D01*
X65366058Y-69059760D01*
X65347028Y-69155430D01*
X65292835Y-69236536D01*
X65211729Y-69290729D01*
X65116059Y-69309759D01*
X64216057Y-69309759D01*
X64120387Y-69290729D01*
X64039281Y-69236536D01*
X63985088Y-69155430D01*
X63966058Y-69059760D01*
X63966058Y-68409758D01*
X63985088Y-68314088D01*
X64039281Y-68232982D01*
X64120387Y-68178789D01*
X64216057Y-68159759D01*
X65116059Y-68159759D01*
X65211729Y-68178789D01*
X65211729Y-68178789D01*
G37*
D11*
X64666058Y-68734759D03*
D10*
G36*
X82400929Y-61052909D02*
G01*
X82482035Y-61107102D01*
X82536228Y-61188208D01*
X82555258Y-61283878D01*
X82555258Y-62183880D01*
X82536228Y-62279550D01*
X82482035Y-62360656D01*
X82400929Y-62414849D01*
X82305259Y-62433879D01*
X81655257Y-62433879D01*
X81559587Y-62414849D01*
X81478481Y-62360656D01*
X81424288Y-62279550D01*
X81405258Y-62183880D01*
X81405258Y-61283878D01*
X81424288Y-61188208D01*
X81478481Y-61107102D01*
X81559587Y-61052909D01*
X81655257Y-61033879D01*
X82305259Y-61033879D01*
X82400929Y-61052909D01*
X82400929Y-61052909D01*
G37*
D11*
X81980258Y-61733879D03*
D10*
G36*
X84450929Y-61052909D02*
G01*
X84532035Y-61107102D01*
X84586228Y-61188208D01*
X84605258Y-61283878D01*
X84605258Y-62183880D01*
X84586228Y-62279550D01*
X84532035Y-62360656D01*
X84450929Y-62414849D01*
X84355259Y-62433879D01*
X83705257Y-62433879D01*
X83609587Y-62414849D01*
X83528481Y-62360656D01*
X83474288Y-62279550D01*
X83455258Y-62183880D01*
X83455258Y-61283878D01*
X83474288Y-61188208D01*
X83528481Y-61107102D01*
X83609587Y-61052909D01*
X83705257Y-61033879D01*
X84355259Y-61033879D01*
X84450929Y-61052909D01*
X84450929Y-61052909D01*
G37*
D11*
X84030258Y-61733879D03*
D10*
G36*
X71474609Y-74802469D02*
G01*
X71555715Y-74856662D01*
X71609908Y-74937768D01*
X71628938Y-75033438D01*
X71628938Y-75683440D01*
X71609908Y-75779110D01*
X71555715Y-75860216D01*
X71474609Y-75914409D01*
X71378939Y-75933439D01*
X70478937Y-75933439D01*
X70383267Y-75914409D01*
X70302161Y-75860216D01*
X70247968Y-75779110D01*
X70228938Y-75683440D01*
X70228938Y-75033438D01*
X70247968Y-74937768D01*
X70302161Y-74856662D01*
X70383267Y-74802469D01*
X70478937Y-74783439D01*
X71378939Y-74783439D01*
X71474609Y-74802469D01*
X71474609Y-74802469D01*
G37*
D11*
X70928938Y-75358439D03*
D10*
G36*
X71474609Y-72752469D02*
G01*
X71555715Y-72806662D01*
X71609908Y-72887768D01*
X71628938Y-72983438D01*
X71628938Y-73633440D01*
X71609908Y-73729110D01*
X71555715Y-73810216D01*
X71474609Y-73864409D01*
X71378939Y-73883439D01*
X70478937Y-73883439D01*
X70383267Y-73864409D01*
X70302161Y-73810216D01*
X70247968Y-73729110D01*
X70228938Y-73633440D01*
X70228938Y-72983438D01*
X70247968Y-72887768D01*
X70302161Y-72806662D01*
X70383267Y-72752469D01*
X70478937Y-72733439D01*
X71378939Y-72733439D01*
X71474609Y-72752469D01*
X71474609Y-72752469D01*
G37*
D11*
X70928938Y-73308439D03*
D10*
G36*
X98441529Y-71664189D02*
G01*
X98522635Y-71718382D01*
X98576828Y-71799488D01*
X98595858Y-71895158D01*
X98595858Y-72545160D01*
X98576828Y-72640830D01*
X98522635Y-72721936D01*
X98441529Y-72776129D01*
X98345859Y-72795159D01*
X97445857Y-72795159D01*
X97350187Y-72776129D01*
X97269081Y-72721936D01*
X97214888Y-72640830D01*
X97195858Y-72545160D01*
X97195858Y-71895158D01*
X97214888Y-71799488D01*
X97269081Y-71718382D01*
X97350187Y-71664189D01*
X97445857Y-71645159D01*
X98345859Y-71645159D01*
X98441529Y-71664189D01*
X98441529Y-71664189D01*
G37*
D11*
X97895858Y-72220159D03*
D10*
G36*
X98441529Y-73714189D02*
G01*
X98522635Y-73768382D01*
X98576828Y-73849488D01*
X98595858Y-73945158D01*
X98595858Y-74595160D01*
X98576828Y-74690830D01*
X98522635Y-74771936D01*
X98441529Y-74826129D01*
X98345859Y-74845159D01*
X97445857Y-74845159D01*
X97350187Y-74826129D01*
X97269081Y-74771936D01*
X97214888Y-74690830D01*
X97195858Y-74595160D01*
X97195858Y-73945158D01*
X97214888Y-73849488D01*
X97269081Y-73768382D01*
X97350187Y-73714189D01*
X97445857Y-73695159D01*
X98345859Y-73695159D01*
X98441529Y-73714189D01*
X98441529Y-73714189D01*
G37*
D11*
X97895858Y-74270159D03*
D10*
G36*
X69651729Y-79523789D02*
G01*
X69732835Y-79577982D01*
X69787028Y-79659088D01*
X69806058Y-79754758D01*
X69806058Y-80654760D01*
X69787028Y-80750430D01*
X69732835Y-80831536D01*
X69651729Y-80885729D01*
X69556059Y-80904759D01*
X68906057Y-80904759D01*
X68810387Y-80885729D01*
X68729281Y-80831536D01*
X68675088Y-80750430D01*
X68656058Y-80654760D01*
X68656058Y-79754758D01*
X68675088Y-79659088D01*
X68729281Y-79577982D01*
X68810387Y-79523789D01*
X68906057Y-79504759D01*
X69556059Y-79504759D01*
X69651729Y-79523789D01*
X69651729Y-79523789D01*
G37*
D11*
X69231058Y-80204759D03*
D10*
G36*
X67601729Y-79523789D02*
G01*
X67682835Y-79577982D01*
X67737028Y-79659088D01*
X67756058Y-79754758D01*
X67756058Y-80654760D01*
X67737028Y-80750430D01*
X67682835Y-80831536D01*
X67601729Y-80885729D01*
X67506059Y-80904759D01*
X66856057Y-80904759D01*
X66760387Y-80885729D01*
X66679281Y-80831536D01*
X66625088Y-80750430D01*
X66606058Y-80654760D01*
X66606058Y-79754758D01*
X66625088Y-79659088D01*
X66679281Y-79577982D01*
X66760387Y-79523789D01*
X66856057Y-79504759D01*
X67506059Y-79504759D01*
X67601729Y-79523789D01*
X67601729Y-79523789D01*
G37*
D11*
X67181058Y-80204759D03*
D10*
G36*
X36576609Y-79873869D02*
G01*
X36657715Y-79928062D01*
X36711908Y-80009168D01*
X36730938Y-80104838D01*
X36730938Y-81004840D01*
X36711908Y-81100510D01*
X36657715Y-81181616D01*
X36576609Y-81235809D01*
X36480939Y-81254839D01*
X35830937Y-81254839D01*
X35735267Y-81235809D01*
X35654161Y-81181616D01*
X35599968Y-81100510D01*
X35580938Y-81004840D01*
X35580938Y-80104838D01*
X35599968Y-80009168D01*
X35654161Y-79928062D01*
X35735267Y-79873869D01*
X35830937Y-79854839D01*
X36480939Y-79854839D01*
X36576609Y-79873869D01*
X36576609Y-79873869D01*
G37*
D11*
X36155938Y-80554839D03*
D10*
G36*
X38626609Y-79873869D02*
G01*
X38707715Y-79928062D01*
X38761908Y-80009168D01*
X38780938Y-80104838D01*
X38780938Y-81004840D01*
X38761908Y-81100510D01*
X38707715Y-81181616D01*
X38626609Y-81235809D01*
X38530939Y-81254839D01*
X37880937Y-81254839D01*
X37785267Y-81235809D01*
X37704161Y-81181616D01*
X37649968Y-81100510D01*
X37630938Y-81004840D01*
X37630938Y-80104838D01*
X37649968Y-80009168D01*
X37704161Y-79928062D01*
X37785267Y-79873869D01*
X37880937Y-79854839D01*
X38530939Y-79854839D01*
X38626609Y-79873869D01*
X38626609Y-79873869D01*
G37*
D11*
X38205938Y-80554839D03*
D10*
G36*
X33271329Y-27398489D02*
G01*
X33352435Y-27452682D01*
X33406628Y-27533788D01*
X33425658Y-27629458D01*
X33425658Y-28529460D01*
X33406628Y-28625130D01*
X33352435Y-28706236D01*
X33271329Y-28760429D01*
X33175659Y-28779459D01*
X32525657Y-28779459D01*
X32429987Y-28760429D01*
X32348881Y-28706236D01*
X32294688Y-28625130D01*
X32275658Y-28529460D01*
X32275658Y-27629458D01*
X32294688Y-27533788D01*
X32348881Y-27452682D01*
X32429987Y-27398489D01*
X32525657Y-27379459D01*
X33175659Y-27379459D01*
X33271329Y-27398489D01*
X33271329Y-27398489D01*
G37*
D11*
X32850658Y-28079459D03*
D10*
G36*
X31221329Y-27398489D02*
G01*
X31302435Y-27452682D01*
X31356628Y-27533788D01*
X31375658Y-27629458D01*
X31375658Y-28529460D01*
X31356628Y-28625130D01*
X31302435Y-28706236D01*
X31221329Y-28760429D01*
X31125659Y-28779459D01*
X30475657Y-28779459D01*
X30379987Y-28760429D01*
X30298881Y-28706236D01*
X30244688Y-28625130D01*
X30225658Y-28529460D01*
X30225658Y-27629458D01*
X30244688Y-27533788D01*
X30298881Y-27452682D01*
X30379987Y-27398489D01*
X30475657Y-27379459D01*
X31125659Y-27379459D01*
X31221329Y-27398489D01*
X31221329Y-27398489D01*
G37*
D11*
X30800658Y-28079459D03*
D10*
G36*
X31396329Y-35398489D02*
G01*
X31477435Y-35452682D01*
X31531628Y-35533788D01*
X31550658Y-35629458D01*
X31550658Y-36529460D01*
X31531628Y-36625130D01*
X31477435Y-36706236D01*
X31396329Y-36760429D01*
X31300659Y-36779459D01*
X30650657Y-36779459D01*
X30554987Y-36760429D01*
X30473881Y-36706236D01*
X30419688Y-36625130D01*
X30400658Y-36529460D01*
X30400658Y-35629458D01*
X30419688Y-35533788D01*
X30473881Y-35452682D01*
X30554987Y-35398489D01*
X30650657Y-35379459D01*
X31300659Y-35379459D01*
X31396329Y-35398489D01*
X31396329Y-35398489D01*
G37*
D11*
X30975658Y-36079459D03*
D10*
G36*
X33446329Y-35398489D02*
G01*
X33527435Y-35452682D01*
X33581628Y-35533788D01*
X33600658Y-35629458D01*
X33600658Y-36529460D01*
X33581628Y-36625130D01*
X33527435Y-36706236D01*
X33446329Y-36760429D01*
X33350659Y-36779459D01*
X32700657Y-36779459D01*
X32604987Y-36760429D01*
X32523881Y-36706236D01*
X32469688Y-36625130D01*
X32450658Y-36529460D01*
X32450658Y-35629458D01*
X32469688Y-35533788D01*
X32523881Y-35452682D01*
X32604987Y-35398489D01*
X32700657Y-35379459D01*
X33350659Y-35379459D01*
X33446329Y-35398489D01*
X33446329Y-35398489D01*
G37*
D11*
X33025658Y-36079459D03*
D10*
G36*
X33446329Y-32198489D02*
G01*
X33527435Y-32252682D01*
X33581628Y-32333788D01*
X33600658Y-32429458D01*
X33600658Y-33329460D01*
X33581628Y-33425130D01*
X33527435Y-33506236D01*
X33446329Y-33560429D01*
X33350659Y-33579459D01*
X32700657Y-33579459D01*
X32604987Y-33560429D01*
X32523881Y-33506236D01*
X32469688Y-33425130D01*
X32450658Y-33329460D01*
X32450658Y-32429458D01*
X32469688Y-32333788D01*
X32523881Y-32252682D01*
X32604987Y-32198489D01*
X32700657Y-32179459D01*
X33350659Y-32179459D01*
X33446329Y-32198489D01*
X33446329Y-32198489D01*
G37*
D11*
X33025658Y-32879459D03*
D10*
G36*
X31396329Y-32198489D02*
G01*
X31477435Y-32252682D01*
X31531628Y-32333788D01*
X31550658Y-32429458D01*
X31550658Y-33329460D01*
X31531628Y-33425130D01*
X31477435Y-33506236D01*
X31396329Y-33560429D01*
X31300659Y-33579459D01*
X30650657Y-33579459D01*
X30554987Y-33560429D01*
X30473881Y-33506236D01*
X30419688Y-33425130D01*
X30400658Y-33329460D01*
X30400658Y-32429458D01*
X30419688Y-32333788D01*
X30473881Y-32252682D01*
X30554987Y-32198489D01*
X30650657Y-32179459D01*
X31300659Y-32179459D01*
X31396329Y-32198489D01*
X31396329Y-32198489D01*
G37*
D11*
X30975658Y-32879459D03*
D10*
G36*
X42971329Y-24298489D02*
G01*
X43052435Y-24352682D01*
X43106628Y-24433788D01*
X43125658Y-24529458D01*
X43125658Y-25179460D01*
X43106628Y-25275130D01*
X43052435Y-25356236D01*
X42971329Y-25410429D01*
X42875659Y-25429459D01*
X41975657Y-25429459D01*
X41879987Y-25410429D01*
X41798881Y-25356236D01*
X41744688Y-25275130D01*
X41725658Y-25179460D01*
X41725658Y-24529458D01*
X41744688Y-24433788D01*
X41798881Y-24352682D01*
X41879987Y-24298489D01*
X41975657Y-24279459D01*
X42875659Y-24279459D01*
X42971329Y-24298489D01*
X42971329Y-24298489D01*
G37*
D11*
X42425658Y-24854459D03*
D10*
G36*
X42971329Y-26348489D02*
G01*
X43052435Y-26402682D01*
X43106628Y-26483788D01*
X43125658Y-26579458D01*
X43125658Y-27229460D01*
X43106628Y-27325130D01*
X43052435Y-27406236D01*
X42971329Y-27460429D01*
X42875659Y-27479459D01*
X41975657Y-27479459D01*
X41879987Y-27460429D01*
X41798881Y-27406236D01*
X41744688Y-27325130D01*
X41725658Y-27229460D01*
X41725658Y-26579458D01*
X41744688Y-26483788D01*
X41798881Y-26402682D01*
X41879987Y-26348489D01*
X41975657Y-26329459D01*
X42875659Y-26329459D01*
X42971329Y-26348489D01*
X42971329Y-26348489D01*
G37*
D11*
X42425658Y-26904459D03*
D10*
G36*
X51771329Y-26123489D02*
G01*
X51852435Y-26177682D01*
X51906628Y-26258788D01*
X51925658Y-26354458D01*
X51925658Y-27004460D01*
X51906628Y-27100130D01*
X51852435Y-27181236D01*
X51771329Y-27235429D01*
X51675659Y-27254459D01*
X50775657Y-27254459D01*
X50679987Y-27235429D01*
X50598881Y-27181236D01*
X50544688Y-27100130D01*
X50525658Y-27004460D01*
X50525658Y-26354458D01*
X50544688Y-26258788D01*
X50598881Y-26177682D01*
X50679987Y-26123489D01*
X50775657Y-26104459D01*
X51675659Y-26104459D01*
X51771329Y-26123489D01*
X51771329Y-26123489D01*
G37*
D11*
X51225658Y-26679459D03*
D10*
G36*
X51771329Y-24073489D02*
G01*
X51852435Y-24127682D01*
X51906628Y-24208788D01*
X51925658Y-24304458D01*
X51925658Y-24954460D01*
X51906628Y-25050130D01*
X51852435Y-25131236D01*
X51771329Y-25185429D01*
X51675659Y-25204459D01*
X50775657Y-25204459D01*
X50679987Y-25185429D01*
X50598881Y-25131236D01*
X50544688Y-25050130D01*
X50525658Y-24954460D01*
X50525658Y-24304458D01*
X50544688Y-24208788D01*
X50598881Y-24127682D01*
X50679987Y-24073489D01*
X50775657Y-24054459D01*
X51675659Y-24054459D01*
X51771329Y-24073489D01*
X51771329Y-24073489D01*
G37*
D11*
X51225658Y-24629459D03*
D10*
G36*
X42746329Y-30098489D02*
G01*
X42827435Y-30152682D01*
X42881628Y-30233788D01*
X42900658Y-30329458D01*
X42900658Y-30979460D01*
X42881628Y-31075130D01*
X42827435Y-31156236D01*
X42746329Y-31210429D01*
X42650659Y-31229459D01*
X41750657Y-31229459D01*
X41654987Y-31210429D01*
X41573881Y-31156236D01*
X41519688Y-31075130D01*
X41500658Y-30979460D01*
X41500658Y-30329458D01*
X41519688Y-30233788D01*
X41573881Y-30152682D01*
X41654987Y-30098489D01*
X41750657Y-30079459D01*
X42650659Y-30079459D01*
X42746329Y-30098489D01*
X42746329Y-30098489D01*
G37*
D11*
X42200658Y-30654459D03*
D10*
G36*
X42746329Y-32148489D02*
G01*
X42827435Y-32202682D01*
X42881628Y-32283788D01*
X42900658Y-32379458D01*
X42900658Y-33029460D01*
X42881628Y-33125130D01*
X42827435Y-33206236D01*
X42746329Y-33260429D01*
X42650659Y-33279459D01*
X41750657Y-33279459D01*
X41654987Y-33260429D01*
X41573881Y-33206236D01*
X41519688Y-33125130D01*
X41500658Y-33029460D01*
X41500658Y-32379458D01*
X41519688Y-32283788D01*
X41573881Y-32202682D01*
X41654987Y-32148489D01*
X41750657Y-32129459D01*
X42650659Y-32129459D01*
X42746329Y-32148489D01*
X42746329Y-32148489D01*
G37*
D11*
X42200658Y-32704459D03*
D10*
G36*
X40596329Y-38798489D02*
G01*
X40677435Y-38852682D01*
X40731628Y-38933788D01*
X40750658Y-39029458D01*
X40750658Y-39929460D01*
X40731628Y-40025130D01*
X40677435Y-40106236D01*
X40596329Y-40160429D01*
X40500659Y-40179459D01*
X39850657Y-40179459D01*
X39754987Y-40160429D01*
X39673881Y-40106236D01*
X39619688Y-40025130D01*
X39600658Y-39929460D01*
X39600658Y-39029458D01*
X39619688Y-38933788D01*
X39673881Y-38852682D01*
X39754987Y-38798489D01*
X39850657Y-38779459D01*
X40500659Y-38779459D01*
X40596329Y-38798489D01*
X40596329Y-38798489D01*
G37*
D11*
X40175658Y-39479459D03*
D10*
G36*
X42646329Y-38798489D02*
G01*
X42727435Y-38852682D01*
X42781628Y-38933788D01*
X42800658Y-39029458D01*
X42800658Y-39929460D01*
X42781628Y-40025130D01*
X42727435Y-40106236D01*
X42646329Y-40160429D01*
X42550659Y-40179459D01*
X41900657Y-40179459D01*
X41804987Y-40160429D01*
X41723881Y-40106236D01*
X41669688Y-40025130D01*
X41650658Y-39929460D01*
X41650658Y-39029458D01*
X41669688Y-38933788D01*
X41723881Y-38852682D01*
X41804987Y-38798489D01*
X41900657Y-38779459D01*
X42550659Y-38779459D01*
X42646329Y-38798489D01*
X42646329Y-38798489D01*
G37*
D11*
X42225658Y-39479459D03*
D10*
G36*
X39271329Y-28773489D02*
G01*
X39352435Y-28827682D01*
X39406628Y-28908788D01*
X39425658Y-29004458D01*
X39425658Y-29904460D01*
X39406628Y-30000130D01*
X39352435Y-30081236D01*
X39271329Y-30135429D01*
X39175659Y-30154459D01*
X38525657Y-30154459D01*
X38429987Y-30135429D01*
X38348881Y-30081236D01*
X38294688Y-30000130D01*
X38275658Y-29904460D01*
X38275658Y-29004458D01*
X38294688Y-28908788D01*
X38348881Y-28827682D01*
X38429987Y-28773489D01*
X38525657Y-28754459D01*
X39175659Y-28754459D01*
X39271329Y-28773489D01*
X39271329Y-28773489D01*
G37*
D11*
X38850658Y-29454459D03*
D10*
G36*
X37221329Y-28773489D02*
G01*
X37302435Y-28827682D01*
X37356628Y-28908788D01*
X37375658Y-29004458D01*
X37375658Y-29904460D01*
X37356628Y-30000130D01*
X37302435Y-30081236D01*
X37221329Y-30135429D01*
X37125659Y-30154459D01*
X36475657Y-30154459D01*
X36379987Y-30135429D01*
X36298881Y-30081236D01*
X36244688Y-30000130D01*
X36225658Y-29904460D01*
X36225658Y-29004458D01*
X36244688Y-28908788D01*
X36298881Y-28827682D01*
X36379987Y-28773489D01*
X36475657Y-28754459D01*
X37125659Y-28754459D01*
X37221329Y-28773489D01*
X37221329Y-28773489D01*
G37*
D11*
X36800658Y-29454459D03*
D10*
G36*
X39296329Y-24198489D02*
G01*
X39377435Y-24252682D01*
X39431628Y-24333788D01*
X39450658Y-24429458D01*
X39450658Y-25329460D01*
X39431628Y-25425130D01*
X39377435Y-25506236D01*
X39296329Y-25560429D01*
X39200659Y-25579459D01*
X38550657Y-25579459D01*
X38454987Y-25560429D01*
X38373881Y-25506236D01*
X38319688Y-25425130D01*
X38300658Y-25329460D01*
X38300658Y-24429458D01*
X38319688Y-24333788D01*
X38373881Y-24252682D01*
X38454987Y-24198489D01*
X38550657Y-24179459D01*
X39200659Y-24179459D01*
X39296329Y-24198489D01*
X39296329Y-24198489D01*
G37*
D11*
X38875658Y-24879459D03*
D10*
G36*
X37246329Y-24198489D02*
G01*
X37327435Y-24252682D01*
X37381628Y-24333788D01*
X37400658Y-24429458D01*
X37400658Y-25329460D01*
X37381628Y-25425130D01*
X37327435Y-25506236D01*
X37246329Y-25560429D01*
X37150659Y-25579459D01*
X36500657Y-25579459D01*
X36404987Y-25560429D01*
X36323881Y-25506236D01*
X36269688Y-25425130D01*
X36250658Y-25329460D01*
X36250658Y-24429458D01*
X36269688Y-24333788D01*
X36323881Y-24252682D01*
X36404987Y-24198489D01*
X36500657Y-24179459D01*
X37150659Y-24179459D01*
X37246329Y-24198489D01*
X37246329Y-24198489D01*
G37*
D11*
X36825658Y-24879459D03*
D10*
G36*
X61046329Y-59398489D02*
G01*
X61127435Y-59452682D01*
X61181628Y-59533788D01*
X61200658Y-59629458D01*
X61200658Y-60529460D01*
X61181628Y-60625130D01*
X61127435Y-60706236D01*
X61046329Y-60760429D01*
X60950659Y-60779459D01*
X60300657Y-60779459D01*
X60204987Y-60760429D01*
X60123881Y-60706236D01*
X60069688Y-60625130D01*
X60050658Y-60529460D01*
X60050658Y-59629458D01*
X60069688Y-59533788D01*
X60123881Y-59452682D01*
X60204987Y-59398489D01*
X60300657Y-59379459D01*
X60950659Y-59379459D01*
X61046329Y-59398489D01*
X61046329Y-59398489D01*
G37*
D11*
X60625658Y-60079459D03*
D10*
G36*
X58996329Y-59398489D02*
G01*
X59077435Y-59452682D01*
X59131628Y-59533788D01*
X59150658Y-59629458D01*
X59150658Y-60529460D01*
X59131628Y-60625130D01*
X59077435Y-60706236D01*
X58996329Y-60760429D01*
X58900659Y-60779459D01*
X58250657Y-60779459D01*
X58154987Y-60760429D01*
X58073881Y-60706236D01*
X58019688Y-60625130D01*
X58000658Y-60529460D01*
X58000658Y-59629458D01*
X58019688Y-59533788D01*
X58073881Y-59452682D01*
X58154987Y-59398489D01*
X58250657Y-59379459D01*
X58900659Y-59379459D01*
X58996329Y-59398489D01*
X58996329Y-59398489D01*
G37*
D11*
X58575658Y-60079459D03*
D10*
G36*
X99541529Y-48164189D02*
G01*
X99622635Y-48218382D01*
X99676828Y-48299488D01*
X99695858Y-48395158D01*
X99695858Y-49295160D01*
X99676828Y-49390830D01*
X99622635Y-49471936D01*
X99541529Y-49526129D01*
X99445859Y-49545159D01*
X98795857Y-49545159D01*
X98700187Y-49526129D01*
X98619081Y-49471936D01*
X98564888Y-49390830D01*
X98545858Y-49295160D01*
X98545858Y-48395158D01*
X98564888Y-48299488D01*
X98619081Y-48218382D01*
X98700187Y-48164189D01*
X98795857Y-48145159D01*
X99445859Y-48145159D01*
X99541529Y-48164189D01*
X99541529Y-48164189D01*
G37*
D11*
X99120858Y-48845159D03*
D10*
G36*
X97491529Y-48164189D02*
G01*
X97572635Y-48218382D01*
X97626828Y-48299488D01*
X97645858Y-48395158D01*
X97645858Y-49295160D01*
X97626828Y-49390830D01*
X97572635Y-49471936D01*
X97491529Y-49526129D01*
X97395859Y-49545159D01*
X96745857Y-49545159D01*
X96650187Y-49526129D01*
X96569081Y-49471936D01*
X96514888Y-49390830D01*
X96495858Y-49295160D01*
X96495858Y-48395158D01*
X96514888Y-48299488D01*
X96569081Y-48218382D01*
X96650187Y-48164189D01*
X96745857Y-48145159D01*
X97395859Y-48145159D01*
X97491529Y-48164189D01*
X97491529Y-48164189D01*
G37*
D11*
X97070858Y-48845159D03*
D10*
G36*
X45720169Y-69391109D02*
G01*
X45801275Y-69445302D01*
X45855468Y-69526408D01*
X45874498Y-69622078D01*
X45874498Y-70272080D01*
X45855468Y-70367750D01*
X45801275Y-70448856D01*
X45720169Y-70503049D01*
X45624499Y-70522079D01*
X44724497Y-70522079D01*
X44628827Y-70503049D01*
X44547721Y-70448856D01*
X44493528Y-70367750D01*
X44474498Y-70272080D01*
X44474498Y-69622078D01*
X44493528Y-69526408D01*
X44547721Y-69445302D01*
X44628827Y-69391109D01*
X44724497Y-69372079D01*
X45624499Y-69372079D01*
X45720169Y-69391109D01*
X45720169Y-69391109D01*
G37*
D11*
X45174498Y-69947079D03*
D10*
G36*
X45720169Y-67341109D02*
G01*
X45801275Y-67395302D01*
X45855468Y-67476408D01*
X45874498Y-67572078D01*
X45874498Y-68222080D01*
X45855468Y-68317750D01*
X45801275Y-68398856D01*
X45720169Y-68453049D01*
X45624499Y-68472079D01*
X44724497Y-68472079D01*
X44628827Y-68453049D01*
X44547721Y-68398856D01*
X44493528Y-68317750D01*
X44474498Y-68222080D01*
X44474498Y-67572078D01*
X44493528Y-67476408D01*
X44547721Y-67395302D01*
X44628827Y-67341109D01*
X44724497Y-67322079D01*
X45624499Y-67322079D01*
X45720169Y-67341109D01*
X45720169Y-67341109D01*
G37*
D11*
X45174498Y-67897079D03*
D10*
G36*
X56475711Y-42974070D02*
G01*
X56556817Y-43028263D01*
X56611010Y-43109369D01*
X56630040Y-43205039D01*
X56630040Y-44105041D01*
X56611010Y-44200711D01*
X56556817Y-44281817D01*
X56475711Y-44336010D01*
X56380041Y-44355040D01*
X55730039Y-44355040D01*
X55634369Y-44336010D01*
X55553263Y-44281817D01*
X55499070Y-44200711D01*
X55480040Y-44105041D01*
X55480040Y-43205039D01*
X55499070Y-43109369D01*
X55553263Y-43028263D01*
X55634369Y-42974070D01*
X55730039Y-42955040D01*
X56380041Y-42955040D01*
X56475711Y-42974070D01*
X56475711Y-42974070D01*
G37*
D11*
X56055040Y-43655040D03*
D10*
G36*
X54425711Y-42974070D02*
G01*
X54506817Y-43028263D01*
X54561010Y-43109369D01*
X54580040Y-43205039D01*
X54580040Y-44105041D01*
X54561010Y-44200711D01*
X54506817Y-44281817D01*
X54425711Y-44336010D01*
X54330041Y-44355040D01*
X53680039Y-44355040D01*
X53584369Y-44336010D01*
X53503263Y-44281817D01*
X53449070Y-44200711D01*
X53430040Y-44105041D01*
X53430040Y-43205039D01*
X53449070Y-43109369D01*
X53503263Y-43028263D01*
X53584369Y-42974070D01*
X53680039Y-42955040D01*
X54330041Y-42955040D01*
X54425711Y-42974070D01*
X54425711Y-42974070D01*
G37*
D11*
X54005040Y-43655040D03*
D10*
G36*
X58561329Y-65748489D02*
G01*
X58642435Y-65802682D01*
X58696628Y-65883788D01*
X58715658Y-65979458D01*
X58715658Y-66879460D01*
X58696628Y-66975130D01*
X58642435Y-67056236D01*
X58561329Y-67110429D01*
X58465659Y-67129459D01*
X57815657Y-67129459D01*
X57719987Y-67110429D01*
X57638881Y-67056236D01*
X57584688Y-66975130D01*
X57565658Y-66879460D01*
X57565658Y-65979458D01*
X57584688Y-65883788D01*
X57638881Y-65802682D01*
X57719987Y-65748489D01*
X57815657Y-65729459D01*
X58465659Y-65729459D01*
X58561329Y-65748489D01*
X58561329Y-65748489D01*
G37*
D11*
X58140658Y-66429459D03*
D10*
G36*
X56511329Y-65748489D02*
G01*
X56592435Y-65802682D01*
X56646628Y-65883788D01*
X56665658Y-65979458D01*
X56665658Y-66879460D01*
X56646628Y-66975130D01*
X56592435Y-67056236D01*
X56511329Y-67110429D01*
X56415659Y-67129459D01*
X55765657Y-67129459D01*
X55669987Y-67110429D01*
X55588881Y-67056236D01*
X55534688Y-66975130D01*
X55515658Y-66879460D01*
X55515658Y-65979458D01*
X55534688Y-65883788D01*
X55588881Y-65802682D01*
X55669987Y-65748489D01*
X55765657Y-65729459D01*
X56415659Y-65729459D01*
X56511329Y-65748489D01*
X56511329Y-65748489D01*
G37*
D11*
X56090658Y-66429459D03*
D10*
G36*
X35609489Y-66112589D02*
G01*
X35690595Y-66166782D01*
X35744788Y-66247888D01*
X35763818Y-66343558D01*
X35763818Y-67243560D01*
X35744788Y-67339230D01*
X35690595Y-67420336D01*
X35609489Y-67474529D01*
X35513819Y-67493559D01*
X34863817Y-67493559D01*
X34768147Y-67474529D01*
X34687041Y-67420336D01*
X34632848Y-67339230D01*
X34613818Y-67243560D01*
X34613818Y-66343558D01*
X34632848Y-66247888D01*
X34687041Y-66166782D01*
X34768147Y-66112589D01*
X34863817Y-66093559D01*
X35513819Y-66093559D01*
X35609489Y-66112589D01*
X35609489Y-66112589D01*
G37*
D11*
X35188818Y-66793559D03*
D10*
G36*
X33559489Y-66112589D02*
G01*
X33640595Y-66166782D01*
X33694788Y-66247888D01*
X33713818Y-66343558D01*
X33713818Y-67243560D01*
X33694788Y-67339230D01*
X33640595Y-67420336D01*
X33559489Y-67474529D01*
X33463819Y-67493559D01*
X32813817Y-67493559D01*
X32718147Y-67474529D01*
X32637041Y-67420336D01*
X32582848Y-67339230D01*
X32563818Y-67243560D01*
X32563818Y-66343558D01*
X32582848Y-66247888D01*
X32637041Y-66166782D01*
X32718147Y-66112589D01*
X32813817Y-66093559D01*
X33463819Y-66093559D01*
X33559489Y-66112589D01*
X33559489Y-66112589D01*
G37*
D11*
X33138818Y-66793559D03*
D10*
G36*
X41252929Y-70232469D02*
G01*
X41334035Y-70286662D01*
X41388228Y-70367768D01*
X41407258Y-70463438D01*
X41407258Y-71363440D01*
X41388228Y-71459110D01*
X41334035Y-71540216D01*
X41252929Y-71594409D01*
X41157259Y-71613439D01*
X40507257Y-71613439D01*
X40411587Y-71594409D01*
X40330481Y-71540216D01*
X40276288Y-71459110D01*
X40257258Y-71363440D01*
X40257258Y-70463438D01*
X40276288Y-70367768D01*
X40330481Y-70286662D01*
X40411587Y-70232469D01*
X40507257Y-70213439D01*
X41157259Y-70213439D01*
X41252929Y-70232469D01*
X41252929Y-70232469D01*
G37*
D11*
X40832258Y-70913439D03*
D10*
G36*
X43302929Y-70232469D02*
G01*
X43384035Y-70286662D01*
X43438228Y-70367768D01*
X43457258Y-70463438D01*
X43457258Y-71363440D01*
X43438228Y-71459110D01*
X43384035Y-71540216D01*
X43302929Y-71594409D01*
X43207259Y-71613439D01*
X42557257Y-71613439D01*
X42461587Y-71594409D01*
X42380481Y-71540216D01*
X42326288Y-71459110D01*
X42307258Y-71363440D01*
X42307258Y-70463438D01*
X42326288Y-70367768D01*
X42380481Y-70286662D01*
X42461587Y-70232469D01*
X42557257Y-70213439D01*
X43207259Y-70213439D01*
X43302929Y-70232469D01*
X43302929Y-70232469D01*
G37*
D11*
X42882258Y-70913439D03*
D10*
G36*
X33952969Y-58284309D02*
G01*
X34034075Y-58338502D01*
X34088268Y-58419608D01*
X34107298Y-58515278D01*
X34107298Y-59415280D01*
X34088268Y-59510950D01*
X34034075Y-59592056D01*
X33952969Y-59646249D01*
X33857299Y-59665279D01*
X33207297Y-59665279D01*
X33111627Y-59646249D01*
X33030521Y-59592056D01*
X32976328Y-59510950D01*
X32957298Y-59415280D01*
X32957298Y-58515278D01*
X32976328Y-58419608D01*
X33030521Y-58338502D01*
X33111627Y-58284309D01*
X33207297Y-58265279D01*
X33857299Y-58265279D01*
X33952969Y-58284309D01*
X33952969Y-58284309D01*
G37*
D11*
X33532298Y-58965279D03*
D10*
G36*
X36002969Y-58284309D02*
G01*
X36084075Y-58338502D01*
X36138268Y-58419608D01*
X36157298Y-58515278D01*
X36157298Y-59415280D01*
X36138268Y-59510950D01*
X36084075Y-59592056D01*
X36002969Y-59646249D01*
X35907299Y-59665279D01*
X35257297Y-59665279D01*
X35161627Y-59646249D01*
X35080521Y-59592056D01*
X35026328Y-59510950D01*
X35007298Y-59415280D01*
X35007298Y-58515278D01*
X35026328Y-58419608D01*
X35080521Y-58338502D01*
X35161627Y-58284309D01*
X35257297Y-58265279D01*
X35907299Y-58265279D01*
X36002969Y-58284309D01*
X36002969Y-58284309D01*
G37*
D11*
X35582298Y-58965279D03*
D10*
G36*
X37890729Y-42732429D02*
G01*
X37971835Y-42786622D01*
X38026028Y-42867728D01*
X38045058Y-42963398D01*
X38045058Y-43613400D01*
X38026028Y-43709070D01*
X37971835Y-43790176D01*
X37890729Y-43844369D01*
X37795059Y-43863399D01*
X36895057Y-43863399D01*
X36799387Y-43844369D01*
X36718281Y-43790176D01*
X36664088Y-43709070D01*
X36645058Y-43613400D01*
X36645058Y-42963398D01*
X36664088Y-42867728D01*
X36718281Y-42786622D01*
X36799387Y-42732429D01*
X36895057Y-42713399D01*
X37795059Y-42713399D01*
X37890729Y-42732429D01*
X37890729Y-42732429D01*
G37*
D11*
X37345058Y-43288399D03*
D10*
G36*
X37890729Y-44782429D02*
G01*
X37971835Y-44836622D01*
X38026028Y-44917728D01*
X38045058Y-45013398D01*
X38045058Y-45663400D01*
X38026028Y-45759070D01*
X37971835Y-45840176D01*
X37890729Y-45894369D01*
X37795059Y-45913399D01*
X36895057Y-45913399D01*
X36799387Y-45894369D01*
X36718281Y-45840176D01*
X36664088Y-45759070D01*
X36645058Y-45663400D01*
X36645058Y-45013398D01*
X36664088Y-44917728D01*
X36718281Y-44836622D01*
X36799387Y-44782429D01*
X36895057Y-44763399D01*
X37795059Y-44763399D01*
X37890729Y-44782429D01*
X37890729Y-44782429D01*
G37*
D11*
X37345058Y-45338399D03*
D10*
G36*
X41359609Y-67982029D02*
G01*
X41440715Y-68036222D01*
X41494908Y-68117328D01*
X41513938Y-68212998D01*
X41513938Y-69113000D01*
X41494908Y-69208670D01*
X41440715Y-69289776D01*
X41359609Y-69343969D01*
X41263939Y-69362999D01*
X40613937Y-69362999D01*
X40518267Y-69343969D01*
X40437161Y-69289776D01*
X40382968Y-69208670D01*
X40363938Y-69113000D01*
X40363938Y-68212998D01*
X40382968Y-68117328D01*
X40437161Y-68036222D01*
X40518267Y-67982029D01*
X40613937Y-67962999D01*
X41263939Y-67962999D01*
X41359609Y-67982029D01*
X41359609Y-67982029D01*
G37*
D11*
X40938938Y-68662999D03*
D10*
G36*
X43409609Y-67982029D02*
G01*
X43490715Y-68036222D01*
X43544908Y-68117328D01*
X43563938Y-68212998D01*
X43563938Y-69113000D01*
X43544908Y-69208670D01*
X43490715Y-69289776D01*
X43409609Y-69343969D01*
X43313939Y-69362999D01*
X42663937Y-69362999D01*
X42568267Y-69343969D01*
X42487161Y-69289776D01*
X42432968Y-69208670D01*
X42413938Y-69113000D01*
X42413938Y-68212998D01*
X42432968Y-68117328D01*
X42487161Y-68036222D01*
X42568267Y-67982029D01*
X42663937Y-67962999D01*
X43313939Y-67962999D01*
X43409609Y-67982029D01*
X43409609Y-67982029D01*
G37*
D11*
X42988938Y-68662999D03*
D10*
G36*
X60581329Y-46708489D02*
G01*
X60662435Y-46762682D01*
X60716628Y-46843788D01*
X60735658Y-46939458D01*
X60735658Y-47839460D01*
X60716628Y-47935130D01*
X60662435Y-48016236D01*
X60581329Y-48070429D01*
X60485659Y-48089459D01*
X59835657Y-48089459D01*
X59739987Y-48070429D01*
X59658881Y-48016236D01*
X59604688Y-47935130D01*
X59585658Y-47839460D01*
X59585658Y-46939458D01*
X59604688Y-46843788D01*
X59658881Y-46762682D01*
X59739987Y-46708489D01*
X59835657Y-46689459D01*
X60485659Y-46689459D01*
X60581329Y-46708489D01*
X60581329Y-46708489D01*
G37*
D11*
X60160658Y-47389459D03*
D10*
G36*
X58531329Y-46708489D02*
G01*
X58612435Y-46762682D01*
X58666628Y-46843788D01*
X58685658Y-46939458D01*
X58685658Y-47839460D01*
X58666628Y-47935130D01*
X58612435Y-48016236D01*
X58531329Y-48070429D01*
X58435659Y-48089459D01*
X57785657Y-48089459D01*
X57689987Y-48070429D01*
X57608881Y-48016236D01*
X57554688Y-47935130D01*
X57535658Y-47839460D01*
X57535658Y-46939458D01*
X57554688Y-46843788D01*
X57608881Y-46762682D01*
X57689987Y-46708489D01*
X57785657Y-46689459D01*
X58435659Y-46689459D01*
X58531329Y-46708489D01*
X58531329Y-46708489D01*
G37*
D11*
X58110658Y-47389459D03*
D10*
G36*
X37621329Y-50988489D02*
G01*
X37702435Y-51042682D01*
X37756628Y-51123788D01*
X37775658Y-51219458D01*
X37775658Y-51869460D01*
X37756628Y-51965130D01*
X37702435Y-52046236D01*
X37621329Y-52100429D01*
X37525659Y-52119459D01*
X36625657Y-52119459D01*
X36529987Y-52100429D01*
X36448881Y-52046236D01*
X36394688Y-51965130D01*
X36375658Y-51869460D01*
X36375658Y-51219458D01*
X36394688Y-51123788D01*
X36448881Y-51042682D01*
X36529987Y-50988489D01*
X36625657Y-50969459D01*
X37525659Y-50969459D01*
X37621329Y-50988489D01*
X37621329Y-50988489D01*
G37*
D11*
X37075658Y-51544459D03*
D10*
G36*
X37621329Y-53038489D02*
G01*
X37702435Y-53092682D01*
X37756628Y-53173788D01*
X37775658Y-53269458D01*
X37775658Y-53919460D01*
X37756628Y-54015130D01*
X37702435Y-54096236D01*
X37621329Y-54150429D01*
X37525659Y-54169459D01*
X36625657Y-54169459D01*
X36529987Y-54150429D01*
X36448881Y-54096236D01*
X36394688Y-54015130D01*
X36375658Y-53919460D01*
X36375658Y-53269458D01*
X36394688Y-53173788D01*
X36448881Y-53092682D01*
X36529987Y-53038489D01*
X36625657Y-53019459D01*
X37525659Y-53019459D01*
X37621329Y-53038489D01*
X37621329Y-53038489D01*
G37*
D11*
X37075658Y-53594459D03*
D30*
X81972858Y-68607119D03*
X75072858Y-68607119D03*
M02*
