G04 #@! TF.GenerationSoftware,KiCad,Pcbnew,(5.99.0-97-g37fac7a8f)*
G04 #@! TF.CreationDate,2019-12-11T21:19:43+01:00*
G04 #@! TF.ProjectId,canbox,63616e62-6f78-42e6-9b69-6361645f7063,rev?*
G04 #@! TF.SameCoordinates,Original*
G04 #@! TF.FileFunction,Soldermask,Bot*
G04 #@! TF.FilePolarity,Negative*
%FSLAX46Y46*%
G04 Gerber Fmt 4.6, Leading zero omitted, Abs format (unit mm)*
G04 Created by KiCad (PCBNEW (5.99.0-97-g37fac7a8f)) date 2019-12-11 21:19:43*
%MOMM*%
%LPD*%
G04 APERTURE LIST*
%ADD10C,0.100000*%
G04 APERTURE END LIST*
D10*
G36*
X38763883Y-67913773D02*
G01*
X38772426Y-67918396D01*
X38777688Y-67919443D01*
X38791866Y-67928917D01*
X38837259Y-67953482D01*
X38851049Y-67968462D01*
X38860382Y-67974698D01*
X38869892Y-67988931D01*
X38893769Y-68014868D01*
X38906278Y-68043385D01*
X38915637Y-68057392D01*
X38918305Y-68070805D01*
X38928135Y-68093215D01*
X38936423Y-68159704D01*
X38936423Y-68788299D01*
X38921307Y-68878883D01*
X38916684Y-68887426D01*
X38915637Y-68892688D01*
X38906163Y-68906866D01*
X38881598Y-68952259D01*
X38866618Y-68966049D01*
X38860382Y-68975382D01*
X38846149Y-68984892D01*
X38820212Y-69008769D01*
X38791695Y-69021278D01*
X38777688Y-69030637D01*
X38764275Y-69033305D01*
X38741865Y-69043135D01*
X38675376Y-69051423D01*
X37796781Y-69051423D01*
X37706197Y-69036307D01*
X37697654Y-69031684D01*
X37692392Y-69030637D01*
X37678214Y-69021163D01*
X37632821Y-68996598D01*
X37619031Y-68981618D01*
X37609698Y-68975382D01*
X37600188Y-68961149D01*
X37576311Y-68935212D01*
X37563802Y-68906695D01*
X37554443Y-68892688D01*
X37551775Y-68879275D01*
X37541945Y-68856865D01*
X37533657Y-68790376D01*
X37533657Y-68161781D01*
X37548773Y-68071197D01*
X37553396Y-68062654D01*
X37554443Y-68057392D01*
X37563917Y-68043214D01*
X37588482Y-67997821D01*
X37603462Y-67984031D01*
X37609698Y-67974698D01*
X37623931Y-67965188D01*
X37649868Y-67941311D01*
X37678385Y-67928802D01*
X37692392Y-67919443D01*
X37705805Y-67916775D01*
X37728215Y-67906945D01*
X37794704Y-67898657D01*
X38673299Y-67898657D01*
X38763883Y-67913773D01*
X38763883Y-67913773D01*
G37*
G36*
X62635040Y-67245040D02*
G01*
X62636999Y-67254890D01*
X62636999Y-68935190D01*
X62635040Y-68945040D01*
X62625190Y-68946999D01*
X60944890Y-68946999D01*
X60935039Y-68945040D01*
X60935040Y-68945040D01*
X60933081Y-68935190D01*
X60933081Y-67254890D01*
X60935040Y-67245040D01*
X60944890Y-67243081D01*
X62625190Y-67243081D01*
X62635040Y-67245040D01*
X62635040Y-67245040D01*
G37*
G36*
X59366442Y-67260126D02*
G01*
X59505814Y-67281702D01*
X59511418Y-67284127D01*
X59520581Y-67285644D01*
X59593521Y-67319656D01*
X59661862Y-67349230D01*
X59671669Y-67356097D01*
X59687959Y-67363693D01*
X59747174Y-67408966D01*
X59803310Y-67448273D01*
X59815642Y-67461314D01*
X59834673Y-67475864D01*
X59878960Y-67528271D01*
X59921962Y-67573744D01*
X59934565Y-67594070D01*
X59953877Y-67616923D01*
X59983098Y-67672346D01*
X60012957Y-67720503D01*
X60023276Y-67748551D01*
X60040010Y-67780289D01*
X60055070Y-67834965D01*
X60072581Y-67882559D01*
X60077940Y-67917995D01*
X60089053Y-67958340D01*
X60091711Y-68009047D01*
X60098404Y-68053305D01*
X60096217Y-68095034D01*
X60098719Y-68142768D01*
X60091398Y-68186990D01*
X60089367Y-68225750D01*
X60077334Y-68271946D01*
X60068556Y-68324970D01*
X60054123Y-68361055D01*
X60045840Y-68392854D01*
X60022139Y-68441019D01*
X59999971Y-68496444D01*
X59981474Y-68523662D01*
X59969599Y-68547794D01*
X59933059Y-68594901D01*
X59896164Y-68649190D01*
X59876591Y-68667699D01*
X59863760Y-68684241D01*
X59813981Y-68726907D01*
X59761979Y-68776083D01*
X59744009Y-68786881D01*
X59732648Y-68796618D01*
X59670125Y-68831275D01*
X59603677Y-68871201D01*
X59589470Y-68875982D01*
X59581619Y-68880334D01*
X59507789Y-68903471D01*
X59428641Y-68930107D01*
X59419689Y-68931079D01*
X59416838Y-68931973D01*
X59334028Y-68940385D01*
X59291177Y-68945040D01*
X59214765Y-68945040D01*
X59123638Y-68929954D01*
X58984266Y-68908378D01*
X58978662Y-68905953D01*
X58969499Y-68904436D01*
X58896559Y-68870424D01*
X58828218Y-68840850D01*
X58818411Y-68833983D01*
X58802121Y-68826387D01*
X58742906Y-68781114D01*
X58686770Y-68741807D01*
X58674438Y-68728766D01*
X58655407Y-68714216D01*
X58611120Y-68661809D01*
X58568118Y-68616336D01*
X58555515Y-68596010D01*
X58536203Y-68573157D01*
X58506982Y-68517734D01*
X58477123Y-68469577D01*
X58466804Y-68441529D01*
X58450070Y-68409791D01*
X58435010Y-68355115D01*
X58417499Y-68307521D01*
X58412140Y-68272085D01*
X58401027Y-68231740D01*
X58398369Y-68181033D01*
X58391676Y-68136775D01*
X58393863Y-68095046D01*
X58391361Y-68047312D01*
X58398682Y-68003090D01*
X58400713Y-67964330D01*
X58412746Y-67918134D01*
X58421524Y-67865110D01*
X58435957Y-67829025D01*
X58444240Y-67797226D01*
X58467941Y-67749061D01*
X58490109Y-67693636D01*
X58508606Y-67666418D01*
X58520481Y-67642286D01*
X58557021Y-67595179D01*
X58593916Y-67540890D01*
X58613489Y-67522381D01*
X58626320Y-67505839D01*
X58676099Y-67463173D01*
X58728101Y-67413997D01*
X58746071Y-67403199D01*
X58757432Y-67393462D01*
X58819955Y-67358805D01*
X58886403Y-67318879D01*
X58900610Y-67314098D01*
X58908461Y-67309746D01*
X58982291Y-67286609D01*
X59061439Y-67259973D01*
X59070391Y-67259001D01*
X59073242Y-67258107D01*
X59156052Y-67249695D01*
X59198903Y-67245040D01*
X59275315Y-67245040D01*
X59366442Y-67260126D01*
X59366442Y-67260126D01*
G37*
G36*
X56826442Y-67260126D02*
G01*
X56965814Y-67281702D01*
X56971418Y-67284127D01*
X56980581Y-67285644D01*
X57053521Y-67319656D01*
X57121862Y-67349230D01*
X57131669Y-67356097D01*
X57147959Y-67363693D01*
X57207174Y-67408966D01*
X57263310Y-67448273D01*
X57275642Y-67461314D01*
X57294673Y-67475864D01*
X57338960Y-67528271D01*
X57381962Y-67573744D01*
X57394565Y-67594070D01*
X57413877Y-67616923D01*
X57443098Y-67672346D01*
X57472957Y-67720503D01*
X57483276Y-67748551D01*
X57500010Y-67780289D01*
X57515070Y-67834965D01*
X57532581Y-67882559D01*
X57537940Y-67917995D01*
X57549053Y-67958340D01*
X57551711Y-68009047D01*
X57558404Y-68053305D01*
X57556217Y-68095034D01*
X57558719Y-68142768D01*
X57551398Y-68186990D01*
X57549367Y-68225750D01*
X57537334Y-68271946D01*
X57528556Y-68324970D01*
X57514123Y-68361055D01*
X57505840Y-68392854D01*
X57482139Y-68441019D01*
X57459971Y-68496444D01*
X57441474Y-68523662D01*
X57429599Y-68547794D01*
X57393059Y-68594901D01*
X57356164Y-68649190D01*
X57336591Y-68667699D01*
X57323760Y-68684241D01*
X57273981Y-68726907D01*
X57221979Y-68776083D01*
X57204009Y-68786881D01*
X57192648Y-68796618D01*
X57130125Y-68831275D01*
X57063677Y-68871201D01*
X57049470Y-68875982D01*
X57041619Y-68880334D01*
X56967789Y-68903471D01*
X56888641Y-68930107D01*
X56879689Y-68931079D01*
X56876838Y-68931973D01*
X56794028Y-68940385D01*
X56751177Y-68945040D01*
X56674765Y-68945040D01*
X56583638Y-68929954D01*
X56444266Y-68908378D01*
X56438662Y-68905953D01*
X56429499Y-68904436D01*
X56356559Y-68870424D01*
X56288218Y-68840850D01*
X56278411Y-68833983D01*
X56262121Y-68826387D01*
X56202906Y-68781114D01*
X56146770Y-68741807D01*
X56134438Y-68728766D01*
X56115407Y-68714216D01*
X56071120Y-68661809D01*
X56028118Y-68616336D01*
X56015515Y-68596010D01*
X55996203Y-68573157D01*
X55966982Y-68517734D01*
X55937123Y-68469577D01*
X55926804Y-68441529D01*
X55910070Y-68409791D01*
X55895010Y-68355115D01*
X55877499Y-68307521D01*
X55872140Y-68272085D01*
X55861027Y-68231740D01*
X55858369Y-68181033D01*
X55851676Y-68136775D01*
X55853863Y-68095046D01*
X55851361Y-68047312D01*
X55858682Y-68003090D01*
X55860713Y-67964330D01*
X55872746Y-67918134D01*
X55881524Y-67865110D01*
X55895957Y-67829025D01*
X55904240Y-67797226D01*
X55927941Y-67749061D01*
X55950109Y-67693636D01*
X55968606Y-67666418D01*
X55980481Y-67642286D01*
X56017021Y-67595179D01*
X56053916Y-67540890D01*
X56073489Y-67522381D01*
X56086320Y-67505839D01*
X56136099Y-67463173D01*
X56188101Y-67413997D01*
X56206071Y-67403199D01*
X56217432Y-67393462D01*
X56279955Y-67358805D01*
X56346403Y-67318879D01*
X56360610Y-67314098D01*
X56368461Y-67309746D01*
X56442291Y-67286609D01*
X56521439Y-67259973D01*
X56530391Y-67259001D01*
X56533242Y-67258107D01*
X56616052Y-67249695D01*
X56658903Y-67245040D01*
X56735315Y-67245040D01*
X56826442Y-67260126D01*
X56826442Y-67260126D01*
G37*
G36*
X51746442Y-67260126D02*
G01*
X51885814Y-67281702D01*
X51891418Y-67284127D01*
X51900581Y-67285644D01*
X51973521Y-67319656D01*
X52041862Y-67349230D01*
X52051669Y-67356097D01*
X52067959Y-67363693D01*
X52127174Y-67408966D01*
X52183310Y-67448273D01*
X52195642Y-67461314D01*
X52214673Y-67475864D01*
X52258960Y-67528271D01*
X52301962Y-67573744D01*
X52314565Y-67594070D01*
X52333877Y-67616923D01*
X52363098Y-67672346D01*
X52392957Y-67720503D01*
X52403276Y-67748551D01*
X52420010Y-67780289D01*
X52435070Y-67834965D01*
X52452581Y-67882559D01*
X52457940Y-67917995D01*
X52469053Y-67958340D01*
X52471711Y-68009047D01*
X52478404Y-68053305D01*
X52476217Y-68095034D01*
X52478719Y-68142768D01*
X52471398Y-68186990D01*
X52469367Y-68225750D01*
X52457334Y-68271946D01*
X52448556Y-68324970D01*
X52434123Y-68361055D01*
X52425840Y-68392854D01*
X52402139Y-68441019D01*
X52379971Y-68496444D01*
X52361474Y-68523662D01*
X52349599Y-68547794D01*
X52313059Y-68594901D01*
X52276164Y-68649190D01*
X52256591Y-68667699D01*
X52243760Y-68684241D01*
X52193981Y-68726907D01*
X52141979Y-68776083D01*
X52124009Y-68786881D01*
X52112648Y-68796618D01*
X52050125Y-68831275D01*
X51983677Y-68871201D01*
X51969470Y-68875982D01*
X51961619Y-68880334D01*
X51887789Y-68903471D01*
X51808641Y-68930107D01*
X51799689Y-68931079D01*
X51796838Y-68931973D01*
X51714028Y-68940385D01*
X51671177Y-68945040D01*
X51594765Y-68945040D01*
X51503638Y-68929954D01*
X51364266Y-68908378D01*
X51358662Y-68905953D01*
X51349499Y-68904436D01*
X51276559Y-68870424D01*
X51208218Y-68840850D01*
X51198411Y-68833983D01*
X51182121Y-68826387D01*
X51122906Y-68781114D01*
X51066770Y-68741807D01*
X51054438Y-68728766D01*
X51035407Y-68714216D01*
X50991120Y-68661809D01*
X50948118Y-68616336D01*
X50935515Y-68596010D01*
X50916203Y-68573157D01*
X50886982Y-68517734D01*
X50857123Y-68469577D01*
X50846804Y-68441529D01*
X50830070Y-68409791D01*
X50815010Y-68355115D01*
X50797499Y-68307521D01*
X50792140Y-68272085D01*
X50781027Y-68231740D01*
X50778369Y-68181033D01*
X50771676Y-68136775D01*
X50773863Y-68095046D01*
X50771361Y-68047312D01*
X50778682Y-68003090D01*
X50780713Y-67964330D01*
X50792746Y-67918134D01*
X50801524Y-67865110D01*
X50815957Y-67829025D01*
X50824240Y-67797226D01*
X50847941Y-67749061D01*
X50870109Y-67693636D01*
X50888606Y-67666418D01*
X50900481Y-67642286D01*
X50937021Y-67595179D01*
X50973916Y-67540890D01*
X50993489Y-67522381D01*
X51006320Y-67505839D01*
X51056099Y-67463173D01*
X51108101Y-67413997D01*
X51126071Y-67403199D01*
X51137432Y-67393462D01*
X51199955Y-67358805D01*
X51266403Y-67318879D01*
X51280610Y-67314098D01*
X51288461Y-67309746D01*
X51362291Y-67286609D01*
X51441439Y-67259973D01*
X51450391Y-67259001D01*
X51453242Y-67258107D01*
X51536052Y-67249695D01*
X51578903Y-67245040D01*
X51655315Y-67245040D01*
X51746442Y-67260126D01*
X51746442Y-67260126D01*
G37*
G36*
X49206442Y-67260126D02*
G01*
X49345814Y-67281702D01*
X49351418Y-67284127D01*
X49360581Y-67285644D01*
X49433521Y-67319656D01*
X49501862Y-67349230D01*
X49511669Y-67356097D01*
X49527959Y-67363693D01*
X49587174Y-67408966D01*
X49643310Y-67448273D01*
X49655642Y-67461314D01*
X49674673Y-67475864D01*
X49718960Y-67528271D01*
X49761962Y-67573744D01*
X49774565Y-67594070D01*
X49793877Y-67616923D01*
X49823098Y-67672346D01*
X49852957Y-67720503D01*
X49863276Y-67748551D01*
X49880010Y-67780289D01*
X49895070Y-67834965D01*
X49912581Y-67882559D01*
X49917940Y-67917995D01*
X49929053Y-67958340D01*
X49931711Y-68009047D01*
X49938404Y-68053305D01*
X49936217Y-68095034D01*
X49938719Y-68142768D01*
X49931398Y-68186990D01*
X49929367Y-68225750D01*
X49917334Y-68271946D01*
X49908556Y-68324970D01*
X49894123Y-68361055D01*
X49885840Y-68392854D01*
X49862139Y-68441019D01*
X49839971Y-68496444D01*
X49821474Y-68523662D01*
X49809599Y-68547794D01*
X49773059Y-68594901D01*
X49736164Y-68649190D01*
X49716591Y-68667699D01*
X49703760Y-68684241D01*
X49653981Y-68726907D01*
X49601979Y-68776083D01*
X49584009Y-68786881D01*
X49572648Y-68796618D01*
X49510125Y-68831275D01*
X49443677Y-68871201D01*
X49429470Y-68875982D01*
X49421619Y-68880334D01*
X49347789Y-68903471D01*
X49268641Y-68930107D01*
X49259689Y-68931079D01*
X49256838Y-68931973D01*
X49174028Y-68940385D01*
X49131177Y-68945040D01*
X49054765Y-68945040D01*
X48963638Y-68929954D01*
X48824266Y-68908378D01*
X48818662Y-68905953D01*
X48809499Y-68904436D01*
X48736559Y-68870424D01*
X48668218Y-68840850D01*
X48658411Y-68833983D01*
X48642121Y-68826387D01*
X48582906Y-68781114D01*
X48526770Y-68741807D01*
X48514438Y-68728766D01*
X48495407Y-68714216D01*
X48451120Y-68661809D01*
X48408118Y-68616336D01*
X48395515Y-68596010D01*
X48376203Y-68573157D01*
X48346982Y-68517734D01*
X48317123Y-68469577D01*
X48306804Y-68441529D01*
X48290070Y-68409791D01*
X48275010Y-68355115D01*
X48257499Y-68307521D01*
X48252140Y-68272085D01*
X48241027Y-68231740D01*
X48238369Y-68181033D01*
X48231676Y-68136775D01*
X48233863Y-68095046D01*
X48231361Y-68047312D01*
X48238682Y-68003090D01*
X48240713Y-67964330D01*
X48252746Y-67918134D01*
X48261524Y-67865110D01*
X48275957Y-67829025D01*
X48284240Y-67797226D01*
X48307941Y-67749061D01*
X48330109Y-67693636D01*
X48348606Y-67666418D01*
X48360481Y-67642286D01*
X48397021Y-67595179D01*
X48433916Y-67540890D01*
X48453489Y-67522381D01*
X48466320Y-67505839D01*
X48516099Y-67463173D01*
X48568101Y-67413997D01*
X48586071Y-67403199D01*
X48597432Y-67393462D01*
X48659955Y-67358805D01*
X48726403Y-67318879D01*
X48740610Y-67314098D01*
X48748461Y-67309746D01*
X48822291Y-67286609D01*
X48901439Y-67259973D01*
X48910391Y-67259001D01*
X48913242Y-67258107D01*
X48996052Y-67249695D01*
X49038903Y-67245040D01*
X49115315Y-67245040D01*
X49206442Y-67260126D01*
X49206442Y-67260126D01*
G37*
G36*
X46666442Y-67260126D02*
G01*
X46805814Y-67281702D01*
X46811418Y-67284127D01*
X46820581Y-67285644D01*
X46893521Y-67319656D01*
X46961862Y-67349230D01*
X46971669Y-67356097D01*
X46987959Y-67363693D01*
X47047174Y-67408966D01*
X47103310Y-67448273D01*
X47115642Y-67461314D01*
X47134673Y-67475864D01*
X47178960Y-67528271D01*
X47221962Y-67573744D01*
X47234565Y-67594070D01*
X47253877Y-67616923D01*
X47283098Y-67672346D01*
X47312957Y-67720503D01*
X47323276Y-67748551D01*
X47340010Y-67780289D01*
X47355070Y-67834965D01*
X47372581Y-67882559D01*
X47377940Y-67917995D01*
X47389053Y-67958340D01*
X47391711Y-68009047D01*
X47398404Y-68053305D01*
X47396217Y-68095034D01*
X47398719Y-68142768D01*
X47391398Y-68186990D01*
X47389367Y-68225750D01*
X47377334Y-68271946D01*
X47368556Y-68324970D01*
X47354123Y-68361055D01*
X47345840Y-68392854D01*
X47322139Y-68441019D01*
X47299971Y-68496444D01*
X47281474Y-68523662D01*
X47269599Y-68547794D01*
X47233059Y-68594901D01*
X47196164Y-68649190D01*
X47176591Y-68667699D01*
X47163760Y-68684241D01*
X47113981Y-68726907D01*
X47061979Y-68776083D01*
X47044009Y-68786881D01*
X47032648Y-68796618D01*
X46970125Y-68831275D01*
X46903677Y-68871201D01*
X46889470Y-68875982D01*
X46881619Y-68880334D01*
X46807789Y-68903471D01*
X46728641Y-68930107D01*
X46719689Y-68931079D01*
X46716838Y-68931973D01*
X46634028Y-68940385D01*
X46591177Y-68945040D01*
X46514765Y-68945040D01*
X46423638Y-68929954D01*
X46284266Y-68908378D01*
X46278662Y-68905953D01*
X46269499Y-68904436D01*
X46196559Y-68870424D01*
X46128218Y-68840850D01*
X46118411Y-68833983D01*
X46102121Y-68826387D01*
X46042906Y-68781114D01*
X45986770Y-68741807D01*
X45974438Y-68728766D01*
X45955407Y-68714216D01*
X45911120Y-68661809D01*
X45868118Y-68616336D01*
X45855515Y-68596010D01*
X45836203Y-68573157D01*
X45806982Y-68517734D01*
X45777123Y-68469577D01*
X45766804Y-68441529D01*
X45750070Y-68409791D01*
X45735010Y-68355115D01*
X45717499Y-68307521D01*
X45712140Y-68272085D01*
X45701027Y-68231740D01*
X45698369Y-68181033D01*
X45691676Y-68136775D01*
X45693863Y-68095046D01*
X45691361Y-68047312D01*
X45698682Y-68003090D01*
X45700713Y-67964330D01*
X45712746Y-67918134D01*
X45721524Y-67865110D01*
X45735957Y-67829025D01*
X45744240Y-67797226D01*
X45767941Y-67749061D01*
X45790109Y-67693636D01*
X45808606Y-67666418D01*
X45820481Y-67642286D01*
X45857021Y-67595179D01*
X45893916Y-67540890D01*
X45913489Y-67522381D01*
X45926320Y-67505839D01*
X45976099Y-67463173D01*
X46028101Y-67413997D01*
X46046071Y-67403199D01*
X46057432Y-67393462D01*
X46119955Y-67358805D01*
X46186403Y-67318879D01*
X46200610Y-67314098D01*
X46208461Y-67309746D01*
X46282291Y-67286609D01*
X46361439Y-67259973D01*
X46370391Y-67259001D01*
X46373242Y-67258107D01*
X46456052Y-67249695D01*
X46498903Y-67245040D01*
X46575315Y-67245040D01*
X46666442Y-67260126D01*
X46666442Y-67260126D01*
G37*
G36*
X44126442Y-67260126D02*
G01*
X44265814Y-67281702D01*
X44271418Y-67284127D01*
X44280581Y-67285644D01*
X44353521Y-67319656D01*
X44421862Y-67349230D01*
X44431669Y-67356097D01*
X44447959Y-67363693D01*
X44507174Y-67408966D01*
X44563310Y-67448273D01*
X44575642Y-67461314D01*
X44594673Y-67475864D01*
X44638960Y-67528271D01*
X44681962Y-67573744D01*
X44694565Y-67594070D01*
X44713877Y-67616923D01*
X44743098Y-67672346D01*
X44772957Y-67720503D01*
X44783276Y-67748551D01*
X44800010Y-67780289D01*
X44815070Y-67834965D01*
X44832581Y-67882559D01*
X44837940Y-67917995D01*
X44849053Y-67958340D01*
X44851711Y-68009047D01*
X44858404Y-68053305D01*
X44856217Y-68095034D01*
X44858719Y-68142768D01*
X44851398Y-68186990D01*
X44849367Y-68225750D01*
X44837334Y-68271946D01*
X44828556Y-68324970D01*
X44814123Y-68361055D01*
X44805840Y-68392854D01*
X44782139Y-68441019D01*
X44759971Y-68496444D01*
X44741474Y-68523662D01*
X44729599Y-68547794D01*
X44693059Y-68594901D01*
X44656164Y-68649190D01*
X44636591Y-68667699D01*
X44623760Y-68684241D01*
X44573981Y-68726907D01*
X44521979Y-68776083D01*
X44504009Y-68786881D01*
X44492648Y-68796618D01*
X44430125Y-68831275D01*
X44363677Y-68871201D01*
X44349470Y-68875982D01*
X44341619Y-68880334D01*
X44267789Y-68903471D01*
X44188641Y-68930107D01*
X44179689Y-68931079D01*
X44176838Y-68931973D01*
X44094028Y-68940385D01*
X44051177Y-68945040D01*
X43974765Y-68945040D01*
X43883638Y-68929954D01*
X43744266Y-68908378D01*
X43738662Y-68905953D01*
X43729499Y-68904436D01*
X43656559Y-68870424D01*
X43588218Y-68840850D01*
X43578411Y-68833983D01*
X43562121Y-68826387D01*
X43502906Y-68781114D01*
X43446770Y-68741807D01*
X43434438Y-68728766D01*
X43415407Y-68714216D01*
X43371120Y-68661809D01*
X43328118Y-68616336D01*
X43315515Y-68596010D01*
X43296203Y-68573157D01*
X43266982Y-68517734D01*
X43237123Y-68469577D01*
X43226804Y-68441529D01*
X43210070Y-68409791D01*
X43195010Y-68355115D01*
X43177499Y-68307521D01*
X43172140Y-68272085D01*
X43161027Y-68231740D01*
X43158369Y-68181033D01*
X43151676Y-68136775D01*
X43153863Y-68095046D01*
X43151361Y-68047312D01*
X43158682Y-68003090D01*
X43160713Y-67964330D01*
X43172746Y-67918134D01*
X43181524Y-67865110D01*
X43195957Y-67829025D01*
X43204240Y-67797226D01*
X43227941Y-67749061D01*
X43250109Y-67693636D01*
X43268606Y-67666418D01*
X43280481Y-67642286D01*
X43317021Y-67595179D01*
X43353916Y-67540890D01*
X43373489Y-67522381D01*
X43386320Y-67505839D01*
X43436099Y-67463173D01*
X43488101Y-67413997D01*
X43506071Y-67403199D01*
X43517432Y-67393462D01*
X43579955Y-67358805D01*
X43646403Y-67318879D01*
X43660610Y-67314098D01*
X43668461Y-67309746D01*
X43742291Y-67286609D01*
X43821439Y-67259973D01*
X43830391Y-67259001D01*
X43833242Y-67258107D01*
X43916052Y-67249695D01*
X43958903Y-67245040D01*
X44035315Y-67245040D01*
X44126442Y-67260126D01*
X44126442Y-67260126D01*
G37*
G36*
X54286442Y-67260126D02*
G01*
X54425814Y-67281702D01*
X54431418Y-67284127D01*
X54440581Y-67285644D01*
X54513521Y-67319656D01*
X54581862Y-67349230D01*
X54591669Y-67356097D01*
X54607959Y-67363693D01*
X54667174Y-67408966D01*
X54723310Y-67448273D01*
X54735642Y-67461314D01*
X54754673Y-67475864D01*
X54798960Y-67528271D01*
X54841962Y-67573744D01*
X54854565Y-67594070D01*
X54873877Y-67616923D01*
X54903098Y-67672346D01*
X54932957Y-67720503D01*
X54943276Y-67748551D01*
X54960010Y-67780289D01*
X54975070Y-67834965D01*
X54992581Y-67882559D01*
X54997940Y-67917995D01*
X55009053Y-67958340D01*
X55011711Y-68009047D01*
X55018404Y-68053305D01*
X55016217Y-68095034D01*
X55018719Y-68142768D01*
X55011398Y-68186990D01*
X55009367Y-68225750D01*
X54997334Y-68271946D01*
X54988556Y-68324970D01*
X54974123Y-68361055D01*
X54965840Y-68392854D01*
X54942139Y-68441019D01*
X54919971Y-68496444D01*
X54901474Y-68523662D01*
X54889599Y-68547794D01*
X54853059Y-68594901D01*
X54816164Y-68649190D01*
X54796591Y-68667699D01*
X54783760Y-68684241D01*
X54733981Y-68726907D01*
X54681979Y-68776083D01*
X54664009Y-68786881D01*
X54652648Y-68796618D01*
X54590125Y-68831275D01*
X54523677Y-68871201D01*
X54509470Y-68875982D01*
X54501619Y-68880334D01*
X54427789Y-68903471D01*
X54348641Y-68930107D01*
X54339689Y-68931079D01*
X54336838Y-68931973D01*
X54254028Y-68940385D01*
X54211177Y-68945040D01*
X54134765Y-68945040D01*
X54043638Y-68929954D01*
X53904266Y-68908378D01*
X53898662Y-68905953D01*
X53889499Y-68904436D01*
X53816559Y-68870424D01*
X53748218Y-68840850D01*
X53738411Y-68833983D01*
X53722121Y-68826387D01*
X53662906Y-68781114D01*
X53606770Y-68741807D01*
X53594438Y-68728766D01*
X53575407Y-68714216D01*
X53531120Y-68661809D01*
X53488118Y-68616336D01*
X53475515Y-68596010D01*
X53456203Y-68573157D01*
X53426982Y-68517734D01*
X53397123Y-68469577D01*
X53386804Y-68441529D01*
X53370070Y-68409791D01*
X53355010Y-68355115D01*
X53337499Y-68307521D01*
X53332140Y-68272085D01*
X53321027Y-68231740D01*
X53318369Y-68181033D01*
X53311676Y-68136775D01*
X53313863Y-68095046D01*
X53311361Y-68047312D01*
X53318682Y-68003090D01*
X53320713Y-67964330D01*
X53332746Y-67918134D01*
X53341524Y-67865110D01*
X53355957Y-67829025D01*
X53364240Y-67797226D01*
X53387941Y-67749061D01*
X53410109Y-67693636D01*
X53428606Y-67666418D01*
X53440481Y-67642286D01*
X53477021Y-67595179D01*
X53513916Y-67540890D01*
X53533489Y-67522381D01*
X53546320Y-67505839D01*
X53596099Y-67463173D01*
X53648101Y-67413997D01*
X53666071Y-67403199D01*
X53677432Y-67393462D01*
X53739955Y-67358805D01*
X53806403Y-67318879D01*
X53820610Y-67314098D01*
X53828461Y-67309746D01*
X53902291Y-67286609D01*
X53981439Y-67259973D01*
X53990391Y-67259001D01*
X53993242Y-67258107D01*
X54076052Y-67249695D01*
X54118903Y-67245040D01*
X54195315Y-67245040D01*
X54286442Y-67260126D01*
X54286442Y-67260126D01*
G37*
G36*
X23086754Y-65902949D02*
G01*
X23159514Y-65906571D01*
X23188998Y-65913786D01*
X23216466Y-65916697D01*
X23289082Y-65938276D01*
X23363399Y-65956461D01*
X23387508Y-65967525D01*
X23410258Y-65974285D01*
X23481385Y-66010604D01*
X23554171Y-66044005D01*
X23572628Y-66057195D01*
X23590309Y-66066223D01*
X23656972Y-66117468D01*
X23724947Y-66166044D01*
X23737933Y-66179704D01*
X23750590Y-66189434D01*
X23809715Y-66255215D01*
X23869566Y-66318174D01*
X23877664Y-66330813D01*
X23885736Y-66339793D01*
X23934347Y-66419274D01*
X23982808Y-66494905D01*
X23986945Y-66505275D01*
X23991219Y-66512263D01*
X24026554Y-66604554D01*
X24060588Y-66689862D01*
X24061965Y-66697045D01*
X24063503Y-66701063D01*
X24083125Y-66807450D01*
X24100099Y-66896010D01*
X24099346Y-67111668D01*
X24093351Y-67141809D01*
X24092838Y-67160754D01*
X24074196Y-67238107D01*
X24058397Y-67317534D01*
X24050203Y-67337664D01*
X24045780Y-67356015D01*
X24011085Y-67433760D01*
X23979258Y-67511944D01*
X23969501Y-67526939D01*
X23963391Y-67540631D01*
X23912573Y-67614433D01*
X23864784Y-67687881D01*
X23855037Y-67697992D01*
X23848738Y-67707140D01*
X23781858Y-67773904D01*
X23719107Y-67838997D01*
X23710769Y-67844868D01*
X23705657Y-67849971D01*
X23622650Y-67906914D01*
X23547483Y-67959840D01*
X23541702Y-67962444D01*
X23538950Y-67964332D01*
X23435807Y-68010147D01*
X23356105Y-68046050D01*
X23297930Y-68059856D01*
X23157564Y-68093425D01*
X23156172Y-68093497D01*
X23151877Y-68094516D01*
X23060615Y-68098421D01*
X22955668Y-68103829D01*
X22950434Y-68103135D01*
X22942169Y-68103489D01*
X22851705Y-68090050D01*
X22755252Y-68077266D01*
X22746539Y-68074426D01*
X22734547Y-68072645D01*
X22650482Y-68043123D01*
X22563032Y-68014625D01*
X22551565Y-68008386D01*
X22536504Y-68003097D01*
X22462190Y-67959759D01*
X22385453Y-67918007D01*
X22372297Y-67907335D01*
X22355185Y-67897355D01*
X22292900Y-67842925D01*
X22228445Y-67790636D01*
X22214939Y-67774795D01*
X22197133Y-67759234D01*
X22148431Y-67696786D01*
X22097285Y-67636796D01*
X22084949Y-67615387D01*
X22068050Y-67593718D01*
X22033675Y-67526398D01*
X21996353Y-67461625D01*
X21986831Y-67434660D01*
X21972594Y-67406779D01*
X21952587Y-67337690D01*
X21929035Y-67270995D01*
X21923981Y-67238905D01*
X21914210Y-67205162D01*
X21907967Y-67137219D01*
X21897584Y-67071290D01*
X21898568Y-67034928D01*
X21895004Y-66996143D01*
X21901354Y-66931958D01*
X21903052Y-66869201D01*
X21911459Y-66829820D01*
X21915669Y-66787263D01*
X21932977Y-66729018D01*
X21945259Y-66671484D01*
X21962193Y-66630703D01*
X21975459Y-66586059D01*
X22001728Y-66535489D01*
X22022787Y-66484773D01*
X22049004Y-66444480D01*
X22072218Y-66399791D01*
X22105228Y-66358068D01*
X22133042Y-66315320D01*
X22168852Y-66277650D01*
X22202453Y-66235180D01*
X22239890Y-66202922D01*
X22272336Y-66168791D01*
X22317587Y-66135974D01*
X22361466Y-66098166D01*
X22401024Y-66075465D01*
X22435993Y-66050105D01*
X22490016Y-66024395D01*
X22543518Y-65993692D01*
X22583059Y-65980115D01*
X22618544Y-65963228D01*
X22680157Y-65946776D01*
X22742042Y-65925528D01*
X22779659Y-65920208D01*
X22813863Y-65911075D01*
X22881399Y-65905819D01*
X22949874Y-65896135D01*
X22984006Y-65897834D01*
X23015426Y-65895389D01*
X23086754Y-65902949D01*
X23086754Y-65902949D01*
G37*
G36*
X67086754Y-65902949D02*
G01*
X67159514Y-65906571D01*
X67188998Y-65913786D01*
X67216466Y-65916697D01*
X67289082Y-65938276D01*
X67363399Y-65956461D01*
X67387508Y-65967525D01*
X67410258Y-65974285D01*
X67481385Y-66010604D01*
X67554171Y-66044005D01*
X67572628Y-66057195D01*
X67590309Y-66066223D01*
X67656972Y-66117468D01*
X67724947Y-66166044D01*
X67737933Y-66179704D01*
X67750590Y-66189434D01*
X67809715Y-66255215D01*
X67869566Y-66318174D01*
X67877664Y-66330813D01*
X67885736Y-66339793D01*
X67934347Y-66419274D01*
X67982808Y-66494905D01*
X67986945Y-66505275D01*
X67991219Y-66512263D01*
X68026554Y-66604554D01*
X68060588Y-66689862D01*
X68061965Y-66697045D01*
X68063503Y-66701063D01*
X68083125Y-66807450D01*
X68100099Y-66896010D01*
X68099346Y-67111668D01*
X68093351Y-67141809D01*
X68092838Y-67160754D01*
X68074196Y-67238107D01*
X68058397Y-67317534D01*
X68050203Y-67337664D01*
X68045780Y-67356015D01*
X68011085Y-67433760D01*
X67979258Y-67511944D01*
X67969501Y-67526939D01*
X67963391Y-67540631D01*
X67912573Y-67614433D01*
X67864784Y-67687881D01*
X67855037Y-67697992D01*
X67848738Y-67707140D01*
X67781858Y-67773904D01*
X67719107Y-67838997D01*
X67710769Y-67844868D01*
X67705657Y-67849971D01*
X67622650Y-67906914D01*
X67547483Y-67959840D01*
X67541702Y-67962444D01*
X67538950Y-67964332D01*
X67435807Y-68010147D01*
X67356105Y-68046050D01*
X67297930Y-68059856D01*
X67157564Y-68093425D01*
X67156172Y-68093497D01*
X67151877Y-68094516D01*
X67060615Y-68098421D01*
X66955668Y-68103829D01*
X66950434Y-68103135D01*
X66942169Y-68103489D01*
X66851705Y-68090050D01*
X66755252Y-68077266D01*
X66746539Y-68074426D01*
X66734547Y-68072645D01*
X66650482Y-68043123D01*
X66563032Y-68014625D01*
X66551565Y-68008386D01*
X66536504Y-68003097D01*
X66462190Y-67959759D01*
X66385453Y-67918007D01*
X66372297Y-67907335D01*
X66355185Y-67897355D01*
X66292900Y-67842925D01*
X66228445Y-67790636D01*
X66214939Y-67774795D01*
X66197133Y-67759234D01*
X66148431Y-67696786D01*
X66097285Y-67636796D01*
X66084949Y-67615387D01*
X66068050Y-67593718D01*
X66033675Y-67526398D01*
X65996353Y-67461625D01*
X65986831Y-67434660D01*
X65972594Y-67406779D01*
X65952587Y-67337690D01*
X65929035Y-67270995D01*
X65923981Y-67238905D01*
X65914210Y-67205162D01*
X65907967Y-67137219D01*
X65897584Y-67071290D01*
X65898568Y-67034928D01*
X65895004Y-66996143D01*
X65901354Y-66931958D01*
X65903052Y-66869201D01*
X65911459Y-66829820D01*
X65915669Y-66787263D01*
X65932977Y-66729018D01*
X65945259Y-66671484D01*
X65962193Y-66630703D01*
X65975459Y-66586059D01*
X66001728Y-66535489D01*
X66022787Y-66484773D01*
X66049004Y-66444480D01*
X66072218Y-66399791D01*
X66105228Y-66358068D01*
X66133042Y-66315320D01*
X66168852Y-66277650D01*
X66202453Y-66235180D01*
X66239890Y-66202922D01*
X66272336Y-66168791D01*
X66317587Y-66135974D01*
X66361466Y-66098166D01*
X66401024Y-66075465D01*
X66435993Y-66050105D01*
X66490016Y-66024395D01*
X66543518Y-65993692D01*
X66583059Y-65980115D01*
X66618544Y-65963228D01*
X66680157Y-65946776D01*
X66742042Y-65925528D01*
X66779659Y-65920208D01*
X66813863Y-65911075D01*
X66881399Y-65905819D01*
X66949874Y-65896135D01*
X66984006Y-65897834D01*
X67015426Y-65895389D01*
X67086754Y-65902949D01*
X67086754Y-65902949D01*
G37*
G36*
X34224901Y-66220962D02*
G01*
X34233444Y-66225585D01*
X34238706Y-66226632D01*
X34252884Y-66236106D01*
X34298277Y-66260671D01*
X34312067Y-66275651D01*
X34321400Y-66281887D01*
X34330910Y-66296120D01*
X34354787Y-66322057D01*
X34367296Y-66350574D01*
X34376655Y-66364581D01*
X34379323Y-66377994D01*
X34389153Y-66400404D01*
X34397441Y-66466893D01*
X34397441Y-67095488D01*
X34382325Y-67186072D01*
X34377702Y-67194615D01*
X34376655Y-67199877D01*
X34367181Y-67214055D01*
X34342616Y-67259448D01*
X34327636Y-67273238D01*
X34321400Y-67282571D01*
X34307167Y-67292081D01*
X34281230Y-67315958D01*
X34252713Y-67328467D01*
X34238706Y-67337826D01*
X34225293Y-67340494D01*
X34202883Y-67350324D01*
X34136394Y-67358612D01*
X33257799Y-67358612D01*
X33167215Y-67343496D01*
X33158672Y-67338873D01*
X33153410Y-67337826D01*
X33139232Y-67328352D01*
X33093839Y-67303787D01*
X33080049Y-67288807D01*
X33070716Y-67282571D01*
X33061206Y-67268338D01*
X33037329Y-67242401D01*
X33024820Y-67213884D01*
X33015461Y-67199877D01*
X33012793Y-67186464D01*
X33002963Y-67164054D01*
X32994675Y-67097565D01*
X32994675Y-66468970D01*
X33009791Y-66378386D01*
X33014414Y-66369843D01*
X33015461Y-66364581D01*
X33024935Y-66350403D01*
X33049500Y-66305010D01*
X33064480Y-66291220D01*
X33070716Y-66281887D01*
X33084949Y-66272377D01*
X33110886Y-66248500D01*
X33139403Y-66235991D01*
X33153410Y-66226632D01*
X33166823Y-66223964D01*
X33189233Y-66214134D01*
X33255722Y-66205846D01*
X34134317Y-66205846D01*
X34224901Y-66220962D01*
X34224901Y-66220962D01*
G37*
G36*
X36424901Y-66220962D02*
G01*
X36433444Y-66225585D01*
X36438706Y-66226632D01*
X36452884Y-66236106D01*
X36498277Y-66260671D01*
X36512067Y-66275651D01*
X36521400Y-66281887D01*
X36530910Y-66296120D01*
X36554787Y-66322057D01*
X36567296Y-66350574D01*
X36576655Y-66364581D01*
X36579323Y-66377994D01*
X36589153Y-66400404D01*
X36597441Y-66466893D01*
X36597441Y-67095488D01*
X36582325Y-67186072D01*
X36577702Y-67194615D01*
X36576655Y-67199877D01*
X36567181Y-67214055D01*
X36542616Y-67259448D01*
X36527636Y-67273238D01*
X36521400Y-67282571D01*
X36507167Y-67292081D01*
X36481230Y-67315958D01*
X36452713Y-67328467D01*
X36438706Y-67337826D01*
X36425293Y-67340494D01*
X36402883Y-67350324D01*
X36336394Y-67358612D01*
X35457799Y-67358612D01*
X35367215Y-67343496D01*
X35358672Y-67338873D01*
X35353410Y-67337826D01*
X35339232Y-67328352D01*
X35293839Y-67303787D01*
X35280049Y-67288807D01*
X35270716Y-67282571D01*
X35261206Y-67268338D01*
X35237329Y-67242401D01*
X35224820Y-67213884D01*
X35215461Y-67199877D01*
X35212793Y-67186464D01*
X35202963Y-67164054D01*
X35194675Y-67097565D01*
X35194675Y-66468970D01*
X35209791Y-66378386D01*
X35214414Y-66369843D01*
X35215461Y-66364581D01*
X35224935Y-66350403D01*
X35249500Y-66305010D01*
X35264480Y-66291220D01*
X35270716Y-66281887D01*
X35284949Y-66272377D01*
X35310886Y-66248500D01*
X35339403Y-66235991D01*
X35353410Y-66226632D01*
X35366823Y-66223964D01*
X35389233Y-66214134D01*
X35455722Y-66205846D01*
X36334317Y-66205846D01*
X36424901Y-66220962D01*
X36424901Y-66220962D01*
G37*
G36*
X38763883Y-65863773D02*
G01*
X38772426Y-65868396D01*
X38777688Y-65869443D01*
X38791866Y-65878917D01*
X38837259Y-65903482D01*
X38851049Y-65918462D01*
X38860382Y-65924698D01*
X38869892Y-65938931D01*
X38893769Y-65964868D01*
X38906278Y-65993385D01*
X38915637Y-66007392D01*
X38918305Y-66020805D01*
X38928135Y-66043215D01*
X38936423Y-66109704D01*
X38936423Y-66738299D01*
X38921307Y-66828883D01*
X38916684Y-66837426D01*
X38915637Y-66842688D01*
X38906163Y-66856866D01*
X38881598Y-66902259D01*
X38866618Y-66916049D01*
X38860382Y-66925382D01*
X38846149Y-66934892D01*
X38820212Y-66958769D01*
X38791695Y-66971278D01*
X38777688Y-66980637D01*
X38764275Y-66983305D01*
X38741865Y-66993135D01*
X38675376Y-67001423D01*
X37796781Y-67001423D01*
X37706197Y-66986307D01*
X37697654Y-66981684D01*
X37692392Y-66980637D01*
X37678214Y-66971163D01*
X37632821Y-66946598D01*
X37619031Y-66931618D01*
X37609698Y-66925382D01*
X37600188Y-66911149D01*
X37576311Y-66885212D01*
X37563802Y-66856695D01*
X37554443Y-66842688D01*
X37551775Y-66829275D01*
X37541945Y-66806865D01*
X37533657Y-66740376D01*
X37533657Y-66111781D01*
X37548773Y-66021197D01*
X37553396Y-66012654D01*
X37554443Y-66007392D01*
X37563917Y-65993214D01*
X37588482Y-65947821D01*
X37603462Y-65934031D01*
X37609698Y-65924698D01*
X37623931Y-65915188D01*
X37649868Y-65891311D01*
X37678385Y-65878802D01*
X37692392Y-65869443D01*
X37705805Y-65866775D01*
X37728215Y-65856945D01*
X37794704Y-65848657D01*
X38673299Y-65848657D01*
X38763883Y-65863773D01*
X38763883Y-65863773D01*
G37*
G36*
X31939901Y-65405962D02*
G01*
X31948444Y-65410585D01*
X31953706Y-65411632D01*
X31967884Y-65421106D01*
X32013277Y-65445671D01*
X32027067Y-65460651D01*
X32036400Y-65466887D01*
X32045910Y-65481120D01*
X32069787Y-65507057D01*
X32082296Y-65535574D01*
X32091655Y-65549581D01*
X32094323Y-65562994D01*
X32104153Y-65585404D01*
X32112441Y-65651893D01*
X32112441Y-66280488D01*
X32097325Y-66371072D01*
X32092702Y-66379615D01*
X32091655Y-66384877D01*
X32082181Y-66399055D01*
X32057616Y-66444448D01*
X32042636Y-66458238D01*
X32036400Y-66467571D01*
X32022167Y-66477081D01*
X31996230Y-66500958D01*
X31967713Y-66513467D01*
X31953706Y-66522826D01*
X31940293Y-66525494D01*
X31917883Y-66535324D01*
X31851394Y-66543612D01*
X30972799Y-66543612D01*
X30882215Y-66528496D01*
X30873672Y-66523873D01*
X30868410Y-66522826D01*
X30854232Y-66513352D01*
X30808839Y-66488787D01*
X30795049Y-66473807D01*
X30785716Y-66467571D01*
X30776206Y-66453338D01*
X30752329Y-66427401D01*
X30739820Y-66398884D01*
X30730461Y-66384877D01*
X30727793Y-66371464D01*
X30717963Y-66349054D01*
X30709675Y-66282565D01*
X30709675Y-65653970D01*
X30724791Y-65563386D01*
X30729414Y-65554843D01*
X30730461Y-65549581D01*
X30739935Y-65535403D01*
X30764500Y-65490010D01*
X30779480Y-65476220D01*
X30785716Y-65466887D01*
X30799949Y-65457377D01*
X30825886Y-65433500D01*
X30854403Y-65420991D01*
X30868410Y-65411632D01*
X30881823Y-65408964D01*
X30904233Y-65399134D01*
X30970722Y-65390846D01*
X31849317Y-65390846D01*
X31939901Y-65405962D01*
X31939901Y-65405962D01*
G37*
G36*
X34224901Y-64170962D02*
G01*
X34233444Y-64175585D01*
X34238706Y-64176632D01*
X34252884Y-64186106D01*
X34298277Y-64210671D01*
X34312067Y-64225651D01*
X34321400Y-64231887D01*
X34330910Y-64246120D01*
X34354787Y-64272057D01*
X34367296Y-64300574D01*
X34376655Y-64314581D01*
X34379323Y-64327994D01*
X34389153Y-64350404D01*
X34397441Y-64416893D01*
X34397441Y-65045488D01*
X34382325Y-65136072D01*
X34377702Y-65144615D01*
X34376655Y-65149877D01*
X34367181Y-65164055D01*
X34342616Y-65209448D01*
X34327636Y-65223238D01*
X34321400Y-65232571D01*
X34307167Y-65242081D01*
X34281230Y-65265958D01*
X34252713Y-65278467D01*
X34238706Y-65287826D01*
X34225293Y-65290494D01*
X34202883Y-65300324D01*
X34136394Y-65308612D01*
X33257799Y-65308612D01*
X33167215Y-65293496D01*
X33158672Y-65288873D01*
X33153410Y-65287826D01*
X33139232Y-65278352D01*
X33093839Y-65253787D01*
X33080049Y-65238807D01*
X33070716Y-65232571D01*
X33061206Y-65218338D01*
X33037329Y-65192401D01*
X33024820Y-65163884D01*
X33015461Y-65149877D01*
X33012793Y-65136464D01*
X33002963Y-65114054D01*
X32994675Y-65047565D01*
X32994675Y-64418970D01*
X33009791Y-64328386D01*
X33014414Y-64319843D01*
X33015461Y-64314581D01*
X33024935Y-64300403D01*
X33049500Y-64255010D01*
X33064480Y-64241220D01*
X33070716Y-64231887D01*
X33084949Y-64222377D01*
X33110886Y-64198500D01*
X33139403Y-64185991D01*
X33153410Y-64176632D01*
X33166823Y-64173964D01*
X33189233Y-64164134D01*
X33255722Y-64155846D01*
X34134317Y-64155846D01*
X34224901Y-64170962D01*
X34224901Y-64170962D01*
G37*
G36*
X36424901Y-64170962D02*
G01*
X36433444Y-64175585D01*
X36438706Y-64176632D01*
X36452884Y-64186106D01*
X36498277Y-64210671D01*
X36512067Y-64225651D01*
X36521400Y-64231887D01*
X36530910Y-64246120D01*
X36554787Y-64272057D01*
X36567296Y-64300574D01*
X36576655Y-64314581D01*
X36579323Y-64327994D01*
X36589153Y-64350404D01*
X36597441Y-64416893D01*
X36597441Y-65045488D01*
X36582325Y-65136072D01*
X36577702Y-65144615D01*
X36576655Y-65149877D01*
X36567181Y-65164055D01*
X36542616Y-65209448D01*
X36527636Y-65223238D01*
X36521400Y-65232571D01*
X36507167Y-65242081D01*
X36481230Y-65265958D01*
X36452713Y-65278467D01*
X36438706Y-65287826D01*
X36425293Y-65290494D01*
X36402883Y-65300324D01*
X36336394Y-65308612D01*
X35457799Y-65308612D01*
X35367215Y-65293496D01*
X35358672Y-65288873D01*
X35353410Y-65287826D01*
X35339232Y-65278352D01*
X35293839Y-65253787D01*
X35280049Y-65238807D01*
X35270716Y-65232571D01*
X35261206Y-65218338D01*
X35237329Y-65192401D01*
X35224820Y-65163884D01*
X35215461Y-65149877D01*
X35212793Y-65136464D01*
X35202963Y-65114054D01*
X35194675Y-65047565D01*
X35194675Y-64418970D01*
X35209791Y-64328386D01*
X35214414Y-64319843D01*
X35215461Y-64314581D01*
X35224935Y-64300403D01*
X35249500Y-64255010D01*
X35264480Y-64241220D01*
X35270716Y-64231887D01*
X35284949Y-64222377D01*
X35310886Y-64198500D01*
X35339403Y-64185991D01*
X35353410Y-64176632D01*
X35366823Y-64173964D01*
X35389233Y-64164134D01*
X35455722Y-64155846D01*
X36334317Y-64155846D01*
X36424901Y-64170962D01*
X36424901Y-64170962D01*
G37*
G36*
X52295040Y-60455040D02*
G01*
X52296999Y-60464890D01*
X52296999Y-65045190D01*
X52295040Y-65055040D01*
X52285190Y-65056999D01*
X49804890Y-65056999D01*
X49795039Y-65055040D01*
X49795040Y-65055040D01*
X49793081Y-65045190D01*
X49793081Y-60464890D01*
X49795040Y-60455040D01*
X49804890Y-60453081D01*
X52285190Y-60453081D01*
X52295040Y-60455040D01*
X52295040Y-60455040D01*
G37*
G36*
X45395040Y-60455040D02*
G01*
X45396999Y-60464890D01*
X45396999Y-65045190D01*
X45395040Y-65055040D01*
X45385190Y-65056999D01*
X42904890Y-65056999D01*
X42895039Y-65055040D01*
X42895040Y-65055040D01*
X42893081Y-65045190D01*
X42893081Y-60464890D01*
X42895040Y-60455040D01*
X42904890Y-60453081D01*
X45385190Y-60453081D01*
X45395040Y-60455040D01*
X45395040Y-60455040D01*
G37*
G36*
X31939901Y-63355962D02*
G01*
X31948444Y-63360585D01*
X31953706Y-63361632D01*
X31967884Y-63371106D01*
X32013277Y-63395671D01*
X32027067Y-63410651D01*
X32036400Y-63416887D01*
X32045910Y-63431120D01*
X32069787Y-63457057D01*
X32082296Y-63485574D01*
X32091655Y-63499581D01*
X32094323Y-63512994D01*
X32104153Y-63535404D01*
X32112441Y-63601893D01*
X32112441Y-64230488D01*
X32097325Y-64321072D01*
X32092702Y-64329615D01*
X32091655Y-64334877D01*
X32082181Y-64349055D01*
X32057616Y-64394448D01*
X32042636Y-64408238D01*
X32036400Y-64417571D01*
X32022167Y-64427081D01*
X31996230Y-64450958D01*
X31967713Y-64463467D01*
X31953706Y-64472826D01*
X31940293Y-64475494D01*
X31917883Y-64485324D01*
X31851394Y-64493612D01*
X30972799Y-64493612D01*
X30882215Y-64478496D01*
X30873672Y-64473873D01*
X30868410Y-64472826D01*
X30854232Y-64463352D01*
X30808839Y-64438787D01*
X30795049Y-64423807D01*
X30785716Y-64417571D01*
X30776206Y-64403338D01*
X30752329Y-64377401D01*
X30739820Y-64348884D01*
X30730461Y-64334877D01*
X30727793Y-64321464D01*
X30717963Y-64299054D01*
X30709675Y-64232565D01*
X30709675Y-63603970D01*
X30724791Y-63513386D01*
X30729414Y-63504843D01*
X30730461Y-63499581D01*
X30739935Y-63485403D01*
X30764500Y-63440010D01*
X30779480Y-63426220D01*
X30785716Y-63416887D01*
X30799949Y-63407377D01*
X30825886Y-63383500D01*
X30854403Y-63370991D01*
X30868410Y-63361632D01*
X30881823Y-63358964D01*
X30904233Y-63349134D01*
X30970722Y-63340846D01*
X31849317Y-63340846D01*
X31939901Y-63355962D01*
X31939901Y-63355962D01*
G37*
G36*
X56238879Y-62245680D02*
G01*
X56247424Y-62250304D01*
X56252687Y-62251351D01*
X56266871Y-62260828D01*
X56312261Y-62285392D01*
X56326049Y-62300370D01*
X56335382Y-62306606D01*
X56344893Y-62320841D01*
X56368769Y-62346777D01*
X56381278Y-62375294D01*
X56390637Y-62389301D01*
X56393305Y-62402712D01*
X56403135Y-62425123D01*
X56411423Y-62491613D01*
X56411423Y-63470206D01*
X56396308Y-63560787D01*
X56391684Y-63569332D01*
X56390637Y-63574595D01*
X56381160Y-63588779D01*
X56356596Y-63634169D01*
X56341618Y-63647957D01*
X56335382Y-63657290D01*
X56321147Y-63666801D01*
X56295211Y-63690677D01*
X56266694Y-63703186D01*
X56252687Y-63712545D01*
X56239276Y-63715213D01*
X56216865Y-63725043D01*
X56150375Y-63733331D01*
X54321782Y-63733331D01*
X54231201Y-63718216D01*
X54222656Y-63713592D01*
X54217393Y-63712545D01*
X54203209Y-63703068D01*
X54157819Y-63678504D01*
X54144031Y-63663526D01*
X54134698Y-63657290D01*
X54125187Y-63643055D01*
X54101311Y-63617119D01*
X54088802Y-63588602D01*
X54079443Y-63574595D01*
X54076775Y-63561184D01*
X54066945Y-63538773D01*
X54058657Y-63472283D01*
X54058657Y-62493690D01*
X54073772Y-62403109D01*
X54078396Y-62394564D01*
X54079443Y-62389301D01*
X54088920Y-62375117D01*
X54113484Y-62329727D01*
X54128462Y-62315939D01*
X54134698Y-62306606D01*
X54148933Y-62297095D01*
X54174869Y-62273219D01*
X54203386Y-62260710D01*
X54217393Y-62251351D01*
X54230804Y-62248683D01*
X54253215Y-62238853D01*
X54319705Y-62230565D01*
X56148298Y-62230565D01*
X56238879Y-62245680D01*
X56238879Y-62245680D01*
G37*
G36*
X64975040Y-61325040D02*
G01*
X64976999Y-61334890D01*
X64976999Y-63715190D01*
X64975040Y-63725040D01*
X64965190Y-63726999D01*
X64244890Y-63726999D01*
X64235040Y-63725040D01*
X64233081Y-63715190D01*
X64233081Y-61334890D01*
X64235040Y-61325040D01*
X64244890Y-61323081D01*
X64965190Y-61323081D01*
X64975040Y-61325040D01*
X64975040Y-61325040D01*
G37*
G36*
X63705040Y-61325040D02*
G01*
X63706999Y-61334890D01*
X63706999Y-63715190D01*
X63705040Y-63725040D01*
X63695190Y-63726999D01*
X62974890Y-63726999D01*
X62965040Y-63725040D01*
X62963081Y-63715190D01*
X62963081Y-61334890D01*
X62965040Y-61325040D01*
X62974890Y-61323081D01*
X63695190Y-61323081D01*
X63705040Y-61325040D01*
X63705040Y-61325040D01*
G37*
G36*
X62435040Y-61325040D02*
G01*
X62436999Y-61334890D01*
X62436999Y-63715190D01*
X62435040Y-63725040D01*
X62425190Y-63726999D01*
X61704890Y-63726999D01*
X61695040Y-63725040D01*
X61693081Y-63715190D01*
X61693081Y-61334890D01*
X61695040Y-61325040D01*
X61704890Y-61323081D01*
X62425190Y-61323081D01*
X62435040Y-61325040D01*
X62435040Y-61325040D01*
G37*
G36*
X61165040Y-61325040D02*
G01*
X61166999Y-61334890D01*
X61166999Y-63715190D01*
X61165040Y-63725040D01*
X61155190Y-63726999D01*
X60434890Y-63726999D01*
X60425040Y-63725040D01*
X60423081Y-63715190D01*
X60423081Y-61334890D01*
X60425040Y-61325040D01*
X60434890Y-61323081D01*
X61155190Y-61323081D01*
X61165040Y-61325040D01*
X61165040Y-61325040D01*
G37*
G36*
X59895040Y-61325040D02*
G01*
X59896999Y-61334890D01*
X59896999Y-63715190D01*
X59895040Y-63725040D01*
X59885190Y-63726999D01*
X59164890Y-63726999D01*
X59155040Y-63725040D01*
X59153081Y-63715190D01*
X59153081Y-61334890D01*
X59155040Y-61325040D01*
X59164890Y-61323081D01*
X59885190Y-61323081D01*
X59895040Y-61325040D01*
X59895040Y-61325040D01*
G37*
G36*
X36246058Y-61007229D02*
G01*
X36248017Y-61017079D01*
X36248017Y-62547379D01*
X36246058Y-62557229D01*
X36236208Y-62559188D01*
X35655908Y-62559188D01*
X35646058Y-62557229D01*
X35644099Y-62547379D01*
X35644099Y-61017079D01*
X35646058Y-61007229D01*
X35655908Y-61005270D01*
X36236208Y-61005270D01*
X36246058Y-61007229D01*
X36246058Y-61007229D01*
G37*
G36*
X34976058Y-61007229D02*
G01*
X34978017Y-61017079D01*
X34978017Y-62547379D01*
X34976058Y-62557229D01*
X34966208Y-62559188D01*
X34385908Y-62559188D01*
X34376058Y-62557229D01*
X34374099Y-62547379D01*
X34374099Y-61017079D01*
X34376058Y-61007229D01*
X34385908Y-61005270D01*
X34966208Y-61005270D01*
X34976058Y-61007229D01*
X34976058Y-61007229D01*
G37*
G36*
X33706058Y-61007229D02*
G01*
X33708017Y-61017079D01*
X33708017Y-62547379D01*
X33706058Y-62557229D01*
X33696208Y-62559188D01*
X33115908Y-62559188D01*
X33106058Y-62557229D01*
X33104099Y-62547379D01*
X33104099Y-61017079D01*
X33106058Y-61007229D01*
X33115908Y-61005270D01*
X33696208Y-61005270D01*
X33706058Y-61007229D01*
X33706058Y-61007229D01*
G37*
G36*
X37516058Y-61007229D02*
G01*
X37518017Y-61017079D01*
X37518017Y-62547379D01*
X37516058Y-62557229D01*
X37506208Y-62559188D01*
X36925908Y-62559188D01*
X36916058Y-62557229D01*
X36914099Y-62547379D01*
X36914099Y-61017079D01*
X36916058Y-61007229D01*
X36925908Y-61005270D01*
X37506208Y-61005270D01*
X37516058Y-61007229D01*
X37516058Y-61007229D01*
G37*
G36*
X31919901Y-61320962D02*
G01*
X31928444Y-61325585D01*
X31933706Y-61326632D01*
X31947884Y-61336106D01*
X31993277Y-61360671D01*
X32007067Y-61375651D01*
X32016400Y-61381887D01*
X32025910Y-61396120D01*
X32049787Y-61422057D01*
X32062296Y-61450574D01*
X32071655Y-61464581D01*
X32074323Y-61477994D01*
X32084153Y-61500404D01*
X32092441Y-61566893D01*
X32092441Y-62195488D01*
X32077325Y-62286072D01*
X32072702Y-62294615D01*
X32071655Y-62299877D01*
X32062181Y-62314055D01*
X32037616Y-62359448D01*
X32022636Y-62373238D01*
X32016400Y-62382571D01*
X32002167Y-62392081D01*
X31976230Y-62415958D01*
X31947713Y-62428467D01*
X31933706Y-62437826D01*
X31920293Y-62440494D01*
X31897883Y-62450324D01*
X31831394Y-62458612D01*
X30952799Y-62458612D01*
X30862215Y-62443496D01*
X30853672Y-62438873D01*
X30848410Y-62437826D01*
X30834232Y-62428352D01*
X30788839Y-62403787D01*
X30775049Y-62388807D01*
X30765716Y-62382571D01*
X30756206Y-62368338D01*
X30732329Y-62342401D01*
X30719820Y-62313884D01*
X30710461Y-62299877D01*
X30707793Y-62286464D01*
X30697963Y-62264054D01*
X30689675Y-62197565D01*
X30689675Y-61568970D01*
X30704791Y-61478386D01*
X30709414Y-61469843D01*
X30710461Y-61464581D01*
X30719935Y-61450403D01*
X30744500Y-61405010D01*
X30759480Y-61391220D01*
X30765716Y-61381887D01*
X30779949Y-61372377D01*
X30805886Y-61348500D01*
X30834403Y-61335991D01*
X30848410Y-61326632D01*
X30861823Y-61323964D01*
X30884233Y-61314134D01*
X30950722Y-61305846D01*
X31829317Y-61305846D01*
X31919901Y-61320962D01*
X31919901Y-61320962D01*
G37*
G36*
X27728040Y-60291040D02*
G01*
X27729999Y-60300890D01*
X27729999Y-61781190D01*
X27728040Y-61791040D01*
X27718190Y-61792999D01*
X26237890Y-61792999D01*
X26228039Y-61791040D01*
X26228040Y-61791040D01*
X26226081Y-61781190D01*
X26226081Y-60300890D01*
X26228040Y-60291040D01*
X26237890Y-60289081D01*
X27718190Y-60289081D01*
X27728040Y-60291040D01*
X27728040Y-60291040D01*
G37*
G36*
X40487781Y-59597282D02*
G01*
X40496324Y-59601905D01*
X40501586Y-59602952D01*
X40515764Y-59612426D01*
X40561157Y-59636991D01*
X40574947Y-59651971D01*
X40584280Y-59658207D01*
X40593790Y-59672440D01*
X40617667Y-59698377D01*
X40630176Y-59726894D01*
X40639535Y-59740901D01*
X40642203Y-59754314D01*
X40652033Y-59776724D01*
X40660321Y-59843213D01*
X40660321Y-60471808D01*
X40645205Y-60562392D01*
X40640582Y-60570935D01*
X40639535Y-60576197D01*
X40630061Y-60590375D01*
X40605496Y-60635768D01*
X40590516Y-60649558D01*
X40584280Y-60658891D01*
X40570047Y-60668401D01*
X40544110Y-60692278D01*
X40515593Y-60704787D01*
X40501586Y-60714146D01*
X40488173Y-60716814D01*
X40465763Y-60726644D01*
X40399274Y-60734932D01*
X39520679Y-60734932D01*
X39430095Y-60719816D01*
X39421552Y-60715193D01*
X39416290Y-60714146D01*
X39402112Y-60704672D01*
X39356719Y-60680107D01*
X39342929Y-60665127D01*
X39333596Y-60658891D01*
X39324086Y-60644658D01*
X39300209Y-60618721D01*
X39287700Y-60590204D01*
X39278341Y-60576197D01*
X39275673Y-60562784D01*
X39265843Y-60540374D01*
X39257555Y-60473885D01*
X39257555Y-59845290D01*
X39272671Y-59754706D01*
X39277294Y-59746163D01*
X39278341Y-59740901D01*
X39287815Y-59726723D01*
X39312380Y-59681330D01*
X39327360Y-59667540D01*
X39333596Y-59658207D01*
X39347829Y-59648697D01*
X39373766Y-59624820D01*
X39402283Y-59612311D01*
X39416290Y-59602952D01*
X39429703Y-59600284D01*
X39452113Y-59590454D01*
X39518602Y-59582166D01*
X40397197Y-59582166D01*
X40487781Y-59597282D01*
X40487781Y-59597282D01*
G37*
G36*
X69285040Y-59015040D02*
G01*
X69286999Y-59024890D01*
X69286999Y-60505190D01*
X69285040Y-60515040D01*
X69275190Y-60516999D01*
X67794890Y-60516999D01*
X67785039Y-60515040D01*
X67785040Y-60515040D01*
X67783081Y-60505190D01*
X67783081Y-59024890D01*
X67785040Y-59015040D01*
X67794890Y-59013081D01*
X69275190Y-59013081D01*
X69285040Y-59015040D01*
X69285040Y-59015040D01*
G37*
G36*
X56238879Y-58995680D02*
G01*
X56247424Y-59000304D01*
X56252687Y-59001351D01*
X56266871Y-59010828D01*
X56312261Y-59035392D01*
X56326049Y-59050370D01*
X56335382Y-59056606D01*
X56344893Y-59070841D01*
X56368769Y-59096777D01*
X56381278Y-59125294D01*
X56390637Y-59139301D01*
X56393305Y-59152712D01*
X56403135Y-59175123D01*
X56411423Y-59241613D01*
X56411423Y-60220206D01*
X56396308Y-60310787D01*
X56391684Y-60319332D01*
X56390637Y-60324595D01*
X56381160Y-60338779D01*
X56356596Y-60384169D01*
X56341618Y-60397957D01*
X56335382Y-60407290D01*
X56321147Y-60416801D01*
X56295211Y-60440677D01*
X56266694Y-60453186D01*
X56252687Y-60462545D01*
X56239276Y-60465213D01*
X56216865Y-60475043D01*
X56150375Y-60483331D01*
X54321782Y-60483331D01*
X54231201Y-60468216D01*
X54222656Y-60463592D01*
X54217393Y-60462545D01*
X54203209Y-60453068D01*
X54157819Y-60428504D01*
X54144031Y-60413526D01*
X54134698Y-60407290D01*
X54125187Y-60393055D01*
X54101311Y-60367119D01*
X54088802Y-60338602D01*
X54079443Y-60324595D01*
X54076775Y-60311184D01*
X54066945Y-60288773D01*
X54058657Y-60222283D01*
X54058657Y-59243690D01*
X54073772Y-59153109D01*
X54078396Y-59144564D01*
X54079443Y-59139301D01*
X54088920Y-59125117D01*
X54113484Y-59079727D01*
X54128462Y-59065939D01*
X54134698Y-59056606D01*
X54148933Y-59047095D01*
X54174869Y-59023219D01*
X54203386Y-59010710D01*
X54217393Y-59001351D01*
X54230804Y-58998683D01*
X54253215Y-58988853D01*
X54319705Y-58980565D01*
X56148298Y-58980565D01*
X56238879Y-58995680D01*
X56238879Y-58995680D01*
G37*
G36*
X31919901Y-59270962D02*
G01*
X31928444Y-59275585D01*
X31933706Y-59276632D01*
X31947884Y-59286106D01*
X31993277Y-59310671D01*
X32007067Y-59325651D01*
X32016400Y-59331887D01*
X32025910Y-59346120D01*
X32049787Y-59372057D01*
X32062296Y-59400574D01*
X32071655Y-59414581D01*
X32074323Y-59427994D01*
X32084153Y-59450404D01*
X32092441Y-59516893D01*
X32092441Y-60145488D01*
X32077325Y-60236072D01*
X32072702Y-60244615D01*
X32071655Y-60249877D01*
X32062181Y-60264055D01*
X32037616Y-60309448D01*
X32022636Y-60323238D01*
X32016400Y-60332571D01*
X32002167Y-60342081D01*
X31976230Y-60365958D01*
X31947713Y-60378467D01*
X31933706Y-60387826D01*
X31920293Y-60390494D01*
X31897883Y-60400324D01*
X31831394Y-60408612D01*
X30952799Y-60408612D01*
X30862215Y-60393496D01*
X30853672Y-60388873D01*
X30848410Y-60387826D01*
X30834232Y-60378352D01*
X30788839Y-60353787D01*
X30775049Y-60338807D01*
X30765716Y-60332571D01*
X30756206Y-60318338D01*
X30732329Y-60292401D01*
X30719820Y-60263884D01*
X30710461Y-60249877D01*
X30707793Y-60236464D01*
X30697963Y-60214054D01*
X30689675Y-60147565D01*
X30689675Y-59518970D01*
X30704791Y-59428386D01*
X30709414Y-59419843D01*
X30710461Y-59414581D01*
X30719935Y-59400403D01*
X30744500Y-59355010D01*
X30759480Y-59341220D01*
X30765716Y-59331887D01*
X30779949Y-59322377D01*
X30805886Y-59298500D01*
X30834403Y-59285991D01*
X30848410Y-59276632D01*
X30861823Y-59273964D01*
X30884233Y-59264134D01*
X30950722Y-59255846D01*
X31829317Y-59255846D01*
X31919901Y-59270962D01*
X31919901Y-59270962D01*
G37*
G36*
X36486058Y-57907229D02*
G01*
X36488017Y-57917079D01*
X36488017Y-60247379D01*
X36486058Y-60257229D01*
X36486059Y-60257229D01*
X36476208Y-60259188D01*
X34145908Y-60259188D01*
X34136057Y-60257229D01*
X34136058Y-60257229D01*
X34134099Y-60247379D01*
X34134099Y-57917079D01*
X34136058Y-57907229D01*
X34145908Y-57905270D01*
X36476208Y-57905270D01*
X36486058Y-57907229D01*
X36486058Y-57907229D01*
G37*
G36*
X63705040Y-57425040D02*
G01*
X63706999Y-57434890D01*
X63706999Y-59815190D01*
X63705040Y-59825040D01*
X63695190Y-59826999D01*
X62974890Y-59826999D01*
X62965040Y-59825040D01*
X62963081Y-59815190D01*
X62963081Y-57434890D01*
X62965040Y-57425040D01*
X62974890Y-57423081D01*
X63695190Y-57423081D01*
X63705040Y-57425040D01*
X63705040Y-57425040D01*
G37*
G36*
X59895040Y-57425040D02*
G01*
X59896999Y-57434890D01*
X59896999Y-59815190D01*
X59895040Y-59825040D01*
X59885190Y-59826999D01*
X59164890Y-59826999D01*
X59155039Y-59825040D01*
X59155040Y-59825040D01*
X59153081Y-59815190D01*
X59153081Y-57434890D01*
X59155040Y-57425040D01*
X59164890Y-57423081D01*
X59885190Y-57423081D01*
X59895040Y-57425040D01*
X59895040Y-57425040D01*
G37*
G36*
X61165040Y-57425040D02*
G01*
X61166999Y-57434890D01*
X61166999Y-59815190D01*
X61165040Y-59825040D01*
X61155190Y-59826999D01*
X60434890Y-59826999D01*
X60425040Y-59825040D01*
X60423081Y-59815190D01*
X60423081Y-57434890D01*
X60425040Y-57425040D01*
X60434890Y-57423081D01*
X61155190Y-57423081D01*
X61165040Y-57425040D01*
X61165040Y-57425040D01*
G37*
G36*
X64975040Y-57425040D02*
G01*
X64976999Y-57434890D01*
X64976999Y-59815190D01*
X64975040Y-59825040D01*
X64965190Y-59826999D01*
X64244890Y-59826999D01*
X64235040Y-59825040D01*
X64233081Y-59815190D01*
X64233081Y-57434890D01*
X64235040Y-57425040D01*
X64244890Y-57423081D01*
X64965190Y-57423081D01*
X64975040Y-57425040D01*
X64975040Y-57425040D01*
G37*
G36*
X62435040Y-57425040D02*
G01*
X62436999Y-57434890D01*
X62436999Y-59815190D01*
X62435040Y-59825040D01*
X62425190Y-59826999D01*
X61704890Y-59826999D01*
X61695040Y-59825040D01*
X61693081Y-59815190D01*
X61693081Y-57434890D01*
X61695040Y-57425040D01*
X61704890Y-57423081D01*
X62425190Y-57423081D01*
X62435040Y-57425040D01*
X62435040Y-57425040D01*
G37*
G36*
X40487781Y-57547282D02*
G01*
X40496324Y-57551905D01*
X40501586Y-57552952D01*
X40515764Y-57562426D01*
X40561157Y-57586991D01*
X40574947Y-57601971D01*
X40584280Y-57608207D01*
X40593790Y-57622440D01*
X40617667Y-57648377D01*
X40630176Y-57676894D01*
X40639535Y-57690901D01*
X40642203Y-57704314D01*
X40652033Y-57726724D01*
X40660321Y-57793213D01*
X40660321Y-58421808D01*
X40645205Y-58512392D01*
X40640582Y-58520935D01*
X40639535Y-58526197D01*
X40630061Y-58540375D01*
X40605496Y-58585768D01*
X40590516Y-58599558D01*
X40584280Y-58608891D01*
X40570047Y-58618401D01*
X40544110Y-58642278D01*
X40515593Y-58654787D01*
X40501586Y-58664146D01*
X40488173Y-58666814D01*
X40465763Y-58676644D01*
X40399274Y-58684932D01*
X39520679Y-58684932D01*
X39430095Y-58669816D01*
X39421552Y-58665193D01*
X39416290Y-58664146D01*
X39402112Y-58654672D01*
X39356719Y-58630107D01*
X39342929Y-58615127D01*
X39333596Y-58608891D01*
X39324086Y-58594658D01*
X39300209Y-58568721D01*
X39287700Y-58540204D01*
X39278341Y-58526197D01*
X39275673Y-58512784D01*
X39265843Y-58490374D01*
X39257555Y-58423885D01*
X39257555Y-57795290D01*
X39272671Y-57704706D01*
X39277294Y-57696163D01*
X39278341Y-57690901D01*
X39287815Y-57676723D01*
X39312380Y-57631330D01*
X39327360Y-57617540D01*
X39333596Y-57608207D01*
X39347829Y-57598697D01*
X39373766Y-57574820D01*
X39402283Y-57562311D01*
X39416290Y-57552952D01*
X39429703Y-57550284D01*
X39452113Y-57540454D01*
X39518602Y-57532166D01*
X40397197Y-57532166D01*
X40487781Y-57547282D01*
X40487781Y-57547282D01*
G37*
G36*
X22288631Y-56060444D02*
G01*
X22354286Y-56087639D01*
X22417615Y-56112330D01*
X22422953Y-56116082D01*
X22434588Y-56120901D01*
X22486639Y-56160841D01*
X22536429Y-56195834D01*
X22544904Y-56205549D01*
X22559925Y-56217075D01*
X22596210Y-56264363D01*
X22631898Y-56305273D01*
X22640727Y-56322379D01*
X22656099Y-56342412D01*
X22676547Y-56391779D01*
X22698504Y-56434319D01*
X22704482Y-56459221D01*
X22716556Y-56488369D01*
X22722719Y-56535179D01*
X22732406Y-56575529D01*
X22732239Y-56607489D01*
X22737177Y-56645000D01*
X22731829Y-56685621D01*
X22731645Y-56720755D01*
X22722312Y-56757914D01*
X22716556Y-56801631D01*
X22703280Y-56833682D01*
X22696268Y-56861599D01*
X22675363Y-56901082D01*
X22656099Y-56947589D01*
X22638804Y-56970128D01*
X22628311Y-56989946D01*
X22594343Y-57028070D01*
X22559925Y-57072925D01*
X22542393Y-57086378D01*
X22531702Y-57098377D01*
X22484271Y-57130976D01*
X22434588Y-57169099D01*
X22420028Y-57175130D01*
X22412024Y-57180631D01*
X22351888Y-57203354D01*
X22288631Y-57229556D01*
X22279293Y-57230785D01*
X22276171Y-57231965D01*
X22203947Y-57240705D01*
X22171323Y-57245000D01*
X21768677Y-57245000D01*
X21651369Y-57229556D01*
X21585714Y-57202361D01*
X21522385Y-57177670D01*
X21517047Y-57173918D01*
X21505412Y-57169099D01*
X21453361Y-57129159D01*
X21403571Y-57094166D01*
X21395096Y-57084451D01*
X21380075Y-57072925D01*
X21343790Y-57025637D01*
X21308102Y-56984727D01*
X21299273Y-56967621D01*
X21283901Y-56947588D01*
X21263453Y-56898221D01*
X21241496Y-56855681D01*
X21235518Y-56830779D01*
X21223444Y-56801631D01*
X21217281Y-56754821D01*
X21207594Y-56714471D01*
X21207761Y-56682511D01*
X21202823Y-56645000D01*
X21208171Y-56604379D01*
X21208355Y-56569245D01*
X21217688Y-56532086D01*
X21223444Y-56488369D01*
X21236720Y-56456318D01*
X21243732Y-56428401D01*
X21264637Y-56388918D01*
X21283901Y-56342411D01*
X21301196Y-56319872D01*
X21311689Y-56300054D01*
X21345657Y-56261930D01*
X21380075Y-56217075D01*
X21397607Y-56203622D01*
X21408298Y-56191623D01*
X21455729Y-56159024D01*
X21505412Y-56120901D01*
X21519972Y-56114870D01*
X21527976Y-56109369D01*
X21588112Y-56086646D01*
X21651369Y-56060444D01*
X21660707Y-56059215D01*
X21663829Y-56058035D01*
X21736053Y-56049295D01*
X21768677Y-56045000D01*
X22171323Y-56045000D01*
X22288631Y-56060444D01*
X22288631Y-56060444D01*
G37*
G36*
X25738631Y-56060444D02*
G01*
X25804286Y-56087639D01*
X25867615Y-56112330D01*
X25872953Y-56116082D01*
X25884588Y-56120901D01*
X25936639Y-56160841D01*
X25986429Y-56195834D01*
X25994904Y-56205549D01*
X26009925Y-56217075D01*
X26046210Y-56264363D01*
X26081898Y-56305273D01*
X26090727Y-56322379D01*
X26106099Y-56342412D01*
X26126547Y-56391779D01*
X26148504Y-56434319D01*
X26154482Y-56459221D01*
X26166556Y-56488369D01*
X26172719Y-56535179D01*
X26182406Y-56575529D01*
X26182239Y-56607489D01*
X26187177Y-56645000D01*
X26181829Y-56685621D01*
X26181645Y-56720755D01*
X26172312Y-56757914D01*
X26166556Y-56801631D01*
X26153280Y-56833682D01*
X26146268Y-56861599D01*
X26125363Y-56901082D01*
X26106099Y-56947589D01*
X26088804Y-56970128D01*
X26078311Y-56989946D01*
X26044343Y-57028070D01*
X26009925Y-57072925D01*
X25992393Y-57086378D01*
X25981702Y-57098377D01*
X25934271Y-57130976D01*
X25884588Y-57169099D01*
X25870028Y-57175130D01*
X25862024Y-57180631D01*
X25801888Y-57203354D01*
X25738631Y-57229556D01*
X25729293Y-57230785D01*
X25726171Y-57231965D01*
X25653947Y-57240705D01*
X25621323Y-57245000D01*
X25218677Y-57245000D01*
X25101369Y-57229556D01*
X25035714Y-57202361D01*
X24972385Y-57177670D01*
X24967047Y-57173918D01*
X24955412Y-57169099D01*
X24903361Y-57129159D01*
X24853571Y-57094166D01*
X24845096Y-57084451D01*
X24830075Y-57072925D01*
X24793790Y-57025637D01*
X24758102Y-56984727D01*
X24749273Y-56967621D01*
X24733901Y-56947588D01*
X24713453Y-56898221D01*
X24691496Y-56855681D01*
X24685518Y-56830779D01*
X24673444Y-56801631D01*
X24667281Y-56754821D01*
X24657594Y-56714471D01*
X24657761Y-56682511D01*
X24652823Y-56645000D01*
X24658171Y-56604379D01*
X24658355Y-56569245D01*
X24667688Y-56532086D01*
X24673444Y-56488369D01*
X24686720Y-56456318D01*
X24693732Y-56428401D01*
X24714637Y-56388918D01*
X24733901Y-56342411D01*
X24751196Y-56319872D01*
X24761689Y-56300054D01*
X24795657Y-56261930D01*
X24830075Y-56217075D01*
X24847607Y-56203622D01*
X24858298Y-56191623D01*
X24905729Y-56159024D01*
X24955412Y-56120901D01*
X24969972Y-56114870D01*
X24977976Y-56109369D01*
X25038112Y-56086646D01*
X25101369Y-56060444D01*
X25110707Y-56059215D01*
X25113829Y-56058035D01*
X25186053Y-56049295D01*
X25218677Y-56045000D01*
X25621323Y-56045000D01*
X25738631Y-56060444D01*
X25738631Y-56060444D01*
G37*
G36*
X34976058Y-55607229D02*
G01*
X34978017Y-55617079D01*
X34978017Y-57147379D01*
X34976058Y-57157229D01*
X34966208Y-57159188D01*
X34385908Y-57159188D01*
X34376058Y-57157229D01*
X34374099Y-57147379D01*
X34374099Y-55617079D01*
X34376058Y-55607229D01*
X34385908Y-55605270D01*
X34966208Y-55605270D01*
X34976058Y-55607229D01*
X34976058Y-55607229D01*
G37*
G36*
X33706058Y-55607229D02*
G01*
X33708017Y-55617079D01*
X33708017Y-57147379D01*
X33706058Y-57157229D01*
X33696208Y-57159188D01*
X33115908Y-57159188D01*
X33106058Y-57157229D01*
X33104099Y-57147379D01*
X33104099Y-55617079D01*
X33106058Y-55607229D01*
X33115908Y-55605270D01*
X33696208Y-55605270D01*
X33706058Y-55607229D01*
X33706058Y-55607229D01*
G37*
G36*
X37516058Y-55607229D02*
G01*
X37518017Y-55617079D01*
X37518017Y-57147379D01*
X37516058Y-57157229D01*
X37506208Y-57159188D01*
X36925908Y-57159188D01*
X36916058Y-57157229D01*
X36914099Y-57147379D01*
X36914099Y-55617079D01*
X36916058Y-55607229D01*
X36925908Y-55605270D01*
X37506208Y-55605270D01*
X37516058Y-55607229D01*
X37516058Y-55607229D01*
G37*
G36*
X36246058Y-55607229D02*
G01*
X36248017Y-55617079D01*
X36248017Y-57147379D01*
X36246058Y-57157229D01*
X36236208Y-57159188D01*
X35655908Y-57159188D01*
X35646058Y-57157229D01*
X35644099Y-57147379D01*
X35644099Y-55617079D01*
X35646058Y-55607229D01*
X35655908Y-55605270D01*
X36236208Y-55605270D01*
X36246058Y-55607229D01*
X36246058Y-55607229D01*
G37*
G36*
X52807761Y-53498341D02*
G01*
X52809506Y-53502197D01*
X52809719Y-53504057D01*
X52809719Y-57088490D01*
X52807760Y-57098340D01*
X52807761Y-57098340D01*
X52803605Y-57099166D01*
X52801749Y-57098953D01*
X48516906Y-56102478D01*
X48510111Y-56099404D01*
X48509953Y-56098850D01*
X48507760Y-56098340D01*
X48507760Y-56091180D01*
X48505801Y-56084328D01*
X48505801Y-54508190D01*
X48507257Y-54500871D01*
X48507760Y-54500592D01*
X48507760Y-54498340D01*
X48514735Y-54496718D01*
X48520965Y-54493258D01*
X52797726Y-53498662D01*
X52807760Y-53498340D01*
X52807761Y-53498341D01*
X52807761Y-53498341D01*
G37*
G36*
X42113771Y-53497727D02*
G01*
X46398614Y-54494202D01*
X46405409Y-54497276D01*
X46405567Y-54497830D01*
X46407760Y-54498340D01*
X46407760Y-54505500D01*
X46409719Y-54512352D01*
X46409719Y-56088490D01*
X46408263Y-56095809D01*
X46407760Y-56096088D01*
X46407760Y-56098340D01*
X46400785Y-56099962D01*
X46394555Y-56103422D01*
X42117794Y-57098018D01*
X42107760Y-57098340D01*
X42107759Y-57098339D01*
X42106014Y-57094483D01*
X42105801Y-57092623D01*
X42105801Y-53508190D01*
X42107760Y-53498340D01*
X42111915Y-53497514D01*
X42113771Y-53497727D01*
X42113771Y-53497727D01*
G37*
G36*
X66243736Y-52036135D02*
G01*
X66329797Y-52037562D01*
X66386786Y-52046639D01*
X66437497Y-52050363D01*
X66519207Y-52067731D01*
X66609500Y-52082113D01*
X66659593Y-52097571D01*
X66704242Y-52107062D01*
X66787623Y-52137081D01*
X66880136Y-52165630D01*
X66922763Y-52185734D01*
X66960816Y-52199434D01*
X67043829Y-52242832D01*
X67136305Y-52286447D01*
X67171264Y-52309455D01*
X67202478Y-52325773D01*
X67282896Y-52382923D01*
X67372894Y-52442153D01*
X67400298Y-52466356D01*
X67424762Y-52483741D01*
X67500263Y-52554641D01*
X67585184Y-52629641D01*
X67605482Y-52653449D01*
X67623550Y-52670416D01*
X67691726Y-52754607D01*
X67768939Y-52845171D01*
X67782854Y-52867140D01*
X67795162Y-52882339D01*
X67853632Y-52978884D01*
X67920492Y-53084442D01*
X67929002Y-53103334D01*
X67936429Y-53115597D01*
X67982865Y-53222904D01*
X68036820Y-53342680D01*
X68041116Y-53357515D01*
X68044731Y-53365869D01*
X68076915Y-53481139D01*
X68115601Y-53614732D01*
X68117024Y-53624792D01*
X68118063Y-53628514D01*
X68133850Y-53743763D01*
X68155264Y-53895171D01*
X68154921Y-53905781D01*
X68151696Y-54213766D01*
X68143251Y-54267088D01*
X68142068Y-54303697D01*
X68122717Y-54396730D01*
X68109119Y-54482585D01*
X68095426Y-54527939D01*
X68084391Y-54580991D01*
X68053950Y-54665315D01*
X68030302Y-54743639D01*
X68008420Y-54791434D01*
X67988218Y-54847393D01*
X67948700Y-54921871D01*
X67916780Y-54991591D01*
X67885836Y-55040351D01*
X67855468Y-55097585D01*
X67808998Y-55161428D01*
X67770664Y-55221833D01*
X67730040Y-55269905D01*
X67688790Y-55326577D01*
X67637502Y-55379410D01*
X67594649Y-55430120D01*
X67544032Y-55475696D01*
X67491510Y-55529800D01*
X67437491Y-55571626D01*
X67391997Y-55612589D01*
X67331398Y-55653771D01*
X67267563Y-55703198D01*
X67212792Y-55734376D01*
X67166452Y-55765868D01*
X67096230Y-55800727D01*
X67021419Y-55843312D01*
X66967738Y-55864511D01*
X66922200Y-55887117D01*
X66843031Y-55913760D01*
X66757988Y-55947345D01*
X66707003Y-55959539D01*
X66663743Y-55974097D01*
X66576702Y-55990701D01*
X66482526Y-56013224D01*
X66435593Y-56017619D01*
X66395874Y-56025196D01*
X66302347Y-56030097D01*
X66200531Y-56039632D01*
X66158723Y-56037624D01*
X66123550Y-56039467D01*
X66025240Y-56031212D01*
X65917627Y-56026043D01*
X65881721Y-56019161D01*
X65851816Y-56016650D01*
X65750740Y-55994056D01*
X65639461Y-55972728D01*
X65609867Y-55962567D01*
X65585678Y-55957160D01*
X65484145Y-55919400D01*
X65371582Y-55880752D01*
X65348421Y-55868925D01*
X65330087Y-55862107D01*
X65230618Y-55808772D01*
X65119335Y-55751948D01*
X65102389Y-55740016D01*
X65089761Y-55733245D01*
X64995176Y-55664526D01*
X64887753Y-55588887D01*
X64876508Y-55578308D01*
X64869142Y-55572957D01*
X64782757Y-55490117D01*
X64681457Y-55394823D01*
X64675110Y-55386887D01*
X64672321Y-55384212D01*
X64600071Y-55293054D01*
X64504563Y-55173628D01*
X64393383Y-54985259D01*
X64364119Y-54935776D01*
X64363975Y-54935433D01*
X64360600Y-54929715D01*
X64304652Y-54794310D01*
X64258448Y-54684396D01*
X64256994Y-54678968D01*
X64252441Y-54667950D01*
X64218656Y-54535888D01*
X64187866Y-54420977D01*
X64186507Y-54410223D01*
X64182244Y-54393558D01*
X64168189Y-54265221D01*
X64153689Y-54150445D01*
X64153858Y-54134360D01*
X64151410Y-54112012D01*
X64155379Y-53989119D01*
X64156546Y-53877750D01*
X64159657Y-53856685D01*
X64160553Y-53828930D01*
X64180786Y-53713597D01*
X64196381Y-53607983D01*
X64203782Y-53582508D01*
X64209492Y-53549960D01*
X64244020Y-53444010D01*
X64272460Y-53346118D01*
X64285373Y-53317114D01*
X64297250Y-53280670D01*
X64343923Y-53185609D01*
X64383379Y-53096989D01*
X64402859Y-53065571D01*
X64422076Y-53026431D01*
X64478596Y-52943420D01*
X64527073Y-52865235D01*
X64553956Y-52832739D01*
X64581479Y-52792316D01*
X64645501Y-52722079D01*
X64700903Y-52655110D01*
X64735773Y-52623045D01*
X64772278Y-52582997D01*
X64841404Y-52525913D01*
X64901632Y-52470530D01*
X64944803Y-52440526D01*
X64990668Y-52402650D01*
X65062580Y-52358669D01*
X65125555Y-52314900D01*
X65177020Y-52288677D01*
X65232290Y-52254874D01*
X65304781Y-52223580D01*
X65368533Y-52191096D01*
X65427975Y-52170396D01*
X65492323Y-52142617D01*
X65563363Y-52123249D01*
X65626063Y-52101415D01*
X65692832Y-52087952D01*
X65765579Y-52068119D01*
X65833367Y-52059615D01*
X65893374Y-52047516D01*
X65966490Y-52042916D01*
X66046606Y-52032866D01*
X66109624Y-52033911D01*
X66165542Y-52030393D01*
X66243736Y-52036135D01*
X66243736Y-52036135D01*
G37*
G36*
X24300164Y-54670000D02*
G01*
X24333354Y-54670000D01*
X24361939Y-54679288D01*
X24386130Y-54682925D01*
X24416688Y-54697077D01*
X24453860Y-54709155D01*
X24473361Y-54723323D01*
X24490099Y-54731075D01*
X24520023Y-54757226D01*
X24556368Y-54783632D01*
X24567026Y-54798302D01*
X24576379Y-54806475D01*
X24601078Y-54845169D01*
X24630845Y-54886140D01*
X24634593Y-54897676D01*
X24638026Y-54903054D01*
X24652711Y-54953436D01*
X24670000Y-55006646D01*
X24670000Y-55133354D01*
X24653493Y-55184158D01*
X24633530Y-55246522D01*
X24632951Y-55247379D01*
X24630845Y-55253860D01*
X24598299Y-55298655D01*
X24569375Y-55341456D01*
X24563914Y-55345982D01*
X24556368Y-55356368D01*
X24515935Y-55385745D01*
X24481152Y-55414571D01*
X24469095Y-55419776D01*
X24453860Y-55430845D01*
X24411787Y-55444515D01*
X24375957Y-55459983D01*
X24356948Y-55462334D01*
X24333354Y-55470000D01*
X24294959Y-55470000D01*
X24262243Y-55474046D01*
X24237400Y-55470000D01*
X24206646Y-55470000D01*
X24175741Y-55459958D01*
X24149152Y-55455628D01*
X24121011Y-55442175D01*
X24086140Y-55430845D01*
X24064653Y-55415233D01*
X24045775Y-55406209D01*
X24018036Y-55381364D01*
X23983632Y-55356368D01*
X23971528Y-55339709D01*
X23960424Y-55329763D01*
X23937549Y-55292940D01*
X23909155Y-55253860D01*
X23904642Y-55239969D01*
X23899963Y-55232438D01*
X23886655Y-55184611D01*
X23870000Y-55133354D01*
X23870000Y-55124759D01*
X23869245Y-55122046D01*
X23870000Y-55064343D01*
X23870000Y-55006646D01*
X23887824Y-54951790D01*
X23904341Y-54897935D01*
X23906280Y-54894989D01*
X23909155Y-54886140D01*
X23940464Y-54843048D01*
X23967332Y-54802222D01*
X23974630Y-54796021D01*
X23983632Y-54783632D01*
X24022178Y-54755626D01*
X24054655Y-54728035D01*
X24068910Y-54721673D01*
X24086140Y-54709155D01*
X24125934Y-54696225D01*
X24159286Y-54681341D01*
X24180720Y-54678424D01*
X24206646Y-54670000D01*
X24242615Y-54670000D01*
X24272821Y-54665889D01*
X24300164Y-54670000D01*
X24300164Y-54670000D01*
G37*
G36*
X36614901Y-52575962D02*
G01*
X36623444Y-52580585D01*
X36628706Y-52581632D01*
X36642884Y-52591106D01*
X36688277Y-52615671D01*
X36702067Y-52630651D01*
X36711400Y-52636887D01*
X36720910Y-52651120D01*
X36744787Y-52677057D01*
X36757296Y-52705574D01*
X36766655Y-52719581D01*
X36769323Y-52732994D01*
X36779153Y-52755404D01*
X36787441Y-52821893D01*
X36787441Y-53700488D01*
X36772325Y-53791072D01*
X36767702Y-53799615D01*
X36766655Y-53804877D01*
X36757181Y-53819055D01*
X36732616Y-53864448D01*
X36717636Y-53878238D01*
X36711400Y-53887571D01*
X36697167Y-53897081D01*
X36671230Y-53920958D01*
X36642713Y-53933467D01*
X36628706Y-53942826D01*
X36615293Y-53945494D01*
X36592883Y-53955324D01*
X36526394Y-53963612D01*
X35897799Y-53963612D01*
X35807215Y-53948496D01*
X35798672Y-53943873D01*
X35793410Y-53942826D01*
X35779232Y-53933352D01*
X35733839Y-53908787D01*
X35720049Y-53893807D01*
X35710716Y-53887571D01*
X35701206Y-53873338D01*
X35677329Y-53847401D01*
X35664820Y-53818884D01*
X35655461Y-53804877D01*
X35652793Y-53791464D01*
X35642963Y-53769054D01*
X35634675Y-53702565D01*
X35634675Y-52823970D01*
X35649791Y-52733386D01*
X35654414Y-52724843D01*
X35655461Y-52719581D01*
X35664935Y-52705403D01*
X35689500Y-52660010D01*
X35704480Y-52646220D01*
X35710716Y-52636887D01*
X35724949Y-52627377D01*
X35750886Y-52603500D01*
X35779403Y-52590991D01*
X35793410Y-52581632D01*
X35806823Y-52578964D01*
X35829233Y-52569134D01*
X35895722Y-52560846D01*
X36524317Y-52560846D01*
X36614901Y-52575962D01*
X36614901Y-52575962D01*
G37*
G36*
X38664901Y-52575962D02*
G01*
X38673444Y-52580585D01*
X38678706Y-52581632D01*
X38692884Y-52591106D01*
X38738277Y-52615671D01*
X38752067Y-52630651D01*
X38761400Y-52636887D01*
X38770910Y-52651120D01*
X38794787Y-52677057D01*
X38807296Y-52705574D01*
X38816655Y-52719581D01*
X38819323Y-52732994D01*
X38829153Y-52755404D01*
X38837441Y-52821893D01*
X38837441Y-53700488D01*
X38822325Y-53791072D01*
X38817702Y-53799615D01*
X38816655Y-53804877D01*
X38807181Y-53819055D01*
X38782616Y-53864448D01*
X38767636Y-53878238D01*
X38761400Y-53887571D01*
X38747167Y-53897081D01*
X38721230Y-53920958D01*
X38692713Y-53933467D01*
X38678706Y-53942826D01*
X38665293Y-53945494D01*
X38642883Y-53955324D01*
X38576394Y-53963612D01*
X37947799Y-53963612D01*
X37857215Y-53948496D01*
X37848672Y-53943873D01*
X37843410Y-53942826D01*
X37829232Y-53933352D01*
X37783839Y-53908787D01*
X37770049Y-53893807D01*
X37760716Y-53887571D01*
X37751206Y-53873338D01*
X37727329Y-53847401D01*
X37714820Y-53818884D01*
X37705461Y-53804877D01*
X37702793Y-53791464D01*
X37692963Y-53769054D01*
X37684675Y-53702565D01*
X37684675Y-52823970D01*
X37699791Y-52733386D01*
X37704414Y-52724843D01*
X37705461Y-52719581D01*
X37714935Y-52705403D01*
X37739500Y-52660010D01*
X37754480Y-52646220D01*
X37760716Y-52636887D01*
X37774949Y-52627377D01*
X37800886Y-52603500D01*
X37829403Y-52590991D01*
X37843410Y-52581632D01*
X37856823Y-52578964D01*
X37879233Y-52569134D01*
X37945722Y-52560846D01*
X38574317Y-52560846D01*
X38664901Y-52575962D01*
X38664901Y-52575962D01*
G37*
G36*
X32729901Y-52565962D02*
G01*
X32738444Y-52570585D01*
X32743706Y-52571632D01*
X32757884Y-52581106D01*
X32803277Y-52605671D01*
X32817067Y-52620651D01*
X32826400Y-52626887D01*
X32835910Y-52641120D01*
X32859787Y-52667057D01*
X32872296Y-52695574D01*
X32881655Y-52709581D01*
X32884323Y-52722994D01*
X32894153Y-52745404D01*
X32902441Y-52811893D01*
X32902441Y-53690488D01*
X32887325Y-53781072D01*
X32882702Y-53789615D01*
X32881655Y-53794877D01*
X32872181Y-53809055D01*
X32847616Y-53854448D01*
X32832636Y-53868238D01*
X32826400Y-53877571D01*
X32812167Y-53887081D01*
X32786230Y-53910958D01*
X32757713Y-53923467D01*
X32743706Y-53932826D01*
X32730293Y-53935494D01*
X32707883Y-53945324D01*
X32641394Y-53953612D01*
X32012799Y-53953612D01*
X31922215Y-53938496D01*
X31913672Y-53933873D01*
X31908410Y-53932826D01*
X31894232Y-53923352D01*
X31848839Y-53898787D01*
X31835049Y-53883807D01*
X31825716Y-53877571D01*
X31816206Y-53863338D01*
X31792329Y-53837401D01*
X31779820Y-53808884D01*
X31770461Y-53794877D01*
X31767793Y-53781464D01*
X31757963Y-53759054D01*
X31749675Y-53692565D01*
X31749675Y-52813970D01*
X31764791Y-52723386D01*
X31769414Y-52714843D01*
X31770461Y-52709581D01*
X31779935Y-52695403D01*
X31804500Y-52650010D01*
X31819480Y-52636220D01*
X31825716Y-52626887D01*
X31839949Y-52617377D01*
X31865886Y-52593500D01*
X31894403Y-52580991D01*
X31908410Y-52571632D01*
X31921823Y-52568964D01*
X31944233Y-52559134D01*
X32010722Y-52550846D01*
X32639317Y-52550846D01*
X32729901Y-52565962D01*
X32729901Y-52565962D01*
G37*
G36*
X34779901Y-52565962D02*
G01*
X34788444Y-52570585D01*
X34793706Y-52571632D01*
X34807884Y-52581106D01*
X34853277Y-52605671D01*
X34867067Y-52620651D01*
X34876400Y-52626887D01*
X34885910Y-52641120D01*
X34909787Y-52667057D01*
X34922296Y-52695574D01*
X34931655Y-52709581D01*
X34934323Y-52722994D01*
X34944153Y-52745404D01*
X34952441Y-52811893D01*
X34952441Y-53690488D01*
X34937325Y-53781072D01*
X34932702Y-53789615D01*
X34931655Y-53794877D01*
X34922181Y-53809055D01*
X34897616Y-53854448D01*
X34882636Y-53868238D01*
X34876400Y-53877571D01*
X34862167Y-53887081D01*
X34836230Y-53910958D01*
X34807713Y-53923467D01*
X34793706Y-53932826D01*
X34780293Y-53935494D01*
X34757883Y-53945324D01*
X34691394Y-53953612D01*
X34062799Y-53953612D01*
X33972215Y-53938496D01*
X33963672Y-53933873D01*
X33958410Y-53932826D01*
X33944232Y-53923352D01*
X33898839Y-53898787D01*
X33885049Y-53883807D01*
X33875716Y-53877571D01*
X33866206Y-53863338D01*
X33842329Y-53837401D01*
X33829820Y-53808884D01*
X33820461Y-53794877D01*
X33817793Y-53781464D01*
X33807963Y-53759054D01*
X33799675Y-53692565D01*
X33799675Y-52813970D01*
X33814791Y-52723386D01*
X33819414Y-52714843D01*
X33820461Y-52709581D01*
X33829935Y-52695403D01*
X33854500Y-52650010D01*
X33869480Y-52636220D01*
X33875716Y-52626887D01*
X33889949Y-52617377D01*
X33915886Y-52593500D01*
X33944403Y-52580991D01*
X33958410Y-52571632D01*
X33971823Y-52568964D01*
X33994233Y-52559134D01*
X34060722Y-52550846D01*
X34689317Y-52550846D01*
X34779901Y-52565962D01*
X34779901Y-52565962D01*
G37*
G36*
X30477883Y-52542773D02*
G01*
X30486426Y-52547396D01*
X30491688Y-52548443D01*
X30505866Y-52557917D01*
X30551259Y-52582482D01*
X30565049Y-52597462D01*
X30574382Y-52603698D01*
X30583892Y-52617931D01*
X30607769Y-52643868D01*
X30620278Y-52672385D01*
X30629637Y-52686392D01*
X30632305Y-52699805D01*
X30642135Y-52722215D01*
X30650423Y-52788704D01*
X30650423Y-53667299D01*
X30635307Y-53757883D01*
X30630684Y-53766426D01*
X30629637Y-53771688D01*
X30620163Y-53785866D01*
X30595598Y-53831259D01*
X30580618Y-53845049D01*
X30574382Y-53854382D01*
X30560149Y-53863892D01*
X30534212Y-53887769D01*
X30505695Y-53900278D01*
X30491688Y-53909637D01*
X30478275Y-53912305D01*
X30455865Y-53922135D01*
X30389376Y-53930423D01*
X29760781Y-53930423D01*
X29670197Y-53915307D01*
X29661654Y-53910684D01*
X29656392Y-53909637D01*
X29642214Y-53900163D01*
X29596821Y-53875598D01*
X29583031Y-53860618D01*
X29573698Y-53854382D01*
X29564188Y-53840149D01*
X29540311Y-53814212D01*
X29527802Y-53785695D01*
X29518443Y-53771688D01*
X29515775Y-53758275D01*
X29505945Y-53735865D01*
X29497657Y-53669376D01*
X29497657Y-52790781D01*
X29512773Y-52700197D01*
X29517396Y-52691654D01*
X29518443Y-52686392D01*
X29527917Y-52672214D01*
X29552482Y-52626821D01*
X29567462Y-52613031D01*
X29573698Y-52603698D01*
X29587931Y-52594188D01*
X29613868Y-52570311D01*
X29642385Y-52557802D01*
X29656392Y-52548443D01*
X29669805Y-52545775D01*
X29692215Y-52535945D01*
X29758704Y-52527657D01*
X30387299Y-52527657D01*
X30477883Y-52542773D01*
X30477883Y-52542773D01*
G37*
G36*
X28427883Y-52542773D02*
G01*
X28436426Y-52547396D01*
X28441688Y-52548443D01*
X28455866Y-52557917D01*
X28501259Y-52582482D01*
X28515049Y-52597462D01*
X28524382Y-52603698D01*
X28533892Y-52617931D01*
X28557769Y-52643868D01*
X28570278Y-52672385D01*
X28579637Y-52686392D01*
X28582305Y-52699805D01*
X28592135Y-52722215D01*
X28600423Y-52788704D01*
X28600423Y-53667299D01*
X28585307Y-53757883D01*
X28580684Y-53766426D01*
X28579637Y-53771688D01*
X28570163Y-53785866D01*
X28545598Y-53831259D01*
X28530618Y-53845049D01*
X28524382Y-53854382D01*
X28510149Y-53863892D01*
X28484212Y-53887769D01*
X28455695Y-53900278D01*
X28441688Y-53909637D01*
X28428275Y-53912305D01*
X28405865Y-53922135D01*
X28339376Y-53930423D01*
X27710781Y-53930423D01*
X27620197Y-53915307D01*
X27611654Y-53910684D01*
X27606392Y-53909637D01*
X27592214Y-53900163D01*
X27546821Y-53875598D01*
X27533031Y-53860618D01*
X27523698Y-53854382D01*
X27514188Y-53840149D01*
X27490311Y-53814212D01*
X27477802Y-53785695D01*
X27468443Y-53771688D01*
X27465775Y-53758275D01*
X27455945Y-53735865D01*
X27447657Y-53669376D01*
X27447657Y-52790781D01*
X27462773Y-52700197D01*
X27467396Y-52691654D01*
X27468443Y-52686392D01*
X27477917Y-52672214D01*
X27502482Y-52626821D01*
X27517462Y-52613031D01*
X27523698Y-52603698D01*
X27537931Y-52594188D01*
X27563868Y-52570311D01*
X27592385Y-52557802D01*
X27606392Y-52548443D01*
X27619805Y-52545775D01*
X27642215Y-52535945D01*
X27708704Y-52527657D01*
X28337299Y-52527657D01*
X28427883Y-52542773D01*
X28427883Y-52542773D01*
G37*
G36*
X24300164Y-50670000D02*
G01*
X24333354Y-50670000D01*
X24361939Y-50679288D01*
X24386130Y-50682925D01*
X24416688Y-50697077D01*
X24453860Y-50709155D01*
X24473361Y-50723323D01*
X24490099Y-50731075D01*
X24520023Y-50757226D01*
X24556368Y-50783632D01*
X24567026Y-50798302D01*
X24576379Y-50806475D01*
X24601078Y-50845169D01*
X24630845Y-50886140D01*
X24634593Y-50897676D01*
X24638026Y-50903054D01*
X24652711Y-50953436D01*
X24670000Y-51006646D01*
X24670000Y-51133354D01*
X24653493Y-51184158D01*
X24633530Y-51246522D01*
X24632951Y-51247379D01*
X24630845Y-51253860D01*
X24598299Y-51298655D01*
X24569375Y-51341456D01*
X24563914Y-51345982D01*
X24556368Y-51356368D01*
X24515935Y-51385745D01*
X24481152Y-51414571D01*
X24469095Y-51419776D01*
X24453860Y-51430845D01*
X24411787Y-51444515D01*
X24375957Y-51459983D01*
X24356948Y-51462334D01*
X24333354Y-51470000D01*
X24294959Y-51470000D01*
X24262243Y-51474046D01*
X24237400Y-51470000D01*
X24206646Y-51470000D01*
X24175741Y-51459958D01*
X24149152Y-51455628D01*
X24121011Y-51442175D01*
X24086140Y-51430845D01*
X24064653Y-51415233D01*
X24045775Y-51406209D01*
X24018036Y-51381364D01*
X23983632Y-51356368D01*
X23971528Y-51339709D01*
X23960424Y-51329763D01*
X23937549Y-51292940D01*
X23909155Y-51253860D01*
X23904642Y-51239969D01*
X23899963Y-51232438D01*
X23886655Y-51184611D01*
X23870000Y-51133354D01*
X23870000Y-51124759D01*
X23869245Y-51122046D01*
X23870000Y-51064343D01*
X23870000Y-51006646D01*
X23887824Y-50951790D01*
X23904341Y-50897935D01*
X23906280Y-50894989D01*
X23909155Y-50886140D01*
X23940464Y-50843048D01*
X23967332Y-50802222D01*
X23974630Y-50796021D01*
X23983632Y-50783632D01*
X24022178Y-50755626D01*
X24054655Y-50728035D01*
X24068910Y-50721673D01*
X24086140Y-50709155D01*
X24125934Y-50696225D01*
X24159286Y-50681341D01*
X24180720Y-50678424D01*
X24206646Y-50670000D01*
X24242615Y-50670000D01*
X24272821Y-50665889D01*
X24300164Y-50670000D01*
X24300164Y-50670000D01*
G37*
G36*
X28968879Y-48023772D02*
G01*
X28977424Y-48028396D01*
X28982687Y-48029443D01*
X28996871Y-48038920D01*
X29042261Y-48063484D01*
X29056049Y-48078462D01*
X29065382Y-48084698D01*
X29074893Y-48098933D01*
X29098769Y-48124869D01*
X29111278Y-48153386D01*
X29120637Y-48167393D01*
X29123305Y-48180804D01*
X29133135Y-48203215D01*
X29141423Y-48269705D01*
X29141423Y-50398298D01*
X29126308Y-50488879D01*
X29121684Y-50497424D01*
X29120637Y-50502687D01*
X29111160Y-50516871D01*
X29086596Y-50562261D01*
X29071618Y-50576049D01*
X29065382Y-50585382D01*
X29051147Y-50594893D01*
X29025211Y-50618769D01*
X28996694Y-50631278D01*
X28982687Y-50640637D01*
X28969276Y-50643305D01*
X28946865Y-50653135D01*
X28880375Y-50661423D01*
X28151782Y-50661423D01*
X28061201Y-50646308D01*
X28052656Y-50641684D01*
X28047393Y-50640637D01*
X28033209Y-50631160D01*
X27987819Y-50606596D01*
X27974031Y-50591618D01*
X27964698Y-50585382D01*
X27955187Y-50571147D01*
X27931311Y-50545211D01*
X27918802Y-50516694D01*
X27909443Y-50502687D01*
X27906775Y-50489276D01*
X27896945Y-50466865D01*
X27888657Y-50400375D01*
X27888657Y-48271782D01*
X27903772Y-48181201D01*
X27908396Y-48172656D01*
X27909443Y-48167393D01*
X27918920Y-48153209D01*
X27943484Y-48107819D01*
X27958462Y-48094031D01*
X27964698Y-48084698D01*
X27978933Y-48075187D01*
X28004869Y-48051311D01*
X28033386Y-48038802D01*
X28047393Y-48029443D01*
X28060804Y-48026775D01*
X28083215Y-48016945D01*
X28149705Y-48008657D01*
X28878298Y-48008657D01*
X28968879Y-48023772D01*
X28968879Y-48023772D01*
G37*
G36*
X31768879Y-48023772D02*
G01*
X31777424Y-48028396D01*
X31782687Y-48029443D01*
X31796871Y-48038920D01*
X31842261Y-48063484D01*
X31856049Y-48078462D01*
X31865382Y-48084698D01*
X31874893Y-48098933D01*
X31898769Y-48124869D01*
X31911278Y-48153386D01*
X31920637Y-48167393D01*
X31923305Y-48180804D01*
X31933135Y-48203215D01*
X31941423Y-48269705D01*
X31941423Y-50398298D01*
X31926308Y-50488879D01*
X31921684Y-50497424D01*
X31920637Y-50502687D01*
X31911160Y-50516871D01*
X31886596Y-50562261D01*
X31871618Y-50576049D01*
X31865382Y-50585382D01*
X31851147Y-50594893D01*
X31825211Y-50618769D01*
X31796694Y-50631278D01*
X31782687Y-50640637D01*
X31769276Y-50643305D01*
X31746865Y-50653135D01*
X31680375Y-50661423D01*
X30951782Y-50661423D01*
X30861201Y-50646308D01*
X30852656Y-50641684D01*
X30847393Y-50640637D01*
X30833209Y-50631160D01*
X30787819Y-50606596D01*
X30774031Y-50591618D01*
X30764698Y-50585382D01*
X30755187Y-50571147D01*
X30731311Y-50545211D01*
X30718802Y-50516694D01*
X30709443Y-50502687D01*
X30706775Y-50489276D01*
X30696945Y-50466865D01*
X30688657Y-50400375D01*
X30688657Y-48271782D01*
X30703772Y-48181201D01*
X30708396Y-48172656D01*
X30709443Y-48167393D01*
X30718920Y-48153209D01*
X30743484Y-48107819D01*
X30758462Y-48094031D01*
X30764698Y-48084698D01*
X30778933Y-48075187D01*
X30804869Y-48051311D01*
X30833386Y-48038802D01*
X30847393Y-48029443D01*
X30860804Y-48026775D01*
X30883215Y-48016945D01*
X30949705Y-48008657D01*
X31678298Y-48008657D01*
X31768879Y-48023772D01*
X31768879Y-48023772D01*
G37*
G36*
X37563701Y-49035202D02*
G01*
X37572244Y-49039825D01*
X37577506Y-49040872D01*
X37591684Y-49050346D01*
X37637077Y-49074911D01*
X37650867Y-49089891D01*
X37660200Y-49096127D01*
X37669710Y-49110360D01*
X37693587Y-49136297D01*
X37706096Y-49164814D01*
X37715455Y-49178821D01*
X37718123Y-49192234D01*
X37727953Y-49214644D01*
X37736241Y-49281133D01*
X37736241Y-50159728D01*
X37721125Y-50250312D01*
X37716502Y-50258855D01*
X37715455Y-50264117D01*
X37705981Y-50278295D01*
X37681416Y-50323688D01*
X37666436Y-50337478D01*
X37660200Y-50346811D01*
X37645967Y-50356321D01*
X37620030Y-50380198D01*
X37591513Y-50392707D01*
X37577506Y-50402066D01*
X37564093Y-50404734D01*
X37541683Y-50414564D01*
X37475194Y-50422852D01*
X36846599Y-50422852D01*
X36756015Y-50407736D01*
X36747472Y-50403113D01*
X36742210Y-50402066D01*
X36728032Y-50392592D01*
X36682639Y-50368027D01*
X36668849Y-50353047D01*
X36659516Y-50346811D01*
X36650006Y-50332578D01*
X36626129Y-50306641D01*
X36613620Y-50278124D01*
X36604261Y-50264117D01*
X36601593Y-50250704D01*
X36591763Y-50228294D01*
X36583475Y-50161805D01*
X36583475Y-49283210D01*
X36598591Y-49192626D01*
X36603214Y-49184083D01*
X36604261Y-49178821D01*
X36613735Y-49164643D01*
X36638300Y-49119250D01*
X36653280Y-49105460D01*
X36659516Y-49096127D01*
X36673749Y-49086617D01*
X36699686Y-49062740D01*
X36728203Y-49050231D01*
X36742210Y-49040872D01*
X36755623Y-49038204D01*
X36778033Y-49028374D01*
X36844522Y-49020086D01*
X37473117Y-49020086D01*
X37563701Y-49035202D01*
X37563701Y-49035202D01*
G37*
G36*
X35513701Y-49035202D02*
G01*
X35522244Y-49039825D01*
X35527506Y-49040872D01*
X35541684Y-49050346D01*
X35587077Y-49074911D01*
X35600867Y-49089891D01*
X35610200Y-49096127D01*
X35619710Y-49110360D01*
X35643587Y-49136297D01*
X35656096Y-49164814D01*
X35665455Y-49178821D01*
X35668123Y-49192234D01*
X35677953Y-49214644D01*
X35686241Y-49281133D01*
X35686241Y-50159728D01*
X35671125Y-50250312D01*
X35666502Y-50258855D01*
X35665455Y-50264117D01*
X35655981Y-50278295D01*
X35631416Y-50323688D01*
X35616436Y-50337478D01*
X35610200Y-50346811D01*
X35595967Y-50356321D01*
X35570030Y-50380198D01*
X35541513Y-50392707D01*
X35527506Y-50402066D01*
X35514093Y-50404734D01*
X35491683Y-50414564D01*
X35425194Y-50422852D01*
X34796599Y-50422852D01*
X34706015Y-50407736D01*
X34697472Y-50403113D01*
X34692210Y-50402066D01*
X34678032Y-50392592D01*
X34632639Y-50368027D01*
X34618849Y-50353047D01*
X34609516Y-50346811D01*
X34600006Y-50332578D01*
X34576129Y-50306641D01*
X34563620Y-50278124D01*
X34554261Y-50264117D01*
X34551593Y-50250704D01*
X34541763Y-50228294D01*
X34533475Y-50161805D01*
X34533475Y-49283210D01*
X34548591Y-49192626D01*
X34553214Y-49184083D01*
X34554261Y-49178821D01*
X34563735Y-49164643D01*
X34588300Y-49119250D01*
X34603280Y-49105460D01*
X34609516Y-49096127D01*
X34623749Y-49086617D01*
X34649686Y-49062740D01*
X34678203Y-49050231D01*
X34692210Y-49040872D01*
X34705623Y-49038204D01*
X34728033Y-49028374D01*
X34794522Y-49020086D01*
X35423117Y-49020086D01*
X35513701Y-49035202D01*
X35513701Y-49035202D01*
G37*
G36*
X22288631Y-48910444D02*
G01*
X22354286Y-48937639D01*
X22417615Y-48962330D01*
X22422953Y-48966082D01*
X22434588Y-48970901D01*
X22486639Y-49010841D01*
X22536429Y-49045834D01*
X22544904Y-49055549D01*
X22559925Y-49067075D01*
X22596210Y-49114363D01*
X22631898Y-49155273D01*
X22640727Y-49172379D01*
X22656099Y-49192412D01*
X22676547Y-49241779D01*
X22698504Y-49284319D01*
X22704482Y-49309221D01*
X22716556Y-49338369D01*
X22722719Y-49385179D01*
X22732406Y-49425529D01*
X22732239Y-49457489D01*
X22737177Y-49495000D01*
X22731829Y-49535621D01*
X22731645Y-49570755D01*
X22722312Y-49607914D01*
X22716556Y-49651631D01*
X22703280Y-49683682D01*
X22696268Y-49711599D01*
X22675363Y-49751082D01*
X22656099Y-49797589D01*
X22638804Y-49820128D01*
X22628311Y-49839946D01*
X22594343Y-49878070D01*
X22559925Y-49922925D01*
X22542393Y-49936378D01*
X22531702Y-49948377D01*
X22484271Y-49980976D01*
X22434588Y-50019099D01*
X22420028Y-50025130D01*
X22412024Y-50030631D01*
X22351888Y-50053354D01*
X22288631Y-50079556D01*
X22279293Y-50080785D01*
X22276171Y-50081965D01*
X22203947Y-50090705D01*
X22171323Y-50095000D01*
X21768677Y-50095000D01*
X21651369Y-50079556D01*
X21585714Y-50052361D01*
X21522385Y-50027670D01*
X21517047Y-50023918D01*
X21505412Y-50019099D01*
X21453361Y-49979159D01*
X21403571Y-49944166D01*
X21395096Y-49934451D01*
X21380075Y-49922925D01*
X21343790Y-49875637D01*
X21308102Y-49834727D01*
X21299273Y-49817621D01*
X21283901Y-49797588D01*
X21263453Y-49748221D01*
X21241496Y-49705681D01*
X21235518Y-49680779D01*
X21223444Y-49651631D01*
X21217281Y-49604821D01*
X21207594Y-49564471D01*
X21207761Y-49532511D01*
X21202823Y-49495000D01*
X21208171Y-49454379D01*
X21208355Y-49419245D01*
X21217688Y-49382086D01*
X21223444Y-49338369D01*
X21236720Y-49306318D01*
X21243732Y-49278401D01*
X21264637Y-49238918D01*
X21283901Y-49192411D01*
X21301196Y-49169872D01*
X21311689Y-49150054D01*
X21345657Y-49111930D01*
X21380075Y-49067075D01*
X21397607Y-49053622D01*
X21408298Y-49041623D01*
X21455729Y-49009024D01*
X21505412Y-48970901D01*
X21519972Y-48964870D01*
X21527976Y-48959369D01*
X21588112Y-48936646D01*
X21651369Y-48910444D01*
X21660707Y-48909215D01*
X21663829Y-48908035D01*
X21736053Y-48899295D01*
X21768677Y-48895000D01*
X22171323Y-48895000D01*
X22288631Y-48910444D01*
X22288631Y-48910444D01*
G37*
G36*
X25738631Y-48910444D02*
G01*
X25804286Y-48937639D01*
X25867615Y-48962330D01*
X25872953Y-48966082D01*
X25884588Y-48970901D01*
X25936639Y-49010841D01*
X25986429Y-49045834D01*
X25994904Y-49055549D01*
X26009925Y-49067075D01*
X26046210Y-49114363D01*
X26081898Y-49155273D01*
X26090727Y-49172379D01*
X26106099Y-49192412D01*
X26126547Y-49241779D01*
X26148504Y-49284319D01*
X26154482Y-49309221D01*
X26166556Y-49338369D01*
X26172719Y-49385179D01*
X26182406Y-49425529D01*
X26182239Y-49457489D01*
X26187177Y-49495000D01*
X26181829Y-49535621D01*
X26181645Y-49570755D01*
X26172312Y-49607914D01*
X26166556Y-49651631D01*
X26153280Y-49683682D01*
X26146268Y-49711599D01*
X26125363Y-49751082D01*
X26106099Y-49797589D01*
X26088804Y-49820128D01*
X26078311Y-49839946D01*
X26044343Y-49878070D01*
X26009925Y-49922925D01*
X25992393Y-49936378D01*
X25981702Y-49948377D01*
X25934271Y-49980976D01*
X25884588Y-50019099D01*
X25870028Y-50025130D01*
X25862024Y-50030631D01*
X25801888Y-50053354D01*
X25738631Y-50079556D01*
X25729293Y-50080785D01*
X25726171Y-50081965D01*
X25653947Y-50090705D01*
X25621323Y-50095000D01*
X25218677Y-50095000D01*
X25101369Y-50079556D01*
X25035714Y-50052361D01*
X24972385Y-50027670D01*
X24967047Y-50023918D01*
X24955412Y-50019099D01*
X24903361Y-49979159D01*
X24853571Y-49944166D01*
X24845096Y-49934451D01*
X24830075Y-49922925D01*
X24793790Y-49875637D01*
X24758102Y-49834727D01*
X24749273Y-49817621D01*
X24733901Y-49797588D01*
X24713453Y-49748221D01*
X24691496Y-49705681D01*
X24685518Y-49680779D01*
X24673444Y-49651631D01*
X24667281Y-49604821D01*
X24657594Y-49564471D01*
X24657761Y-49532511D01*
X24652823Y-49495000D01*
X24658171Y-49454379D01*
X24658355Y-49419245D01*
X24667688Y-49382086D01*
X24673444Y-49338369D01*
X24686720Y-49306318D01*
X24693732Y-49278401D01*
X24714637Y-49238918D01*
X24733901Y-49192411D01*
X24751196Y-49169872D01*
X24761689Y-49150054D01*
X24795657Y-49111930D01*
X24830075Y-49067075D01*
X24847607Y-49053622D01*
X24858298Y-49041623D01*
X24905729Y-49009024D01*
X24955412Y-48970901D01*
X24969972Y-48964870D01*
X24977976Y-48959369D01*
X25038112Y-48936646D01*
X25101369Y-48910444D01*
X25110707Y-48909215D01*
X25113829Y-48908035D01*
X25186053Y-48899295D01*
X25218677Y-48895000D01*
X25621323Y-48895000D01*
X25738631Y-48910444D01*
X25738631Y-48910444D01*
G37*
G36*
X64779288Y-46275284D02*
G01*
X64830363Y-46275641D01*
X64869076Y-46284721D01*
X64902282Y-46288211D01*
X64949843Y-46303665D01*
X65005099Y-46316625D01*
X65035772Y-46331586D01*
X65062223Y-46340180D01*
X65110282Y-46367926D01*
X65166414Y-46395304D01*
X65188603Y-46413144D01*
X65207856Y-46424260D01*
X65253135Y-46465030D01*
X65306288Y-46507766D01*
X65320470Y-46525659D01*
X65332831Y-46536789D01*
X65371767Y-46590380D01*
X65417771Y-46648422D01*
X65425195Y-46663916D01*
X65431676Y-46672837D01*
X65460665Y-46737948D01*
X65495322Y-46810282D01*
X65497877Y-46821528D01*
X65500075Y-46826465D01*
X65515713Y-46900035D01*
X65535085Y-46985301D01*
X65535008Y-46990808D01*
X65535040Y-46990958D01*
X65535040Y-47159122D01*
X65532490Y-47171119D01*
X65532267Y-47187083D01*
X65513846Y-47258827D01*
X65500075Y-47323615D01*
X65493312Y-47338806D01*
X65487633Y-47360923D01*
X65456453Y-47421593D01*
X65431676Y-47477243D01*
X65418610Y-47495227D01*
X65405593Y-47520555D01*
X65365449Y-47568397D01*
X65332831Y-47613291D01*
X65312160Y-47631904D01*
X65290226Y-47658043D01*
X65245025Y-47692352D01*
X65207856Y-47725820D01*
X65178938Y-47742516D01*
X65147266Y-47766556D01*
X65100752Y-47787656D01*
X65062223Y-47809900D01*
X65025182Y-47821936D01*
X64983818Y-47840699D01*
X64939329Y-47849831D01*
X64902282Y-47861869D01*
X64858033Y-47866520D01*
X64808005Y-47876789D01*
X64768246Y-47875956D01*
X64735040Y-47879446D01*
X64685302Y-47874219D01*
X64628565Y-47873030D01*
X64595462Y-47864776D01*
X64567798Y-47861869D01*
X64515018Y-47844719D01*
X64454418Y-47829610D01*
X64428997Y-47816769D01*
X64407857Y-47809900D01*
X64355094Y-47779438D01*
X64294218Y-47748687D01*
X64276631Y-47734138D01*
X64262224Y-47725820D01*
X64212995Y-47681494D01*
X64155927Y-47634283D01*
X64145442Y-47620668D01*
X64137249Y-47613291D01*
X64095350Y-47555622D01*
X64046419Y-47492084D01*
X64041584Y-47481619D01*
X64038404Y-47477243D01*
X64007804Y-47408513D01*
X63971136Y-47329157D01*
X63933820Y-47153600D01*
X63935040Y-47066233D01*
X63935040Y-46990958D01*
X63936165Y-46985665D01*
X63936326Y-46974139D01*
X63955186Y-46896183D01*
X63970005Y-46826465D01*
X63974488Y-46816395D01*
X63978529Y-46799693D01*
X64011463Y-46733347D01*
X64038404Y-46672837D01*
X64048181Y-46659380D01*
X64058332Y-46638931D01*
X64101441Y-46586074D01*
X64137249Y-46536789D01*
X64153768Y-46521915D01*
X64171768Y-46499845D01*
X64220982Y-46461395D01*
X64262224Y-46424260D01*
X64286314Y-46410352D01*
X64313199Y-46389347D01*
X64364548Y-46365184D01*
X64407857Y-46340180D01*
X64439610Y-46329863D01*
X64475596Y-46312929D01*
X64525481Y-46301961D01*
X64567798Y-46288211D01*
X64606535Y-46284140D01*
X64650888Y-46274388D01*
X64696304Y-46274705D01*
X64735040Y-46270634D01*
X64779288Y-46275284D01*
X64779288Y-46275284D01*
G37*
G36*
X51262504Y-45179591D02*
G01*
X51271047Y-45184214D01*
X51276309Y-45185261D01*
X51290487Y-45194735D01*
X51335880Y-45219300D01*
X51349670Y-45234280D01*
X51359003Y-45240516D01*
X51368513Y-45254749D01*
X51392390Y-45280686D01*
X51404899Y-45309203D01*
X51414258Y-45323210D01*
X51416926Y-45336623D01*
X51426756Y-45359033D01*
X51435044Y-45425522D01*
X51435044Y-46304117D01*
X51419928Y-46394701D01*
X51415305Y-46403244D01*
X51414258Y-46408506D01*
X51404784Y-46422684D01*
X51380219Y-46468077D01*
X51365239Y-46481867D01*
X51359003Y-46491200D01*
X51344770Y-46500710D01*
X51318833Y-46524587D01*
X51290316Y-46537096D01*
X51276309Y-46546455D01*
X51262896Y-46549123D01*
X51240486Y-46558953D01*
X51173997Y-46567241D01*
X50545402Y-46567241D01*
X50454818Y-46552125D01*
X50446275Y-46547502D01*
X50441013Y-46546455D01*
X50426835Y-46536981D01*
X50381442Y-46512416D01*
X50367652Y-46497436D01*
X50358319Y-46491200D01*
X50348809Y-46476967D01*
X50324932Y-46451030D01*
X50312423Y-46422513D01*
X50303064Y-46408506D01*
X50300396Y-46395093D01*
X50290566Y-46372683D01*
X50282278Y-46306194D01*
X50282278Y-45427599D01*
X50297394Y-45337015D01*
X50302017Y-45328472D01*
X50303064Y-45323210D01*
X50312538Y-45309032D01*
X50337103Y-45263639D01*
X50352083Y-45249849D01*
X50358319Y-45240516D01*
X50372552Y-45231006D01*
X50398489Y-45207129D01*
X50427006Y-45194620D01*
X50441013Y-45185261D01*
X50454426Y-45182593D01*
X50476836Y-45172763D01*
X50543325Y-45164475D01*
X51171920Y-45164475D01*
X51262504Y-45179591D01*
X51262504Y-45179591D01*
G37*
G36*
X49212504Y-45179591D02*
G01*
X49221047Y-45184214D01*
X49226309Y-45185261D01*
X49240487Y-45194735D01*
X49285880Y-45219300D01*
X49299670Y-45234280D01*
X49309003Y-45240516D01*
X49318513Y-45254749D01*
X49342390Y-45280686D01*
X49354899Y-45309203D01*
X49364258Y-45323210D01*
X49366926Y-45336623D01*
X49376756Y-45359033D01*
X49385044Y-45425522D01*
X49385044Y-46304117D01*
X49369928Y-46394701D01*
X49365305Y-46403244D01*
X49364258Y-46408506D01*
X49354784Y-46422684D01*
X49330219Y-46468077D01*
X49315239Y-46481867D01*
X49309003Y-46491200D01*
X49294770Y-46500710D01*
X49268833Y-46524587D01*
X49240316Y-46537096D01*
X49226309Y-46546455D01*
X49212896Y-46549123D01*
X49190486Y-46558953D01*
X49123997Y-46567241D01*
X48495402Y-46567241D01*
X48404818Y-46552125D01*
X48396275Y-46547502D01*
X48391013Y-46546455D01*
X48376835Y-46536981D01*
X48331442Y-46512416D01*
X48317652Y-46497436D01*
X48308319Y-46491200D01*
X48298809Y-46476967D01*
X48274932Y-46451030D01*
X48262423Y-46422513D01*
X48253064Y-46408506D01*
X48250396Y-46395093D01*
X48240566Y-46372683D01*
X48232278Y-46306194D01*
X48232278Y-45427599D01*
X48247394Y-45337015D01*
X48252017Y-45328472D01*
X48253064Y-45323210D01*
X48262538Y-45309032D01*
X48287103Y-45263639D01*
X48302083Y-45249849D01*
X48308319Y-45240516D01*
X48322552Y-45231006D01*
X48348489Y-45207129D01*
X48377006Y-45194620D01*
X48391013Y-45185261D01*
X48404426Y-45182593D01*
X48426836Y-45172763D01*
X48493325Y-45164475D01*
X49121920Y-45164475D01*
X49212504Y-45179591D01*
X49212504Y-45179591D01*
G37*
G36*
X67619288Y-44890284D02*
G01*
X67670363Y-44890641D01*
X67709076Y-44899721D01*
X67742282Y-44903211D01*
X67789843Y-44918665D01*
X67845099Y-44931625D01*
X67875772Y-44946586D01*
X67902223Y-44955180D01*
X67950282Y-44982926D01*
X68006414Y-45010304D01*
X68028603Y-45028144D01*
X68047856Y-45039260D01*
X68093135Y-45080030D01*
X68146288Y-45122766D01*
X68160470Y-45140659D01*
X68172831Y-45151789D01*
X68211767Y-45205380D01*
X68257771Y-45263422D01*
X68265195Y-45278916D01*
X68271676Y-45287837D01*
X68300665Y-45352948D01*
X68335322Y-45425282D01*
X68337877Y-45436528D01*
X68340075Y-45441465D01*
X68355713Y-45515035D01*
X68375085Y-45600301D01*
X68375008Y-45605808D01*
X68375040Y-45605958D01*
X68375040Y-45774122D01*
X68372490Y-45786119D01*
X68372267Y-45802083D01*
X68353846Y-45873827D01*
X68340075Y-45938615D01*
X68333312Y-45953806D01*
X68327633Y-45975923D01*
X68296453Y-46036593D01*
X68271676Y-46092243D01*
X68258610Y-46110227D01*
X68245593Y-46135555D01*
X68205449Y-46183397D01*
X68172831Y-46228291D01*
X68152160Y-46246904D01*
X68130226Y-46273043D01*
X68085025Y-46307352D01*
X68047856Y-46340820D01*
X68018938Y-46357516D01*
X67987266Y-46381556D01*
X67940752Y-46402656D01*
X67902223Y-46424900D01*
X67865182Y-46436936D01*
X67823818Y-46455699D01*
X67779329Y-46464831D01*
X67742282Y-46476869D01*
X67698033Y-46481520D01*
X67648005Y-46491789D01*
X67608246Y-46490956D01*
X67575040Y-46494446D01*
X67525302Y-46489219D01*
X67468565Y-46488030D01*
X67435462Y-46479776D01*
X67407798Y-46476869D01*
X67355018Y-46459719D01*
X67294418Y-46444610D01*
X67268997Y-46431769D01*
X67247857Y-46424900D01*
X67195094Y-46394438D01*
X67134218Y-46363687D01*
X67116631Y-46349138D01*
X67102224Y-46340820D01*
X67052995Y-46296494D01*
X66995927Y-46249283D01*
X66985442Y-46235668D01*
X66977249Y-46228291D01*
X66935350Y-46170622D01*
X66886419Y-46107084D01*
X66881584Y-46096619D01*
X66878404Y-46092243D01*
X66847804Y-46023513D01*
X66811136Y-45944157D01*
X66773820Y-45768600D01*
X66775040Y-45681233D01*
X66775040Y-45605958D01*
X66776165Y-45600665D01*
X66776326Y-45589139D01*
X66795186Y-45511183D01*
X66810005Y-45441465D01*
X66814488Y-45431395D01*
X66818529Y-45414693D01*
X66851463Y-45348347D01*
X66878404Y-45287837D01*
X66888181Y-45274380D01*
X66898332Y-45253931D01*
X66941441Y-45201074D01*
X66977249Y-45151789D01*
X66993768Y-45136915D01*
X67011768Y-45114845D01*
X67060982Y-45076395D01*
X67102224Y-45039260D01*
X67126314Y-45025352D01*
X67153199Y-45004347D01*
X67204548Y-44980184D01*
X67247857Y-44955180D01*
X67279610Y-44944863D01*
X67315596Y-44927929D01*
X67365481Y-44916961D01*
X67407798Y-44903211D01*
X67446535Y-44899140D01*
X67490888Y-44889388D01*
X67536304Y-44889705D01*
X67575040Y-44885634D01*
X67619288Y-44890284D01*
X67619288Y-44890284D01*
G37*
G36*
X45518883Y-44718773D02*
G01*
X45527426Y-44723396D01*
X45532688Y-44724443D01*
X45546866Y-44733917D01*
X45592259Y-44758482D01*
X45606049Y-44773462D01*
X45615382Y-44779698D01*
X45624892Y-44793931D01*
X45648769Y-44819868D01*
X45661278Y-44848385D01*
X45670637Y-44862392D01*
X45673305Y-44875805D01*
X45683135Y-44898215D01*
X45691423Y-44964704D01*
X45691423Y-45843299D01*
X45676307Y-45933883D01*
X45671684Y-45942426D01*
X45670637Y-45947688D01*
X45661163Y-45961866D01*
X45636598Y-46007259D01*
X45621618Y-46021049D01*
X45615382Y-46030382D01*
X45601149Y-46039892D01*
X45575212Y-46063769D01*
X45546695Y-46076278D01*
X45532688Y-46085637D01*
X45519275Y-46088305D01*
X45496865Y-46098135D01*
X45430376Y-46106423D01*
X44801781Y-46106423D01*
X44711197Y-46091307D01*
X44702654Y-46086684D01*
X44697392Y-46085637D01*
X44683214Y-46076163D01*
X44637821Y-46051598D01*
X44624031Y-46036618D01*
X44614698Y-46030382D01*
X44605188Y-46016149D01*
X44581311Y-45990212D01*
X44568802Y-45961695D01*
X44559443Y-45947688D01*
X44556775Y-45934275D01*
X44546945Y-45911865D01*
X44538657Y-45845376D01*
X44538657Y-44966781D01*
X44553773Y-44876197D01*
X44558396Y-44867654D01*
X44559443Y-44862392D01*
X44568917Y-44848214D01*
X44593482Y-44802821D01*
X44608462Y-44789031D01*
X44614698Y-44779698D01*
X44628931Y-44770188D01*
X44654868Y-44746311D01*
X44683385Y-44733802D01*
X44697392Y-44724443D01*
X44710805Y-44721775D01*
X44733215Y-44711945D01*
X44799704Y-44703657D01*
X45428299Y-44703657D01*
X45518883Y-44718773D01*
X45518883Y-44718773D01*
G37*
G36*
X43468883Y-44718773D02*
G01*
X43477426Y-44723396D01*
X43482688Y-44724443D01*
X43496866Y-44733917D01*
X43542259Y-44758482D01*
X43556049Y-44773462D01*
X43565382Y-44779698D01*
X43574892Y-44793931D01*
X43598769Y-44819868D01*
X43611278Y-44848385D01*
X43620637Y-44862392D01*
X43623305Y-44875805D01*
X43633135Y-44898215D01*
X43641423Y-44964704D01*
X43641423Y-45843299D01*
X43626307Y-45933883D01*
X43621684Y-45942426D01*
X43620637Y-45947688D01*
X43611163Y-45961866D01*
X43586598Y-46007259D01*
X43571618Y-46021049D01*
X43565382Y-46030382D01*
X43551149Y-46039892D01*
X43525212Y-46063769D01*
X43496695Y-46076278D01*
X43482688Y-46085637D01*
X43469275Y-46088305D01*
X43446865Y-46098135D01*
X43380376Y-46106423D01*
X42751781Y-46106423D01*
X42661197Y-46091307D01*
X42652654Y-46086684D01*
X42647392Y-46085637D01*
X42633214Y-46076163D01*
X42587821Y-46051598D01*
X42574031Y-46036618D01*
X42564698Y-46030382D01*
X42555188Y-46016149D01*
X42531311Y-45990212D01*
X42518802Y-45961695D01*
X42509443Y-45947688D01*
X42506775Y-45934275D01*
X42496945Y-45911865D01*
X42488657Y-45845376D01*
X42488657Y-44966781D01*
X42503773Y-44876197D01*
X42508396Y-44867654D01*
X42509443Y-44862392D01*
X42518917Y-44848214D01*
X42543482Y-44802821D01*
X42558462Y-44789031D01*
X42564698Y-44779698D01*
X42578931Y-44770188D01*
X42604868Y-44746311D01*
X42633385Y-44733802D01*
X42647392Y-44724443D01*
X42660805Y-44721775D01*
X42683215Y-44711945D01*
X42749704Y-44703657D01*
X43378299Y-44703657D01*
X43468883Y-44718773D01*
X43468883Y-44718773D01*
G37*
G36*
X54608661Y-44615858D02*
G01*
X54610620Y-44625708D01*
X54610620Y-45606008D01*
X54608661Y-45615858D01*
X54598811Y-45617817D01*
X53118511Y-45617817D01*
X53108660Y-45615858D01*
X53108661Y-45615858D01*
X53106702Y-45606008D01*
X53106702Y-44625708D01*
X53108661Y-44615858D01*
X53118511Y-44613899D01*
X54598811Y-44613899D01*
X54608661Y-44615858D01*
X54608661Y-44615858D01*
G37*
G36*
X64779288Y-43505284D02*
G01*
X64830363Y-43505641D01*
X64869076Y-43514721D01*
X64902282Y-43518211D01*
X64949843Y-43533665D01*
X65005099Y-43546625D01*
X65035772Y-43561586D01*
X65062223Y-43570180D01*
X65110282Y-43597926D01*
X65166414Y-43625304D01*
X65188603Y-43643144D01*
X65207856Y-43654260D01*
X65253135Y-43695030D01*
X65306288Y-43737766D01*
X65320470Y-43755659D01*
X65332831Y-43766789D01*
X65371767Y-43820380D01*
X65417771Y-43878422D01*
X65425195Y-43893916D01*
X65431676Y-43902837D01*
X65460665Y-43967948D01*
X65495322Y-44040282D01*
X65497877Y-44051528D01*
X65500075Y-44056465D01*
X65515713Y-44130035D01*
X65535085Y-44215301D01*
X65535008Y-44220808D01*
X65535040Y-44220958D01*
X65535040Y-44389122D01*
X65532490Y-44401119D01*
X65532267Y-44417083D01*
X65513846Y-44488827D01*
X65500075Y-44553615D01*
X65493312Y-44568806D01*
X65487633Y-44590923D01*
X65456453Y-44651593D01*
X65431676Y-44707243D01*
X65418610Y-44725227D01*
X65405593Y-44750555D01*
X65365449Y-44798397D01*
X65332831Y-44843291D01*
X65312160Y-44861904D01*
X65290226Y-44888043D01*
X65245025Y-44922352D01*
X65207856Y-44955820D01*
X65178938Y-44972516D01*
X65147266Y-44996556D01*
X65100752Y-45017656D01*
X65062223Y-45039900D01*
X65025182Y-45051936D01*
X64983818Y-45070699D01*
X64939329Y-45079831D01*
X64902282Y-45091869D01*
X64858033Y-45096520D01*
X64808005Y-45106789D01*
X64768246Y-45105956D01*
X64735040Y-45109446D01*
X64685302Y-45104219D01*
X64628565Y-45103030D01*
X64595462Y-45094776D01*
X64567798Y-45091869D01*
X64515018Y-45074719D01*
X64454418Y-45059610D01*
X64428997Y-45046769D01*
X64407857Y-45039900D01*
X64355094Y-45009438D01*
X64294218Y-44978687D01*
X64276631Y-44964138D01*
X64262224Y-44955820D01*
X64212995Y-44911494D01*
X64155927Y-44864283D01*
X64145442Y-44850668D01*
X64137249Y-44843291D01*
X64095350Y-44785622D01*
X64046419Y-44722084D01*
X64041584Y-44711619D01*
X64038404Y-44707243D01*
X64007804Y-44638513D01*
X63971136Y-44559157D01*
X63933820Y-44383600D01*
X63935040Y-44296233D01*
X63935040Y-44220958D01*
X63936165Y-44215665D01*
X63936326Y-44204139D01*
X63955186Y-44126183D01*
X63970005Y-44056465D01*
X63974488Y-44046395D01*
X63978529Y-44029693D01*
X64011463Y-43963347D01*
X64038404Y-43902837D01*
X64048181Y-43889380D01*
X64058332Y-43868931D01*
X64101441Y-43816074D01*
X64137249Y-43766789D01*
X64153768Y-43751915D01*
X64171768Y-43729845D01*
X64220982Y-43691395D01*
X64262224Y-43654260D01*
X64286314Y-43640352D01*
X64313199Y-43619347D01*
X64364548Y-43595184D01*
X64407857Y-43570180D01*
X64439610Y-43559863D01*
X64475596Y-43542929D01*
X64525481Y-43531961D01*
X64567798Y-43518211D01*
X64606535Y-43514140D01*
X64650888Y-43504388D01*
X64696304Y-43504705D01*
X64735040Y-43500634D01*
X64779288Y-43505284D01*
X64779288Y-43505284D01*
G37*
G36*
X54608661Y-43315858D02*
G01*
X54610620Y-43325708D01*
X54610620Y-44306008D01*
X54608661Y-44315858D01*
X54598811Y-44317817D01*
X53118511Y-44317817D01*
X53108660Y-44315858D01*
X53108661Y-44315858D01*
X53106702Y-44306008D01*
X53106702Y-43325708D01*
X53108661Y-43315858D01*
X53118511Y-43313899D01*
X54598811Y-43313899D01*
X54608661Y-43315858D01*
X54608661Y-43315858D01*
G37*
G36*
X49212504Y-42779591D02*
G01*
X49221047Y-42784214D01*
X49226309Y-42785261D01*
X49240487Y-42794735D01*
X49285880Y-42819300D01*
X49299670Y-42834280D01*
X49309003Y-42840516D01*
X49318513Y-42854749D01*
X49342390Y-42880686D01*
X49354899Y-42909203D01*
X49364258Y-42923210D01*
X49366926Y-42936623D01*
X49376756Y-42959033D01*
X49385044Y-43025522D01*
X49385044Y-43904117D01*
X49369928Y-43994701D01*
X49365305Y-44003244D01*
X49364258Y-44008506D01*
X49354784Y-44022684D01*
X49330219Y-44068077D01*
X49315239Y-44081867D01*
X49309003Y-44091200D01*
X49294770Y-44100710D01*
X49268833Y-44124587D01*
X49240316Y-44137096D01*
X49226309Y-44146455D01*
X49212896Y-44149123D01*
X49190486Y-44158953D01*
X49123997Y-44167241D01*
X48495402Y-44167241D01*
X48404818Y-44152125D01*
X48396275Y-44147502D01*
X48391013Y-44146455D01*
X48376835Y-44136981D01*
X48331442Y-44112416D01*
X48317652Y-44097436D01*
X48308319Y-44091200D01*
X48298809Y-44076967D01*
X48274932Y-44051030D01*
X48262423Y-44022513D01*
X48253064Y-44008506D01*
X48250396Y-43995093D01*
X48240566Y-43972683D01*
X48232278Y-43906194D01*
X48232278Y-43027599D01*
X48247394Y-42937015D01*
X48252017Y-42928472D01*
X48253064Y-42923210D01*
X48262538Y-42909032D01*
X48287103Y-42863639D01*
X48302083Y-42849849D01*
X48308319Y-42840516D01*
X48322552Y-42831006D01*
X48348489Y-42807129D01*
X48377006Y-42794620D01*
X48391013Y-42785261D01*
X48404426Y-42782593D01*
X48426836Y-42772763D01*
X48493325Y-42764475D01*
X49121920Y-42764475D01*
X49212504Y-42779591D01*
X49212504Y-42779591D01*
G37*
G36*
X51262504Y-42779591D02*
G01*
X51271047Y-42784214D01*
X51276309Y-42785261D01*
X51290487Y-42794735D01*
X51335880Y-42819300D01*
X51349670Y-42834280D01*
X51359003Y-42840516D01*
X51368513Y-42854749D01*
X51392390Y-42880686D01*
X51404899Y-42909203D01*
X51414258Y-42923210D01*
X51416926Y-42936623D01*
X51426756Y-42959033D01*
X51435044Y-43025522D01*
X51435044Y-43904117D01*
X51419928Y-43994701D01*
X51415305Y-44003244D01*
X51414258Y-44008506D01*
X51404784Y-44022684D01*
X51380219Y-44068077D01*
X51365239Y-44081867D01*
X51359003Y-44091200D01*
X51344770Y-44100710D01*
X51318833Y-44124587D01*
X51290316Y-44137096D01*
X51276309Y-44146455D01*
X51262896Y-44149123D01*
X51240486Y-44158953D01*
X51173997Y-44167241D01*
X50545402Y-44167241D01*
X50454818Y-44152125D01*
X50446275Y-44147502D01*
X50441013Y-44146455D01*
X50426835Y-44136981D01*
X50381442Y-44112416D01*
X50367652Y-44097436D01*
X50358319Y-44091200D01*
X50348809Y-44076967D01*
X50324932Y-44051030D01*
X50312423Y-44022513D01*
X50303064Y-44008506D01*
X50300396Y-43995093D01*
X50290566Y-43972683D01*
X50282278Y-43906194D01*
X50282278Y-43027599D01*
X50297394Y-42937015D01*
X50302017Y-42928472D01*
X50303064Y-42923210D01*
X50312538Y-42909032D01*
X50337103Y-42863639D01*
X50352083Y-42849849D01*
X50358319Y-42840516D01*
X50372552Y-42831006D01*
X50398489Y-42807129D01*
X50427006Y-42794620D01*
X50441013Y-42785261D01*
X50454426Y-42782593D01*
X50476836Y-42772763D01*
X50543325Y-42764475D01*
X51171920Y-42764475D01*
X51262504Y-42779591D01*
X51262504Y-42779591D01*
G37*
G36*
X47020661Y-42503858D02*
G01*
X47022620Y-42513708D01*
X47022620Y-44018008D01*
X47020661Y-44027858D01*
X47010811Y-44029817D01*
X45506511Y-44029817D01*
X45496660Y-44027858D01*
X45496661Y-44027858D01*
X45494702Y-44018008D01*
X45494702Y-42513708D01*
X45496661Y-42503858D01*
X45506511Y-42501899D01*
X47010811Y-42501899D01*
X47020661Y-42503858D01*
X47020661Y-42503858D01*
G37*
G36*
X42520661Y-42503858D02*
G01*
X42522620Y-42513708D01*
X42522620Y-44018008D01*
X42520661Y-44027858D01*
X42510811Y-44029817D01*
X41006511Y-44029817D01*
X40996661Y-44027858D01*
X40994702Y-44018008D01*
X40994702Y-42513708D01*
X40996661Y-42503858D01*
X41006511Y-42501899D01*
X42510811Y-42501899D01*
X42520661Y-42503858D01*
X42520661Y-42503858D01*
G37*
G36*
X32733661Y-43270858D02*
G01*
X32735620Y-43280708D01*
X32735620Y-43861008D01*
X32733661Y-43870858D01*
X32723811Y-43872817D01*
X31193511Y-43872817D01*
X31183660Y-43870858D01*
X31183661Y-43870858D01*
X31181702Y-43861008D01*
X31181702Y-43280708D01*
X31183661Y-43270858D01*
X31193511Y-43268899D01*
X32723811Y-43268899D01*
X32733661Y-43270858D01*
X32733661Y-43270858D01*
G37*
G36*
X38133661Y-43270858D02*
G01*
X38135620Y-43280708D01*
X38135620Y-43861008D01*
X38133661Y-43870858D01*
X38123811Y-43872817D01*
X36593511Y-43872817D01*
X36583660Y-43870858D01*
X36583661Y-43870858D01*
X36581702Y-43861008D01*
X36581702Y-43280708D01*
X36583661Y-43270858D01*
X36593511Y-43268899D01*
X38123811Y-43268899D01*
X38133661Y-43270858D01*
X38133661Y-43270858D01*
G37*
G36*
X67619288Y-42120284D02*
G01*
X67670363Y-42120641D01*
X67709076Y-42129721D01*
X67742282Y-42133211D01*
X67789843Y-42148665D01*
X67845099Y-42161625D01*
X67875772Y-42176586D01*
X67902223Y-42185180D01*
X67950282Y-42212926D01*
X68006414Y-42240304D01*
X68028603Y-42258144D01*
X68047856Y-42269260D01*
X68093135Y-42310030D01*
X68146288Y-42352766D01*
X68160470Y-42370659D01*
X68172831Y-42381789D01*
X68211767Y-42435380D01*
X68257771Y-42493422D01*
X68265195Y-42508916D01*
X68271676Y-42517837D01*
X68300665Y-42582948D01*
X68335322Y-42655282D01*
X68337877Y-42666528D01*
X68340075Y-42671465D01*
X68355713Y-42745035D01*
X68375085Y-42830301D01*
X68375008Y-42835808D01*
X68375040Y-42835958D01*
X68375040Y-43004122D01*
X68372490Y-43016119D01*
X68372267Y-43032083D01*
X68353846Y-43103827D01*
X68340075Y-43168615D01*
X68333312Y-43183806D01*
X68327633Y-43205923D01*
X68296453Y-43266593D01*
X68271676Y-43322243D01*
X68258610Y-43340227D01*
X68245593Y-43365555D01*
X68205449Y-43413397D01*
X68172831Y-43458291D01*
X68152160Y-43476904D01*
X68130226Y-43503043D01*
X68085025Y-43537352D01*
X68047856Y-43570820D01*
X68018938Y-43587516D01*
X67987266Y-43611556D01*
X67940752Y-43632656D01*
X67902223Y-43654900D01*
X67865182Y-43666936D01*
X67823818Y-43685699D01*
X67779329Y-43694831D01*
X67742282Y-43706869D01*
X67698033Y-43711520D01*
X67648005Y-43721789D01*
X67608246Y-43720956D01*
X67575040Y-43724446D01*
X67525302Y-43719219D01*
X67468565Y-43718030D01*
X67435462Y-43709776D01*
X67407798Y-43706869D01*
X67355018Y-43689719D01*
X67294418Y-43674610D01*
X67268997Y-43661769D01*
X67247857Y-43654900D01*
X67195094Y-43624438D01*
X67134218Y-43593687D01*
X67116631Y-43579138D01*
X67102224Y-43570820D01*
X67052995Y-43526494D01*
X66995927Y-43479283D01*
X66985442Y-43465668D01*
X66977249Y-43458291D01*
X66935350Y-43400622D01*
X66886419Y-43337084D01*
X66881584Y-43326619D01*
X66878404Y-43322243D01*
X66847804Y-43253513D01*
X66811136Y-43174157D01*
X66773820Y-42998600D01*
X66775040Y-42911233D01*
X66775040Y-42835958D01*
X66776165Y-42830665D01*
X66776326Y-42819139D01*
X66795186Y-42741183D01*
X66810005Y-42671465D01*
X66814488Y-42661395D01*
X66818529Y-42644693D01*
X66851463Y-42578347D01*
X66878404Y-42517837D01*
X66888181Y-42504380D01*
X66898332Y-42483931D01*
X66941441Y-42431074D01*
X66977249Y-42381789D01*
X66993768Y-42366915D01*
X67011768Y-42344845D01*
X67060982Y-42306395D01*
X67102224Y-42269260D01*
X67126314Y-42255352D01*
X67153199Y-42234347D01*
X67204548Y-42210184D01*
X67247857Y-42185180D01*
X67279610Y-42174863D01*
X67315596Y-42157929D01*
X67365481Y-42146961D01*
X67407798Y-42133211D01*
X67446535Y-42129140D01*
X67490888Y-42119388D01*
X67536304Y-42119705D01*
X67575040Y-42115634D01*
X67619288Y-42120284D01*
X67619288Y-42120284D01*
G37*
G36*
X29987504Y-42129591D02*
G01*
X29996047Y-42134214D01*
X30001309Y-42135261D01*
X30015487Y-42144735D01*
X30060880Y-42169300D01*
X30074670Y-42184280D01*
X30084003Y-42190516D01*
X30093513Y-42204749D01*
X30117390Y-42230686D01*
X30129899Y-42259203D01*
X30139258Y-42273210D01*
X30141926Y-42286623D01*
X30151756Y-42309033D01*
X30160044Y-42375522D01*
X30160044Y-43004117D01*
X30144928Y-43094701D01*
X30140305Y-43103244D01*
X30139258Y-43108506D01*
X30129784Y-43122684D01*
X30105219Y-43168077D01*
X30090239Y-43181867D01*
X30084003Y-43191200D01*
X30069770Y-43200710D01*
X30043833Y-43224587D01*
X30015316Y-43237096D01*
X30001309Y-43246455D01*
X29987896Y-43249123D01*
X29965486Y-43258953D01*
X29898997Y-43267241D01*
X29020402Y-43267241D01*
X28929818Y-43252125D01*
X28921275Y-43247502D01*
X28916013Y-43246455D01*
X28901835Y-43236981D01*
X28856442Y-43212416D01*
X28842652Y-43197436D01*
X28833319Y-43191200D01*
X28823809Y-43176967D01*
X28799932Y-43151030D01*
X28787423Y-43122513D01*
X28778064Y-43108506D01*
X28775396Y-43095093D01*
X28765566Y-43072683D01*
X28757278Y-43006194D01*
X28757278Y-42377599D01*
X28772394Y-42287015D01*
X28777017Y-42278472D01*
X28778064Y-42273210D01*
X28787538Y-42259032D01*
X28812103Y-42213639D01*
X28827083Y-42199849D01*
X28833319Y-42190516D01*
X28847552Y-42181006D01*
X28873489Y-42157129D01*
X28902006Y-42144620D01*
X28916013Y-42135261D01*
X28929426Y-42132593D01*
X28951836Y-42122763D01*
X29018325Y-42114475D01*
X29896920Y-42114475D01*
X29987504Y-42129591D01*
X29987504Y-42129591D01*
G37*
G36*
X59286442Y-41260126D02*
G01*
X59425814Y-41281702D01*
X59431418Y-41284127D01*
X59440581Y-41285644D01*
X59513521Y-41319656D01*
X59581862Y-41349230D01*
X59591669Y-41356097D01*
X59607959Y-41363693D01*
X59667174Y-41408966D01*
X59723310Y-41448273D01*
X59735642Y-41461314D01*
X59754673Y-41475864D01*
X59798960Y-41528271D01*
X59841962Y-41573744D01*
X59854565Y-41594070D01*
X59873877Y-41616923D01*
X59903098Y-41672346D01*
X59932957Y-41720503D01*
X59943276Y-41748551D01*
X59960010Y-41780289D01*
X59975070Y-41834965D01*
X59992581Y-41882559D01*
X59997940Y-41917995D01*
X60009053Y-41958340D01*
X60011711Y-42009047D01*
X60018404Y-42053305D01*
X60016217Y-42095034D01*
X60018719Y-42142768D01*
X60011398Y-42186990D01*
X60009367Y-42225750D01*
X59997334Y-42271946D01*
X59988556Y-42324970D01*
X59974123Y-42361055D01*
X59965840Y-42392854D01*
X59942139Y-42441019D01*
X59919971Y-42496444D01*
X59901474Y-42523662D01*
X59889599Y-42547794D01*
X59853059Y-42594901D01*
X59816164Y-42649190D01*
X59796591Y-42667699D01*
X59783760Y-42684241D01*
X59733981Y-42726907D01*
X59681979Y-42776083D01*
X59664009Y-42786881D01*
X59652648Y-42796618D01*
X59590125Y-42831275D01*
X59523677Y-42871201D01*
X59509470Y-42875982D01*
X59501619Y-42880334D01*
X59427789Y-42903471D01*
X59348641Y-42930107D01*
X59339689Y-42931079D01*
X59336838Y-42931973D01*
X59254028Y-42940385D01*
X59211177Y-42945040D01*
X59134765Y-42945040D01*
X59043638Y-42929954D01*
X58904266Y-42908378D01*
X58898662Y-42905953D01*
X58889499Y-42904436D01*
X58816559Y-42870424D01*
X58748218Y-42840850D01*
X58738411Y-42833983D01*
X58722121Y-42826387D01*
X58662906Y-42781114D01*
X58606770Y-42741807D01*
X58594438Y-42728766D01*
X58575407Y-42714216D01*
X58531120Y-42661809D01*
X58488118Y-42616336D01*
X58475515Y-42596010D01*
X58456203Y-42573157D01*
X58426982Y-42517734D01*
X58397123Y-42469577D01*
X58386804Y-42441529D01*
X58370070Y-42409791D01*
X58355010Y-42355115D01*
X58337499Y-42307521D01*
X58332140Y-42272085D01*
X58321027Y-42231740D01*
X58318369Y-42181033D01*
X58311676Y-42136775D01*
X58313863Y-42095046D01*
X58311361Y-42047312D01*
X58318682Y-42003090D01*
X58320713Y-41964330D01*
X58332746Y-41918134D01*
X58341524Y-41865110D01*
X58355957Y-41829025D01*
X58364240Y-41797226D01*
X58387941Y-41749061D01*
X58410109Y-41693636D01*
X58428606Y-41666418D01*
X58440481Y-41642286D01*
X58477021Y-41595179D01*
X58513916Y-41540890D01*
X58533489Y-41522381D01*
X58546320Y-41505839D01*
X58596099Y-41463173D01*
X58648101Y-41413997D01*
X58666071Y-41403199D01*
X58677432Y-41393462D01*
X58739955Y-41358805D01*
X58806403Y-41318879D01*
X58820610Y-41314098D01*
X58828461Y-41309746D01*
X58902291Y-41286609D01*
X58981439Y-41259973D01*
X58990391Y-41259001D01*
X58993242Y-41258107D01*
X59076052Y-41249695D01*
X59118903Y-41245040D01*
X59195315Y-41245040D01*
X59286442Y-41260126D01*
X59286442Y-41260126D01*
G37*
G36*
X32733661Y-42000858D02*
G01*
X32735620Y-42010708D01*
X32735620Y-42591008D01*
X32733661Y-42600858D01*
X32723811Y-42602817D01*
X31193511Y-42602817D01*
X31183660Y-42600858D01*
X31183661Y-42600858D01*
X31181702Y-42591008D01*
X31181702Y-42010708D01*
X31183661Y-42000858D01*
X31193511Y-41998899D01*
X32723811Y-41998899D01*
X32733661Y-42000858D01*
X32733661Y-42000858D01*
G37*
G36*
X38133661Y-42000858D02*
G01*
X38135620Y-42010708D01*
X38135620Y-42591008D01*
X38133661Y-42600858D01*
X38123811Y-42602817D01*
X36593511Y-42602817D01*
X36583660Y-42600858D01*
X36583661Y-42600858D01*
X36581702Y-42591008D01*
X36581702Y-42010708D01*
X36583661Y-42000858D01*
X36593511Y-41998899D01*
X38123811Y-41998899D01*
X38133661Y-42000858D01*
X38133661Y-42000858D01*
G37*
G36*
X44931040Y-41034040D02*
G01*
X44932999Y-41043890D01*
X44932999Y-42524190D01*
X44931040Y-42534040D01*
X44921190Y-42535999D01*
X43440890Y-42535999D01*
X43431039Y-42534040D01*
X43431040Y-42534040D01*
X43429081Y-42524190D01*
X43429081Y-41043890D01*
X43431040Y-41034040D01*
X43440890Y-41032081D01*
X44921190Y-41032081D01*
X44931040Y-41034040D01*
X44931040Y-41034040D01*
G37*
G36*
X64779288Y-40735284D02*
G01*
X64830363Y-40735641D01*
X64869076Y-40744721D01*
X64902282Y-40748211D01*
X64949843Y-40763665D01*
X65005099Y-40776625D01*
X65035772Y-40791586D01*
X65062223Y-40800180D01*
X65110282Y-40827926D01*
X65166414Y-40855304D01*
X65188603Y-40873144D01*
X65207856Y-40884260D01*
X65253135Y-40925030D01*
X65306288Y-40967766D01*
X65320470Y-40985659D01*
X65332831Y-40996789D01*
X65371767Y-41050380D01*
X65417771Y-41108422D01*
X65425195Y-41123916D01*
X65431676Y-41132837D01*
X65460665Y-41197948D01*
X65495322Y-41270282D01*
X65497877Y-41281528D01*
X65500075Y-41286465D01*
X65515713Y-41360035D01*
X65535085Y-41445301D01*
X65535008Y-41450808D01*
X65535040Y-41450958D01*
X65535040Y-41619122D01*
X65532490Y-41631119D01*
X65532267Y-41647083D01*
X65513846Y-41718827D01*
X65500075Y-41783615D01*
X65493312Y-41798806D01*
X65487633Y-41820923D01*
X65456453Y-41881593D01*
X65431676Y-41937243D01*
X65418610Y-41955227D01*
X65405593Y-41980555D01*
X65365449Y-42028397D01*
X65332831Y-42073291D01*
X65312160Y-42091904D01*
X65290226Y-42118043D01*
X65245025Y-42152352D01*
X65207856Y-42185820D01*
X65178938Y-42202516D01*
X65147266Y-42226556D01*
X65100752Y-42247656D01*
X65062223Y-42269900D01*
X65025182Y-42281936D01*
X64983818Y-42300699D01*
X64939329Y-42309831D01*
X64902282Y-42321869D01*
X64858033Y-42326520D01*
X64808005Y-42336789D01*
X64768246Y-42335956D01*
X64735040Y-42339446D01*
X64685302Y-42334219D01*
X64628565Y-42333030D01*
X64595462Y-42324776D01*
X64567798Y-42321869D01*
X64515018Y-42304719D01*
X64454418Y-42289610D01*
X64428997Y-42276769D01*
X64407857Y-42269900D01*
X64355094Y-42239438D01*
X64294218Y-42208687D01*
X64276631Y-42194138D01*
X64262224Y-42185820D01*
X64212995Y-42141494D01*
X64155927Y-42094283D01*
X64145442Y-42080668D01*
X64137249Y-42073291D01*
X64095350Y-42015622D01*
X64046419Y-41952084D01*
X64041584Y-41941619D01*
X64038404Y-41937243D01*
X64007804Y-41868513D01*
X63971136Y-41789157D01*
X63933820Y-41613600D01*
X63935040Y-41526233D01*
X63935040Y-41450958D01*
X63936165Y-41445665D01*
X63936326Y-41434139D01*
X63955186Y-41356183D01*
X63970005Y-41286465D01*
X63974488Y-41276395D01*
X63978529Y-41259693D01*
X64011463Y-41193347D01*
X64038404Y-41132837D01*
X64048181Y-41119380D01*
X64058332Y-41098931D01*
X64101441Y-41046074D01*
X64137249Y-40996789D01*
X64153768Y-40981915D01*
X64171768Y-40959845D01*
X64220982Y-40921395D01*
X64262224Y-40884260D01*
X64286314Y-40870352D01*
X64313199Y-40849347D01*
X64364548Y-40825184D01*
X64407857Y-40800180D01*
X64439610Y-40789863D01*
X64475596Y-40772929D01*
X64525481Y-40761961D01*
X64567798Y-40748211D01*
X64606535Y-40744140D01*
X64650888Y-40734388D01*
X64696304Y-40734705D01*
X64735040Y-40730634D01*
X64779288Y-40735284D01*
X64779288Y-40735284D01*
G37*
G36*
X53237504Y-40779591D02*
G01*
X53246047Y-40784214D01*
X53251309Y-40785261D01*
X53265487Y-40794735D01*
X53310880Y-40819300D01*
X53324670Y-40834280D01*
X53334003Y-40840516D01*
X53343513Y-40854749D01*
X53367390Y-40880686D01*
X53379899Y-40909203D01*
X53389258Y-40923210D01*
X53391926Y-40936623D01*
X53401756Y-40959033D01*
X53410044Y-41025522D01*
X53410044Y-41904117D01*
X53394928Y-41994701D01*
X53390305Y-42003244D01*
X53389258Y-42008506D01*
X53379784Y-42022684D01*
X53355219Y-42068077D01*
X53340239Y-42081867D01*
X53334003Y-42091200D01*
X53319770Y-42100710D01*
X53293833Y-42124587D01*
X53265316Y-42137096D01*
X53251309Y-42146455D01*
X53237896Y-42149123D01*
X53215486Y-42158953D01*
X53148997Y-42167241D01*
X52520402Y-42167241D01*
X52429818Y-42152125D01*
X52421275Y-42147502D01*
X52416013Y-42146455D01*
X52401835Y-42136981D01*
X52356442Y-42112416D01*
X52342652Y-42097436D01*
X52333319Y-42091200D01*
X52323809Y-42076967D01*
X52299932Y-42051030D01*
X52287423Y-42022513D01*
X52278064Y-42008506D01*
X52275396Y-41995093D01*
X52265566Y-41972683D01*
X52257278Y-41906194D01*
X52257278Y-41027599D01*
X52272394Y-40937015D01*
X52277017Y-40928472D01*
X52278064Y-40923210D01*
X52287538Y-40909032D01*
X52312103Y-40863639D01*
X52327083Y-40849849D01*
X52333319Y-40840516D01*
X52347552Y-40831006D01*
X52373489Y-40807129D01*
X52402006Y-40794620D01*
X52416013Y-40785261D01*
X52429426Y-40782593D01*
X52451836Y-40772763D01*
X52518325Y-40764475D01*
X53146920Y-40764475D01*
X53237504Y-40779591D01*
X53237504Y-40779591D01*
G37*
G36*
X55287504Y-40779591D02*
G01*
X55296047Y-40784214D01*
X55301309Y-40785261D01*
X55315487Y-40794735D01*
X55360880Y-40819300D01*
X55374670Y-40834280D01*
X55384003Y-40840516D01*
X55393513Y-40854749D01*
X55417390Y-40880686D01*
X55429899Y-40909203D01*
X55439258Y-40923210D01*
X55441926Y-40936623D01*
X55451756Y-40959033D01*
X55460044Y-41025522D01*
X55460044Y-41904117D01*
X55444928Y-41994701D01*
X55440305Y-42003244D01*
X55439258Y-42008506D01*
X55429784Y-42022684D01*
X55405219Y-42068077D01*
X55390239Y-42081867D01*
X55384003Y-42091200D01*
X55369770Y-42100710D01*
X55343833Y-42124587D01*
X55315316Y-42137096D01*
X55301309Y-42146455D01*
X55287896Y-42149123D01*
X55265486Y-42158953D01*
X55198997Y-42167241D01*
X54570402Y-42167241D01*
X54479818Y-42152125D01*
X54471275Y-42147502D01*
X54466013Y-42146455D01*
X54451835Y-42136981D01*
X54406442Y-42112416D01*
X54392652Y-42097436D01*
X54383319Y-42091200D01*
X54373809Y-42076967D01*
X54349932Y-42051030D01*
X54337423Y-42022513D01*
X54328064Y-42008506D01*
X54325396Y-41995093D01*
X54315566Y-41972683D01*
X54307278Y-41906194D01*
X54307278Y-41027599D01*
X54322394Y-40937015D01*
X54327017Y-40928472D01*
X54328064Y-40923210D01*
X54337538Y-40909032D01*
X54362103Y-40863639D01*
X54377083Y-40849849D01*
X54383319Y-40840516D01*
X54397552Y-40831006D01*
X54423489Y-40807129D01*
X54452006Y-40794620D01*
X54466013Y-40785261D01*
X54479426Y-40782593D01*
X54501836Y-40772763D01*
X54568325Y-40764475D01*
X55196920Y-40764475D01*
X55287504Y-40779591D01*
X55287504Y-40779591D01*
G37*
G36*
X32733661Y-40730858D02*
G01*
X32735620Y-40740708D01*
X32735620Y-41321008D01*
X32733661Y-41330858D01*
X32723811Y-41332817D01*
X31193511Y-41332817D01*
X31183660Y-41330858D01*
X31183661Y-41330858D01*
X31181702Y-41321008D01*
X31181702Y-40740708D01*
X31183661Y-40730858D01*
X31193511Y-40728899D01*
X32723811Y-40728899D01*
X32733661Y-40730858D01*
X32733661Y-40730858D01*
G37*
G36*
X38133661Y-40730858D02*
G01*
X38135620Y-40740708D01*
X38135620Y-41321008D01*
X38133661Y-41330858D01*
X38123811Y-41332817D01*
X36593511Y-41332817D01*
X36583660Y-41330858D01*
X36583661Y-41330858D01*
X36581702Y-41321008D01*
X36581702Y-40740708D01*
X36583661Y-40730858D01*
X36593511Y-40728899D01*
X38123811Y-40728899D01*
X38133661Y-40730858D01*
X38133661Y-40730858D01*
G37*
G36*
X29987504Y-40079591D02*
G01*
X29996047Y-40084214D01*
X30001309Y-40085261D01*
X30015487Y-40094735D01*
X30060880Y-40119300D01*
X30074670Y-40134280D01*
X30084003Y-40140516D01*
X30093513Y-40154749D01*
X30117390Y-40180686D01*
X30129899Y-40209203D01*
X30139258Y-40223210D01*
X30141926Y-40236623D01*
X30151756Y-40259033D01*
X30160044Y-40325522D01*
X30160044Y-40954117D01*
X30144928Y-41044701D01*
X30140305Y-41053244D01*
X30139258Y-41058506D01*
X30129784Y-41072684D01*
X30105219Y-41118077D01*
X30090239Y-41131867D01*
X30084003Y-41141200D01*
X30069770Y-41150710D01*
X30043833Y-41174587D01*
X30015316Y-41187096D01*
X30001309Y-41196455D01*
X29987896Y-41199123D01*
X29965486Y-41208953D01*
X29898997Y-41217241D01*
X29020402Y-41217241D01*
X28929818Y-41202125D01*
X28921275Y-41197502D01*
X28916013Y-41196455D01*
X28901835Y-41186981D01*
X28856442Y-41162416D01*
X28842652Y-41147436D01*
X28833319Y-41141200D01*
X28823809Y-41126967D01*
X28799932Y-41101030D01*
X28787423Y-41072513D01*
X28778064Y-41058506D01*
X28775396Y-41045093D01*
X28765566Y-41022683D01*
X28757278Y-40956194D01*
X28757278Y-40327599D01*
X28772394Y-40237015D01*
X28777017Y-40228472D01*
X28778064Y-40223210D01*
X28787538Y-40209032D01*
X28812103Y-40163639D01*
X28827083Y-40149849D01*
X28833319Y-40140516D01*
X28847552Y-40131006D01*
X28873489Y-40107129D01*
X28902006Y-40094620D01*
X28916013Y-40085261D01*
X28929426Y-40082593D01*
X28951836Y-40072763D01*
X29018325Y-40064475D01*
X29896920Y-40064475D01*
X29987504Y-40079591D01*
X29987504Y-40079591D01*
G37*
G36*
X67619288Y-39350284D02*
G01*
X67670363Y-39350641D01*
X67709076Y-39359721D01*
X67742282Y-39363211D01*
X67789843Y-39378665D01*
X67845099Y-39391625D01*
X67875772Y-39406586D01*
X67902223Y-39415180D01*
X67950282Y-39442926D01*
X68006414Y-39470304D01*
X68028603Y-39488144D01*
X68047856Y-39499260D01*
X68093135Y-39540030D01*
X68146288Y-39582766D01*
X68160470Y-39600659D01*
X68172831Y-39611789D01*
X68211767Y-39665380D01*
X68257771Y-39723422D01*
X68265195Y-39738916D01*
X68271676Y-39747837D01*
X68300665Y-39812948D01*
X68335322Y-39885282D01*
X68337877Y-39896528D01*
X68340075Y-39901465D01*
X68355713Y-39975035D01*
X68375085Y-40060301D01*
X68375008Y-40065808D01*
X68375040Y-40065958D01*
X68375040Y-40234122D01*
X68372490Y-40246119D01*
X68372267Y-40262083D01*
X68353846Y-40333827D01*
X68340075Y-40398615D01*
X68333312Y-40413806D01*
X68327633Y-40435923D01*
X68296453Y-40496593D01*
X68271676Y-40552243D01*
X68258610Y-40570227D01*
X68245593Y-40595555D01*
X68205449Y-40643397D01*
X68172831Y-40688291D01*
X68152160Y-40706904D01*
X68130226Y-40733043D01*
X68085025Y-40767352D01*
X68047856Y-40800820D01*
X68018938Y-40817516D01*
X67987266Y-40841556D01*
X67940752Y-40862656D01*
X67902223Y-40884900D01*
X67865182Y-40896936D01*
X67823818Y-40915699D01*
X67779329Y-40924831D01*
X67742282Y-40936869D01*
X67698033Y-40941520D01*
X67648005Y-40951789D01*
X67608246Y-40950956D01*
X67575040Y-40954446D01*
X67525302Y-40949219D01*
X67468565Y-40948030D01*
X67435462Y-40939776D01*
X67407798Y-40936869D01*
X67355018Y-40919719D01*
X67294418Y-40904610D01*
X67268997Y-40891769D01*
X67247857Y-40884900D01*
X67195094Y-40854438D01*
X67134218Y-40823687D01*
X67116631Y-40809138D01*
X67102224Y-40800820D01*
X67052995Y-40756494D01*
X66995927Y-40709283D01*
X66985442Y-40695668D01*
X66977249Y-40688291D01*
X66935350Y-40630622D01*
X66886419Y-40567084D01*
X66881584Y-40556619D01*
X66878404Y-40552243D01*
X66847804Y-40483513D01*
X66811136Y-40404157D01*
X66773820Y-40228600D01*
X66775040Y-40141233D01*
X66775040Y-40065958D01*
X66776165Y-40060665D01*
X66776326Y-40049139D01*
X66795186Y-39971183D01*
X66810005Y-39901465D01*
X66814488Y-39891395D01*
X66818529Y-39874693D01*
X66851463Y-39808347D01*
X66878404Y-39747837D01*
X66888181Y-39734380D01*
X66898332Y-39713931D01*
X66941441Y-39661074D01*
X66977249Y-39611789D01*
X66993768Y-39596915D01*
X67011768Y-39574845D01*
X67060982Y-39536395D01*
X67102224Y-39499260D01*
X67126314Y-39485352D01*
X67153199Y-39464347D01*
X67204548Y-39440184D01*
X67247857Y-39415180D01*
X67279610Y-39404863D01*
X67315596Y-39387929D01*
X67365481Y-39376961D01*
X67407798Y-39363211D01*
X67446535Y-39359140D01*
X67490888Y-39349388D01*
X67536304Y-39349705D01*
X67575040Y-39345634D01*
X67619288Y-39350284D01*
X67619288Y-39350284D01*
G37*
G36*
X42520661Y-39303858D02*
G01*
X42522620Y-39313708D01*
X42522620Y-40818008D01*
X42520661Y-40827858D01*
X42510811Y-40829817D01*
X41006511Y-40829817D01*
X40996660Y-40827858D01*
X40996661Y-40827858D01*
X40994702Y-40818008D01*
X40994702Y-39313708D01*
X40996661Y-39303858D01*
X41006511Y-39301899D01*
X42510811Y-39301899D01*
X42520661Y-39303858D01*
X42520661Y-39303858D01*
G37*
G36*
X47020661Y-39303858D02*
G01*
X47022620Y-39313708D01*
X47022620Y-40818008D01*
X47020661Y-40827858D01*
X47010811Y-40829817D01*
X45506511Y-40829817D01*
X45496660Y-40827858D01*
X45496661Y-40827858D01*
X45494702Y-40818008D01*
X45494702Y-39313708D01*
X45496661Y-39303858D01*
X45506511Y-39301899D01*
X47010811Y-39301899D01*
X47020661Y-39303858D01*
X47020661Y-39303858D01*
G37*
G36*
X51262504Y-39379591D02*
G01*
X51271047Y-39384214D01*
X51276309Y-39385261D01*
X51290487Y-39394735D01*
X51335880Y-39419300D01*
X51349670Y-39434280D01*
X51359003Y-39440516D01*
X51368513Y-39454749D01*
X51392390Y-39480686D01*
X51404899Y-39509203D01*
X51414258Y-39523210D01*
X51416926Y-39536623D01*
X51426756Y-39559033D01*
X51435044Y-39625522D01*
X51435044Y-40504117D01*
X51419928Y-40594701D01*
X51415305Y-40603244D01*
X51414258Y-40608506D01*
X51404784Y-40622684D01*
X51380219Y-40668077D01*
X51365239Y-40681867D01*
X51359003Y-40691200D01*
X51344770Y-40700710D01*
X51318833Y-40724587D01*
X51290316Y-40737096D01*
X51276309Y-40746455D01*
X51262896Y-40749123D01*
X51240486Y-40758953D01*
X51173997Y-40767241D01*
X50545402Y-40767241D01*
X50454818Y-40752125D01*
X50446275Y-40747502D01*
X50441013Y-40746455D01*
X50426835Y-40736981D01*
X50381442Y-40712416D01*
X50367652Y-40697436D01*
X50358319Y-40691200D01*
X50348809Y-40676967D01*
X50324932Y-40651030D01*
X50312423Y-40622513D01*
X50303064Y-40608506D01*
X50300396Y-40595093D01*
X50290566Y-40572683D01*
X50282278Y-40506194D01*
X50282278Y-39627599D01*
X50297394Y-39537015D01*
X50302017Y-39528472D01*
X50303064Y-39523210D01*
X50312538Y-39509032D01*
X50337103Y-39463639D01*
X50352083Y-39449849D01*
X50358319Y-39440516D01*
X50372552Y-39431006D01*
X50398489Y-39407129D01*
X50427006Y-39394620D01*
X50441013Y-39385261D01*
X50454426Y-39382593D01*
X50476836Y-39372763D01*
X50543325Y-39364475D01*
X51171920Y-39364475D01*
X51262504Y-39379591D01*
X51262504Y-39379591D01*
G37*
G36*
X49212504Y-39379591D02*
G01*
X49221047Y-39384214D01*
X49226309Y-39385261D01*
X49240487Y-39394735D01*
X49285880Y-39419300D01*
X49299670Y-39434280D01*
X49309003Y-39440516D01*
X49318513Y-39454749D01*
X49342390Y-39480686D01*
X49354899Y-39509203D01*
X49364258Y-39523210D01*
X49366926Y-39536623D01*
X49376756Y-39559033D01*
X49385044Y-39625522D01*
X49385044Y-40504117D01*
X49369928Y-40594701D01*
X49365305Y-40603244D01*
X49364258Y-40608506D01*
X49354784Y-40622684D01*
X49330219Y-40668077D01*
X49315239Y-40681867D01*
X49309003Y-40691200D01*
X49294770Y-40700710D01*
X49268833Y-40724587D01*
X49240316Y-40737096D01*
X49226309Y-40746455D01*
X49212896Y-40749123D01*
X49190486Y-40758953D01*
X49123997Y-40767241D01*
X48495402Y-40767241D01*
X48404818Y-40752125D01*
X48396275Y-40747502D01*
X48391013Y-40746455D01*
X48376835Y-40736981D01*
X48331442Y-40712416D01*
X48317652Y-40697436D01*
X48308319Y-40691200D01*
X48298809Y-40676967D01*
X48274932Y-40651030D01*
X48262423Y-40622513D01*
X48253064Y-40608506D01*
X48250396Y-40595093D01*
X48240566Y-40572683D01*
X48232278Y-40506194D01*
X48232278Y-39627599D01*
X48247394Y-39537015D01*
X48252017Y-39528472D01*
X48253064Y-39523210D01*
X48262538Y-39509032D01*
X48287103Y-39463639D01*
X48302083Y-39449849D01*
X48308319Y-39440516D01*
X48322552Y-39431006D01*
X48348489Y-39407129D01*
X48377006Y-39394620D01*
X48391013Y-39385261D01*
X48404426Y-39382593D01*
X48426836Y-39372763D01*
X48493325Y-39364475D01*
X49121920Y-39364475D01*
X49212504Y-39379591D01*
X49212504Y-39379591D01*
G37*
G36*
X60015040Y-38705040D02*
G01*
X60016999Y-38714890D01*
X60016999Y-40395190D01*
X60015040Y-40405040D01*
X60005190Y-40406999D01*
X58324890Y-40406999D01*
X58315039Y-40405040D01*
X58315040Y-40405040D01*
X58313081Y-40395190D01*
X58313081Y-38714890D01*
X58315040Y-38705040D01*
X58324890Y-38703081D01*
X60005190Y-38703081D01*
X60015040Y-38705040D01*
X60015040Y-38705040D01*
G37*
G36*
X32733661Y-39460858D02*
G01*
X32735620Y-39470708D01*
X32735620Y-40051008D01*
X32733661Y-40060858D01*
X32723811Y-40062817D01*
X31193511Y-40062817D01*
X31183660Y-40060858D01*
X31183661Y-40060858D01*
X31181702Y-40051008D01*
X31181702Y-39470708D01*
X31183661Y-39460858D01*
X31193511Y-39458899D01*
X32723811Y-39458899D01*
X32733661Y-39460858D01*
X32733661Y-39460858D01*
G37*
G36*
X38133661Y-39460858D02*
G01*
X38135620Y-39470708D01*
X38135620Y-40051008D01*
X38133661Y-40060858D01*
X38123811Y-40062817D01*
X36593511Y-40062817D01*
X36583660Y-40060858D01*
X36583661Y-40060858D01*
X36581702Y-40051008D01*
X36581702Y-39470708D01*
X36583661Y-39460858D01*
X36593511Y-39458899D01*
X38123811Y-39458899D01*
X38133661Y-39460858D01*
X38133661Y-39460858D01*
G37*
G36*
X54608661Y-38615858D02*
G01*
X54610620Y-38625708D01*
X54610620Y-39606008D01*
X54608661Y-39615858D01*
X54598811Y-39617817D01*
X53118511Y-39617817D01*
X53108660Y-39615858D01*
X53108661Y-39615858D01*
X53106702Y-39606008D01*
X53106702Y-38625708D01*
X53108661Y-38615858D01*
X53118511Y-38613899D01*
X54598811Y-38613899D01*
X54608661Y-38615858D01*
X54608661Y-38615858D01*
G37*
G36*
X64779288Y-37965284D02*
G01*
X64830363Y-37965641D01*
X64869076Y-37974721D01*
X64902282Y-37978211D01*
X64949843Y-37993665D01*
X65005099Y-38006625D01*
X65035772Y-38021586D01*
X65062223Y-38030180D01*
X65110282Y-38057926D01*
X65166414Y-38085304D01*
X65188603Y-38103144D01*
X65207856Y-38114260D01*
X65253135Y-38155030D01*
X65306288Y-38197766D01*
X65320470Y-38215659D01*
X65332831Y-38226789D01*
X65371767Y-38280380D01*
X65417771Y-38338422D01*
X65425195Y-38353916D01*
X65431676Y-38362837D01*
X65460665Y-38427948D01*
X65495322Y-38500282D01*
X65497877Y-38511528D01*
X65500075Y-38516465D01*
X65515713Y-38590035D01*
X65535085Y-38675301D01*
X65535008Y-38680808D01*
X65535040Y-38680958D01*
X65535040Y-38849122D01*
X65532490Y-38861119D01*
X65532267Y-38877083D01*
X65513846Y-38948827D01*
X65500075Y-39013615D01*
X65493312Y-39028806D01*
X65487633Y-39050923D01*
X65456453Y-39111593D01*
X65431676Y-39167243D01*
X65418610Y-39185227D01*
X65405593Y-39210555D01*
X65365449Y-39258397D01*
X65332831Y-39303291D01*
X65312160Y-39321904D01*
X65290226Y-39348043D01*
X65245025Y-39382352D01*
X65207856Y-39415820D01*
X65178938Y-39432516D01*
X65147266Y-39456556D01*
X65100752Y-39477656D01*
X65062223Y-39499900D01*
X65025182Y-39511936D01*
X64983818Y-39530699D01*
X64939329Y-39539831D01*
X64902282Y-39551869D01*
X64858033Y-39556520D01*
X64808005Y-39566789D01*
X64768246Y-39565956D01*
X64735040Y-39569446D01*
X64685302Y-39564219D01*
X64628565Y-39563030D01*
X64595462Y-39554776D01*
X64567798Y-39551869D01*
X64515018Y-39534719D01*
X64454418Y-39519610D01*
X64428997Y-39506769D01*
X64407857Y-39499900D01*
X64355094Y-39469438D01*
X64294218Y-39438687D01*
X64276631Y-39424138D01*
X64262224Y-39415820D01*
X64212995Y-39371494D01*
X64155927Y-39324283D01*
X64145442Y-39310668D01*
X64137249Y-39303291D01*
X64095350Y-39245622D01*
X64046419Y-39182084D01*
X64041584Y-39171619D01*
X64038404Y-39167243D01*
X64007804Y-39098513D01*
X63971136Y-39019157D01*
X63933820Y-38843600D01*
X63935040Y-38756233D01*
X63935040Y-38680958D01*
X63936165Y-38675665D01*
X63936326Y-38664139D01*
X63955186Y-38586183D01*
X63970005Y-38516465D01*
X63974488Y-38506395D01*
X63978529Y-38489693D01*
X64011463Y-38423347D01*
X64038404Y-38362837D01*
X64048181Y-38349380D01*
X64058332Y-38328931D01*
X64101441Y-38276074D01*
X64137249Y-38226789D01*
X64153768Y-38211915D01*
X64171768Y-38189845D01*
X64220982Y-38151395D01*
X64262224Y-38114260D01*
X64286314Y-38100352D01*
X64313199Y-38079347D01*
X64364548Y-38055184D01*
X64407857Y-38030180D01*
X64439610Y-38019863D01*
X64475596Y-38002929D01*
X64525481Y-37991961D01*
X64567798Y-37978211D01*
X64606535Y-37974140D01*
X64650888Y-37964388D01*
X64696304Y-37964705D01*
X64735040Y-37960634D01*
X64779288Y-37965284D01*
X64779288Y-37965284D01*
G37*
G36*
X41508883Y-37218773D02*
G01*
X41517426Y-37223396D01*
X41522688Y-37224443D01*
X41536866Y-37233917D01*
X41582259Y-37258482D01*
X41596049Y-37273462D01*
X41605382Y-37279698D01*
X41614892Y-37293931D01*
X41638769Y-37319868D01*
X41651278Y-37348385D01*
X41660637Y-37362392D01*
X41663305Y-37375805D01*
X41673135Y-37398215D01*
X41681423Y-37464704D01*
X41681423Y-38343299D01*
X41666307Y-38433883D01*
X41661684Y-38442426D01*
X41660637Y-38447688D01*
X41651163Y-38461866D01*
X41626598Y-38507259D01*
X41611618Y-38521049D01*
X41605382Y-38530382D01*
X41591149Y-38539892D01*
X41565212Y-38563769D01*
X41536695Y-38576278D01*
X41522688Y-38585637D01*
X41509275Y-38588305D01*
X41486865Y-38598135D01*
X41420376Y-38606423D01*
X40791781Y-38606423D01*
X40701197Y-38591307D01*
X40692654Y-38586684D01*
X40687392Y-38585637D01*
X40673214Y-38576163D01*
X40627821Y-38551598D01*
X40614031Y-38536618D01*
X40604698Y-38530382D01*
X40595188Y-38516149D01*
X40571311Y-38490212D01*
X40558802Y-38461695D01*
X40549443Y-38447688D01*
X40546775Y-38434275D01*
X40536945Y-38411865D01*
X40528657Y-38345376D01*
X40528657Y-37466781D01*
X40543773Y-37376197D01*
X40548396Y-37367654D01*
X40549443Y-37362392D01*
X40558917Y-37348214D01*
X40583482Y-37302821D01*
X40598462Y-37289031D01*
X40604698Y-37279698D01*
X40618931Y-37270188D01*
X40644868Y-37246311D01*
X40673385Y-37233802D01*
X40687392Y-37224443D01*
X40700805Y-37221775D01*
X40723215Y-37211945D01*
X40789704Y-37203657D01*
X41418299Y-37203657D01*
X41508883Y-37218773D01*
X41508883Y-37218773D01*
G37*
G36*
X39458883Y-37218773D02*
G01*
X39467426Y-37223396D01*
X39472688Y-37224443D01*
X39486866Y-37233917D01*
X39532259Y-37258482D01*
X39546049Y-37273462D01*
X39555382Y-37279698D01*
X39564892Y-37293931D01*
X39588769Y-37319868D01*
X39601278Y-37348385D01*
X39610637Y-37362392D01*
X39613305Y-37375805D01*
X39623135Y-37398215D01*
X39631423Y-37464704D01*
X39631423Y-38343299D01*
X39616307Y-38433883D01*
X39611684Y-38442426D01*
X39610637Y-38447688D01*
X39601163Y-38461866D01*
X39576598Y-38507259D01*
X39561618Y-38521049D01*
X39555382Y-38530382D01*
X39541149Y-38539892D01*
X39515212Y-38563769D01*
X39486695Y-38576278D01*
X39472688Y-38585637D01*
X39459275Y-38588305D01*
X39436865Y-38598135D01*
X39370376Y-38606423D01*
X38741781Y-38606423D01*
X38651197Y-38591307D01*
X38642654Y-38586684D01*
X38637392Y-38585637D01*
X38623214Y-38576163D01*
X38577821Y-38551598D01*
X38564031Y-38536618D01*
X38554698Y-38530382D01*
X38545188Y-38516149D01*
X38521311Y-38490212D01*
X38508802Y-38461695D01*
X38499443Y-38447688D01*
X38496775Y-38434275D01*
X38486945Y-38411865D01*
X38478657Y-38345376D01*
X38478657Y-37466781D01*
X38493773Y-37376197D01*
X38498396Y-37367654D01*
X38499443Y-37362392D01*
X38508917Y-37348214D01*
X38533482Y-37302821D01*
X38548462Y-37289031D01*
X38554698Y-37279698D01*
X38568931Y-37270188D01*
X38594868Y-37246311D01*
X38623385Y-37233802D01*
X38637392Y-37224443D01*
X38650805Y-37221775D01*
X38673215Y-37211945D01*
X38739704Y-37203657D01*
X39368299Y-37203657D01*
X39458883Y-37218773D01*
X39458883Y-37218773D01*
G37*
G36*
X51287504Y-36979591D02*
G01*
X51296047Y-36984214D01*
X51301309Y-36985261D01*
X51315487Y-36994735D01*
X51360880Y-37019300D01*
X51374670Y-37034280D01*
X51384003Y-37040516D01*
X51393513Y-37054749D01*
X51417390Y-37080686D01*
X51429899Y-37109203D01*
X51439258Y-37123210D01*
X51441926Y-37136623D01*
X51451756Y-37159033D01*
X51460044Y-37225522D01*
X51460044Y-38104117D01*
X51444928Y-38194701D01*
X51440305Y-38203244D01*
X51439258Y-38208506D01*
X51429784Y-38222684D01*
X51405219Y-38268077D01*
X51390239Y-38281867D01*
X51384003Y-38291200D01*
X51369770Y-38300710D01*
X51343833Y-38324587D01*
X51315316Y-38337096D01*
X51301309Y-38346455D01*
X51287896Y-38349123D01*
X51265486Y-38358953D01*
X51198997Y-38367241D01*
X50570402Y-38367241D01*
X50479818Y-38352125D01*
X50471275Y-38347502D01*
X50466013Y-38346455D01*
X50451835Y-38336981D01*
X50406442Y-38312416D01*
X50392652Y-38297436D01*
X50383319Y-38291200D01*
X50373809Y-38276967D01*
X50349932Y-38251030D01*
X50337423Y-38222513D01*
X50328064Y-38208506D01*
X50325396Y-38195093D01*
X50315566Y-38172683D01*
X50307278Y-38106194D01*
X50307278Y-37227599D01*
X50322394Y-37137015D01*
X50327017Y-37128472D01*
X50328064Y-37123210D01*
X50337538Y-37109032D01*
X50362103Y-37063639D01*
X50377083Y-37049849D01*
X50383319Y-37040516D01*
X50397552Y-37031006D01*
X50423489Y-37007129D01*
X50452006Y-36994620D01*
X50466013Y-36985261D01*
X50479426Y-36982593D01*
X50501836Y-36972763D01*
X50568325Y-36964475D01*
X51196920Y-36964475D01*
X51287504Y-36979591D01*
X51287504Y-36979591D01*
G37*
G36*
X49237504Y-36979591D02*
G01*
X49246047Y-36984214D01*
X49251309Y-36985261D01*
X49265487Y-36994735D01*
X49310880Y-37019300D01*
X49324670Y-37034280D01*
X49334003Y-37040516D01*
X49343513Y-37054749D01*
X49367390Y-37080686D01*
X49379899Y-37109203D01*
X49389258Y-37123210D01*
X49391926Y-37136623D01*
X49401756Y-37159033D01*
X49410044Y-37225522D01*
X49410044Y-38104117D01*
X49394928Y-38194701D01*
X49390305Y-38203244D01*
X49389258Y-38208506D01*
X49379784Y-38222684D01*
X49355219Y-38268077D01*
X49340239Y-38281867D01*
X49334003Y-38291200D01*
X49319770Y-38300710D01*
X49293833Y-38324587D01*
X49265316Y-38337096D01*
X49251309Y-38346455D01*
X49237896Y-38349123D01*
X49215486Y-38358953D01*
X49148997Y-38367241D01*
X48520402Y-38367241D01*
X48429818Y-38352125D01*
X48421275Y-38347502D01*
X48416013Y-38346455D01*
X48401835Y-38336981D01*
X48356442Y-38312416D01*
X48342652Y-38297436D01*
X48333319Y-38291200D01*
X48323809Y-38276967D01*
X48299932Y-38251030D01*
X48287423Y-38222513D01*
X48278064Y-38208506D01*
X48275396Y-38195093D01*
X48265566Y-38172683D01*
X48257278Y-38106194D01*
X48257278Y-37227599D01*
X48272394Y-37137015D01*
X48277017Y-37128472D01*
X48278064Y-37123210D01*
X48287538Y-37109032D01*
X48312103Y-37063639D01*
X48327083Y-37049849D01*
X48333319Y-37040516D01*
X48347552Y-37031006D01*
X48373489Y-37007129D01*
X48402006Y-36994620D01*
X48416013Y-36985261D01*
X48429426Y-36982593D01*
X48451836Y-36972763D01*
X48518325Y-36964475D01*
X49146920Y-36964475D01*
X49237504Y-36979591D01*
X49237504Y-36979591D01*
G37*
G36*
X54608661Y-37315858D02*
G01*
X54610620Y-37325708D01*
X54610620Y-38306008D01*
X54608661Y-38315858D01*
X54598811Y-38317817D01*
X53118511Y-38317817D01*
X53108660Y-38315858D01*
X53108661Y-38315858D01*
X53106702Y-38306008D01*
X53106702Y-37325708D01*
X53108661Y-37315858D01*
X53118511Y-37313899D01*
X54598811Y-37313899D01*
X54608661Y-37315858D01*
X54608661Y-37315858D01*
G37*
G36*
X67619288Y-36580284D02*
G01*
X67670363Y-36580641D01*
X67709076Y-36589721D01*
X67742282Y-36593211D01*
X67789843Y-36608665D01*
X67845099Y-36621625D01*
X67875772Y-36636586D01*
X67902223Y-36645180D01*
X67950282Y-36672926D01*
X68006414Y-36700304D01*
X68028603Y-36718144D01*
X68047856Y-36729260D01*
X68093135Y-36770030D01*
X68146288Y-36812766D01*
X68160470Y-36830659D01*
X68172831Y-36841789D01*
X68211767Y-36895380D01*
X68257771Y-36953422D01*
X68265195Y-36968916D01*
X68271676Y-36977837D01*
X68300665Y-37042948D01*
X68335322Y-37115282D01*
X68337877Y-37126528D01*
X68340075Y-37131465D01*
X68355713Y-37205035D01*
X68375085Y-37290301D01*
X68375008Y-37295808D01*
X68375040Y-37295958D01*
X68375040Y-37464122D01*
X68372490Y-37476119D01*
X68372267Y-37492083D01*
X68353846Y-37563827D01*
X68340075Y-37628615D01*
X68333312Y-37643806D01*
X68327633Y-37665923D01*
X68296453Y-37726593D01*
X68271676Y-37782243D01*
X68258610Y-37800227D01*
X68245593Y-37825555D01*
X68205449Y-37873397D01*
X68172831Y-37918291D01*
X68152160Y-37936904D01*
X68130226Y-37963043D01*
X68085025Y-37997352D01*
X68047856Y-38030820D01*
X68018938Y-38047516D01*
X67987266Y-38071556D01*
X67940752Y-38092656D01*
X67902223Y-38114900D01*
X67865182Y-38126936D01*
X67823818Y-38145699D01*
X67779329Y-38154831D01*
X67742282Y-38166869D01*
X67698033Y-38171520D01*
X67648005Y-38181789D01*
X67608246Y-38180956D01*
X67575040Y-38184446D01*
X67525302Y-38179219D01*
X67468565Y-38178030D01*
X67435462Y-38169776D01*
X67407798Y-38166869D01*
X67355018Y-38149719D01*
X67294418Y-38134610D01*
X67268997Y-38121769D01*
X67247857Y-38114900D01*
X67195094Y-38084438D01*
X67134218Y-38053687D01*
X67116631Y-38039138D01*
X67102224Y-38030820D01*
X67052995Y-37986494D01*
X66995927Y-37939283D01*
X66985442Y-37925668D01*
X66977249Y-37918291D01*
X66935350Y-37860622D01*
X66886419Y-37797084D01*
X66881584Y-37786619D01*
X66878404Y-37782243D01*
X66847804Y-37713513D01*
X66811136Y-37634157D01*
X66773820Y-37458600D01*
X66775040Y-37371233D01*
X66775040Y-37295958D01*
X66776165Y-37290665D01*
X66776326Y-37279139D01*
X66795186Y-37201183D01*
X66810005Y-37131465D01*
X66814488Y-37121395D01*
X66818529Y-37104693D01*
X66851463Y-37038347D01*
X66878404Y-36977837D01*
X66888181Y-36964380D01*
X66898332Y-36943931D01*
X66941441Y-36891074D01*
X66977249Y-36841789D01*
X66993768Y-36826915D01*
X67011768Y-36804845D01*
X67060982Y-36766395D01*
X67102224Y-36729260D01*
X67126314Y-36715352D01*
X67153199Y-36694347D01*
X67204548Y-36670184D01*
X67247857Y-36645180D01*
X67279610Y-36634863D01*
X67315596Y-36617929D01*
X67365481Y-36606961D01*
X67407798Y-36593211D01*
X67446535Y-36589140D01*
X67490888Y-36579388D01*
X67536304Y-36579705D01*
X67575040Y-36575634D01*
X67619288Y-36580284D01*
X67619288Y-36580284D01*
G37*
G36*
X34012504Y-36779591D02*
G01*
X34021047Y-36784214D01*
X34026309Y-36785261D01*
X34040487Y-36794735D01*
X34085880Y-36819300D01*
X34099670Y-36834280D01*
X34109003Y-36840516D01*
X34118513Y-36854749D01*
X34142390Y-36880686D01*
X34154899Y-36909203D01*
X34164258Y-36923210D01*
X34166926Y-36936623D01*
X34176756Y-36959033D01*
X34185044Y-37025522D01*
X34185044Y-37904117D01*
X34169928Y-37994701D01*
X34165305Y-38003244D01*
X34164258Y-38008506D01*
X34154784Y-38022684D01*
X34130219Y-38068077D01*
X34115239Y-38081867D01*
X34109003Y-38091200D01*
X34094770Y-38100710D01*
X34068833Y-38124587D01*
X34040316Y-38137096D01*
X34026309Y-38146455D01*
X34012896Y-38149123D01*
X33990486Y-38158953D01*
X33923997Y-38167241D01*
X33295402Y-38167241D01*
X33204818Y-38152125D01*
X33196275Y-38147502D01*
X33191013Y-38146455D01*
X33176835Y-38136981D01*
X33131442Y-38112416D01*
X33117652Y-38097436D01*
X33108319Y-38091200D01*
X33098809Y-38076967D01*
X33074932Y-38051030D01*
X33062423Y-38022513D01*
X33053064Y-38008506D01*
X33050396Y-37995093D01*
X33040566Y-37972683D01*
X33032278Y-37906194D01*
X33032278Y-37027599D01*
X33047394Y-36937015D01*
X33052017Y-36928472D01*
X33053064Y-36923210D01*
X33062538Y-36909032D01*
X33087103Y-36863639D01*
X33102083Y-36849849D01*
X33108319Y-36840516D01*
X33122552Y-36831006D01*
X33148489Y-36807129D01*
X33177006Y-36794620D01*
X33191013Y-36785261D01*
X33204426Y-36782593D01*
X33226836Y-36772763D01*
X33293325Y-36764475D01*
X33921920Y-36764475D01*
X34012504Y-36779591D01*
X34012504Y-36779591D01*
G37*
G36*
X36062504Y-36779591D02*
G01*
X36071047Y-36784214D01*
X36076309Y-36785261D01*
X36090487Y-36794735D01*
X36135880Y-36819300D01*
X36149670Y-36834280D01*
X36159003Y-36840516D01*
X36168513Y-36854749D01*
X36192390Y-36880686D01*
X36204899Y-36909203D01*
X36214258Y-36923210D01*
X36216926Y-36936623D01*
X36226756Y-36959033D01*
X36235044Y-37025522D01*
X36235044Y-37904117D01*
X36219928Y-37994701D01*
X36215305Y-38003244D01*
X36214258Y-38008506D01*
X36204784Y-38022684D01*
X36180219Y-38068077D01*
X36165239Y-38081867D01*
X36159003Y-38091200D01*
X36144770Y-38100710D01*
X36118833Y-38124587D01*
X36090316Y-38137096D01*
X36076309Y-38146455D01*
X36062896Y-38149123D01*
X36040486Y-38158953D01*
X35973997Y-38167241D01*
X35345402Y-38167241D01*
X35254818Y-38152125D01*
X35246275Y-38147502D01*
X35241013Y-38146455D01*
X35226835Y-38136981D01*
X35181442Y-38112416D01*
X35167652Y-38097436D01*
X35158319Y-38091200D01*
X35148809Y-38076967D01*
X35124932Y-38051030D01*
X35112423Y-38022513D01*
X35103064Y-38008506D01*
X35100396Y-37995093D01*
X35090566Y-37972683D01*
X35082278Y-37906194D01*
X35082278Y-37027599D01*
X35097394Y-36937015D01*
X35102017Y-36928472D01*
X35103064Y-36923210D01*
X35112538Y-36909032D01*
X35137103Y-36863639D01*
X35152083Y-36849849D01*
X35158319Y-36840516D01*
X35172552Y-36831006D01*
X35198489Y-36807129D01*
X35227006Y-36794620D01*
X35241013Y-36785261D01*
X35254426Y-36782593D01*
X35276836Y-36772763D01*
X35343325Y-36764475D01*
X35971920Y-36764475D01*
X36062504Y-36779591D01*
X36062504Y-36779591D01*
G37*
G36*
X65535040Y-35195040D02*
G01*
X65536999Y-35204890D01*
X65536999Y-36785190D01*
X65535040Y-36795040D01*
X65525190Y-36796999D01*
X63944890Y-36796999D01*
X63935039Y-36795040D01*
X63935040Y-36795040D01*
X63933081Y-36785190D01*
X63933081Y-35204890D01*
X63935040Y-35195040D01*
X63944890Y-35193081D01*
X65525190Y-35193081D01*
X65535040Y-35195040D01*
X65535040Y-35195040D01*
G37*
G36*
X42341360Y-35184584D02*
G01*
X42346804Y-35187727D01*
X42350555Y-35188473D01*
X42366184Y-35198916D01*
X42413894Y-35226461D01*
X42422171Y-35236325D01*
X42429115Y-35240965D01*
X42441043Y-35258816D01*
X42464814Y-35287146D01*
X42468056Y-35299244D01*
X42481607Y-35319525D01*
X42500040Y-35412193D01*
X42500040Y-35418611D01*
X42501583Y-35424370D01*
X42501583Y-35870127D01*
X42485496Y-35961360D01*
X42482353Y-35966804D01*
X42481607Y-35970555D01*
X42471164Y-35986184D01*
X42443619Y-36033894D01*
X42433755Y-36042171D01*
X42429115Y-36049115D01*
X42411267Y-36061041D01*
X42382935Y-36084814D01*
X42370836Y-36088056D01*
X42350555Y-36101607D01*
X42257887Y-36120040D01*
X42251469Y-36120040D01*
X42245710Y-36121583D01*
X41699953Y-36121583D01*
X41608720Y-36105496D01*
X41603276Y-36102353D01*
X41599525Y-36101607D01*
X41583896Y-36091164D01*
X41536186Y-36063619D01*
X41527909Y-36053755D01*
X41520965Y-36049115D01*
X41509039Y-36031267D01*
X41485266Y-36002935D01*
X41482024Y-35990836D01*
X41468473Y-35970555D01*
X41450040Y-35877887D01*
X41450040Y-35871469D01*
X41448497Y-35865710D01*
X41448497Y-35419953D01*
X41464584Y-35328720D01*
X41467727Y-35323276D01*
X41468473Y-35319525D01*
X41478916Y-35303896D01*
X41506461Y-35256186D01*
X41516325Y-35247909D01*
X41520965Y-35240965D01*
X41538816Y-35229037D01*
X41567146Y-35205266D01*
X41579244Y-35202024D01*
X41599525Y-35188473D01*
X41692193Y-35170040D01*
X41698611Y-35170040D01*
X41704370Y-35168497D01*
X42250127Y-35168497D01*
X42341360Y-35184584D01*
X42341360Y-35184584D01*
G37*
G36*
X44091360Y-35184584D02*
G01*
X44096804Y-35187727D01*
X44100555Y-35188473D01*
X44116184Y-35198916D01*
X44163894Y-35226461D01*
X44172171Y-35236325D01*
X44179115Y-35240965D01*
X44191043Y-35258816D01*
X44214814Y-35287146D01*
X44218056Y-35299244D01*
X44231607Y-35319525D01*
X44250040Y-35412193D01*
X44250040Y-35418611D01*
X44251583Y-35424370D01*
X44251583Y-35870127D01*
X44235496Y-35961360D01*
X44232353Y-35966804D01*
X44231607Y-35970555D01*
X44221164Y-35986184D01*
X44193619Y-36033894D01*
X44183755Y-36042171D01*
X44179115Y-36049115D01*
X44161267Y-36061041D01*
X44132935Y-36084814D01*
X44120836Y-36088056D01*
X44100555Y-36101607D01*
X44007887Y-36120040D01*
X44001469Y-36120040D01*
X43995710Y-36121583D01*
X43449953Y-36121583D01*
X43358720Y-36105496D01*
X43353276Y-36102353D01*
X43349525Y-36101607D01*
X43333896Y-36091164D01*
X43286186Y-36063619D01*
X43277909Y-36053755D01*
X43270965Y-36049115D01*
X43259039Y-36031267D01*
X43235266Y-36002935D01*
X43232024Y-35990836D01*
X43218473Y-35970555D01*
X43200040Y-35877887D01*
X43200040Y-35871469D01*
X43198497Y-35865710D01*
X43198497Y-35419953D01*
X43214584Y-35328720D01*
X43217727Y-35323276D01*
X43218473Y-35319525D01*
X43228916Y-35303896D01*
X43256461Y-35256186D01*
X43266325Y-35247909D01*
X43270965Y-35240965D01*
X43288816Y-35229037D01*
X43317146Y-35205266D01*
X43329244Y-35202024D01*
X43349525Y-35188473D01*
X43442193Y-35170040D01*
X43448611Y-35170040D01*
X43454370Y-35168497D01*
X44000127Y-35168497D01*
X44091360Y-35184584D01*
X44091360Y-35184584D01*
G37*
G36*
X24411794Y-33037989D02*
G01*
X24484554Y-33041611D01*
X24514038Y-33048826D01*
X24541506Y-33051737D01*
X24614122Y-33073316D01*
X24688439Y-33091501D01*
X24712548Y-33102565D01*
X24735298Y-33109325D01*
X24806425Y-33145644D01*
X24879211Y-33179045D01*
X24897668Y-33192235D01*
X24915349Y-33201263D01*
X24982012Y-33252508D01*
X25049987Y-33301084D01*
X25062973Y-33314744D01*
X25075630Y-33324474D01*
X25134755Y-33390255D01*
X25194606Y-33453214D01*
X25202704Y-33465853D01*
X25210776Y-33474833D01*
X25259387Y-33554314D01*
X25307848Y-33629945D01*
X25311985Y-33640315D01*
X25316259Y-33647303D01*
X25351594Y-33739594D01*
X25385628Y-33824902D01*
X25387005Y-33832085D01*
X25388543Y-33836103D01*
X25408165Y-33942490D01*
X25425139Y-34031050D01*
X25424386Y-34246708D01*
X25418391Y-34276849D01*
X25417878Y-34295794D01*
X25399236Y-34373147D01*
X25383437Y-34452574D01*
X25375243Y-34472704D01*
X25370820Y-34491055D01*
X25336125Y-34568800D01*
X25304298Y-34646984D01*
X25294541Y-34661979D01*
X25288431Y-34675671D01*
X25237613Y-34749473D01*
X25189824Y-34822921D01*
X25180077Y-34833032D01*
X25173778Y-34842180D01*
X25106898Y-34908944D01*
X25044147Y-34974037D01*
X25035809Y-34979908D01*
X25030697Y-34985011D01*
X24947690Y-35041954D01*
X24872523Y-35094880D01*
X24866742Y-35097484D01*
X24863990Y-35099372D01*
X24760847Y-35145187D01*
X24681145Y-35181090D01*
X24622970Y-35194896D01*
X24482604Y-35228465D01*
X24481212Y-35228537D01*
X24476917Y-35229556D01*
X24385655Y-35233461D01*
X24280708Y-35238869D01*
X24275474Y-35238175D01*
X24267209Y-35238529D01*
X24176745Y-35225090D01*
X24080292Y-35212306D01*
X24071579Y-35209466D01*
X24059587Y-35207685D01*
X23975522Y-35178163D01*
X23888072Y-35149665D01*
X23876605Y-35143426D01*
X23861544Y-35138137D01*
X23787230Y-35094799D01*
X23710493Y-35053047D01*
X23697337Y-35042375D01*
X23680225Y-35032395D01*
X23617940Y-34977965D01*
X23553485Y-34925676D01*
X23539979Y-34909835D01*
X23522173Y-34894274D01*
X23473471Y-34831826D01*
X23422325Y-34771836D01*
X23409989Y-34750427D01*
X23393090Y-34728758D01*
X23358715Y-34661438D01*
X23321393Y-34596665D01*
X23311871Y-34569700D01*
X23297634Y-34541819D01*
X23277627Y-34472730D01*
X23254075Y-34406035D01*
X23249021Y-34373945D01*
X23239250Y-34340202D01*
X23233007Y-34272259D01*
X23222624Y-34206330D01*
X23223608Y-34169968D01*
X23220044Y-34131183D01*
X23226394Y-34066998D01*
X23228092Y-34004241D01*
X23236499Y-33964860D01*
X23240709Y-33922303D01*
X23258017Y-33864058D01*
X23270299Y-33806524D01*
X23287233Y-33765743D01*
X23300499Y-33721099D01*
X23326768Y-33670529D01*
X23347827Y-33619813D01*
X23374044Y-33579520D01*
X23397258Y-33534831D01*
X23430268Y-33493108D01*
X23458082Y-33450360D01*
X23493892Y-33412690D01*
X23527493Y-33370220D01*
X23564930Y-33337962D01*
X23597376Y-33303831D01*
X23642627Y-33271014D01*
X23686506Y-33233206D01*
X23726064Y-33210505D01*
X23761033Y-33185145D01*
X23815056Y-33159435D01*
X23868558Y-33128732D01*
X23908099Y-33115155D01*
X23943584Y-33098268D01*
X24005197Y-33081816D01*
X24067082Y-33060568D01*
X24104699Y-33055248D01*
X24138903Y-33046115D01*
X24206439Y-33040859D01*
X24274914Y-33031175D01*
X24309046Y-33032874D01*
X24340466Y-33030429D01*
X24411794Y-33037989D01*
X24411794Y-33037989D01*
G37*
G36*
X21860119Y-33588677D02*
G01*
X21888920Y-33590489D01*
X21927277Y-33602952D01*
X21973097Y-33612691D01*
X21999115Y-33626293D01*
X22021081Y-33633430D01*
X22059947Y-33658095D01*
X22106640Y-33682506D01*
X22123793Y-33698614D01*
X22138410Y-33707890D01*
X22173774Y-33745549D01*
X22216488Y-33785660D01*
X22225655Y-33800797D01*
X22233535Y-33809188D01*
X22261064Y-33859263D01*
X22294550Y-33914555D01*
X22297738Y-33925974D01*
X22300482Y-33930965D01*
X22315933Y-33991140D01*
X22335073Y-34059695D01*
X22335013Y-34065452D01*
X22335040Y-34065558D01*
X22335040Y-34204522D01*
X22333494Y-34210544D01*
X22333375Y-34221888D01*
X22314695Y-34283760D01*
X22300482Y-34339115D01*
X22294937Y-34349201D01*
X22289821Y-34366147D01*
X22258416Y-34415633D01*
X22233535Y-34460892D01*
X22221687Y-34473509D01*
X22209077Y-34493379D01*
X22169916Y-34528639D01*
X22138410Y-34562190D01*
X22118910Y-34574565D01*
X22097092Y-34594210D01*
X22055139Y-34615036D01*
X22021081Y-34636650D01*
X21993632Y-34645568D01*
X21962117Y-34661213D01*
X21921831Y-34668898D01*
X21888920Y-34679591D01*
X21854382Y-34681764D01*
X21814095Y-34689449D01*
X21779033Y-34686505D01*
X21750231Y-34688317D01*
X21710616Y-34680760D01*
X21663933Y-34676840D01*
X21636411Y-34666604D01*
X21613731Y-34662278D01*
X21572091Y-34642684D01*
X21522694Y-34624313D01*
X21503655Y-34610481D01*
X21487994Y-34603111D01*
X21448196Y-34570187D01*
X21400783Y-34535740D01*
X21389789Y-34521869D01*
X21380920Y-34514532D01*
X21347335Y-34468306D01*
X21307182Y-34417645D01*
X21302587Y-34406714D01*
X21299242Y-34402110D01*
X21276386Y-34344385D01*
X21248787Y-34278729D01*
X21229900Y-34129226D01*
X21240295Y-34058837D01*
X21248084Y-33997176D01*
X21250183Y-33991875D01*
X21251914Y-33980153D01*
X21278204Y-33921105D01*
X21299242Y-33867970D01*
X21306005Y-33858661D01*
X21313205Y-33842490D01*
X21350560Y-33797336D01*
X21380920Y-33755548D01*
X21394258Y-33744514D01*
X21409259Y-33726381D01*
X21452533Y-33696304D01*
X21487994Y-33666969D01*
X21508887Y-33657137D01*
X21532998Y-33640380D01*
X21577239Y-33624974D01*
X21613731Y-33607802D01*
X21642078Y-33602394D01*
X21675307Y-33590823D01*
X21716236Y-33588248D01*
X21750231Y-33581763D01*
X21784770Y-33583936D01*
X21825700Y-33581361D01*
X21860119Y-33588677D01*
X21860119Y-33588677D01*
G37*
G36*
X44218883Y-32588773D02*
G01*
X44227426Y-32593396D01*
X44232688Y-32594443D01*
X44246866Y-32603917D01*
X44292259Y-32628482D01*
X44306049Y-32643462D01*
X44315382Y-32649698D01*
X44324892Y-32663931D01*
X44348769Y-32689868D01*
X44361278Y-32718385D01*
X44370637Y-32732392D01*
X44373305Y-32745805D01*
X44383135Y-32768215D01*
X44391423Y-32834704D01*
X44391423Y-33713299D01*
X44376307Y-33803883D01*
X44371684Y-33812426D01*
X44370637Y-33817688D01*
X44361163Y-33831866D01*
X44336598Y-33877259D01*
X44321618Y-33891049D01*
X44315382Y-33900382D01*
X44301149Y-33909892D01*
X44275212Y-33933769D01*
X44246695Y-33946278D01*
X44232688Y-33955637D01*
X44219275Y-33958305D01*
X44196865Y-33968135D01*
X44130376Y-33976423D01*
X43501781Y-33976423D01*
X43411197Y-33961307D01*
X43402654Y-33956684D01*
X43397392Y-33955637D01*
X43383214Y-33946163D01*
X43337821Y-33921598D01*
X43324031Y-33906618D01*
X43314698Y-33900382D01*
X43305188Y-33886149D01*
X43281311Y-33860212D01*
X43268802Y-33831695D01*
X43259443Y-33817688D01*
X43256775Y-33804275D01*
X43246945Y-33781865D01*
X43238657Y-33715376D01*
X43238657Y-32836781D01*
X43253773Y-32746197D01*
X43258396Y-32737654D01*
X43259443Y-32732392D01*
X43268917Y-32718214D01*
X43293482Y-32672821D01*
X43308462Y-32659031D01*
X43314698Y-32649698D01*
X43328931Y-32640188D01*
X43354868Y-32616311D01*
X43383385Y-32603802D01*
X43397392Y-32594443D01*
X43410805Y-32591775D01*
X43433215Y-32581945D01*
X43499704Y-32573657D01*
X44128299Y-32573657D01*
X44218883Y-32588773D01*
X44218883Y-32588773D01*
G37*
G36*
X42168883Y-32588773D02*
G01*
X42177426Y-32593396D01*
X42182688Y-32594443D01*
X42196866Y-32603917D01*
X42242259Y-32628482D01*
X42256049Y-32643462D01*
X42265382Y-32649698D01*
X42274892Y-32663931D01*
X42298769Y-32689868D01*
X42311278Y-32718385D01*
X42320637Y-32732392D01*
X42323305Y-32745805D01*
X42333135Y-32768215D01*
X42341423Y-32834704D01*
X42341423Y-33713299D01*
X42326307Y-33803883D01*
X42321684Y-33812426D01*
X42320637Y-33817688D01*
X42311163Y-33831866D01*
X42286598Y-33877259D01*
X42271618Y-33891049D01*
X42265382Y-33900382D01*
X42251149Y-33909892D01*
X42225212Y-33933769D01*
X42196695Y-33946278D01*
X42182688Y-33955637D01*
X42169275Y-33958305D01*
X42146865Y-33968135D01*
X42080376Y-33976423D01*
X41451781Y-33976423D01*
X41361197Y-33961307D01*
X41352654Y-33956684D01*
X41347392Y-33955637D01*
X41333214Y-33946163D01*
X41287821Y-33921598D01*
X41274031Y-33906618D01*
X41264698Y-33900382D01*
X41255188Y-33886149D01*
X41231311Y-33860212D01*
X41218802Y-33831695D01*
X41209443Y-33817688D01*
X41206775Y-33804275D01*
X41196945Y-33781865D01*
X41188657Y-33715376D01*
X41188657Y-32836781D01*
X41203773Y-32746197D01*
X41208396Y-32737654D01*
X41209443Y-32732392D01*
X41218917Y-32718214D01*
X41243482Y-32672821D01*
X41258462Y-32659031D01*
X41264698Y-32649698D01*
X41278931Y-32640188D01*
X41304868Y-32616311D01*
X41333385Y-32603802D01*
X41347392Y-32594443D01*
X41360805Y-32591775D01*
X41383215Y-32581945D01*
X41449704Y-32573657D01*
X42078299Y-32573657D01*
X42168883Y-32588773D01*
X42168883Y-32588773D01*
G37*
G36*
X25425040Y-30495040D02*
G01*
X25426999Y-30504890D01*
X25426999Y-32685190D01*
X25425040Y-32695040D01*
X25415190Y-32696999D01*
X23234890Y-32696999D01*
X23225039Y-32695040D01*
X23225040Y-32695040D01*
X23223081Y-32685190D01*
X23223081Y-30504890D01*
X23225040Y-30495040D01*
X23234890Y-30493081D01*
X25415190Y-30493081D01*
X25425040Y-30495040D01*
X25425040Y-30495040D01*
G37*
G36*
X21860119Y-31048677D02*
G01*
X21888920Y-31050489D01*
X21927277Y-31062952D01*
X21973097Y-31072691D01*
X21999115Y-31086293D01*
X22021081Y-31093430D01*
X22059947Y-31118095D01*
X22106640Y-31142506D01*
X22123793Y-31158614D01*
X22138410Y-31167890D01*
X22173774Y-31205549D01*
X22216488Y-31245660D01*
X22225655Y-31260797D01*
X22233535Y-31269188D01*
X22261064Y-31319263D01*
X22294550Y-31374555D01*
X22297738Y-31385974D01*
X22300482Y-31390965D01*
X22315933Y-31451140D01*
X22335073Y-31519695D01*
X22335013Y-31525452D01*
X22335040Y-31525558D01*
X22335040Y-31664522D01*
X22333494Y-31670544D01*
X22333375Y-31681888D01*
X22314695Y-31743760D01*
X22300482Y-31799115D01*
X22294937Y-31809201D01*
X22289821Y-31826147D01*
X22258416Y-31875633D01*
X22233535Y-31920892D01*
X22221687Y-31933509D01*
X22209077Y-31953379D01*
X22169916Y-31988639D01*
X22138410Y-32022190D01*
X22118910Y-32034565D01*
X22097092Y-32054210D01*
X22055139Y-32075036D01*
X22021081Y-32096650D01*
X21993632Y-32105568D01*
X21962117Y-32121213D01*
X21921831Y-32128898D01*
X21888920Y-32139591D01*
X21854382Y-32141764D01*
X21814095Y-32149449D01*
X21779033Y-32146505D01*
X21750231Y-32148317D01*
X21710616Y-32140760D01*
X21663933Y-32136840D01*
X21636411Y-32126604D01*
X21613731Y-32122278D01*
X21572091Y-32102684D01*
X21522694Y-32084313D01*
X21503655Y-32070481D01*
X21487994Y-32063111D01*
X21448196Y-32030187D01*
X21400783Y-31995740D01*
X21389789Y-31981869D01*
X21380920Y-31974532D01*
X21347335Y-31928306D01*
X21307182Y-31877645D01*
X21302587Y-31866714D01*
X21299242Y-31862110D01*
X21276386Y-31804385D01*
X21248787Y-31738729D01*
X21229900Y-31589226D01*
X21240295Y-31518837D01*
X21248084Y-31457176D01*
X21250183Y-31451875D01*
X21251914Y-31440153D01*
X21278204Y-31381105D01*
X21299242Y-31327970D01*
X21306005Y-31318661D01*
X21313205Y-31302490D01*
X21350560Y-31257336D01*
X21380920Y-31215548D01*
X21394258Y-31204514D01*
X21409259Y-31186381D01*
X21452533Y-31156304D01*
X21487994Y-31126969D01*
X21508887Y-31117137D01*
X21532998Y-31100380D01*
X21577239Y-31084974D01*
X21613731Y-31067802D01*
X21642078Y-31062394D01*
X21675307Y-31050823D01*
X21716236Y-31048248D01*
X21750231Y-31041763D01*
X21784770Y-31043936D01*
X21825700Y-31041361D01*
X21860119Y-31048677D01*
X21860119Y-31048677D01*
G37*
G36*
X44228883Y-30348773D02*
G01*
X44237426Y-30353396D01*
X44242688Y-30354443D01*
X44256866Y-30363917D01*
X44302259Y-30388482D01*
X44316049Y-30403462D01*
X44325382Y-30409698D01*
X44334892Y-30423931D01*
X44358769Y-30449868D01*
X44371278Y-30478385D01*
X44380637Y-30492392D01*
X44383305Y-30505805D01*
X44393135Y-30528215D01*
X44401423Y-30594704D01*
X44401423Y-31473299D01*
X44386307Y-31563883D01*
X44381684Y-31572426D01*
X44380637Y-31577688D01*
X44371163Y-31591866D01*
X44346598Y-31637259D01*
X44331618Y-31651049D01*
X44325382Y-31660382D01*
X44311149Y-31669892D01*
X44285212Y-31693769D01*
X44256695Y-31706278D01*
X44242688Y-31715637D01*
X44229275Y-31718305D01*
X44206865Y-31728135D01*
X44140376Y-31736423D01*
X43511781Y-31736423D01*
X43421197Y-31721307D01*
X43412654Y-31716684D01*
X43407392Y-31715637D01*
X43393214Y-31706163D01*
X43347821Y-31681598D01*
X43334031Y-31666618D01*
X43324698Y-31660382D01*
X43315188Y-31646149D01*
X43291311Y-31620212D01*
X43278802Y-31591695D01*
X43269443Y-31577688D01*
X43266775Y-31564275D01*
X43256945Y-31541865D01*
X43248657Y-31475376D01*
X43248657Y-30596781D01*
X43263773Y-30506197D01*
X43268396Y-30497654D01*
X43269443Y-30492392D01*
X43278917Y-30478214D01*
X43303482Y-30432821D01*
X43318462Y-30419031D01*
X43324698Y-30409698D01*
X43338931Y-30400188D01*
X43364868Y-30376311D01*
X43393385Y-30363802D01*
X43407392Y-30354443D01*
X43420805Y-30351775D01*
X43443215Y-30341945D01*
X43509704Y-30333657D01*
X44138299Y-30333657D01*
X44228883Y-30348773D01*
X44228883Y-30348773D01*
G37*
G36*
X42178883Y-30348773D02*
G01*
X42187426Y-30353396D01*
X42192688Y-30354443D01*
X42206866Y-30363917D01*
X42252259Y-30388482D01*
X42266049Y-30403462D01*
X42275382Y-30409698D01*
X42284892Y-30423931D01*
X42308769Y-30449868D01*
X42321278Y-30478385D01*
X42330637Y-30492392D01*
X42333305Y-30505805D01*
X42343135Y-30528215D01*
X42351423Y-30594704D01*
X42351423Y-31473299D01*
X42336307Y-31563883D01*
X42331684Y-31572426D01*
X42330637Y-31577688D01*
X42321163Y-31591866D01*
X42296598Y-31637259D01*
X42281618Y-31651049D01*
X42275382Y-31660382D01*
X42261149Y-31669892D01*
X42235212Y-31693769D01*
X42206695Y-31706278D01*
X42192688Y-31715637D01*
X42179275Y-31718305D01*
X42156865Y-31728135D01*
X42090376Y-31736423D01*
X41461781Y-31736423D01*
X41371197Y-31721307D01*
X41362654Y-31716684D01*
X41357392Y-31715637D01*
X41343214Y-31706163D01*
X41297821Y-31681598D01*
X41284031Y-31666618D01*
X41274698Y-31660382D01*
X41265188Y-31646149D01*
X41241311Y-31620212D01*
X41228802Y-31591695D01*
X41219443Y-31577688D01*
X41216775Y-31564275D01*
X41206945Y-31541865D01*
X41198657Y-31475376D01*
X41198657Y-30596781D01*
X41213773Y-30506197D01*
X41218396Y-30497654D01*
X41219443Y-30492392D01*
X41228917Y-30478214D01*
X41253482Y-30432821D01*
X41268462Y-30419031D01*
X41274698Y-30409698D01*
X41288931Y-30400188D01*
X41314868Y-30376311D01*
X41343385Y-30363802D01*
X41357392Y-30354443D01*
X41370805Y-30351775D01*
X41393215Y-30341945D01*
X41459704Y-30333657D01*
X42088299Y-30333657D01*
X42178883Y-30348773D01*
X42178883Y-30348773D01*
G37*
G36*
X66243736Y-27036135D02*
G01*
X66329797Y-27037562D01*
X66386786Y-27046639D01*
X66437497Y-27050363D01*
X66519207Y-27067731D01*
X66609500Y-27082113D01*
X66659593Y-27097571D01*
X66704242Y-27107062D01*
X66787623Y-27137081D01*
X66880136Y-27165630D01*
X66922763Y-27185734D01*
X66960816Y-27199434D01*
X67043829Y-27242832D01*
X67136305Y-27286447D01*
X67171264Y-27309455D01*
X67202478Y-27325773D01*
X67282896Y-27382923D01*
X67372894Y-27442153D01*
X67400298Y-27466356D01*
X67424762Y-27483741D01*
X67500263Y-27554641D01*
X67585184Y-27629641D01*
X67605482Y-27653449D01*
X67623550Y-27670416D01*
X67691726Y-27754607D01*
X67768939Y-27845171D01*
X67782854Y-27867140D01*
X67795162Y-27882339D01*
X67853632Y-27978884D01*
X67920492Y-28084442D01*
X67929002Y-28103334D01*
X67936429Y-28115597D01*
X67982865Y-28222904D01*
X68036820Y-28342680D01*
X68041116Y-28357515D01*
X68044731Y-28365869D01*
X68076915Y-28481139D01*
X68115601Y-28614732D01*
X68117024Y-28624792D01*
X68118063Y-28628514D01*
X68133850Y-28743763D01*
X68155264Y-28895171D01*
X68154921Y-28905781D01*
X68151696Y-29213766D01*
X68143251Y-29267088D01*
X68142068Y-29303697D01*
X68122717Y-29396730D01*
X68109119Y-29482585D01*
X68095426Y-29527939D01*
X68084391Y-29580991D01*
X68053950Y-29665315D01*
X68030302Y-29743639D01*
X68008420Y-29791434D01*
X67988218Y-29847393D01*
X67948700Y-29921871D01*
X67916780Y-29991591D01*
X67885836Y-30040351D01*
X67855468Y-30097585D01*
X67808998Y-30161428D01*
X67770664Y-30221833D01*
X67730040Y-30269905D01*
X67688790Y-30326577D01*
X67637502Y-30379410D01*
X67594649Y-30430120D01*
X67544032Y-30475696D01*
X67491510Y-30529800D01*
X67437491Y-30571626D01*
X67391997Y-30612589D01*
X67331398Y-30653771D01*
X67267563Y-30703198D01*
X67212792Y-30734376D01*
X67166452Y-30765868D01*
X67096230Y-30800727D01*
X67021419Y-30843312D01*
X66967738Y-30864511D01*
X66922200Y-30887117D01*
X66843031Y-30913760D01*
X66757988Y-30947345D01*
X66707003Y-30959539D01*
X66663743Y-30974097D01*
X66576702Y-30990701D01*
X66482526Y-31013224D01*
X66435593Y-31017619D01*
X66395874Y-31025196D01*
X66302347Y-31030097D01*
X66200531Y-31039632D01*
X66158723Y-31037624D01*
X66123550Y-31039467D01*
X66025240Y-31031212D01*
X65917627Y-31026043D01*
X65881721Y-31019161D01*
X65851816Y-31016650D01*
X65750740Y-30994056D01*
X65639461Y-30972728D01*
X65609867Y-30962567D01*
X65585678Y-30957160D01*
X65484145Y-30919400D01*
X65371582Y-30880752D01*
X65348421Y-30868925D01*
X65330087Y-30862107D01*
X65230618Y-30808772D01*
X65119335Y-30751948D01*
X65102389Y-30740016D01*
X65089761Y-30733245D01*
X64995176Y-30664526D01*
X64887753Y-30588887D01*
X64876508Y-30578308D01*
X64869142Y-30572957D01*
X64782757Y-30490117D01*
X64681457Y-30394823D01*
X64675110Y-30386887D01*
X64672321Y-30384212D01*
X64600071Y-30293054D01*
X64504563Y-30173628D01*
X64393383Y-29985259D01*
X64364119Y-29935776D01*
X64363975Y-29935433D01*
X64360600Y-29929715D01*
X64304652Y-29794310D01*
X64258448Y-29684396D01*
X64256994Y-29678968D01*
X64252441Y-29667950D01*
X64218656Y-29535888D01*
X64187866Y-29420977D01*
X64186507Y-29410223D01*
X64182244Y-29393558D01*
X64168189Y-29265221D01*
X64153689Y-29150445D01*
X64153858Y-29134360D01*
X64151410Y-29112012D01*
X64155379Y-28989119D01*
X64156546Y-28877750D01*
X64159657Y-28856685D01*
X64160553Y-28828930D01*
X64180786Y-28713597D01*
X64196381Y-28607983D01*
X64203782Y-28582508D01*
X64209492Y-28549960D01*
X64244020Y-28444010D01*
X64272460Y-28346118D01*
X64285373Y-28317114D01*
X64297250Y-28280670D01*
X64343923Y-28185609D01*
X64383379Y-28096989D01*
X64402859Y-28065571D01*
X64422076Y-28026431D01*
X64478596Y-27943420D01*
X64527073Y-27865235D01*
X64553956Y-27832739D01*
X64581479Y-27792316D01*
X64645501Y-27722079D01*
X64700903Y-27655110D01*
X64735773Y-27623045D01*
X64772278Y-27582997D01*
X64841404Y-27525913D01*
X64901632Y-27470530D01*
X64944803Y-27440526D01*
X64990668Y-27402650D01*
X65062580Y-27358669D01*
X65125555Y-27314900D01*
X65177020Y-27288677D01*
X65232290Y-27254874D01*
X65304781Y-27223580D01*
X65368533Y-27191096D01*
X65427975Y-27170396D01*
X65492323Y-27142617D01*
X65563363Y-27123249D01*
X65626063Y-27101415D01*
X65692832Y-27087952D01*
X65765579Y-27068119D01*
X65833367Y-27059615D01*
X65893374Y-27047516D01*
X65966490Y-27042916D01*
X66046606Y-27032866D01*
X66109624Y-27033911D01*
X66165542Y-27030393D01*
X66243736Y-27036135D01*
X66243736Y-27036135D01*
G37*
G36*
X55185040Y-29145040D02*
G01*
X55186999Y-29154890D01*
X55186999Y-30635190D01*
X55185040Y-30645040D01*
X55175190Y-30646999D01*
X53694890Y-30646999D01*
X53685039Y-30645040D01*
X53685040Y-30645040D01*
X53683081Y-30635190D01*
X53683081Y-29154890D01*
X53685040Y-29145040D01*
X53694890Y-29143081D01*
X55175190Y-29143081D01*
X55185040Y-29145040D01*
X55185040Y-29145040D01*
G37*
G36*
X52515040Y-29015040D02*
G01*
X52516999Y-29024890D01*
X52516999Y-30505190D01*
X52515040Y-30515040D01*
X52515041Y-30515040D01*
X52505190Y-30516999D01*
X51024890Y-30516999D01*
X51015040Y-30515040D01*
X51013081Y-30505190D01*
X51013081Y-29024890D01*
X51015040Y-29015040D01*
X51024890Y-29013081D01*
X52505190Y-29013081D01*
X52515040Y-29015040D01*
X52515040Y-29015040D01*
G37*
G36*
X42088883Y-28088773D02*
G01*
X42097426Y-28093396D01*
X42102688Y-28094443D01*
X42116866Y-28103917D01*
X42162259Y-28128482D01*
X42176049Y-28143462D01*
X42185382Y-28149698D01*
X42194892Y-28163931D01*
X42218769Y-28189868D01*
X42231278Y-28218385D01*
X42240637Y-28232392D01*
X42243305Y-28245805D01*
X42253135Y-28268215D01*
X42261423Y-28334704D01*
X42261423Y-29213299D01*
X42246307Y-29303883D01*
X42241684Y-29312426D01*
X42240637Y-29317688D01*
X42231163Y-29331866D01*
X42206598Y-29377259D01*
X42191618Y-29391049D01*
X42185382Y-29400382D01*
X42171149Y-29409892D01*
X42145212Y-29433769D01*
X42116695Y-29446278D01*
X42102688Y-29455637D01*
X42089275Y-29458305D01*
X42066865Y-29468135D01*
X42000376Y-29476423D01*
X41371781Y-29476423D01*
X41281197Y-29461307D01*
X41272654Y-29456684D01*
X41267392Y-29455637D01*
X41253214Y-29446163D01*
X41207821Y-29421598D01*
X41194031Y-29406618D01*
X41184698Y-29400382D01*
X41175188Y-29386149D01*
X41151311Y-29360212D01*
X41138802Y-29331695D01*
X41129443Y-29317688D01*
X41126775Y-29304275D01*
X41116945Y-29281865D01*
X41108657Y-29215376D01*
X41108657Y-28336781D01*
X41123773Y-28246197D01*
X41128396Y-28237654D01*
X41129443Y-28232392D01*
X41138917Y-28218214D01*
X41163482Y-28172821D01*
X41178462Y-28159031D01*
X41184698Y-28149698D01*
X41198931Y-28140188D01*
X41224868Y-28116311D01*
X41253385Y-28103802D01*
X41267392Y-28094443D01*
X41280805Y-28091775D01*
X41303215Y-28081945D01*
X41369704Y-28073657D01*
X41998299Y-28073657D01*
X42088883Y-28088773D01*
X42088883Y-28088773D01*
G37*
G36*
X44138883Y-28088773D02*
G01*
X44147426Y-28093396D01*
X44152688Y-28094443D01*
X44166866Y-28103917D01*
X44212259Y-28128482D01*
X44226049Y-28143462D01*
X44235382Y-28149698D01*
X44244892Y-28163931D01*
X44268769Y-28189868D01*
X44281278Y-28218385D01*
X44290637Y-28232392D01*
X44293305Y-28245805D01*
X44303135Y-28268215D01*
X44311423Y-28334704D01*
X44311423Y-29213299D01*
X44296307Y-29303883D01*
X44291684Y-29312426D01*
X44290637Y-29317688D01*
X44281163Y-29331866D01*
X44256598Y-29377259D01*
X44241618Y-29391049D01*
X44235382Y-29400382D01*
X44221149Y-29409892D01*
X44195212Y-29433769D01*
X44166695Y-29446278D01*
X44152688Y-29455637D01*
X44139275Y-29458305D01*
X44116865Y-29468135D01*
X44050376Y-29476423D01*
X43421781Y-29476423D01*
X43331197Y-29461307D01*
X43322654Y-29456684D01*
X43317392Y-29455637D01*
X43303214Y-29446163D01*
X43257821Y-29421598D01*
X43244031Y-29406618D01*
X43234698Y-29400382D01*
X43225188Y-29386149D01*
X43201311Y-29360212D01*
X43188802Y-29331695D01*
X43179443Y-29317688D01*
X43176775Y-29304275D01*
X43166945Y-29281865D01*
X43158657Y-29215376D01*
X43158657Y-28336781D01*
X43173773Y-28246197D01*
X43178396Y-28237654D01*
X43179443Y-28232392D01*
X43188917Y-28218214D01*
X43213482Y-28172821D01*
X43228462Y-28159031D01*
X43234698Y-28149698D01*
X43248931Y-28140188D01*
X43274868Y-28116311D01*
X43303385Y-28103802D01*
X43317392Y-28094443D01*
X43330805Y-28091775D01*
X43353215Y-28081945D01*
X43419704Y-28073657D01*
X44048299Y-28073657D01*
X44138883Y-28088773D01*
X44138883Y-28088773D01*
G37*
G36*
X39584060Y-27878340D02*
G01*
X39586019Y-27888190D01*
X39586019Y-29368490D01*
X39584060Y-29378340D01*
X39574210Y-29380299D01*
X38093910Y-29380299D01*
X38084060Y-29378340D01*
X38082101Y-29368490D01*
X38082101Y-27888190D01*
X38084060Y-27878340D01*
X38093910Y-27876381D01*
X39574210Y-27876381D01*
X39584060Y-27878340D01*
X39584060Y-27878340D01*
G37*
G36*
X36569743Y-27002273D02*
G01*
X36578286Y-27006896D01*
X36583548Y-27007943D01*
X36597726Y-27017417D01*
X36643119Y-27041982D01*
X36656909Y-27056962D01*
X36666242Y-27063198D01*
X36675752Y-27077431D01*
X36699629Y-27103368D01*
X36712138Y-27131885D01*
X36721497Y-27145892D01*
X36724165Y-27159305D01*
X36733995Y-27181715D01*
X36742283Y-27248204D01*
X36742283Y-28126799D01*
X36727167Y-28217383D01*
X36722544Y-28225926D01*
X36721497Y-28231188D01*
X36712023Y-28245366D01*
X36687458Y-28290759D01*
X36672478Y-28304549D01*
X36666242Y-28313882D01*
X36652009Y-28323392D01*
X36626072Y-28347269D01*
X36597555Y-28359778D01*
X36583548Y-28369137D01*
X36570135Y-28371805D01*
X36547725Y-28381635D01*
X36481236Y-28389923D01*
X35852641Y-28389923D01*
X35762057Y-28374807D01*
X35753514Y-28370184D01*
X35748252Y-28369137D01*
X35734074Y-28359663D01*
X35688681Y-28335098D01*
X35674891Y-28320118D01*
X35665558Y-28313882D01*
X35656048Y-28299649D01*
X35632171Y-28273712D01*
X35619662Y-28245195D01*
X35610303Y-28231188D01*
X35607635Y-28217775D01*
X35597805Y-28195365D01*
X35589517Y-28128876D01*
X35589517Y-27250281D01*
X35604633Y-27159697D01*
X35609256Y-27151154D01*
X35610303Y-27145892D01*
X35619777Y-27131714D01*
X35644342Y-27086321D01*
X35659322Y-27072531D01*
X35665558Y-27063198D01*
X35679791Y-27053688D01*
X35705728Y-27029811D01*
X35734245Y-27017302D01*
X35748252Y-27007943D01*
X35761665Y-27005275D01*
X35784075Y-26995445D01*
X35850564Y-26987157D01*
X36479159Y-26987157D01*
X36569743Y-27002273D01*
X36569743Y-27002273D01*
G37*
G36*
X34519743Y-27002273D02*
G01*
X34528286Y-27006896D01*
X34533548Y-27007943D01*
X34547726Y-27017417D01*
X34593119Y-27041982D01*
X34606909Y-27056962D01*
X34616242Y-27063198D01*
X34625752Y-27077431D01*
X34649629Y-27103368D01*
X34662138Y-27131885D01*
X34671497Y-27145892D01*
X34674165Y-27159305D01*
X34683995Y-27181715D01*
X34692283Y-27248204D01*
X34692283Y-28126799D01*
X34677167Y-28217383D01*
X34672544Y-28225926D01*
X34671497Y-28231188D01*
X34662023Y-28245366D01*
X34637458Y-28290759D01*
X34622478Y-28304549D01*
X34616242Y-28313882D01*
X34602009Y-28323392D01*
X34576072Y-28347269D01*
X34547555Y-28359778D01*
X34533548Y-28369137D01*
X34520135Y-28371805D01*
X34497725Y-28381635D01*
X34431236Y-28389923D01*
X33802641Y-28389923D01*
X33712057Y-28374807D01*
X33703514Y-28370184D01*
X33698252Y-28369137D01*
X33684074Y-28359663D01*
X33638681Y-28335098D01*
X33624891Y-28320118D01*
X33615558Y-28313882D01*
X33606048Y-28299649D01*
X33582171Y-28273712D01*
X33569662Y-28245195D01*
X33560303Y-28231188D01*
X33557635Y-28217775D01*
X33547805Y-28195365D01*
X33539517Y-28128876D01*
X33539517Y-27250281D01*
X33554633Y-27159697D01*
X33559256Y-27151154D01*
X33560303Y-27145892D01*
X33569777Y-27131714D01*
X33594342Y-27086321D01*
X33609322Y-27072531D01*
X33615558Y-27063198D01*
X33629791Y-27053688D01*
X33655728Y-27029811D01*
X33684245Y-27017302D01*
X33698252Y-27007943D01*
X33711665Y-27005275D01*
X33734075Y-26995445D01*
X33800564Y-26987157D01*
X34429159Y-26987157D01*
X34519743Y-27002273D01*
X34519743Y-27002273D01*
G37*
G36*
X36738883Y-24542571D02*
G01*
X36747426Y-24547194D01*
X36752688Y-24548241D01*
X36766866Y-24557715D01*
X36812259Y-24582280D01*
X36826049Y-24597260D01*
X36835382Y-24603496D01*
X36844892Y-24617729D01*
X36868769Y-24643666D01*
X36881278Y-24672183D01*
X36890637Y-24686190D01*
X36893305Y-24699603D01*
X36903135Y-24722013D01*
X36911423Y-24788502D01*
X36911423Y-25667097D01*
X36896307Y-25757681D01*
X36891684Y-25766224D01*
X36890637Y-25771486D01*
X36881163Y-25785664D01*
X36856598Y-25831057D01*
X36841618Y-25844847D01*
X36835382Y-25854180D01*
X36821149Y-25863690D01*
X36795212Y-25887567D01*
X36766695Y-25900076D01*
X36752688Y-25909435D01*
X36739275Y-25912103D01*
X36716865Y-25921933D01*
X36650376Y-25930221D01*
X36021781Y-25930221D01*
X35931197Y-25915105D01*
X35922654Y-25910482D01*
X35917392Y-25909435D01*
X35903214Y-25899961D01*
X35857821Y-25875396D01*
X35844031Y-25860416D01*
X35834698Y-25854180D01*
X35825188Y-25839947D01*
X35801311Y-25814010D01*
X35788802Y-25785493D01*
X35779443Y-25771486D01*
X35776775Y-25758073D01*
X35766945Y-25735663D01*
X35758657Y-25669174D01*
X35758657Y-24790579D01*
X35773773Y-24699995D01*
X35778396Y-24691452D01*
X35779443Y-24686190D01*
X35788917Y-24672012D01*
X35813482Y-24626619D01*
X35828462Y-24612829D01*
X35834698Y-24603496D01*
X35848931Y-24593986D01*
X35874868Y-24570109D01*
X35903385Y-24557600D01*
X35917392Y-24548241D01*
X35930805Y-24545573D01*
X35953215Y-24535743D01*
X36019704Y-24527455D01*
X36648299Y-24527455D01*
X36738883Y-24542571D01*
X36738883Y-24542571D01*
G37*
G36*
X38788883Y-24542571D02*
G01*
X38797426Y-24547194D01*
X38802688Y-24548241D01*
X38816866Y-24557715D01*
X38862259Y-24582280D01*
X38876049Y-24597260D01*
X38885382Y-24603496D01*
X38894892Y-24617729D01*
X38918769Y-24643666D01*
X38931278Y-24672183D01*
X38940637Y-24686190D01*
X38943305Y-24699603D01*
X38953135Y-24722013D01*
X38961423Y-24788502D01*
X38961423Y-25667097D01*
X38946307Y-25757681D01*
X38941684Y-25766224D01*
X38940637Y-25771486D01*
X38931163Y-25785664D01*
X38906598Y-25831057D01*
X38891618Y-25844847D01*
X38885382Y-25854180D01*
X38871149Y-25863690D01*
X38845212Y-25887567D01*
X38816695Y-25900076D01*
X38802688Y-25909435D01*
X38789275Y-25912103D01*
X38766865Y-25921933D01*
X38700376Y-25930221D01*
X38071781Y-25930221D01*
X37981197Y-25915105D01*
X37972654Y-25910482D01*
X37967392Y-25909435D01*
X37953214Y-25899961D01*
X37907821Y-25875396D01*
X37894031Y-25860416D01*
X37884698Y-25854180D01*
X37875188Y-25839947D01*
X37851311Y-25814010D01*
X37838802Y-25785493D01*
X37829443Y-25771486D01*
X37826775Y-25758073D01*
X37816945Y-25735663D01*
X37808657Y-25669174D01*
X37808657Y-24790579D01*
X37823773Y-24699995D01*
X37828396Y-24691452D01*
X37829443Y-24686190D01*
X37838917Y-24672012D01*
X37863482Y-24626619D01*
X37878462Y-24612829D01*
X37884698Y-24603496D01*
X37898931Y-24593986D01*
X37924868Y-24570109D01*
X37953385Y-24557600D01*
X37967392Y-24548241D01*
X37980805Y-24545573D01*
X38003215Y-24535743D01*
X38069704Y-24527455D01*
X38698299Y-24527455D01*
X38788883Y-24542571D01*
X38788883Y-24542571D01*
G37*
G36*
X34121360Y-24074584D02*
G01*
X34126804Y-24077727D01*
X34130555Y-24078473D01*
X34146184Y-24088916D01*
X34193894Y-24116461D01*
X34202171Y-24126325D01*
X34209115Y-24130965D01*
X34221043Y-24148816D01*
X34244814Y-24177146D01*
X34248056Y-24189244D01*
X34261607Y-24209525D01*
X34280040Y-24302193D01*
X34280040Y-24308611D01*
X34281583Y-24314370D01*
X34281583Y-24860127D01*
X34265496Y-24951360D01*
X34262353Y-24956804D01*
X34261607Y-24960555D01*
X34251164Y-24976184D01*
X34223619Y-25023894D01*
X34213755Y-25032171D01*
X34209115Y-25039115D01*
X34191267Y-25051041D01*
X34162935Y-25074814D01*
X34150836Y-25078056D01*
X34130555Y-25091607D01*
X34037887Y-25110040D01*
X34031469Y-25110040D01*
X34025710Y-25111583D01*
X33579953Y-25111583D01*
X33488720Y-25095496D01*
X33483276Y-25092353D01*
X33479525Y-25091607D01*
X33463896Y-25081164D01*
X33416186Y-25053619D01*
X33407909Y-25043755D01*
X33400965Y-25039115D01*
X33389039Y-25021267D01*
X33365266Y-24992935D01*
X33362024Y-24980836D01*
X33348473Y-24960555D01*
X33330040Y-24867887D01*
X33330040Y-24861469D01*
X33328497Y-24855710D01*
X33328497Y-24309953D01*
X33344584Y-24218720D01*
X33347727Y-24213276D01*
X33348473Y-24209525D01*
X33358916Y-24193896D01*
X33386461Y-24146186D01*
X33396325Y-24137909D01*
X33400965Y-24130965D01*
X33418816Y-24119037D01*
X33447146Y-24095266D01*
X33459244Y-24092024D01*
X33479525Y-24078473D01*
X33572193Y-24060040D01*
X33578611Y-24060040D01*
X33584370Y-24058497D01*
X34030127Y-24058497D01*
X34121360Y-24074584D01*
X34121360Y-24074584D01*
G37*
G36*
X40768883Y-22748773D02*
G01*
X40777426Y-22753396D01*
X40782688Y-22754443D01*
X40796866Y-22763917D01*
X40842259Y-22788482D01*
X40856049Y-22803462D01*
X40865382Y-22809698D01*
X40874892Y-22823931D01*
X40898769Y-22849868D01*
X40911278Y-22878385D01*
X40920637Y-22892392D01*
X40923305Y-22905805D01*
X40933135Y-22928215D01*
X40941423Y-22994704D01*
X40941423Y-23873299D01*
X40926307Y-23963883D01*
X40921684Y-23972426D01*
X40920637Y-23977688D01*
X40911163Y-23991866D01*
X40886598Y-24037259D01*
X40871618Y-24051049D01*
X40865382Y-24060382D01*
X40851149Y-24069892D01*
X40825212Y-24093769D01*
X40796695Y-24106278D01*
X40782688Y-24115637D01*
X40769275Y-24118305D01*
X40746865Y-24128135D01*
X40680376Y-24136423D01*
X40051781Y-24136423D01*
X39961197Y-24121307D01*
X39952654Y-24116684D01*
X39947392Y-24115637D01*
X39933214Y-24106163D01*
X39887821Y-24081598D01*
X39874031Y-24066618D01*
X39864698Y-24060382D01*
X39855188Y-24046149D01*
X39831311Y-24020212D01*
X39818802Y-23991695D01*
X39809443Y-23977688D01*
X39806775Y-23964275D01*
X39796945Y-23941865D01*
X39788657Y-23875376D01*
X39788657Y-22996781D01*
X39803773Y-22906197D01*
X39808396Y-22897654D01*
X39809443Y-22892392D01*
X39818917Y-22878214D01*
X39843482Y-22832821D01*
X39858462Y-22819031D01*
X39864698Y-22809698D01*
X39878931Y-22800188D01*
X39904868Y-22776311D01*
X39933385Y-22763802D01*
X39947392Y-22754443D01*
X39960805Y-22751775D01*
X39983215Y-22741945D01*
X40049704Y-22733657D01*
X40678299Y-22733657D01*
X40768883Y-22748773D01*
X40768883Y-22748773D01*
G37*
G36*
X42818883Y-22748773D02*
G01*
X42827426Y-22753396D01*
X42832688Y-22754443D01*
X42846866Y-22763917D01*
X42892259Y-22788482D01*
X42906049Y-22803462D01*
X42915382Y-22809698D01*
X42924892Y-22823931D01*
X42948769Y-22849868D01*
X42961278Y-22878385D01*
X42970637Y-22892392D01*
X42973305Y-22905805D01*
X42983135Y-22928215D01*
X42991423Y-22994704D01*
X42991423Y-23873299D01*
X42976307Y-23963883D01*
X42971684Y-23972426D01*
X42970637Y-23977688D01*
X42961163Y-23991866D01*
X42936598Y-24037259D01*
X42921618Y-24051049D01*
X42915382Y-24060382D01*
X42901149Y-24069892D01*
X42875212Y-24093769D01*
X42846695Y-24106278D01*
X42832688Y-24115637D01*
X42819275Y-24118305D01*
X42796865Y-24128135D01*
X42730376Y-24136423D01*
X42101781Y-24136423D01*
X42011197Y-24121307D01*
X42002654Y-24116684D01*
X41997392Y-24115637D01*
X41983214Y-24106163D01*
X41937821Y-24081598D01*
X41924031Y-24066618D01*
X41914698Y-24060382D01*
X41905188Y-24046149D01*
X41881311Y-24020212D01*
X41868802Y-23991695D01*
X41859443Y-23977688D01*
X41856775Y-23964275D01*
X41846945Y-23941865D01*
X41838657Y-23875376D01*
X41838657Y-22996781D01*
X41853773Y-22906197D01*
X41858396Y-22897654D01*
X41859443Y-22892392D01*
X41868917Y-22878214D01*
X41893482Y-22832821D01*
X41908462Y-22819031D01*
X41914698Y-22809698D01*
X41928931Y-22800188D01*
X41954868Y-22776311D01*
X41983385Y-22763802D01*
X41997392Y-22754443D01*
X42010805Y-22751775D01*
X42033215Y-22741945D01*
X42099704Y-22733657D01*
X42728299Y-22733657D01*
X42818883Y-22748773D01*
X42818883Y-22748773D01*
G37*
G36*
X67086754Y-21902949D02*
G01*
X67159514Y-21906571D01*
X67188998Y-21913786D01*
X67216466Y-21916697D01*
X67289082Y-21938276D01*
X67363399Y-21956461D01*
X67387508Y-21967525D01*
X67410258Y-21974285D01*
X67481385Y-22010604D01*
X67554171Y-22044005D01*
X67572628Y-22057195D01*
X67590309Y-22066223D01*
X67656972Y-22117468D01*
X67724947Y-22166044D01*
X67737933Y-22179704D01*
X67750590Y-22189434D01*
X67809715Y-22255215D01*
X67869566Y-22318174D01*
X67877664Y-22330813D01*
X67885736Y-22339793D01*
X67934347Y-22419274D01*
X67982808Y-22494905D01*
X67986945Y-22505275D01*
X67991219Y-22512263D01*
X68026554Y-22604554D01*
X68060588Y-22689862D01*
X68061965Y-22697045D01*
X68063503Y-22701063D01*
X68083125Y-22807450D01*
X68100099Y-22896010D01*
X68099346Y-23111668D01*
X68093351Y-23141809D01*
X68092838Y-23160754D01*
X68074196Y-23238107D01*
X68058397Y-23317534D01*
X68050203Y-23337664D01*
X68045780Y-23356015D01*
X68011085Y-23433760D01*
X67979258Y-23511944D01*
X67969501Y-23526939D01*
X67963391Y-23540631D01*
X67912573Y-23614433D01*
X67864784Y-23687881D01*
X67855037Y-23697992D01*
X67848738Y-23707140D01*
X67781858Y-23773904D01*
X67719107Y-23838997D01*
X67710769Y-23844868D01*
X67705657Y-23849971D01*
X67622650Y-23906914D01*
X67547483Y-23959840D01*
X67541702Y-23962444D01*
X67538950Y-23964332D01*
X67435807Y-24010147D01*
X67356105Y-24046050D01*
X67297930Y-24059856D01*
X67157564Y-24093425D01*
X67156172Y-24093497D01*
X67151877Y-24094516D01*
X67060615Y-24098421D01*
X66955668Y-24103829D01*
X66950434Y-24103135D01*
X66942169Y-24103489D01*
X66851705Y-24090050D01*
X66755252Y-24077266D01*
X66746539Y-24074426D01*
X66734547Y-24072645D01*
X66650482Y-24043123D01*
X66563032Y-24014625D01*
X66551565Y-24008386D01*
X66536504Y-24003097D01*
X66462190Y-23959759D01*
X66385453Y-23918007D01*
X66372297Y-23907335D01*
X66355185Y-23897355D01*
X66292900Y-23842925D01*
X66228445Y-23790636D01*
X66214939Y-23774795D01*
X66197133Y-23759234D01*
X66148431Y-23696786D01*
X66097285Y-23636796D01*
X66084949Y-23615387D01*
X66068050Y-23593718D01*
X66033675Y-23526398D01*
X65996353Y-23461625D01*
X65986831Y-23434660D01*
X65972594Y-23406779D01*
X65952587Y-23337690D01*
X65929035Y-23270995D01*
X65923981Y-23238905D01*
X65914210Y-23205162D01*
X65907967Y-23137219D01*
X65897584Y-23071290D01*
X65898568Y-23034928D01*
X65895004Y-22996143D01*
X65901354Y-22931958D01*
X65903052Y-22869201D01*
X65911459Y-22829820D01*
X65915669Y-22787263D01*
X65932977Y-22729018D01*
X65945259Y-22671484D01*
X65962193Y-22630703D01*
X65975459Y-22586059D01*
X66001728Y-22535489D01*
X66022787Y-22484773D01*
X66049004Y-22444480D01*
X66072218Y-22399791D01*
X66105228Y-22358068D01*
X66133042Y-22315320D01*
X66168852Y-22277650D01*
X66202453Y-22235180D01*
X66239890Y-22202922D01*
X66272336Y-22168791D01*
X66317587Y-22135974D01*
X66361466Y-22098166D01*
X66401024Y-22075465D01*
X66435993Y-22050105D01*
X66490016Y-22024395D01*
X66543518Y-21993692D01*
X66583059Y-21980115D01*
X66618544Y-21963228D01*
X66680157Y-21946776D01*
X66742042Y-21925528D01*
X66779659Y-21920208D01*
X66813863Y-21911075D01*
X66881399Y-21905819D01*
X66949874Y-21896135D01*
X66984006Y-21897834D01*
X67015426Y-21895389D01*
X67086754Y-21902949D01*
X67086754Y-21902949D01*
G37*
G36*
X23086754Y-21902949D02*
G01*
X23159514Y-21906571D01*
X23188998Y-21913786D01*
X23216466Y-21916697D01*
X23289082Y-21938276D01*
X23363399Y-21956461D01*
X23387508Y-21967525D01*
X23410258Y-21974285D01*
X23481385Y-22010604D01*
X23554171Y-22044005D01*
X23572628Y-22057195D01*
X23590309Y-22066223D01*
X23656972Y-22117468D01*
X23724947Y-22166044D01*
X23737933Y-22179704D01*
X23750590Y-22189434D01*
X23809715Y-22255215D01*
X23869566Y-22318174D01*
X23877664Y-22330813D01*
X23885736Y-22339793D01*
X23934347Y-22419274D01*
X23982808Y-22494905D01*
X23986945Y-22505275D01*
X23991219Y-22512263D01*
X24026554Y-22604554D01*
X24060588Y-22689862D01*
X24061965Y-22697045D01*
X24063503Y-22701063D01*
X24083125Y-22807450D01*
X24100099Y-22896010D01*
X24099346Y-23111668D01*
X24093351Y-23141809D01*
X24092838Y-23160754D01*
X24074196Y-23238107D01*
X24058397Y-23317534D01*
X24050203Y-23337664D01*
X24045780Y-23356015D01*
X24011085Y-23433760D01*
X23979258Y-23511944D01*
X23969501Y-23526939D01*
X23963391Y-23540631D01*
X23912573Y-23614433D01*
X23864784Y-23687881D01*
X23855037Y-23697992D01*
X23848738Y-23707140D01*
X23781858Y-23773904D01*
X23719107Y-23838997D01*
X23710769Y-23844868D01*
X23705657Y-23849971D01*
X23622650Y-23906914D01*
X23547483Y-23959840D01*
X23541702Y-23962444D01*
X23538950Y-23964332D01*
X23435807Y-24010147D01*
X23356105Y-24046050D01*
X23297930Y-24059856D01*
X23157564Y-24093425D01*
X23156172Y-24093497D01*
X23151877Y-24094516D01*
X23060615Y-24098421D01*
X22955668Y-24103829D01*
X22950434Y-24103135D01*
X22942169Y-24103489D01*
X22851705Y-24090050D01*
X22755252Y-24077266D01*
X22746539Y-24074426D01*
X22734547Y-24072645D01*
X22650482Y-24043123D01*
X22563032Y-24014625D01*
X22551565Y-24008386D01*
X22536504Y-24003097D01*
X22462190Y-23959759D01*
X22385453Y-23918007D01*
X22372297Y-23907335D01*
X22355185Y-23897355D01*
X22292900Y-23842925D01*
X22228445Y-23790636D01*
X22214939Y-23774795D01*
X22197133Y-23759234D01*
X22148431Y-23696786D01*
X22097285Y-23636796D01*
X22084949Y-23615387D01*
X22068050Y-23593718D01*
X22033675Y-23526398D01*
X21996353Y-23461625D01*
X21986831Y-23434660D01*
X21972594Y-23406779D01*
X21952587Y-23337690D01*
X21929035Y-23270995D01*
X21923981Y-23238905D01*
X21914210Y-23205162D01*
X21907967Y-23137219D01*
X21897584Y-23071290D01*
X21898568Y-23034928D01*
X21895004Y-22996143D01*
X21901354Y-22931958D01*
X21903052Y-22869201D01*
X21911459Y-22829820D01*
X21915669Y-22787263D01*
X21932977Y-22729018D01*
X21945259Y-22671484D01*
X21962193Y-22630703D01*
X21975459Y-22586059D01*
X22001728Y-22535489D01*
X22022787Y-22484773D01*
X22049004Y-22444480D01*
X22072218Y-22399791D01*
X22105228Y-22358068D01*
X22133042Y-22315320D01*
X22168852Y-22277650D01*
X22202453Y-22235180D01*
X22239890Y-22202922D01*
X22272336Y-22168791D01*
X22317587Y-22135974D01*
X22361466Y-22098166D01*
X22401024Y-22075465D01*
X22435993Y-22050105D01*
X22490016Y-22024395D01*
X22543518Y-21993692D01*
X22583059Y-21980115D01*
X22618544Y-21963228D01*
X22680157Y-21946776D01*
X22742042Y-21925528D01*
X22779659Y-21920208D01*
X22813863Y-21911075D01*
X22881399Y-21905819D01*
X22949874Y-21896135D01*
X22984006Y-21897834D01*
X23015426Y-21895389D01*
X23086754Y-21902949D01*
X23086754Y-21902949D01*
G37*
G36*
X38818883Y-22138773D02*
G01*
X38827426Y-22143396D01*
X38832688Y-22144443D01*
X38846866Y-22153917D01*
X38892259Y-22178482D01*
X38906049Y-22193462D01*
X38915382Y-22199698D01*
X38924892Y-22213931D01*
X38948769Y-22239868D01*
X38961278Y-22268385D01*
X38970637Y-22282392D01*
X38973305Y-22295805D01*
X38983135Y-22318215D01*
X38991423Y-22384704D01*
X38991423Y-23263299D01*
X38976307Y-23353883D01*
X38971684Y-23362426D01*
X38970637Y-23367688D01*
X38961163Y-23381866D01*
X38936598Y-23427259D01*
X38921618Y-23441049D01*
X38915382Y-23450382D01*
X38901149Y-23459892D01*
X38875212Y-23483769D01*
X38846695Y-23496278D01*
X38832688Y-23505637D01*
X38819275Y-23508305D01*
X38796865Y-23518135D01*
X38730376Y-23526423D01*
X38101781Y-23526423D01*
X38011197Y-23511307D01*
X38002654Y-23506684D01*
X37997392Y-23505637D01*
X37983214Y-23496163D01*
X37937821Y-23471598D01*
X37924031Y-23456618D01*
X37914698Y-23450382D01*
X37905188Y-23436149D01*
X37881311Y-23410212D01*
X37868802Y-23381695D01*
X37859443Y-23367688D01*
X37856775Y-23354275D01*
X37846945Y-23331865D01*
X37838657Y-23265376D01*
X37838657Y-22386781D01*
X37853773Y-22296197D01*
X37858396Y-22287654D01*
X37859443Y-22282392D01*
X37868917Y-22268214D01*
X37893482Y-22222821D01*
X37908462Y-22209031D01*
X37914698Y-22199698D01*
X37928931Y-22190188D01*
X37954868Y-22166311D01*
X37983385Y-22153802D01*
X37997392Y-22144443D01*
X38010805Y-22141775D01*
X38033215Y-22131945D01*
X38099704Y-22123657D01*
X38728299Y-22123657D01*
X38818883Y-22138773D01*
X38818883Y-22138773D01*
G37*
G36*
X36768883Y-22138773D02*
G01*
X36777426Y-22143396D01*
X36782688Y-22144443D01*
X36796866Y-22153917D01*
X36842259Y-22178482D01*
X36856049Y-22193462D01*
X36865382Y-22199698D01*
X36874892Y-22213931D01*
X36898769Y-22239868D01*
X36911278Y-22268385D01*
X36920637Y-22282392D01*
X36923305Y-22295805D01*
X36933135Y-22318215D01*
X36941423Y-22384704D01*
X36941423Y-23263299D01*
X36926307Y-23353883D01*
X36921684Y-23362426D01*
X36920637Y-23367688D01*
X36911163Y-23381866D01*
X36886598Y-23427259D01*
X36871618Y-23441049D01*
X36865382Y-23450382D01*
X36851149Y-23459892D01*
X36825212Y-23483769D01*
X36796695Y-23496278D01*
X36782688Y-23505637D01*
X36769275Y-23508305D01*
X36746865Y-23518135D01*
X36680376Y-23526423D01*
X36051781Y-23526423D01*
X35961197Y-23511307D01*
X35952654Y-23506684D01*
X35947392Y-23505637D01*
X35933214Y-23496163D01*
X35887821Y-23471598D01*
X35874031Y-23456618D01*
X35864698Y-23450382D01*
X35855188Y-23436149D01*
X35831311Y-23410212D01*
X35818802Y-23381695D01*
X35809443Y-23367688D01*
X35806775Y-23354275D01*
X35796945Y-23331865D01*
X35788657Y-23265376D01*
X35788657Y-22386781D01*
X35803773Y-22296197D01*
X35808396Y-22287654D01*
X35809443Y-22282392D01*
X35818917Y-22268214D01*
X35843482Y-22222821D01*
X35858462Y-22209031D01*
X35864698Y-22199698D01*
X35878931Y-22190188D01*
X35904868Y-22166311D01*
X35933385Y-22153802D01*
X35947392Y-22144443D01*
X35960805Y-22141775D01*
X35983215Y-22131945D01*
X36049704Y-22123657D01*
X36678299Y-22123657D01*
X36768883Y-22138773D01*
X36768883Y-22138773D01*
G37*
G36*
X28821040Y-21947040D02*
G01*
X28822999Y-21956890D01*
X28822999Y-23437190D01*
X28821040Y-23447040D01*
X28811190Y-23448999D01*
X27330890Y-23448999D01*
X27321039Y-23447040D01*
X27321040Y-23447040D01*
X27319081Y-23437190D01*
X27319081Y-21956890D01*
X27321040Y-21947040D01*
X27330890Y-21945081D01*
X28811190Y-21945081D01*
X28821040Y-21947040D01*
X28821040Y-21947040D01*
G37*
G36*
X34121360Y-22324584D02*
G01*
X34126804Y-22327727D01*
X34130555Y-22328473D01*
X34146184Y-22338916D01*
X34193894Y-22366461D01*
X34202171Y-22376325D01*
X34209115Y-22380965D01*
X34221043Y-22398816D01*
X34244814Y-22427146D01*
X34248056Y-22439244D01*
X34261607Y-22459525D01*
X34280040Y-22552193D01*
X34280040Y-22558611D01*
X34281583Y-22564370D01*
X34281583Y-23110127D01*
X34265496Y-23201360D01*
X34262353Y-23206804D01*
X34261607Y-23210555D01*
X34251164Y-23226184D01*
X34223619Y-23273894D01*
X34213755Y-23282171D01*
X34209115Y-23289115D01*
X34191267Y-23301041D01*
X34162935Y-23324814D01*
X34150836Y-23328056D01*
X34130555Y-23341607D01*
X34037887Y-23360040D01*
X34031469Y-23360040D01*
X34025710Y-23361583D01*
X33579953Y-23361583D01*
X33488720Y-23345496D01*
X33483276Y-23342353D01*
X33479525Y-23341607D01*
X33463896Y-23331164D01*
X33416186Y-23303619D01*
X33407909Y-23293755D01*
X33400965Y-23289115D01*
X33389039Y-23271267D01*
X33365266Y-23242935D01*
X33362024Y-23230836D01*
X33348473Y-23210555D01*
X33330040Y-23117887D01*
X33330040Y-23111469D01*
X33328497Y-23105710D01*
X33328497Y-22559953D01*
X33344584Y-22468720D01*
X33347727Y-22463276D01*
X33348473Y-22459525D01*
X33358916Y-22443896D01*
X33386461Y-22396186D01*
X33396325Y-22387909D01*
X33400965Y-22380965D01*
X33418816Y-22369037D01*
X33447146Y-22345266D01*
X33459244Y-22342024D01*
X33479525Y-22328473D01*
X33572193Y-22310040D01*
X33578611Y-22310040D01*
X33584370Y-22308497D01*
X34030127Y-22308497D01*
X34121360Y-22324584D01*
X34121360Y-22324584D01*
G37*
G36*
X57495040Y-21555040D02*
G01*
X57496999Y-21564890D01*
X57496999Y-23245190D01*
X57495040Y-23255040D01*
X57485190Y-23256999D01*
X55804890Y-23256999D01*
X55795039Y-23255040D01*
X55795040Y-23255040D01*
X55793081Y-23245190D01*
X55793081Y-21564890D01*
X55795040Y-21555040D01*
X55804890Y-21553081D01*
X57485190Y-21553081D01*
X57495040Y-21555040D01*
X57495040Y-21555040D01*
G37*
G36*
X54226442Y-21570126D02*
G01*
X54365814Y-21591702D01*
X54371418Y-21594127D01*
X54380581Y-21595644D01*
X54453521Y-21629656D01*
X54521862Y-21659230D01*
X54531669Y-21666097D01*
X54547959Y-21673693D01*
X54607174Y-21718966D01*
X54663310Y-21758273D01*
X54675642Y-21771314D01*
X54694673Y-21785864D01*
X54738960Y-21838271D01*
X54781962Y-21883744D01*
X54794565Y-21904070D01*
X54813877Y-21926923D01*
X54843098Y-21982346D01*
X54872957Y-22030503D01*
X54883276Y-22058551D01*
X54900010Y-22090289D01*
X54915070Y-22144965D01*
X54932581Y-22192559D01*
X54937940Y-22227995D01*
X54949053Y-22268340D01*
X54951711Y-22319047D01*
X54958404Y-22363305D01*
X54956217Y-22405034D01*
X54958719Y-22452768D01*
X54951398Y-22496990D01*
X54949367Y-22535750D01*
X54937334Y-22581946D01*
X54928556Y-22634970D01*
X54914123Y-22671055D01*
X54905840Y-22702854D01*
X54882139Y-22751019D01*
X54859971Y-22806444D01*
X54841474Y-22833662D01*
X54829599Y-22857794D01*
X54793059Y-22904901D01*
X54756164Y-22959190D01*
X54736591Y-22977699D01*
X54723760Y-22994241D01*
X54673981Y-23036907D01*
X54621979Y-23086083D01*
X54604009Y-23096881D01*
X54592648Y-23106618D01*
X54530125Y-23141275D01*
X54463677Y-23181201D01*
X54449470Y-23185982D01*
X54441619Y-23190334D01*
X54367789Y-23213471D01*
X54288641Y-23240107D01*
X54279689Y-23241079D01*
X54276838Y-23241973D01*
X54194028Y-23250385D01*
X54151177Y-23255040D01*
X54074765Y-23255040D01*
X53983638Y-23239954D01*
X53844266Y-23218378D01*
X53838662Y-23215953D01*
X53829499Y-23214436D01*
X53756559Y-23180424D01*
X53688218Y-23150850D01*
X53678411Y-23143983D01*
X53662121Y-23136387D01*
X53602906Y-23091114D01*
X53546770Y-23051807D01*
X53534438Y-23038766D01*
X53515407Y-23024216D01*
X53471120Y-22971809D01*
X53428118Y-22926336D01*
X53415515Y-22906010D01*
X53396203Y-22883157D01*
X53366982Y-22827734D01*
X53337123Y-22779577D01*
X53326804Y-22751529D01*
X53310070Y-22719791D01*
X53295010Y-22665115D01*
X53277499Y-22617521D01*
X53272140Y-22582085D01*
X53261027Y-22541740D01*
X53258369Y-22491033D01*
X53251676Y-22446775D01*
X53253863Y-22405046D01*
X53251361Y-22357312D01*
X53258682Y-22313090D01*
X53260713Y-22274330D01*
X53272746Y-22228134D01*
X53281524Y-22175110D01*
X53295957Y-22139025D01*
X53304240Y-22107226D01*
X53327941Y-22059061D01*
X53350109Y-22003636D01*
X53368606Y-21976418D01*
X53380481Y-21952286D01*
X53417021Y-21905179D01*
X53453916Y-21850890D01*
X53473489Y-21832381D01*
X53486320Y-21815839D01*
X53536099Y-21773173D01*
X53588101Y-21723997D01*
X53606071Y-21713199D01*
X53617432Y-21703462D01*
X53679955Y-21668805D01*
X53746403Y-21628879D01*
X53760610Y-21624098D01*
X53768461Y-21619746D01*
X53842291Y-21596609D01*
X53921439Y-21569973D01*
X53930391Y-21569001D01*
X53933242Y-21568107D01*
X54016052Y-21559695D01*
X54058903Y-21555040D01*
X54135315Y-21555040D01*
X54226442Y-21570126D01*
X54226442Y-21570126D01*
G37*
M02*
