G04 #@! TF.GenerationSoftware,KiCad,Pcbnew,(5.99.0-97-g37fac7a8f)*
G04 #@! TF.CreationDate,2019-11-17T20:53:56+01:00*
G04 #@! TF.ProjectId,canbox,63616e62-6f78-42e6-9b69-6361645f7063,rev?*
G04 #@! TF.SameCoordinates,Original*
G04 #@! TF.FileFunction,Legend,Top*
G04 #@! TF.FilePolarity,Positive*
%FSLAX46Y46*%
G04 Gerber Fmt 4.6, Leading zero omitted, Abs format (unit mm)*
G04 Created by KiCad (PCBNEW (5.99.0-97-g37fac7a8f)) date 2019-11-17 20:53:56*
%MOMM*%
%LPD*%
G04 APERTURE LIST*
%ADD10C,0.300000*%
%ADD11C,0.120000*%
%ADD12C,0.150000*%
G04 APERTURE END LIST*
D10*
X77200754Y-24570754D02*
X77129325Y-24642182D01*
X76915040Y-24713611D01*
X76772182Y-24713611D01*
X76557897Y-24642182D01*
X76415040Y-24499325D01*
X76343611Y-24356468D01*
X76272182Y-24070754D01*
X76272182Y-23856468D01*
X76343611Y-23570754D01*
X76415040Y-23427897D01*
X76557897Y-23285040D01*
X76772182Y-23213611D01*
X76915040Y-23213611D01*
X77129325Y-23285040D01*
X77200754Y-23356468D01*
X77772182Y-24285040D02*
X78486468Y-24285040D01*
X77629325Y-24713611D02*
X78129325Y-23213611D01*
X78629325Y-24713611D01*
X79129325Y-24713611D02*
X79129325Y-23213611D01*
X79986468Y-24713611D01*
X79986468Y-23213611D01*
X81200754Y-23927897D02*
X81415040Y-23999325D01*
X81486468Y-24070754D01*
X81557897Y-24213611D01*
X81557897Y-24427897D01*
X81486468Y-24570754D01*
X81415040Y-24642182D01*
X81272182Y-24713611D01*
X80700754Y-24713611D01*
X80700754Y-23213611D01*
X81200754Y-23213611D01*
X81343611Y-23285040D01*
X81415040Y-23356468D01*
X81486468Y-23499325D01*
X81486468Y-23642182D01*
X81415040Y-23785040D01*
X81343611Y-23856468D01*
X81200754Y-23927897D01*
X80700754Y-23927897D01*
X82486468Y-23213611D02*
X82772182Y-23213611D01*
X82915040Y-23285040D01*
X83057897Y-23427897D01*
X83129325Y-23713611D01*
X83129325Y-24213611D01*
X83057897Y-24499325D01*
X82915040Y-24642182D01*
X82772182Y-24713611D01*
X82486468Y-24713611D01*
X82343611Y-24642182D01*
X82200754Y-24499325D01*
X82129325Y-24213611D01*
X82129325Y-23713611D01*
X82200754Y-23427897D01*
X82343611Y-23285040D01*
X82486468Y-23213611D01*
X83629325Y-23213611D02*
X84629325Y-24713611D01*
X84629325Y-23213611D02*
X83629325Y-24713611D01*
X88200754Y-24713611D02*
X87486468Y-24713611D01*
X87486468Y-23213611D01*
X88700754Y-24713611D02*
X88700754Y-23213611D01*
X89272182Y-23213611D01*
X89415040Y-23285040D01*
X89486468Y-23356468D01*
X89557897Y-23499325D01*
X89557897Y-23713611D01*
X89486468Y-23856468D01*
X89415040Y-23927897D01*
X89272182Y-23999325D01*
X88700754Y-23999325D01*
X91057897Y-24570754D02*
X90986468Y-24642182D01*
X90772182Y-24713611D01*
X90629325Y-24713611D01*
X90415040Y-24642182D01*
X90272182Y-24499325D01*
X90200754Y-24356468D01*
X90129325Y-24070754D01*
X90129325Y-23856468D01*
X90200754Y-23570754D01*
X90272182Y-23427897D01*
X90415040Y-23285040D01*
X90629325Y-23213611D01*
X90772182Y-23213611D01*
X90986468Y-23285040D01*
X91057897Y-23356468D01*
X92415040Y-23213611D02*
X91700754Y-23213611D01*
X91629325Y-23927897D01*
X91700754Y-23856468D01*
X91843611Y-23785040D01*
X92200754Y-23785040D01*
X92343611Y-23856468D01*
X92415040Y-23927897D01*
X92486468Y-24070754D01*
X92486468Y-24427897D01*
X92415040Y-24570754D01*
X92343611Y-24642182D01*
X92200754Y-24713611D01*
X91843611Y-24713611D01*
X91700754Y-24642182D01*
X91629325Y-24570754D01*
X93772182Y-23713611D02*
X93772182Y-24713611D01*
X93415040Y-23142182D02*
X93057897Y-24213611D01*
X93986468Y-24213611D01*
X95200754Y-23213611D02*
X94915040Y-23213611D01*
X94772182Y-23285040D01*
X94700754Y-23356468D01*
X94557897Y-23570754D01*
X94486468Y-23856468D01*
X94486468Y-24427897D01*
X94557897Y-24570754D01*
X94629325Y-24642182D01*
X94772182Y-24713611D01*
X95057897Y-24713611D01*
X95200754Y-24642182D01*
X95272182Y-24570754D01*
X95343611Y-24427897D01*
X95343611Y-24070754D01*
X95272182Y-23927897D01*
X95200754Y-23856468D01*
X95057897Y-23785040D01*
X94772182Y-23785040D01*
X94629325Y-23856468D01*
X94557897Y-23927897D01*
X94486468Y-24070754D01*
X96772182Y-24713611D02*
X95915040Y-24713611D01*
X96343611Y-24713611D02*
X96343611Y-23213611D01*
X96200754Y-23427897D01*
X96057897Y-23570754D01*
X95915040Y-23642182D01*
X98057897Y-23213611D02*
X97772182Y-23213611D01*
X97629325Y-23285040D01*
X97557897Y-23356468D01*
X97415040Y-23570754D01*
X97343611Y-23856468D01*
X97343611Y-24427897D01*
X97415040Y-24570754D01*
X97486468Y-24642182D01*
X97629325Y-24713611D01*
X97915040Y-24713611D01*
X98057897Y-24642182D01*
X98129325Y-24570754D01*
X98200754Y-24427897D01*
X98200754Y-24070754D01*
X98129325Y-23927897D01*
X98057897Y-23856468D01*
X97915040Y-23785040D01*
X97629325Y-23785040D01*
X97486468Y-23856468D01*
X97415040Y-23927897D01*
X97343611Y-24070754D01*
X99772182Y-23213611D02*
X100272182Y-24713611D01*
X100772182Y-23213611D01*
X101915040Y-23713611D02*
X101915040Y-24713611D01*
X101557897Y-23142182D02*
X101200754Y-24213611D01*
X102129325Y-24213611D01*
X114953611Y-68933611D02*
X116025040Y-68933611D01*
X116239325Y-69005040D01*
X116382182Y-69147897D01*
X116453611Y-69362182D01*
X116453611Y-69505040D01*
X116453611Y-67505040D02*
X116453611Y-68219325D01*
X114953611Y-68219325D01*
X116310754Y-66147897D02*
X116382182Y-66219325D01*
X116453611Y-66433611D01*
X116453611Y-66576468D01*
X116382182Y-66790754D01*
X116239325Y-66933611D01*
X116096468Y-67005040D01*
X115810754Y-67076468D01*
X115596468Y-67076468D01*
X115310754Y-67005040D01*
X115167897Y-66933611D01*
X115025040Y-66790754D01*
X114953611Y-66576468D01*
X114953611Y-66433611D01*
X115025040Y-66219325D01*
X115096468Y-66147897D01*
X114953611Y-65076468D02*
X116025040Y-65076468D01*
X116239325Y-65147897D01*
X116382182Y-65290754D01*
X116453611Y-65505040D01*
X116453611Y-65647897D01*
X116453611Y-63647897D02*
X116453611Y-64362182D01*
X114953611Y-64362182D01*
X116310754Y-62290754D02*
X116382182Y-62362182D01*
X116453611Y-62576468D01*
X116453611Y-62719325D01*
X116382182Y-62933611D01*
X116239325Y-63076468D01*
X116096468Y-63147897D01*
X115810754Y-63219325D01*
X115596468Y-63219325D01*
X115310754Y-63147897D01*
X115167897Y-63076468D01*
X115025040Y-62933611D01*
X114953611Y-62719325D01*
X114953611Y-62576468D01*
X115025040Y-62362182D01*
X115096468Y-62290754D01*
X114953611Y-61219325D02*
X116025040Y-61219325D01*
X116239325Y-61290754D01*
X116382182Y-61433611D01*
X116453611Y-61647897D01*
X116453611Y-61790754D01*
X116453611Y-59790754D02*
X116453611Y-60505040D01*
X114953611Y-60505040D01*
X116310754Y-58433611D02*
X116382182Y-58505040D01*
X116453611Y-58719325D01*
X116453611Y-58862182D01*
X116382182Y-59076468D01*
X116239325Y-59219325D01*
X116096468Y-59290754D01*
X115810754Y-59362182D01*
X115596468Y-59362182D01*
X115310754Y-59290754D01*
X115167897Y-59219325D01*
X115025040Y-59076468D01*
X114953611Y-58862182D01*
X114953611Y-58719325D01*
X115025040Y-58505040D01*
X115096468Y-58433611D01*
X114953611Y-57362182D02*
X116025040Y-57362182D01*
X116239325Y-57433611D01*
X116382182Y-57576468D01*
X116453611Y-57790754D01*
X116453611Y-57933611D01*
X116453611Y-55933611D02*
X116453611Y-56647897D01*
X114953611Y-56647897D01*
X116310754Y-54576468D02*
X116382182Y-54647897D01*
X116453611Y-54862182D01*
X116453611Y-55005040D01*
X116382182Y-55219325D01*
X116239325Y-55362182D01*
X116096468Y-55433611D01*
X115810754Y-55505040D01*
X115596468Y-55505040D01*
X115310754Y-55433611D01*
X115167897Y-55362182D01*
X115025040Y-55219325D01*
X114953611Y-55005040D01*
X114953611Y-54862182D01*
X115025040Y-54647897D01*
X115096468Y-54576468D01*
D11*
X53208788Y-35755040D02*
X53731292Y-35755040D01*
X53208788Y-37175040D02*
X53731292Y-37175040D01*
X53223788Y-37735040D02*
X53746292Y-37735040D01*
X53223788Y-39155040D02*
X53746292Y-39155040D01*
X53208788Y-33775040D02*
X53731292Y-33775040D01*
X53208788Y-35195040D02*
X53731292Y-35195040D01*
X92095040Y-85745040D02*
X92095040Y-87015040D01*
X98445040Y-84195040D02*
X98445040Y-88285040D01*
X98445040Y-84195040D02*
X95905040Y-84195040D01*
X88285040Y-84195040D02*
X88285040Y-88285040D01*
X90825040Y-84195040D02*
X88285040Y-84195040D01*
X103635040Y-85665040D02*
X103635040Y-86935040D01*
X109985040Y-84115040D02*
X109985040Y-88205040D01*
X109985040Y-84115040D02*
X107445040Y-84115040D01*
X99825040Y-84115040D02*
X99825040Y-88205040D01*
X102365040Y-84115040D02*
X99825040Y-84115040D01*
X50210658Y-37544459D02*
X50210658Y-38194459D01*
X50210658Y-38194459D02*
X49560658Y-38194459D01*
X43910658Y-37544459D02*
X43910658Y-38194459D01*
X43910658Y-38194459D02*
X44560658Y-38194459D01*
X43910658Y-32544459D02*
X43910658Y-31894459D01*
X43910658Y-31894459D02*
X44560658Y-31894459D01*
X50210658Y-32544459D02*
X50210658Y-31744459D01*
X57010040Y-42195040D02*
X57010040Y-41392570D01*
X57010040Y-40777510D02*
X57010040Y-39975040D01*
X48185040Y-42195040D02*
X57010040Y-42195040D01*
X48185040Y-39975040D02*
X57010040Y-39975040D01*
X48185040Y-42195040D02*
X48185040Y-41648511D01*
X48185040Y-40521569D02*
X48185040Y-39975040D01*
X47425040Y-42195040D02*
X46665040Y-42195040D01*
X46665040Y-42195040D02*
X46665040Y-41085040D01*
X58065040Y-44045040D02*
X60725040Y-44045040D01*
X58065040Y-41445040D02*
X58065040Y-44045040D01*
X60725040Y-41445040D02*
X60725040Y-44045040D01*
X58065040Y-41445040D02*
X60725040Y-41445040D01*
X58065040Y-40175040D02*
X58065040Y-38845040D01*
X58065040Y-38845040D02*
X59395040Y-38845040D01*
X29256859Y-82256331D02*
X29256859Y-84916331D01*
X31856859Y-82256331D02*
X29256859Y-82256331D01*
X31856859Y-84916331D02*
X29256859Y-84916331D01*
X31856859Y-82256331D02*
X31856859Y-84916331D01*
X33126859Y-82256331D02*
X34456859Y-82256331D01*
X34456859Y-82256331D02*
X34456859Y-83586331D01*
X70305658Y-85304459D02*
X74190658Y-85304459D01*
X74190658Y-85304459D02*
X74190658Y-82134459D01*
X74190658Y-82134459D02*
X70305658Y-82134459D01*
X114426859Y-36721331D02*
X110541859Y-36721331D01*
X110541859Y-36721331D02*
X110541859Y-39891331D01*
X110541859Y-39891331D02*
X114426859Y-39891331D01*
X114455338Y-33453479D02*
X110570338Y-33453479D01*
X110570338Y-33453479D02*
X110570338Y-36623479D01*
X110570338Y-36623479D02*
X114455338Y-36623479D01*
X114466859Y-30211331D02*
X110581859Y-30211331D01*
X110581859Y-30211331D02*
X110581859Y-33381331D01*
X110581859Y-33381331D02*
X114466859Y-33381331D01*
X114466859Y-26981331D02*
X110581859Y-26981331D01*
X110581859Y-26981331D02*
X110581859Y-30151331D01*
X110581859Y-30151331D02*
X114466859Y-30151331D01*
X56625658Y-25294459D02*
X52740658Y-25294459D01*
X52740658Y-25294459D02*
X52740658Y-28464459D01*
X52740658Y-28464459D02*
X56625658Y-28464459D01*
X60415040Y-32240040D02*
X56530040Y-32240040D01*
X56530040Y-32240040D02*
X56530040Y-35410040D01*
X56530040Y-35410040D02*
X60415040Y-35410040D01*
X72747738Y-73927079D02*
X82647738Y-73927079D01*
X72747738Y-80427079D02*
X82647738Y-80427079D01*
X72747738Y-80427079D02*
X72747738Y-73927079D01*
X30375658Y-41369459D02*
X27925658Y-41369459D01*
X28575658Y-44589459D02*
X30375658Y-44589459D01*
D12*
X40440658Y-48414459D02*
X40440658Y-49064459D01*
X54690658Y-48414459D02*
X54690658Y-49174459D01*
X54690658Y-62664459D02*
X54690658Y-61904459D01*
X40440658Y-62664459D02*
X40440658Y-61904459D01*
X40440658Y-48414459D02*
X41200658Y-48414459D01*
X40440658Y-62664459D02*
X41200658Y-62664459D01*
X54690658Y-62664459D02*
X53930658Y-62664459D01*
X54690658Y-48414459D02*
X53930658Y-48414459D01*
X40440658Y-49064459D02*
X38915658Y-49064459D01*
D11*
X63161578Y-38929799D02*
X63161578Y-37029799D01*
X65061578Y-38929799D02*
X63161578Y-38929799D01*
X65061578Y-37029799D02*
X65061578Y-38929799D01*
X63161578Y-37029799D02*
X65061578Y-37029799D01*
X52087178Y-32137839D02*
X52087178Y-30237839D01*
X53987178Y-32137839D02*
X52087178Y-32137839D01*
X53987178Y-30237839D02*
X53987178Y-32137839D01*
X52087178Y-30237839D02*
X53987178Y-30237839D01*
X49475658Y-23479459D02*
X44075658Y-23479459D01*
X49475658Y-27979459D02*
X49475658Y-23479459D01*
X31531358Y-65290059D02*
X36931358Y-65290059D01*
X31531358Y-60790059D02*
X31531358Y-65290059D01*
X67366110Y-83035519D02*
X66843606Y-83035519D01*
X67366110Y-84455519D02*
X66843606Y-84455519D01*
X62803788Y-34585040D02*
X63326292Y-34585040D01*
X62803788Y-33165040D02*
X63326292Y-33165040D01*
X58989406Y-27589459D02*
X59511910Y-27589459D01*
X58989406Y-26169459D02*
X59511910Y-26169459D01*
X58328788Y-31815040D02*
X58851292Y-31815040D01*
X58328788Y-30395040D02*
X58851292Y-30395040D01*
X99495858Y-72245159D02*
X102295858Y-72245159D01*
X102295858Y-72245159D02*
X102295858Y-74245159D01*
X102295858Y-74245159D02*
X99495858Y-74245159D01*
X99495858Y-74245159D02*
X99495858Y-72245159D01*
X64825658Y-32279459D02*
X62025658Y-32279459D01*
X62025658Y-32279459D02*
X62025658Y-30279459D01*
X62025658Y-30279459D02*
X64825658Y-30279459D01*
X64825658Y-30279459D02*
X64825658Y-32279459D01*
X43838788Y-44575040D02*
X44361292Y-44575040D01*
X43838788Y-43155040D02*
X44361292Y-43155040D01*
X37539406Y-27989459D02*
X38061910Y-27989459D01*
X37539406Y-26569459D02*
X38061910Y-26569459D01*
X44128788Y-42275040D02*
X44651292Y-42275040D01*
X44128788Y-40855040D02*
X44651292Y-40855040D01*
X40759830Y-40952799D02*
X40237326Y-40952799D01*
X40759830Y-42372799D02*
X40237326Y-42372799D01*
X93495858Y-72245159D02*
X96295858Y-72245159D01*
X96295858Y-72245159D02*
X96295858Y-74245159D01*
X96295858Y-74245159D02*
X93495858Y-74245159D01*
X93495858Y-74245159D02*
X93495858Y-72245159D01*
X93185858Y-53758907D02*
X93185858Y-54281411D01*
X94605858Y-53758907D02*
X94605858Y-54281411D01*
X28259178Y-72244479D02*
X28259178Y-72309479D01*
X24729178Y-72244479D02*
X24729178Y-72309479D01*
X28259178Y-65839479D02*
X28259178Y-65904479D01*
X24729178Y-65839479D02*
X24729178Y-65904479D01*
X23404178Y-65904479D02*
X24729178Y-65904479D01*
X24729178Y-72309479D02*
X28259178Y-72309479D01*
X24729178Y-65839479D02*
X28259178Y-65839479D01*
X53315658Y-68218207D02*
X53315658Y-68740711D01*
X54735658Y-68218207D02*
X54735658Y-68740711D01*
X56764406Y-70589459D02*
X57286910Y-70589459D01*
X56764406Y-69169459D02*
X57286910Y-69169459D01*
X74679218Y-63342119D02*
X74679218Y-58957119D01*
X71659218Y-63342119D02*
X74679218Y-63342119D01*
X71659218Y-58957119D02*
X71659218Y-63342119D01*
D12*
X68806058Y-72309759D02*
X68806058Y-70909759D01*
X63706058Y-72309759D02*
X63706058Y-76459759D01*
X68856058Y-72309759D02*
X68856058Y-76459759D01*
X63706058Y-72309759D02*
X63851058Y-72309759D01*
X63706058Y-76459759D02*
X63851058Y-76459759D01*
X68856058Y-76459759D02*
X68711058Y-76459759D01*
X68856058Y-72309759D02*
X68806058Y-72309759D01*
D11*
X39045766Y-75849239D02*
X39568270Y-75849239D01*
X39045766Y-74429239D02*
X39568270Y-74429239D01*
X36771292Y-46875040D02*
X36248788Y-46875040D01*
X36771292Y-48295040D02*
X36248788Y-48295040D01*
X104817853Y-57050119D02*
X104384840Y-57300119D01*
X104384840Y-56800119D02*
X104817853Y-57050119D01*
X104384840Y-57300119D02*
X104384840Y-56800119D01*
X105279178Y-47105119D02*
X119819178Y-47105119D01*
X105279178Y-78075119D02*
X105279178Y-47105119D01*
X119819178Y-78075119D02*
X105279178Y-78075119D01*
X20965658Y-31351259D02*
X20965658Y-31851259D01*
X21705658Y-31351259D02*
X20965658Y-31351259D01*
X27525658Y-37251259D02*
X21205658Y-37251259D01*
X27525658Y-31591259D02*
X21205658Y-31591259D01*
X21205658Y-36481259D02*
X21205658Y-37251259D01*
X21205658Y-33941259D02*
X21205658Y-34901259D01*
X21205658Y-31591259D02*
X21205658Y-32361259D01*
X27525658Y-31591259D02*
X27525658Y-37251259D01*
X27065658Y-31591259D02*
X27065658Y-37251259D01*
X21765658Y-36481259D02*
X21765658Y-37251259D01*
X21765658Y-33941259D02*
X21765658Y-34901259D01*
X21765658Y-31591259D02*
X21765658Y-32361259D01*
X114626859Y-46346331D02*
X114626859Y-45846331D01*
X113886859Y-46346331D02*
X114626859Y-46346331D01*
X108066859Y-40446331D02*
X114386859Y-40446331D01*
X108066859Y-46106331D02*
X114386859Y-46106331D01*
X114386859Y-41216331D02*
X114386859Y-40446331D01*
X114386859Y-43756331D02*
X114386859Y-42796331D01*
X114386859Y-46106331D02*
X114386859Y-45336331D01*
X108066859Y-46106331D02*
X108066859Y-40446331D01*
X108526859Y-46106331D02*
X108526859Y-40446331D01*
X113826859Y-41216331D02*
X113826859Y-40446331D01*
X113826859Y-43756331D02*
X113826859Y-42796331D01*
X113826859Y-46106331D02*
X113826859Y-45336331D01*
X34421292Y-50955040D02*
X33898788Y-50955040D01*
X34421292Y-52375040D02*
X33898788Y-52375040D01*
X66156058Y-67448507D02*
X66156058Y-67971011D01*
X67576058Y-67448507D02*
X67576058Y-67971011D01*
X68556058Y-67448507D02*
X68556058Y-67971011D01*
X69976058Y-67448507D02*
X69976058Y-67971011D01*
D12*
X81193258Y-48713359D02*
X79818258Y-48713359D01*
X81193258Y-58838359D02*
X85343258Y-58838359D01*
X81193258Y-48688359D02*
X85343258Y-48688359D01*
X81193258Y-58838359D02*
X81193258Y-58733359D01*
X85343258Y-58838359D02*
X85343258Y-58733359D01*
X85343258Y-48688359D02*
X85343258Y-48793359D01*
X81193258Y-48688359D02*
X81193258Y-48713359D01*
D11*
X40571818Y-86188039D02*
X40571818Y-84858039D01*
X41901818Y-86188039D02*
X40571818Y-86188039D01*
X43171818Y-86188039D02*
X43171818Y-83528039D01*
X43171818Y-83528039D02*
X61011818Y-83528039D01*
X43171818Y-86188039D02*
X61011818Y-86188039D01*
X61011818Y-86188039D02*
X61011818Y-83528039D01*
D12*
X100620858Y-51970159D02*
X100620858Y-50570159D01*
X95520858Y-51970159D02*
X95520858Y-56120159D01*
X100670858Y-51970159D02*
X100670858Y-56120159D01*
X95520858Y-51970159D02*
X95665858Y-51970159D01*
X95520858Y-56120159D02*
X95665858Y-56120159D01*
X100670858Y-56120159D02*
X100525858Y-56120159D01*
X100670858Y-51970159D02*
X100620858Y-51970159D01*
D11*
X25442578Y-77542879D02*
X25442578Y-75642879D01*
X27342578Y-77542879D02*
X25442578Y-77542879D01*
X27342578Y-75642879D02*
X27342578Y-77542879D01*
X25442578Y-75642879D02*
X27342578Y-75642879D01*
X42323418Y-76039199D02*
X42323418Y-74139199D01*
X44223418Y-76039199D02*
X42323418Y-76039199D01*
X44223418Y-74139199D02*
X44223418Y-76039199D01*
X42323418Y-74139199D02*
X44223418Y-74139199D01*
X99185858Y-68958907D02*
X99185858Y-69481411D01*
X100605858Y-68958907D02*
X100605858Y-69481411D01*
X95785858Y-68958907D02*
X95785858Y-69481411D01*
X97205858Y-68958907D02*
X97205858Y-69481411D01*
X108194086Y-38948479D02*
X108716590Y-38948479D01*
X108194086Y-37528479D02*
X108716590Y-37528479D01*
X108169086Y-35748479D02*
X108691590Y-35748479D01*
X108169086Y-34328479D02*
X108691590Y-34328479D01*
X61651058Y-72348507D02*
X61651058Y-72871011D01*
X63071058Y-72348507D02*
X63071058Y-72871011D01*
X61671058Y-68263507D02*
X61671058Y-68786011D01*
X63091058Y-68263507D02*
X63091058Y-68786011D01*
X108194086Y-32748479D02*
X108716590Y-32748479D01*
X108194086Y-31328479D02*
X108716590Y-31328479D01*
X108169086Y-29948479D02*
X108691590Y-29948479D01*
X108169086Y-28528479D02*
X108691590Y-28528479D01*
X64582310Y-79504759D02*
X64059806Y-79504759D01*
X64582310Y-80924759D02*
X64059806Y-80924759D01*
X93385858Y-68983907D02*
X93385858Y-69506411D01*
X94805858Y-68983907D02*
X94805858Y-69506411D01*
X101585858Y-68958907D02*
X101585858Y-69481411D01*
X103005858Y-68958907D02*
X103005858Y-69481411D01*
X29779190Y-45997239D02*
X29256686Y-45997239D01*
X29779190Y-47417239D02*
X29256686Y-47417239D01*
X93285758Y-62279407D02*
X93285758Y-62801911D01*
X94705758Y-62279407D02*
X94705758Y-62801911D01*
X101029138Y-62784427D02*
X101029138Y-63306931D01*
X102449138Y-62784427D02*
X102449138Y-63306931D01*
X32061910Y-25169459D02*
X31539406Y-25169459D01*
X32061910Y-26589459D02*
X31539406Y-26589459D01*
X31764406Y-31389459D02*
X32286910Y-31389459D01*
X31764406Y-29969459D02*
X32286910Y-29969459D01*
X31739406Y-38989459D02*
X32261910Y-38989459D01*
X31739406Y-37569459D02*
X32261910Y-37569459D01*
X58891292Y-35885040D02*
X58368788Y-35885040D01*
X58891292Y-37305040D02*
X58368788Y-37305040D01*
X31260990Y-79743239D02*
X30738486Y-79743239D01*
X31260990Y-81163239D02*
X30738486Y-81163239D01*
X49105040Y-44831292D02*
X49105040Y-44308788D01*
X47685040Y-44831292D02*
X47685040Y-44308788D01*
X40263671Y-44428319D02*
X40606205Y-44428319D01*
X40263671Y-43408319D02*
X40606205Y-43408319D01*
X34440658Y-25508192D02*
X34440658Y-25850726D01*
X35460658Y-25508192D02*
X35460658Y-25850726D01*
X24536859Y-54341331D02*
X23266859Y-54341331D01*
X26086859Y-60691331D02*
X21996859Y-60691331D01*
X26086859Y-60691331D02*
X26086859Y-58151331D01*
X26086859Y-50531331D02*
X21996859Y-50531331D01*
X26086859Y-53071331D02*
X26086859Y-50531331D01*
X41890458Y-79237811D02*
X41890458Y-78715307D01*
X40470458Y-79237811D02*
X40470458Y-78715307D01*
X66807858Y-61000611D02*
X66807858Y-60478107D01*
X65387858Y-61000611D02*
X65387858Y-60478107D01*
X37478338Y-67216947D02*
X37478338Y-67739451D01*
X38898338Y-67216947D02*
X38898338Y-67739451D01*
X65376058Y-67971011D02*
X65376058Y-67448507D01*
X63956058Y-67971011D02*
X63956058Y-67448507D01*
X83266510Y-61023879D02*
X82744006Y-61023879D01*
X83266510Y-62443879D02*
X82744006Y-62443879D01*
X70218938Y-74072187D02*
X70218938Y-74594691D01*
X71638938Y-74072187D02*
X71638938Y-74594691D01*
X98605858Y-73506411D02*
X98605858Y-72983907D01*
X97185858Y-73506411D02*
X97185858Y-72983907D01*
X67944806Y-80914759D02*
X68467310Y-80914759D01*
X67944806Y-79494759D02*
X68467310Y-79494759D01*
X37442190Y-79844839D02*
X36919686Y-79844839D01*
X37442190Y-81264839D02*
X36919686Y-81264839D01*
X31564406Y-28789459D02*
X32086910Y-28789459D01*
X31564406Y-27369459D02*
X32086910Y-27369459D01*
X32261910Y-35369459D02*
X31739406Y-35369459D01*
X32261910Y-36789459D02*
X31739406Y-36789459D01*
X31739406Y-33589459D02*
X32261910Y-33589459D01*
X31739406Y-32169459D02*
X32261910Y-32169459D01*
X43135658Y-26140711D02*
X43135658Y-25618207D01*
X41715658Y-26140711D02*
X41715658Y-25618207D01*
X50515658Y-25393207D02*
X50515658Y-25915711D01*
X51935658Y-25393207D02*
X51935658Y-25915711D01*
X42910658Y-31940711D02*
X42910658Y-31418207D01*
X41490658Y-31940711D02*
X41490658Y-31418207D01*
X41461910Y-38769459D02*
X40939406Y-38769459D01*
X41461910Y-40189459D02*
X40939406Y-40189459D01*
X37564406Y-30164459D02*
X38086910Y-30164459D01*
X37564406Y-28744459D02*
X38086910Y-28744459D01*
X37589406Y-25589459D02*
X38111910Y-25589459D01*
X37589406Y-24169459D02*
X38111910Y-24169459D01*
X59339406Y-60789459D02*
X59861910Y-60789459D01*
X59339406Y-59369459D02*
X59861910Y-59369459D01*
X97834606Y-49555159D02*
X98357110Y-49555159D01*
X97834606Y-48135159D02*
X98357110Y-48135159D01*
X44464498Y-68660827D02*
X44464498Y-69183331D01*
X45884498Y-68660827D02*
X45884498Y-69183331D01*
X54768788Y-44365040D02*
X55291292Y-44365040D01*
X54768788Y-42945040D02*
X55291292Y-42945040D01*
X56854406Y-67139459D02*
X57376910Y-67139459D01*
X56854406Y-65719459D02*
X57376910Y-65719459D01*
X33902566Y-67503559D02*
X34425070Y-67503559D01*
X33902566Y-66083559D02*
X34425070Y-66083559D01*
X42118510Y-70203439D02*
X41596006Y-70203439D01*
X42118510Y-71623439D02*
X41596006Y-71623439D01*
X34818550Y-58255279D02*
X34296046Y-58255279D01*
X34818550Y-59675279D02*
X34296046Y-59675279D01*
X38055058Y-44574651D02*
X38055058Y-44052147D01*
X36635058Y-44574651D02*
X36635058Y-44052147D01*
X42225190Y-67952999D02*
X41702686Y-67952999D01*
X42225190Y-69372999D02*
X41702686Y-69372999D01*
X58874406Y-48099459D02*
X59396910Y-48099459D01*
X58874406Y-46679459D02*
X59396910Y-46679459D01*
X37785658Y-52830711D02*
X37785658Y-52308207D01*
X36365658Y-52830711D02*
X36365658Y-52308207D01*
X74897858Y-71857119D02*
X82147858Y-71857119D01*
X82147858Y-65357119D02*
X74897858Y-65357119D01*
D12*
X52827182Y-35267420D02*
X52493849Y-34791230D01*
X52255754Y-35267420D02*
X52255754Y-34267420D01*
X52636706Y-34267420D01*
X52731944Y-34315040D01*
X52779563Y-34362659D01*
X52827182Y-34457897D01*
X52827182Y-34600754D01*
X52779563Y-34695992D01*
X52731944Y-34743611D01*
X52636706Y-34791230D01*
X52255754Y-34791230D01*
X53160516Y-34267420D02*
X53779563Y-34267420D01*
X53446230Y-34648373D01*
X53589087Y-34648373D01*
X53684325Y-34695992D01*
X53731944Y-34743611D01*
X53779563Y-34838849D01*
X53779563Y-35076944D01*
X53731944Y-35172182D01*
X53684325Y-35219801D01*
X53589087Y-35267420D01*
X53303373Y-35267420D01*
X53208135Y-35219801D01*
X53160516Y-35172182D01*
X54350992Y-34695992D02*
X54255754Y-34648373D01*
X54208135Y-34600754D01*
X54160516Y-34505516D01*
X54160516Y-34457897D01*
X54208135Y-34362659D01*
X54255754Y-34315040D01*
X54350992Y-34267420D01*
X54541468Y-34267420D01*
X54636706Y-34315040D01*
X54684325Y-34362659D01*
X54731944Y-34457897D01*
X54731944Y-34505516D01*
X54684325Y-34600754D01*
X54636706Y-34648373D01*
X54541468Y-34695992D01*
X54350992Y-34695992D01*
X54255754Y-34743611D01*
X54208135Y-34791230D01*
X54160516Y-34886468D01*
X54160516Y-35076944D01*
X54208135Y-35172182D01*
X54255754Y-35219801D01*
X54350992Y-35267420D01*
X54541468Y-35267420D01*
X54636706Y-35219801D01*
X54684325Y-35172182D01*
X54731944Y-35076944D01*
X54731944Y-34886468D01*
X54684325Y-34791230D01*
X54636706Y-34743611D01*
X54541468Y-34695992D01*
X52842182Y-37247420D02*
X52508849Y-36771230D01*
X52270754Y-37247420D02*
X52270754Y-36247420D01*
X52651706Y-36247420D01*
X52746944Y-36295040D01*
X52794563Y-36342659D01*
X52842182Y-36437897D01*
X52842182Y-36580754D01*
X52794563Y-36675992D01*
X52746944Y-36723611D01*
X52651706Y-36771230D01*
X52270754Y-36771230D01*
X53175516Y-36247420D02*
X53794563Y-36247420D01*
X53461230Y-36628373D01*
X53604087Y-36628373D01*
X53699325Y-36675992D01*
X53746944Y-36723611D01*
X53794563Y-36818849D01*
X53794563Y-37056944D01*
X53746944Y-37152182D01*
X53699325Y-37199801D01*
X53604087Y-37247420D01*
X53318373Y-37247420D01*
X53223135Y-37199801D01*
X53175516Y-37152182D01*
X54127897Y-36247420D02*
X54794563Y-36247420D01*
X54365992Y-37247420D01*
X52827182Y-33287420D02*
X52493849Y-32811230D01*
X52255754Y-33287420D02*
X52255754Y-32287420D01*
X52636706Y-32287420D01*
X52731944Y-32335040D01*
X52779563Y-32382659D01*
X52827182Y-32477897D01*
X52827182Y-32620754D01*
X52779563Y-32715992D01*
X52731944Y-32763611D01*
X52636706Y-32811230D01*
X52255754Y-32811230D01*
X53160516Y-32287420D02*
X53779563Y-32287420D01*
X53446230Y-32668373D01*
X53589087Y-32668373D01*
X53684325Y-32715992D01*
X53731944Y-32763611D01*
X53779563Y-32858849D01*
X53779563Y-33096944D01*
X53731944Y-33192182D01*
X53684325Y-33239801D01*
X53589087Y-33287420D01*
X53303373Y-33287420D01*
X53208135Y-33239801D01*
X53160516Y-33192182D01*
X54636706Y-32287420D02*
X54446230Y-32287420D01*
X54350992Y-32335040D01*
X54303373Y-32382659D01*
X54208135Y-32525516D01*
X54160516Y-32715992D01*
X54160516Y-33096944D01*
X54208135Y-33192182D01*
X54255754Y-33239801D01*
X54350992Y-33287420D01*
X54541468Y-33287420D01*
X54636706Y-33239801D01*
X54684325Y-33192182D01*
X54731944Y-33096944D01*
X54731944Y-32858849D01*
X54684325Y-32763611D01*
X54636706Y-32715992D01*
X54541468Y-32668373D01*
X54350992Y-32668373D01*
X54255754Y-32715992D01*
X54208135Y-32763611D01*
X54160516Y-32858849D01*
X90015516Y-80117420D02*
X90015516Y-80831706D01*
X89967897Y-80974563D01*
X89872659Y-81069801D01*
X89729801Y-81117420D01*
X89634563Y-81117420D01*
X91015516Y-81117420D02*
X90444087Y-81117420D01*
X90729801Y-81117420D02*
X90729801Y-80117420D01*
X90634563Y-80260278D01*
X90539325Y-80355516D01*
X90444087Y-80403135D01*
X91967897Y-81117420D02*
X91396468Y-81117420D01*
X91682182Y-81117420D02*
X91682182Y-80117420D01*
X91586944Y-80260278D01*
X91491706Y-80355516D01*
X91396468Y-80403135D01*
X102031706Y-80037420D02*
X102031706Y-80751706D01*
X101984087Y-80894563D01*
X101888849Y-80989801D01*
X101745992Y-81037420D01*
X101650754Y-81037420D01*
X102555516Y-81037420D02*
X102745992Y-81037420D01*
X102841230Y-80989801D01*
X102888849Y-80942182D01*
X102984087Y-80799325D01*
X103031706Y-80608849D01*
X103031706Y-80227897D01*
X102984087Y-80132659D01*
X102936468Y-80085040D01*
X102841230Y-80037420D01*
X102650754Y-80037420D01*
X102555516Y-80085040D01*
X102507897Y-80132659D01*
X102460278Y-80227897D01*
X102460278Y-80465992D01*
X102507897Y-80561230D01*
X102555516Y-80608849D01*
X102650754Y-80656468D01*
X102841230Y-80656468D01*
X102936468Y-80608849D01*
X102984087Y-80561230D01*
X103031706Y-80465992D01*
X51063038Y-35806363D02*
X51872562Y-35806363D01*
X51967800Y-35758744D01*
X52015419Y-35711125D01*
X52063038Y-35615887D01*
X52063038Y-35425411D01*
X52015419Y-35330173D01*
X51967800Y-35282554D01*
X51872562Y-35234935D01*
X51063038Y-35234935D01*
X51158277Y-34806363D02*
X51110658Y-34758744D01*
X51063038Y-34663506D01*
X51063038Y-34425411D01*
X51110658Y-34330173D01*
X51158277Y-34282554D01*
X51253515Y-34234935D01*
X51348753Y-34234935D01*
X51491610Y-34282554D01*
X52063038Y-34853982D01*
X52063038Y-34234935D01*
X52791706Y-38767420D02*
X52791706Y-39481706D01*
X52744087Y-39624563D01*
X52648849Y-39719801D01*
X52505992Y-39767420D01*
X52410754Y-39767420D01*
X53696468Y-38767420D02*
X53505992Y-38767420D01*
X53410754Y-38815040D01*
X53363135Y-38862659D01*
X53267897Y-39005516D01*
X53220278Y-39195992D01*
X53220278Y-39576944D01*
X53267897Y-39672182D01*
X53315516Y-39719801D01*
X53410754Y-39767420D01*
X53601230Y-39767420D01*
X53696468Y-39719801D01*
X53744087Y-39672182D01*
X53791706Y-39576944D01*
X53791706Y-39338849D01*
X53744087Y-39243611D01*
X53696468Y-39195992D01*
X53601230Y-39148373D01*
X53410754Y-39148373D01*
X53315516Y-39195992D01*
X53267897Y-39243611D01*
X53220278Y-39338849D01*
X58561706Y-37297420D02*
X58561706Y-38011706D01*
X58514087Y-38154563D01*
X58418849Y-38249801D01*
X58275992Y-38297420D01*
X58180754Y-38297420D01*
X59037897Y-38297420D02*
X59037897Y-37297420D01*
X59418849Y-37297420D01*
X59514087Y-37345040D01*
X59561706Y-37392659D01*
X59609325Y-37487897D01*
X59609325Y-37630754D01*
X59561706Y-37725992D01*
X59514087Y-37773611D01*
X59418849Y-37821230D01*
X59037897Y-37821230D01*
X59942659Y-37297420D02*
X60609325Y-37297420D01*
X60180754Y-38297420D01*
X34909239Y-84419664D02*
X35623525Y-84419664D01*
X35766382Y-84467283D01*
X35861620Y-84562521D01*
X35909239Y-84705378D01*
X35909239Y-84800616D01*
X35909239Y-83943473D02*
X34909239Y-83943473D01*
X34909239Y-83562521D01*
X34956859Y-83467283D01*
X35004478Y-83419664D01*
X35099716Y-83372045D01*
X35242573Y-83372045D01*
X35337811Y-83419664D01*
X35385430Y-83467283D01*
X35433049Y-83562521D01*
X35433049Y-83943473D01*
X35909239Y-82419664D02*
X35909239Y-82991092D01*
X35909239Y-82705378D02*
X34909239Y-82705378D01*
X35052097Y-82800616D01*
X35147335Y-82895854D01*
X35194954Y-82991092D01*
X70691372Y-86451839D02*
X70691372Y-85451839D01*
X70929467Y-85451839D01*
X71072324Y-85499459D01*
X71167562Y-85594697D01*
X71215181Y-85689935D01*
X71262800Y-85880411D01*
X71262800Y-86023268D01*
X71215181Y-86213744D01*
X71167562Y-86308982D01*
X71072324Y-86404220D01*
X70929467Y-86451839D01*
X70691372Y-86451839D01*
X72215181Y-86451839D02*
X71643753Y-86451839D01*
X71929467Y-86451839D02*
X71929467Y-85451839D01*
X71834229Y-85594697D01*
X71738991Y-85689935D01*
X71643753Y-85737554D01*
X72834229Y-85451839D02*
X72929467Y-85451839D01*
X73024705Y-85499459D01*
X73072324Y-85547078D01*
X73119943Y-85642316D01*
X73167562Y-85832792D01*
X73167562Y-86070887D01*
X73119943Y-86261363D01*
X73072324Y-86356601D01*
X73024705Y-86404220D01*
X72929467Y-86451839D01*
X72834229Y-86451839D01*
X72738991Y-86404220D01*
X72691372Y-86356601D01*
X72643753Y-86261363D01*
X72596134Y-86070887D01*
X72596134Y-85832792D01*
X72643753Y-85642316D01*
X72691372Y-85547078D01*
X72738991Y-85499459D01*
X72834229Y-85451839D01*
X113397420Y-38913135D02*
X112397420Y-38913135D01*
X112397420Y-38675040D01*
X112445040Y-38532182D01*
X112540278Y-38436944D01*
X112635516Y-38389325D01*
X112825992Y-38341706D01*
X112968849Y-38341706D01*
X113159325Y-38389325D01*
X113254563Y-38436944D01*
X113349801Y-38532182D01*
X113397420Y-38675040D01*
X113397420Y-38913135D01*
X113397420Y-37865516D02*
X113397420Y-37675040D01*
X113349801Y-37579801D01*
X113302182Y-37532182D01*
X113159325Y-37436944D01*
X112968849Y-37389325D01*
X112587897Y-37389325D01*
X112492659Y-37436944D01*
X112445040Y-37484563D01*
X112397420Y-37579801D01*
X112397420Y-37770278D01*
X112445040Y-37865516D01*
X112492659Y-37913135D01*
X112587897Y-37960754D01*
X112825992Y-37960754D01*
X112921230Y-37913135D01*
X112968849Y-37865516D01*
X113016468Y-37770278D01*
X113016468Y-37579801D01*
X112968849Y-37484563D01*
X112921230Y-37436944D01*
X112825992Y-37389325D01*
X113427420Y-35513135D02*
X112427420Y-35513135D01*
X112427420Y-35275040D01*
X112475040Y-35132182D01*
X112570278Y-35036944D01*
X112665516Y-34989325D01*
X112855992Y-34941706D01*
X112998849Y-34941706D01*
X113189325Y-34989325D01*
X113284563Y-35036944D01*
X113379801Y-35132182D01*
X113427420Y-35275040D01*
X113427420Y-35513135D01*
X112855992Y-34370278D02*
X112808373Y-34465516D01*
X112760754Y-34513135D01*
X112665516Y-34560754D01*
X112617897Y-34560754D01*
X112522659Y-34513135D01*
X112475040Y-34465516D01*
X112427420Y-34370278D01*
X112427420Y-34179801D01*
X112475040Y-34084563D01*
X112522659Y-34036944D01*
X112617897Y-33989325D01*
X112665516Y-33989325D01*
X112760754Y-34036944D01*
X112808373Y-34084563D01*
X112855992Y-34179801D01*
X112855992Y-34370278D01*
X112903611Y-34465516D01*
X112951230Y-34513135D01*
X113046468Y-34560754D01*
X113236944Y-34560754D01*
X113332182Y-34513135D01*
X113379801Y-34465516D01*
X113427420Y-34370278D01*
X113427420Y-34179801D01*
X113379801Y-34084563D01*
X113332182Y-34036944D01*
X113236944Y-33989325D01*
X113046468Y-33989325D01*
X112951230Y-34036944D01*
X112903611Y-34084563D01*
X112855992Y-34179801D01*
X113387420Y-32183135D02*
X112387420Y-32183135D01*
X112387420Y-31945040D01*
X112435040Y-31802182D01*
X112530278Y-31706944D01*
X112625516Y-31659325D01*
X112815992Y-31611706D01*
X112958849Y-31611706D01*
X113149325Y-31659325D01*
X113244563Y-31706944D01*
X113339801Y-31802182D01*
X113387420Y-31945040D01*
X113387420Y-32183135D01*
X112387420Y-31278373D02*
X112387420Y-30611706D01*
X113387420Y-31040278D01*
X113327420Y-29433135D02*
X112327420Y-29433135D01*
X112327420Y-29195040D01*
X112375040Y-29052182D01*
X112470278Y-28956944D01*
X112565516Y-28909325D01*
X112755992Y-28861706D01*
X112898849Y-28861706D01*
X113089325Y-28909325D01*
X113184563Y-28956944D01*
X113279801Y-29052182D01*
X113327420Y-29195040D01*
X113327420Y-29433135D01*
X112327420Y-28004563D02*
X112327420Y-28195040D01*
X112375040Y-28290278D01*
X112422659Y-28337897D01*
X112565516Y-28433135D01*
X112755992Y-28480754D01*
X113136944Y-28480754D01*
X113232182Y-28433135D01*
X113279801Y-28385516D01*
X113327420Y-28290278D01*
X113327420Y-28099801D01*
X113279801Y-28004563D01*
X113232182Y-27956944D01*
X113136944Y-27909325D01*
X112898849Y-27909325D01*
X112803611Y-27956944D01*
X112755992Y-28004563D01*
X112708373Y-28099801D01*
X112708373Y-28290278D01*
X112755992Y-28385516D01*
X112803611Y-28433135D01*
X112898849Y-28480754D01*
X54287562Y-25051839D02*
X54287562Y-24051839D01*
X54525658Y-24051839D01*
X54668515Y-24099459D01*
X54763753Y-24194697D01*
X54811372Y-24289935D01*
X54858991Y-24480411D01*
X54858991Y-24623268D01*
X54811372Y-24813744D01*
X54763753Y-24908982D01*
X54668515Y-25004220D01*
X54525658Y-25051839D01*
X54287562Y-25051839D01*
X55716134Y-24385173D02*
X55716134Y-25051839D01*
X55478038Y-24004220D02*
X55239943Y-24718506D01*
X55858991Y-24718506D01*
X59267420Y-34553135D02*
X58267420Y-34553135D01*
X58267420Y-34315040D01*
X58315040Y-34172182D01*
X58410278Y-34076944D01*
X58505516Y-34029325D01*
X58695992Y-33981706D01*
X58838849Y-33981706D01*
X59029325Y-34029325D01*
X59124563Y-34076944D01*
X59219801Y-34172182D01*
X59267420Y-34315040D01*
X59267420Y-34553135D01*
X58362659Y-33600754D02*
X58315040Y-33553135D01*
X58267420Y-33457897D01*
X58267420Y-33219801D01*
X58315040Y-33124563D01*
X58362659Y-33076944D01*
X58457897Y-33029325D01*
X58553135Y-33029325D01*
X58695992Y-33076944D01*
X59267420Y-33648373D01*
X59267420Y-33029325D01*
X77509642Y-73529459D02*
X77509642Y-72529459D01*
X77747738Y-72529459D01*
X77890595Y-72577079D01*
X77985833Y-72672317D01*
X78033452Y-72767555D01*
X78081071Y-72958031D01*
X78081071Y-73100888D01*
X78033452Y-73291364D01*
X77985833Y-73386602D01*
X77890595Y-73481840D01*
X77747738Y-73529459D01*
X77509642Y-73529459D01*
X78985833Y-72529459D02*
X78509642Y-72529459D01*
X78462023Y-73005650D01*
X78509642Y-72958031D01*
X78604880Y-72910412D01*
X78842976Y-72910412D01*
X78938214Y-72958031D01*
X78985833Y-73005650D01*
X79033452Y-73100888D01*
X79033452Y-73338983D01*
X78985833Y-73434221D01*
X78938214Y-73481840D01*
X78842976Y-73529459D01*
X78604880Y-73529459D01*
X78509642Y-73481840D01*
X78462023Y-73434221D01*
X84078522Y-36606819D02*
X84078522Y-35606819D01*
X84649951Y-36606819D02*
X84221379Y-36035391D01*
X84649951Y-35606819D02*
X84078522Y-36178248D01*
X85030903Y-35702058D02*
X85078522Y-35654439D01*
X85173760Y-35606819D01*
X85411856Y-35606819D01*
X85507094Y-35654439D01*
X85554713Y-35702058D01*
X85602332Y-35797296D01*
X85602332Y-35892534D01*
X85554713Y-36035391D01*
X84983284Y-36606819D01*
X85602332Y-36606819D01*
X28713753Y-39531839D02*
X28713753Y-40341363D01*
X28761372Y-40436601D01*
X28808991Y-40484220D01*
X28904229Y-40531839D01*
X29094705Y-40531839D01*
X29189943Y-40484220D01*
X29237562Y-40436601D01*
X29285181Y-40341363D01*
X29285181Y-39531839D01*
X30189943Y-39531839D02*
X29999467Y-39531839D01*
X29904229Y-39579459D01*
X29856610Y-39627078D01*
X29761372Y-39769935D01*
X29713753Y-39960411D01*
X29713753Y-40341363D01*
X29761372Y-40436601D01*
X29808991Y-40484220D01*
X29904229Y-40531839D01*
X30094705Y-40531839D01*
X30189943Y-40484220D01*
X30237562Y-40436601D01*
X30285181Y-40341363D01*
X30285181Y-40103268D01*
X30237562Y-40008030D01*
X30189943Y-39960411D01*
X30094705Y-39912792D01*
X29904229Y-39912792D01*
X29808991Y-39960411D01*
X29761372Y-40008030D01*
X29713753Y-40103268D01*
X46556353Y-49189639D02*
X46556353Y-49999163D01*
X46603972Y-50094401D01*
X46651591Y-50142020D01*
X46746829Y-50189639D01*
X46937305Y-50189639D01*
X47032543Y-50142020D01*
X47080162Y-50094401D01*
X47127781Y-49999163D01*
X47127781Y-49189639D01*
X48127781Y-50189639D02*
X47556353Y-50189639D01*
X47842067Y-50189639D02*
X47842067Y-49189639D01*
X47746829Y-49332497D01*
X47651591Y-49427735D01*
X47556353Y-49475354D01*
X62849673Y-35784179D02*
X63421101Y-35784179D01*
X63135387Y-36784179D02*
X63135387Y-35784179D01*
X63754435Y-36784179D02*
X63754435Y-35784179D01*
X64135387Y-35784179D01*
X64230625Y-35831799D01*
X64278244Y-35879418D01*
X64325863Y-35974656D01*
X64325863Y-36117513D01*
X64278244Y-36212751D01*
X64230625Y-36260370D01*
X64135387Y-36307989D01*
X63754435Y-36307989D01*
X65230625Y-35784179D02*
X64754435Y-35784179D01*
X64706816Y-36260370D01*
X64754435Y-36212751D01*
X64849673Y-36165132D01*
X65087768Y-36165132D01*
X65183006Y-36212751D01*
X65230625Y-36260370D01*
X65278244Y-36355608D01*
X65278244Y-36593703D01*
X65230625Y-36688941D01*
X65183006Y-36736560D01*
X65087768Y-36784179D01*
X64849673Y-36784179D01*
X64754435Y-36736560D01*
X64706816Y-36688941D01*
X51775273Y-28992219D02*
X52346701Y-28992219D01*
X52060987Y-29992219D02*
X52060987Y-28992219D01*
X52680035Y-29992219D02*
X52680035Y-28992219D01*
X53060987Y-28992219D01*
X53156225Y-29039839D01*
X53203844Y-29087458D01*
X53251463Y-29182696D01*
X53251463Y-29325553D01*
X53203844Y-29420791D01*
X53156225Y-29468410D01*
X53060987Y-29516029D01*
X52680035Y-29516029D01*
X53632416Y-29087458D02*
X53680035Y-29039839D01*
X53775273Y-28992219D01*
X54013368Y-28992219D01*
X54108606Y-29039839D01*
X54156225Y-29087458D01*
X54203844Y-29182696D01*
X54203844Y-29277934D01*
X54156225Y-29420791D01*
X53584797Y-29992219D01*
X54203844Y-29992219D01*
X113530513Y-81817536D02*
X113530513Y-80817536D01*
X113530513Y-81293727D02*
X114101941Y-81293727D01*
X114101941Y-81817536D02*
X114101941Y-80817536D01*
X115101941Y-81817536D02*
X114530513Y-81817536D01*
X114816227Y-81817536D02*
X114816227Y-80817536D01*
X114720989Y-80960394D01*
X114625751Y-81055632D01*
X114530513Y-81103251D01*
X46299467Y-28755649D02*
X46299467Y-29231839D01*
X45966134Y-28231839D02*
X46299467Y-28755649D01*
X46632800Y-28231839D01*
X46918515Y-28327078D02*
X46966134Y-28279459D01*
X47061372Y-28231839D01*
X47299467Y-28231839D01*
X47394705Y-28279459D01*
X47442324Y-28327078D01*
X47489943Y-28422316D01*
X47489943Y-28517554D01*
X47442324Y-28660411D01*
X46870896Y-29231839D01*
X47489943Y-29231839D01*
X30310587Y-61100469D02*
X30310587Y-61576659D01*
X29977254Y-60576659D02*
X30310587Y-61100469D01*
X30643920Y-60576659D01*
X31501063Y-61576659D02*
X30929635Y-61576659D01*
X31215349Y-61576659D02*
X31215349Y-60576659D01*
X31120111Y-60719517D01*
X31024873Y-60814755D01*
X30929635Y-60862374D01*
X38244078Y-34468545D02*
X38244078Y-34944736D01*
X37244078Y-34944736D01*
X37244078Y-34230450D02*
X37244078Y-33611402D01*
X37625031Y-33944736D01*
X37625031Y-33801879D01*
X37672650Y-33706640D01*
X37720269Y-33659021D01*
X37815507Y-33611402D01*
X38053602Y-33611402D01*
X38148840Y-33659021D01*
X38196459Y-33706640D01*
X38244078Y-33801879D01*
X38244078Y-34087593D01*
X38196459Y-34182831D01*
X38148840Y-34230450D01*
X97929191Y-63797139D02*
X97453000Y-63797139D01*
X97453000Y-62797139D01*
X98691096Y-63130473D02*
X98691096Y-63797139D01*
X98453000Y-62749520D02*
X98214905Y-63463806D01*
X98833953Y-63463806D01*
X66462000Y-85847899D02*
X66128667Y-85371709D01*
X65890572Y-85847899D02*
X65890572Y-84847899D01*
X66271524Y-84847899D01*
X66366762Y-84895519D01*
X66414381Y-84943138D01*
X66462000Y-85038376D01*
X66462000Y-85181233D01*
X66414381Y-85276471D01*
X66366762Y-85324090D01*
X66271524Y-85371709D01*
X65890572Y-85371709D01*
X66842953Y-84943138D02*
X66890572Y-84895519D01*
X66985810Y-84847899D01*
X67223905Y-84847899D01*
X67319143Y-84895519D01*
X67366762Y-84943138D01*
X67414381Y-85038376D01*
X67414381Y-85133614D01*
X67366762Y-85276471D01*
X66795334Y-85847899D01*
X67414381Y-85847899D01*
X68033429Y-84847899D02*
X68128667Y-84847899D01*
X68223905Y-84895519D01*
X68271524Y-84943138D01*
X68319143Y-85038376D01*
X68366762Y-85228852D01*
X68366762Y-85466947D01*
X68319143Y-85657423D01*
X68271524Y-85752661D01*
X68223905Y-85800280D01*
X68128667Y-85847899D01*
X68033429Y-85847899D01*
X67938191Y-85800280D01*
X67890572Y-85752661D01*
X67842953Y-85657423D01*
X67795334Y-85466947D01*
X67795334Y-85228852D01*
X67842953Y-85038376D01*
X67890572Y-84943138D01*
X67938191Y-84895519D01*
X68033429Y-84847899D01*
X62529542Y-35928400D02*
X62196209Y-35452210D01*
X61958114Y-35928400D02*
X61958114Y-34928400D01*
X62339066Y-34928400D01*
X62434304Y-34976020D01*
X62481923Y-35023639D01*
X62529542Y-35118877D01*
X62529542Y-35261734D01*
X62481923Y-35356972D01*
X62434304Y-35404591D01*
X62339066Y-35452210D01*
X61958114Y-35452210D01*
X63481923Y-35928400D02*
X62910495Y-35928400D01*
X63196209Y-35928400D02*
X63196209Y-34928400D01*
X63100971Y-35071258D01*
X63005733Y-35166496D01*
X62910495Y-35214115D01*
X63958114Y-35928400D02*
X64148590Y-35928400D01*
X64243828Y-35880781D01*
X64291447Y-35833162D01*
X64386685Y-35690305D01*
X64434304Y-35499829D01*
X64434304Y-35118877D01*
X64386685Y-35023639D01*
X64339066Y-34976020D01*
X64243828Y-34928400D01*
X64053352Y-34928400D01*
X63958114Y-34976020D01*
X63910495Y-35023639D01*
X63862876Y-35118877D01*
X63862876Y-35356972D01*
X63910495Y-35452210D01*
X63958114Y-35499829D01*
X64053352Y-35547448D01*
X64243828Y-35547448D01*
X64339066Y-35499829D01*
X64386685Y-35452210D01*
X64434304Y-35356972D01*
X58607800Y-25681839D02*
X58274467Y-25205649D01*
X58036372Y-25681839D02*
X58036372Y-24681839D01*
X58417324Y-24681839D01*
X58512562Y-24729459D01*
X58560181Y-24777078D01*
X58607800Y-24872316D01*
X58607800Y-25015173D01*
X58560181Y-25110411D01*
X58512562Y-25158030D01*
X58417324Y-25205649D01*
X58036372Y-25205649D01*
X59560181Y-25681839D02*
X58988753Y-25681839D01*
X59274467Y-25681839D02*
X59274467Y-24681839D01*
X59179229Y-24824697D01*
X59083991Y-24919935D01*
X58988753Y-24967554D01*
X60131610Y-25110411D02*
X60036372Y-25062792D01*
X59988753Y-25015173D01*
X59941134Y-24919935D01*
X59941134Y-24872316D01*
X59988753Y-24777078D01*
X60036372Y-24729459D01*
X60131610Y-24681839D01*
X60322086Y-24681839D01*
X60417324Y-24729459D01*
X60464943Y-24777078D01*
X60512562Y-24872316D01*
X60512562Y-24919935D01*
X60464943Y-25015173D01*
X60417324Y-25062792D01*
X60322086Y-25110411D01*
X60131610Y-25110411D01*
X60036372Y-25158030D01*
X59988753Y-25205649D01*
X59941134Y-25300887D01*
X59941134Y-25491363D01*
X59988753Y-25586601D01*
X60036372Y-25634220D01*
X60131610Y-25681839D01*
X60322086Y-25681839D01*
X60417324Y-25634220D01*
X60464943Y-25586601D01*
X60512562Y-25491363D01*
X60512562Y-25300887D01*
X60464943Y-25205649D01*
X60417324Y-25158030D01*
X60322086Y-25110411D01*
X57947182Y-29907420D02*
X57613849Y-29431230D01*
X57375754Y-29907420D02*
X57375754Y-28907420D01*
X57756706Y-28907420D01*
X57851944Y-28955040D01*
X57899563Y-29002659D01*
X57947182Y-29097897D01*
X57947182Y-29240754D01*
X57899563Y-29335992D01*
X57851944Y-29383611D01*
X57756706Y-29431230D01*
X57375754Y-29431230D01*
X58899563Y-29907420D02*
X58328135Y-29907420D01*
X58613849Y-29907420D02*
X58613849Y-28907420D01*
X58518611Y-29050278D01*
X58423373Y-29145516D01*
X58328135Y-29193135D01*
X59756706Y-29240754D02*
X59756706Y-29907420D01*
X59518611Y-28859801D02*
X59280516Y-29574087D01*
X59899563Y-29574087D01*
X99910124Y-75278179D02*
X99910124Y-75992465D01*
X99862505Y-76135322D01*
X99767267Y-76230560D01*
X99624410Y-76278179D01*
X99529172Y-76278179D01*
X100386315Y-76278179D02*
X100386315Y-75278179D01*
X100767267Y-75278179D01*
X100862505Y-75325799D01*
X100910124Y-75373418D01*
X100957743Y-75468656D01*
X100957743Y-75611513D01*
X100910124Y-75706751D01*
X100862505Y-75754370D01*
X100767267Y-75801989D01*
X100386315Y-75801989D01*
X101291077Y-75278179D02*
X101910124Y-75278179D01*
X101576791Y-75659132D01*
X101719648Y-75659132D01*
X101814886Y-75706751D01*
X101862505Y-75754370D01*
X101910124Y-75849608D01*
X101910124Y-76087703D01*
X101862505Y-76182941D01*
X101814886Y-76230560D01*
X101719648Y-76278179D01*
X101433934Y-76278179D01*
X101338696Y-76230560D01*
X101291077Y-76182941D01*
X62556884Y-28897779D02*
X62556884Y-29612065D01*
X62509265Y-29754922D01*
X62414027Y-29850160D01*
X62271170Y-29897779D01*
X62175932Y-29897779D01*
X63033075Y-29897779D02*
X63033075Y-28897779D01*
X63414027Y-28897779D01*
X63509265Y-28945399D01*
X63556884Y-28993018D01*
X63604503Y-29088256D01*
X63604503Y-29231113D01*
X63556884Y-29326351D01*
X63509265Y-29373970D01*
X63414027Y-29421589D01*
X63033075Y-29421589D01*
X63985456Y-28993018D02*
X64033075Y-28945399D01*
X64128313Y-28897779D01*
X64366408Y-28897779D01*
X64461646Y-28945399D01*
X64509265Y-28993018D01*
X64556884Y-29088256D01*
X64556884Y-29183494D01*
X64509265Y-29326351D01*
X63937837Y-29897779D01*
X64556884Y-29897779D01*
X43362182Y-45852182D02*
X43314563Y-45899801D01*
X43171706Y-45947420D01*
X43076468Y-45947420D01*
X42933611Y-45899801D01*
X42838373Y-45804563D01*
X42790754Y-45709325D01*
X42743135Y-45518849D01*
X42743135Y-45375992D01*
X42790754Y-45185516D01*
X42838373Y-45090278D01*
X42933611Y-44995040D01*
X43076468Y-44947420D01*
X43171706Y-44947420D01*
X43314563Y-44995040D01*
X43362182Y-45042659D01*
X43743135Y-45042659D02*
X43790754Y-44995040D01*
X43885992Y-44947420D01*
X44124087Y-44947420D01*
X44219325Y-44995040D01*
X44266944Y-45042659D01*
X44314563Y-45137897D01*
X44314563Y-45233135D01*
X44266944Y-45375992D01*
X43695516Y-45947420D01*
X44314563Y-45947420D01*
X44647897Y-44947420D02*
X45266944Y-44947420D01*
X44933611Y-45328373D01*
X45076468Y-45328373D01*
X45171706Y-45375992D01*
X45219325Y-45423611D01*
X45266944Y-45518849D01*
X45266944Y-45756944D01*
X45219325Y-45852182D01*
X45171706Y-45899801D01*
X45076468Y-45947420D01*
X44790754Y-45947420D01*
X44695516Y-45899801D01*
X44647897Y-45852182D01*
X40792182Y-27957897D02*
X40839801Y-28005516D01*
X40887420Y-28148373D01*
X40887420Y-28243611D01*
X40839801Y-28386468D01*
X40744563Y-28481706D01*
X40649325Y-28529325D01*
X40458849Y-28576944D01*
X40315992Y-28576944D01*
X40125516Y-28529325D01*
X40030278Y-28481706D01*
X39935040Y-28386468D01*
X39887420Y-28243611D01*
X39887420Y-28148373D01*
X39935040Y-28005516D01*
X39982659Y-27957897D01*
X39982659Y-27576944D02*
X39935040Y-27529325D01*
X39887420Y-27434087D01*
X39887420Y-27195992D01*
X39935040Y-27100754D01*
X39982659Y-27053135D01*
X40077897Y-27005516D01*
X40173135Y-27005516D01*
X40315992Y-27053135D01*
X40887420Y-27624563D01*
X40887420Y-27005516D01*
X40887420Y-26053135D02*
X40887420Y-26624563D01*
X40887420Y-26338849D02*
X39887420Y-26338849D01*
X40030278Y-26434087D01*
X40125516Y-26529325D01*
X40173135Y-26624563D01*
X43762182Y-40382182D02*
X43714563Y-40429801D01*
X43571706Y-40477420D01*
X43476468Y-40477420D01*
X43333611Y-40429801D01*
X43238373Y-40334563D01*
X43190754Y-40239325D01*
X43143135Y-40048849D01*
X43143135Y-39905992D01*
X43190754Y-39715516D01*
X43238373Y-39620278D01*
X43333611Y-39525040D01*
X43476468Y-39477420D01*
X43571706Y-39477420D01*
X43714563Y-39525040D01*
X43762182Y-39572659D01*
X44143135Y-39572659D02*
X44190754Y-39525040D01*
X44285992Y-39477420D01*
X44524087Y-39477420D01*
X44619325Y-39525040D01*
X44666944Y-39572659D01*
X44714563Y-39667897D01*
X44714563Y-39763135D01*
X44666944Y-39905992D01*
X44095516Y-40477420D01*
X44714563Y-40477420D01*
X45333611Y-39477420D02*
X45428849Y-39477420D01*
X45524087Y-39525040D01*
X45571706Y-39572659D01*
X45619325Y-39667897D01*
X45666944Y-39858373D01*
X45666944Y-40096468D01*
X45619325Y-40286944D01*
X45571706Y-40382182D01*
X45524087Y-40429801D01*
X45428849Y-40477420D01*
X45333611Y-40477420D01*
X45238373Y-40429801D01*
X45190754Y-40382182D01*
X45143135Y-40286944D01*
X45095516Y-40096468D01*
X45095516Y-39858373D01*
X45143135Y-39667897D01*
X45190754Y-39572659D01*
X45238373Y-39525040D01*
X45333611Y-39477420D01*
X36529480Y-42223141D02*
X36481861Y-42270760D01*
X36339004Y-42318379D01*
X36243766Y-42318379D01*
X36100909Y-42270760D01*
X36005671Y-42175522D01*
X35958052Y-42080284D01*
X35910433Y-41889808D01*
X35910433Y-41746951D01*
X35958052Y-41556475D01*
X36005671Y-41461237D01*
X36100909Y-41365999D01*
X36243766Y-41318379D01*
X36339004Y-41318379D01*
X36481861Y-41365999D01*
X36529480Y-41413618D01*
X37481861Y-42318379D02*
X36910433Y-42318379D01*
X37196147Y-42318379D02*
X37196147Y-41318379D01*
X37100909Y-41461237D01*
X37005671Y-41556475D01*
X36910433Y-41604094D01*
X37958052Y-42318379D02*
X38148528Y-42318379D01*
X38243766Y-42270760D01*
X38291385Y-42223141D01*
X38386623Y-42080284D01*
X38434242Y-41889808D01*
X38434242Y-41508856D01*
X38386623Y-41413618D01*
X38339004Y-41365999D01*
X38243766Y-41318379D01*
X38053290Y-41318379D01*
X37958052Y-41365999D01*
X37910433Y-41413618D01*
X37862814Y-41508856D01*
X37862814Y-41746951D01*
X37910433Y-41842189D01*
X37958052Y-41889808D01*
X38053290Y-41937427D01*
X38243766Y-41937427D01*
X38339004Y-41889808D01*
X38386623Y-41842189D01*
X38434242Y-41746951D01*
X94062524Y-74997539D02*
X94062524Y-75711825D01*
X94014905Y-75854682D01*
X93919667Y-75949920D01*
X93776810Y-75997539D01*
X93681572Y-75997539D01*
X94538715Y-75997539D02*
X94538715Y-74997539D01*
X94919667Y-74997539D01*
X95014905Y-75045159D01*
X95062524Y-75092778D01*
X95110143Y-75188016D01*
X95110143Y-75330873D01*
X95062524Y-75426111D01*
X95014905Y-75473730D01*
X94919667Y-75521349D01*
X94538715Y-75521349D01*
X95967286Y-75330873D02*
X95967286Y-75997539D01*
X95729191Y-74949920D02*
X95491096Y-75664206D01*
X96110143Y-75664206D01*
X92534438Y-54451936D02*
X92058248Y-54785269D01*
X92534438Y-55023364D02*
X91534438Y-55023364D01*
X91534438Y-54642412D01*
X91582058Y-54547174D01*
X91629677Y-54499555D01*
X91724915Y-54451936D01*
X91867772Y-54451936D01*
X91963010Y-54499555D01*
X92010629Y-54547174D01*
X92058248Y-54642412D01*
X92058248Y-55023364D01*
X92534438Y-53499555D02*
X92534438Y-54070983D01*
X92534438Y-53785269D02*
X91534438Y-53785269D01*
X91677296Y-53880507D01*
X91772534Y-53975745D01*
X91820153Y-54070983D01*
X92534438Y-52547174D02*
X92534438Y-53118602D01*
X92534438Y-52832888D02*
X91534438Y-52832888D01*
X91677296Y-52928126D01*
X91772534Y-53023364D01*
X91820153Y-53118602D01*
X26160844Y-64291859D02*
X26160844Y-65006145D01*
X26113225Y-65149002D01*
X26017987Y-65244240D01*
X25875130Y-65291859D01*
X25779892Y-65291859D01*
X27160844Y-65291859D02*
X26589416Y-65291859D01*
X26875130Y-65291859D02*
X26875130Y-64291859D01*
X26779892Y-64434717D01*
X26684654Y-64529955D01*
X26589416Y-64577574D01*
X52808838Y-68692505D02*
X52332648Y-69025839D01*
X52808838Y-69263934D02*
X51808838Y-69263934D01*
X51808838Y-68882981D01*
X51856458Y-68787743D01*
X51904077Y-68740124D01*
X51999315Y-68692505D01*
X52142172Y-68692505D01*
X52237410Y-68740124D01*
X52285029Y-68787743D01*
X52332648Y-68882981D01*
X52332648Y-69263934D01*
X52808838Y-68216315D02*
X52808838Y-68025839D01*
X52761219Y-67930600D01*
X52713600Y-67882981D01*
X52570743Y-67787743D01*
X52380267Y-67740124D01*
X51999315Y-67740124D01*
X51904077Y-67787743D01*
X51856458Y-67835362D01*
X51808838Y-67930600D01*
X51808838Y-68121077D01*
X51856458Y-68216315D01*
X51904077Y-68263934D01*
X51999315Y-68311553D01*
X52237410Y-68311553D01*
X52332648Y-68263934D01*
X52380267Y-68216315D01*
X52427886Y-68121077D01*
X52427886Y-67930600D01*
X52380267Y-67835362D01*
X52332648Y-67787743D01*
X52237410Y-67740124D01*
X56509120Y-72190061D02*
X56461501Y-72237680D01*
X56318644Y-72285299D01*
X56223406Y-72285299D01*
X56080549Y-72237680D01*
X55985311Y-72142442D01*
X55937692Y-72047204D01*
X55890073Y-71856728D01*
X55890073Y-71713871D01*
X55937692Y-71523395D01*
X55985311Y-71428157D01*
X56080549Y-71332919D01*
X56223406Y-71285299D01*
X56318644Y-71285299D01*
X56461501Y-71332919D01*
X56509120Y-71380538D01*
X57461501Y-72285299D02*
X56890073Y-72285299D01*
X57175787Y-72285299D02*
X57175787Y-71285299D01*
X57080549Y-71428157D01*
X56985311Y-71523395D01*
X56890073Y-71571014D01*
X57794835Y-71285299D02*
X58461501Y-71285299D01*
X58032930Y-72285299D01*
X71176360Y-61349976D02*
X71223979Y-61397595D01*
X71271598Y-61540452D01*
X71271598Y-61635690D01*
X71223979Y-61778547D01*
X71128741Y-61873785D01*
X71033503Y-61921404D01*
X70843027Y-61969023D01*
X70700170Y-61969023D01*
X70509694Y-61921404D01*
X70414456Y-61873785D01*
X70319218Y-61778547D01*
X70271598Y-61635690D01*
X70271598Y-61540452D01*
X70319218Y-61397595D01*
X70366837Y-61349976D01*
X71271598Y-60397595D02*
X71271598Y-60969023D01*
X71271598Y-60683309D02*
X70271598Y-60683309D01*
X70414456Y-60778547D01*
X70509694Y-60873785D01*
X70557313Y-60969023D01*
X70271598Y-59540452D02*
X70271598Y-59730928D01*
X70319218Y-59826166D01*
X70366837Y-59873785D01*
X70509694Y-59969023D01*
X70700170Y-60016642D01*
X71081122Y-60016642D01*
X71176360Y-59969023D01*
X71223979Y-59921404D01*
X71271598Y-59826166D01*
X71271598Y-59635690D01*
X71223979Y-59540452D01*
X71176360Y-59492833D01*
X71081122Y-59445214D01*
X70843027Y-59445214D01*
X70747789Y-59492833D01*
X70700170Y-59540452D01*
X70652551Y-59635690D01*
X70652551Y-59826166D01*
X70700170Y-59921404D01*
X70747789Y-59969023D01*
X70843027Y-60016642D01*
X69141798Y-73198014D02*
X69951322Y-73198014D01*
X70046560Y-73150395D01*
X70094179Y-73102776D01*
X70141798Y-73007538D01*
X70141798Y-72817061D01*
X70094179Y-72721823D01*
X70046560Y-72674204D01*
X69951322Y-72626585D01*
X69141798Y-72626585D01*
X70141798Y-71626585D02*
X70141798Y-72198014D01*
X70141798Y-71912299D02*
X69141798Y-71912299D01*
X69284656Y-72007538D01*
X69379894Y-72102776D01*
X69427513Y-72198014D01*
X70141798Y-70674204D02*
X70141798Y-71245633D01*
X70141798Y-70959919D02*
X69141798Y-70959919D01*
X69284656Y-71055157D01*
X69379894Y-71150395D01*
X69427513Y-71245633D01*
X38551320Y-73891861D02*
X38503701Y-73939480D01*
X38360844Y-73987099D01*
X38265606Y-73987099D01*
X38122749Y-73939480D01*
X38027511Y-73844242D01*
X37979892Y-73749004D01*
X37932273Y-73558528D01*
X37932273Y-73415671D01*
X37979892Y-73225195D01*
X38027511Y-73129957D01*
X38122749Y-73034719D01*
X38265606Y-72987099D01*
X38360844Y-72987099D01*
X38503701Y-73034719D01*
X38551320Y-73082338D01*
X39503701Y-73987099D02*
X38932273Y-73987099D01*
X39217987Y-73987099D02*
X39217987Y-72987099D01*
X39122749Y-73129957D01*
X39027511Y-73225195D01*
X38932273Y-73272814D01*
X40408463Y-72987099D02*
X39932273Y-72987099D01*
X39884654Y-73463290D01*
X39932273Y-73415671D01*
X40027511Y-73368052D01*
X40265606Y-73368052D01*
X40360844Y-73415671D01*
X40408463Y-73463290D01*
X40456082Y-73558528D01*
X40456082Y-73796623D01*
X40408463Y-73891861D01*
X40360844Y-73939480D01*
X40265606Y-73987099D01*
X40027511Y-73987099D01*
X39932273Y-73939480D01*
X39884654Y-73891861D01*
X33452413Y-47904922D02*
X33404794Y-47952541D01*
X33261937Y-48000160D01*
X33166699Y-48000160D01*
X33023841Y-47952541D01*
X32928603Y-47857303D01*
X32880984Y-47762065D01*
X32833365Y-47571589D01*
X32833365Y-47428732D01*
X32880984Y-47238256D01*
X32928603Y-47143018D01*
X33023841Y-47047780D01*
X33166699Y-47000160D01*
X33261937Y-47000160D01*
X33404794Y-47047780D01*
X33452413Y-47095399D01*
X33928603Y-48000160D02*
X34119080Y-48000160D01*
X34214318Y-47952541D01*
X34261937Y-47904922D01*
X34357175Y-47762065D01*
X34404794Y-47571589D01*
X34404794Y-47190637D01*
X34357175Y-47095399D01*
X34309556Y-47047780D01*
X34214318Y-47000160D01*
X34023841Y-47000160D01*
X33928603Y-47047780D01*
X33880984Y-47095399D01*
X33833365Y-47190637D01*
X33833365Y-47428732D01*
X33880984Y-47523970D01*
X33928603Y-47571589D01*
X34023841Y-47619208D01*
X34214318Y-47619208D01*
X34309556Y-47571589D01*
X34357175Y-47523970D01*
X34404794Y-47428732D01*
X103502918Y-55275252D02*
X104217204Y-55275252D01*
X104360061Y-55322871D01*
X104455299Y-55418109D01*
X104502918Y-55560966D01*
X104502918Y-55656204D01*
X103502918Y-54322871D02*
X103502918Y-54799061D01*
X103979109Y-54846680D01*
X103931490Y-54799061D01*
X103883871Y-54703823D01*
X103883871Y-54465728D01*
X103931490Y-54370490D01*
X103979109Y-54322871D01*
X104074347Y-54275252D01*
X104312442Y-54275252D01*
X104407680Y-54322871D01*
X104455299Y-54370490D01*
X104502918Y-54465728D01*
X104502918Y-54703823D01*
X104455299Y-54799061D01*
X104407680Y-54846680D01*
X27983638Y-32214592D02*
X28697924Y-32214592D01*
X28840781Y-32262211D01*
X28936019Y-32357449D01*
X28983638Y-32500306D01*
X28983638Y-32595544D01*
X27983638Y-31833639D02*
X27983638Y-31214592D01*
X28364591Y-31547925D01*
X28364591Y-31405068D01*
X28412210Y-31309830D01*
X28459829Y-31262211D01*
X28555067Y-31214592D01*
X28793162Y-31214592D01*
X28888400Y-31262211D01*
X28936019Y-31309830D01*
X28983638Y-31405068D01*
X28983638Y-31690782D01*
X28936019Y-31786020D01*
X28888400Y-31833639D01*
X106437439Y-46073464D02*
X107151725Y-46073464D01*
X107294582Y-46121083D01*
X107389820Y-46216321D01*
X107437439Y-46359178D01*
X107437439Y-46454416D01*
X106532678Y-45644892D02*
X106485059Y-45597273D01*
X106437439Y-45502035D01*
X106437439Y-45263940D01*
X106485059Y-45168702D01*
X106532678Y-45121083D01*
X106627916Y-45073464D01*
X106723154Y-45073464D01*
X106866011Y-45121083D01*
X107437439Y-45692511D01*
X107437439Y-45073464D01*
X33554142Y-50549840D02*
X33220809Y-50073650D01*
X32982714Y-50549840D02*
X32982714Y-49549840D01*
X33363666Y-49549840D01*
X33458904Y-49597460D01*
X33506523Y-49645079D01*
X33554142Y-49740317D01*
X33554142Y-49883174D01*
X33506523Y-49978412D01*
X33458904Y-50026031D01*
X33363666Y-50073650D01*
X32982714Y-50073650D01*
X33887476Y-49549840D02*
X34506523Y-49549840D01*
X34173190Y-49930793D01*
X34316047Y-49930793D01*
X34411285Y-49978412D01*
X34458904Y-50026031D01*
X34506523Y-50121269D01*
X34506523Y-50359364D01*
X34458904Y-50454602D01*
X34411285Y-50502221D01*
X34316047Y-50549840D01*
X34030333Y-50549840D01*
X33935095Y-50502221D01*
X33887476Y-50454602D01*
X35363666Y-49883174D02*
X35363666Y-50549840D01*
X35125571Y-49502221D02*
X34887476Y-50216507D01*
X35506523Y-50216507D01*
X67317318Y-65058976D02*
X66841128Y-65392309D01*
X67317318Y-65630404D02*
X66317318Y-65630404D01*
X66317318Y-65249452D01*
X66364938Y-65154214D01*
X66412557Y-65106595D01*
X66507795Y-65058976D01*
X66650652Y-65058976D01*
X66745890Y-65106595D01*
X66793509Y-65154214D01*
X66841128Y-65249452D01*
X66841128Y-65630404D01*
X66412557Y-64678023D02*
X66364938Y-64630404D01*
X66317318Y-64535166D01*
X66317318Y-64297071D01*
X66364938Y-64201833D01*
X66412557Y-64154214D01*
X66507795Y-64106595D01*
X66603033Y-64106595D01*
X66745890Y-64154214D01*
X67317318Y-64725642D01*
X67317318Y-64106595D01*
X66317318Y-63773261D02*
X66317318Y-63106595D01*
X67317318Y-63535166D01*
X69559638Y-65104016D02*
X69083448Y-65437349D01*
X69559638Y-65675444D02*
X68559638Y-65675444D01*
X68559638Y-65294492D01*
X68607258Y-65199254D01*
X68654877Y-65151635D01*
X68750115Y-65104016D01*
X68892972Y-65104016D01*
X68988210Y-65151635D01*
X69035829Y-65199254D01*
X69083448Y-65294492D01*
X69083448Y-65675444D01*
X68654877Y-64723063D02*
X68607258Y-64675444D01*
X68559638Y-64580206D01*
X68559638Y-64342111D01*
X68607258Y-64246873D01*
X68654877Y-64199254D01*
X68750115Y-64151635D01*
X68845353Y-64151635D01*
X68988210Y-64199254D01*
X69559638Y-64770682D01*
X69559638Y-64151635D01*
X68892972Y-63294492D02*
X69559638Y-63294492D01*
X68512019Y-63532587D02*
X69226305Y-63770682D01*
X69226305Y-63151635D01*
X22505713Y-82326936D02*
X22505713Y-81326936D01*
X22505713Y-81803127D02*
X23077141Y-81803127D01*
X23077141Y-82326936D02*
X23077141Y-81326936D01*
X23981903Y-81660270D02*
X23981903Y-82326936D01*
X23743808Y-81279317D02*
X23505713Y-81993603D01*
X24124760Y-81993603D01*
X110434054Y-22388171D02*
X110434054Y-21388171D01*
X110434054Y-21864362D02*
X111005482Y-21864362D01*
X111005482Y-22388171D02*
X111005482Y-21388171D01*
X111386435Y-21388171D02*
X112005482Y-21388171D01*
X111672149Y-21769124D01*
X111815006Y-21769124D01*
X111910244Y-21816743D01*
X111957863Y-21864362D01*
X112005482Y-21959600D01*
X112005482Y-22197695D01*
X111957863Y-22292933D01*
X111910244Y-22340552D01*
X111815006Y-22388171D01*
X111529292Y-22388171D01*
X111434054Y-22340552D01*
X111386435Y-22292933D01*
X23481713Y-29316536D02*
X23481713Y-28316536D01*
X23481713Y-28792727D02*
X24053141Y-28792727D01*
X24053141Y-29316536D02*
X24053141Y-28316536D01*
X24481713Y-28411775D02*
X24529332Y-28364156D01*
X24624570Y-28316536D01*
X24862665Y-28316536D01*
X24957903Y-28364156D01*
X25005522Y-28411775D01*
X25053141Y-28507013D01*
X25053141Y-28602251D01*
X25005522Y-28745108D01*
X24434094Y-29316536D01*
X25053141Y-29316536D01*
X82506353Y-47215739D02*
X82506353Y-48025263D01*
X82553972Y-48120501D01*
X82601591Y-48168120D01*
X82696829Y-48215739D01*
X82887305Y-48215739D01*
X82982543Y-48168120D01*
X83030162Y-48120501D01*
X83077781Y-48025263D01*
X83077781Y-47215739D01*
X83696829Y-47644311D02*
X83601591Y-47596692D01*
X83553972Y-47549073D01*
X83506353Y-47453835D01*
X83506353Y-47406216D01*
X83553972Y-47310978D01*
X83601591Y-47263359D01*
X83696829Y-47215739D01*
X83887305Y-47215739D01*
X83982543Y-47263359D01*
X84030162Y-47310978D01*
X84077781Y-47406216D01*
X84077781Y-47453835D01*
X84030162Y-47549073D01*
X83982543Y-47596692D01*
X83887305Y-47644311D01*
X83696829Y-47644311D01*
X83601591Y-47691930D01*
X83553972Y-47739549D01*
X83506353Y-47834787D01*
X83506353Y-48025263D01*
X83553972Y-48120501D01*
X83601591Y-48168120D01*
X83696829Y-48215739D01*
X83887305Y-48215739D01*
X83982543Y-48168120D01*
X84030162Y-48120501D01*
X84077781Y-48025263D01*
X84077781Y-47834787D01*
X84030162Y-47739549D01*
X83982543Y-47691930D01*
X83887305Y-47644311D01*
X39024198Y-85619943D02*
X39833722Y-85619943D01*
X39928960Y-85572324D01*
X39976579Y-85524705D01*
X40024198Y-85429467D01*
X40024198Y-85238991D01*
X39976579Y-85143753D01*
X39928960Y-85096134D01*
X39833722Y-85048515D01*
X39024198Y-85048515D01*
X39024198Y-84667562D02*
X39024198Y-84000896D01*
X40024198Y-84429467D01*
X101166118Y-52554223D02*
X101975642Y-52554223D01*
X102070880Y-52506604D01*
X102118499Y-52458985D01*
X102166118Y-52363747D01*
X102166118Y-52173271D01*
X102118499Y-52078033D01*
X102070880Y-52030414D01*
X101975642Y-51982795D01*
X101166118Y-51982795D01*
X101166118Y-51030414D02*
X101166118Y-51506604D01*
X101642309Y-51554223D01*
X101594690Y-51506604D01*
X101547071Y-51411366D01*
X101547071Y-51173271D01*
X101594690Y-51078033D01*
X101642309Y-51030414D01*
X101737547Y-50982795D01*
X101975642Y-50982795D01*
X102070880Y-51030414D01*
X102118499Y-51078033D01*
X102166118Y-51173271D01*
X102166118Y-51411366D01*
X102118499Y-51506604D01*
X102070880Y-51554223D01*
X25130673Y-74397259D02*
X25702101Y-74397259D01*
X25416387Y-75397259D02*
X25416387Y-74397259D01*
X26035435Y-75397259D02*
X26035435Y-74397259D01*
X26416387Y-74397259D01*
X26511625Y-74444879D01*
X26559244Y-74492498D01*
X26606863Y-74587736D01*
X26606863Y-74730593D01*
X26559244Y-74825831D01*
X26511625Y-74873450D01*
X26416387Y-74921069D01*
X26035435Y-74921069D01*
X26940197Y-74397259D02*
X27559244Y-74397259D01*
X27225911Y-74778212D01*
X27368768Y-74778212D01*
X27464006Y-74825831D01*
X27511625Y-74873450D01*
X27559244Y-74968688D01*
X27559244Y-75206783D01*
X27511625Y-75302021D01*
X27464006Y-75349640D01*
X27368768Y-75397259D01*
X27083054Y-75397259D01*
X26987816Y-75349640D01*
X26940197Y-75302021D01*
X44917273Y-74506019D02*
X45488701Y-74506019D01*
X45202987Y-75506019D02*
X45202987Y-74506019D01*
X45822035Y-75506019D02*
X45822035Y-74506019D01*
X46202987Y-74506019D01*
X46298225Y-74553639D01*
X46345844Y-74601258D01*
X46393463Y-74696496D01*
X46393463Y-74839353D01*
X46345844Y-74934591D01*
X46298225Y-74982210D01*
X46202987Y-75029829D01*
X45822035Y-75029829D01*
X47345844Y-75506019D02*
X46774416Y-75506019D01*
X47060130Y-75506019D02*
X47060130Y-74506019D01*
X46964892Y-74648877D01*
X46869654Y-74744115D01*
X46774416Y-74791734D01*
X112681718Y-72992037D02*
X112205528Y-73325370D01*
X112681718Y-73563465D02*
X111681718Y-73563465D01*
X111681718Y-73182513D01*
X111729338Y-73087275D01*
X111776957Y-73039656D01*
X111872195Y-72992037D01*
X112015052Y-72992037D01*
X112110290Y-73039656D01*
X112157909Y-73087275D01*
X112205528Y-73182513D01*
X112205528Y-73563465D01*
X111681718Y-72706322D02*
X112681718Y-72372989D01*
X111681718Y-72039656D01*
X111681718Y-71801560D02*
X111681718Y-71182513D01*
X112062671Y-71515846D01*
X112062671Y-71372989D01*
X112110290Y-71277751D01*
X112157909Y-71230132D01*
X112253147Y-71182513D01*
X112491242Y-71182513D01*
X112586480Y-71230132D01*
X112634099Y-71277751D01*
X112681718Y-71372989D01*
X112681718Y-71658703D01*
X112634099Y-71753941D01*
X112586480Y-71801560D01*
X110730998Y-72097957D02*
X110254808Y-72431290D01*
X110730998Y-72669385D02*
X109730998Y-72669385D01*
X109730998Y-72288433D01*
X109778618Y-72193195D01*
X109826237Y-72145576D01*
X109921475Y-72097957D01*
X110064332Y-72097957D01*
X110159570Y-72145576D01*
X110207189Y-72193195D01*
X110254808Y-72288433D01*
X110254808Y-72669385D01*
X109730998Y-71812242D02*
X110730998Y-71478909D01*
X109730998Y-71145576D01*
X110730998Y-70288433D02*
X110730998Y-70859861D01*
X110730998Y-70574147D02*
X109730998Y-70574147D01*
X109873856Y-70669385D01*
X109969094Y-70764623D01*
X110016713Y-70859861D01*
X104139200Y-38909699D02*
X103805867Y-38433509D01*
X103567772Y-38909699D02*
X103567772Y-37909699D01*
X103948724Y-37909699D01*
X104043962Y-37957319D01*
X104091581Y-38004938D01*
X104139200Y-38100176D01*
X104139200Y-38243033D01*
X104091581Y-38338271D01*
X104043962Y-38385890D01*
X103948724Y-38433509D01*
X103567772Y-38433509D01*
X104472534Y-37909699D02*
X105091581Y-37909699D01*
X104758248Y-38290652D01*
X104901105Y-38290652D01*
X104996343Y-38338271D01*
X105043962Y-38385890D01*
X105091581Y-38481128D01*
X105091581Y-38719223D01*
X105043962Y-38814461D01*
X104996343Y-38862080D01*
X104901105Y-38909699D01*
X104615391Y-38909699D01*
X104520153Y-38862080D01*
X104472534Y-38814461D01*
X105424915Y-37909699D02*
X106043962Y-37909699D01*
X105710629Y-38290652D01*
X105853486Y-38290652D01*
X105948724Y-38338271D01*
X105996343Y-38385890D01*
X106043962Y-38481128D01*
X106043962Y-38719223D01*
X105996343Y-38814461D01*
X105948724Y-38862080D01*
X105853486Y-38909699D01*
X105567772Y-38909699D01*
X105472534Y-38862080D01*
X105424915Y-38814461D01*
X104205240Y-35602619D02*
X103871907Y-35126429D01*
X103633812Y-35602619D02*
X103633812Y-34602619D01*
X104014764Y-34602619D01*
X104110002Y-34650239D01*
X104157621Y-34697858D01*
X104205240Y-34793096D01*
X104205240Y-34935953D01*
X104157621Y-35031191D01*
X104110002Y-35078810D01*
X104014764Y-35126429D01*
X103633812Y-35126429D01*
X104538574Y-34602619D02*
X105157621Y-34602619D01*
X104824288Y-34983572D01*
X104967145Y-34983572D01*
X105062383Y-35031191D01*
X105110002Y-35078810D01*
X105157621Y-35174048D01*
X105157621Y-35412143D01*
X105110002Y-35507381D01*
X105062383Y-35555000D01*
X104967145Y-35602619D01*
X104681431Y-35602619D01*
X104586193Y-35555000D01*
X104538574Y-35507381D01*
X105538574Y-34697858D02*
X105586193Y-34650239D01*
X105681431Y-34602619D01*
X105919526Y-34602619D01*
X106014764Y-34650239D01*
X106062383Y-34697858D01*
X106110002Y-34793096D01*
X106110002Y-34888334D01*
X106062383Y-35031191D01*
X105490955Y-35602619D01*
X106110002Y-35602619D01*
X60880958Y-73359696D02*
X60404768Y-73693029D01*
X60880958Y-73931124D02*
X59880958Y-73931124D01*
X59880958Y-73550172D01*
X59928578Y-73454934D01*
X59976197Y-73407315D01*
X60071435Y-73359696D01*
X60214292Y-73359696D01*
X60309530Y-73407315D01*
X60357149Y-73454934D01*
X60404768Y-73550172D01*
X60404768Y-73931124D01*
X59880958Y-73026362D02*
X59880958Y-72407315D01*
X60261911Y-72740648D01*
X60261911Y-72597791D01*
X60309530Y-72502553D01*
X60357149Y-72454934D01*
X60452387Y-72407315D01*
X60690482Y-72407315D01*
X60785720Y-72454934D01*
X60833339Y-72502553D01*
X60880958Y-72597791D01*
X60880958Y-72883505D01*
X60833339Y-72978743D01*
X60785720Y-73026362D01*
X60880958Y-71454934D02*
X60880958Y-72026362D01*
X60880958Y-71740648D02*
X59880958Y-71740648D01*
X60023816Y-71835886D01*
X60119054Y-71931124D01*
X60166673Y-72026362D01*
X62871538Y-66097916D02*
X62395348Y-66431249D01*
X62871538Y-66669344D02*
X61871538Y-66669344D01*
X61871538Y-66288392D01*
X61919158Y-66193154D01*
X61966777Y-66145535D01*
X62062015Y-66097916D01*
X62204872Y-66097916D01*
X62300110Y-66145535D01*
X62347729Y-66193154D01*
X62395348Y-66288392D01*
X62395348Y-66669344D01*
X61871538Y-65764582D02*
X61871538Y-65145535D01*
X62252491Y-65478868D01*
X62252491Y-65336011D01*
X62300110Y-65240773D01*
X62347729Y-65193154D01*
X62442967Y-65145535D01*
X62681062Y-65145535D01*
X62776300Y-65193154D01*
X62823919Y-65240773D01*
X62871538Y-65336011D01*
X62871538Y-65621725D01*
X62823919Y-65716963D01*
X62776300Y-65764582D01*
X61871538Y-64526487D02*
X61871538Y-64431249D01*
X61919158Y-64336011D01*
X61966777Y-64288392D01*
X62062015Y-64240773D01*
X62252491Y-64193154D01*
X62490586Y-64193154D01*
X62681062Y-64240773D01*
X62776300Y-64288392D01*
X62823919Y-64336011D01*
X62871538Y-64431249D01*
X62871538Y-64526487D01*
X62823919Y-64621725D01*
X62776300Y-64669344D01*
X62681062Y-64716963D01*
X62490586Y-64764582D01*
X62252491Y-64764582D01*
X62062015Y-64716963D01*
X61966777Y-64669344D01*
X61919158Y-64621725D01*
X61871538Y-64526487D01*
X104372880Y-32722259D02*
X104039547Y-32246069D01*
X103801452Y-32722259D02*
X103801452Y-31722259D01*
X104182404Y-31722259D01*
X104277642Y-31769879D01*
X104325261Y-31817498D01*
X104372880Y-31912736D01*
X104372880Y-32055593D01*
X104325261Y-32150831D01*
X104277642Y-32198450D01*
X104182404Y-32246069D01*
X103801452Y-32246069D01*
X104753833Y-31817498D02*
X104801452Y-31769879D01*
X104896690Y-31722259D01*
X105134785Y-31722259D01*
X105230023Y-31769879D01*
X105277642Y-31817498D01*
X105325261Y-31912736D01*
X105325261Y-32007974D01*
X105277642Y-32150831D01*
X104706214Y-32722259D01*
X105325261Y-32722259D01*
X105801452Y-32722259D02*
X105991928Y-32722259D01*
X106087166Y-32674640D01*
X106134785Y-32627021D01*
X106230023Y-32484164D01*
X106277642Y-32293688D01*
X106277642Y-31912736D01*
X106230023Y-31817498D01*
X106182404Y-31769879D01*
X106087166Y-31722259D01*
X105896690Y-31722259D01*
X105801452Y-31769879D01*
X105753833Y-31817498D01*
X105706214Y-31912736D01*
X105706214Y-32150831D01*
X105753833Y-32246069D01*
X105801452Y-32293688D01*
X105896690Y-32341307D01*
X106087166Y-32341307D01*
X106182404Y-32293688D01*
X106230023Y-32246069D01*
X106277642Y-32150831D01*
X104438920Y-29943499D02*
X104105587Y-29467309D01*
X103867492Y-29943499D02*
X103867492Y-28943499D01*
X104248444Y-28943499D01*
X104343682Y-28991119D01*
X104391301Y-29038738D01*
X104438920Y-29133976D01*
X104438920Y-29276833D01*
X104391301Y-29372071D01*
X104343682Y-29419690D01*
X104248444Y-29467309D01*
X103867492Y-29467309D01*
X104819873Y-29038738D02*
X104867492Y-28991119D01*
X104962730Y-28943499D01*
X105200825Y-28943499D01*
X105296063Y-28991119D01*
X105343682Y-29038738D01*
X105391301Y-29133976D01*
X105391301Y-29229214D01*
X105343682Y-29372071D01*
X104772254Y-29943499D01*
X105391301Y-29943499D01*
X105962730Y-29372071D02*
X105867492Y-29324452D01*
X105819873Y-29276833D01*
X105772254Y-29181595D01*
X105772254Y-29133976D01*
X105819873Y-29038738D01*
X105867492Y-28991119D01*
X105962730Y-28943499D01*
X106153206Y-28943499D01*
X106248444Y-28991119D01*
X106296063Y-29038738D01*
X106343682Y-29133976D01*
X106343682Y-29181595D01*
X106296063Y-29276833D01*
X106248444Y-29324452D01*
X106153206Y-29372071D01*
X105962730Y-29372071D01*
X105867492Y-29419690D01*
X105819873Y-29467309D01*
X105772254Y-29562547D01*
X105772254Y-29753023D01*
X105819873Y-29848261D01*
X105867492Y-29895880D01*
X105962730Y-29943499D01*
X106153206Y-29943499D01*
X106248444Y-29895880D01*
X106296063Y-29848261D01*
X106343682Y-29753023D01*
X106343682Y-29562547D01*
X106296063Y-29467309D01*
X106248444Y-29419690D01*
X106153206Y-29372071D01*
X63678200Y-82317139D02*
X63344867Y-81840949D01*
X63106772Y-82317139D02*
X63106772Y-81317139D01*
X63487724Y-81317139D01*
X63582962Y-81364759D01*
X63630581Y-81412378D01*
X63678200Y-81507616D01*
X63678200Y-81650473D01*
X63630581Y-81745711D01*
X63582962Y-81793330D01*
X63487724Y-81840949D01*
X63106772Y-81840949D01*
X64059153Y-81412378D02*
X64106772Y-81364759D01*
X64202010Y-81317139D01*
X64440105Y-81317139D01*
X64535343Y-81364759D01*
X64582962Y-81412378D01*
X64630581Y-81507616D01*
X64630581Y-81602854D01*
X64582962Y-81745711D01*
X64011534Y-82317139D01*
X64630581Y-82317139D01*
X65535343Y-81317139D02*
X65059153Y-81317139D01*
X65011534Y-81793330D01*
X65059153Y-81745711D01*
X65154391Y-81698092D01*
X65392486Y-81698092D01*
X65487724Y-81745711D01*
X65535343Y-81793330D01*
X65582962Y-81888568D01*
X65582962Y-82126663D01*
X65535343Y-82221901D01*
X65487724Y-82269520D01*
X65392486Y-82317139D01*
X65154391Y-82317139D01*
X65059153Y-82269520D01*
X65011534Y-82221901D01*
X92752878Y-69900216D02*
X92276688Y-70233549D01*
X92752878Y-70471644D02*
X91752878Y-70471644D01*
X91752878Y-70090692D01*
X91800498Y-69995454D01*
X91848117Y-69947835D01*
X91943355Y-69900216D01*
X92086212Y-69900216D01*
X92181450Y-69947835D01*
X92229069Y-69995454D01*
X92276688Y-70090692D01*
X92276688Y-70471644D01*
X92752878Y-68947835D02*
X92752878Y-69519263D01*
X92752878Y-69233549D02*
X91752878Y-69233549D01*
X91895736Y-69328787D01*
X91990974Y-69424025D01*
X92038593Y-69519263D01*
X91752878Y-68614501D02*
X91752878Y-67947835D01*
X92752878Y-68376406D01*
X104685798Y-69859576D02*
X104209608Y-70192909D01*
X104685798Y-70431004D02*
X103685798Y-70431004D01*
X103685798Y-70050052D01*
X103733418Y-69954814D01*
X103781037Y-69907195D01*
X103876275Y-69859576D01*
X104019132Y-69859576D01*
X104114370Y-69907195D01*
X104161989Y-69954814D01*
X104209608Y-70050052D01*
X104209608Y-70431004D01*
X104685798Y-68907195D02*
X104685798Y-69478623D01*
X104685798Y-69192909D02*
X103685798Y-69192909D01*
X103828656Y-69288147D01*
X103923894Y-69383385D01*
X103971513Y-69478623D01*
X103685798Y-68050052D02*
X103685798Y-68240528D01*
X103733418Y-68335766D01*
X103781037Y-68383385D01*
X103923894Y-68478623D01*
X104114370Y-68526242D01*
X104495322Y-68526242D01*
X104590560Y-68478623D01*
X104638179Y-68431004D01*
X104685798Y-68335766D01*
X104685798Y-68145290D01*
X104638179Y-68050052D01*
X104590560Y-68002433D01*
X104495322Y-67954814D01*
X104257227Y-67954814D01*
X104161989Y-68002433D01*
X104114370Y-68050052D01*
X104066751Y-68145290D01*
X104066751Y-68335766D01*
X104114370Y-68431004D01*
X104161989Y-68478623D01*
X104257227Y-68526242D01*
X28716440Y-48891899D02*
X28383107Y-48415709D01*
X28145012Y-48891899D02*
X28145012Y-47891899D01*
X28525964Y-47891899D01*
X28621202Y-47939519D01*
X28668821Y-47987138D01*
X28716440Y-48082376D01*
X28716440Y-48225233D01*
X28668821Y-48320471D01*
X28621202Y-48368090D01*
X28525964Y-48415709D01*
X28145012Y-48415709D01*
X29668821Y-48891899D02*
X29097393Y-48891899D01*
X29383107Y-48891899D02*
X29383107Y-47891899D01*
X29287869Y-48034757D01*
X29192631Y-48129995D01*
X29097393Y-48177614D01*
X30573583Y-47891899D02*
X30097393Y-47891899D01*
X30049774Y-48368090D01*
X30097393Y-48320471D01*
X30192631Y-48272852D01*
X30430726Y-48272852D01*
X30525964Y-48320471D01*
X30573583Y-48368090D01*
X30621202Y-48463328D01*
X30621202Y-48701423D01*
X30573583Y-48796661D01*
X30525964Y-48844280D01*
X30430726Y-48891899D01*
X30192631Y-48891899D01*
X30097393Y-48844280D01*
X30049774Y-48796661D01*
X92930338Y-63320316D02*
X92454148Y-63653649D01*
X92930338Y-63891744D02*
X91930338Y-63891744D01*
X91930338Y-63510792D01*
X91977958Y-63415554D01*
X92025577Y-63367935D01*
X92120815Y-63320316D01*
X92263672Y-63320316D01*
X92358910Y-63367935D01*
X92406529Y-63415554D01*
X92454148Y-63510792D01*
X92454148Y-63891744D01*
X92930338Y-62367935D02*
X92930338Y-62939363D01*
X92930338Y-62653649D02*
X91930338Y-62653649D01*
X92073196Y-62748887D01*
X92168434Y-62844125D01*
X92216053Y-62939363D01*
X91930338Y-62034601D02*
X91930338Y-61415554D01*
X92311291Y-61748887D01*
X92311291Y-61606030D01*
X92358910Y-61510792D01*
X92406529Y-61463173D01*
X92501767Y-61415554D01*
X92739862Y-61415554D01*
X92835100Y-61463173D01*
X92882719Y-61510792D01*
X92930338Y-61606030D01*
X92930338Y-61891744D01*
X92882719Y-61986982D01*
X92835100Y-62034601D01*
X103804418Y-64506736D02*
X103328228Y-64840069D01*
X103804418Y-65078164D02*
X102804418Y-65078164D01*
X102804418Y-64697212D01*
X102852038Y-64601974D01*
X102899657Y-64554355D01*
X102994895Y-64506736D01*
X103137752Y-64506736D01*
X103232990Y-64554355D01*
X103280609Y-64601974D01*
X103328228Y-64697212D01*
X103328228Y-65078164D01*
X103804418Y-63554355D02*
X103804418Y-64125783D01*
X103804418Y-63840069D02*
X102804418Y-63840069D01*
X102947276Y-63935307D01*
X103042514Y-64030545D01*
X103090133Y-64125783D01*
X102899657Y-63173402D02*
X102852038Y-63125783D01*
X102804418Y-63030545D01*
X102804418Y-62792450D01*
X102852038Y-62697212D01*
X102899657Y-62649593D01*
X102994895Y-62601974D01*
X103090133Y-62601974D01*
X103232990Y-62649593D01*
X103804418Y-63221021D01*
X103804418Y-62601974D01*
X28684631Y-26174139D02*
X28351298Y-25697949D01*
X28113202Y-26174139D02*
X28113202Y-25174139D01*
X28494155Y-25174139D01*
X28589393Y-25221759D01*
X28637012Y-25269378D01*
X28684631Y-25364616D01*
X28684631Y-25507473D01*
X28637012Y-25602711D01*
X28589393Y-25650330D01*
X28494155Y-25697949D01*
X28113202Y-25697949D01*
X29256059Y-25602711D02*
X29160821Y-25555092D01*
X29113202Y-25507473D01*
X29065583Y-25412235D01*
X29065583Y-25364616D01*
X29113202Y-25269378D01*
X29160821Y-25221759D01*
X29256059Y-25174139D01*
X29446536Y-25174139D01*
X29541774Y-25221759D01*
X29589393Y-25269378D01*
X29637012Y-25364616D01*
X29637012Y-25412235D01*
X29589393Y-25507473D01*
X29541774Y-25555092D01*
X29446536Y-25602711D01*
X29256059Y-25602711D01*
X29160821Y-25650330D01*
X29113202Y-25697949D01*
X29065583Y-25793187D01*
X29065583Y-25983663D01*
X29113202Y-26078901D01*
X29160821Y-26126520D01*
X29256059Y-26174139D01*
X29446536Y-26174139D01*
X29541774Y-26126520D01*
X29589393Y-26078901D01*
X29637012Y-25983663D01*
X29637012Y-25793187D01*
X29589393Y-25697949D01*
X29541774Y-25650330D01*
X29446536Y-25602711D01*
X29101191Y-31056019D02*
X28767858Y-30579829D01*
X28529762Y-31056019D02*
X28529762Y-30056019D01*
X28910715Y-30056019D01*
X29005953Y-30103639D01*
X29053572Y-30151258D01*
X29101191Y-30246496D01*
X29101191Y-30389353D01*
X29053572Y-30484591D01*
X29005953Y-30532210D01*
X28910715Y-30579829D01*
X28529762Y-30579829D01*
X29434524Y-30056019D02*
X30101191Y-30056019D01*
X29672619Y-31056019D01*
X28765911Y-38833499D02*
X28432578Y-38357309D01*
X28194482Y-38833499D02*
X28194482Y-37833499D01*
X28575435Y-37833499D01*
X28670673Y-37881119D01*
X28718292Y-37928738D01*
X28765911Y-38023976D01*
X28765911Y-38166833D01*
X28718292Y-38262071D01*
X28670673Y-38309690D01*
X28575435Y-38357309D01*
X28194482Y-38357309D01*
X29623054Y-37833499D02*
X29432578Y-37833499D01*
X29337339Y-37881119D01*
X29289720Y-37928738D01*
X29194482Y-38071595D01*
X29146863Y-38262071D01*
X29146863Y-38643023D01*
X29194482Y-38738261D01*
X29242101Y-38785880D01*
X29337339Y-38833499D01*
X29527816Y-38833499D01*
X29623054Y-38785880D01*
X29670673Y-38738261D01*
X29718292Y-38643023D01*
X29718292Y-38404928D01*
X29670673Y-38309690D01*
X29623054Y-38262071D01*
X29527816Y-38214452D01*
X29337339Y-38214452D01*
X29242101Y-38262071D01*
X29194482Y-38309690D01*
X29146863Y-38404928D01*
X58463373Y-38697420D02*
X58130040Y-38221230D01*
X57891944Y-38697420D02*
X57891944Y-37697420D01*
X58272897Y-37697420D01*
X58368135Y-37745040D01*
X58415754Y-37792659D01*
X58463373Y-37887897D01*
X58463373Y-38030754D01*
X58415754Y-38125992D01*
X58368135Y-38173611D01*
X58272897Y-38221230D01*
X57891944Y-38221230D01*
X59320516Y-38030754D02*
X59320516Y-38697420D01*
X59082420Y-37649801D02*
X58844325Y-38364087D01*
X59463373Y-38364087D01*
X30711551Y-79011219D02*
X30378218Y-78535029D01*
X30140122Y-79011219D02*
X30140122Y-78011219D01*
X30521075Y-78011219D01*
X30616313Y-78058839D01*
X30663932Y-78106458D01*
X30711551Y-78201696D01*
X30711551Y-78344553D01*
X30663932Y-78439791D01*
X30616313Y-78487410D01*
X30521075Y-78535029D01*
X30140122Y-78535029D01*
X31044884Y-78011219D02*
X31663932Y-78011219D01*
X31330598Y-78392172D01*
X31473456Y-78392172D01*
X31568694Y-78439791D01*
X31616313Y-78487410D01*
X31663932Y-78582648D01*
X31663932Y-78820743D01*
X31616313Y-78915981D01*
X31568694Y-78963600D01*
X31473456Y-79011219D01*
X31187741Y-79011219D01*
X31092503Y-78963600D01*
X31044884Y-78915981D01*
X47197420Y-44736706D02*
X46721230Y-45070040D01*
X47197420Y-45308135D02*
X46197420Y-45308135D01*
X46197420Y-44927182D01*
X46245040Y-44831944D01*
X46292659Y-44784325D01*
X46387897Y-44736706D01*
X46530754Y-44736706D01*
X46625992Y-44784325D01*
X46673611Y-44831944D01*
X46721230Y-44927182D01*
X46721230Y-45308135D01*
X47197420Y-43784325D02*
X47197420Y-44355754D01*
X47197420Y-44070040D02*
X46197420Y-44070040D01*
X46340278Y-44165278D01*
X46435516Y-44260516D01*
X46483135Y-44355754D01*
X40246711Y-45940419D02*
X39770520Y-45940419D01*
X39770520Y-44940419D01*
X40532425Y-45035658D02*
X40580044Y-44988039D01*
X40675282Y-44940419D01*
X40913378Y-44940419D01*
X41008616Y-44988039D01*
X41056235Y-45035658D01*
X41103854Y-45130896D01*
X41103854Y-45226134D01*
X41056235Y-45368991D01*
X40484806Y-45940419D01*
X41103854Y-45940419D01*
X35292998Y-23267145D02*
X35292998Y-23743336D01*
X34292998Y-23743336D01*
X35292998Y-22410002D02*
X35292998Y-22981431D01*
X35292998Y-22695717D02*
X34292998Y-22695717D01*
X34435856Y-22790955D01*
X34531094Y-22886193D01*
X34578713Y-22981431D01*
X28252639Y-55961864D02*
X28966925Y-55961864D01*
X29109782Y-56009483D01*
X29205020Y-56104721D01*
X29252639Y-56247578D01*
X29252639Y-56342816D01*
X28252639Y-55580911D02*
X28252639Y-54914245D01*
X29252639Y-55342816D01*
X43341000Y-79511576D02*
X43388619Y-79559195D01*
X43436238Y-79702052D01*
X43436238Y-79797290D01*
X43388619Y-79940147D01*
X43293381Y-80035385D01*
X43198143Y-80083004D01*
X43007667Y-80130623D01*
X42864810Y-80130623D01*
X42674334Y-80083004D01*
X42579096Y-80035385D01*
X42483858Y-79940147D01*
X42436238Y-79797290D01*
X42436238Y-79702052D01*
X42483858Y-79559195D01*
X42531477Y-79511576D01*
X42436238Y-78606814D02*
X42436238Y-79083004D01*
X42912429Y-79130623D01*
X42864810Y-79083004D01*
X42817191Y-78987766D01*
X42817191Y-78749671D01*
X42864810Y-78654433D01*
X42912429Y-78606814D01*
X43007667Y-78559195D01*
X43245762Y-78559195D01*
X43341000Y-78606814D01*
X43388619Y-78654433D01*
X43436238Y-78749671D01*
X43436238Y-78987766D01*
X43388619Y-79083004D01*
X43341000Y-79130623D01*
X42531477Y-78178242D02*
X42483858Y-78130623D01*
X42436238Y-78035385D01*
X42436238Y-77797290D01*
X42483858Y-77702052D01*
X42531477Y-77654433D01*
X42626715Y-77606814D01*
X42721953Y-77606814D01*
X42864810Y-77654433D01*
X43436238Y-78225861D01*
X43436238Y-77606814D01*
X64805000Y-61382216D02*
X64852619Y-61429835D01*
X64900238Y-61572692D01*
X64900238Y-61667930D01*
X64852619Y-61810787D01*
X64757381Y-61906025D01*
X64662143Y-61953644D01*
X64471667Y-62001263D01*
X64328810Y-62001263D01*
X64138334Y-61953644D01*
X64043096Y-61906025D01*
X63947858Y-61810787D01*
X63900238Y-61667930D01*
X63900238Y-61572692D01*
X63947858Y-61429835D01*
X63995477Y-61382216D01*
X63900238Y-60477454D02*
X63900238Y-60953644D01*
X64376429Y-61001263D01*
X64328810Y-60953644D01*
X64281191Y-60858406D01*
X64281191Y-60620311D01*
X64328810Y-60525073D01*
X64376429Y-60477454D01*
X64471667Y-60429835D01*
X64709762Y-60429835D01*
X64805000Y-60477454D01*
X64852619Y-60525073D01*
X64900238Y-60620311D01*
X64900238Y-60858406D01*
X64852619Y-60953644D01*
X64805000Y-61001263D01*
X64900238Y-59477454D02*
X64900238Y-60048882D01*
X64900238Y-59763168D02*
X63900238Y-59763168D01*
X64043096Y-59858406D01*
X64138334Y-59953644D01*
X64185953Y-60048882D01*
X38440480Y-64811056D02*
X38488099Y-64858675D01*
X38535718Y-65001532D01*
X38535718Y-65096770D01*
X38488099Y-65239627D01*
X38392861Y-65334865D01*
X38297623Y-65382484D01*
X38107147Y-65430103D01*
X37964290Y-65430103D01*
X37773814Y-65382484D01*
X37678576Y-65334865D01*
X37583338Y-65239627D01*
X37535718Y-65096770D01*
X37535718Y-65001532D01*
X37583338Y-64858675D01*
X37630957Y-64811056D01*
X37869052Y-63953913D02*
X38535718Y-63953913D01*
X37488099Y-64192008D02*
X38202385Y-64430103D01*
X38202385Y-63811056D01*
X38535718Y-63382484D02*
X38535718Y-63192008D01*
X38488099Y-63096770D01*
X38440480Y-63049151D01*
X38297623Y-62953913D01*
X38107147Y-62906294D01*
X37726195Y-62906294D01*
X37630957Y-62953913D01*
X37583338Y-63001532D01*
X37535718Y-63096770D01*
X37535718Y-63287246D01*
X37583338Y-63382484D01*
X37630957Y-63430103D01*
X37726195Y-63477722D01*
X37964290Y-63477722D01*
X38059528Y-63430103D01*
X38107147Y-63382484D01*
X38154766Y-63287246D01*
X38154766Y-63096770D01*
X38107147Y-63001532D01*
X38059528Y-62953913D01*
X37964290Y-62906294D01*
X65123200Y-65072616D02*
X65170819Y-65120235D01*
X65218438Y-65263092D01*
X65218438Y-65358330D01*
X65170819Y-65501187D01*
X65075581Y-65596425D01*
X64980343Y-65644044D01*
X64789867Y-65691663D01*
X64647010Y-65691663D01*
X64456534Y-65644044D01*
X64361296Y-65596425D01*
X64266058Y-65501187D01*
X64218438Y-65358330D01*
X64218438Y-65263092D01*
X64266058Y-65120235D01*
X64313677Y-65072616D01*
X64551772Y-64215473D02*
X65218438Y-64215473D01*
X64170819Y-64453568D02*
X64885105Y-64691663D01*
X64885105Y-64072616D01*
X64218438Y-63786901D02*
X64218438Y-63120235D01*
X65218438Y-63548806D01*
X81531400Y-60547221D02*
X81483781Y-60594840D01*
X81340924Y-60642459D01*
X81245686Y-60642459D01*
X81102829Y-60594840D01*
X81007591Y-60499602D01*
X80959972Y-60404364D01*
X80912353Y-60213888D01*
X80912353Y-60071031D01*
X80959972Y-59880555D01*
X81007591Y-59785317D01*
X81102829Y-59690079D01*
X81245686Y-59642459D01*
X81340924Y-59642459D01*
X81483781Y-59690079D01*
X81531400Y-59737698D01*
X82388543Y-59975793D02*
X82388543Y-60642459D01*
X82150448Y-59594840D02*
X81912353Y-60309126D01*
X82531400Y-60309126D01*
X83340924Y-59642459D02*
X83150448Y-59642459D01*
X83055210Y-59690079D01*
X83007591Y-59737698D01*
X82912353Y-59880555D01*
X82864734Y-60071031D01*
X82864734Y-60451983D01*
X82912353Y-60547221D01*
X82959972Y-60594840D01*
X83055210Y-60642459D01*
X83245686Y-60642459D01*
X83340924Y-60594840D01*
X83388543Y-60547221D01*
X83436162Y-60451983D01*
X83436162Y-60213888D01*
X83388543Y-60118650D01*
X83340924Y-60071031D01*
X83245686Y-60023412D01*
X83055210Y-60023412D01*
X82959972Y-60071031D01*
X82912353Y-60118650D01*
X82864734Y-60213888D01*
X72936080Y-74976296D02*
X72983699Y-75023915D01*
X73031318Y-75166772D01*
X73031318Y-75262010D01*
X72983699Y-75404867D01*
X72888461Y-75500105D01*
X72793223Y-75547724D01*
X72602747Y-75595343D01*
X72459890Y-75595343D01*
X72269414Y-75547724D01*
X72174176Y-75500105D01*
X72078938Y-75404867D01*
X72031318Y-75262010D01*
X72031318Y-75166772D01*
X72078938Y-75023915D01*
X72126557Y-74976296D01*
X72364652Y-74119153D02*
X73031318Y-74119153D01*
X71983699Y-74357248D02*
X72697985Y-74595343D01*
X72697985Y-73976296D01*
X72031318Y-73119153D02*
X72031318Y-73595343D01*
X72507509Y-73642962D01*
X72459890Y-73595343D01*
X72412271Y-73500105D01*
X72412271Y-73262010D01*
X72459890Y-73166772D01*
X72507509Y-73119153D01*
X72602747Y-73071534D01*
X72840842Y-73071534D01*
X72936080Y-73119153D01*
X72983699Y-73166772D01*
X73031318Y-73262010D01*
X73031318Y-73500105D01*
X72983699Y-73595343D01*
X72936080Y-73642962D01*
X98189760Y-77418616D02*
X98237379Y-77466235D01*
X98284998Y-77609092D01*
X98284998Y-77704330D01*
X98237379Y-77847187D01*
X98142141Y-77942425D01*
X98046903Y-77990044D01*
X97856427Y-78037663D01*
X97713570Y-78037663D01*
X97523094Y-77990044D01*
X97427856Y-77942425D01*
X97332618Y-77847187D01*
X97284998Y-77704330D01*
X97284998Y-77609092D01*
X97332618Y-77466235D01*
X97380237Y-77418616D01*
X97618332Y-76561473D02*
X98284998Y-76561473D01*
X97237379Y-76799568D02*
X97951665Y-77037663D01*
X97951665Y-76418616D01*
X97284998Y-75847187D02*
X97284998Y-75751949D01*
X97332618Y-75656711D01*
X97380237Y-75609092D01*
X97475475Y-75561473D01*
X97665951Y-75513854D01*
X97904046Y-75513854D01*
X98094522Y-75561473D01*
X98189760Y-75609092D01*
X98237379Y-75656711D01*
X98284998Y-75751949D01*
X98284998Y-75847187D01*
X98237379Y-75942425D01*
X98189760Y-75990044D01*
X98094522Y-76037663D01*
X97904046Y-76085282D01*
X97665951Y-76085282D01*
X97475475Y-76037663D01*
X97380237Y-75990044D01*
X97332618Y-75942425D01*
X97284998Y-75847187D01*
X67487000Y-82294181D02*
X67439381Y-82341800D01*
X67296524Y-82389419D01*
X67201286Y-82389419D01*
X67058429Y-82341800D01*
X66963191Y-82246562D01*
X66915572Y-82151324D01*
X66867953Y-81960848D01*
X66867953Y-81817991D01*
X66915572Y-81627515D01*
X66963191Y-81532277D01*
X67058429Y-81437039D01*
X67201286Y-81389419D01*
X67296524Y-81389419D01*
X67439381Y-81437039D01*
X67487000Y-81484658D01*
X67820334Y-81389419D02*
X68439381Y-81389419D01*
X68106048Y-81770372D01*
X68248905Y-81770372D01*
X68344143Y-81817991D01*
X68391762Y-81865610D01*
X68439381Y-81960848D01*
X68439381Y-82198943D01*
X68391762Y-82294181D01*
X68344143Y-82341800D01*
X68248905Y-82389419D01*
X67963191Y-82389419D01*
X67867953Y-82341800D01*
X67820334Y-82294181D01*
X69010810Y-81817991D02*
X68915572Y-81770372D01*
X68867953Y-81722753D01*
X68820334Y-81627515D01*
X68820334Y-81579896D01*
X68867953Y-81484658D01*
X68915572Y-81437039D01*
X69010810Y-81389419D01*
X69201286Y-81389419D01*
X69296524Y-81437039D01*
X69344143Y-81484658D01*
X69391762Y-81579896D01*
X69391762Y-81627515D01*
X69344143Y-81722753D01*
X69296524Y-81770372D01*
X69201286Y-81817991D01*
X69010810Y-81817991D01*
X68915572Y-81865610D01*
X68867953Y-81913229D01*
X68820334Y-82008467D01*
X68820334Y-82198943D01*
X68867953Y-82294181D01*
X68915572Y-82341800D01*
X69010810Y-82389419D01*
X69201286Y-82389419D01*
X69296524Y-82341800D01*
X69344143Y-82294181D01*
X69391762Y-82198943D01*
X69391762Y-82008467D01*
X69344143Y-81913229D01*
X69296524Y-81865610D01*
X69201286Y-81817991D01*
X36376680Y-79311781D02*
X36329061Y-79359400D01*
X36186204Y-79407019D01*
X36090966Y-79407019D01*
X35948109Y-79359400D01*
X35852871Y-79264162D01*
X35805252Y-79168924D01*
X35757633Y-78978448D01*
X35757633Y-78835591D01*
X35805252Y-78645115D01*
X35852871Y-78549877D01*
X35948109Y-78454639D01*
X36090966Y-78407019D01*
X36186204Y-78407019D01*
X36329061Y-78454639D01*
X36376680Y-78502258D01*
X36710014Y-78407019D02*
X37329061Y-78407019D01*
X36995728Y-78787972D01*
X37138585Y-78787972D01*
X37233823Y-78835591D01*
X37281442Y-78883210D01*
X37329061Y-78978448D01*
X37329061Y-79216543D01*
X37281442Y-79311781D01*
X37233823Y-79359400D01*
X37138585Y-79407019D01*
X36852871Y-79407019D01*
X36757633Y-79359400D01*
X36710014Y-79311781D01*
X38186204Y-78407019D02*
X37995728Y-78407019D01*
X37900490Y-78454639D01*
X37852871Y-78502258D01*
X37757633Y-78645115D01*
X37710014Y-78835591D01*
X37710014Y-79216543D01*
X37757633Y-79311781D01*
X37805252Y-79359400D01*
X37900490Y-79407019D01*
X38090966Y-79407019D01*
X38186204Y-79359400D01*
X38233823Y-79311781D01*
X38281442Y-79216543D01*
X38281442Y-78978448D01*
X38233823Y-78883210D01*
X38186204Y-78835591D01*
X38090966Y-78787972D01*
X37900490Y-78787972D01*
X37805252Y-78835591D01*
X37757633Y-78883210D01*
X37710014Y-78978448D01*
X27903640Y-28700181D02*
X27856021Y-28747800D01*
X27713164Y-28795419D01*
X27617926Y-28795419D01*
X27475069Y-28747800D01*
X27379831Y-28652562D01*
X27332212Y-28557324D01*
X27284593Y-28366848D01*
X27284593Y-28223991D01*
X27332212Y-28033515D01*
X27379831Y-27938277D01*
X27475069Y-27843039D01*
X27617926Y-27795419D01*
X27713164Y-27795419D01*
X27856021Y-27843039D01*
X27903640Y-27890658D01*
X28236974Y-27795419D02*
X28856021Y-27795419D01*
X28522688Y-28176372D01*
X28665545Y-28176372D01*
X28760783Y-28223991D01*
X28808402Y-28271610D01*
X28856021Y-28366848D01*
X28856021Y-28604943D01*
X28808402Y-28700181D01*
X28760783Y-28747800D01*
X28665545Y-28795419D01*
X28379831Y-28795419D01*
X28284593Y-28747800D01*
X28236974Y-28700181D01*
X29713164Y-28128753D02*
X29713164Y-28795419D01*
X29475069Y-27747800D02*
X29236974Y-28462086D01*
X29856021Y-28462086D01*
X28045880Y-36558941D02*
X27998261Y-36606560D01*
X27855404Y-36654179D01*
X27760166Y-36654179D01*
X27617309Y-36606560D01*
X27522071Y-36511322D01*
X27474452Y-36416084D01*
X27426833Y-36225608D01*
X27426833Y-36082751D01*
X27474452Y-35892275D01*
X27522071Y-35797037D01*
X27617309Y-35701799D01*
X27760166Y-35654179D01*
X27855404Y-35654179D01*
X27998261Y-35701799D01*
X28045880Y-35749418D01*
X28379214Y-35654179D02*
X28998261Y-35654179D01*
X28664928Y-36035132D01*
X28807785Y-36035132D01*
X28903023Y-36082751D01*
X28950642Y-36130370D01*
X28998261Y-36225608D01*
X28998261Y-36463703D01*
X28950642Y-36558941D01*
X28903023Y-36606560D01*
X28807785Y-36654179D01*
X28522071Y-36654179D01*
X28426833Y-36606560D01*
X28379214Y-36558941D01*
X29331595Y-35654179D02*
X29950642Y-35654179D01*
X29617309Y-36035132D01*
X29760166Y-36035132D01*
X29855404Y-36082751D01*
X29903023Y-36130370D01*
X29950642Y-36225608D01*
X29950642Y-36463703D01*
X29903023Y-36558941D01*
X29855404Y-36606560D01*
X29760166Y-36654179D01*
X29474452Y-36654179D01*
X29379214Y-36606560D01*
X29331595Y-36558941D01*
X28152560Y-33637941D02*
X28104941Y-33685560D01*
X27962084Y-33733179D01*
X27866846Y-33733179D01*
X27723989Y-33685560D01*
X27628751Y-33590322D01*
X27581132Y-33495084D01*
X27533513Y-33304608D01*
X27533513Y-33161751D01*
X27581132Y-32971275D01*
X27628751Y-32876037D01*
X27723989Y-32780799D01*
X27866846Y-32733179D01*
X27962084Y-32733179D01*
X28104941Y-32780799D01*
X28152560Y-32828418D01*
X28485894Y-32733179D02*
X29104941Y-32733179D01*
X28771608Y-33114132D01*
X28914465Y-33114132D01*
X29009703Y-33161751D01*
X29057322Y-33209370D01*
X29104941Y-33304608D01*
X29104941Y-33542703D01*
X29057322Y-33637941D01*
X29009703Y-33685560D01*
X28914465Y-33733179D01*
X28628751Y-33733179D01*
X28533513Y-33685560D01*
X28485894Y-33637941D01*
X29485894Y-32828418D02*
X29533513Y-32780799D01*
X29628751Y-32733179D01*
X29866846Y-32733179D01*
X29962084Y-32780799D01*
X30009703Y-32828418D01*
X30057322Y-32923656D01*
X30057322Y-33018894D01*
X30009703Y-33161751D01*
X29438275Y-33733179D01*
X30057322Y-33733179D01*
X42752800Y-23267316D02*
X42800419Y-23314935D01*
X42848038Y-23457792D01*
X42848038Y-23553030D01*
X42800419Y-23695887D01*
X42705181Y-23791125D01*
X42609943Y-23838744D01*
X42419467Y-23886363D01*
X42276610Y-23886363D01*
X42086134Y-23838744D01*
X41990896Y-23791125D01*
X41895658Y-23695887D01*
X41848038Y-23553030D01*
X41848038Y-23457792D01*
X41895658Y-23314935D01*
X41943277Y-23267316D01*
X41848038Y-22933982D02*
X41848038Y-22314935D01*
X42228991Y-22648268D01*
X42228991Y-22505411D01*
X42276610Y-22410173D01*
X42324229Y-22362554D01*
X42419467Y-22314935D01*
X42657562Y-22314935D01*
X42752800Y-22362554D01*
X42800419Y-22410173D01*
X42848038Y-22505411D01*
X42848038Y-22791125D01*
X42800419Y-22886363D01*
X42752800Y-22933982D01*
X42848038Y-21362554D02*
X42848038Y-21933982D01*
X42848038Y-21648268D02*
X41848038Y-21648268D01*
X41990896Y-21743506D01*
X42086134Y-21838744D01*
X42133753Y-21933982D01*
X50962800Y-23052316D02*
X51010419Y-23099935D01*
X51058038Y-23242792D01*
X51058038Y-23338030D01*
X51010419Y-23480887D01*
X50915181Y-23576125D01*
X50819943Y-23623744D01*
X50629467Y-23671363D01*
X50486610Y-23671363D01*
X50296134Y-23623744D01*
X50200896Y-23576125D01*
X50105658Y-23480887D01*
X50058038Y-23338030D01*
X50058038Y-23242792D01*
X50105658Y-23099935D01*
X50153277Y-23052316D01*
X50058038Y-22718982D02*
X50058038Y-22099935D01*
X50438991Y-22433268D01*
X50438991Y-22290411D01*
X50486610Y-22195173D01*
X50534229Y-22147554D01*
X50629467Y-22099935D01*
X50867562Y-22099935D01*
X50962800Y-22147554D01*
X51010419Y-22195173D01*
X51058038Y-22290411D01*
X51058038Y-22576125D01*
X51010419Y-22671363D01*
X50962800Y-22718982D01*
X50058038Y-21480887D02*
X50058038Y-21385649D01*
X50105658Y-21290411D01*
X50153277Y-21242792D01*
X50248515Y-21195173D01*
X50438991Y-21147554D01*
X50677086Y-21147554D01*
X50867562Y-21195173D01*
X50962800Y-21242792D01*
X51010419Y-21290411D01*
X51058038Y-21385649D01*
X51058038Y-21480887D01*
X51010419Y-21576125D01*
X50962800Y-21623744D01*
X50867562Y-21671363D01*
X50677086Y-21718982D01*
X50438991Y-21718982D01*
X50248515Y-21671363D01*
X50153277Y-21623744D01*
X50105658Y-21576125D01*
X50058038Y-21480887D01*
X42557800Y-35322316D02*
X42605419Y-35369935D01*
X42653038Y-35512792D01*
X42653038Y-35608030D01*
X42605419Y-35750887D01*
X42510181Y-35846125D01*
X42414943Y-35893744D01*
X42224467Y-35941363D01*
X42081610Y-35941363D01*
X41891134Y-35893744D01*
X41795896Y-35846125D01*
X41700658Y-35750887D01*
X41653038Y-35608030D01*
X41653038Y-35512792D01*
X41700658Y-35369935D01*
X41748277Y-35322316D01*
X41748277Y-34941363D02*
X41700658Y-34893744D01*
X41653038Y-34798506D01*
X41653038Y-34560411D01*
X41700658Y-34465173D01*
X41748277Y-34417554D01*
X41843515Y-34369935D01*
X41938753Y-34369935D01*
X42081610Y-34417554D01*
X42653038Y-34988982D01*
X42653038Y-34369935D01*
X41653038Y-34036601D02*
X41653038Y-33369935D01*
X42653038Y-33798506D01*
X40019440Y-38199781D02*
X39971821Y-38247400D01*
X39828964Y-38295019D01*
X39733726Y-38295019D01*
X39590869Y-38247400D01*
X39495631Y-38152162D01*
X39448012Y-38056924D01*
X39400393Y-37866448D01*
X39400393Y-37723591D01*
X39448012Y-37533115D01*
X39495631Y-37437877D01*
X39590869Y-37342639D01*
X39733726Y-37295019D01*
X39828964Y-37295019D01*
X39971821Y-37342639D01*
X40019440Y-37390258D01*
X40400393Y-37390258D02*
X40448012Y-37342639D01*
X40543250Y-37295019D01*
X40781345Y-37295019D01*
X40876583Y-37342639D01*
X40924202Y-37390258D01*
X40971821Y-37485496D01*
X40971821Y-37580734D01*
X40924202Y-37723591D01*
X40352774Y-38295019D01*
X40971821Y-38295019D01*
X41876583Y-37295019D02*
X41400393Y-37295019D01*
X41352774Y-37771210D01*
X41400393Y-37723591D01*
X41495631Y-37675972D01*
X41733726Y-37675972D01*
X41828964Y-37723591D01*
X41876583Y-37771210D01*
X41924202Y-37866448D01*
X41924202Y-38104543D01*
X41876583Y-38199781D01*
X41828964Y-38247400D01*
X41733726Y-38295019D01*
X41495631Y-38295019D01*
X41400393Y-38247400D01*
X41352774Y-38199781D01*
X33882680Y-29694141D02*
X33835061Y-29741760D01*
X33692204Y-29789379D01*
X33596966Y-29789379D01*
X33454109Y-29741760D01*
X33358871Y-29646522D01*
X33311252Y-29551284D01*
X33263633Y-29360808D01*
X33263633Y-29217951D01*
X33311252Y-29027475D01*
X33358871Y-28932237D01*
X33454109Y-28836999D01*
X33596966Y-28789379D01*
X33692204Y-28789379D01*
X33835061Y-28836999D01*
X33882680Y-28884618D01*
X34263633Y-28884618D02*
X34311252Y-28836999D01*
X34406490Y-28789379D01*
X34644585Y-28789379D01*
X34739823Y-28836999D01*
X34787442Y-28884618D01*
X34835061Y-28979856D01*
X34835061Y-29075094D01*
X34787442Y-29217951D01*
X34216014Y-29789379D01*
X34835061Y-29789379D01*
X35692204Y-29122713D02*
X35692204Y-29789379D01*
X35454109Y-28741760D02*
X35216014Y-29456046D01*
X35835061Y-29456046D01*
X37174640Y-23569381D02*
X37127021Y-23617000D01*
X36984164Y-23664619D01*
X36888926Y-23664619D01*
X36746069Y-23617000D01*
X36650831Y-23521762D01*
X36603212Y-23426524D01*
X36555593Y-23236048D01*
X36555593Y-23093191D01*
X36603212Y-22902715D01*
X36650831Y-22807477D01*
X36746069Y-22712239D01*
X36888926Y-22664619D01*
X36984164Y-22664619D01*
X37127021Y-22712239D01*
X37174640Y-22759858D01*
X37555593Y-22759858D02*
X37603212Y-22712239D01*
X37698450Y-22664619D01*
X37936545Y-22664619D01*
X38031783Y-22712239D01*
X38079402Y-22759858D01*
X38127021Y-22855096D01*
X38127021Y-22950334D01*
X38079402Y-23093191D01*
X37507974Y-23664619D01*
X38127021Y-23664619D01*
X38507974Y-22759858D02*
X38555593Y-22712239D01*
X38650831Y-22664619D01*
X38888926Y-22664619D01*
X38984164Y-22712239D01*
X39031783Y-22759858D01*
X39079402Y-22855096D01*
X39079402Y-22950334D01*
X39031783Y-23093191D01*
X38460355Y-23664619D01*
X39079402Y-23664619D01*
X58957800Y-58786601D02*
X58910181Y-58834220D01*
X58767324Y-58881839D01*
X58672086Y-58881839D01*
X58529229Y-58834220D01*
X58433991Y-58738982D01*
X58386372Y-58643744D01*
X58338753Y-58453268D01*
X58338753Y-58310411D01*
X58386372Y-58119935D01*
X58433991Y-58024697D01*
X58529229Y-57929459D01*
X58672086Y-57881839D01*
X58767324Y-57881839D01*
X58910181Y-57929459D01*
X58957800Y-57977078D01*
X59910181Y-58881839D02*
X59338753Y-58881839D01*
X59624467Y-58881839D02*
X59624467Y-57881839D01*
X59529229Y-58024697D01*
X59433991Y-58119935D01*
X59338753Y-58167554D01*
X60481610Y-58310411D02*
X60386372Y-58262792D01*
X60338753Y-58215173D01*
X60291134Y-58119935D01*
X60291134Y-58072316D01*
X60338753Y-57977078D01*
X60386372Y-57929459D01*
X60481610Y-57881839D01*
X60672086Y-57881839D01*
X60767324Y-57929459D01*
X60814943Y-57977078D01*
X60862562Y-58072316D01*
X60862562Y-58119935D01*
X60814943Y-58215173D01*
X60767324Y-58262792D01*
X60672086Y-58310411D01*
X60481610Y-58310411D01*
X60386372Y-58358030D01*
X60338753Y-58405649D01*
X60291134Y-58500887D01*
X60291134Y-58691363D01*
X60338753Y-58786601D01*
X60386372Y-58834220D01*
X60481610Y-58881839D01*
X60672086Y-58881839D01*
X60767324Y-58834220D01*
X60814943Y-58786601D01*
X60862562Y-58691363D01*
X60862562Y-58500887D01*
X60814943Y-58405649D01*
X60767324Y-58358030D01*
X60672086Y-58310411D01*
X97453000Y-47552301D02*
X97405381Y-47599920D01*
X97262524Y-47647539D01*
X97167286Y-47647539D01*
X97024429Y-47599920D01*
X96929191Y-47504682D01*
X96881572Y-47409444D01*
X96833953Y-47218968D01*
X96833953Y-47076111D01*
X96881572Y-46885635D01*
X96929191Y-46790397D01*
X97024429Y-46695159D01*
X97167286Y-46647539D01*
X97262524Y-46647539D01*
X97405381Y-46695159D01*
X97453000Y-46742778D01*
X98405381Y-47647539D02*
X97833953Y-47647539D01*
X98119667Y-47647539D02*
X98119667Y-46647539D01*
X98024429Y-46790397D01*
X97929191Y-46885635D01*
X97833953Y-46933254D01*
X98786334Y-46742778D02*
X98833953Y-46695159D01*
X98929191Y-46647539D01*
X99167286Y-46647539D01*
X99262524Y-46695159D01*
X99310143Y-46742778D01*
X99357762Y-46838016D01*
X99357762Y-46933254D01*
X99310143Y-47076111D01*
X98738715Y-47647539D01*
X99357762Y-47647539D01*
X47181640Y-69564936D02*
X47229259Y-69612555D01*
X47276878Y-69755412D01*
X47276878Y-69850650D01*
X47229259Y-69993507D01*
X47134021Y-70088745D01*
X47038783Y-70136364D01*
X46848307Y-70183983D01*
X46705450Y-70183983D01*
X46514974Y-70136364D01*
X46419736Y-70088745D01*
X46324498Y-69993507D01*
X46276878Y-69850650D01*
X46276878Y-69755412D01*
X46324498Y-69612555D01*
X46372117Y-69564936D01*
X47276878Y-68612555D02*
X47276878Y-69183983D01*
X47276878Y-68898269D02*
X46276878Y-68898269D01*
X46419736Y-68993507D01*
X46514974Y-69088745D01*
X46562593Y-69183983D01*
X47276878Y-67660174D02*
X47276878Y-68231602D01*
X47276878Y-67945888D02*
X46276878Y-67945888D01*
X46419736Y-68041126D01*
X46514974Y-68136364D01*
X46562593Y-68231602D01*
X57697462Y-44103562D02*
X57649843Y-44151181D01*
X57506986Y-44198800D01*
X57411748Y-44198800D01*
X57268891Y-44151181D01*
X57173653Y-44055943D01*
X57126034Y-43960705D01*
X57078415Y-43770229D01*
X57078415Y-43627372D01*
X57126034Y-43436896D01*
X57173653Y-43341658D01*
X57268891Y-43246420D01*
X57411748Y-43198800D01*
X57506986Y-43198800D01*
X57649843Y-43246420D01*
X57697462Y-43294039D01*
X58649843Y-44198800D02*
X58078415Y-44198800D01*
X58364129Y-44198800D02*
X58364129Y-43198800D01*
X58268891Y-43341658D01*
X58173653Y-43436896D01*
X58078415Y-43484515D01*
X59268891Y-43198800D02*
X59364129Y-43198800D01*
X59459367Y-43246420D01*
X59506986Y-43294039D01*
X59554605Y-43389277D01*
X59602224Y-43579753D01*
X59602224Y-43817848D01*
X59554605Y-44008324D01*
X59506986Y-44103562D01*
X59459367Y-44151181D01*
X59364129Y-44198800D01*
X59268891Y-44198800D01*
X59173653Y-44151181D01*
X59126034Y-44103562D01*
X59078415Y-44008324D01*
X59030796Y-43817848D01*
X59030796Y-43579753D01*
X59078415Y-43389277D01*
X59126034Y-43294039D01*
X59173653Y-43246420D01*
X59268891Y-43198800D01*
X57345991Y-65215221D02*
X57298372Y-65262840D01*
X57155515Y-65310459D01*
X57060277Y-65310459D01*
X56917419Y-65262840D01*
X56822181Y-65167602D01*
X56774562Y-65072364D01*
X56726943Y-64881888D01*
X56726943Y-64739031D01*
X56774562Y-64548555D01*
X56822181Y-64453317D01*
X56917419Y-64358079D01*
X57060277Y-64310459D01*
X57155515Y-64310459D01*
X57298372Y-64358079D01*
X57345991Y-64405698D01*
X57917419Y-64739031D02*
X57822181Y-64691412D01*
X57774562Y-64643793D01*
X57726943Y-64548555D01*
X57726943Y-64500936D01*
X57774562Y-64405698D01*
X57822181Y-64358079D01*
X57917419Y-64310459D01*
X58107896Y-64310459D01*
X58203134Y-64358079D01*
X58250753Y-64405698D01*
X58298372Y-64500936D01*
X58298372Y-64548555D01*
X58250753Y-64643793D01*
X58203134Y-64691412D01*
X58107896Y-64739031D01*
X57917419Y-64739031D01*
X57822181Y-64786650D01*
X57774562Y-64834269D01*
X57726943Y-64929507D01*
X57726943Y-65119983D01*
X57774562Y-65215221D01*
X57822181Y-65262840D01*
X57917419Y-65310459D01*
X58107896Y-65310459D01*
X58203134Y-65262840D01*
X58250753Y-65215221D01*
X58298372Y-65119983D01*
X58298372Y-64929507D01*
X58250753Y-64834269D01*
X58203134Y-64786650D01*
X58107896Y-64739031D01*
X33972911Y-68811861D02*
X33925292Y-68859480D01*
X33782435Y-68907099D01*
X33687197Y-68907099D01*
X33544339Y-68859480D01*
X33449101Y-68764242D01*
X33401482Y-68669004D01*
X33353863Y-68478528D01*
X33353863Y-68335671D01*
X33401482Y-68145195D01*
X33449101Y-68049957D01*
X33544339Y-67954719D01*
X33687197Y-67907099D01*
X33782435Y-67907099D01*
X33925292Y-67954719D01*
X33972911Y-68002338D01*
X34306244Y-67907099D02*
X34972911Y-67907099D01*
X34544339Y-68907099D01*
X41690591Y-72920581D02*
X41642972Y-72968200D01*
X41500115Y-73015819D01*
X41404877Y-73015819D01*
X41262019Y-72968200D01*
X41166781Y-72872962D01*
X41119162Y-72777724D01*
X41071543Y-72587248D01*
X41071543Y-72444391D01*
X41119162Y-72253915D01*
X41166781Y-72158677D01*
X41262019Y-72063439D01*
X41404877Y-72015819D01*
X41500115Y-72015819D01*
X41642972Y-72063439D01*
X41690591Y-72111058D01*
X42547734Y-72015819D02*
X42357258Y-72015819D01*
X42262019Y-72063439D01*
X42214400Y-72111058D01*
X42119162Y-72253915D01*
X42071543Y-72444391D01*
X42071543Y-72825343D01*
X42119162Y-72920581D01*
X42166781Y-72968200D01*
X42262019Y-73015819D01*
X42452496Y-73015819D01*
X42547734Y-72968200D01*
X42595353Y-72920581D01*
X42642972Y-72825343D01*
X42642972Y-72587248D01*
X42595353Y-72492010D01*
X42547734Y-72444391D01*
X42452496Y-72396772D01*
X42262019Y-72396772D01*
X42166781Y-72444391D01*
X42119162Y-72492010D01*
X42071543Y-72587248D01*
X34577431Y-57681581D02*
X34529812Y-57729200D01*
X34386955Y-57776819D01*
X34291717Y-57776819D01*
X34148859Y-57729200D01*
X34053621Y-57633962D01*
X34006002Y-57538724D01*
X33958383Y-57348248D01*
X33958383Y-57205391D01*
X34006002Y-57014915D01*
X34053621Y-56919677D01*
X34148859Y-56824439D01*
X34291717Y-56776819D01*
X34386955Y-56776819D01*
X34529812Y-56824439D01*
X34577431Y-56872058D01*
X35482193Y-56776819D02*
X35006002Y-56776819D01*
X34958383Y-57253010D01*
X35006002Y-57205391D01*
X35101240Y-57157772D01*
X35339336Y-57157772D01*
X35434574Y-57205391D01*
X35482193Y-57253010D01*
X35529812Y-57348248D01*
X35529812Y-57586343D01*
X35482193Y-57681581D01*
X35434574Y-57729200D01*
X35339336Y-57776819D01*
X35101240Y-57776819D01*
X35006002Y-57729200D01*
X34958383Y-57681581D01*
X36142182Y-44561706D02*
X36189801Y-44609325D01*
X36237420Y-44752182D01*
X36237420Y-44847420D01*
X36189801Y-44990278D01*
X36094563Y-45085516D01*
X35999325Y-45133135D01*
X35808849Y-45180754D01*
X35665992Y-45180754D01*
X35475516Y-45133135D01*
X35380278Y-45085516D01*
X35285040Y-44990278D01*
X35237420Y-44847420D01*
X35237420Y-44752182D01*
X35285040Y-44609325D01*
X35332659Y-44561706D01*
X35570754Y-43704563D02*
X36237420Y-43704563D01*
X35189801Y-43942659D02*
X35904087Y-44180754D01*
X35904087Y-43561706D01*
X41999311Y-67318341D02*
X41951692Y-67365960D01*
X41808835Y-67413579D01*
X41713597Y-67413579D01*
X41570739Y-67365960D01*
X41475501Y-67270722D01*
X41427882Y-67175484D01*
X41380263Y-66985008D01*
X41380263Y-66842151D01*
X41427882Y-66651675D01*
X41475501Y-66556437D01*
X41570739Y-66461199D01*
X41713597Y-66413579D01*
X41808835Y-66413579D01*
X41951692Y-66461199D01*
X41999311Y-66508818D01*
X42332644Y-66413579D02*
X42951692Y-66413579D01*
X42618358Y-66794532D01*
X42761216Y-66794532D01*
X42856454Y-66842151D01*
X42904073Y-66889770D01*
X42951692Y-66985008D01*
X42951692Y-67223103D01*
X42904073Y-67318341D01*
X42856454Y-67365960D01*
X42761216Y-67413579D01*
X42475501Y-67413579D01*
X42380263Y-67365960D01*
X42332644Y-67318341D01*
X56110991Y-47997001D02*
X56063372Y-48044620D01*
X55920515Y-48092239D01*
X55825277Y-48092239D01*
X55682419Y-48044620D01*
X55587181Y-47949382D01*
X55539562Y-47854144D01*
X55491943Y-47663668D01*
X55491943Y-47520811D01*
X55539562Y-47330335D01*
X55587181Y-47235097D01*
X55682419Y-47139859D01*
X55825277Y-47092239D01*
X55920515Y-47092239D01*
X56063372Y-47139859D01*
X56110991Y-47187478D01*
X56491943Y-47187478D02*
X56539562Y-47139859D01*
X56634800Y-47092239D01*
X56872896Y-47092239D01*
X56968134Y-47139859D01*
X57015753Y-47187478D01*
X57063372Y-47282716D01*
X57063372Y-47377954D01*
X57015753Y-47520811D01*
X56444324Y-48092239D01*
X57063372Y-48092239D01*
X35742182Y-53591706D02*
X35789801Y-53639325D01*
X35837420Y-53782182D01*
X35837420Y-53877420D01*
X35789801Y-54020278D01*
X35694563Y-54115516D01*
X35599325Y-54163135D01*
X35408849Y-54210754D01*
X35265992Y-54210754D01*
X35075516Y-54163135D01*
X34980278Y-54115516D01*
X34885040Y-54020278D01*
X34837420Y-53877420D01*
X34837420Y-53782182D01*
X34885040Y-53639325D01*
X34932659Y-53591706D01*
X35837420Y-52639325D02*
X35837420Y-53210754D01*
X35837420Y-52925040D02*
X34837420Y-52925040D01*
X34980278Y-53020278D01*
X35075516Y-53115516D01*
X35123135Y-53210754D01*
X78975238Y-68773785D02*
X78975238Y-69249976D01*
X77975238Y-69249976D01*
X78403810Y-68297595D02*
X78356191Y-68392833D01*
X78308572Y-68440452D01*
X78213334Y-68488071D01*
X78165715Y-68488071D01*
X78070477Y-68440452D01*
X78022858Y-68392833D01*
X77975238Y-68297595D01*
X77975238Y-68107119D01*
X78022858Y-68011880D01*
X78070477Y-67964261D01*
X78165715Y-67916642D01*
X78213334Y-67916642D01*
X78308572Y-67964261D01*
X78356191Y-68011880D01*
X78403810Y-68107119D01*
X78403810Y-68297595D01*
X78451429Y-68392833D01*
X78499048Y-68440452D01*
X78594286Y-68488071D01*
X78784762Y-68488071D01*
X78880000Y-68440452D01*
X78927619Y-68392833D01*
X78975238Y-68297595D01*
X78975238Y-68107119D01*
X78927619Y-68011880D01*
X78880000Y-67964261D01*
X78784762Y-67916642D01*
X78594286Y-67916642D01*
X78499048Y-67964261D01*
X78451429Y-68011880D01*
X78403810Y-68107119D01*
M02*
