M48
; DRILL file {KiCad (5.99.0-97-g37fac7a8f)} date Wed 11 Dec 2019 09:19:47 PM CET
; FORMAT={-:-/ absolute / inch / decimal}
; #@! TF.CreationDate,2019-12-11T21:19:47+01:00
; #@! TF.GenerationSoftware,Kicad,Pcbnew,(5.99.0-97-g37fac7a8f)
; #@! TF.FileFunction,Plated,1,4,PTH
FMAT,2
INCH
T1C0.0157
T2C0.0276
T3C0.0315
T4C0.0394
T5C0.0433
T6C0.1260
%
G90
G05
T1
X0.8595Y-1.8365
X0.9108Y-1.6766
X0.92Y-1.7759
X0.9415Y-2.1123
X0.9657Y-1.8775
X0.971Y-1.0309
X0.9793Y-2.4524
X1.0433Y-2.1614
X1.0697Y-1.6885
X1.0774Y-1.7272
X1.0942Y-2.5332
X1.1052Y-1.4006
X1.1246Y-1.8636
X1.1609Y-1.0695
X1.1847Y-2.3212
X1.1871Y-1.8379
X1.2023Y-1.5733
X1.2507Y-1.7971
X1.2702Y-2.1393
X1.2943Y-1.6646
X1.2989Y-1.9945
X1.3079Y-1.5403
X1.3209Y-1.7467
X1.3249Y-1.9031
X1.3733Y-1.6063
X1.3998Y-2.4976
X1.4606Y-1.7768
X1.4626Y-2.5423
X1.473Y-2.126
X1.4859Y-2.3799
X1.5225Y-1.7482
X1.5609Y-0.8502
X1.5683Y-1.7172
X1.5774Y-0.9798
X1.5782Y-1.5366
X1.585Y-2.415
X1.5893Y-2.4759
X1.5971Y-1.8867
X1.598Y-1.9996
X1.6167Y-1.9445
X1.6207Y-2.6085
X1.6242Y-2.2662
X1.6246Y-2.2065
X1.6275Y-1.6497
X1.6279Y-2.0468
X1.6294Y-2.1526
X1.6331Y-2.6691
X1.6446Y-2.0831
X1.6582Y-0.8657
X1.6597Y-1.4506
X1.6621Y-1.8319
X1.6634Y-2.2724
X1.6691Y-1.3551
X1.6712Y-1.0212
X1.6844Y-0.9597
X1.6855Y-1.9488
X1.6921Y-2.3477
X1.7035Y-2.282
X1.7106Y-2.0804
X1.7129Y-1.8472
X1.7148Y-1.0789
X1.7169Y-1.5637
X1.7557Y-1.5706
X1.7557Y-1.7091
X1.7704Y-1.1658
X1.7719Y-2.3489
X1.8069Y-1.1232
X1.8086Y-2.0409
X1.8089Y-1.8516
X1.8097Y-1.1625
X1.8166Y-2.5491
X1.8298Y-1.9371
X1.8358Y-2.3365
X1.8363Y-1.2758
X1.8461Y-2.5019
X1.8485Y-1.8491
X1.8638Y-2.2406
X1.8773Y-1.9256
X1.8873Y-2.3375
X1.8886Y-2.5231
X1.8945Y-2.6162
X1.897Y-2.0918
X1.9156Y-1.1596
X1.9414Y-1.0583
X1.9462Y-2.4669
X1.959Y-1.023
X1.9706Y-2.0587
X1.9756Y-2.2419
X2.0214Y-1.6358
X2.0338Y-2.3349
X2.0429Y-1.5365
X2.0447Y-2.2747
X2.0588Y-1.6924
X2.0945Y-1.835
X2.0953Y-1.9441
X2.1072Y-2.1439
X2.1074Y-1.9816
X2.1081Y-1.9026
X2.1219Y-2.3615
X2.1704Y-2.5446
X2.1965Y-1.1608
X2.2215Y-2.4092
X2.2255Y-1.9004
X2.2303Y-2.1823
X2.232Y-2.2646
X2.2363Y-2.0741
X2.2467Y-1.3761
X2.2541Y-1.5473
X2.2606Y-2.6293
X2.2692Y-1.0237
X2.2737Y-1.9004
X2.296Y-1.773
X2.303Y-2.1095
X2.3118Y-0.9521
X2.3253Y-2.5644
X2.3291Y-2.2234
X2.3406Y-1.7548
X2.3434Y-2.4333
X2.3647Y-2.564
X2.3792Y-1.8482
X2.3869Y-2.1241
X2.4196Y-2.5353
X2.4437Y-2.23
X2.4666Y-2.1819
T2
X2.1431Y-1.177
X1.1052Y-0.8936
X1.0621Y-2.4032
X1.5289Y-1.1271
X2.6982Y-2.353
X1.7394Y-1.645
X2.038Y-1.1719
T3
X0.9555Y-2.0106
X0.9555Y-2.1681
T4
X2.5486Y-1.4171
X2.5486Y-1.5262
X2.5486Y-1.6352
X2.5486Y-1.7443
X2.5486Y-1.8533
X2.6604Y-1.4717
X2.6604Y-1.5807
X2.6604Y-1.6898
X2.6604Y-1.7988
X1.7325Y-2.6809
X1.8325Y-2.6809
X1.9325Y-2.6809
X2.0325Y-2.6809
X2.1325Y-2.6809
X2.2325Y-2.6809
X2.3325Y-2.6809
X2.4325Y-2.6809
X2.1301Y-0.8821
X2.2301Y-0.8821
X2.3293Y-1.5573
X2.3293Y-1.6573
T5
X0.9577Y-1.2439
X0.9577Y-1.3439
T6
X2.6045Y-1.1431
X2.6045Y-2.1274
T2
G00X0.8699Y-1.9486
M15
G01X0.86Y-1.9486
M16
G05
G00X0.8699Y-2.2301
M15
G01X0.86Y-2.2301
M16
G05
G00X1.0057Y-1.9486
M15
G01X0.9959Y-1.9486
M16
G05
G00X1.0057Y-2.2301
M15
G01X0.9959Y-2.2301
M16
G05
T0
M30
