M48
; DRILL file {KiCad (5.99.0-97-g37fac7a8f)} date Sun 17 Nov 2019 08:53:53 PM CET
; FORMAT={-:-/ absolute / inch / decimal}
; #@! TF.CreationDate,2019-11-17T20:53:53+01:00
; #@! TF.GenerationSoftware,Kicad,Pcbnew,(5.99.0-97-g37fac7a8f)
; #@! TF.FileFunction,Plated,1,2,PTH
FMAT,2
INCH
T1C0.0157
T2C0.0197
T3C0.0256
T4C0.0276
T5C0.0315
T6C0.0394
T7C0.0433
T8C0.0709
T9C0.0787
T10C0.0984
T11C0.1260
%
G90
G05
T1
X0.9026Y-2.5289
X0.9037Y-2.4923
X0.9485Y-2.4481
X0.953Y-2.2105
X0.9892Y-2.5368
X1.0018Y-2.5014
X1.0455Y-1.8294
X1.1573Y-2.4763
X1.1921Y-1.9609
X1.2675Y-1.5976
X1.2851Y-2.9409
X1.2851Y-3.0993
X1.3253Y-2.3715
X1.3261Y-0.968
X1.3314Y-2.1113
X1.3461Y-1.5734
X1.4331Y-1.9925
X1.4331Y-2.2333
X1.4461Y-2.6045
X1.4517Y-2.9555
X1.5021Y-2.3863
X1.5021Y-1.9688
X1.5055Y-3.1085
X1.5111Y-1.6672
X1.5307Y-1.5423
X1.5387Y-2.6659
X1.5491Y-2.9149
X1.5553Y-2.4775
X1.5615Y-2.7737
X1.5693Y-3.0701
X1.5731Y-1.0143
X1.6162Y-2.2002
X1.6187Y-2.67
X1.6196Y-2.0606
X1.6259Y-2.1495
X1.6364Y-1.7911
X1.6388Y-2.4419
X1.6411Y-2.6109
X1.6414Y-2.0934
X1.6452Y-0.9145
X1.6521Y-2.8219
X1.66Y-2.025
X1.6734Y-1.79
X1.6762Y-1.1175
X1.6999Y-2.5802
X1.7076Y-2.3107
X1.7076Y-2.4417
X1.7081Y-2.6467
X1.7085Y-2.3829
X1.714Y-1.1415
X1.7151Y-3.0733
X1.7179Y-1.0195
X1.7221Y-3.1789
X1.7289Y-1.1914
X1.7325Y-1.2278
X1.7548Y-2.2471
X1.7595Y-1.6825
X1.7617Y-2.0993
X1.7709Y-2.1871
X1.771Y-2.3611
X1.7764Y-2.5808
X1.7787Y-1.1436
X1.799Y-1.4604
X1.7998Y-1.5345
X1.8007Y-1.5729
X1.8048Y-1.9526
X1.8111Y-2.0506
X1.8129Y-2.4207
X1.8152Y-1.1455
X1.8404Y-3.1911
X1.8492Y-1.5455
X1.851Y-2.1659
X1.8517Y-2.0376
X1.8544Y-2.5975
X1.8551Y-3.1383
X1.8673Y-2.4247
X1.8803Y-2.9913
X1.8916Y-2.0443
X1.8935Y-3.2381
X1.9063Y-2.371
X1.9096Y-1.1671
X1.9259Y-2.0187
X1.9345Y-1.2947
X1.9478Y-1.2226
X1.9608Y-1.0171
X1.9669Y-2.6257
X1.9723Y-2.3737
X1.9863Y-3.1159
X1.9882Y-1.9443
X1.9904Y-2.0967
X1.9905Y-2.1594
X1.9935Y-1.9896
X2.012Y-2.0345
X2.0126Y-2.8943
X2.0259Y-3.2715
X2.0408Y-2.1359
X2.0429Y-1.9865
X2.0479Y-1.6801
X2.0553Y-2.3033
X2.0608Y-1.7982
X2.0611Y-3.2211
X2.0614Y-2.0319
X2.0652Y-2.163
X2.0711Y-1.7632
X2.0787Y-1.7192
X2.0787Y-1.1407
X2.0817Y-1.9289
X2.0919Y-1.9708
X2.0921Y-2.0714
X2.0963Y-2.1944
X2.0982Y-2.6888
X2.1015Y-2.3803
X2.1128Y-2.247
X2.1181Y-2.314
X2.1223Y-3.2891
X2.1234Y-1.296
X2.127Y-1.9998
X2.1286Y-2.07
X2.1459Y-2.4855
X2.1702Y-1.8337
X2.1896Y-2.8215
X2.1977Y-3.0531
X2.1993Y-1.8557
X2.2065Y-1.3848
X2.2069Y-1.7817
X2.2313Y-1.927
X2.2337Y-3.0472
X2.2368Y-2.4039
X2.238Y-2.3433
X2.24Y-1.4919
X2.2485Y-2.5641
X2.2523Y-2.0269
X2.2604Y-2.7037
X2.2667Y-2.8163
X2.2681Y-3.1163
X2.2699Y-1.9622
X2.2883Y-1.9274
X2.3007Y-3.1584
X2.303Y-2.2112
X2.3207Y-3.2847
X2.3385Y-2.8855
X2.3636Y-2.127
X2.3675Y-2.0573
X2.3691Y-3.2561
X2.3737Y-1.8157
X2.4049Y-1.1389
X2.4297Y-1.7427
X2.435Y-2.253
X2.4558Y-1.7172
X2.4909Y-1.7273
X2.4983Y-2.3465
X2.5052Y-1.8593
X2.5417Y-1.8573
X2.5493Y-2.1342
X2.5785Y-2.0377
X2.5849Y-3.2263
X2.6305Y-2.212
X2.6334Y-2.2821
X2.6387Y-3.3395
X2.6465Y-2.3193
X2.7482Y-3.0711
X2.7549Y-2.3307
X2.7657Y-3.1031
X2.7774Y-3.3586
X2.8573Y-2.0758
X2.9737Y-2.1759
X3.0901Y-3.2069
X3.2187Y-1.7829
X3.2508Y-2.1734
X3.2833Y-1.8261
X3.2921Y-2.5319
X3.3274Y-2.273
X3.3439Y-2.5985
X3.3505Y-1.9096
X3.4033Y-1.853
X3.4581Y-2.0238
X3.5407Y-2.1153
X3.5457Y-1.3367
X3.5506Y-2.0309
X3.5557Y-1.4033
X3.5892Y-3.203
X3.59Y-2.1024
X3.6463Y-1.4345
X3.655Y-1.4727
X3.6823Y-3.1118
X3.6884Y-3.0542
X3.7522Y-3.1774
X3.7601Y-1.9297
X3.8045Y-3.2274
X4.0021Y-2.0325
X4.1558Y-1.079
T2
X0.9219Y-3.3411
X0.9436Y-3.289
X0.9436Y-3.3933
X0.9958Y-3.2673
X0.9958Y-3.415
X1.048Y-3.289
X1.048Y-3.3933
X1.0696Y-3.3411
X0.9219Y-0.9789
X0.9436Y-0.9267
X0.9436Y-1.0311
X0.9958Y-0.9051
X0.9958Y-1.0528
X1.048Y-0.9267
X1.048Y-1.0311
X1.0696Y-0.9789
X4.4259Y-3.3411
X4.4475Y-3.289
X4.4475Y-3.3933
X4.4997Y-3.2673
X4.4997Y-3.415
X4.5519Y-3.289
X4.5519Y-3.3933
X4.5735Y-3.3411
X4.4375Y-0.9337
X4.4591Y-0.8815
X4.4591Y-0.9859
X4.5113Y-0.8599
X4.5113Y-1.0075
X4.5635Y-0.8815
X4.5635Y-0.9859
X4.5851Y-0.9337
T3
X1.8671Y-1.6175
X1.9171Y-1.6175
X1.9671Y-1.6175
X2.0171Y-1.6175
X2.0671Y-1.6175
X2.1171Y-1.6175
X2.1671Y-1.6175
X2.2171Y-1.6175
T4
X2.0881Y-1.2279
X1.7037Y-2.9563
X1.0391Y-3.0155
X2.5241Y-1.4953
T5
X3.597Y-3.3758
X3.7545Y-3.3758
X0.96Y-1.6614
X0.96Y-1.8189
X4.0514Y-3.3726
X4.2089Y-3.3726
X0.966Y-2.1107
X0.966Y-2.2682
T6
X4.2181Y-2.2461
X4.2181Y-2.3551
X4.2181Y-2.4642
X4.2181Y-2.5732
X4.2181Y-2.6823
X4.3299Y-2.3006
X4.3299Y-2.4097
X4.3299Y-2.5187
X4.3299Y-2.6278
X1.6497Y-3.3409
X1.7497Y-3.3409
X1.8497Y-3.3409
X1.9497Y-3.3409
X2.0497Y-3.3409
X2.1497Y-3.3409
X2.2497Y-3.3409
X2.3497Y-3.3409
X2.3384Y-1.5817
X2.3384Y-1.6817
X1.2042Y-3.2908
X1.3042Y-3.2908
T7
X4.379Y-1.6538
X4.379Y-1.7538
X0.9593Y-1.3052
X0.9593Y-1.4052
T8
X3.8117Y-1.2069
T9
X2.7959Y-1.6793
X2.8668Y-1.4431
X2.9455Y-1.2069
X2.9455Y-1.6793
X3.5046Y-1.2069
X3.5046Y-1.6793
X3.8825Y-1.6793
T10
X4.4997Y-3.3411
X4.5113Y-0.9337
X0.9958Y-3.3411
X0.9958Y-0.9789
T11
X4.274Y-1.9721
X4.274Y-2.9563
T4
G00X3.535Y-3.3256
M15
G01X3.535Y-3.3354
M16
G05
G00X3.535Y-3.4614
M15
G01X3.535Y-3.4713
M16
G05
G00X3.8165Y-3.3256
M15
G01X3.8165Y-3.3354
M16
G05
G00X3.8165Y-3.4614
M15
G01X3.8165Y-3.4713
M16
G05
G00X0.8646Y-1.5994
M15
G01X0.8744Y-1.5994
M16
G05
G00X0.8646Y-1.8809
M15
G01X0.8744Y-1.8809
M16
G05
G00X1.0004Y-1.5994
M15
G01X1.0102Y-1.5994
M16
G05
G00X1.0004Y-1.8809
M15
G01X1.0102Y-1.8809
M16
G05
G00X3.9894Y-3.3224
M15
G01X3.9894Y-3.3323
M16
G05
G00X3.9894Y-3.4583
M15
G01X3.9894Y-3.4681
M16
G05
G00X4.2709Y-3.3224
M15
G01X4.2709Y-3.3323
M16
G05
G00X4.2709Y-3.4583
M15
G01X4.2709Y-3.4681
M16
G05
G00X0.8804Y-2.0487
M15
G01X0.8705Y-2.0487
M16
G05
G00X0.8804Y-2.3302
M15
G01X0.8705Y-2.3302
M16
G05
G00X1.0162Y-2.0487
M15
G01X1.0064Y-2.0487
M16
G05
G00X1.0162Y-2.3302
M15
G01X1.0064Y-2.3302
M16
G05
T0
M30
