G04 #@! TF.GenerationSoftware,KiCad,Pcbnew,(5.99.0-97-g37fac7a8f)*
G04 #@! TF.CreationDate,2019-12-11T21:19:43+01:00*
G04 #@! TF.ProjectId,canbox,63616e62-6f78-42e6-9b69-6361645f7063,rev?*
G04 #@! TF.SameCoordinates,Original*
G04 #@! TF.FileFunction,Other,Fab,Top*
%FSLAX46Y46*%
G04 Gerber Fmt 4.6, Leading zero omitted, Abs format (unit mm)*
G04 Created by KiCad (PCBNEW (5.99.0-97-g37fac7a8f)) date 2019-12-11 21:19:43*
%MOMM*%
%LPD*%
G04 APERTURE LIST*
%ADD10C,0.100000*%
%ADD11C,0.150000*%
%ADD12C,0.120000*%
%ADD13C,0.080000*%
%ADD14C,0.105000*%
%ADD15C,0.060000*%
%ADD16C,0.075000*%
G04 APERTURE END LIST*
D10*
X39656260Y-65917520D02*
X39656260Y-67117520D01*
X39656260Y-67117520D02*
X37656260Y-67117520D01*
X37656260Y-67117520D02*
X37656260Y-65917520D01*
X37656260Y-65917520D02*
X39656260Y-65917520D01*
X35601064Y-57009355D02*
X33335294Y-55952810D01*
X33335294Y-55952810D02*
X31982916Y-58852995D01*
X31982916Y-58852995D02*
X34248686Y-59909540D01*
X34248686Y-59909540D02*
X35601064Y-57009355D01*
X34241602Y-56375428D02*
X32912676Y-56859118D01*
X31982040Y-33339040D02*
X31982040Y-34139040D01*
X31982040Y-34139040D02*
X30382040Y-34139040D01*
X30382040Y-34139040D02*
X30382040Y-33339040D01*
X30382040Y-33339040D02*
X31982040Y-33339040D01*
X30391040Y-32578040D02*
X30391040Y-31778040D01*
X30391040Y-31778040D02*
X31991040Y-31778040D01*
X31991040Y-31778040D02*
X31991040Y-32578040D01*
X31991040Y-32578040D02*
X30391040Y-32578040D01*
D11*
X40000000Y-47000000D02*
X41000000Y-46000000D01*
X40000000Y-60000000D02*
X40000000Y-47000000D01*
X54000000Y-60000000D02*
X40000000Y-60000000D01*
X54000000Y-46000000D02*
X54000000Y-60000000D01*
X41000000Y-46000000D02*
X54000000Y-46000000D01*
D10*
X57915040Y-21770040D02*
X57915040Y-23675040D01*
X57915040Y-23675040D02*
X52835040Y-23675040D01*
X52835040Y-23675040D02*
X52835040Y-21135040D01*
X52835040Y-21135040D02*
X57280040Y-21135040D01*
X57280040Y-21135040D02*
X57915040Y-21770040D01*
X28730040Y-45650040D02*
X25320040Y-45650040D01*
X25755040Y-39300040D02*
X28730040Y-39300040D01*
X25320040Y-45650040D02*
X25320040Y-39735040D01*
X25320040Y-39735040D02*
X25755040Y-39300040D01*
X28730040Y-39300040D02*
X28730040Y-45650040D01*
X25320040Y-39735040D02*
X24275040Y-39735040D01*
X24275040Y-39735040D02*
X24275040Y-40135040D01*
X24275040Y-40135040D02*
X25320040Y-40135040D01*
X28730040Y-39735040D02*
X29775040Y-39735040D01*
X29775040Y-39735040D02*
X29775040Y-40135040D01*
X29775040Y-40135040D02*
X28730040Y-40135040D01*
X25320040Y-41005040D02*
X24275040Y-41005040D01*
X24275040Y-41005040D02*
X24275040Y-41405040D01*
X24275040Y-41405040D02*
X25320040Y-41405040D01*
X28730040Y-41005040D02*
X29775040Y-41005040D01*
X29775040Y-41005040D02*
X29775040Y-41405040D01*
X29775040Y-41405040D02*
X28730040Y-41405040D01*
X25320040Y-42275040D02*
X24275040Y-42275040D01*
X24275040Y-42275040D02*
X24275040Y-42675040D01*
X24275040Y-42675040D02*
X25320040Y-42675040D01*
X28730040Y-42275040D02*
X29775040Y-42275040D01*
X29775040Y-42275040D02*
X29775040Y-42675040D01*
X29775040Y-42675040D02*
X28730040Y-42675040D01*
X25320040Y-43545040D02*
X24275040Y-43545040D01*
X24275040Y-43545040D02*
X24275040Y-43945040D01*
X24275040Y-43945040D02*
X25320040Y-43945040D01*
X28730040Y-43545040D02*
X29775040Y-43545040D01*
X29775040Y-43545040D02*
X29775040Y-43945040D01*
X29775040Y-43945040D02*
X28730040Y-43945040D01*
X25320040Y-44815040D02*
X24275040Y-44815040D01*
X24275040Y-44815040D02*
X24275040Y-45215040D01*
X24275040Y-45215040D02*
X25320040Y-45215040D01*
X28730040Y-44815040D02*
X29775040Y-44815040D01*
X29775040Y-44815040D02*
X29775040Y-45215040D01*
X29775040Y-45215040D02*
X28730040Y-45215040D01*
D11*
X49620040Y-36620040D02*
X49620040Y-31620040D01*
X43620040Y-36620040D02*
X49620040Y-36620040D01*
X43620040Y-30620040D02*
X43620040Y-36620040D01*
X48620040Y-30620040D02*
X43620040Y-30620040D01*
X49620040Y-31620040D02*
X48620040Y-30620040D01*
D10*
X46135040Y-40680040D02*
X46135040Y-38680040D01*
X47335040Y-40680040D02*
X46135040Y-40680040D01*
X47335040Y-38680040D02*
X47335040Y-40680040D01*
X46135040Y-38680040D02*
X47335040Y-38680040D01*
X57895040Y-38920040D02*
X58530040Y-38285040D01*
X57895040Y-43365040D02*
X57895040Y-38920040D01*
X60435040Y-43365040D02*
X57895040Y-43365040D01*
X60435040Y-38285040D02*
X60435040Y-43365040D01*
X58530040Y-38285040D02*
X60435040Y-38285040D01*
X59495040Y-27395040D02*
X59495040Y-24895040D01*
X56295040Y-27395040D02*
X59495040Y-27395040D01*
X56295040Y-25520040D02*
X56295040Y-27395040D01*
X56920040Y-24895040D02*
X56295040Y-25520040D01*
X59495040Y-24895040D02*
X56920040Y-24895040D01*
X59974422Y-33650621D02*
X59974422Y-31150621D01*
X56774422Y-33650621D02*
X59974422Y-33650621D01*
X56774422Y-31775621D02*
X56774422Y-33650621D01*
X57399422Y-31150621D02*
X56774422Y-31775621D01*
X59974422Y-31150621D02*
X57399422Y-31150621D01*
X26825040Y-63385040D02*
X27475040Y-62735040D01*
X28625040Y-62735040D02*
X27475040Y-62735040D01*
X26825040Y-63385040D02*
X26825040Y-65835040D01*
X28625040Y-65835040D02*
X26825040Y-65835040D01*
X28625040Y-62735040D02*
X28625040Y-65835040D01*
X47935040Y-25555040D02*
X47935040Y-23055040D01*
X47935040Y-23055040D02*
X44735040Y-23055040D01*
X44735040Y-23055040D02*
X44735040Y-25555040D01*
X44735040Y-25555040D02*
X47935040Y-25555040D01*
X47935040Y-24055040D02*
X46935040Y-23055040D01*
X59245040Y-35530040D02*
X59245040Y-36730040D01*
X59245040Y-36730040D02*
X57245040Y-36730040D01*
X57245040Y-36730040D02*
X57245040Y-35530040D01*
X57245040Y-35530040D02*
X59245040Y-35530040D01*
X62035040Y-22125040D02*
X62035040Y-23325040D01*
X62035040Y-23325040D02*
X60035040Y-23325040D01*
X60035040Y-23325040D02*
X60035040Y-22125040D01*
X60035040Y-22125040D02*
X62035040Y-22125040D01*
X59816040Y-28561040D02*
X59816040Y-29761040D01*
X59816040Y-29761040D02*
X57816040Y-29761040D01*
X57816040Y-29761040D02*
X57816040Y-28561040D01*
X57816040Y-28561040D02*
X59816040Y-28561040D01*
X44120040Y-37695040D02*
X44120040Y-38895040D01*
X44120040Y-38895040D02*
X42120040Y-38895040D01*
X42120040Y-38895040D02*
X42120040Y-37695040D01*
X42120040Y-37695040D02*
X44120040Y-37695040D01*
X60200040Y-54765040D02*
X60200040Y-55965040D01*
X60200040Y-55965040D02*
X58200040Y-55965040D01*
X58200040Y-55965040D02*
X58200040Y-54765040D01*
X58200040Y-54765040D02*
X60200040Y-54765040D01*
X60640040Y-57255040D02*
X60640040Y-58455040D01*
X60640040Y-58455040D02*
X58640040Y-58455040D01*
X58640040Y-58455040D02*
X58640040Y-57255040D01*
X58640040Y-57255040D02*
X60640040Y-57255040D01*
X35800040Y-45765040D02*
X35800040Y-46965040D01*
X35800040Y-46965040D02*
X33800040Y-46965040D01*
X33800040Y-46965040D02*
X33800040Y-45765040D01*
X33800040Y-45765040D02*
X35800040Y-45765040D01*
X66155040Y-52435040D02*
G75*
G03X66155040Y-55635040I0J-1600000D01*
G01*
X66155040Y-27435040D02*
G75*
G03X66155040Y-30635040I0J-1600000D01*
G01*
X62935040Y-56960040D02*
X77475040Y-56960040D01*
X77475040Y-56960040D02*
X77475040Y-26110040D01*
X77475040Y-26110040D02*
X62935040Y-26110040D01*
X62935040Y-26110040D02*
X62935040Y-56960040D01*
X77475040Y-56960040D02*
X77875040Y-56960040D01*
X77875040Y-56960040D02*
X77875040Y-26110040D01*
X77875040Y-26110040D02*
X77475040Y-26110040D01*
X77475040Y-26110040D02*
X77475040Y-56960040D01*
X77875040Y-49685040D02*
X84045040Y-49685040D01*
X84045040Y-49685040D02*
X84045040Y-33385040D01*
X84045040Y-33385040D02*
X77875040Y-33385040D01*
X77875040Y-33385040D02*
X77875040Y-49685040D01*
X77875040Y-56535040D02*
X82875040Y-56535040D01*
X82875040Y-56535040D02*
X82875040Y-51535040D01*
X82875040Y-51535040D02*
X77875040Y-51535040D01*
X77875040Y-51535040D02*
X77875040Y-56535040D01*
X77875040Y-31535040D02*
X82875040Y-31535040D01*
X82875040Y-31535040D02*
X82875040Y-26535040D01*
X82875040Y-26535040D02*
X77875040Y-26535040D01*
X77875040Y-26535040D02*
X77875040Y-31535040D01*
X77475040Y-55635040D02*
X66155040Y-55635040D01*
X77475040Y-52435040D02*
X66155040Y-52435040D01*
X77475040Y-30635040D02*
X66155040Y-30635040D01*
X77475040Y-27435040D02*
X66155040Y-27435040D01*
X25425040Y-31595040D02*
G75*
G03X25425040Y-31595040I-1100000J0D01*
G01*
X25425040Y-34135040D02*
G75*
G03X25425040Y-34135040I-1100000J0D01*
G01*
X27425040Y-30095040D02*
X27425040Y-35635040D01*
X27425040Y-35635040D02*
X21225040Y-35635040D01*
X21225040Y-35635040D02*
X21225040Y-30595040D01*
X21225040Y-30595040D02*
X21725040Y-30095040D01*
X21725040Y-30095040D02*
X27425040Y-30095040D01*
X21725040Y-30095040D02*
X21725040Y-35635040D01*
X27025040Y-30095040D02*
X27025040Y-35635040D01*
X25025040Y-32430040D02*
X23490040Y-30894040D01*
X25160040Y-32296040D02*
X23625040Y-30760040D01*
X25025040Y-34970040D02*
X23490040Y-33435040D01*
X25160040Y-34836040D02*
X23625040Y-33301040D01*
X34769422Y-48860621D02*
X34769422Y-50060621D01*
X34769422Y-50060621D02*
X32769422Y-50060621D01*
X32769422Y-50060621D02*
X32769422Y-48860621D01*
X32769422Y-48860621D02*
X34769422Y-48860621D01*
X63055040Y-67460040D02*
X63055040Y-69365040D01*
X63055040Y-69365040D02*
X42735040Y-69365040D01*
X42735040Y-69365040D02*
X42735040Y-66825040D01*
X42735040Y-66825040D02*
X62420040Y-66825040D01*
X62420040Y-66825040D02*
X63055040Y-67460040D01*
X23602040Y-61838040D02*
X23602040Y-63038040D01*
X23602040Y-63038040D02*
X21602040Y-63038040D01*
X21602040Y-63038040D02*
X21602040Y-61838040D01*
X21602040Y-61838040D02*
X23602040Y-61838040D01*
X32360040Y-23855040D02*
X32360040Y-25055040D01*
X32360040Y-25055040D02*
X30360040Y-25055040D01*
X30360040Y-25055040D02*
X30360040Y-23855040D01*
X30360040Y-23855040D02*
X32360040Y-23855040D01*
X30585040Y-29855040D02*
X30585040Y-28655040D01*
X30585040Y-28655040D02*
X32585040Y-28655040D01*
X32585040Y-28655040D02*
X32585040Y-29855040D01*
X32585040Y-29855040D02*
X30585040Y-29855040D01*
X30560040Y-37455040D02*
X30560040Y-36255040D01*
X30560040Y-36255040D02*
X32560040Y-36255040D01*
X32560040Y-36255040D02*
X32560040Y-37455040D01*
X32560040Y-37455040D02*
X30560040Y-37455040D01*
X52790040Y-25365040D02*
X53990040Y-25365040D01*
X53990040Y-25365040D02*
X53990040Y-27365040D01*
X53990040Y-27365040D02*
X52790040Y-27365040D01*
X52790040Y-27365040D02*
X52790040Y-25365040D01*
X55540040Y-39505040D02*
X55540040Y-40705040D01*
X55540040Y-40705040D02*
X53540040Y-40705040D01*
X53540040Y-40705040D02*
X53540040Y-39505040D01*
X53540040Y-39505040D02*
X55540040Y-39505040D01*
X50055040Y-42120040D02*
X48855040Y-42120040D01*
X48855040Y-42120040D02*
X48855040Y-40120040D01*
X48855040Y-40120040D02*
X50055040Y-40120040D01*
X50055040Y-40120040D02*
X50055040Y-42120040D01*
D12*
X19820000Y-50530000D02*
X19820000Y-55610000D01*
D10*
X23650040Y-59679040D02*
X23650040Y-60879040D01*
X23650040Y-60879040D02*
X21650040Y-60879040D01*
X21650040Y-60879040D02*
X21650040Y-59679040D01*
X21650040Y-59679040D02*
X23650040Y-59679040D01*
X27846420Y-25000660D02*
X27846420Y-26200660D01*
X27846420Y-26200660D02*
X25846420Y-26200660D01*
X25846420Y-26200660D02*
X25846420Y-25000660D01*
X25846420Y-25000660D02*
X27846420Y-25000660D01*
X42510040Y-65235040D02*
X42510040Y-64035040D01*
X42510040Y-64035040D02*
X44510040Y-64035040D01*
X44510040Y-64035040D02*
X44510040Y-65235040D01*
X44510040Y-65235040D02*
X42510040Y-65235040D01*
X28549422Y-58510621D02*
X27349422Y-58510621D01*
X27349422Y-58510621D02*
X27349422Y-56510621D01*
X27349422Y-56510621D02*
X28549422Y-56510621D01*
X28549422Y-56510621D02*
X28549422Y-58510621D01*
X30385040Y-27255040D02*
X30385040Y-26055040D01*
X30385040Y-26055040D02*
X32385040Y-26055040D01*
X32385040Y-26055040D02*
X32385040Y-27255040D01*
X32385040Y-27255040D02*
X30385040Y-27255040D01*
X42360040Y-22745040D02*
X42360040Y-23945040D01*
X42360040Y-23945040D02*
X40360040Y-23945040D01*
X40360040Y-23945040D02*
X40360040Y-22745040D01*
X40360040Y-22745040D02*
X42360040Y-22745040D01*
X50185040Y-23230040D02*
X51385040Y-23230040D01*
X51385040Y-23230040D02*
X51385040Y-25230040D01*
X51385040Y-25230040D02*
X50185040Y-25230040D01*
X50185040Y-25230040D02*
X50185040Y-23230040D01*
X42505040Y-30160040D02*
X41305040Y-30160040D01*
X41305040Y-30160040D02*
X41305040Y-28160040D01*
X41305040Y-28160040D02*
X42505040Y-28160040D01*
X42505040Y-28160040D02*
X42505040Y-30160040D01*
X58600658Y-60679459D02*
X58600658Y-59479459D01*
X58600658Y-59479459D02*
X60600658Y-59479459D01*
X60600658Y-59479459D02*
X60600658Y-60679459D01*
X60600658Y-60679459D02*
X58600658Y-60679459D01*
X51065040Y-65725040D02*
X51065040Y-64525040D01*
X51065040Y-64525040D02*
X53065040Y-64525040D01*
X53065040Y-64525040D02*
X53065040Y-65725040D01*
X53065040Y-65725040D02*
X51065040Y-65725040D01*
X41382080Y-39717420D02*
X41382080Y-40917420D01*
X41382080Y-40917420D02*
X39382080Y-40917420D01*
X39382080Y-40917420D02*
X39382080Y-39717420D01*
X39382080Y-39717420D02*
X41382080Y-39717420D01*
X56245040Y-64285040D02*
X56245040Y-63085040D01*
X56245040Y-63085040D02*
X58245040Y-63085040D01*
X58245040Y-63085040D02*
X58245040Y-64285040D01*
X58245040Y-64285040D02*
X56245040Y-64285040D01*
X29493040Y-55301040D02*
X30693040Y-55301040D01*
X30693040Y-55301040D02*
X30693040Y-57301040D01*
X30693040Y-57301040D02*
X29493040Y-57301040D01*
X29493040Y-57301040D02*
X29493040Y-55301040D01*
X40410040Y-63675040D02*
X40410040Y-64875040D01*
X40410040Y-64875040D02*
X38410040Y-64875040D01*
X38410040Y-64875040D02*
X38410040Y-63675040D01*
X38410040Y-63675040D02*
X40410040Y-63675040D01*
X34120040Y-62420040D02*
X34120040Y-63620040D01*
X34120040Y-63620040D02*
X32120040Y-63620040D01*
X32120040Y-63620040D02*
X32120040Y-62420040D01*
X32120040Y-62420040D02*
X34120040Y-62420040D01*
X36199040Y-60012040D02*
X37399040Y-60012040D01*
X37399040Y-60012040D02*
X37399040Y-62012040D01*
X37399040Y-62012040D02*
X36199040Y-62012040D01*
X36199040Y-62012040D02*
X36199040Y-60012040D01*
X31473700Y-51257820D02*
X30273700Y-51257820D01*
X30273700Y-51257820D02*
X30273700Y-49257820D01*
X30273700Y-49257820D02*
X31473700Y-49257820D01*
X31473700Y-49257820D02*
X31473700Y-51257820D01*
X57695040Y-46565040D02*
X57695040Y-45365040D01*
X57695040Y-45365040D02*
X59695040Y-45365040D01*
X59695040Y-45365040D02*
X59695040Y-46565040D01*
X59695040Y-46565040D02*
X57695040Y-46565040D01*
X37285040Y-51365040D02*
X36085040Y-51365040D01*
X36085040Y-51365040D02*
X36085040Y-49365040D01*
X36085040Y-49365040D02*
X37285040Y-49365040D01*
X37285040Y-49365040D02*
X37285040Y-51365040D01*
D11*
X37680069Y-64653234D02*
X37680069Y-65319900D01*
X37441974Y-64272281D02*
X37203879Y-64986567D01*
X37822926Y-64986567D01*
X38203879Y-65224662D02*
X38251498Y-65272281D01*
X38203879Y-65319900D01*
X38156260Y-65272281D01*
X38203879Y-65224662D01*
X38203879Y-65319900D01*
X38584831Y-64319900D02*
X39251498Y-64319900D01*
X38822926Y-65319900D01*
X40061021Y-64653234D02*
X40061021Y-65319900D01*
X39632450Y-64653234D02*
X39632450Y-65177043D01*
X39680069Y-65272281D01*
X39775307Y-65319900D01*
X39918164Y-65319900D01*
X40013402Y-65272281D01*
X40061021Y-65224662D01*
D13*
X38334831Y-66696091D02*
X38311021Y-66719900D01*
X38239593Y-66743710D01*
X38191974Y-66743710D01*
X38120545Y-66719900D01*
X38072926Y-66672281D01*
X38049117Y-66624662D01*
X38025307Y-66529424D01*
X38025307Y-66457996D01*
X38049117Y-66362758D01*
X38072926Y-66315139D01*
X38120545Y-66267520D01*
X38191974Y-66243710D01*
X38239593Y-66243710D01*
X38311021Y-66267520D01*
X38334831Y-66291329D01*
X38811021Y-66743710D02*
X38525307Y-66743710D01*
X38668164Y-66743710D02*
X38668164Y-66243710D01*
X38620545Y-66315139D01*
X38572926Y-66362758D01*
X38525307Y-66386567D01*
X38977688Y-66243710D02*
X39287212Y-66243710D01*
X39120545Y-66434186D01*
X39191974Y-66434186D01*
X39239593Y-66457996D01*
X39263402Y-66481805D01*
X39287212Y-66529424D01*
X39287212Y-66648472D01*
X39263402Y-66696091D01*
X39239593Y-66719900D01*
X39191974Y-66743710D01*
X39049117Y-66743710D01*
X39001498Y-66719900D01*
X38977688Y-66696091D01*
D11*
X35859033Y-54930886D02*
X35617537Y-55448776D01*
X35738285Y-55189831D02*
X34831977Y-54767213D01*
X34921200Y-54913902D01*
X34967266Y-55040466D01*
X34970174Y-55146906D01*
X35200037Y-54203257D02*
X35177005Y-54139975D01*
X35174096Y-54033535D01*
X35274720Y-53817747D01*
X35358127Y-53751557D01*
X35421409Y-53728524D01*
X35527849Y-53725616D01*
X35614164Y-53765865D01*
X35723511Y-53869397D01*
X35999906Y-54628783D01*
X36261526Y-54067736D01*
X36442648Y-53679318D02*
X35536341Y-53256700D01*
X36324576Y-53256467D01*
X35818086Y-52652495D01*
X36724394Y-53075113D01*
X36925641Y-52643538D02*
X36019333Y-52220919D01*
X36450908Y-52422166D02*
X36692404Y-51904276D01*
X37167137Y-52125648D02*
X36260829Y-51703029D01*
X36421827Y-51357769D02*
X36703572Y-50753564D01*
X37328134Y-51780387D01*
X37609880Y-51176182D01*
D14*
X33544502Y-58155092D02*
X33780204Y-58390794D01*
X33120238Y-58060811D02*
X33544502Y-58155092D01*
X33450221Y-57730828D01*
X34369460Y-57801538D02*
X34086617Y-58084381D01*
X34228039Y-57942960D02*
X33733064Y-57447985D01*
X33756634Y-57565836D01*
X33756634Y-57660117D01*
X33733064Y-57730828D01*
D11*
X36905488Y-30306911D02*
X37238821Y-30306911D01*
X37381679Y-30830720D02*
X36905488Y-30830720D01*
X36905488Y-29830720D01*
X37381679Y-29830720D01*
X37667393Y-29830720D02*
X38238821Y-29830720D01*
X37953107Y-30830720D02*
X37953107Y-29830720D01*
X38572155Y-30830720D02*
X38572155Y-29830720D01*
X38572155Y-30306911D02*
X39143583Y-30306911D01*
X39143583Y-30830720D02*
X39143583Y-29830720D01*
X39381679Y-30925959D02*
X40143583Y-30925959D01*
X40334060Y-30545006D02*
X40810250Y-30545006D01*
X40238821Y-30830720D02*
X40572155Y-29830720D01*
X40905488Y-30830720D01*
X37572155Y-26430720D02*
X38143583Y-26430720D01*
X37857869Y-27430720D02*
X37857869Y-26430720D01*
X38476917Y-27430720D02*
X38476917Y-26430720D01*
X38857869Y-26430720D01*
X38953107Y-26478340D01*
X39000726Y-26525959D01*
X39048345Y-26621197D01*
X39048345Y-26764054D01*
X39000726Y-26859292D01*
X38953107Y-26906911D01*
X38857869Y-26954530D01*
X38476917Y-26954530D01*
X39381679Y-26430720D02*
X40048345Y-26430720D01*
X39619774Y-27430720D01*
X41919135Y-43462611D02*
X42252468Y-43462611D01*
X42395325Y-43986420D02*
X41919135Y-43986420D01*
X41919135Y-42986420D01*
X42395325Y-42986420D01*
X42681040Y-42986420D02*
X43252468Y-42986420D01*
X42966754Y-43986420D02*
X42966754Y-42986420D01*
X43585801Y-43986420D02*
X43585801Y-42986420D01*
X43585801Y-43462611D02*
X44157230Y-43462611D01*
X44157230Y-43986420D02*
X44157230Y-42986420D01*
X44395325Y-44081659D02*
X45157230Y-44081659D01*
X45395325Y-43986420D02*
X45395325Y-42986420D01*
X46061992Y-42986420D02*
X46252468Y-42986420D01*
X46347706Y-43034040D01*
X46442944Y-43129278D01*
X46490563Y-43319754D01*
X46490563Y-43653087D01*
X46442944Y-43843563D01*
X46347706Y-43938801D01*
X46252468Y-43986420D01*
X46061992Y-43986420D01*
X45966754Y-43938801D01*
X45871516Y-43843563D01*
X45823897Y-43653087D01*
X45823897Y-43319754D01*
X45871516Y-43129278D01*
X45966754Y-43034040D01*
X46061992Y-42986420D01*
X42919135Y-39586420D02*
X43490563Y-39586420D01*
X43204849Y-40586420D02*
X43204849Y-39586420D01*
X43823897Y-40586420D02*
X43823897Y-39586420D01*
X44204849Y-39586420D01*
X44300087Y-39634040D01*
X44347706Y-39681659D01*
X44395325Y-39776897D01*
X44395325Y-39919754D01*
X44347706Y-40014992D01*
X44300087Y-40062611D01*
X44204849Y-40110230D01*
X43823897Y-40110230D01*
X45252468Y-39586420D02*
X45061992Y-39586420D01*
X44966754Y-39634040D01*
X44919135Y-39681659D01*
X44823897Y-39824516D01*
X44776278Y-40014992D01*
X44776278Y-40395944D01*
X44823897Y-40491182D01*
X44871516Y-40538801D01*
X44966754Y-40586420D01*
X45157230Y-40586420D01*
X45252468Y-40538801D01*
X45300087Y-40491182D01*
X45347706Y-40395944D01*
X45347706Y-40157849D01*
X45300087Y-40062611D01*
X45252468Y-40014992D01*
X45157230Y-39967373D01*
X44966754Y-39967373D01*
X44871516Y-40014992D01*
X44823897Y-40062611D01*
X44776278Y-40157849D01*
X30062992Y-32761420D02*
X29491563Y-32761420D01*
X29777278Y-32761420D02*
X29777278Y-31761420D01*
X29682040Y-31904278D01*
X29586801Y-31999516D01*
X29491563Y-32047135D01*
X30682040Y-31761420D02*
X30777278Y-31761420D01*
X30872516Y-31809040D01*
X30920135Y-31856659D01*
X30967754Y-31951897D01*
X31015373Y-32142373D01*
X31015373Y-32380468D01*
X30967754Y-32570944D01*
X30920135Y-32666182D01*
X30872516Y-32713801D01*
X30777278Y-32761420D01*
X30682040Y-32761420D01*
X30586801Y-32713801D01*
X30539182Y-32666182D01*
X30491563Y-32570944D01*
X30443944Y-32380468D01*
X30443944Y-32142373D01*
X30491563Y-31951897D01*
X30539182Y-31856659D01*
X30586801Y-31809040D01*
X30682040Y-31761420D01*
X31634420Y-31761420D02*
X31729659Y-31761420D01*
X31824897Y-31809040D01*
X31872516Y-31856659D01*
X31920135Y-31951897D01*
X31967754Y-32142373D01*
X31967754Y-32380468D01*
X31920135Y-32570944D01*
X31872516Y-32666182D01*
X31824897Y-32713801D01*
X31729659Y-32761420D01*
X31634420Y-32761420D01*
X31539182Y-32713801D01*
X31491563Y-32666182D01*
X31443944Y-32570944D01*
X31396325Y-32380468D01*
X31396325Y-32142373D01*
X31443944Y-31951897D01*
X31491563Y-31856659D01*
X31539182Y-31809040D01*
X31634420Y-31761420D01*
X32396325Y-32094754D02*
X32396325Y-32761420D01*
X32396325Y-32189992D02*
X32443944Y-32142373D01*
X32539182Y-32094754D01*
X32682040Y-32094754D01*
X32777278Y-32142373D01*
X32824897Y-32237611D01*
X32824897Y-32761420D01*
D15*
X30924897Y-33881897D02*
X30905849Y-33900944D01*
X30848706Y-33919992D01*
X30810611Y-33919992D01*
X30753468Y-33900944D01*
X30715373Y-33862849D01*
X30696325Y-33824754D01*
X30677278Y-33748563D01*
X30677278Y-33691420D01*
X30696325Y-33615230D01*
X30715373Y-33577135D01*
X30753468Y-33539040D01*
X30810611Y-33519992D01*
X30848706Y-33519992D01*
X30905849Y-33539040D01*
X30924897Y-33558087D01*
X31058230Y-33519992D02*
X31305849Y-33519992D01*
X31172516Y-33672373D01*
X31229659Y-33672373D01*
X31267754Y-33691420D01*
X31286801Y-33710468D01*
X31305849Y-33748563D01*
X31305849Y-33843801D01*
X31286801Y-33881897D01*
X31267754Y-33900944D01*
X31229659Y-33919992D01*
X31115373Y-33919992D01*
X31077278Y-33900944D01*
X31058230Y-33881897D01*
X31439182Y-33519992D02*
X31686801Y-33519992D01*
X31553468Y-33672373D01*
X31610611Y-33672373D01*
X31648706Y-33691420D01*
X31667754Y-33710468D01*
X31686801Y-33748563D01*
X31686801Y-33843801D01*
X31667754Y-33881897D01*
X31648706Y-33900944D01*
X31610611Y-33919992D01*
X31496325Y-33919992D01*
X31458230Y-33900944D01*
X31439182Y-33881897D01*
D11*
X30071992Y-34060420D02*
X29500563Y-34060420D01*
X29786278Y-34060420D02*
X29786278Y-33060420D01*
X29691040Y-33203278D01*
X29595801Y-33298516D01*
X29500563Y-33346135D01*
X30691040Y-33060420D02*
X30786278Y-33060420D01*
X30881516Y-33108040D01*
X30929135Y-33155659D01*
X30976754Y-33250897D01*
X31024373Y-33441373D01*
X31024373Y-33679468D01*
X30976754Y-33869944D01*
X30929135Y-33965182D01*
X30881516Y-34012801D01*
X30786278Y-34060420D01*
X30691040Y-34060420D01*
X30595801Y-34012801D01*
X30548182Y-33965182D01*
X30500563Y-33869944D01*
X30452944Y-33679468D01*
X30452944Y-33441373D01*
X30500563Y-33250897D01*
X30548182Y-33155659D01*
X30595801Y-33108040D01*
X30691040Y-33060420D01*
X31643420Y-33060420D02*
X31738659Y-33060420D01*
X31833897Y-33108040D01*
X31881516Y-33155659D01*
X31929135Y-33250897D01*
X31976754Y-33441373D01*
X31976754Y-33679468D01*
X31929135Y-33869944D01*
X31881516Y-33965182D01*
X31833897Y-34012801D01*
X31738659Y-34060420D01*
X31643420Y-34060420D01*
X31548182Y-34012801D01*
X31500563Y-33965182D01*
X31452944Y-33869944D01*
X31405325Y-33679468D01*
X31405325Y-33441373D01*
X31452944Y-33250897D01*
X31500563Y-33155659D01*
X31548182Y-33108040D01*
X31643420Y-33060420D01*
X32405325Y-33393754D02*
X32405325Y-34060420D01*
X32405325Y-33488992D02*
X32452944Y-33441373D01*
X32548182Y-33393754D01*
X32691040Y-33393754D01*
X32786278Y-33441373D01*
X32833897Y-33536611D01*
X32833897Y-34060420D01*
D15*
X30933897Y-32320897D02*
X30914849Y-32339944D01*
X30857706Y-32358992D01*
X30819611Y-32358992D01*
X30762468Y-32339944D01*
X30724373Y-32301849D01*
X30705325Y-32263754D01*
X30686278Y-32187563D01*
X30686278Y-32130420D01*
X30705325Y-32054230D01*
X30724373Y-32016135D01*
X30762468Y-31978040D01*
X30819611Y-31958992D01*
X30857706Y-31958992D01*
X30914849Y-31978040D01*
X30933897Y-31997087D01*
X31067230Y-31958992D02*
X31314849Y-31958992D01*
X31181516Y-32111373D01*
X31238659Y-32111373D01*
X31276754Y-32130420D01*
X31295801Y-32149468D01*
X31314849Y-32187563D01*
X31314849Y-32282801D01*
X31295801Y-32320897D01*
X31276754Y-32339944D01*
X31238659Y-32358992D01*
X31124373Y-32358992D01*
X31086278Y-32339944D01*
X31067230Y-32320897D01*
X31467230Y-31997087D02*
X31486278Y-31978040D01*
X31524373Y-31958992D01*
X31619611Y-31958992D01*
X31657706Y-31978040D01*
X31676754Y-31997087D01*
X31695801Y-32035182D01*
X31695801Y-32073278D01*
X31676754Y-32130420D01*
X31448182Y-32358992D01*
X31695801Y-32358992D01*
D11*
X35157161Y-30879286D02*
X35633352Y-30879286D01*
X35061923Y-31165000D02*
X35395257Y-30165000D01*
X35728590Y-31165000D01*
X36061923Y-30641191D02*
X36395257Y-30641191D01*
X36538114Y-31165000D02*
X36061923Y-31165000D01*
X36061923Y-30165000D01*
X36538114Y-30165000D01*
X36919066Y-30260239D02*
X36966685Y-30212620D01*
X37061923Y-30165000D01*
X37300019Y-30165000D01*
X37395257Y-30212620D01*
X37442876Y-30260239D01*
X37490495Y-30355477D01*
X37490495Y-30450715D01*
X37442876Y-30593572D01*
X36871447Y-31165000D01*
X37490495Y-31165000D01*
X38109542Y-30165000D02*
X38204780Y-30165000D01*
X38300019Y-30212620D01*
X38347638Y-30260239D01*
X38395257Y-30355477D01*
X38442876Y-30545953D01*
X38442876Y-30784048D01*
X38395257Y-30974524D01*
X38347638Y-31069762D01*
X38300019Y-31117381D01*
X38204780Y-31165000D01*
X38109542Y-31165000D01*
X38014304Y-31117381D01*
X37966685Y-31069762D01*
X37919066Y-30974524D01*
X37871447Y-30784048D01*
X37871447Y-30545953D01*
X37919066Y-30355477D01*
X37966685Y-30260239D01*
X38014304Y-30212620D01*
X38109542Y-30165000D01*
X39061923Y-30165000D02*
X39157161Y-30165000D01*
X39252400Y-30212620D01*
X39300019Y-30260239D01*
X39347638Y-30355477D01*
X39395257Y-30545953D01*
X39395257Y-30784048D01*
X39347638Y-30974524D01*
X39300019Y-31069762D01*
X39252400Y-31117381D01*
X39157161Y-31165000D01*
X39061923Y-31165000D01*
X38966685Y-31117381D01*
X38919066Y-31069762D01*
X38871447Y-30974524D01*
X38823828Y-30784048D01*
X38823828Y-30545953D01*
X38871447Y-30355477D01*
X38919066Y-30260239D01*
X38966685Y-30212620D01*
X39061923Y-30165000D01*
X39776209Y-30260239D02*
X39823828Y-30212620D01*
X39919066Y-30165000D01*
X40157161Y-30165000D01*
X40252400Y-30212620D01*
X40300019Y-30260239D01*
X40347638Y-30355477D01*
X40347638Y-30450715D01*
X40300019Y-30593572D01*
X39728590Y-31165000D01*
X40347638Y-31165000D01*
X42119047Y-63102380D02*
X41642857Y-63102380D01*
X41642857Y-62102380D01*
X42452380Y-63102380D02*
X42452380Y-62102380D01*
X42833333Y-62102380D01*
X42928571Y-62150000D01*
X42976190Y-62197619D01*
X43023809Y-62292857D01*
X43023809Y-62435714D01*
X42976190Y-62530952D01*
X42928571Y-62578571D01*
X42833333Y-62626190D01*
X42452380Y-62626190D01*
X44023809Y-63007142D02*
X43976190Y-63054761D01*
X43833333Y-63102380D01*
X43738095Y-63102380D01*
X43595238Y-63054761D01*
X43500000Y-62959523D01*
X43452380Y-62864285D01*
X43404761Y-62673809D01*
X43404761Y-62530952D01*
X43452380Y-62340476D01*
X43500000Y-62245238D01*
X43595238Y-62150000D01*
X43738095Y-62102380D01*
X43833333Y-62102380D01*
X43976190Y-62150000D01*
X44023809Y-62197619D01*
X44928571Y-62102380D02*
X44452380Y-62102380D01*
X44404761Y-62578571D01*
X44452380Y-62530952D01*
X44547619Y-62483333D01*
X44785714Y-62483333D01*
X44880952Y-62530952D01*
X44928571Y-62578571D01*
X44976190Y-62673809D01*
X44976190Y-62911904D01*
X44928571Y-63007142D01*
X44880952Y-63054761D01*
X44785714Y-63102380D01*
X44547619Y-63102380D01*
X44452380Y-63054761D01*
X44404761Y-63007142D01*
X45833333Y-62435714D02*
X45833333Y-63102380D01*
X45595238Y-62054761D02*
X45357142Y-62769047D01*
X45976190Y-62769047D01*
X46785714Y-62102380D02*
X46595238Y-62102380D01*
X46500000Y-62150000D01*
X46452380Y-62197619D01*
X46357142Y-62340476D01*
X46309523Y-62530952D01*
X46309523Y-62911904D01*
X46357142Y-63007142D01*
X46404761Y-63054761D01*
X46500000Y-63102380D01*
X46690476Y-63102380D01*
X46785714Y-63054761D01*
X46833333Y-63007142D01*
X46880952Y-62911904D01*
X46880952Y-62673809D01*
X46833333Y-62578571D01*
X46785714Y-62530952D01*
X46690476Y-62483333D01*
X46500000Y-62483333D01*
X46404761Y-62530952D01*
X46357142Y-62578571D01*
X46309523Y-62673809D01*
X47833333Y-63102380D02*
X47261904Y-63102380D01*
X47547619Y-63102380D02*
X47547619Y-62102380D01*
X47452380Y-62245238D01*
X47357142Y-62340476D01*
X47261904Y-62388095D01*
X48690476Y-62102380D02*
X48500000Y-62102380D01*
X48404761Y-62150000D01*
X48357142Y-62197619D01*
X48261904Y-62340476D01*
X48214285Y-62530952D01*
X48214285Y-62911904D01*
X48261904Y-63007142D01*
X48309523Y-63054761D01*
X48404761Y-63102380D01*
X48595238Y-63102380D01*
X48690476Y-63054761D01*
X48738095Y-63007142D01*
X48785714Y-62911904D01*
X48785714Y-62673809D01*
X48738095Y-62578571D01*
X48690476Y-62530952D01*
X48595238Y-62483333D01*
X48404761Y-62483333D01*
X48309523Y-62530952D01*
X48261904Y-62578571D01*
X48214285Y-62673809D01*
X49500000Y-62102380D02*
X49500000Y-62816666D01*
X49452380Y-62959523D01*
X49357142Y-63054761D01*
X49214285Y-63102380D01*
X49119047Y-63102380D01*
X50452380Y-62102380D02*
X49976190Y-62102380D01*
X49928571Y-62578571D01*
X49976190Y-62530952D01*
X50071428Y-62483333D01*
X50309523Y-62483333D01*
X50404761Y-62530952D01*
X50452380Y-62578571D01*
X50500000Y-62673809D01*
X50500000Y-62911904D01*
X50452380Y-63007142D01*
X50404761Y-63054761D01*
X50309523Y-63102380D01*
X50071428Y-63102380D01*
X49976190Y-63054761D01*
X49928571Y-63007142D01*
X51452380Y-63102380D02*
X50880952Y-63102380D01*
X51166666Y-63102380D02*
X51166666Y-62102380D01*
X51071428Y-62245238D01*
X50976190Y-62340476D01*
X50880952Y-62388095D01*
X51833333Y-62197619D02*
X51880952Y-62150000D01*
X51976190Y-62102380D01*
X52214285Y-62102380D01*
X52309523Y-62150000D01*
X52357142Y-62197619D01*
X52404761Y-62292857D01*
X52404761Y-62388095D01*
X52357142Y-62530952D01*
X51785714Y-63102380D01*
X52404761Y-63102380D01*
X46238095Y-52452380D02*
X46238095Y-53261904D01*
X46285714Y-53357142D01*
X46333333Y-53404761D01*
X46428571Y-53452380D01*
X46619047Y-53452380D01*
X46714285Y-53404761D01*
X46761904Y-53357142D01*
X46809523Y-53261904D01*
X46809523Y-52452380D01*
X47809523Y-53452380D02*
X47238095Y-53452380D01*
X47523809Y-53452380D02*
X47523809Y-52452380D01*
X47428571Y-52595238D01*
X47333333Y-52690476D01*
X47238095Y-52738095D01*
X57428571Y-70352380D02*
X57428571Y-69352380D01*
X57761904Y-70066666D01*
X58095238Y-69352380D01*
X58095238Y-70352380D01*
X58714285Y-70352380D02*
X58619047Y-70304761D01*
X58571428Y-70257142D01*
X58523809Y-70161904D01*
X58523809Y-69876190D01*
X58571428Y-69780952D01*
X58619047Y-69733333D01*
X58714285Y-69685714D01*
X58857142Y-69685714D01*
X58952380Y-69733333D01*
X59000000Y-69780952D01*
X59047619Y-69876190D01*
X59047619Y-70161904D01*
X59000000Y-70257142D01*
X58952380Y-70304761D01*
X58857142Y-70352380D01*
X58714285Y-70352380D01*
X59904761Y-69685714D02*
X59904761Y-70352380D01*
X59476190Y-69685714D02*
X59476190Y-70209523D01*
X59523809Y-70304761D01*
X59619047Y-70352380D01*
X59761904Y-70352380D01*
X59857142Y-70304761D01*
X59904761Y-70257142D01*
X60380952Y-69685714D02*
X60380952Y-70352380D01*
X60380952Y-69780952D02*
X60428571Y-69733333D01*
X60523809Y-69685714D01*
X60666666Y-69685714D01*
X60761904Y-69733333D01*
X60809523Y-69828571D01*
X60809523Y-70352380D01*
X61142857Y-69685714D02*
X61523809Y-69685714D01*
X61285714Y-69352380D02*
X61285714Y-70209523D01*
X61333333Y-70304761D01*
X61428571Y-70352380D01*
X61523809Y-70352380D01*
X61857142Y-70352380D02*
X61857142Y-69685714D01*
X61857142Y-69352380D02*
X61809523Y-69400000D01*
X61857142Y-69447619D01*
X61904761Y-69400000D01*
X61857142Y-69352380D01*
X61857142Y-69447619D01*
X62333333Y-69685714D02*
X62333333Y-70352380D01*
X62333333Y-69780952D02*
X62380952Y-69733333D01*
X62476190Y-69685714D01*
X62619047Y-69685714D01*
X62714285Y-69733333D01*
X62761904Y-69828571D01*
X62761904Y-70352380D01*
X63666666Y-69685714D02*
X63666666Y-70495238D01*
X63619047Y-70590476D01*
X63571428Y-70638095D01*
X63476190Y-70685714D01*
X63333333Y-70685714D01*
X63238095Y-70638095D01*
X63666666Y-70304761D02*
X63571428Y-70352380D01*
X63380952Y-70352380D01*
X63285714Y-70304761D01*
X63238095Y-70257142D01*
X63190476Y-70161904D01*
X63190476Y-69876190D01*
X63238095Y-69780952D01*
X63285714Y-69733333D01*
X63380952Y-69685714D01*
X63571428Y-69685714D01*
X63666666Y-69733333D01*
X64142857Y-70352380D02*
X64142857Y-69352380D01*
X64142857Y-69828571D02*
X64714285Y-69828571D01*
X64714285Y-70352380D02*
X64714285Y-69352380D01*
X65333333Y-70352380D02*
X65238095Y-70304761D01*
X65190476Y-70257142D01*
X65142857Y-70161904D01*
X65142857Y-69876190D01*
X65190476Y-69780952D01*
X65238095Y-69733333D01*
X65333333Y-69685714D01*
X65476190Y-69685714D01*
X65571428Y-69733333D01*
X65619047Y-69780952D01*
X65666666Y-69876190D01*
X65666666Y-70161904D01*
X65619047Y-70257142D01*
X65571428Y-70304761D01*
X65476190Y-70352380D01*
X65333333Y-70352380D01*
X66238095Y-70352380D02*
X66142857Y-70304761D01*
X66095238Y-70209523D01*
X66095238Y-69352380D01*
X67000000Y-70304761D02*
X66904761Y-70352380D01*
X66714285Y-70352380D01*
X66619047Y-70304761D01*
X66571428Y-70209523D01*
X66571428Y-69828571D01*
X66619047Y-69733333D01*
X66714285Y-69685714D01*
X66904761Y-69685714D01*
X67000000Y-69733333D01*
X67047619Y-69828571D01*
X67047619Y-69923809D01*
X66571428Y-70019047D01*
X67476190Y-69971428D02*
X68238095Y-69971428D01*
X68714285Y-70352380D02*
X68714285Y-69352380D01*
X69047619Y-70066666D01*
X69380952Y-69352380D01*
X69380952Y-70352380D01*
X70238095Y-70304761D02*
X70142857Y-70352380D01*
X69952380Y-70352380D01*
X69857142Y-70304761D01*
X69809523Y-70209523D01*
X69809523Y-69828571D01*
X69857142Y-69733333D01*
X69952380Y-69685714D01*
X70142857Y-69685714D01*
X70238095Y-69733333D01*
X70285714Y-69828571D01*
X70285714Y-69923809D01*
X69809523Y-70019047D01*
X71142857Y-70304761D02*
X71047619Y-70352380D01*
X70857142Y-70352380D01*
X70761904Y-70304761D01*
X70714285Y-70257142D01*
X70666666Y-70161904D01*
X70666666Y-69876190D01*
X70714285Y-69780952D01*
X70761904Y-69733333D01*
X70857142Y-69685714D01*
X71047619Y-69685714D01*
X71142857Y-69733333D01*
X71571428Y-70352380D02*
X71571428Y-69352380D01*
X72000000Y-70352380D02*
X72000000Y-69828571D01*
X71952380Y-69733333D01*
X71857142Y-69685714D01*
X71714285Y-69685714D01*
X71619047Y-69733333D01*
X71571428Y-69780952D01*
X72904761Y-70352380D02*
X72904761Y-69828571D01*
X72857142Y-69733333D01*
X72761904Y-69685714D01*
X72571428Y-69685714D01*
X72476190Y-69733333D01*
X72904761Y-70304761D02*
X72809523Y-70352380D01*
X72571428Y-70352380D01*
X72476190Y-70304761D01*
X72428571Y-70209523D01*
X72428571Y-70114285D01*
X72476190Y-70019047D01*
X72571428Y-69971428D01*
X72809523Y-69971428D01*
X72904761Y-69923809D01*
X73380952Y-69685714D02*
X73380952Y-70352380D01*
X73380952Y-69780952D02*
X73428571Y-69733333D01*
X73523809Y-69685714D01*
X73666666Y-69685714D01*
X73761904Y-69733333D01*
X73809523Y-69828571D01*
X73809523Y-70352380D01*
X74285714Y-70352380D02*
X74285714Y-69685714D01*
X74285714Y-69352380D02*
X74238095Y-69400000D01*
X74285714Y-69447619D01*
X74333333Y-69400000D01*
X74285714Y-69352380D01*
X74285714Y-69447619D01*
X75190476Y-70304761D02*
X75095238Y-70352380D01*
X74904761Y-70352380D01*
X74809523Y-70304761D01*
X74761904Y-70257142D01*
X74714285Y-70161904D01*
X74714285Y-69876190D01*
X74761904Y-69780952D01*
X74809523Y-69733333D01*
X74904761Y-69685714D01*
X75095238Y-69685714D01*
X75190476Y-69733333D01*
X76047619Y-70352380D02*
X76047619Y-69828571D01*
X76000000Y-69733333D01*
X75904761Y-69685714D01*
X75714285Y-69685714D01*
X75619047Y-69733333D01*
X76047619Y-70304761D02*
X75952380Y-70352380D01*
X75714285Y-70352380D01*
X75619047Y-70304761D01*
X75571428Y-70209523D01*
X75571428Y-70114285D01*
X75619047Y-70019047D01*
X75714285Y-69971428D01*
X75952380Y-69971428D01*
X76047619Y-69923809D01*
X76666666Y-70352380D02*
X76571428Y-70304761D01*
X76523809Y-70209523D01*
X76523809Y-69352380D01*
X66538095Y-67452380D02*
X66538095Y-66452380D01*
X66538095Y-66928571D02*
X67109523Y-66928571D01*
X67109523Y-67452380D02*
X67109523Y-66452380D01*
X68014285Y-66785714D02*
X68014285Y-67452380D01*
X67776190Y-66404761D02*
X67538095Y-67119047D01*
X68157142Y-67119047D01*
X57428571Y-26352380D02*
X57428571Y-25352380D01*
X57761904Y-26066666D01*
X58095238Y-25352380D01*
X58095238Y-26352380D01*
X58714285Y-26352380D02*
X58619047Y-26304761D01*
X58571428Y-26257142D01*
X58523809Y-26161904D01*
X58523809Y-25876190D01*
X58571428Y-25780952D01*
X58619047Y-25733333D01*
X58714285Y-25685714D01*
X58857142Y-25685714D01*
X58952380Y-25733333D01*
X59000000Y-25780952D01*
X59047619Y-25876190D01*
X59047619Y-26161904D01*
X59000000Y-26257142D01*
X58952380Y-26304761D01*
X58857142Y-26352380D01*
X58714285Y-26352380D01*
X59904761Y-25685714D02*
X59904761Y-26352380D01*
X59476190Y-25685714D02*
X59476190Y-26209523D01*
X59523809Y-26304761D01*
X59619047Y-26352380D01*
X59761904Y-26352380D01*
X59857142Y-26304761D01*
X59904761Y-26257142D01*
X60380952Y-25685714D02*
X60380952Y-26352380D01*
X60380952Y-25780952D02*
X60428571Y-25733333D01*
X60523809Y-25685714D01*
X60666666Y-25685714D01*
X60761904Y-25733333D01*
X60809523Y-25828571D01*
X60809523Y-26352380D01*
X61142857Y-25685714D02*
X61523809Y-25685714D01*
X61285714Y-25352380D02*
X61285714Y-26209523D01*
X61333333Y-26304761D01*
X61428571Y-26352380D01*
X61523809Y-26352380D01*
X61857142Y-26352380D02*
X61857142Y-25685714D01*
X61857142Y-25352380D02*
X61809523Y-25400000D01*
X61857142Y-25447619D01*
X61904761Y-25400000D01*
X61857142Y-25352380D01*
X61857142Y-25447619D01*
X62333333Y-25685714D02*
X62333333Y-26352380D01*
X62333333Y-25780952D02*
X62380952Y-25733333D01*
X62476190Y-25685714D01*
X62619047Y-25685714D01*
X62714285Y-25733333D01*
X62761904Y-25828571D01*
X62761904Y-26352380D01*
X63666666Y-25685714D02*
X63666666Y-26495238D01*
X63619047Y-26590476D01*
X63571428Y-26638095D01*
X63476190Y-26685714D01*
X63333333Y-26685714D01*
X63238095Y-26638095D01*
X63666666Y-26304761D02*
X63571428Y-26352380D01*
X63380952Y-26352380D01*
X63285714Y-26304761D01*
X63238095Y-26257142D01*
X63190476Y-26161904D01*
X63190476Y-25876190D01*
X63238095Y-25780952D01*
X63285714Y-25733333D01*
X63380952Y-25685714D01*
X63571428Y-25685714D01*
X63666666Y-25733333D01*
X64142857Y-26352380D02*
X64142857Y-25352380D01*
X64142857Y-25828571D02*
X64714285Y-25828571D01*
X64714285Y-26352380D02*
X64714285Y-25352380D01*
X65333333Y-26352380D02*
X65238095Y-26304761D01*
X65190476Y-26257142D01*
X65142857Y-26161904D01*
X65142857Y-25876190D01*
X65190476Y-25780952D01*
X65238095Y-25733333D01*
X65333333Y-25685714D01*
X65476190Y-25685714D01*
X65571428Y-25733333D01*
X65619047Y-25780952D01*
X65666666Y-25876190D01*
X65666666Y-26161904D01*
X65619047Y-26257142D01*
X65571428Y-26304761D01*
X65476190Y-26352380D01*
X65333333Y-26352380D01*
X66238095Y-26352380D02*
X66142857Y-26304761D01*
X66095238Y-26209523D01*
X66095238Y-25352380D01*
X67000000Y-26304761D02*
X66904761Y-26352380D01*
X66714285Y-26352380D01*
X66619047Y-26304761D01*
X66571428Y-26209523D01*
X66571428Y-25828571D01*
X66619047Y-25733333D01*
X66714285Y-25685714D01*
X66904761Y-25685714D01*
X67000000Y-25733333D01*
X67047619Y-25828571D01*
X67047619Y-25923809D01*
X66571428Y-26019047D01*
X67476190Y-25971428D02*
X68238095Y-25971428D01*
X68714285Y-26352380D02*
X68714285Y-25352380D01*
X69047619Y-26066666D01*
X69380952Y-25352380D01*
X69380952Y-26352380D01*
X70238095Y-26304761D02*
X70142857Y-26352380D01*
X69952380Y-26352380D01*
X69857142Y-26304761D01*
X69809523Y-26209523D01*
X69809523Y-25828571D01*
X69857142Y-25733333D01*
X69952380Y-25685714D01*
X70142857Y-25685714D01*
X70238095Y-25733333D01*
X70285714Y-25828571D01*
X70285714Y-25923809D01*
X69809523Y-26019047D01*
X71142857Y-26304761D02*
X71047619Y-26352380D01*
X70857142Y-26352380D01*
X70761904Y-26304761D01*
X70714285Y-26257142D01*
X70666666Y-26161904D01*
X70666666Y-25876190D01*
X70714285Y-25780952D01*
X70761904Y-25733333D01*
X70857142Y-25685714D01*
X71047619Y-25685714D01*
X71142857Y-25733333D01*
X71571428Y-26352380D02*
X71571428Y-25352380D01*
X72000000Y-26352380D02*
X72000000Y-25828571D01*
X71952380Y-25733333D01*
X71857142Y-25685714D01*
X71714285Y-25685714D01*
X71619047Y-25733333D01*
X71571428Y-25780952D01*
X72904761Y-26352380D02*
X72904761Y-25828571D01*
X72857142Y-25733333D01*
X72761904Y-25685714D01*
X72571428Y-25685714D01*
X72476190Y-25733333D01*
X72904761Y-26304761D02*
X72809523Y-26352380D01*
X72571428Y-26352380D01*
X72476190Y-26304761D01*
X72428571Y-26209523D01*
X72428571Y-26114285D01*
X72476190Y-26019047D01*
X72571428Y-25971428D01*
X72809523Y-25971428D01*
X72904761Y-25923809D01*
X73380952Y-25685714D02*
X73380952Y-26352380D01*
X73380952Y-25780952D02*
X73428571Y-25733333D01*
X73523809Y-25685714D01*
X73666666Y-25685714D01*
X73761904Y-25733333D01*
X73809523Y-25828571D01*
X73809523Y-26352380D01*
X74285714Y-26352380D02*
X74285714Y-25685714D01*
X74285714Y-25352380D02*
X74238095Y-25400000D01*
X74285714Y-25447619D01*
X74333333Y-25400000D01*
X74285714Y-25352380D01*
X74285714Y-25447619D01*
X75190476Y-26304761D02*
X75095238Y-26352380D01*
X74904761Y-26352380D01*
X74809523Y-26304761D01*
X74761904Y-26257142D01*
X74714285Y-26161904D01*
X74714285Y-25876190D01*
X74761904Y-25780952D01*
X74809523Y-25733333D01*
X74904761Y-25685714D01*
X75095238Y-25685714D01*
X75190476Y-25733333D01*
X76047619Y-26352380D02*
X76047619Y-25828571D01*
X76000000Y-25733333D01*
X75904761Y-25685714D01*
X75714285Y-25685714D01*
X75619047Y-25733333D01*
X76047619Y-26304761D02*
X75952380Y-26352380D01*
X75714285Y-26352380D01*
X75619047Y-26304761D01*
X75571428Y-26209523D01*
X75571428Y-26114285D01*
X75619047Y-26019047D01*
X75714285Y-25971428D01*
X75952380Y-25971428D01*
X76047619Y-25923809D01*
X76666666Y-26352380D02*
X76571428Y-26304761D01*
X76523809Y-26209523D01*
X76523809Y-25352380D01*
X66538095Y-23452380D02*
X66538095Y-22452380D01*
X66538095Y-22928571D02*
X67109523Y-22928571D01*
X67109523Y-23452380D02*
X67109523Y-22452380D01*
X67490476Y-22452380D02*
X68109523Y-22452380D01*
X67776190Y-22833333D01*
X67919047Y-22833333D01*
X68014285Y-22880952D01*
X68061904Y-22928571D01*
X68109523Y-23023809D01*
X68109523Y-23261904D01*
X68061904Y-23357142D01*
X68014285Y-23404761D01*
X67919047Y-23452380D01*
X67633333Y-23452380D01*
X67538095Y-23404761D01*
X67490476Y-23357142D01*
X13428571Y-26352380D02*
X13428571Y-25352380D01*
X13761904Y-26066666D01*
X14095238Y-25352380D01*
X14095238Y-26352380D01*
X14714285Y-26352380D02*
X14619047Y-26304761D01*
X14571428Y-26257142D01*
X14523809Y-26161904D01*
X14523809Y-25876190D01*
X14571428Y-25780952D01*
X14619047Y-25733333D01*
X14714285Y-25685714D01*
X14857142Y-25685714D01*
X14952380Y-25733333D01*
X15000000Y-25780952D01*
X15047619Y-25876190D01*
X15047619Y-26161904D01*
X15000000Y-26257142D01*
X14952380Y-26304761D01*
X14857142Y-26352380D01*
X14714285Y-26352380D01*
X15904761Y-25685714D02*
X15904761Y-26352380D01*
X15476190Y-25685714D02*
X15476190Y-26209523D01*
X15523809Y-26304761D01*
X15619047Y-26352380D01*
X15761904Y-26352380D01*
X15857142Y-26304761D01*
X15904761Y-26257142D01*
X16380952Y-25685714D02*
X16380952Y-26352380D01*
X16380952Y-25780952D02*
X16428571Y-25733333D01*
X16523809Y-25685714D01*
X16666666Y-25685714D01*
X16761904Y-25733333D01*
X16809523Y-25828571D01*
X16809523Y-26352380D01*
X17142857Y-25685714D02*
X17523809Y-25685714D01*
X17285714Y-25352380D02*
X17285714Y-26209523D01*
X17333333Y-26304761D01*
X17428571Y-26352380D01*
X17523809Y-26352380D01*
X17857142Y-26352380D02*
X17857142Y-25685714D01*
X17857142Y-25352380D02*
X17809523Y-25400000D01*
X17857142Y-25447619D01*
X17904761Y-25400000D01*
X17857142Y-25352380D01*
X17857142Y-25447619D01*
X18333333Y-25685714D02*
X18333333Y-26352380D01*
X18333333Y-25780952D02*
X18380952Y-25733333D01*
X18476190Y-25685714D01*
X18619047Y-25685714D01*
X18714285Y-25733333D01*
X18761904Y-25828571D01*
X18761904Y-26352380D01*
X19666666Y-25685714D02*
X19666666Y-26495238D01*
X19619047Y-26590476D01*
X19571428Y-26638095D01*
X19476190Y-26685714D01*
X19333333Y-26685714D01*
X19238095Y-26638095D01*
X19666666Y-26304761D02*
X19571428Y-26352380D01*
X19380952Y-26352380D01*
X19285714Y-26304761D01*
X19238095Y-26257142D01*
X19190476Y-26161904D01*
X19190476Y-25876190D01*
X19238095Y-25780952D01*
X19285714Y-25733333D01*
X19380952Y-25685714D01*
X19571428Y-25685714D01*
X19666666Y-25733333D01*
X20142857Y-26352380D02*
X20142857Y-25352380D01*
X20142857Y-25828571D02*
X20714285Y-25828571D01*
X20714285Y-26352380D02*
X20714285Y-25352380D01*
X21333333Y-26352380D02*
X21238095Y-26304761D01*
X21190476Y-26257142D01*
X21142857Y-26161904D01*
X21142857Y-25876190D01*
X21190476Y-25780952D01*
X21238095Y-25733333D01*
X21333333Y-25685714D01*
X21476190Y-25685714D01*
X21571428Y-25733333D01*
X21619047Y-25780952D01*
X21666666Y-25876190D01*
X21666666Y-26161904D01*
X21619047Y-26257142D01*
X21571428Y-26304761D01*
X21476190Y-26352380D01*
X21333333Y-26352380D01*
X22238095Y-26352380D02*
X22142857Y-26304761D01*
X22095238Y-26209523D01*
X22095238Y-25352380D01*
X23000000Y-26304761D02*
X22904761Y-26352380D01*
X22714285Y-26352380D01*
X22619047Y-26304761D01*
X22571428Y-26209523D01*
X22571428Y-25828571D01*
X22619047Y-25733333D01*
X22714285Y-25685714D01*
X22904761Y-25685714D01*
X23000000Y-25733333D01*
X23047619Y-25828571D01*
X23047619Y-25923809D01*
X22571428Y-26019047D01*
X23476190Y-25971428D02*
X24238095Y-25971428D01*
X24714285Y-26352380D02*
X24714285Y-25352380D01*
X25047619Y-26066666D01*
X25380952Y-25352380D01*
X25380952Y-26352380D01*
X26238095Y-26304761D02*
X26142857Y-26352380D01*
X25952380Y-26352380D01*
X25857142Y-26304761D01*
X25809523Y-26209523D01*
X25809523Y-25828571D01*
X25857142Y-25733333D01*
X25952380Y-25685714D01*
X26142857Y-25685714D01*
X26238095Y-25733333D01*
X26285714Y-25828571D01*
X26285714Y-25923809D01*
X25809523Y-26019047D01*
X27142857Y-26304761D02*
X27047619Y-26352380D01*
X26857142Y-26352380D01*
X26761904Y-26304761D01*
X26714285Y-26257142D01*
X26666666Y-26161904D01*
X26666666Y-25876190D01*
X26714285Y-25780952D01*
X26761904Y-25733333D01*
X26857142Y-25685714D01*
X27047619Y-25685714D01*
X27142857Y-25733333D01*
X27571428Y-26352380D02*
X27571428Y-25352380D01*
X27999999Y-26352380D02*
X27999999Y-25828571D01*
X27952380Y-25733333D01*
X27857142Y-25685714D01*
X27714285Y-25685714D01*
X27619047Y-25733333D01*
X27571428Y-25780952D01*
X28904761Y-26352380D02*
X28904761Y-25828571D01*
X28857142Y-25733333D01*
X28761904Y-25685714D01*
X28571428Y-25685714D01*
X28476190Y-25733333D01*
X28904761Y-26304761D02*
X28809523Y-26352380D01*
X28571428Y-26352380D01*
X28476190Y-26304761D01*
X28428571Y-26209523D01*
X28428571Y-26114285D01*
X28476190Y-26019047D01*
X28571428Y-25971428D01*
X28809523Y-25971428D01*
X28904761Y-25923809D01*
X29380952Y-25685714D02*
X29380952Y-26352380D01*
X29380952Y-25780952D02*
X29428571Y-25733333D01*
X29523809Y-25685714D01*
X29666666Y-25685714D01*
X29761904Y-25733333D01*
X29809523Y-25828571D01*
X29809523Y-26352380D01*
X30285714Y-26352380D02*
X30285714Y-25685714D01*
X30285714Y-25352380D02*
X30238095Y-25400000D01*
X30285714Y-25447619D01*
X30333333Y-25400000D01*
X30285714Y-25352380D01*
X30285714Y-25447619D01*
X31190476Y-26304761D02*
X31095238Y-26352380D01*
X30904761Y-26352380D01*
X30809523Y-26304761D01*
X30761904Y-26257142D01*
X30714285Y-26161904D01*
X30714285Y-25876190D01*
X30761904Y-25780952D01*
X30809523Y-25733333D01*
X30904761Y-25685714D01*
X31095238Y-25685714D01*
X31190476Y-25733333D01*
X32047619Y-26352380D02*
X32047619Y-25828571D01*
X31999999Y-25733333D01*
X31904761Y-25685714D01*
X31714285Y-25685714D01*
X31619047Y-25733333D01*
X32047619Y-26304761D02*
X31952380Y-26352380D01*
X31714285Y-26352380D01*
X31619047Y-26304761D01*
X31571428Y-26209523D01*
X31571428Y-26114285D01*
X31619047Y-26019047D01*
X31714285Y-25971428D01*
X31952380Y-25971428D01*
X32047619Y-25923809D01*
X32666666Y-26352380D02*
X32571428Y-26304761D01*
X32523809Y-26209523D01*
X32523809Y-25352380D01*
X22538095Y-23452380D02*
X22538095Y-22452380D01*
X22538095Y-22928571D02*
X23109523Y-22928571D01*
X23109523Y-23452380D02*
X23109523Y-22452380D01*
X23538095Y-22547619D02*
X23585714Y-22500000D01*
X23680952Y-22452380D01*
X23919047Y-22452380D01*
X24014285Y-22500000D01*
X24061904Y-22547619D01*
X24109523Y-22642857D01*
X24109523Y-22738095D01*
X24061904Y-22880952D01*
X23490476Y-23452380D01*
X24109523Y-23452380D01*
X13428571Y-70352380D02*
X13428571Y-69352380D01*
X13761904Y-70066666D01*
X14095238Y-69352380D01*
X14095238Y-70352380D01*
X14714285Y-70352380D02*
X14619047Y-70304761D01*
X14571428Y-70257142D01*
X14523809Y-70161904D01*
X14523809Y-69876190D01*
X14571428Y-69780952D01*
X14619047Y-69733333D01*
X14714285Y-69685714D01*
X14857142Y-69685714D01*
X14952380Y-69733333D01*
X15000000Y-69780952D01*
X15047619Y-69876190D01*
X15047619Y-70161904D01*
X15000000Y-70257142D01*
X14952380Y-70304761D01*
X14857142Y-70352380D01*
X14714285Y-70352380D01*
X15904761Y-69685714D02*
X15904761Y-70352380D01*
X15476190Y-69685714D02*
X15476190Y-70209523D01*
X15523809Y-70304761D01*
X15619047Y-70352380D01*
X15761904Y-70352380D01*
X15857142Y-70304761D01*
X15904761Y-70257142D01*
X16380952Y-69685714D02*
X16380952Y-70352380D01*
X16380952Y-69780952D02*
X16428571Y-69733333D01*
X16523809Y-69685714D01*
X16666666Y-69685714D01*
X16761904Y-69733333D01*
X16809523Y-69828571D01*
X16809523Y-70352380D01*
X17142857Y-69685714D02*
X17523809Y-69685714D01*
X17285714Y-69352380D02*
X17285714Y-70209523D01*
X17333333Y-70304761D01*
X17428571Y-70352380D01*
X17523809Y-70352380D01*
X17857142Y-70352380D02*
X17857142Y-69685714D01*
X17857142Y-69352380D02*
X17809523Y-69400000D01*
X17857142Y-69447619D01*
X17904761Y-69400000D01*
X17857142Y-69352380D01*
X17857142Y-69447619D01*
X18333333Y-69685714D02*
X18333333Y-70352380D01*
X18333333Y-69780952D02*
X18380952Y-69733333D01*
X18476190Y-69685714D01*
X18619047Y-69685714D01*
X18714285Y-69733333D01*
X18761904Y-69828571D01*
X18761904Y-70352380D01*
X19666666Y-69685714D02*
X19666666Y-70495238D01*
X19619047Y-70590476D01*
X19571428Y-70638095D01*
X19476190Y-70685714D01*
X19333333Y-70685714D01*
X19238095Y-70638095D01*
X19666666Y-70304761D02*
X19571428Y-70352380D01*
X19380952Y-70352380D01*
X19285714Y-70304761D01*
X19238095Y-70257142D01*
X19190476Y-70161904D01*
X19190476Y-69876190D01*
X19238095Y-69780952D01*
X19285714Y-69733333D01*
X19380952Y-69685714D01*
X19571428Y-69685714D01*
X19666666Y-69733333D01*
X20142857Y-70352380D02*
X20142857Y-69352380D01*
X20142857Y-69828571D02*
X20714285Y-69828571D01*
X20714285Y-70352380D02*
X20714285Y-69352380D01*
X21333333Y-70352380D02*
X21238095Y-70304761D01*
X21190476Y-70257142D01*
X21142857Y-70161904D01*
X21142857Y-69876190D01*
X21190476Y-69780952D01*
X21238095Y-69733333D01*
X21333333Y-69685714D01*
X21476190Y-69685714D01*
X21571428Y-69733333D01*
X21619047Y-69780952D01*
X21666666Y-69876190D01*
X21666666Y-70161904D01*
X21619047Y-70257142D01*
X21571428Y-70304761D01*
X21476190Y-70352380D01*
X21333333Y-70352380D01*
X22238095Y-70352380D02*
X22142857Y-70304761D01*
X22095238Y-70209523D01*
X22095238Y-69352380D01*
X23000000Y-70304761D02*
X22904761Y-70352380D01*
X22714285Y-70352380D01*
X22619047Y-70304761D01*
X22571428Y-70209523D01*
X22571428Y-69828571D01*
X22619047Y-69733333D01*
X22714285Y-69685714D01*
X22904761Y-69685714D01*
X23000000Y-69733333D01*
X23047619Y-69828571D01*
X23047619Y-69923809D01*
X22571428Y-70019047D01*
X23476190Y-69971428D02*
X24238095Y-69971428D01*
X24714285Y-70352380D02*
X24714285Y-69352380D01*
X25047619Y-70066666D01*
X25380952Y-69352380D01*
X25380952Y-70352380D01*
X26238095Y-70304761D02*
X26142857Y-70352380D01*
X25952380Y-70352380D01*
X25857142Y-70304761D01*
X25809523Y-70209523D01*
X25809523Y-69828571D01*
X25857142Y-69733333D01*
X25952380Y-69685714D01*
X26142857Y-69685714D01*
X26238095Y-69733333D01*
X26285714Y-69828571D01*
X26285714Y-69923809D01*
X25809523Y-70019047D01*
X27142857Y-70304761D02*
X27047619Y-70352380D01*
X26857142Y-70352380D01*
X26761904Y-70304761D01*
X26714285Y-70257142D01*
X26666666Y-70161904D01*
X26666666Y-69876190D01*
X26714285Y-69780952D01*
X26761904Y-69733333D01*
X26857142Y-69685714D01*
X27047619Y-69685714D01*
X27142857Y-69733333D01*
X27571428Y-70352380D02*
X27571428Y-69352380D01*
X27999999Y-70352380D02*
X27999999Y-69828571D01*
X27952380Y-69733333D01*
X27857142Y-69685714D01*
X27714285Y-69685714D01*
X27619047Y-69733333D01*
X27571428Y-69780952D01*
X28904761Y-70352380D02*
X28904761Y-69828571D01*
X28857142Y-69733333D01*
X28761904Y-69685714D01*
X28571428Y-69685714D01*
X28476190Y-69733333D01*
X28904761Y-70304761D02*
X28809523Y-70352380D01*
X28571428Y-70352380D01*
X28476190Y-70304761D01*
X28428571Y-70209523D01*
X28428571Y-70114285D01*
X28476190Y-70019047D01*
X28571428Y-69971428D01*
X28809523Y-69971428D01*
X28904761Y-69923809D01*
X29380952Y-69685714D02*
X29380952Y-70352380D01*
X29380952Y-69780952D02*
X29428571Y-69733333D01*
X29523809Y-69685714D01*
X29666666Y-69685714D01*
X29761904Y-69733333D01*
X29809523Y-69828571D01*
X29809523Y-70352380D01*
X30285714Y-70352380D02*
X30285714Y-69685714D01*
X30285714Y-69352380D02*
X30238095Y-69400000D01*
X30285714Y-69447619D01*
X30333333Y-69400000D01*
X30285714Y-69352380D01*
X30285714Y-69447619D01*
X31190476Y-70304761D02*
X31095238Y-70352380D01*
X30904761Y-70352380D01*
X30809523Y-70304761D01*
X30761904Y-70257142D01*
X30714285Y-70161904D01*
X30714285Y-69876190D01*
X30761904Y-69780952D01*
X30809523Y-69733333D01*
X30904761Y-69685714D01*
X31095238Y-69685714D01*
X31190476Y-69733333D01*
X32047619Y-70352380D02*
X32047619Y-69828571D01*
X31999999Y-69733333D01*
X31904761Y-69685714D01*
X31714285Y-69685714D01*
X31619047Y-69733333D01*
X32047619Y-70304761D02*
X31952380Y-70352380D01*
X31714285Y-70352380D01*
X31619047Y-70304761D01*
X31571428Y-70209523D01*
X31571428Y-70114285D01*
X31619047Y-70019047D01*
X31714285Y-69971428D01*
X31952380Y-69971428D01*
X32047619Y-69923809D01*
X32666666Y-70352380D02*
X32571428Y-70304761D01*
X32523809Y-70209523D01*
X32523809Y-69352380D01*
X22538095Y-67452380D02*
X22538095Y-66452380D01*
X22538095Y-66928571D02*
X23109523Y-66928571D01*
X23109523Y-67452380D02*
X23109523Y-66452380D01*
X24109523Y-67452380D02*
X23538095Y-67452380D01*
X23823809Y-67452380D02*
X23823809Y-66452380D01*
X23728571Y-66595238D01*
X23633333Y-66690476D01*
X23538095Y-66738095D01*
X52179801Y-24405040D02*
X52227420Y-24262182D01*
X52227420Y-24024087D01*
X52179801Y-23928849D01*
X52132182Y-23881230D01*
X52036944Y-23833611D01*
X51941706Y-23833611D01*
X51846468Y-23881230D01*
X51798849Y-23928849D01*
X51751230Y-24024087D01*
X51703611Y-24214563D01*
X51655992Y-24309801D01*
X51608373Y-24357420D01*
X51513135Y-24405040D01*
X51417897Y-24405040D01*
X51322659Y-24357420D01*
X51275040Y-24309801D01*
X51227420Y-24214563D01*
X51227420Y-23976468D01*
X51275040Y-23833611D01*
X52227420Y-22928849D02*
X52227420Y-23405040D01*
X51227420Y-23405040D01*
X51941706Y-22643135D02*
X51941706Y-22166944D01*
X52227420Y-22738373D02*
X51227420Y-22405040D01*
X52227420Y-22071706D01*
X51227420Y-21881230D02*
X52227420Y-21547897D01*
X51227420Y-21214563D01*
X51703611Y-20881230D02*
X51703611Y-20547897D01*
X52227420Y-20405040D02*
X52227420Y-20881230D01*
X51227420Y-20881230D01*
X51227420Y-20405040D01*
X54541706Y-21857420D02*
X54541706Y-22571706D01*
X54494087Y-22714563D01*
X54398849Y-22809801D01*
X54255992Y-22857420D01*
X54160754Y-22857420D01*
X55017897Y-22857420D02*
X55017897Y-21857420D01*
X55398849Y-21857420D01*
X55494087Y-21905040D01*
X55541706Y-21952659D01*
X55589325Y-22047897D01*
X55589325Y-22190754D01*
X55541706Y-22285992D01*
X55494087Y-22333611D01*
X55398849Y-22381230D01*
X55017897Y-22381230D01*
X55970278Y-21952659D02*
X56017897Y-21905040D01*
X56113135Y-21857420D01*
X56351230Y-21857420D01*
X56446468Y-21905040D01*
X56494087Y-21952659D01*
X56541706Y-22047897D01*
X56541706Y-22143135D01*
X56494087Y-22285992D01*
X55922659Y-22857420D01*
X56541706Y-22857420D01*
X19382182Y-47067182D02*
X19334563Y-47114801D01*
X19191706Y-47162420D01*
X19096468Y-47162420D01*
X18953611Y-47114801D01*
X18858373Y-47019563D01*
X18810754Y-46924325D01*
X18763135Y-46733849D01*
X18763135Y-46590992D01*
X18810754Y-46400516D01*
X18858373Y-46305278D01*
X18953611Y-46210040D01*
X19096468Y-46162420D01*
X19191706Y-46162420D01*
X19334563Y-46210040D01*
X19382182Y-46257659D01*
X19953611Y-47162420D02*
X19858373Y-47114801D01*
X19810754Y-47067182D01*
X19763135Y-46971944D01*
X19763135Y-46686230D01*
X19810754Y-46590992D01*
X19858373Y-46543373D01*
X19953611Y-46495754D01*
X20096468Y-46495754D01*
X20191706Y-46543373D01*
X20239325Y-46590992D01*
X20286944Y-46686230D01*
X20286944Y-46971944D01*
X20239325Y-47067182D01*
X20191706Y-47114801D01*
X20096468Y-47162420D01*
X19953611Y-47162420D01*
X20715516Y-46495754D02*
X20715516Y-47162420D01*
X20715516Y-46590992D02*
X20763135Y-46543373D01*
X20858373Y-46495754D01*
X21001230Y-46495754D01*
X21096468Y-46543373D01*
X21144087Y-46638611D01*
X21144087Y-47162420D01*
X21620278Y-46495754D02*
X21620278Y-47162420D01*
X21620278Y-46590992D02*
X21667897Y-46543373D01*
X21763135Y-46495754D01*
X21905992Y-46495754D01*
X22001230Y-46543373D01*
X22048849Y-46638611D01*
X22048849Y-47162420D01*
X22286944Y-47257659D02*
X23048849Y-47257659D01*
X23477420Y-46162420D02*
X23572659Y-46162420D01*
X23667897Y-46210040D01*
X23715516Y-46257659D01*
X23763135Y-46352897D01*
X23810754Y-46543373D01*
X23810754Y-46781468D01*
X23763135Y-46971944D01*
X23715516Y-47067182D01*
X23667897Y-47114801D01*
X23572659Y-47162420D01*
X23477420Y-47162420D01*
X23382182Y-47114801D01*
X23334563Y-47067182D01*
X23286944Y-46971944D01*
X23239325Y-46781468D01*
X23239325Y-46543373D01*
X23286944Y-46352897D01*
X23334563Y-46257659D01*
X23382182Y-46210040D01*
X23477420Y-46162420D01*
X24191706Y-46257659D02*
X24239325Y-46210040D01*
X24334563Y-46162420D01*
X24572659Y-46162420D01*
X24667897Y-46210040D01*
X24715516Y-46257659D01*
X24763135Y-46352897D01*
X24763135Y-46448135D01*
X24715516Y-46590992D01*
X24144087Y-47162420D01*
X24763135Y-47162420D01*
X25096468Y-47162420D02*
X25620278Y-46495754D01*
X25096468Y-46495754D02*
X25620278Y-47162420D01*
X26191706Y-46162420D02*
X26286944Y-46162420D01*
X26382182Y-46210040D01*
X26429801Y-46257659D01*
X26477420Y-46352897D01*
X26525039Y-46543373D01*
X26525039Y-46781468D01*
X26477420Y-46971944D01*
X26429801Y-47067182D01*
X26382182Y-47114801D01*
X26286944Y-47162420D01*
X26191706Y-47162420D01*
X26096468Y-47114801D01*
X26048849Y-47067182D01*
X26001230Y-46971944D01*
X25953611Y-46781468D01*
X25953611Y-46543373D01*
X26001230Y-46352897D01*
X26048849Y-46257659D01*
X26096468Y-46210040D01*
X26191706Y-46162420D01*
X27429801Y-46162420D02*
X26953611Y-46162420D01*
X26905992Y-46638611D01*
X26953611Y-46590992D01*
X27048849Y-46543373D01*
X27286944Y-46543373D01*
X27382182Y-46590992D01*
X27429801Y-46638611D01*
X27477420Y-46733849D01*
X27477420Y-46971944D01*
X27429801Y-47067182D01*
X27382182Y-47114801D01*
X27286944Y-47162420D01*
X27048849Y-47162420D01*
X26953611Y-47114801D01*
X26905992Y-47067182D01*
X27667897Y-47257659D02*
X28429801Y-47257659D01*
X28858373Y-46162420D02*
X29048849Y-46162420D01*
X29144087Y-46210040D01*
X29239325Y-46305278D01*
X29286944Y-46495754D01*
X29286944Y-46829087D01*
X29239325Y-47019563D01*
X29144087Y-47114801D01*
X29048849Y-47162420D01*
X28858373Y-47162420D01*
X28763135Y-47114801D01*
X28667897Y-47019563D01*
X28620278Y-46829087D01*
X28620278Y-46495754D01*
X28667897Y-46305278D01*
X28763135Y-46210040D01*
X28858373Y-46162420D01*
X30144087Y-47162420D02*
X30144087Y-46162420D01*
X30144087Y-47114801D02*
X30048849Y-47162420D01*
X29858373Y-47162420D01*
X29763135Y-47114801D01*
X29715516Y-47067182D01*
X29667897Y-46971944D01*
X29667897Y-46686230D01*
X29715516Y-46590992D01*
X29763135Y-46543373D01*
X29858373Y-46495754D01*
X30048849Y-46495754D01*
X30144087Y-46543373D01*
X31048849Y-47162420D02*
X31048849Y-46162420D01*
X31048849Y-47114801D02*
X30953611Y-47162420D01*
X30763135Y-47162420D01*
X30667897Y-47114801D01*
X30620278Y-47067182D01*
X30572659Y-46971944D01*
X30572659Y-46686230D01*
X30620278Y-46590992D01*
X30667897Y-46543373D01*
X30763135Y-46495754D01*
X30953611Y-46495754D01*
X31048849Y-46543373D01*
X31286944Y-47257659D02*
X32048849Y-47257659D01*
X32286944Y-46638611D02*
X32620278Y-46638611D01*
X32763135Y-47162420D02*
X32286944Y-47162420D01*
X32286944Y-46162420D01*
X32763135Y-46162420D01*
X33096468Y-46495754D02*
X33334563Y-47162420D01*
X33572659Y-46495754D01*
X34334563Y-47114801D02*
X34239325Y-47162420D01*
X34048849Y-47162420D01*
X33953611Y-47114801D01*
X33905992Y-47019563D01*
X33905992Y-46638611D01*
X33953611Y-46543373D01*
X34048849Y-46495754D01*
X34239325Y-46495754D01*
X34334563Y-46543373D01*
X34382182Y-46638611D01*
X34382182Y-46733849D01*
X33905992Y-46829087D01*
X34810754Y-46495754D02*
X34810754Y-47162420D01*
X34810754Y-46590992D02*
X34858373Y-46543373D01*
X34953611Y-46495754D01*
X35096468Y-46495754D01*
X35191706Y-46543373D01*
X35239325Y-46638611D01*
X35239325Y-47162420D01*
X26477420Y-42808373D02*
X27191706Y-42808373D01*
X27334563Y-42855992D01*
X27429801Y-42951230D01*
X27477420Y-43094087D01*
X27477420Y-43189325D01*
X26572659Y-42379801D02*
X26525040Y-42332182D01*
X26477420Y-42236944D01*
X26477420Y-41998849D01*
X26525040Y-41903611D01*
X26572659Y-41855992D01*
X26667897Y-41808373D01*
X26763135Y-41808373D01*
X26905992Y-41855992D01*
X27477420Y-42427420D01*
X27477420Y-41808373D01*
X52839801Y-32097420D02*
X52839801Y-31097420D01*
X53173135Y-31811706D01*
X53506468Y-31097420D01*
X53506468Y-32097420D01*
X53982659Y-32097420D02*
X53982659Y-31097420D01*
X54220754Y-31097420D01*
X54363611Y-31145040D01*
X54458849Y-31240278D01*
X54506468Y-31335516D01*
X54554087Y-31525992D01*
X54554087Y-31668849D01*
X54506468Y-31859325D01*
X54458849Y-31954563D01*
X54363611Y-32049801D01*
X54220754Y-32097420D01*
X53982659Y-32097420D01*
X54982659Y-32097420D02*
X54982659Y-31097420D01*
X55649325Y-31097420D02*
X55839801Y-31097420D01*
X55935040Y-31145040D01*
X56030278Y-31240278D01*
X56077897Y-31430754D01*
X56077897Y-31764087D01*
X56030278Y-31954563D01*
X55935040Y-32049801D01*
X55839801Y-32097420D01*
X55649325Y-32097420D01*
X55554087Y-32049801D01*
X55458849Y-31954563D01*
X55411230Y-31764087D01*
X55411230Y-31430754D01*
X55458849Y-31240278D01*
X55554087Y-31145040D01*
X55649325Y-31097420D01*
X53173135Y-27697420D02*
X53744563Y-27697420D01*
X53458849Y-28697420D02*
X53458849Y-27697420D01*
X54077897Y-28697420D02*
X54077897Y-27697420D01*
X54458849Y-27697420D01*
X54554087Y-27745040D01*
X54601706Y-27792659D01*
X54649325Y-27887897D01*
X54649325Y-28030754D01*
X54601706Y-28125992D01*
X54554087Y-28173611D01*
X54458849Y-28221230D01*
X54077897Y-28221230D01*
X55506468Y-28030754D02*
X55506468Y-28697420D01*
X55268373Y-27649801D02*
X55030278Y-28364087D01*
X55649325Y-28364087D01*
X44121982Y-30053240D02*
X44121982Y-29053240D01*
X44360078Y-29053240D01*
X44502935Y-29100860D01*
X44598173Y-29196098D01*
X44645792Y-29291336D01*
X44693411Y-29481812D01*
X44693411Y-29624669D01*
X44645792Y-29815145D01*
X44598173Y-29910383D01*
X44502935Y-30005621D01*
X44360078Y-30053240D01*
X44121982Y-30053240D01*
X45121982Y-30053240D02*
X45121982Y-29053240D01*
X45502935Y-29053240D01*
X45598173Y-29100860D01*
X45645792Y-29148479D01*
X45693411Y-29243717D01*
X45693411Y-29386574D01*
X45645792Y-29481812D01*
X45598173Y-29529431D01*
X45502935Y-29577050D01*
X45121982Y-29577050D01*
X46264840Y-29481812D02*
X46169601Y-29434193D01*
X46121982Y-29386574D01*
X46074363Y-29291336D01*
X46074363Y-29243717D01*
X46121982Y-29148479D01*
X46169601Y-29100860D01*
X46264840Y-29053240D01*
X46455316Y-29053240D01*
X46550554Y-29100860D01*
X46598173Y-29148479D01*
X46645792Y-29243717D01*
X46645792Y-29291336D01*
X46598173Y-29386574D01*
X46550554Y-29434193D01*
X46455316Y-29481812D01*
X46264840Y-29481812D01*
X46169601Y-29529431D01*
X46121982Y-29577050D01*
X46074363Y-29672288D01*
X46074363Y-29862764D01*
X46121982Y-29958002D01*
X46169601Y-30005621D01*
X46264840Y-30053240D01*
X46455316Y-30053240D01*
X46550554Y-30005621D01*
X46598173Y-29958002D01*
X46645792Y-29862764D01*
X46645792Y-29672288D01*
X46598173Y-29577050D01*
X46550554Y-29529431D01*
X46455316Y-29481812D01*
X46979125Y-29053240D02*
X47598173Y-29053240D01*
X47264840Y-29434193D01*
X47407697Y-29434193D01*
X47502935Y-29481812D01*
X47550554Y-29529431D01*
X47598173Y-29624669D01*
X47598173Y-29862764D01*
X47550554Y-29958002D01*
X47502935Y-30005621D01*
X47407697Y-30053240D01*
X47121982Y-30053240D01*
X47026744Y-30005621D01*
X46979125Y-29958002D01*
X47883887Y-29053240D02*
X48455316Y-29053240D01*
X48169601Y-30053240D02*
X48169601Y-29053240D01*
X49360078Y-29958002D02*
X49312459Y-30005621D01*
X49169601Y-30053240D01*
X49074363Y-30053240D01*
X48931506Y-30005621D01*
X48836268Y-29910383D01*
X48788649Y-29815145D01*
X48741030Y-29624669D01*
X48741030Y-29481812D01*
X48788649Y-29291336D01*
X48836268Y-29196098D01*
X48931506Y-29100860D01*
X49074363Y-29053240D01*
X49169601Y-29053240D01*
X49312459Y-29100860D01*
X49360078Y-29148479D01*
X49931506Y-29481812D02*
X49836268Y-29434193D01*
X49788649Y-29386574D01*
X49741030Y-29291336D01*
X49741030Y-29243717D01*
X49788649Y-29148479D01*
X49836268Y-29100860D01*
X49931506Y-29053240D01*
X50121982Y-29053240D01*
X50217220Y-29100860D01*
X50264840Y-29148479D01*
X50312459Y-29243717D01*
X50312459Y-29291336D01*
X50264840Y-29386574D01*
X50217220Y-29434193D01*
X50121982Y-29481812D01*
X49931506Y-29481812D01*
X49836268Y-29529431D01*
X49788649Y-29577050D01*
X49741030Y-29672288D01*
X49741030Y-29862764D01*
X49788649Y-29958002D01*
X49836268Y-30005621D01*
X49931506Y-30053240D01*
X50121982Y-30053240D01*
X50217220Y-30005621D01*
X50264840Y-29958002D01*
X50312459Y-29862764D01*
X50312459Y-29672288D01*
X50264840Y-29577050D01*
X50217220Y-29529431D01*
X50121982Y-29481812D01*
X51264840Y-30053240D02*
X50693411Y-30053240D01*
X50979125Y-30053240D02*
X50979125Y-29053240D01*
X50883887Y-29196098D01*
X50788649Y-29291336D01*
X50693411Y-29338955D01*
X52217220Y-30053240D02*
X51645792Y-30053240D01*
X51931506Y-30053240D02*
X51931506Y-29053240D01*
X51836268Y-29196098D01*
X51741030Y-29291336D01*
X51645792Y-29338955D01*
X53217220Y-30053240D02*
X52883887Y-29577050D01*
X52645792Y-30053240D02*
X52645792Y-29053240D01*
X53026744Y-29053240D01*
X53121982Y-29100860D01*
X53169601Y-29148479D01*
X53217220Y-29243717D01*
X53217220Y-29386574D01*
X53169601Y-29481812D01*
X53121982Y-29529431D01*
X53026744Y-29577050D01*
X52645792Y-29577050D01*
X53645792Y-29672288D02*
X54407697Y-29672288D01*
X55550554Y-30148479D02*
X55455316Y-30100860D01*
X55360078Y-30005621D01*
X55217220Y-29862764D01*
X55121982Y-29815145D01*
X55026744Y-29815145D01*
X55074363Y-30053240D02*
X54979125Y-30005621D01*
X54883887Y-29910383D01*
X54836268Y-29719907D01*
X54836268Y-29386574D01*
X54883887Y-29196098D01*
X54979125Y-29100860D01*
X55074363Y-29053240D01*
X55264840Y-29053240D01*
X55360078Y-29100860D01*
X55455316Y-29196098D01*
X55502935Y-29386574D01*
X55502935Y-29719907D01*
X55455316Y-29910383D01*
X55360078Y-30005621D01*
X55264840Y-30053240D01*
X55074363Y-30053240D01*
X56455316Y-30053240D02*
X55883887Y-30053240D01*
X56169601Y-30053240D02*
X56169601Y-29053240D01*
X56074363Y-29196098D01*
X55979125Y-29291336D01*
X55883887Y-29338955D01*
X44537420Y-40489563D02*
X44537420Y-39870516D01*
X44918373Y-40203849D01*
X44918373Y-40060992D01*
X44965992Y-39965754D01*
X45013611Y-39918135D01*
X45108849Y-39870516D01*
X45346944Y-39870516D01*
X45442182Y-39918135D01*
X45489801Y-39965754D01*
X45537420Y-40060992D01*
X45537420Y-40346706D01*
X45489801Y-40441944D01*
X45442182Y-40489563D01*
X44537420Y-39537182D02*
X44537420Y-38918135D01*
X44918373Y-39251468D01*
X44918373Y-39108611D01*
X44965992Y-39013373D01*
X45013611Y-38965754D01*
X45108849Y-38918135D01*
X45346944Y-38918135D01*
X45442182Y-38965754D01*
X45489801Y-39013373D01*
X45537420Y-39108611D01*
X45537420Y-39394325D01*
X45489801Y-39489563D01*
X45442182Y-39537182D01*
D13*
X46961230Y-40001468D02*
X46723135Y-40168135D01*
X46961230Y-40287182D02*
X46461230Y-40287182D01*
X46461230Y-40096706D01*
X46485040Y-40049087D01*
X46508849Y-40025278D01*
X46556468Y-40001468D01*
X46627897Y-40001468D01*
X46675516Y-40025278D01*
X46699325Y-40049087D01*
X46723135Y-40096706D01*
X46723135Y-40287182D01*
X46508849Y-39810992D02*
X46485040Y-39787182D01*
X46461230Y-39739563D01*
X46461230Y-39620516D01*
X46485040Y-39572897D01*
X46508849Y-39549087D01*
X46556468Y-39525278D01*
X46604087Y-39525278D01*
X46675516Y-39549087D01*
X46961230Y-39834801D01*
X46961230Y-39525278D01*
X46508849Y-39334801D02*
X46485040Y-39310992D01*
X46461230Y-39263373D01*
X46461230Y-39144325D01*
X46485040Y-39096706D01*
X46508849Y-39072897D01*
X46556468Y-39049087D01*
X46604087Y-39049087D01*
X46675516Y-39072897D01*
X46961230Y-39358611D01*
X46961230Y-39049087D01*
D11*
X57831706Y-44877420D02*
X57831706Y-43877420D01*
X58165040Y-44591706D01*
X58498373Y-43877420D01*
X58498373Y-44877420D01*
X59545992Y-44782182D02*
X59498373Y-44829801D01*
X59355516Y-44877420D01*
X59260278Y-44877420D01*
X59117420Y-44829801D01*
X59022182Y-44734563D01*
X58974563Y-44639325D01*
X58926944Y-44448849D01*
X58926944Y-44305992D01*
X58974563Y-44115516D01*
X59022182Y-44020278D01*
X59117420Y-43925040D01*
X59260278Y-43877420D01*
X59355516Y-43877420D01*
X59498373Y-43925040D01*
X59545992Y-43972659D01*
X59974563Y-44877420D02*
X59974563Y-43877420D01*
X60212659Y-43877420D01*
X60355516Y-43925040D01*
X60450754Y-44020278D01*
X60498373Y-44115516D01*
X60545992Y-44305992D01*
X60545992Y-44448849D01*
X60498373Y-44639325D01*
X60450754Y-44734563D01*
X60355516Y-44829801D01*
X60212659Y-44877420D01*
X59974563Y-44877420D01*
X59712659Y-39991706D02*
X58998373Y-39991706D01*
X58855516Y-39944087D01*
X58760278Y-39848849D01*
X58712659Y-39705992D01*
X58712659Y-39610754D01*
X58712659Y-40467897D02*
X59712659Y-40467897D01*
X59712659Y-40848849D01*
X59665040Y-40944087D01*
X59617420Y-40991706D01*
X59522182Y-41039325D01*
X59379325Y-41039325D01*
X59284087Y-40991706D01*
X59236468Y-40944087D01*
X59188849Y-40848849D01*
X59188849Y-40467897D01*
X58712659Y-41991706D02*
X58712659Y-41420278D01*
X58712659Y-41705992D02*
X59712659Y-41705992D01*
X59569801Y-41610754D01*
X59474563Y-41515516D01*
X59426944Y-41420278D01*
X57252182Y-28877420D02*
X56775992Y-28877420D01*
X56775992Y-27877420D01*
X57585516Y-28353611D02*
X57918849Y-28353611D01*
X58061706Y-28877420D02*
X57585516Y-28877420D01*
X57585516Y-27877420D01*
X58061706Y-27877420D01*
X58490278Y-28877420D02*
X58490278Y-27877420D01*
X58728373Y-27877420D01*
X58871230Y-27925040D01*
X58966468Y-28020278D01*
X59014087Y-28115516D01*
X59061706Y-28305992D01*
X59061706Y-28448849D01*
X59014087Y-28639325D01*
X58966468Y-28734563D01*
X58871230Y-28829801D01*
X58728373Y-28877420D01*
X58490278Y-28877420D01*
D12*
X57304563Y-26506944D02*
X57304563Y-25706944D01*
X57495040Y-25706944D01*
X57609325Y-25745040D01*
X57685516Y-25821230D01*
X57723611Y-25897420D01*
X57761706Y-26049801D01*
X57761706Y-26164087D01*
X57723611Y-26316468D01*
X57685516Y-26392659D01*
X57609325Y-26468849D01*
X57495040Y-26506944D01*
X57304563Y-26506944D01*
X58447420Y-25973611D02*
X58447420Y-26506944D01*
X58256944Y-25668849D02*
X58066468Y-26240278D01*
X58561706Y-26240278D01*
D11*
X57731564Y-35133001D02*
X57255374Y-35133001D01*
X57255374Y-34133001D01*
X58064898Y-34609192D02*
X58398231Y-34609192D01*
X58541088Y-35133001D02*
X58064898Y-35133001D01*
X58064898Y-34133001D01*
X58541088Y-34133001D01*
X58969660Y-35133001D02*
X58969660Y-34133001D01*
X59207755Y-34133001D01*
X59350612Y-34180621D01*
X59445850Y-34275859D01*
X59493469Y-34371097D01*
X59541088Y-34561573D01*
X59541088Y-34704430D01*
X59493469Y-34894906D01*
X59445850Y-34990144D01*
X59350612Y-35085382D01*
X59207755Y-35133001D01*
X58969660Y-35133001D01*
D12*
X57783945Y-32762525D02*
X57783945Y-31962525D01*
X57974422Y-31962525D01*
X58088707Y-32000621D01*
X58164898Y-32076811D01*
X58202993Y-32153001D01*
X58241088Y-32305382D01*
X58241088Y-32419668D01*
X58202993Y-32572049D01*
X58164898Y-32648240D01*
X58088707Y-32724430D01*
X57974422Y-32762525D01*
X57783945Y-32762525D01*
X58545850Y-32038716D02*
X58583945Y-32000621D01*
X58660136Y-31962525D01*
X58850612Y-31962525D01*
X58926802Y-32000621D01*
X58964898Y-32038716D01*
X59002993Y-32114906D01*
X59002993Y-32191097D01*
X58964898Y-32305382D01*
X58507755Y-32762525D01*
X59002993Y-32762525D01*
D11*
X15569676Y-61293000D02*
X16141104Y-61293000D01*
X15855390Y-62293000D02*
X15855390Y-61293000D01*
X16950628Y-62293000D02*
X16474438Y-62293000D01*
X16474438Y-61293000D01*
X17141104Y-61293000D02*
X17474438Y-62293000D01*
X17807771Y-61293000D01*
X18045866Y-61293000D02*
X18712533Y-61293000D01*
X18283961Y-62293000D01*
X19283961Y-61293000D02*
X19379200Y-61293000D01*
X19474438Y-61340620D01*
X19522057Y-61388239D01*
X19569676Y-61483477D01*
X19617295Y-61673953D01*
X19617295Y-61912048D01*
X19569676Y-62102524D01*
X19522057Y-62197762D01*
X19474438Y-62245381D01*
X19379200Y-62293000D01*
X19283961Y-62293000D01*
X19188723Y-62245381D01*
X19141104Y-62197762D01*
X19093485Y-62102524D01*
X19045866Y-61912048D01*
X19045866Y-61673953D01*
X19093485Y-61483477D01*
X19141104Y-61388239D01*
X19188723Y-61340620D01*
X19283961Y-61293000D01*
X19998247Y-61388239D02*
X20045866Y-61340620D01*
X20141104Y-61293000D01*
X20379200Y-61293000D01*
X20474438Y-61340620D01*
X20522057Y-61388239D01*
X20569676Y-61483477D01*
X20569676Y-61578715D01*
X20522057Y-61721572D01*
X19950628Y-62293000D01*
X20569676Y-62293000D01*
X20903009Y-61293000D02*
X21522057Y-61293000D01*
X21188723Y-61673953D01*
X21331580Y-61673953D01*
X21426819Y-61721572D01*
X21474438Y-61769191D01*
X21522057Y-61864429D01*
X21522057Y-62102524D01*
X21474438Y-62197762D01*
X21426819Y-62245381D01*
X21331580Y-62293000D01*
X21045866Y-62293000D01*
X20950628Y-62245381D01*
X20903009Y-62197762D01*
X21855390Y-61293000D02*
X22474438Y-61293000D01*
X22141104Y-61673953D01*
X22283961Y-61673953D01*
X22379200Y-61721572D01*
X22426819Y-61769191D01*
X22474438Y-61864429D01*
X22474438Y-62102524D01*
X22426819Y-62197762D01*
X22379200Y-62245381D01*
X22283961Y-62293000D01*
X21998247Y-62293000D01*
X21903009Y-62245381D01*
X21855390Y-62197762D01*
X22664914Y-62388239D02*
X23426819Y-62388239D01*
X23617295Y-62245381D02*
X23760152Y-62293000D01*
X23998247Y-62293000D01*
X24093485Y-62245381D01*
X24141104Y-62197762D01*
X24188723Y-62102524D01*
X24188723Y-62007286D01*
X24141104Y-61912048D01*
X24093485Y-61864429D01*
X23998247Y-61816810D01*
X23807771Y-61769191D01*
X23712533Y-61721572D01*
X23664914Y-61673953D01*
X23617295Y-61578715D01*
X23617295Y-61483477D01*
X23664914Y-61388239D01*
X23712533Y-61340620D01*
X23807771Y-61293000D01*
X24045866Y-61293000D01*
X24188723Y-61340620D01*
X24807771Y-61293000D02*
X24998247Y-61293000D01*
X25093485Y-61340620D01*
X25188723Y-61435858D01*
X25236342Y-61626334D01*
X25236342Y-61959667D01*
X25188723Y-62150143D01*
X25093485Y-62245381D01*
X24998247Y-62293000D01*
X24807771Y-62293000D01*
X24712533Y-62245381D01*
X24617295Y-62150143D01*
X24569676Y-61959667D01*
X24569676Y-61626334D01*
X24617295Y-61435858D01*
X24712533Y-61340620D01*
X24807771Y-61293000D01*
X25522057Y-61293000D02*
X26093485Y-61293000D01*
X25807771Y-62293000D02*
X25807771Y-61293000D01*
X26379200Y-61388239D02*
X26426819Y-61340620D01*
X26522057Y-61293000D01*
X26760152Y-61293000D01*
X26855390Y-61340620D01*
X26903009Y-61388239D01*
X26950628Y-61483477D01*
X26950628Y-61578715D01*
X26903009Y-61721572D01*
X26331580Y-62293000D01*
X26950628Y-62293000D01*
X27283961Y-61293000D02*
X27903009Y-61293000D01*
X27569676Y-61673953D01*
X27712533Y-61673953D01*
X27807771Y-61721572D01*
X27855390Y-61769191D01*
X27903009Y-61864429D01*
X27903009Y-62102524D01*
X27855390Y-62197762D01*
X27807771Y-62245381D01*
X27712533Y-62293000D01*
X27426819Y-62293000D01*
X27331580Y-62245381D01*
X27283961Y-62197762D01*
X28331580Y-61912048D02*
X29093485Y-61912048D01*
X30045866Y-61293000D02*
X29569676Y-61293000D01*
X29522057Y-61769191D01*
X29569676Y-61721572D01*
X29664914Y-61673953D01*
X29903009Y-61673953D01*
X29998247Y-61721572D01*
X30045866Y-61769191D01*
X30093485Y-61864429D01*
X30093485Y-62102524D01*
X30045866Y-62197762D01*
X29998247Y-62245381D01*
X29903009Y-62293000D01*
X29664914Y-62293000D01*
X29569676Y-62245381D01*
X29522057Y-62197762D01*
D16*
X27451230Y-64665992D02*
X27855992Y-64665992D01*
X27903611Y-64642182D01*
X27927420Y-64618373D01*
X27951230Y-64570754D01*
X27951230Y-64475516D01*
X27927420Y-64427897D01*
X27903611Y-64404087D01*
X27855992Y-64380278D01*
X27451230Y-64380278D01*
X27451230Y-63927897D02*
X27451230Y-64023135D01*
X27475040Y-64070754D01*
X27498849Y-64094563D01*
X27570278Y-64142182D01*
X27665516Y-64165992D01*
X27855992Y-64165992D01*
X27903611Y-64142182D01*
X27927420Y-64118373D01*
X27951230Y-64070754D01*
X27951230Y-63975516D01*
X27927420Y-63927897D01*
X27903611Y-63904087D01*
X27855992Y-63880278D01*
X27736944Y-63880278D01*
X27689325Y-63904087D01*
X27665516Y-63927897D01*
X27641706Y-63975516D01*
X27641706Y-64070754D01*
X27665516Y-64118373D01*
X27689325Y-64142182D01*
X27736944Y-64165992D01*
D11*
X67773135Y-61015040D02*
X67677897Y-60967420D01*
X67535040Y-60967420D01*
X67392182Y-61015040D01*
X67296944Y-61110278D01*
X67249325Y-61205516D01*
X67201706Y-61395992D01*
X67201706Y-61538849D01*
X67249325Y-61729325D01*
X67296944Y-61824563D01*
X67392182Y-61919801D01*
X67535040Y-61967420D01*
X67630278Y-61967420D01*
X67773135Y-61919801D01*
X67820754Y-61872182D01*
X67820754Y-61538849D01*
X67630278Y-61538849D01*
X68249325Y-61967420D02*
X68249325Y-60967420D01*
X68820754Y-61967420D01*
X68820754Y-60967420D01*
X69296944Y-61967420D02*
X69296944Y-60967420D01*
X69535040Y-60967420D01*
X69677897Y-61015040D01*
X69773135Y-61110278D01*
X69820754Y-61205516D01*
X69868373Y-61395992D01*
X69868373Y-61538849D01*
X69820754Y-61729325D01*
X69773135Y-61824563D01*
X69677897Y-61919801D01*
X69535040Y-61967420D01*
X69296944Y-61967420D01*
X69569295Y-59146300D02*
X70140723Y-59146300D01*
X69855009Y-60146300D02*
X69855009Y-59146300D01*
X70474057Y-60146300D02*
X70474057Y-59146300D01*
X70855009Y-59146300D01*
X70950247Y-59193920D01*
X70997866Y-59241539D01*
X71045485Y-59336777D01*
X71045485Y-59479634D01*
X70997866Y-59574872D01*
X70950247Y-59622491D01*
X70855009Y-59670110D01*
X70474057Y-59670110D01*
X71950247Y-59146300D02*
X71474057Y-59146300D01*
X71426438Y-59622491D01*
X71474057Y-59574872D01*
X71569295Y-59527253D01*
X71807390Y-59527253D01*
X71902628Y-59574872D01*
X71950247Y-59622491D01*
X71997866Y-59717729D01*
X71997866Y-59955824D01*
X71950247Y-60051062D01*
X71902628Y-60098681D01*
X71807390Y-60146300D01*
X71569295Y-60146300D01*
X71474057Y-60098681D01*
X71426438Y-60051062D01*
X49557946Y-32635500D02*
X49557946Y-31635500D01*
X49891280Y-32349786D01*
X50224613Y-31635500D01*
X50224613Y-32635500D01*
X50700803Y-32635500D02*
X50700803Y-31635500D01*
X50938899Y-31635500D01*
X51081756Y-31683120D01*
X51176994Y-31778358D01*
X51224613Y-31873596D01*
X51272232Y-32064072D01*
X51272232Y-32206929D01*
X51224613Y-32397405D01*
X51176994Y-32492643D01*
X51081756Y-32587881D01*
X50938899Y-32635500D01*
X50700803Y-32635500D01*
X52272232Y-32540262D02*
X52224613Y-32587881D01*
X52081756Y-32635500D01*
X51986518Y-32635500D01*
X51843660Y-32587881D01*
X51748422Y-32492643D01*
X51700803Y-32397405D01*
X51653184Y-32206929D01*
X51653184Y-32064072D01*
X51700803Y-31873596D01*
X51748422Y-31778358D01*
X51843660Y-31683120D01*
X51986518Y-31635500D01*
X52081756Y-31635500D01*
X52224613Y-31683120D01*
X52272232Y-31730739D01*
X49665815Y-30477857D02*
X50237243Y-30477857D01*
X49951529Y-31477857D02*
X49951529Y-30477857D01*
X50570577Y-31477857D02*
X50570577Y-30477857D01*
X50951529Y-30477857D01*
X51046767Y-30525477D01*
X51094386Y-30573096D01*
X51142005Y-30668334D01*
X51142005Y-30811191D01*
X51094386Y-30906429D01*
X51046767Y-30954048D01*
X50951529Y-31001667D01*
X50570577Y-31001667D01*
X51522958Y-30573096D02*
X51570577Y-30525477D01*
X51665815Y-30477857D01*
X51903910Y-30477857D01*
X51999148Y-30525477D01*
X52046767Y-30573096D01*
X52094386Y-30668334D01*
X52094386Y-30763572D01*
X52046767Y-30906429D01*
X51475339Y-31477857D01*
X52094386Y-31477857D01*
X43692182Y-20802659D02*
X43739801Y-20755040D01*
X43835040Y-20707420D01*
X44073135Y-20707420D01*
X44168373Y-20755040D01*
X44215992Y-20802659D01*
X44263611Y-20897897D01*
X44263611Y-20993135D01*
X44215992Y-21135992D01*
X43644563Y-21707420D01*
X44263611Y-21707420D01*
X45168373Y-20707420D02*
X44692182Y-20707420D01*
X44644563Y-21183611D01*
X44692182Y-21135992D01*
X44787420Y-21088373D01*
X45025516Y-21088373D01*
X45120754Y-21135992D01*
X45168373Y-21183611D01*
X45215992Y-21278849D01*
X45215992Y-21516944D01*
X45168373Y-21612182D01*
X45120754Y-21659801D01*
X45025516Y-21707420D01*
X44787420Y-21707420D01*
X44692182Y-21659801D01*
X44644563Y-21612182D01*
X46406468Y-21707420D02*
X46406468Y-20707420D01*
X46739801Y-21421706D01*
X47073135Y-20707420D01*
X47073135Y-21707420D01*
X47549325Y-21707420D02*
X47549325Y-20707420D01*
X47549325Y-21183611D02*
X48120754Y-21183611D01*
X48120754Y-21707420D02*
X48120754Y-20707420D01*
X48501706Y-21040754D02*
X49025516Y-21040754D01*
X48501706Y-21707420D01*
X49025516Y-21707420D01*
D14*
X46001706Y-24288373D02*
X46001706Y-24621706D01*
X45768373Y-23921706D02*
X46001706Y-24288373D01*
X46235040Y-23921706D01*
X46435040Y-23988373D02*
X46468373Y-23955040D01*
X46535040Y-23921706D01*
X46701706Y-23921706D01*
X46768373Y-23955040D01*
X46801706Y-23988373D01*
X46835040Y-24055040D01*
X46835040Y-24121706D01*
X46801706Y-24221706D01*
X46401706Y-24621706D01*
X46835040Y-24621706D01*
D11*
X57578373Y-34932420D02*
X57006944Y-34932420D01*
X57292659Y-34932420D02*
X57292659Y-33932420D01*
X57197420Y-34075278D01*
X57102182Y-34170516D01*
X57006944Y-34218135D01*
X58197420Y-33932420D02*
X58292659Y-33932420D01*
X58387897Y-33980040D01*
X58435516Y-34027659D01*
X58483135Y-34122897D01*
X58530754Y-34313373D01*
X58530754Y-34551468D01*
X58483135Y-34741944D01*
X58435516Y-34837182D01*
X58387897Y-34884801D01*
X58292659Y-34932420D01*
X58197420Y-34932420D01*
X58102182Y-34884801D01*
X58054563Y-34837182D01*
X58006944Y-34741944D01*
X57959325Y-34551468D01*
X57959325Y-34313373D01*
X58006944Y-34122897D01*
X58054563Y-34027659D01*
X58102182Y-33980040D01*
X58197420Y-33932420D01*
X59149801Y-33932420D02*
X59245040Y-33932420D01*
X59340278Y-33980040D01*
X59387897Y-34027659D01*
X59435516Y-34122897D01*
X59483135Y-34313373D01*
X59483135Y-34551468D01*
X59435516Y-34741944D01*
X59387897Y-34837182D01*
X59340278Y-34884801D01*
X59245040Y-34932420D01*
X59149801Y-34932420D01*
X59054563Y-34884801D01*
X59006944Y-34837182D01*
X58959325Y-34741944D01*
X58911706Y-34551468D01*
X58911706Y-34313373D01*
X58959325Y-34122897D01*
X59006944Y-34027659D01*
X59054563Y-33980040D01*
X59149801Y-33932420D01*
D13*
X58471230Y-36451468D02*
X58233135Y-36618135D01*
X58471230Y-36737182D02*
X57971230Y-36737182D01*
X57971230Y-36546706D01*
X57995040Y-36499087D01*
X58018849Y-36475278D01*
X58066468Y-36451468D01*
X58137897Y-36451468D01*
X58185516Y-36475278D01*
X58209325Y-36499087D01*
X58233135Y-36546706D01*
X58233135Y-36737182D01*
X58471230Y-35975278D02*
X58471230Y-36260992D01*
X58471230Y-36118135D02*
X57971230Y-36118135D01*
X58042659Y-36165754D01*
X58090278Y-36213373D01*
X58114087Y-36260992D01*
X58471230Y-35737182D02*
X58471230Y-35641944D01*
X58447420Y-35594325D01*
X58423611Y-35570516D01*
X58352182Y-35522897D01*
X58256944Y-35499087D01*
X58066468Y-35499087D01*
X58018849Y-35522897D01*
X57995040Y-35546706D01*
X57971230Y-35594325D01*
X57971230Y-35689563D01*
X57995040Y-35737182D01*
X58018849Y-35760992D01*
X58066468Y-35784801D01*
X58185516Y-35784801D01*
X58233135Y-35760992D01*
X58256944Y-35737182D01*
X58280754Y-35689563D01*
X58280754Y-35594325D01*
X58256944Y-35546706D01*
X58233135Y-35522897D01*
X58185516Y-35499087D01*
D11*
X60368373Y-21527420D02*
X59796944Y-21527420D01*
X60082659Y-21527420D02*
X60082659Y-20527420D01*
X59987420Y-20670278D01*
X59892182Y-20765516D01*
X59796944Y-20813135D01*
X60987420Y-20527420D02*
X61082659Y-20527420D01*
X61177897Y-20575040D01*
X61225516Y-20622659D01*
X61273135Y-20717897D01*
X61320754Y-20908373D01*
X61320754Y-21146468D01*
X61273135Y-21336944D01*
X61225516Y-21432182D01*
X61177897Y-21479801D01*
X61082659Y-21527420D01*
X60987420Y-21527420D01*
X60892182Y-21479801D01*
X60844563Y-21432182D01*
X60796944Y-21336944D01*
X60749325Y-21146468D01*
X60749325Y-20908373D01*
X60796944Y-20717897D01*
X60844563Y-20622659D01*
X60892182Y-20575040D01*
X60987420Y-20527420D01*
X61939801Y-20527420D02*
X62035040Y-20527420D01*
X62130278Y-20575040D01*
X62177897Y-20622659D01*
X62225516Y-20717897D01*
X62273135Y-20908373D01*
X62273135Y-21146468D01*
X62225516Y-21336944D01*
X62177897Y-21432182D01*
X62130278Y-21479801D01*
X62035040Y-21527420D01*
X61939801Y-21527420D01*
X61844563Y-21479801D01*
X61796944Y-21432182D01*
X61749325Y-21336944D01*
X61701706Y-21146468D01*
X61701706Y-20908373D01*
X61749325Y-20717897D01*
X61796944Y-20622659D01*
X61844563Y-20575040D01*
X61939801Y-20527420D01*
D13*
X60713611Y-22951230D02*
X60546944Y-22713135D01*
X60427897Y-22951230D02*
X60427897Y-22451230D01*
X60618373Y-22451230D01*
X60665992Y-22475040D01*
X60689801Y-22498849D01*
X60713611Y-22546468D01*
X60713611Y-22617897D01*
X60689801Y-22665516D01*
X60665992Y-22689325D01*
X60618373Y-22713135D01*
X60427897Y-22713135D01*
X61189801Y-22951230D02*
X60904087Y-22951230D01*
X61046944Y-22951230D02*
X61046944Y-22451230D01*
X60999325Y-22522659D01*
X60951706Y-22570278D01*
X60904087Y-22594087D01*
X61475516Y-22665516D02*
X61427897Y-22641706D01*
X61404087Y-22617897D01*
X61380278Y-22570278D01*
X61380278Y-22546468D01*
X61404087Y-22498849D01*
X61427897Y-22475040D01*
X61475516Y-22451230D01*
X61570754Y-22451230D01*
X61618373Y-22475040D01*
X61642182Y-22498849D01*
X61665992Y-22546468D01*
X61665992Y-22570278D01*
X61642182Y-22617897D01*
X61618373Y-22641706D01*
X61570754Y-22665516D01*
X61475516Y-22665516D01*
X61427897Y-22689325D01*
X61404087Y-22713135D01*
X61380278Y-22760754D01*
X61380278Y-22855992D01*
X61404087Y-22903611D01*
X61427897Y-22927420D01*
X61475516Y-22951230D01*
X61570754Y-22951230D01*
X61618373Y-22927420D01*
X61642182Y-22903611D01*
X61665992Y-22855992D01*
X61665992Y-22760754D01*
X61642182Y-22713135D01*
X61618373Y-22689325D01*
X61570754Y-22665516D01*
D11*
X56691727Y-29980719D02*
X56739346Y-29933100D01*
X56834584Y-29885480D01*
X57072680Y-29885480D01*
X57167918Y-29933100D01*
X57215537Y-29980719D01*
X57263156Y-30075957D01*
X57263156Y-30171195D01*
X57215537Y-30314052D01*
X56644108Y-30885480D01*
X57263156Y-30885480D01*
X57691727Y-30790242D02*
X57739346Y-30837861D01*
X57691727Y-30885480D01*
X57644108Y-30837861D01*
X57691727Y-30790242D01*
X57691727Y-30885480D01*
X58596489Y-30218814D02*
X58596489Y-30885480D01*
X58358394Y-29837861D02*
X58120299Y-30552147D01*
X58739346Y-30552147D01*
X59167918Y-30885480D02*
X59358394Y-30885480D01*
X59453632Y-30837861D01*
X59501251Y-30790242D01*
X59596489Y-30647385D01*
X59644108Y-30456909D01*
X59644108Y-30075957D01*
X59596489Y-29980719D01*
X59548870Y-29933100D01*
X59453632Y-29885480D01*
X59263156Y-29885480D01*
X59167918Y-29933100D01*
X59120299Y-29980719D01*
X59072680Y-30075957D01*
X59072680Y-30314052D01*
X59120299Y-30409290D01*
X59167918Y-30456909D01*
X59263156Y-30504528D01*
X59453632Y-30504528D01*
X59548870Y-30456909D01*
X59596489Y-30409290D01*
X59644108Y-30314052D01*
X60072680Y-30885480D02*
X60072680Y-29885480D01*
X60167918Y-30504528D02*
X60453632Y-30885480D01*
X60453632Y-30218814D02*
X60072680Y-30599766D01*
D13*
X59042230Y-29482468D02*
X58804135Y-29649135D01*
X59042230Y-29768182D02*
X58542230Y-29768182D01*
X58542230Y-29577706D01*
X58566040Y-29530087D01*
X58589849Y-29506278D01*
X58637468Y-29482468D01*
X58708897Y-29482468D01*
X58756516Y-29506278D01*
X58780325Y-29530087D01*
X58804135Y-29577706D01*
X58804135Y-29768182D01*
X59042230Y-29006278D02*
X59042230Y-29291992D01*
X59042230Y-29149135D02*
X58542230Y-29149135D01*
X58613659Y-29196754D01*
X58661278Y-29244373D01*
X58685087Y-29291992D01*
X58708897Y-28577706D02*
X59042230Y-28577706D01*
X58518420Y-28696754D02*
X58875563Y-28815801D01*
X58875563Y-28506278D01*
D11*
X39236742Y-38786480D02*
X38665314Y-38786480D01*
X38951028Y-38786480D02*
X38951028Y-37786480D01*
X38855790Y-37929338D01*
X38760552Y-38024576D01*
X38665314Y-38072195D01*
X39855790Y-37786480D02*
X39951028Y-37786480D01*
X40046266Y-37834100D01*
X40093885Y-37881719D01*
X40141504Y-37976957D01*
X40189123Y-38167433D01*
X40189123Y-38405528D01*
X40141504Y-38596004D01*
X40093885Y-38691242D01*
X40046266Y-38738861D01*
X39951028Y-38786480D01*
X39855790Y-38786480D01*
X39760552Y-38738861D01*
X39712933Y-38691242D01*
X39665314Y-38596004D01*
X39617695Y-38405528D01*
X39617695Y-38167433D01*
X39665314Y-37976957D01*
X39712933Y-37881719D01*
X39760552Y-37834100D01*
X39855790Y-37786480D01*
X40617695Y-38119814D02*
X40617695Y-38786480D01*
X40617695Y-38215052D02*
X40665314Y-38167433D01*
X40760552Y-38119814D01*
X40903409Y-38119814D01*
X40998647Y-38167433D01*
X41046266Y-38262671D01*
X41046266Y-38786480D01*
D13*
X43298611Y-38616468D02*
X43322420Y-38640278D01*
X43346230Y-38711706D01*
X43346230Y-38759325D01*
X43322420Y-38830754D01*
X43274801Y-38878373D01*
X43227182Y-38902182D01*
X43131944Y-38925992D01*
X43060516Y-38925992D01*
X42965278Y-38902182D01*
X42917659Y-38878373D01*
X42870040Y-38830754D01*
X42846230Y-38759325D01*
X42846230Y-38711706D01*
X42870040Y-38640278D01*
X42893849Y-38616468D01*
X42893849Y-38425992D02*
X42870040Y-38402182D01*
X42846230Y-38354563D01*
X42846230Y-38235516D01*
X42870040Y-38187897D01*
X42893849Y-38164087D01*
X42941468Y-38140278D01*
X42989087Y-38140278D01*
X43060516Y-38164087D01*
X43346230Y-38449801D01*
X43346230Y-38140278D01*
X42846230Y-37830754D02*
X42846230Y-37783135D01*
X42870040Y-37735516D01*
X42893849Y-37711706D01*
X42941468Y-37687897D01*
X43036706Y-37664087D01*
X43155754Y-37664087D01*
X43250992Y-37687897D01*
X43298611Y-37711706D01*
X43322420Y-37735516D01*
X43346230Y-37783135D01*
X43346230Y-37830754D01*
X43322420Y-37878373D01*
X43298611Y-37902182D01*
X43250992Y-37925992D01*
X43155754Y-37949801D01*
X43036706Y-37949801D01*
X42941468Y-37925992D01*
X42893849Y-37902182D01*
X42870040Y-37878373D01*
X42846230Y-37830754D01*
D11*
X58128611Y-54167420D02*
X57557182Y-54167420D01*
X57842897Y-54167420D02*
X57842897Y-53167420D01*
X57747659Y-53310278D01*
X57652420Y-53405516D01*
X57557182Y-53453135D01*
X58509563Y-53262659D02*
X58557182Y-53215040D01*
X58652420Y-53167420D01*
X58890516Y-53167420D01*
X58985754Y-53215040D01*
X59033373Y-53262659D01*
X59080992Y-53357897D01*
X59080992Y-53453135D01*
X59033373Y-53595992D01*
X58461944Y-54167420D01*
X59080992Y-54167420D01*
X59938135Y-53500754D02*
X59938135Y-54167420D01*
X59700040Y-53119801D02*
X59461944Y-53834087D01*
X60080992Y-53834087D01*
X60461944Y-54167420D02*
X60461944Y-53167420D01*
X60557182Y-53786468D02*
X60842897Y-54167420D01*
X60842897Y-53500754D02*
X60461944Y-53881706D01*
D13*
X59116706Y-55591230D02*
X58950040Y-55353135D01*
X58830992Y-55591230D02*
X58830992Y-55091230D01*
X59021468Y-55091230D01*
X59069087Y-55115040D01*
X59092897Y-55138849D01*
X59116706Y-55186468D01*
X59116706Y-55257897D01*
X59092897Y-55305516D01*
X59069087Y-55329325D01*
X59021468Y-55353135D01*
X58830992Y-55353135D01*
X59354801Y-55591230D02*
X59450040Y-55591230D01*
X59497659Y-55567420D01*
X59521468Y-55543611D01*
X59569087Y-55472182D01*
X59592897Y-55376944D01*
X59592897Y-55186468D01*
X59569087Y-55138849D01*
X59545278Y-55115040D01*
X59497659Y-55091230D01*
X59402420Y-55091230D01*
X59354801Y-55115040D01*
X59330992Y-55138849D01*
X59307182Y-55186468D01*
X59307182Y-55305516D01*
X59330992Y-55353135D01*
X59354801Y-55376944D01*
X59402420Y-55400754D01*
X59497659Y-55400754D01*
X59545278Y-55376944D01*
X59569087Y-55353135D01*
X59592897Y-55305516D01*
D11*
X58520992Y-56657420D02*
X57949563Y-56657420D01*
X58235278Y-56657420D02*
X58235278Y-55657420D01*
X58140040Y-55800278D01*
X58044801Y-55895516D01*
X57949563Y-55943135D01*
X59140040Y-55657420D02*
X59235278Y-55657420D01*
X59330516Y-55705040D01*
X59378135Y-55752659D01*
X59425754Y-55847897D01*
X59473373Y-56038373D01*
X59473373Y-56276468D01*
X59425754Y-56466944D01*
X59378135Y-56562182D01*
X59330516Y-56609801D01*
X59235278Y-56657420D01*
X59140040Y-56657420D01*
X59044801Y-56609801D01*
X58997182Y-56562182D01*
X58949563Y-56466944D01*
X58901944Y-56276468D01*
X58901944Y-56038373D01*
X58949563Y-55847897D01*
X58997182Y-55752659D01*
X59044801Y-55705040D01*
X59140040Y-55657420D01*
X60092420Y-55657420D02*
X60187659Y-55657420D01*
X60282897Y-55705040D01*
X60330516Y-55752659D01*
X60378135Y-55847897D01*
X60425754Y-56038373D01*
X60425754Y-56276468D01*
X60378135Y-56466944D01*
X60330516Y-56562182D01*
X60282897Y-56609801D01*
X60187659Y-56657420D01*
X60092420Y-56657420D01*
X59997182Y-56609801D01*
X59949563Y-56562182D01*
X59901944Y-56466944D01*
X59854325Y-56276468D01*
X59854325Y-56038373D01*
X59901944Y-55847897D01*
X59949563Y-55752659D01*
X59997182Y-55705040D01*
X60092420Y-55657420D01*
X60854325Y-55990754D02*
X60854325Y-56657420D01*
X60854325Y-56085992D02*
X60901944Y-56038373D01*
X60997182Y-55990754D01*
X61140040Y-55990754D01*
X61235278Y-56038373D01*
X61282897Y-56133611D01*
X61282897Y-56657420D01*
D13*
X59318611Y-58033611D02*
X59294801Y-58057420D01*
X59223373Y-58081230D01*
X59175754Y-58081230D01*
X59104325Y-58057420D01*
X59056706Y-58009801D01*
X59032897Y-57962182D01*
X59009087Y-57866944D01*
X59009087Y-57795516D01*
X59032897Y-57700278D01*
X59056706Y-57652659D01*
X59104325Y-57605040D01*
X59175754Y-57581230D01*
X59223373Y-57581230D01*
X59294801Y-57605040D01*
X59318611Y-57628849D01*
X59794801Y-58081230D02*
X59509087Y-58081230D01*
X59651944Y-58081230D02*
X59651944Y-57581230D01*
X59604325Y-57652659D01*
X59556706Y-57700278D01*
X59509087Y-57724087D01*
X59961468Y-57581230D02*
X60294801Y-57581230D01*
X60080516Y-58081230D01*
D11*
X30135329Y-46281134D02*
X30135329Y-46947800D01*
X29897234Y-45900181D02*
X29659139Y-46614467D01*
X30278186Y-46614467D01*
X30659139Y-46852562D02*
X30706758Y-46900181D01*
X30659139Y-46947800D01*
X30611520Y-46900181D01*
X30659139Y-46852562D01*
X30659139Y-46947800D01*
X31040091Y-45947800D02*
X31706758Y-45947800D01*
X31278186Y-46947800D01*
X32516281Y-46281134D02*
X32516281Y-46947800D01*
X32087710Y-46281134D02*
X32087710Y-46804943D01*
X32135329Y-46900181D01*
X32230567Y-46947800D01*
X32373424Y-46947800D01*
X32468662Y-46900181D01*
X32516281Y-46852562D01*
D13*
X34978611Y-46448373D02*
X35002420Y-46472182D01*
X35026230Y-46543611D01*
X35026230Y-46591230D01*
X35002420Y-46662659D01*
X34954801Y-46710278D01*
X34907182Y-46734087D01*
X34811944Y-46757897D01*
X34740516Y-46757897D01*
X34645278Y-46734087D01*
X34597659Y-46710278D01*
X34550040Y-46662659D01*
X34526230Y-46591230D01*
X34526230Y-46543611D01*
X34550040Y-46472182D01*
X34573849Y-46448373D01*
X35026230Y-46210278D02*
X35026230Y-46115040D01*
X35002420Y-46067420D01*
X34978611Y-46043611D01*
X34907182Y-45995992D01*
X34811944Y-45972182D01*
X34621468Y-45972182D01*
X34573849Y-45995992D01*
X34550040Y-46019801D01*
X34526230Y-46067420D01*
X34526230Y-46162659D01*
X34550040Y-46210278D01*
X34573849Y-46234087D01*
X34621468Y-46257897D01*
X34740516Y-46257897D01*
X34788135Y-46234087D01*
X34811944Y-46210278D01*
X34835754Y-46162659D01*
X34835754Y-46067420D01*
X34811944Y-46019801D01*
X34788135Y-45995992D01*
X34740516Y-45972182D01*
D11*
X85997420Y-44868373D02*
X84997420Y-44868373D01*
X84997420Y-44630278D01*
X85045040Y-44487420D01*
X85140278Y-44392182D01*
X85235516Y-44344563D01*
X85425992Y-44296944D01*
X85568849Y-44296944D01*
X85759325Y-44344563D01*
X85854563Y-44392182D01*
X85949801Y-44487420D01*
X85997420Y-44630278D01*
X85997420Y-44868373D01*
X85473611Y-43535040D02*
X85521230Y-43392182D01*
X85568849Y-43344563D01*
X85664087Y-43296944D01*
X85806944Y-43296944D01*
X85902182Y-43344563D01*
X85949801Y-43392182D01*
X85997420Y-43487420D01*
X85997420Y-43868373D01*
X84997420Y-43868373D01*
X84997420Y-43535040D01*
X85045040Y-43439801D01*
X85092659Y-43392182D01*
X85187897Y-43344563D01*
X85283135Y-43344563D01*
X85378373Y-43392182D01*
X85425992Y-43439801D01*
X85473611Y-43535040D01*
X85473611Y-43868373D01*
X85997420Y-42820754D02*
X85997420Y-42630278D01*
X85949801Y-42535040D01*
X85902182Y-42487420D01*
X85759325Y-42392182D01*
X85568849Y-42344563D01*
X85187897Y-42344563D01*
X85092659Y-42392182D01*
X85045040Y-42439801D01*
X84997420Y-42535040D01*
X84997420Y-42725516D01*
X85045040Y-42820754D01*
X85092659Y-42868373D01*
X85187897Y-42915992D01*
X85425992Y-42915992D01*
X85521230Y-42868373D01*
X85568849Y-42820754D01*
X85616468Y-42725516D01*
X85616468Y-42535040D01*
X85568849Y-42439801D01*
X85521230Y-42392182D01*
X85425992Y-42344563D01*
X86092659Y-42154087D02*
X86092659Y-41392182D01*
X85997420Y-41154087D02*
X84997420Y-41154087D01*
X85711706Y-40820754D01*
X84997420Y-40487420D01*
X85997420Y-40487420D01*
X85997420Y-39582659D02*
X85473611Y-39582659D01*
X85378373Y-39630278D01*
X85330754Y-39725516D01*
X85330754Y-39915992D01*
X85378373Y-40011230D01*
X85949801Y-39582659D02*
X85997420Y-39677897D01*
X85997420Y-39915992D01*
X85949801Y-40011230D01*
X85854563Y-40058849D01*
X85759325Y-40058849D01*
X85664087Y-40011230D01*
X85616468Y-39915992D01*
X85616468Y-39677897D01*
X85568849Y-39582659D01*
X85997420Y-38963611D02*
X85949801Y-39058849D01*
X85854563Y-39106468D01*
X84997420Y-39106468D01*
X85949801Y-38201706D02*
X85997420Y-38296944D01*
X85997420Y-38487420D01*
X85949801Y-38582659D01*
X85854563Y-38630278D01*
X85473611Y-38630278D01*
X85378373Y-38582659D01*
X85330754Y-38487420D01*
X85330754Y-38296944D01*
X85378373Y-38201706D01*
X85473611Y-38154087D01*
X85568849Y-38154087D01*
X85664087Y-38630278D01*
X60959220Y-36785173D02*
X61673506Y-36785173D01*
X61816363Y-36832792D01*
X61911601Y-36928030D01*
X61959220Y-37070887D01*
X61959220Y-37166125D01*
X60959220Y-35832792D02*
X60959220Y-36308982D01*
X61435411Y-36356601D01*
X61387792Y-36308982D01*
X61340173Y-36213744D01*
X61340173Y-35975649D01*
X61387792Y-35880411D01*
X61435411Y-35832792D01*
X61530649Y-35785173D01*
X61768744Y-35785173D01*
X61863982Y-35832792D01*
X61911601Y-35880411D01*
X61959220Y-35975649D01*
X61959220Y-36213744D01*
X61911601Y-36308982D01*
X61863982Y-36356601D01*
X21152676Y-29184840D02*
X20581247Y-29184840D01*
X20866961Y-29184840D02*
X20866961Y-28184840D01*
X20771723Y-28327698D01*
X20676485Y-28422936D01*
X20581247Y-28470555D01*
X21771723Y-28184840D02*
X21866961Y-28184840D01*
X21962200Y-28232460D01*
X22009819Y-28280079D01*
X22057438Y-28375317D01*
X22105057Y-28565793D01*
X22105057Y-28803888D01*
X22057438Y-28994364D01*
X22009819Y-29089602D01*
X21962200Y-29137221D01*
X21866961Y-29184840D01*
X21771723Y-29184840D01*
X21676485Y-29137221D01*
X21628866Y-29089602D01*
X21581247Y-28994364D01*
X21533628Y-28803888D01*
X21533628Y-28565793D01*
X21581247Y-28375317D01*
X21628866Y-28280079D01*
X21676485Y-28232460D01*
X21771723Y-28184840D01*
X22724104Y-28184840D02*
X22819342Y-28184840D01*
X22914580Y-28232460D01*
X22962200Y-28280079D01*
X23009819Y-28375317D01*
X23057438Y-28565793D01*
X23057438Y-28803888D01*
X23009819Y-28994364D01*
X22962200Y-29089602D01*
X22914580Y-29137221D01*
X22819342Y-29184840D01*
X22724104Y-29184840D01*
X22628866Y-29137221D01*
X22581247Y-29089602D01*
X22533628Y-28994364D01*
X22486009Y-28803888D01*
X22486009Y-28565793D01*
X22533628Y-28375317D01*
X22581247Y-28280079D01*
X22628866Y-28232460D01*
X22724104Y-28184840D01*
X23819342Y-28661031D02*
X23962200Y-28708650D01*
X24009819Y-28756269D01*
X24057438Y-28851507D01*
X24057438Y-28994364D01*
X24009819Y-29089602D01*
X23962200Y-29137221D01*
X23866961Y-29184840D01*
X23486009Y-29184840D01*
X23486009Y-28184840D01*
X23819342Y-28184840D01*
X23914580Y-28232460D01*
X23962200Y-28280079D01*
X24009819Y-28375317D01*
X24009819Y-28470555D01*
X23962200Y-28565793D01*
X23914580Y-28613412D01*
X23819342Y-28661031D01*
X23486009Y-28661031D01*
X24914580Y-29184840D02*
X24914580Y-28661031D01*
X24866961Y-28565793D01*
X24771723Y-28518174D01*
X24581247Y-28518174D01*
X24486009Y-28565793D01*
X24914580Y-29137221D02*
X24819342Y-29184840D01*
X24581247Y-29184840D01*
X24486009Y-29137221D01*
X24438390Y-29041983D01*
X24438390Y-28946745D01*
X24486009Y-28851507D01*
X24581247Y-28803888D01*
X24819342Y-28803888D01*
X24914580Y-28756269D01*
X25343152Y-29137221D02*
X25438390Y-29184840D01*
X25628866Y-29184840D01*
X25724104Y-29137221D01*
X25771723Y-29041983D01*
X25771723Y-28994364D01*
X25724104Y-28899126D01*
X25628866Y-28851507D01*
X25486009Y-28851507D01*
X25390771Y-28803888D01*
X25343152Y-28708650D01*
X25343152Y-28661031D01*
X25390771Y-28565793D01*
X25486009Y-28518174D01*
X25628866Y-28518174D01*
X25724104Y-28565793D01*
X26581247Y-29137221D02*
X26486009Y-29184840D01*
X26295533Y-29184840D01*
X26200295Y-29137221D01*
X26152676Y-29041983D01*
X26152676Y-28661031D01*
X26200295Y-28565793D01*
X26295533Y-28518174D01*
X26486009Y-28518174D01*
X26581247Y-28565793D01*
X26628866Y-28661031D01*
X26628866Y-28756269D01*
X26152676Y-28851507D01*
X26914580Y-28184840D02*
X27486009Y-28184840D01*
X27200295Y-29184840D02*
X27200295Y-28184840D01*
X28343152Y-29184840D02*
X27771723Y-29184840D01*
X28057438Y-29184840D02*
X28057438Y-28184840D01*
X27962200Y-28327698D01*
X27866961Y-28422936D01*
X27771723Y-28470555D01*
X21777420Y-33198373D02*
X22491706Y-33198373D01*
X22634563Y-33245992D01*
X22729801Y-33341230D01*
X22777420Y-33484087D01*
X22777420Y-33579325D01*
X21777420Y-32817420D02*
X21777420Y-32198373D01*
X22158373Y-32531706D01*
X22158373Y-32388849D01*
X22205992Y-32293611D01*
X22253611Y-32245992D01*
X22348849Y-32198373D01*
X22586944Y-32198373D01*
X22682182Y-32245992D01*
X22729801Y-32293611D01*
X22777420Y-32388849D01*
X22777420Y-32674563D01*
X22729801Y-32769801D01*
X22682182Y-32817420D01*
X32459898Y-48263001D02*
X31888469Y-48263001D01*
X32174183Y-48263001D02*
X32174183Y-47263001D01*
X32078945Y-47405859D01*
X31983707Y-47501097D01*
X31888469Y-47548716D01*
X32840850Y-47358240D02*
X32888469Y-47310621D01*
X32983707Y-47263001D01*
X33221802Y-47263001D01*
X33317041Y-47310621D01*
X33364660Y-47358240D01*
X33412279Y-47453478D01*
X33412279Y-47548716D01*
X33364660Y-47691573D01*
X32793231Y-48263001D01*
X33412279Y-48263001D01*
X33840850Y-48167763D02*
X33888469Y-48215382D01*
X33840850Y-48263001D01*
X33793231Y-48215382D01*
X33840850Y-48167763D01*
X33840850Y-48263001D01*
X34745612Y-47596335D02*
X34745612Y-48263001D01*
X34507517Y-47215382D02*
X34269422Y-47929668D01*
X34888469Y-47929668D01*
X35269422Y-48263001D02*
X35269422Y-47263001D01*
X35364660Y-47882049D02*
X35650374Y-48263001D01*
X35650374Y-47596335D02*
X35269422Y-47977287D01*
D13*
X33995612Y-49782049D02*
X33757517Y-49948716D01*
X33995612Y-50067763D02*
X33495612Y-50067763D01*
X33495612Y-49877287D01*
X33519422Y-49829668D01*
X33543231Y-49805859D01*
X33590850Y-49782049D01*
X33662279Y-49782049D01*
X33709898Y-49805859D01*
X33733707Y-49829668D01*
X33757517Y-49877287D01*
X33757517Y-50067763D01*
X33495612Y-49615382D02*
X33495612Y-49305859D01*
X33686088Y-49472525D01*
X33686088Y-49401097D01*
X33709898Y-49353478D01*
X33733707Y-49329668D01*
X33781326Y-49305859D01*
X33900374Y-49305859D01*
X33947993Y-49329668D01*
X33971802Y-49353478D01*
X33995612Y-49401097D01*
X33995612Y-49543954D01*
X33971802Y-49591573D01*
X33947993Y-49615382D01*
X33662279Y-48877287D02*
X33995612Y-48877287D01*
X33471802Y-48996335D02*
X33828945Y-49115382D01*
X33828945Y-48805859D01*
D11*
X52904346Y-71082340D02*
X52904346Y-70082340D01*
X53475775Y-71082340D02*
X53047203Y-70510912D01*
X53475775Y-70082340D02*
X52904346Y-70653769D01*
X54285299Y-71034721D02*
X54190060Y-71082340D01*
X53999584Y-71082340D01*
X53904346Y-71034721D01*
X53856727Y-70939483D01*
X53856727Y-70558531D01*
X53904346Y-70463293D01*
X53999584Y-70415674D01*
X54190060Y-70415674D01*
X54285299Y-70463293D01*
X54332918Y-70558531D01*
X54332918Y-70653769D01*
X53856727Y-70749007D01*
X54666251Y-70415674D02*
X54904346Y-71082340D01*
X55142441Y-70415674D02*
X54904346Y-71082340D01*
X54809108Y-71320436D01*
X54761489Y-71368055D01*
X54666251Y-71415674D01*
X55523394Y-71082340D02*
X55523394Y-70082340D01*
X55856727Y-70796626D01*
X56190060Y-70082340D01*
X56190060Y-71082340D01*
X57094822Y-71082340D02*
X57094822Y-70558531D01*
X57047203Y-70463293D01*
X56951965Y-70415674D01*
X56761489Y-70415674D01*
X56666251Y-70463293D01*
X57094822Y-71034721D02*
X56999584Y-71082340D01*
X56761489Y-71082340D01*
X56666251Y-71034721D01*
X56618632Y-70939483D01*
X56618632Y-70844245D01*
X56666251Y-70749007D01*
X56761489Y-70701388D01*
X56999584Y-70701388D01*
X57094822Y-70653769D01*
X57428156Y-70415674D02*
X57809108Y-70415674D01*
X57571013Y-70082340D02*
X57571013Y-70939483D01*
X57618632Y-71034721D01*
X57713870Y-71082340D01*
X57809108Y-71082340D01*
X58142441Y-71082340D02*
X58142441Y-70415674D01*
X58142441Y-70606150D02*
X58190060Y-70510912D01*
X58237680Y-70463293D01*
X58332918Y-70415674D01*
X58428156Y-70415674D01*
X58761489Y-71082340D02*
X58761489Y-70415674D01*
X58761489Y-70082340D02*
X58713870Y-70129960D01*
X58761489Y-70177579D01*
X58809108Y-70129960D01*
X58761489Y-70082340D01*
X58761489Y-70177579D01*
X59142441Y-71082340D02*
X59666251Y-70415674D01*
X59142441Y-70415674D02*
X59666251Y-71082340D01*
X50090975Y-69940100D02*
X50090975Y-70749624D01*
X50138594Y-70844862D01*
X50186213Y-70892481D01*
X50281451Y-70940100D01*
X50471927Y-70940100D01*
X50567165Y-70892481D01*
X50614784Y-70844862D01*
X50662403Y-70749624D01*
X50662403Y-69940100D01*
X51043356Y-69940100D02*
X51710022Y-69940100D01*
X51281451Y-70940100D01*
X27689186Y-21707460D02*
X28260615Y-21707460D01*
X27974900Y-22707460D02*
X27974900Y-21707460D01*
X28974900Y-22659841D02*
X28879662Y-22707460D01*
X28689186Y-22707460D01*
X28593948Y-22659841D01*
X28546329Y-22564603D01*
X28546329Y-22183651D01*
X28593948Y-22088413D01*
X28689186Y-22040794D01*
X28879662Y-22040794D01*
X28974900Y-22088413D01*
X29022520Y-22183651D01*
X29022520Y-22278889D01*
X28546329Y-22374127D01*
X29403472Y-22659841D02*
X29498710Y-22707460D01*
X29689186Y-22707460D01*
X29784424Y-22659841D01*
X29832043Y-22564603D01*
X29832043Y-22516984D01*
X29784424Y-22421746D01*
X29689186Y-22374127D01*
X29546329Y-22374127D01*
X29451091Y-22326508D01*
X29403472Y-22231270D01*
X29403472Y-22183651D01*
X29451091Y-22088413D01*
X29546329Y-22040794D01*
X29689186Y-22040794D01*
X29784424Y-22088413D01*
X30117758Y-22040794D02*
X30498710Y-22040794D01*
X30260615Y-21707460D02*
X30260615Y-22564603D01*
X30308234Y-22659841D01*
X30403472Y-22707460D01*
X30498710Y-22707460D01*
X30832043Y-22707460D02*
X30832043Y-21707460D01*
X31212996Y-21707460D01*
X31308234Y-21755080D01*
X31355853Y-21802699D01*
X31403472Y-21897937D01*
X31403472Y-22040794D01*
X31355853Y-22136032D01*
X31308234Y-22183651D01*
X31212996Y-22231270D01*
X30832043Y-22231270D01*
X31974900Y-22707460D02*
X31879662Y-22659841D01*
X31832043Y-22612222D01*
X31784424Y-22516984D01*
X31784424Y-22231270D01*
X31832043Y-22136032D01*
X31879662Y-22088413D01*
X31974900Y-22040794D01*
X32117758Y-22040794D01*
X32212996Y-22088413D01*
X32260615Y-22136032D01*
X32308234Y-22231270D01*
X32308234Y-22516984D01*
X32260615Y-22612222D01*
X32212996Y-22659841D01*
X32117758Y-22707460D01*
X31974900Y-22707460D01*
X32736805Y-22707460D02*
X32736805Y-22040794D01*
X32736805Y-21707460D02*
X32689186Y-21755080D01*
X32736805Y-21802699D01*
X32784424Y-21755080D01*
X32736805Y-21707460D01*
X32736805Y-21802699D01*
X33212996Y-22040794D02*
X33212996Y-22707460D01*
X33212996Y-22136032D02*
X33260615Y-22088413D01*
X33355853Y-22040794D01*
X33498710Y-22040794D01*
X33593948Y-22088413D01*
X33641567Y-22183651D01*
X33641567Y-22707460D01*
X33974900Y-22040794D02*
X34355853Y-22040794D01*
X34117758Y-21707460D02*
X34117758Y-22564603D01*
X34165377Y-22659841D01*
X34260615Y-22707460D01*
X34355853Y-22707460D01*
X26809135Y-20499420D02*
X27380563Y-20499420D01*
X27094849Y-21499420D02*
X27094849Y-20499420D01*
X27713897Y-21499420D02*
X27713897Y-20499420D01*
X28094849Y-20499420D01*
X28190087Y-20547040D01*
X28237706Y-20594659D01*
X28285325Y-20689897D01*
X28285325Y-20832754D01*
X28237706Y-20927992D01*
X28190087Y-20975611D01*
X28094849Y-21023230D01*
X27713897Y-21023230D01*
X28618659Y-20499420D02*
X29237706Y-20499420D01*
X28904373Y-20880373D01*
X29047230Y-20880373D01*
X29142468Y-20927992D01*
X29190087Y-20975611D01*
X29237706Y-21070849D01*
X29237706Y-21308944D01*
X29190087Y-21404182D01*
X29142468Y-21451801D01*
X29047230Y-21499420D01*
X28761516Y-21499420D01*
X28666278Y-21451801D01*
X28618659Y-21404182D01*
X28450386Y-60600100D02*
X29021815Y-60600100D01*
X28736100Y-61600100D02*
X28736100Y-60600100D01*
X29736100Y-61552481D02*
X29640862Y-61600100D01*
X29450386Y-61600100D01*
X29355148Y-61552481D01*
X29307529Y-61457243D01*
X29307529Y-61076291D01*
X29355148Y-60981053D01*
X29450386Y-60933434D01*
X29640862Y-60933434D01*
X29736100Y-60981053D01*
X29783720Y-61076291D01*
X29783720Y-61171529D01*
X29307529Y-61266767D01*
X30164672Y-61552481D02*
X30259910Y-61600100D01*
X30450386Y-61600100D01*
X30545624Y-61552481D01*
X30593243Y-61457243D01*
X30593243Y-61409624D01*
X30545624Y-61314386D01*
X30450386Y-61266767D01*
X30307529Y-61266767D01*
X30212291Y-61219148D01*
X30164672Y-61123910D01*
X30164672Y-61076291D01*
X30212291Y-60981053D01*
X30307529Y-60933434D01*
X30450386Y-60933434D01*
X30545624Y-60981053D01*
X30878958Y-60933434D02*
X31259910Y-60933434D01*
X31021815Y-60600100D02*
X31021815Y-61457243D01*
X31069434Y-61552481D01*
X31164672Y-61600100D01*
X31259910Y-61600100D01*
X31593243Y-61600100D02*
X31593243Y-60600100D01*
X31974196Y-60600100D01*
X32069434Y-60647720D01*
X32117053Y-60695339D01*
X32164672Y-60790577D01*
X32164672Y-60933434D01*
X32117053Y-61028672D01*
X32069434Y-61076291D01*
X31974196Y-61123910D01*
X31593243Y-61123910D01*
X32736100Y-61600100D02*
X32640862Y-61552481D01*
X32593243Y-61504862D01*
X32545624Y-61409624D01*
X32545624Y-61123910D01*
X32593243Y-61028672D01*
X32640862Y-60981053D01*
X32736100Y-60933434D01*
X32878958Y-60933434D01*
X32974196Y-60981053D01*
X33021815Y-61028672D01*
X33069434Y-61123910D01*
X33069434Y-61409624D01*
X33021815Y-61504862D01*
X32974196Y-61552481D01*
X32878958Y-61600100D01*
X32736100Y-61600100D01*
X33498005Y-61600100D02*
X33498005Y-60933434D01*
X33498005Y-60600100D02*
X33450386Y-60647720D01*
X33498005Y-60695339D01*
X33545624Y-60647720D01*
X33498005Y-60600100D01*
X33498005Y-60695339D01*
X33974196Y-60933434D02*
X33974196Y-61600100D01*
X33974196Y-61028672D02*
X34021815Y-60981053D01*
X34117053Y-60933434D01*
X34259910Y-60933434D01*
X34355148Y-60981053D01*
X34402767Y-61076291D01*
X34402767Y-61600100D01*
X34736100Y-60933434D02*
X35117053Y-60933434D01*
X34878958Y-60600100D02*
X34878958Y-61457243D01*
X34926577Y-61552481D01*
X35021815Y-61600100D01*
X35117053Y-61600100D01*
X25716135Y-58843420D02*
X26287563Y-58843420D01*
X26001849Y-59843420D02*
X26001849Y-58843420D01*
X26620897Y-59843420D02*
X26620897Y-58843420D01*
X27001849Y-58843420D01*
X27097087Y-58891040D01*
X27144706Y-58938659D01*
X27192325Y-59033897D01*
X27192325Y-59176754D01*
X27144706Y-59271992D01*
X27097087Y-59319611D01*
X27001849Y-59367230D01*
X26620897Y-59367230D01*
X28144706Y-59843420D02*
X27573278Y-59843420D01*
X27858992Y-59843420D02*
X27858992Y-58843420D01*
X27763754Y-58986278D01*
X27668516Y-59081516D01*
X27573278Y-59129135D01*
X21600571Y-64582060D02*
X21029142Y-64582060D01*
X21314857Y-64582060D02*
X21314857Y-63582060D01*
X21219619Y-63724918D01*
X21124380Y-63820156D01*
X21029142Y-63867775D01*
X21981523Y-63677299D02*
X22029142Y-63629680D01*
X22124380Y-63582060D01*
X22362476Y-63582060D01*
X22457714Y-63629680D01*
X22505333Y-63677299D01*
X22552952Y-63772537D01*
X22552952Y-63867775D01*
X22505333Y-64010632D01*
X21933904Y-64582060D01*
X22552952Y-64582060D01*
X23410095Y-63915394D02*
X23410095Y-64582060D01*
X23172000Y-63534441D02*
X22933904Y-64248727D01*
X23552952Y-64248727D01*
X23933904Y-64582060D02*
X23933904Y-63582060D01*
X24029142Y-64201108D02*
X24314857Y-64582060D01*
X24314857Y-63915394D02*
X23933904Y-64296346D01*
D13*
X22828230Y-62759468D02*
X22590135Y-62926135D01*
X22828230Y-63045182D02*
X22328230Y-63045182D01*
X22328230Y-62854706D01*
X22352040Y-62807087D01*
X22375849Y-62783278D01*
X22423468Y-62759468D01*
X22494897Y-62759468D01*
X22542516Y-62783278D01*
X22566325Y-62807087D01*
X22590135Y-62854706D01*
X22590135Y-63045182D01*
X22828230Y-62283278D02*
X22828230Y-62568992D01*
X22828230Y-62426135D02*
X22328230Y-62426135D01*
X22399659Y-62473754D01*
X22447278Y-62521373D01*
X22471087Y-62568992D01*
X22328230Y-61830897D02*
X22328230Y-62068992D01*
X22566325Y-62092801D01*
X22542516Y-62068992D01*
X22518706Y-62021373D01*
X22518706Y-61902325D01*
X22542516Y-61854706D01*
X22566325Y-61830897D01*
X22613944Y-61807087D01*
X22732992Y-61807087D01*
X22780611Y-61830897D01*
X22804420Y-61854706D01*
X22828230Y-61902325D01*
X22828230Y-62021373D01*
X22804420Y-62068992D01*
X22780611Y-62092801D01*
D11*
X30288611Y-23257420D02*
X29717182Y-23257420D01*
X30002897Y-23257420D02*
X30002897Y-22257420D01*
X29907659Y-22400278D01*
X29812420Y-22495516D01*
X29717182Y-22543135D01*
X30669563Y-22352659D02*
X30717182Y-22305040D01*
X30812420Y-22257420D01*
X31050516Y-22257420D01*
X31145754Y-22305040D01*
X31193373Y-22352659D01*
X31240992Y-22447897D01*
X31240992Y-22543135D01*
X31193373Y-22685992D01*
X30621944Y-23257420D01*
X31240992Y-23257420D01*
X32098135Y-22590754D02*
X32098135Y-23257420D01*
X31860040Y-22209801D02*
X31621944Y-22924087D01*
X32240992Y-22924087D01*
X32621944Y-23257420D02*
X32621944Y-22257420D01*
X32717182Y-22876468D02*
X33002897Y-23257420D01*
X33002897Y-22590754D02*
X32621944Y-22971706D01*
D13*
X31586230Y-24538373D02*
X31348135Y-24705040D01*
X31586230Y-24824087D02*
X31086230Y-24824087D01*
X31086230Y-24633611D01*
X31110040Y-24585992D01*
X31133849Y-24562182D01*
X31181468Y-24538373D01*
X31252897Y-24538373D01*
X31300516Y-24562182D01*
X31324325Y-24585992D01*
X31348135Y-24633611D01*
X31348135Y-24824087D01*
X31300516Y-24252659D02*
X31276706Y-24300278D01*
X31252897Y-24324087D01*
X31205278Y-24347897D01*
X31181468Y-24347897D01*
X31133849Y-24324087D01*
X31110040Y-24300278D01*
X31086230Y-24252659D01*
X31086230Y-24157420D01*
X31110040Y-24109801D01*
X31133849Y-24085992D01*
X31181468Y-24062182D01*
X31205278Y-24062182D01*
X31252897Y-24085992D01*
X31276706Y-24109801D01*
X31300516Y-24157420D01*
X31300516Y-24252659D01*
X31324325Y-24300278D01*
X31348135Y-24324087D01*
X31395754Y-24347897D01*
X31490992Y-24347897D01*
X31538611Y-24324087D01*
X31562420Y-24300278D01*
X31586230Y-24252659D01*
X31586230Y-24157420D01*
X31562420Y-24109801D01*
X31538611Y-24085992D01*
X31490992Y-24062182D01*
X31395754Y-24062182D01*
X31348135Y-24085992D01*
X31324325Y-24109801D01*
X31300516Y-24157420D01*
D11*
X28606592Y-29662080D02*
X28035163Y-29662080D01*
X28320878Y-29662080D02*
X28320878Y-28662080D01*
X28225640Y-28804938D01*
X28130401Y-28900176D01*
X28035163Y-28947795D01*
X29035163Y-29662080D02*
X29035163Y-28662080D01*
X29130401Y-29281128D02*
X29416116Y-29662080D01*
X29416116Y-28995414D02*
X29035163Y-29376366D01*
D13*
X31811230Y-29338373D02*
X31573135Y-29505040D01*
X31811230Y-29624087D02*
X31311230Y-29624087D01*
X31311230Y-29433611D01*
X31335040Y-29385992D01*
X31358849Y-29362182D01*
X31406468Y-29338373D01*
X31477897Y-29338373D01*
X31525516Y-29362182D01*
X31549325Y-29385992D01*
X31573135Y-29433611D01*
X31573135Y-29624087D01*
X31311230Y-29171706D02*
X31311230Y-28838373D01*
X31811230Y-29052659D01*
D11*
X31440992Y-38957420D02*
X30869563Y-38957420D01*
X31155278Y-38957420D02*
X31155278Y-37957420D01*
X31060040Y-38100278D01*
X30964801Y-38195516D01*
X30869563Y-38243135D01*
X31869563Y-38957420D02*
X31869563Y-37957420D01*
X31964801Y-38576468D02*
X32250516Y-38957420D01*
X32250516Y-38290754D02*
X31869563Y-38671706D01*
D13*
X28876706Y-37481230D02*
X28710040Y-37243135D01*
X28590992Y-37481230D02*
X28590992Y-36981230D01*
X28781468Y-36981230D01*
X28829087Y-37005040D01*
X28852897Y-37028849D01*
X28876706Y-37076468D01*
X28876706Y-37147897D01*
X28852897Y-37195516D01*
X28829087Y-37219325D01*
X28781468Y-37243135D01*
X28590992Y-37243135D01*
X29305278Y-36981230D02*
X29210040Y-36981230D01*
X29162420Y-37005040D01*
X29138611Y-37028849D01*
X29090992Y-37100278D01*
X29067182Y-37195516D01*
X29067182Y-37385992D01*
X29090992Y-37433611D01*
X29114801Y-37457420D01*
X29162420Y-37481230D01*
X29257659Y-37481230D01*
X29305278Y-37457420D01*
X29329087Y-37433611D01*
X29352897Y-37385992D01*
X29352897Y-37266944D01*
X29329087Y-37219325D01*
X29305278Y-37195516D01*
X29257659Y-37171706D01*
X29162420Y-37171706D01*
X29114801Y-37195516D01*
X29090992Y-37219325D01*
X29067182Y-37266944D01*
D11*
X52903839Y-32142832D02*
X52856220Y-32095213D01*
X52808600Y-31999975D01*
X52808600Y-31761879D01*
X52856220Y-31666641D01*
X52903839Y-31619022D01*
X52999077Y-31571403D01*
X53094315Y-31571403D01*
X53237172Y-31619022D01*
X53808600Y-32190451D01*
X53808600Y-31571403D01*
X53713362Y-31142832D02*
X53760981Y-31095213D01*
X53808600Y-31142832D01*
X53760981Y-31190451D01*
X53713362Y-31142832D01*
X53808600Y-31142832D01*
X53141934Y-30238070D02*
X53808600Y-30238070D01*
X52760981Y-30476165D02*
X53475267Y-30714260D01*
X53475267Y-30095213D01*
X53808600Y-29666641D02*
X53808600Y-29476165D01*
X53760981Y-29380927D01*
X53713362Y-29333308D01*
X53570505Y-29238070D01*
X53380029Y-29190451D01*
X52999077Y-29190451D01*
X52903839Y-29238070D01*
X52856220Y-29285689D01*
X52808600Y-29380927D01*
X52808600Y-29571403D01*
X52856220Y-29666641D01*
X52903839Y-29714260D01*
X52999077Y-29761880D01*
X53237172Y-29761880D01*
X53332410Y-29714260D01*
X53380029Y-29666641D01*
X53427648Y-29571403D01*
X53427648Y-29380927D01*
X53380029Y-29285689D01*
X53332410Y-29238070D01*
X53237172Y-29190451D01*
X53808600Y-28761880D02*
X52808600Y-28761880D01*
X53427648Y-28666641D02*
X53808600Y-28380927D01*
X53141934Y-28380927D02*
X53522886Y-28761880D01*
D13*
X53306706Y-26591230D02*
X53140040Y-26353135D01*
X53020992Y-26591230D02*
X53020992Y-26091230D01*
X53211468Y-26091230D01*
X53259087Y-26115040D01*
X53282897Y-26138849D01*
X53306706Y-26186468D01*
X53306706Y-26257897D01*
X53282897Y-26305516D01*
X53259087Y-26329325D01*
X53211468Y-26353135D01*
X53020992Y-26353135D01*
X53735278Y-26257897D02*
X53735278Y-26591230D01*
X53616230Y-26067420D02*
X53497182Y-26424563D01*
X53806706Y-26424563D01*
D11*
X53468611Y-38907420D02*
X52897182Y-38907420D01*
X53182897Y-38907420D02*
X53182897Y-37907420D01*
X53087659Y-38050278D01*
X52992420Y-38145516D01*
X52897182Y-38193135D01*
X53849563Y-38002659D02*
X53897182Y-37955040D01*
X53992420Y-37907420D01*
X54230516Y-37907420D01*
X54325754Y-37955040D01*
X54373373Y-38002659D01*
X54420992Y-38097897D01*
X54420992Y-38193135D01*
X54373373Y-38335992D01*
X53801944Y-38907420D01*
X54420992Y-38907420D01*
X55278135Y-38240754D02*
X55278135Y-38907420D01*
X55040040Y-37859801D02*
X54801944Y-38574087D01*
X55420992Y-38574087D01*
X55801944Y-38907420D02*
X55801944Y-37907420D01*
X55897182Y-38526468D02*
X56182897Y-38907420D01*
X56182897Y-38240754D02*
X55801944Y-38621706D01*
D13*
X54766230Y-40188373D02*
X54528135Y-40355040D01*
X54766230Y-40474087D02*
X54266230Y-40474087D01*
X54266230Y-40283611D01*
X54290040Y-40235992D01*
X54313849Y-40212182D01*
X54361468Y-40188373D01*
X54432897Y-40188373D01*
X54480516Y-40212182D01*
X54504325Y-40235992D01*
X54528135Y-40283611D01*
X54528135Y-40474087D01*
X54266230Y-40021706D02*
X54266230Y-39712182D01*
X54456706Y-39878849D01*
X54456706Y-39807420D01*
X54480516Y-39759801D01*
X54504325Y-39735992D01*
X54551944Y-39712182D01*
X54670992Y-39712182D01*
X54718611Y-39735992D01*
X54742420Y-39759801D01*
X54766230Y-39807420D01*
X54766230Y-39950278D01*
X54742420Y-39997897D01*
X54718611Y-40021706D01*
D11*
X48248740Y-42176488D02*
X48248740Y-42747917D01*
X48248740Y-42462202D02*
X47248740Y-42462202D01*
X47391598Y-42557440D01*
X47486836Y-42652679D01*
X47534455Y-42747917D01*
X47343979Y-41795536D02*
X47296360Y-41747917D01*
X47248740Y-41652679D01*
X47248740Y-41414583D01*
X47296360Y-41319345D01*
X47343979Y-41271726D01*
X47439217Y-41224107D01*
X47534455Y-41224107D01*
X47677312Y-41271726D01*
X48248740Y-41843155D01*
X48248740Y-41224107D01*
X47582074Y-40366964D02*
X48248740Y-40366964D01*
X47201121Y-40605060D02*
X47915407Y-40843155D01*
X47915407Y-40224107D01*
X48248740Y-39843155D02*
X47248740Y-39843155D01*
X47867788Y-39747917D02*
X48248740Y-39462202D01*
X47582074Y-39462202D02*
X47963026Y-39843155D01*
D13*
X49681230Y-41203373D02*
X49443135Y-41370040D01*
X49681230Y-41489087D02*
X49181230Y-41489087D01*
X49181230Y-41298611D01*
X49205040Y-41250992D01*
X49228849Y-41227182D01*
X49276468Y-41203373D01*
X49347897Y-41203373D01*
X49395516Y-41227182D01*
X49419325Y-41250992D01*
X49443135Y-41298611D01*
X49443135Y-41489087D01*
X49681230Y-40727182D02*
X49681230Y-41012897D01*
X49681230Y-40870040D02*
X49181230Y-40870040D01*
X49252659Y-40917659D01*
X49300278Y-40965278D01*
X49324087Y-41012897D01*
D11*
X27532380Y-57593809D02*
X28341904Y-57593809D01*
X28437142Y-57546190D01*
X28484761Y-57498571D01*
X28532380Y-57403333D01*
X28532380Y-57212857D01*
X28484761Y-57117619D01*
X28437142Y-57070000D01*
X28341904Y-57022380D01*
X27532380Y-57022380D01*
X28484761Y-56593809D02*
X28532380Y-56450952D01*
X28532380Y-56212857D01*
X28484761Y-56117619D01*
X28437142Y-56070000D01*
X28341904Y-56022380D01*
X28246666Y-56022380D01*
X28151428Y-56070000D01*
X28103809Y-56117619D01*
X28056190Y-56212857D01*
X28008571Y-56403333D01*
X27960952Y-56498571D01*
X27913333Y-56546190D01*
X27818095Y-56593809D01*
X27722857Y-56593809D01*
X27627619Y-56546190D01*
X27580000Y-56498571D01*
X27532380Y-56403333D01*
X27532380Y-56165238D01*
X27580000Y-56022380D01*
X28008571Y-55260476D02*
X28056190Y-55117619D01*
X28103809Y-55070000D01*
X28199047Y-55022380D01*
X28341904Y-55022380D01*
X28437142Y-55070000D01*
X28484761Y-55117619D01*
X28532380Y-55212857D01*
X28532380Y-55593809D01*
X27532380Y-55593809D01*
X27532380Y-55260476D01*
X27580000Y-55165238D01*
X27627619Y-55117619D01*
X27722857Y-55070000D01*
X27818095Y-55070000D01*
X27913333Y-55117619D01*
X27960952Y-55165238D01*
X28008571Y-55260476D01*
X28008571Y-55593809D01*
X28627619Y-54831904D02*
X28627619Y-54070000D01*
X28008571Y-53498571D02*
X28056190Y-53355714D01*
X28103809Y-53308095D01*
X28199047Y-53260476D01*
X28341904Y-53260476D01*
X28437142Y-53308095D01*
X28484761Y-53355714D01*
X28532380Y-53450952D01*
X28532380Y-53831904D01*
X27532380Y-53831904D01*
X27532380Y-53498571D01*
X27580000Y-53403333D01*
X27627619Y-53355714D01*
X27722857Y-53308095D01*
X27818095Y-53308095D01*
X27913333Y-53355714D01*
X27960952Y-53403333D01*
X28008571Y-53498571D01*
X28008571Y-53831904D01*
X28627619Y-53070000D02*
X28627619Y-52308095D01*
X28532380Y-52070000D02*
X27532380Y-52070000D01*
X28246666Y-51736666D01*
X27532380Y-51403333D01*
X28532380Y-51403333D01*
X28532380Y-50927142D02*
X27865714Y-50927142D01*
X27532380Y-50927142D02*
X27580000Y-50974761D01*
X27627619Y-50927142D01*
X27580000Y-50879523D01*
X27532380Y-50927142D01*
X27627619Y-50927142D01*
X28484761Y-50022380D02*
X28532380Y-50117619D01*
X28532380Y-50308095D01*
X28484761Y-50403333D01*
X28437142Y-50450952D01*
X28341904Y-50498571D01*
X28056190Y-50498571D01*
X27960952Y-50450952D01*
X27913333Y-50403333D01*
X27865714Y-50308095D01*
X27865714Y-50117619D01*
X27913333Y-50022380D01*
X28532380Y-49593809D02*
X27865714Y-49593809D01*
X28056190Y-49593809D02*
X27960952Y-49546190D01*
X27913333Y-49498571D01*
X27865714Y-49403333D01*
X27865714Y-49308095D01*
X28532380Y-48831904D02*
X28484761Y-48927142D01*
X28437142Y-48974761D01*
X28341904Y-49022380D01*
X28056190Y-49022380D01*
X27960952Y-48974761D01*
X27913333Y-48927142D01*
X27865714Y-48831904D01*
X27865714Y-48689047D01*
X27913333Y-48593809D01*
X27960952Y-48546190D01*
X28056190Y-48498571D01*
X28341904Y-48498571D01*
X28437142Y-48546190D01*
X28484761Y-48593809D01*
X28532380Y-48689047D01*
X28532380Y-48831904D01*
X21526034Y-58084219D02*
X21573653Y-58036600D01*
X21668891Y-57988980D01*
X21906986Y-57988980D01*
X22002224Y-58036600D01*
X22049843Y-58084219D01*
X22097462Y-58179457D01*
X22097462Y-58274695D01*
X22049843Y-58417552D01*
X21478415Y-58988980D01*
X22097462Y-58988980D01*
X22478415Y-58084219D02*
X22526034Y-58036600D01*
X22621272Y-57988980D01*
X22859367Y-57988980D01*
X22954605Y-58036600D01*
X23002224Y-58084219D01*
X23049843Y-58179457D01*
X23049843Y-58274695D01*
X23002224Y-58417552D01*
X22430796Y-58988980D01*
X23049843Y-58988980D01*
X23906986Y-58322314D02*
X23906986Y-58988980D01*
X23478415Y-58322314D02*
X23478415Y-58846123D01*
X23526034Y-58941361D01*
X23621272Y-58988980D01*
X23764129Y-58988980D01*
X23859367Y-58941361D01*
X23906986Y-58893742D01*
D13*
X22828611Y-60600468D02*
X22852420Y-60624278D01*
X22876230Y-60695706D01*
X22876230Y-60743325D01*
X22852420Y-60814754D01*
X22804801Y-60862373D01*
X22757182Y-60886182D01*
X22661944Y-60909992D01*
X22590516Y-60909992D01*
X22495278Y-60886182D01*
X22447659Y-60862373D01*
X22400040Y-60814754D01*
X22376230Y-60743325D01*
X22376230Y-60695706D01*
X22400040Y-60624278D01*
X22423849Y-60600468D01*
X22376230Y-60148087D02*
X22376230Y-60386182D01*
X22614325Y-60409992D01*
X22590516Y-60386182D01*
X22566706Y-60338563D01*
X22566706Y-60219516D01*
X22590516Y-60171897D01*
X22614325Y-60148087D01*
X22661944Y-60124278D01*
X22780992Y-60124278D01*
X22828611Y-60148087D01*
X22852420Y-60171897D01*
X22876230Y-60219516D01*
X22876230Y-60338563D01*
X22852420Y-60386182D01*
X22828611Y-60409992D01*
X22423849Y-59933801D02*
X22400040Y-59909992D01*
X22376230Y-59862373D01*
X22376230Y-59743325D01*
X22400040Y-59695706D01*
X22423849Y-59671897D01*
X22471468Y-59648087D01*
X22519087Y-59648087D01*
X22590516Y-59671897D01*
X22876230Y-59957611D01*
X22876230Y-59648087D01*
D11*
X25392214Y-26657039D02*
X25439833Y-26609420D01*
X25535071Y-26561800D01*
X25773166Y-26561800D01*
X25868404Y-26609420D01*
X25916023Y-26657039D01*
X25963642Y-26752277D01*
X25963642Y-26847515D01*
X25916023Y-26990372D01*
X25344595Y-27561800D01*
X25963642Y-27561800D01*
X26344595Y-26657039D02*
X26392214Y-26609420D01*
X26487452Y-26561800D01*
X26725547Y-26561800D01*
X26820785Y-26609420D01*
X26868404Y-26657039D01*
X26916023Y-26752277D01*
X26916023Y-26847515D01*
X26868404Y-26990372D01*
X26296976Y-27561800D01*
X26916023Y-27561800D01*
X27773166Y-26895134D02*
X27773166Y-27561800D01*
X27344595Y-26895134D02*
X27344595Y-27418943D01*
X27392214Y-27514181D01*
X27487452Y-27561800D01*
X27630309Y-27561800D01*
X27725547Y-27514181D01*
X27773166Y-27466562D01*
D13*
X26524991Y-25779231D02*
X26501181Y-25803040D01*
X26429753Y-25826850D01*
X26382134Y-25826850D01*
X26310705Y-25803040D01*
X26263086Y-25755421D01*
X26239277Y-25707802D01*
X26215467Y-25612564D01*
X26215467Y-25541136D01*
X26239277Y-25445898D01*
X26263086Y-25398279D01*
X26310705Y-25350660D01*
X26382134Y-25326850D01*
X26429753Y-25326850D01*
X26501181Y-25350660D01*
X26524991Y-25374469D01*
X26977372Y-25326850D02*
X26739277Y-25326850D01*
X26715467Y-25564945D01*
X26739277Y-25541136D01*
X26786896Y-25517326D01*
X26905943Y-25517326D01*
X26953562Y-25541136D01*
X26977372Y-25564945D01*
X27001181Y-25612564D01*
X27001181Y-25731612D01*
X26977372Y-25779231D01*
X26953562Y-25803040D01*
X26905943Y-25826850D01*
X26786896Y-25826850D01*
X26739277Y-25803040D01*
X26715467Y-25779231D01*
X27477372Y-25826850D02*
X27191658Y-25826850D01*
X27334515Y-25826850D02*
X27334515Y-25326850D01*
X27286896Y-25398279D01*
X27239277Y-25445898D01*
X27191658Y-25469707D01*
D11*
X38643112Y-65412540D02*
X38071683Y-65412540D01*
X38357398Y-65412540D02*
X38357398Y-64412540D01*
X38262160Y-64555398D01*
X38166921Y-64650636D01*
X38071683Y-64698255D01*
X39262160Y-64412540D02*
X39357398Y-64412540D01*
X39452636Y-64460160D01*
X39500255Y-64507779D01*
X39547874Y-64603017D01*
X39595493Y-64793493D01*
X39595493Y-65031588D01*
X39547874Y-65222064D01*
X39500255Y-65317302D01*
X39452636Y-65364921D01*
X39357398Y-65412540D01*
X39262160Y-65412540D01*
X39166921Y-65364921D01*
X39119302Y-65317302D01*
X39071683Y-65222064D01*
X39024064Y-65031588D01*
X39024064Y-64793493D01*
X39071683Y-64603017D01*
X39119302Y-64507779D01*
X39166921Y-64460160D01*
X39262160Y-64412540D01*
X40214540Y-64412540D02*
X40309779Y-64412540D01*
X40405017Y-64460160D01*
X40452636Y-64507779D01*
X40500255Y-64603017D01*
X40547874Y-64793493D01*
X40547874Y-65031588D01*
X40500255Y-65222064D01*
X40452636Y-65317302D01*
X40405017Y-65364921D01*
X40309779Y-65412540D01*
X40214540Y-65412540D01*
X40119302Y-65364921D01*
X40071683Y-65317302D01*
X40024064Y-65222064D01*
X39976445Y-65031588D01*
X39976445Y-64793493D01*
X40024064Y-64603017D01*
X40071683Y-64507779D01*
X40119302Y-64460160D01*
X40214540Y-64412540D01*
X40976445Y-64745874D02*
X40976445Y-65412540D01*
X40976445Y-64841112D02*
X41024064Y-64793493D01*
X41119302Y-64745874D01*
X41262160Y-64745874D01*
X41357398Y-64793493D01*
X41405017Y-64888731D01*
X41405017Y-65412540D01*
D13*
X43331468Y-64313611D02*
X43307659Y-64289801D01*
X43283849Y-64218373D01*
X43283849Y-64170754D01*
X43307659Y-64099325D01*
X43355278Y-64051706D01*
X43402897Y-64027897D01*
X43498135Y-64004087D01*
X43569563Y-64004087D01*
X43664801Y-64027897D01*
X43712420Y-64051706D01*
X43760040Y-64099325D01*
X43783849Y-64170754D01*
X43783849Y-64218373D01*
X43760040Y-64289801D01*
X43736230Y-64313611D01*
X43617182Y-64742182D02*
X43283849Y-64742182D01*
X43807659Y-64623135D02*
X43450516Y-64504087D01*
X43450516Y-64813611D01*
X43283849Y-65027897D02*
X43283849Y-65123135D01*
X43307659Y-65170754D01*
X43331468Y-65194563D01*
X43402897Y-65242182D01*
X43498135Y-65265992D01*
X43688611Y-65265992D01*
X43736230Y-65242182D01*
X43760040Y-65218373D01*
X43783849Y-65170754D01*
X43783849Y-65075516D01*
X43760040Y-65027897D01*
X43736230Y-65004087D01*
X43688611Y-64980278D01*
X43569563Y-64980278D01*
X43521944Y-65004087D01*
X43498135Y-65027897D01*
X43474325Y-65075516D01*
X43474325Y-65170754D01*
X43498135Y-65218373D01*
X43521944Y-65242182D01*
X43569563Y-65265992D01*
D11*
X29385136Y-58486811D02*
X30051802Y-58486811D01*
X29004183Y-58724906D02*
X29718469Y-58963001D01*
X29718469Y-58343954D01*
X29956564Y-57963001D02*
X30004183Y-57915382D01*
X30051802Y-57963001D01*
X30004183Y-58010621D01*
X29956564Y-57963001D01*
X30051802Y-57963001D01*
X29051802Y-57582049D02*
X29051802Y-56915382D01*
X30051802Y-57343954D01*
X29385136Y-56105859D02*
X30051802Y-56105859D01*
X29385136Y-56534430D02*
X29908945Y-56534430D01*
X30004183Y-56486811D01*
X30051802Y-56391573D01*
X30051802Y-56248716D01*
X30004183Y-56153478D01*
X29956564Y-56105859D01*
D13*
X27627993Y-57689192D02*
X27604183Y-57713001D01*
X27532755Y-57736811D01*
X27485136Y-57736811D01*
X27413707Y-57713001D01*
X27366088Y-57665382D01*
X27342279Y-57617763D01*
X27318469Y-57522525D01*
X27318469Y-57451097D01*
X27342279Y-57355859D01*
X27366088Y-57308240D01*
X27413707Y-57260621D01*
X27485136Y-57236811D01*
X27532755Y-57236811D01*
X27604183Y-57260621D01*
X27627993Y-57284430D01*
X27794660Y-57236811D02*
X28104183Y-57236811D01*
X27937517Y-57427287D01*
X28008945Y-57427287D01*
X28056564Y-57451097D01*
X28080374Y-57474906D01*
X28104183Y-57522525D01*
X28104183Y-57641573D01*
X28080374Y-57689192D01*
X28056564Y-57713001D01*
X28008945Y-57736811D01*
X27866088Y-57736811D01*
X27818469Y-57713001D01*
X27794660Y-57689192D01*
X28532755Y-57236811D02*
X28437517Y-57236811D01*
X28389898Y-57260621D01*
X28366088Y-57284430D01*
X28318469Y-57355859D01*
X28294660Y-57451097D01*
X28294660Y-57641573D01*
X28318469Y-57689192D01*
X28342279Y-57713001D01*
X28389898Y-57736811D01*
X28485136Y-57736811D01*
X28532755Y-57713001D01*
X28556564Y-57689192D01*
X28580374Y-57641573D01*
X28580374Y-57522525D01*
X28556564Y-57474906D01*
X28532755Y-57451097D01*
X28485136Y-57427287D01*
X28389898Y-57427287D01*
X28342279Y-57451097D01*
X28318469Y-57474906D01*
X28294660Y-57522525D01*
D11*
X27388104Y-26460494D02*
X27388104Y-27127160D01*
X27150009Y-26079541D02*
X26911914Y-26793827D01*
X27530961Y-26793827D01*
X27911914Y-26460494D02*
X27911914Y-27127160D01*
X27911914Y-26555732D02*
X27959533Y-26508113D01*
X28054771Y-26460494D01*
X28197628Y-26460494D01*
X28292866Y-26508113D01*
X28340485Y-26603351D01*
X28340485Y-27127160D01*
X28721438Y-26127160D02*
X29388104Y-26127160D01*
X28959533Y-27127160D01*
D13*
X31563611Y-26976468D02*
X31587420Y-27000278D01*
X31611230Y-27071706D01*
X31611230Y-27119325D01*
X31587420Y-27190754D01*
X31539801Y-27238373D01*
X31492182Y-27262182D01*
X31396944Y-27285992D01*
X31325516Y-27285992D01*
X31230278Y-27262182D01*
X31182659Y-27238373D01*
X31135040Y-27190754D01*
X31111230Y-27119325D01*
X31111230Y-27071706D01*
X31135040Y-27000278D01*
X31158849Y-26976468D01*
X31111230Y-26809801D02*
X31111230Y-26500278D01*
X31301706Y-26666944D01*
X31301706Y-26595516D01*
X31325516Y-26547897D01*
X31349325Y-26524087D01*
X31396944Y-26500278D01*
X31515992Y-26500278D01*
X31563611Y-26524087D01*
X31587420Y-26547897D01*
X31611230Y-26595516D01*
X31611230Y-26738373D01*
X31587420Y-26785992D01*
X31563611Y-26809801D01*
X31277897Y-26071706D02*
X31611230Y-26071706D01*
X31087420Y-26190754D02*
X31444563Y-26309801D01*
X31444563Y-26000278D01*
D11*
X36797814Y-23203139D02*
X36845433Y-23155520D01*
X36940671Y-23107900D01*
X37178766Y-23107900D01*
X37274004Y-23155520D01*
X37321623Y-23203139D01*
X37369242Y-23298377D01*
X37369242Y-23393615D01*
X37321623Y-23536472D01*
X36750195Y-24107900D01*
X37369242Y-24107900D01*
X37750195Y-23203139D02*
X37797814Y-23155520D01*
X37893052Y-23107900D01*
X38131147Y-23107900D01*
X38226385Y-23155520D01*
X38274004Y-23203139D01*
X38321623Y-23298377D01*
X38321623Y-23393615D01*
X38274004Y-23536472D01*
X37702576Y-24107900D01*
X38321623Y-24107900D01*
X38750195Y-23441234D02*
X38750195Y-24441234D01*
X38750195Y-23488853D02*
X38845433Y-23441234D01*
X39035909Y-23441234D01*
X39131147Y-23488853D01*
X39178766Y-23536472D01*
X39226385Y-23631710D01*
X39226385Y-23917424D01*
X39178766Y-24012662D01*
X39131147Y-24060281D01*
X39035909Y-24107900D01*
X38845433Y-24107900D01*
X38750195Y-24060281D01*
D13*
X41538611Y-23666468D02*
X41562420Y-23690278D01*
X41586230Y-23761706D01*
X41586230Y-23809325D01*
X41562420Y-23880754D01*
X41514801Y-23928373D01*
X41467182Y-23952182D01*
X41371944Y-23975992D01*
X41300516Y-23975992D01*
X41205278Y-23952182D01*
X41157659Y-23928373D01*
X41110040Y-23880754D01*
X41086230Y-23809325D01*
X41086230Y-23761706D01*
X41110040Y-23690278D01*
X41133849Y-23666468D01*
X41086230Y-23499801D02*
X41086230Y-23190278D01*
X41276706Y-23356944D01*
X41276706Y-23285516D01*
X41300516Y-23237897D01*
X41324325Y-23214087D01*
X41371944Y-23190278D01*
X41490992Y-23190278D01*
X41538611Y-23214087D01*
X41562420Y-23237897D01*
X41586230Y-23285516D01*
X41586230Y-23428373D01*
X41562420Y-23475992D01*
X41538611Y-23499801D01*
X41586230Y-22714087D02*
X41586230Y-22999801D01*
X41586230Y-22856944D02*
X41086230Y-22856944D01*
X41157659Y-22904563D01*
X41205278Y-22952182D01*
X41229087Y-22999801D01*
D11*
X50275619Y-28031902D02*
X50228000Y-27984283D01*
X50180380Y-27889045D01*
X50180380Y-27650950D01*
X50228000Y-27555712D01*
X50275619Y-27508093D01*
X50370857Y-27460474D01*
X50466095Y-27460474D01*
X50608952Y-27508093D01*
X51180380Y-28079521D01*
X51180380Y-27460474D01*
X50275619Y-27079521D02*
X50228000Y-27031902D01*
X50180380Y-26936664D01*
X50180380Y-26698569D01*
X50228000Y-26603331D01*
X50275619Y-26555712D01*
X50370857Y-26508093D01*
X50466095Y-26508093D01*
X50608952Y-26555712D01*
X51180380Y-27127140D01*
X51180380Y-26508093D01*
X50513714Y-26079521D02*
X51513714Y-26079521D01*
X50561333Y-26079521D02*
X50513714Y-25984283D01*
X50513714Y-25793807D01*
X50561333Y-25698569D01*
X50608952Y-25650950D01*
X50704190Y-25603331D01*
X50989904Y-25603331D01*
X51085142Y-25650950D01*
X51132761Y-25698569D01*
X51180380Y-25793807D01*
X51180380Y-25984283D01*
X51132761Y-26079521D01*
D13*
X50463611Y-24408611D02*
X50439801Y-24432420D01*
X50368373Y-24456230D01*
X50320754Y-24456230D01*
X50249325Y-24432420D01*
X50201706Y-24384801D01*
X50177897Y-24337182D01*
X50154087Y-24241944D01*
X50154087Y-24170516D01*
X50177897Y-24075278D01*
X50201706Y-24027659D01*
X50249325Y-23980040D01*
X50320754Y-23956230D01*
X50368373Y-23956230D01*
X50439801Y-23980040D01*
X50463611Y-24003849D01*
X50630278Y-23956230D02*
X50939801Y-23956230D01*
X50773135Y-24146706D01*
X50844563Y-24146706D01*
X50892182Y-24170516D01*
X50915992Y-24194325D01*
X50939801Y-24241944D01*
X50939801Y-24360992D01*
X50915992Y-24408611D01*
X50892182Y-24432420D01*
X50844563Y-24456230D01*
X50701706Y-24456230D01*
X50654087Y-24432420D01*
X50630278Y-24408611D01*
X51249325Y-23956230D02*
X51296944Y-23956230D01*
X51344563Y-23980040D01*
X51368373Y-24003849D01*
X51392182Y-24051468D01*
X51415992Y-24146706D01*
X51415992Y-24265754D01*
X51392182Y-24360992D01*
X51368373Y-24408611D01*
X51344563Y-24432420D01*
X51296944Y-24456230D01*
X51249325Y-24456230D01*
X51201706Y-24432420D01*
X51177897Y-24408611D01*
X51154087Y-24360992D01*
X51130278Y-24265754D01*
X51130278Y-24146706D01*
X51154087Y-24051468D01*
X51177897Y-24003849D01*
X51201706Y-23980040D01*
X51249325Y-23956230D01*
D11*
X43963580Y-27929517D02*
X43963580Y-28500945D01*
X43963580Y-28215231D02*
X42963580Y-28215231D01*
X43106438Y-28310469D01*
X43201676Y-28405707D01*
X43249295Y-28500945D01*
X42963580Y-27310469D02*
X42963580Y-27215231D01*
X43011200Y-27119993D01*
X43058819Y-27072374D01*
X43154057Y-27024755D01*
X43344533Y-26977136D01*
X43582628Y-26977136D01*
X43773104Y-27024755D01*
X43868342Y-27072374D01*
X43915961Y-27119993D01*
X43963580Y-27215231D01*
X43963580Y-27310469D01*
X43915961Y-27405707D01*
X43868342Y-27453326D01*
X43773104Y-27500945D01*
X43582628Y-27548564D01*
X43344533Y-27548564D01*
X43154057Y-27500945D01*
X43058819Y-27453326D01*
X43011200Y-27405707D01*
X42963580Y-27310469D01*
X43296914Y-26548564D02*
X43963580Y-26548564D01*
X43392152Y-26548564D02*
X43344533Y-26500945D01*
X43296914Y-26405707D01*
X43296914Y-26262850D01*
X43344533Y-26167612D01*
X43439771Y-26119993D01*
X43963580Y-26119993D01*
D13*
X42083611Y-29481468D02*
X42107420Y-29505278D01*
X42131230Y-29576706D01*
X42131230Y-29624325D01*
X42107420Y-29695754D01*
X42059801Y-29743373D01*
X42012182Y-29767182D01*
X41916944Y-29790992D01*
X41845516Y-29790992D01*
X41750278Y-29767182D01*
X41702659Y-29743373D01*
X41655040Y-29695754D01*
X41631230Y-29624325D01*
X41631230Y-29576706D01*
X41655040Y-29505278D01*
X41678849Y-29481468D01*
X41678849Y-29290992D02*
X41655040Y-29267182D01*
X41631230Y-29219563D01*
X41631230Y-29100516D01*
X41655040Y-29052897D01*
X41678849Y-29029087D01*
X41726468Y-29005278D01*
X41774087Y-29005278D01*
X41845516Y-29029087D01*
X42131230Y-29314801D01*
X42131230Y-29005278D01*
X41631230Y-28838611D02*
X41631230Y-28505278D01*
X42131230Y-28719563D01*
D11*
X58481610Y-62181839D02*
X57910181Y-62181839D01*
X58195896Y-62181839D02*
X58195896Y-61181839D01*
X58100658Y-61324697D01*
X58005419Y-61419935D01*
X57910181Y-61467554D01*
X59100658Y-61181839D02*
X59195896Y-61181839D01*
X59291134Y-61229459D01*
X59338753Y-61277078D01*
X59386372Y-61372316D01*
X59433991Y-61562792D01*
X59433991Y-61800887D01*
X59386372Y-61991363D01*
X59338753Y-62086601D01*
X59291134Y-62134220D01*
X59195896Y-62181839D01*
X59100658Y-62181839D01*
X59005419Y-62134220D01*
X58957800Y-62086601D01*
X58910181Y-61991363D01*
X58862562Y-61800887D01*
X58862562Y-61562792D01*
X58910181Y-61372316D01*
X58957800Y-61277078D01*
X59005419Y-61229459D01*
X59100658Y-61181839D01*
X60053038Y-61181839D02*
X60148277Y-61181839D01*
X60243515Y-61229459D01*
X60291134Y-61277078D01*
X60338753Y-61372316D01*
X60386372Y-61562792D01*
X60386372Y-61800887D01*
X60338753Y-61991363D01*
X60291134Y-62086601D01*
X60243515Y-62134220D01*
X60148277Y-62181839D01*
X60053038Y-62181839D01*
X59957800Y-62134220D01*
X59910181Y-62086601D01*
X59862562Y-61991363D01*
X59814943Y-61800887D01*
X59814943Y-61562792D01*
X59862562Y-61372316D01*
X59910181Y-61277078D01*
X59957800Y-61229459D01*
X60053038Y-61181839D01*
X60814943Y-61515173D02*
X60814943Y-62181839D01*
X60814943Y-61610411D02*
X60862562Y-61562792D01*
X60957800Y-61515173D01*
X61100658Y-61515173D01*
X61195896Y-61562792D01*
X61243515Y-61658030D01*
X61243515Y-62181839D01*
D13*
X59279229Y-60258030D02*
X59255419Y-60281839D01*
X59183991Y-60305649D01*
X59136372Y-60305649D01*
X59064943Y-60281839D01*
X59017324Y-60234220D01*
X58993515Y-60186601D01*
X58969705Y-60091363D01*
X58969705Y-60019935D01*
X58993515Y-59924697D01*
X59017324Y-59877078D01*
X59064943Y-59829459D01*
X59136372Y-59805649D01*
X59183991Y-59805649D01*
X59255419Y-59829459D01*
X59279229Y-59853268D01*
X59755419Y-60305649D02*
X59469705Y-60305649D01*
X59612562Y-60305649D02*
X59612562Y-59805649D01*
X59564943Y-59877078D01*
X59517324Y-59924697D01*
X59469705Y-59948506D01*
X60041134Y-60019935D02*
X59993515Y-59996125D01*
X59969705Y-59972316D01*
X59945896Y-59924697D01*
X59945896Y-59900887D01*
X59969705Y-59853268D01*
X59993515Y-59829459D01*
X60041134Y-59805649D01*
X60136372Y-59805649D01*
X60183991Y-59829459D01*
X60207800Y-59853268D01*
X60231610Y-59900887D01*
X60231610Y-59924697D01*
X60207800Y-59972316D01*
X60183991Y-59996125D01*
X60136372Y-60019935D01*
X60041134Y-60019935D01*
X59993515Y-60043744D01*
X59969705Y-60067554D01*
X59945896Y-60115173D01*
X59945896Y-60210411D01*
X59969705Y-60258030D01*
X59993515Y-60281839D01*
X60041134Y-60305649D01*
X60136372Y-60305649D01*
X60183991Y-60281839D01*
X60207800Y-60258030D01*
X60231610Y-60210411D01*
X60231610Y-60115173D01*
X60207800Y-60067554D01*
X60183991Y-60043744D01*
X60136372Y-60019935D01*
D11*
X51118712Y-63947900D02*
X50547283Y-63947900D01*
X50832998Y-63947900D02*
X50832998Y-62947900D01*
X50737760Y-63090758D01*
X50642521Y-63185996D01*
X50547283Y-63233615D01*
X51737760Y-62947900D02*
X51832998Y-62947900D01*
X51928236Y-62995520D01*
X51975855Y-63043139D01*
X52023474Y-63138377D01*
X52071093Y-63328853D01*
X52071093Y-63566948D01*
X52023474Y-63757424D01*
X51975855Y-63852662D01*
X51928236Y-63900281D01*
X51832998Y-63947900D01*
X51737760Y-63947900D01*
X51642521Y-63900281D01*
X51594902Y-63852662D01*
X51547283Y-63757424D01*
X51499664Y-63566948D01*
X51499664Y-63328853D01*
X51547283Y-63138377D01*
X51594902Y-63043139D01*
X51642521Y-62995520D01*
X51737760Y-62947900D01*
X52690140Y-62947900D02*
X52785379Y-62947900D01*
X52880617Y-62995520D01*
X52928236Y-63043139D01*
X52975855Y-63138377D01*
X53023474Y-63328853D01*
X53023474Y-63566948D01*
X52975855Y-63757424D01*
X52928236Y-63852662D01*
X52880617Y-63900281D01*
X52785379Y-63947900D01*
X52690140Y-63947900D01*
X52594902Y-63900281D01*
X52547283Y-63852662D01*
X52499664Y-63757424D01*
X52452045Y-63566948D01*
X52452045Y-63328853D01*
X52499664Y-63138377D01*
X52547283Y-63043139D01*
X52594902Y-62995520D01*
X52690140Y-62947900D01*
X53452045Y-63281234D02*
X53452045Y-63947900D01*
X53452045Y-63376472D02*
X53499664Y-63328853D01*
X53594902Y-63281234D01*
X53737760Y-63281234D01*
X53832998Y-63328853D01*
X53880617Y-63424091D01*
X53880617Y-63947900D01*
D13*
X51886468Y-64803611D02*
X51862659Y-64779801D01*
X51838849Y-64708373D01*
X51838849Y-64660754D01*
X51862659Y-64589325D01*
X51910278Y-64541706D01*
X51957897Y-64517897D01*
X52053135Y-64494087D01*
X52124563Y-64494087D01*
X52219801Y-64517897D01*
X52267420Y-64541706D01*
X52315040Y-64589325D01*
X52338849Y-64660754D01*
X52338849Y-64708373D01*
X52315040Y-64779801D01*
X52291230Y-64803611D01*
X51838849Y-65279801D02*
X51838849Y-64994087D01*
X51838849Y-65136944D02*
X52338849Y-65136944D01*
X52267420Y-65089325D01*
X52219801Y-65041706D01*
X52195992Y-64994087D01*
X51838849Y-65755992D02*
X51838849Y-65470278D01*
X51838849Y-65613135D02*
X52338849Y-65613135D01*
X52267420Y-65565516D01*
X52219801Y-65517897D01*
X52195992Y-65470278D01*
D11*
X35150112Y-40820660D02*
X34578683Y-40820660D01*
X34864398Y-40820660D02*
X34864398Y-39820660D01*
X34769160Y-39963518D01*
X34673921Y-40058756D01*
X34578683Y-40106375D01*
X35769160Y-39820660D02*
X35864398Y-39820660D01*
X35959636Y-39868280D01*
X36007255Y-39915899D01*
X36054874Y-40011137D01*
X36102493Y-40201613D01*
X36102493Y-40439708D01*
X36054874Y-40630184D01*
X36007255Y-40725422D01*
X35959636Y-40773041D01*
X35864398Y-40820660D01*
X35769160Y-40820660D01*
X35673921Y-40773041D01*
X35626302Y-40725422D01*
X35578683Y-40630184D01*
X35531064Y-40439708D01*
X35531064Y-40201613D01*
X35578683Y-40011137D01*
X35626302Y-39915899D01*
X35673921Y-39868280D01*
X35769160Y-39820660D01*
X36721540Y-39820660D02*
X36816779Y-39820660D01*
X36912017Y-39868280D01*
X36959636Y-39915899D01*
X37007255Y-40011137D01*
X37054874Y-40201613D01*
X37054874Y-40439708D01*
X37007255Y-40630184D01*
X36959636Y-40725422D01*
X36912017Y-40773041D01*
X36816779Y-40820660D01*
X36721540Y-40820660D01*
X36626302Y-40773041D01*
X36578683Y-40725422D01*
X36531064Y-40630184D01*
X36483445Y-40439708D01*
X36483445Y-40201613D01*
X36531064Y-40011137D01*
X36578683Y-39915899D01*
X36626302Y-39868280D01*
X36721540Y-39820660D01*
X37483445Y-40153994D02*
X37483445Y-40820660D01*
X37483445Y-40249232D02*
X37531064Y-40201613D01*
X37626302Y-40153994D01*
X37769160Y-40153994D01*
X37864398Y-40201613D01*
X37912017Y-40296851D01*
X37912017Y-40820660D01*
D13*
X40560651Y-40638848D02*
X40584460Y-40662658D01*
X40608270Y-40734086D01*
X40608270Y-40781705D01*
X40584460Y-40853134D01*
X40536841Y-40900753D01*
X40489222Y-40924562D01*
X40393984Y-40948372D01*
X40322556Y-40948372D01*
X40227318Y-40924562D01*
X40179699Y-40900753D01*
X40132080Y-40853134D01*
X40108270Y-40781705D01*
X40108270Y-40734086D01*
X40132080Y-40662658D01*
X40155889Y-40638848D01*
X40608270Y-40162658D02*
X40608270Y-40448372D01*
X40608270Y-40305515D02*
X40108270Y-40305515D01*
X40179699Y-40353134D01*
X40227318Y-40400753D01*
X40251127Y-40448372D01*
X40108270Y-39853134D02*
X40108270Y-39805515D01*
X40132080Y-39757896D01*
X40155889Y-39734086D01*
X40203508Y-39710277D01*
X40298746Y-39686467D01*
X40417794Y-39686467D01*
X40513032Y-39710277D01*
X40560651Y-39734086D01*
X40584460Y-39757896D01*
X40608270Y-39805515D01*
X40608270Y-39853134D01*
X40584460Y-39900753D01*
X40560651Y-39924562D01*
X40513032Y-39948372D01*
X40417794Y-39972181D01*
X40298746Y-39972181D01*
X40203508Y-39948372D01*
X40155889Y-39924562D01*
X40132080Y-39900753D01*
X40108270Y-39853134D01*
D11*
X56125992Y-65787420D02*
X55554563Y-65787420D01*
X55840278Y-65787420D02*
X55840278Y-64787420D01*
X55745040Y-64930278D01*
X55649801Y-65025516D01*
X55554563Y-65073135D01*
X56745040Y-64787420D02*
X56840278Y-64787420D01*
X56935516Y-64835040D01*
X56983135Y-64882659D01*
X57030754Y-64977897D01*
X57078373Y-65168373D01*
X57078373Y-65406468D01*
X57030754Y-65596944D01*
X56983135Y-65692182D01*
X56935516Y-65739801D01*
X56840278Y-65787420D01*
X56745040Y-65787420D01*
X56649801Y-65739801D01*
X56602182Y-65692182D01*
X56554563Y-65596944D01*
X56506944Y-65406468D01*
X56506944Y-65168373D01*
X56554563Y-64977897D01*
X56602182Y-64882659D01*
X56649801Y-64835040D01*
X56745040Y-64787420D01*
X57697420Y-64787420D02*
X57792659Y-64787420D01*
X57887897Y-64835040D01*
X57935516Y-64882659D01*
X57983135Y-64977897D01*
X58030754Y-65168373D01*
X58030754Y-65406468D01*
X57983135Y-65596944D01*
X57935516Y-65692182D01*
X57887897Y-65739801D01*
X57792659Y-65787420D01*
X57697420Y-65787420D01*
X57602182Y-65739801D01*
X57554563Y-65692182D01*
X57506944Y-65596944D01*
X57459325Y-65406468D01*
X57459325Y-65168373D01*
X57506944Y-64977897D01*
X57554563Y-64882659D01*
X57602182Y-64835040D01*
X57697420Y-64787420D01*
X58459325Y-65120754D02*
X58459325Y-65787420D01*
X58459325Y-65215992D02*
X58506944Y-65168373D01*
X58602182Y-65120754D01*
X58745040Y-65120754D01*
X58840278Y-65168373D01*
X58887897Y-65263611D01*
X58887897Y-65787420D01*
D13*
X57161706Y-63863611D02*
X57137897Y-63887420D01*
X57066468Y-63911230D01*
X57018849Y-63911230D01*
X56947420Y-63887420D01*
X56899801Y-63839801D01*
X56875992Y-63792182D01*
X56852182Y-63696944D01*
X56852182Y-63625516D01*
X56875992Y-63530278D01*
X56899801Y-63482659D01*
X56947420Y-63435040D01*
X57018849Y-63411230D01*
X57066468Y-63411230D01*
X57137897Y-63435040D01*
X57161706Y-63458849D01*
X57447420Y-63625516D02*
X57399801Y-63601706D01*
X57375992Y-63577897D01*
X57352182Y-63530278D01*
X57352182Y-63506468D01*
X57375992Y-63458849D01*
X57399801Y-63435040D01*
X57447420Y-63411230D01*
X57542659Y-63411230D01*
X57590278Y-63435040D01*
X57614087Y-63458849D01*
X57637897Y-63506468D01*
X57637897Y-63530278D01*
X57614087Y-63577897D01*
X57590278Y-63601706D01*
X57542659Y-63625516D01*
X57447420Y-63625516D01*
X57399801Y-63649325D01*
X57375992Y-63673135D01*
X57352182Y-63720754D01*
X57352182Y-63815992D01*
X57375992Y-63863611D01*
X57399801Y-63887420D01*
X57447420Y-63911230D01*
X57542659Y-63911230D01*
X57590278Y-63887420D01*
X57614087Y-63863611D01*
X57637897Y-63815992D01*
X57637897Y-63720754D01*
X57614087Y-63673135D01*
X57590278Y-63649325D01*
X57542659Y-63625516D01*
D11*
X27990659Y-57515325D02*
X27943040Y-57467706D01*
X27895420Y-57372468D01*
X27895420Y-57134373D01*
X27943040Y-57039135D01*
X27990659Y-56991516D01*
X28085897Y-56943897D01*
X28181135Y-56943897D01*
X28323992Y-56991516D01*
X28895420Y-57562944D01*
X28895420Y-56943897D01*
X27990659Y-56562944D02*
X27943040Y-56515325D01*
X27895420Y-56420087D01*
X27895420Y-56181992D01*
X27943040Y-56086754D01*
X27990659Y-56039135D01*
X28085897Y-55991516D01*
X28181135Y-55991516D01*
X28323992Y-56039135D01*
X28895420Y-56610563D01*
X28895420Y-55991516D01*
X28228754Y-55562944D02*
X29228754Y-55562944D01*
X28276373Y-55562944D02*
X28228754Y-55467706D01*
X28228754Y-55277230D01*
X28276373Y-55181992D01*
X28323992Y-55134373D01*
X28419230Y-55086754D01*
X28704944Y-55086754D01*
X28800182Y-55134373D01*
X28847801Y-55181992D01*
X28895420Y-55277230D01*
X28895420Y-55467706D01*
X28847801Y-55562944D01*
D13*
X30271611Y-56384373D02*
X30295420Y-56408182D01*
X30319230Y-56479611D01*
X30319230Y-56527230D01*
X30295420Y-56598659D01*
X30247801Y-56646278D01*
X30200182Y-56670087D01*
X30104944Y-56693897D01*
X30033516Y-56693897D01*
X29938278Y-56670087D01*
X29890659Y-56646278D01*
X29843040Y-56598659D01*
X29819230Y-56527230D01*
X29819230Y-56479611D01*
X29843040Y-56408182D01*
X29866849Y-56384373D01*
X29819230Y-56217706D02*
X29819230Y-55884373D01*
X30319230Y-56098659D01*
D11*
X35362422Y-64803620D02*
X34790994Y-64803620D01*
X35076708Y-64803620D02*
X35076708Y-63803620D01*
X34981470Y-63946478D01*
X34886232Y-64041716D01*
X34790994Y-64089335D01*
X35981470Y-63803620D02*
X36076708Y-63803620D01*
X36171946Y-63851240D01*
X36219565Y-63898859D01*
X36267184Y-63994097D01*
X36314803Y-64184573D01*
X36314803Y-64422668D01*
X36267184Y-64613144D01*
X36219565Y-64708382D01*
X36171946Y-64756001D01*
X36076708Y-64803620D01*
X35981470Y-64803620D01*
X35886232Y-64756001D01*
X35838613Y-64708382D01*
X35790994Y-64613144D01*
X35743375Y-64422668D01*
X35743375Y-64184573D01*
X35790994Y-63994097D01*
X35838613Y-63898859D01*
X35886232Y-63851240D01*
X35981470Y-63803620D01*
X36743375Y-64136954D02*
X36743375Y-64803620D01*
X36743375Y-64232192D02*
X36790994Y-64184573D01*
X36886232Y-64136954D01*
X37029089Y-64136954D01*
X37124327Y-64184573D01*
X37171946Y-64279811D01*
X37171946Y-64803620D01*
D13*
X39588611Y-64358373D02*
X39612420Y-64382182D01*
X39636230Y-64453611D01*
X39636230Y-64501230D01*
X39612420Y-64572659D01*
X39564801Y-64620278D01*
X39517182Y-64644087D01*
X39421944Y-64667897D01*
X39350516Y-64667897D01*
X39255278Y-64644087D01*
X39207659Y-64620278D01*
X39160040Y-64572659D01*
X39136230Y-64501230D01*
X39136230Y-64453611D01*
X39160040Y-64382182D01*
X39183849Y-64358373D01*
X39136230Y-63929801D02*
X39136230Y-64025040D01*
X39160040Y-64072659D01*
X39183849Y-64096468D01*
X39255278Y-64144087D01*
X39350516Y-64167897D01*
X39540992Y-64167897D01*
X39588611Y-64144087D01*
X39612420Y-64120278D01*
X39636230Y-64072659D01*
X39636230Y-63977420D01*
X39612420Y-63929801D01*
X39588611Y-63905992D01*
X39540992Y-63882182D01*
X39421944Y-63882182D01*
X39374325Y-63905992D01*
X39350516Y-63929801D01*
X39326706Y-63977420D01*
X39326706Y-64072659D01*
X39350516Y-64120278D01*
X39374325Y-64144087D01*
X39421944Y-64167897D01*
D11*
X31905754Y-60917659D02*
X31953373Y-60870040D01*
X32048611Y-60822420D01*
X32286706Y-60822420D01*
X32381944Y-60870040D01*
X32429563Y-60917659D01*
X32477182Y-61012897D01*
X32477182Y-61108135D01*
X32429563Y-61250992D01*
X31858135Y-61822420D01*
X32477182Y-61822420D01*
X32858135Y-60917659D02*
X32905754Y-60870040D01*
X33000992Y-60822420D01*
X33239087Y-60822420D01*
X33334325Y-60870040D01*
X33381944Y-60917659D01*
X33429563Y-61012897D01*
X33429563Y-61108135D01*
X33381944Y-61250992D01*
X32810516Y-61822420D01*
X33429563Y-61822420D01*
X33858135Y-61155754D02*
X33858135Y-62155754D01*
X33858135Y-61203373D02*
X33953373Y-61155754D01*
X34143849Y-61155754D01*
X34239087Y-61203373D01*
X34286706Y-61250992D01*
X34334325Y-61346230D01*
X34334325Y-61631944D01*
X34286706Y-61727182D01*
X34239087Y-61774801D01*
X34143849Y-61822420D01*
X33953373Y-61822420D01*
X33858135Y-61774801D01*
D13*
X33036706Y-63198611D02*
X33012897Y-63222420D01*
X32941468Y-63246230D01*
X32893849Y-63246230D01*
X32822420Y-63222420D01*
X32774801Y-63174801D01*
X32750992Y-63127182D01*
X32727182Y-63031944D01*
X32727182Y-62960516D01*
X32750992Y-62865278D01*
X32774801Y-62817659D01*
X32822420Y-62770040D01*
X32893849Y-62746230D01*
X32941468Y-62746230D01*
X33012897Y-62770040D01*
X33036706Y-62793849D01*
X33489087Y-62746230D02*
X33250992Y-62746230D01*
X33227182Y-62984325D01*
X33250992Y-62960516D01*
X33298611Y-62936706D01*
X33417659Y-62936706D01*
X33465278Y-62960516D01*
X33489087Y-62984325D01*
X33512897Y-63031944D01*
X33512897Y-63150992D01*
X33489087Y-63198611D01*
X33465278Y-63222420D01*
X33417659Y-63246230D01*
X33298611Y-63246230D01*
X33250992Y-63222420D01*
X33227182Y-63198611D01*
D11*
X37236180Y-58350407D02*
X37236180Y-58921836D01*
X37236180Y-58636121D02*
X36236180Y-58636121D01*
X36379038Y-58731360D01*
X36474276Y-58826598D01*
X36521895Y-58921836D01*
X36236180Y-57731360D02*
X36236180Y-57636121D01*
X36283800Y-57540883D01*
X36331419Y-57493264D01*
X36426657Y-57445645D01*
X36617133Y-57398026D01*
X36855228Y-57398026D01*
X37045704Y-57445645D01*
X37140942Y-57493264D01*
X37188561Y-57540883D01*
X37236180Y-57636121D01*
X37236180Y-57731360D01*
X37188561Y-57826598D01*
X37140942Y-57874217D01*
X37045704Y-57921836D01*
X36855228Y-57969455D01*
X36617133Y-57969455D01*
X36426657Y-57921836D01*
X36331419Y-57874217D01*
X36283800Y-57826598D01*
X36236180Y-57731360D01*
X36236180Y-56778979D02*
X36236180Y-56683740D01*
X36283800Y-56588502D01*
X36331419Y-56540883D01*
X36426657Y-56493264D01*
X36617133Y-56445645D01*
X36855228Y-56445645D01*
X37045704Y-56493264D01*
X37140942Y-56540883D01*
X37188561Y-56588502D01*
X37236180Y-56683740D01*
X37236180Y-56778979D01*
X37188561Y-56874217D01*
X37140942Y-56921836D01*
X37045704Y-56969455D01*
X36855228Y-57017074D01*
X36617133Y-57017074D01*
X36426657Y-56969455D01*
X36331419Y-56921836D01*
X36283800Y-56874217D01*
X36236180Y-56778979D01*
X36569514Y-56017074D02*
X37236180Y-56017074D01*
X36664752Y-56017074D02*
X36617133Y-55969455D01*
X36569514Y-55874217D01*
X36569514Y-55731360D01*
X36617133Y-55636121D01*
X36712371Y-55588502D01*
X37236180Y-55588502D01*
D13*
X36715706Y-61190611D02*
X36691897Y-61214420D01*
X36620468Y-61238230D01*
X36572849Y-61238230D01*
X36501420Y-61214420D01*
X36453801Y-61166801D01*
X36429992Y-61119182D01*
X36406182Y-61023944D01*
X36406182Y-60952516D01*
X36429992Y-60857278D01*
X36453801Y-60809659D01*
X36501420Y-60762040D01*
X36572849Y-60738230D01*
X36620468Y-60738230D01*
X36691897Y-60762040D01*
X36715706Y-60785849D01*
X37144278Y-60904897D02*
X37144278Y-61238230D01*
X37025230Y-60714420D02*
X36906182Y-61071563D01*
X37215706Y-61071563D01*
D11*
X32976080Y-51376867D02*
X32976080Y-51948296D01*
X32976080Y-51662581D02*
X31976080Y-51662581D01*
X32118938Y-51757820D01*
X32214176Y-51853058D01*
X32261795Y-51948296D01*
X31976080Y-50757820D02*
X31976080Y-50662581D01*
X32023700Y-50567343D01*
X32071319Y-50519724D01*
X32166557Y-50472105D01*
X32357033Y-50424486D01*
X32595128Y-50424486D01*
X32785604Y-50472105D01*
X32880842Y-50519724D01*
X32928461Y-50567343D01*
X32976080Y-50662581D01*
X32976080Y-50757820D01*
X32928461Y-50853058D01*
X32880842Y-50900677D01*
X32785604Y-50948296D01*
X32595128Y-50995915D01*
X32357033Y-50995915D01*
X32166557Y-50948296D01*
X32071319Y-50900677D01*
X32023700Y-50853058D01*
X31976080Y-50757820D01*
X31976080Y-49805439D02*
X31976080Y-49710200D01*
X32023700Y-49614962D01*
X32071319Y-49567343D01*
X32166557Y-49519724D01*
X32357033Y-49472105D01*
X32595128Y-49472105D01*
X32785604Y-49519724D01*
X32880842Y-49567343D01*
X32928461Y-49614962D01*
X32976080Y-49710200D01*
X32976080Y-49805439D01*
X32928461Y-49900677D01*
X32880842Y-49948296D01*
X32785604Y-49995915D01*
X32595128Y-50043534D01*
X32357033Y-50043534D01*
X32166557Y-49995915D01*
X32071319Y-49948296D01*
X32023700Y-49900677D01*
X31976080Y-49805439D01*
X32309414Y-49043534D02*
X32976080Y-49043534D01*
X32404652Y-49043534D02*
X32357033Y-48995915D01*
X32309414Y-48900677D01*
X32309414Y-48757820D01*
X32357033Y-48662581D01*
X32452271Y-48614962D01*
X32976080Y-48614962D01*
D13*
X30790366Y-50436391D02*
X30766557Y-50460200D01*
X30695128Y-50484010D01*
X30647509Y-50484010D01*
X30576080Y-50460200D01*
X30528461Y-50412581D01*
X30504652Y-50364962D01*
X30480842Y-50269724D01*
X30480842Y-50198296D01*
X30504652Y-50103058D01*
X30528461Y-50055439D01*
X30576080Y-50007820D01*
X30647509Y-49984010D01*
X30695128Y-49984010D01*
X30766557Y-50007820D01*
X30790366Y-50031629D01*
X30957033Y-49984010D02*
X31266557Y-49984010D01*
X31099890Y-50174486D01*
X31171319Y-50174486D01*
X31218938Y-50198296D01*
X31242747Y-50222105D01*
X31266557Y-50269724D01*
X31266557Y-50388772D01*
X31242747Y-50436391D01*
X31218938Y-50460200D01*
X31171319Y-50484010D01*
X31028461Y-50484010D01*
X30980842Y-50460200D01*
X30957033Y-50436391D01*
D11*
X57575992Y-48067420D02*
X57004563Y-48067420D01*
X57290278Y-48067420D02*
X57290278Y-47067420D01*
X57195040Y-47210278D01*
X57099801Y-47305516D01*
X57004563Y-47353135D01*
X58195040Y-47067420D02*
X58290278Y-47067420D01*
X58385516Y-47115040D01*
X58433135Y-47162659D01*
X58480754Y-47257897D01*
X58528373Y-47448373D01*
X58528373Y-47686468D01*
X58480754Y-47876944D01*
X58433135Y-47972182D01*
X58385516Y-48019801D01*
X58290278Y-48067420D01*
X58195040Y-48067420D01*
X58099801Y-48019801D01*
X58052182Y-47972182D01*
X58004563Y-47876944D01*
X57956944Y-47686468D01*
X57956944Y-47448373D01*
X58004563Y-47257897D01*
X58052182Y-47162659D01*
X58099801Y-47115040D01*
X58195040Y-47067420D01*
X59147420Y-47067420D02*
X59242659Y-47067420D01*
X59337897Y-47115040D01*
X59385516Y-47162659D01*
X59433135Y-47257897D01*
X59480754Y-47448373D01*
X59480754Y-47686468D01*
X59433135Y-47876944D01*
X59385516Y-47972182D01*
X59337897Y-48019801D01*
X59242659Y-48067420D01*
X59147420Y-48067420D01*
X59052182Y-48019801D01*
X59004563Y-47972182D01*
X58956944Y-47876944D01*
X58909325Y-47686468D01*
X58909325Y-47448373D01*
X58956944Y-47257897D01*
X59004563Y-47162659D01*
X59052182Y-47115040D01*
X59147420Y-47067420D01*
X59909325Y-47400754D02*
X59909325Y-48067420D01*
X59909325Y-47495992D02*
X59956944Y-47448373D01*
X60052182Y-47400754D01*
X60195040Y-47400754D01*
X60290278Y-47448373D01*
X60337897Y-47543611D01*
X60337897Y-48067420D01*
D13*
X58611706Y-46143611D02*
X58587897Y-46167420D01*
X58516468Y-46191230D01*
X58468849Y-46191230D01*
X58397420Y-46167420D01*
X58349801Y-46119801D01*
X58325992Y-46072182D01*
X58302182Y-45976944D01*
X58302182Y-45905516D01*
X58325992Y-45810278D01*
X58349801Y-45762659D01*
X58397420Y-45715040D01*
X58468849Y-45691230D01*
X58516468Y-45691230D01*
X58587897Y-45715040D01*
X58611706Y-45738849D01*
X58802182Y-45738849D02*
X58825992Y-45715040D01*
X58873611Y-45691230D01*
X58992659Y-45691230D01*
X59040278Y-45715040D01*
X59064087Y-45738849D01*
X59087897Y-45786468D01*
X59087897Y-45834087D01*
X59064087Y-45905516D01*
X58778373Y-46191230D01*
X59087897Y-46191230D01*
D11*
X35327820Y-51034097D02*
X35327820Y-51605525D01*
X35327820Y-51319811D02*
X34327820Y-51319811D01*
X34470678Y-51415049D01*
X34565916Y-51510287D01*
X34613535Y-51605525D01*
X34327820Y-50415049D02*
X34327820Y-50319811D01*
X34375440Y-50224573D01*
X34423059Y-50176954D01*
X34518297Y-50129335D01*
X34708773Y-50081716D01*
X34946868Y-50081716D01*
X35137344Y-50129335D01*
X35232582Y-50176954D01*
X35280201Y-50224573D01*
X35327820Y-50319811D01*
X35327820Y-50415049D01*
X35280201Y-50510287D01*
X35232582Y-50557906D01*
X35137344Y-50605525D01*
X34946868Y-50653144D01*
X34708773Y-50653144D01*
X34518297Y-50605525D01*
X34423059Y-50557906D01*
X34375440Y-50510287D01*
X34327820Y-50415049D01*
X34661154Y-49653144D02*
X35327820Y-49653144D01*
X34756392Y-49653144D02*
X34708773Y-49605525D01*
X34661154Y-49510287D01*
X34661154Y-49367430D01*
X34708773Y-49272192D01*
X34804011Y-49224573D01*
X35327820Y-49224573D01*
D13*
X36863611Y-50448373D02*
X36887420Y-50472182D01*
X36911230Y-50543611D01*
X36911230Y-50591230D01*
X36887420Y-50662659D01*
X36839801Y-50710278D01*
X36792182Y-50734087D01*
X36696944Y-50757897D01*
X36625516Y-50757897D01*
X36530278Y-50734087D01*
X36482659Y-50710278D01*
X36435040Y-50662659D01*
X36411230Y-50591230D01*
X36411230Y-50543611D01*
X36435040Y-50472182D01*
X36458849Y-50448373D01*
X36911230Y-49972182D02*
X36911230Y-50257897D01*
X36911230Y-50115040D02*
X36411230Y-50115040D01*
X36482659Y-50162659D01*
X36530278Y-50210278D01*
X36554087Y-50257897D01*
M02*
